<svg width="1856" height="1110" viewBox="0 0 1856 1110" fill="none" xmlns="http://www.w3.org/2000/svg">
<path d="M606 419L0 207V276.5L606 419Z" fill="#8707D6"/>
<path d="M563 502.5L0 454V502.5H563Z" fill="#8707D6"/>
<path d="M305.5 613.5H0V655L305.5 613.5Z" fill="#8707D6"/>
<path d="M563 698L0 822V891.5L563 698Z" fill="#8707D6"/>
<path d="M464 848.5L0 1048V1110H85.5L464 848.5Z" fill="#8707D6"/>
<path d="M541 940L336 1110H378.5L541 940Z" fill="#8707D6"/>
<path d="M702 906.5L548.5 1110H587L702 906.5Z" fill="#8707D6"/>
<path d="M842 1110L874.5 947L884 1110H842H702H685L754 960.5L702 1110H842Z" fill="#8707D6"/>
<path d="M685 276.5L550.5 142.5L587 139.5L685 276.5Z" fill="#8707D6"/>
<path d="M541 289.5L312 168.5L366.5 164.5L541 289.5Z" fill="#8707D6"/>
<path d="M842 260.5L772 120.5L824.5 114L842 260.5Z" fill="#8707D6"/>
<path d="M947.5 299.5L925.5 104L971.5 99L947.5 299.5Z" fill="#8707D6"/>
<path d="M1307 715.5L1855.5 919V849.5L1307 715.5Z" fill="#8707D6"/>
<path d="M1293 595L1855.5 672V623.5L1293 595Z" fill="#8707D6"/>
<path d="M1550 512.5H1855.5V471L1550 512.5Z" fill="#8707D6"/>
<path d="M1328.5 454L1855.5 304V234.5L1328.5 454Z" fill="#8707D6"/>
<path d="M1397 289.5L1855.5 78V0.5L1773 9L1397 289.5Z" fill="#8707D6"/>
<path d="M1280 299.5L1508 37L1463.5 42L1280 299.5Z" fill="#8707D6"/>
<path d="M1183.5 260.5L1306.5 63.5L1266.5 67.5L1183.5 260.5Z" fill="#8707D6"/>
<path d="M1057 310L1101.5 84L1079.5 86L1057 310Z" fill="#8707D6"/>
<path d="M1170.5 849.5L1397 1103H1328.5L1170.5 849.5Z" fill="#8707D6"/>
<path d="M1314.5 836.5L1688 1110L1619 1103L1314.5 836.5Z" fill="#8707D6"/>
<path d="M1039.5 940L1108.5 1103H1058L1039.5 940Z" fill="#8707D6"/>
</svg>
