<svg id="Слой_1" data-name="Слой 1" xmlns="http://www.w3.org/2000/svg" viewBox="0 0 458.51 458.35"><defs><style>.cls-1{fill:#ed7950;}</style></defs><path class="cls-1" d="M907.43,311.36a.19.19,0,0,0,.23-.13h0a.18.18,0,0,0-.13-.23.19.19,0,0,0-.24.13v0a.18.18,0,0,0,.14.22Z" transform="translate(-730.99 -310.98)"/><path class="cls-1" d="M929.82,317a1,1,0,1,0-.73-1.14A1,1,0,0,0,929.82,317Z" transform="translate(-730.99 -310.98)"/><path class="cls-1" d="M952.3,322.34a1.47,1.47,0,1,0-1.14-1.75,1.47,1.47,0,0,0,1.14,1.75Z" transform="translate(-730.99 -310.98)"/><path class="cls-1" d="M974.76,327.57a1.86,1.86,0,0,0,.92-3.6l-.14,0a1.86,1.86,0,0,0-.78,3.63Z" transform="translate(-730.99 -310.98)"/><path class="cls-1" d="M997.3,332.56a2,2,0,1,0-1.52-2.36h0A2,2,0,0,0,997.3,332.56Z" transform="translate(-730.99 -310.98)"/><path class="cls-1" d="M1019.86,337.36a1.91,1.91,0,1,0-1.47-2.29,1.91,1.91,0,0,0,1.47,2.29Z" transform="translate(-730.99 -310.98)"/><path class="cls-1" d="M1042.5,342a1.66,1.66,0,1,0-1.28-2h0A1.67,1.67,0,0,0,1042.5,342Z" transform="translate(-730.99 -310.98)"/><path class="cls-1" d="M1065.17,346.32a1.14,1.14,0,0,0,1.36-.86v0a1.15,1.15,0,1,0-1.38.88Z" transform="translate(-730.99 -310.98)"/><path class="cls-1" d="M1087.87,350.49a.47.47,0,0,0,.53-.34.44.44,0,0,0-.32-.54h0a.44.44,0,0,0-.5.39.44.44,0,0,0,.31.48Z" transform="translate(-730.99 -310.98)"/><path class="cls-1" d="M879.83,329.87a1,1,0,0,0,1.2-.75v0a1,1,0,1,0-1.22.78Z" transform="translate(-730.99 -310.98)"/><path class="cls-1" d="M902.19,335.67a2,2,0,1,0-1.51-2.36h0A2,2,0,0,0,902.19,335.67Z" transform="translate(-730.99 -310.98)"/><path class="cls-1" d="M924.56,341.41a2.86,2.86,0,1,0-2.2-3.42,2.86,2.86,0,0,0,2.2,3.42Z" transform="translate(-730.99 -310.98)"/><path class="cls-1" d="M947,346.83a3.45,3.45,0,1,0-2.66-4.1,3.45,3.45,0,0,0,2.66,4.1Z" transform="translate(-730.99 -310.98)"/><path class="cls-1" d="M969.48,352.08a3.84,3.84,0,1,0-2.94-4.58h0a3.82,3.82,0,0,0,2.89,4.56Z" transform="translate(-730.99 -310.98)"/><path class="cls-1" d="M992,357.11a4,4,0,1,0-3.1-4.79v0A4,4,0,0,0,992,357.11Z" transform="translate(-730.99 -310.98)"/><path class="cls-1" d="M1014.62,361.87a3.91,3.91,0,1,0-3-4.65,3.91,3.91,0,0,0,3,4.65Z" transform="translate(-730.99 -310.98)"/><path class="cls-1" d="M1037.22,366.47a3.65,3.65,0,1,0-2.8-4.34h0A3.66,3.66,0,0,0,1037.22,366.47Z" transform="translate(-730.99 -310.98)"/><path class="cls-1" d="M1059.92,370.76a3.08,3.08,0,1,0-2.35-3.65h0A3.06,3.06,0,0,0,1059.92,370.76Z" transform="translate(-730.99 -310.98)"/><path class="cls-1" d="M1082.62,374.88a2.3,2.3,0,1,0-1.76-2.74A2.31,2.31,0,0,0,1082.62,374.88Z" transform="translate(-730.99 -310.98)"/><path class="cls-1" d="M1105.37,378.86a1.45,1.45,0,0,0,1.72-1.08,1.44,1.44,0,0,0-2.8-.63v0A1.44,1.44,0,0,0,1105.37,378.86Z" transform="translate(-730.99 -310.98)"/><path class="cls-1" d="M1128.17,382.59a.25.25,0,0,0,.3-.18h0a.26.26,0,0,0-.18-.32h0a.28.28,0,0,0-.31.21A.27.27,0,0,0,1128.17,382.59Z" transform="translate(-730.99 -310.98)"/><path class="cls-1" d="M830.07,341.78a.06.06,0,0,0,.07,0h0a.07.07,0,0,0,0-.08h0a.07.07,0,0,0-.08.05.06.06,0,0,0,0,.08Z" transform="translate(-730.99 -310.98)"/><path class="cls-1" d="M852.33,348a1.4,1.4,0,1,0-.05,0Z" transform="translate(-730.99 -310.98)"/><path class="cls-1" d="M874.62,354.06a2.69,2.69,0,1,0-2.06-3.19h0A2.69,2.69,0,0,0,874.62,354.06Z" transform="translate(-730.99 -310.98)"/><path class="cls-1" d="M897,360a3.78,3.78,0,1,0-2.89-4.49h0A3.79,3.79,0,0,0,897,360Z" transform="translate(-730.99 -310.98)"/><path class="cls-1" d="M919.32,365.72a4.67,4.67,0,1,0-3.58-5.55h0A4.68,4.68,0,0,0,919.32,365.72Z" transform="translate(-730.99 -310.98)"/><path class="cls-1" d="M941.75,371.28a5.38,5.38,0,1,0-4.14-6.4,5.37,5.37,0,0,0,4.14,6.4Z" transform="translate(-730.99 -310.98)"/><path class="cls-1" d="M964.2,376.58a5.83,5.83,0,1,0-4.46-6.93h0A5.83,5.83,0,0,0,964.2,376.58Z" transform="translate(-730.99 -310.98)"/><path class="cls-1" d="M986.73,381.62a6,6,0,1,0-4.62-7.15A6,6,0,0,0,986.73,381.62Z" transform="translate(-730.99 -310.98)"/><path class="cls-1" d="M1009.33,386.35a5.88,5.88,0,1,0-4.52-7A5.89,5.89,0,0,0,1009.33,386.35Z" transform="translate(-730.99 -310.98)"/><path class="cls-1" d="M1032,390.91a5.57,5.57,0,1,0-4.29-6.62,5.58,5.58,0,0,0,4.29,6.62Z" transform="translate(-730.99 -310.98)"/><path class="cls-1" d="M1054.65,395.14a4.93,4.93,0,1,0-3.79-5.86,4.92,4.92,0,0,0,3.79,5.86Z" transform="translate(-730.99 -310.98)"/><path class="cls-1" d="M1077.39,399.2a4.1,4.1,0,1,0-3.14-4.87h0a4.09,4.09,0,0,0,3.13,4.87Z" transform="translate(-730.99 -310.98)"/><path class="cls-1" d="M1100.16,403.05a3.07,3.07,0,1,0-2.38-3.65,3.09,3.09,0,0,0,2.38,3.65Z" transform="translate(-730.99 -310.98)"/><path class="cls-1" d="M1123,406.72a1.85,1.85,0,1,0-1.43-2.21,1.85,1.85,0,0,0,1.43,2.21Z" transform="translate(-730.99 -310.98)"/><path class="cls-1" d="M1145.82,410.26a.51.51,0,0,0,.61-.38h0a.51.51,0,0,0-.42-.59.52.52,0,0,0-.58.37.51.51,0,0,0,.38.61Z" transform="translate(-730.99 -310.98)"/><path class="cls-1" d="M824.91,365.66a1.43,1.43,0,1,0-1.08-1.71v0A1.44,1.44,0,0,0,824.91,365.66Z" transform="translate(-730.99 -310.98)"/><path class="cls-1" d="M847.14,372a2.94,2.94,0,1,0-2.25-3.49A2.94,2.94,0,0,0,847.14,372Z" transform="translate(-730.99 -310.98)"/><path class="cls-1" d="M869.42,378.21a4.29,4.29,0,1,0-3.28-5.1h0A4.28,4.28,0,0,0,869.42,378.21Z" transform="translate(-730.99 -310.98)"/><path class="cls-1" d="M891.73,384.24a5.5,5.5,0,1,0-4.22-6.54,5.51,5.51,0,0,0,4.22,6.54Z" transform="translate(-730.99 -310.98)"/><path class="cls-1" d="M914.09,390a6.46,6.46,0,1,0-5-7.68A6.44,6.44,0,0,0,914.09,390Z" transform="translate(-730.99 -310.98)"/><path class="cls-1" d="M936.5,395.65a7.23,7.23,0,1,0-5.56-8.58h0a7.22,7.22,0,0,0,5.55,8.58Z" transform="translate(-730.99 -310.98)"/><path class="cls-1" d="M958.92,401.08a7.81,7.81,0,1,0-6-9.3h0A7.84,7.84,0,0,0,958.92,401.08Z" transform="translate(-730.99 -310.98)"/><path class="cls-1" d="M981.45,406.13a8,8,0,1,0-6.12-9.52h0A8,8,0,0,0,981.45,406.13Z" transform="translate(-730.99 -310.98)"/><path class="cls-1" d="M1004.05,410.86a7.87,7.87,0,1,0-6-9.36,7.87,7.87,0,0,0,6,9.36Z" transform="translate(-730.99 -310.98)"/><path class="cls-1" d="M1026.69,415.35a7.49,7.49,0,1,0-5.72-8.91h0A7.49,7.49,0,0,0,1026.69,415.35Z" transform="translate(-730.99 -310.98)"/><path class="cls-1" d="M1049.4,419.52a6.79,6.79,0,1,0-5.21-8.07,6.78,6.78,0,0,0,5.21,8.07Z" transform="translate(-730.99 -310.98)"/><path class="cls-1" d="M1072.16,423.44a5.82,5.82,0,1,0-4.46-6.92,5.83,5.83,0,0,0,4.46,6.92Z" transform="translate(-730.99 -310.98)"/><path class="cls-1" d="M1095,427.17a4.67,4.67,0,1,0-3.57-5.56,4.66,4.66,0,0,0,3.57,5.56Z" transform="translate(-730.99 -310.98)"/><path class="cls-1" d="M1117.79,430.78a3.39,3.39,0,1,0-2.59-4h0A3.4,3.4,0,0,0,1117.79,430.78Z" transform="translate(-730.99 -310.98)"/><path class="cls-1" d="M1140.67,434.2a1.9,1.9,0,1,0-1.48-2.28,1.9,1.9,0,0,0,1.48,2.28Z" transform="translate(-730.99 -310.98)"/><path class="cls-1" d="M1163.55,437.56a.38.38,0,0,0,.47-.28v0a.4.4,0,0,0-.33-.43.37.37,0,0,0-.15.73Z" transform="translate(-730.99 -310.98)"/><path class="cls-1" d="M797.56,383a1,1,0,1,0-.77-1.21h0A1,1,0,0,0,797.56,383Z" transform="translate(-730.99 -310.98)"/><path class="cls-1" d="M819.78,389.46a2.68,2.68,0,1,0-2.07-3.18h0a2.68,2.68,0,0,0,2,3.18Z" transform="translate(-730.99 -310.98)"/><path class="cls-1" d="M842,395.9a4.29,4.29,0,1,0-3.29-5.1h0A4.29,4.29,0,0,0,842,395.9Z" transform="translate(-730.99 -310.98)"/><path class="cls-1" d="M864.25,402.2a5.77,5.77,0,1,0-4.42-6.85h0A5.78,5.78,0,0,0,864.25,402.2Z" transform="translate(-730.99 -310.98)"/><path class="cls-1" d="M886.55,408.3a7,7,0,1,0-5.4-8.36A7,7,0,0,0,886.55,408.3Z" transform="translate(-730.99 -310.98)"/><path class="cls-1" d="M908.87,414.28a8.18,8.18,0,1,0-6.28-9.72A8.17,8.17,0,0,0,908.87,414.28Z" transform="translate(-730.99 -310.98)"/><path class="cls-1" d="M931.24,420.09a9.15,9.15,0,1,0-7-10.88,9.15,9.15,0,0,0,7,10.88Z" transform="translate(-730.99 -310.98)"/><path class="cls-1" d="M953.64,425.57a9.79,9.79,0,1,0-7.49-11.65v0A9.78,9.78,0,0,0,953.64,425.57Z" transform="translate(-730.99 -310.98)"/><path class="cls-1" d="M976.17,430.63a10,10,0,1,0-7.63-11.89v0A10,10,0,0,0,976.17,430.63Z" transform="translate(-730.99 -310.98)"/><path class="cls-1" d="M998.75,435.44a9.92,9.92,0,1,0-7.63-11.79,9.93,9.93,0,0,0,7.63,11.79Z" transform="translate(-730.99 -310.98)"/><path class="cls-1" d="M1021.42,439.78a9.41,9.41,0,1,0-7.22-11.18,9.41,9.41,0,0,0,7.22,11.18Z" transform="translate(-730.99 -310.98)"/><path class="cls-1" d="M1044.19,443.83a8.58,8.58,0,1,0-6.58-10.2h0A8.58,8.58,0,0,0,1044.19,443.83Z" transform="translate(-730.99 -310.98)"/><path class="cls-1" d="M1067,447.63a7.49,7.49,0,1,0-5.72-8.92v0A7.49,7.49,0,0,0,1067,447.63Z" transform="translate(-730.99 -310.98)"/><path class="cls-1" d="M1089.78,451.24a6.2,6.2,0,1,0-4.77-7.38,6.2,6.2,0,0,0,4.77,7.38Z" transform="translate(-730.99 -310.98)"/><path class="cls-1" d="M1112.65,454.65a4.74,4.74,0,1,0-3.6-5.64v0A4.74,4.74,0,0,0,1112.65,454.65Z" transform="translate(-730.99 -310.98)"/><path class="cls-1" d="M1135.52,458.07a3.26,3.26,0,1,0-2.5-3.87h0a3.26,3.26,0,0,0,2.5,3.87Z" transform="translate(-730.99 -310.98)"/><path class="cls-1" d="M1158.43,461.3a1.59,1.59,0,1,0-1.21-1.91,1.58,1.58,0,0,0,1.18,1.9Z" transform="translate(-730.99 -310.98)"/><path class="cls-1" d="M770.32,399.86a.18.18,0,0,0,.22-.14h0a.2.2,0,0,0-.15-.23.21.21,0,0,0-.23.15A.19.19,0,0,0,770.32,399.86Z" transform="translate(-730.99 -310.98)"/><path class="cls-1" d="M792.5,406.48a2,2,0,1,0-1.52-2.36,2,2,0,0,0,1.52,2.36Z" transform="translate(-730.99 -310.98)"/><path class="cls-1" d="M814.69,413.09a3.78,3.78,0,1,0-2.89-4.49h0A3.78,3.78,0,0,0,814.69,413.09Z" transform="translate(-730.99 -310.98)"/><path class="cls-1" d="M836.89,419.64a5.5,5.5,0,1,0-4.23-6.54,5.5,5.5,0,0,0,4.23,6.54Z" transform="translate(-730.99 -310.98)"/><path class="cls-1" d="M859.12,426a7,7,0,1,0-5.39-8.37A7,7,0,0,0,859.12,426Z" transform="translate(-730.99 -310.98)"/><path class="cls-1" d="M881.36,432.36a8.59,8.59,0,1,0-6.57-10.2h0A8.58,8.58,0,0,0,881.36,432.36Z" transform="translate(-730.99 -310.98)"/><path class="cls-1" d="M903.64,438.54a9.91,9.91,0,1,0-7.6-11.79A9.92,9.92,0,0,0,903.64,438.54Z" transform="translate(-730.99 -310.98)"/><path class="cls-1" d="M926,444.47a11,11,0,1,0-8.45-13.09A11,11,0,0,0,926,444.47Z" transform="translate(-730.99 -310.98)"/><path class="cls-1" d="M948.38,450a11.71,11.71,0,1,0-9-13.93A11.72,11.72,0,0,0,948.38,450Z" transform="translate(-730.99 -310.98)"/><path class="cls-1" d="M970.88,455.18a12,12,0,1,0-9.23-14.3,12,12,0,0,0,9.23,14.3Z" transform="translate(-730.99 -310.98)"/><path class="cls-1" d="M993.49,459.86a11.84,11.84,0,1,0-9.09-14.07,11.84,11.84,0,0,0,9.09,14.07Z" transform="translate(-730.99 -310.98)"/><path class="cls-1" d="M1016.17,464.16a11.26,11.26,0,1,0-8.64-13.39,11.26,11.26,0,0,0,8.64,13.39Z" transform="translate(-730.99 -310.98)"/><path class="cls-1" d="M1038.94,468.07a10.3,10.3,0,1,0-7.91-12.24,10.29,10.29,0,0,0,7.91,12.24Z" transform="translate(-730.99 -310.98)"/><path class="cls-1" d="M1061.76,471.68a9,9,0,1,0-6.92-10.73h0A9,9,0,0,0,1061.76,471.68Z" transform="translate(-730.99 -310.98)"/><path class="cls-1" d="M1084.64,475.11a7.55,7.55,0,1,0-5.8-9,7.55,7.55,0,0,0,5.8,9Z" transform="translate(-730.99 -310.98)"/><path class="cls-1" d="M1107.52,478.46a6,6,0,1,0-4.61-7.15A6,6,0,0,0,1107.52,478.46Z" transform="translate(-730.99 -310.98)"/><path class="cls-1" d="M1130.43,481.7a4.35,4.35,0,1,0-3.33-5.18,4.36,4.36,0,0,0,3.33,5.18Z" transform="translate(-730.99 -310.98)"/><path class="cls-1" d="M1153.35,484.87a2.62,2.62,0,1,0-2-3.12A2.63,2.63,0,0,0,1153.35,484.87Z" transform="translate(-730.99 -310.98)"/><path class="cls-1" d="M1176.31,487.92a.77.77,0,0,0,.32-1.51.77.77,0,0,0-1,.53.78.78,0,0,0,.53,1Z" transform="translate(-730.99 -310.98)"/><path class="cls-1" d="M765.3,423.19a1,1,0,1,0-.74-1.15,1,1,0,0,0,.74,1.15Z" transform="translate(-730.99 -310.98)"/><path class="cls-1" d="M787.45,429.92a2.86,2.86,0,1,0-2.2-3.42,2.85,2.85,0,0,0,2.2,3.42Z" transform="translate(-730.99 -310.98)"/><path class="cls-1" d="M809.64,436.54a4.67,4.67,0,1,0-3.58-5.56,4.69,4.69,0,0,0,3.58,5.56Z" transform="translate(-730.99 -310.98)"/><path class="cls-1" d="M831.82,443.14a6.46,6.46,0,1,0-5-7.68h0A6.46,6.46,0,0,0,831.82,443.14Z" transform="translate(-730.99 -310.98)"/><path class="cls-1" d="M854,449.7a8.19,8.19,0,1,0-6.28-9.74h0A8.21,8.21,0,0,0,854,449.7Z" transform="translate(-730.99 -310.98)"/><path class="cls-1" d="M876.22,456.25a9.92,9.92,0,1,0-7.6-11.79h0A9.94,9.94,0,0,0,876.22,456.25Z" transform="translate(-730.99 -310.98)"/><path class="cls-1" d="M898.46,462.55A11.4,11.4,0,1,0,889.73,449h0A11.41,11.41,0,0,0,898.46,462.55Z" transform="translate(-730.99 -310.98)"/><path class="cls-1" d="M920.76,468.71A12.73,12.73,0,1,0,911,453.56a12.74,12.74,0,0,0,9.78,15.15Z" transform="translate(-730.99 -310.98)"/><path class="cls-1" d="M943.12,474.45a13.63,13.63,0,1,0-10.45-16.21,13.62,13.62,0,0,0,10.45,16.21Z" transform="translate(-730.99 -310.98)"/><path class="cls-1" d="M965.6,479.68A14,14,0,1,0,954.86,463v0A14,14,0,0,0,965.6,479.68Z" transform="translate(-730.99 -310.98)"/><path class="cls-1" d="M988.21,484.36a13.83,13.83,0,1,0-10.61-16.43,13.83,13.83,0,0,0,10.61,16.43Z" transform="translate(-730.99 -310.98)"/><path class="cls-1" d="M1010.93,488.47a13.06,13.06,0,1,0-10-15.51,13.06,13.06,0,0,0,10,15.51Z" transform="translate(-730.99 -310.98)"/><path class="cls-1" d="M1033.75,492.15a11.84,11.84,0,1,0-9.06-14.08h0A11.85,11.85,0,0,0,1033.75,492.15Z" transform="translate(-730.99 -310.98)"/><path class="cls-1" d="M1056.61,495.63a10.43,10.43,0,1,0-8-12.4,10.44,10.44,0,0,0,8,12.4Z" transform="translate(-730.99 -310.98)"/><path class="cls-1" d="M1079.52,498.86a8.77,8.77,0,1,0-6.72-10.42,8.76,8.76,0,0,0,6.72,10.42Z" transform="translate(-730.99 -310.98)"/><path class="cls-1" d="M1102.44,502a7,7,0,1,0-5.39-8.37h0A7,7,0,0,0,1102.44,502Z" transform="translate(-730.99 -310.98)"/><path class="cls-1" d="M1125.37,505.2a5.31,5.31,0,1,0-4.07-6.31A5.32,5.32,0,0,0,1125.37,505.2Z" transform="translate(-730.99 -310.98)"/><path class="cls-1" d="M1148.32,508.24a3.45,3.45,0,1,0-2.64-4.11h0A3.45,3.45,0,0,0,1148.32,508.24Z" transform="translate(-730.99 -310.98)"/><path class="cls-1" d="M1171.27,511.29a1.6,1.6,0,1,0-1.22-1.91,1.59,1.59,0,0,0,1.22,1.91Z" transform="translate(-730.99 -310.98)"/><path class="cls-1" d="M760.33,446.25a1.47,1.47,0,1,0-1.13-1.76,1.47,1.47,0,0,0,1.13,1.76Z" transform="translate(-730.99 -310.98)"/><path class="cls-1" d="M782.47,453a3.45,3.45,0,1,0-2.65-4.11A3.45,3.45,0,0,0,782.47,453Z" transform="translate(-730.99 -310.98)"/><path class="cls-1" d="M804.63,459.76a5.37,5.37,0,1,0-4.13-6.38h0A5.37,5.37,0,0,0,804.63,459.76Z" transform="translate(-730.99 -310.98)"/><path class="cls-1" d="M826.8,466.44a7.23,7.23,0,1,0-5.54-8.6h0a7.21,7.21,0,0,0,5.53,8.58Z" transform="translate(-730.99 -310.98)"/><path class="cls-1" d="M849,473.19a9.16,9.16,0,1,0-7-10.88h0a9.14,9.14,0,0,0,7,10.87Z" transform="translate(-730.99 -310.98)"/><path class="cls-1" d="M871.13,479.86a11,11,0,1,0-8.45-13.08,11,11,0,0,0,8.45,13.08Z" transform="translate(-730.99 -310.98)"/><path class="cls-1" d="M893.32,486.42a12.74,12.74,0,1,0-9.76-15.14A12.74,12.74,0,0,0,893.32,486.42Z" transform="translate(-730.99 -310.98)"/><path class="cls-1" d="M915.58,492.79a14.28,14.28,0,1,0-11-17,14.28,14.28,0,0,0,11,17Z" transform="translate(-730.99 -310.98)"/><path class="cls-1" d="M938.12,497.64a14.27,14.27,0,1,0-10.93-17h0A14.3,14.3,0,0,0,938.12,497.64Z" transform="translate(-730.99 -310.98)"/><path class="cls-1" d="M960.68,502.51a14.28,14.28,0,1,0-10.91-17v0A14.32,14.32,0,0,0,960.68,502.51Z" transform="translate(-730.99 -310.98)"/><path class="cls-1" d="M983.26,507.37a14.28,14.28,0,1,0-11-17,14.27,14.27,0,0,0,11,17Z" transform="translate(-730.99 -310.98)"/><path class="cls-1" d="M1005.82,512.22a14.27,14.27,0,1,0-11-17,14.29,14.29,0,0,0,11,17Z" transform="translate(-730.99 -310.98)"/><path class="cls-1" d="M1028.6,516.08a13.25,13.25,0,1,0-10.18-15.74A13.25,13.25,0,0,0,1028.6,516.08Z" transform="translate(-730.99 -310.98)"/><path class="cls-1" d="M1051.51,519.31a11.58,11.58,0,1,0-8.89-13.77A11.57,11.57,0,0,0,1051.51,519.31Z" transform="translate(-730.99 -310.98)"/><path class="cls-1" d="M1074.45,522.42a9.79,9.79,0,1,0-7.52-11.64,9.78,9.78,0,0,0,7.52,11.64Z" transform="translate(-730.99 -310.98)"/><path class="cls-1" d="M1097.41,525.4a7.87,7.87,0,1,0-6-9.37,7.87,7.87,0,0,0,6,9.37Z" transform="translate(-730.99 -310.98)"/><path class="cls-1" d="M1120.36,528.45a6,6,0,1,0-4.61-7.15A6,6,0,0,0,1120.36,528.45Z" transform="translate(-730.99 -310.98)"/><path class="cls-1" d="M1143.32,531.44a4.1,4.1,0,1,0-3.13-4.88h0a4.09,4.09,0,0,0,3.13,4.86Z" transform="translate(-730.99 -310.98)"/><path class="cls-1" d="M1166.29,534.43a2.18,2.18,0,0,0,1.07-4.23l-.15,0a2.18,2.18,0,0,0-.92,4.26Z" transform="translate(-730.99 -310.98)"/><path class="cls-1" d="M1189.27,537.33a.19.19,0,1,0,.09-.36h0a.17.17,0,0,0-.21.12v0a.19.19,0,0,0,.13.22Z" transform="translate(-730.99 -310.98)"/><path class="cls-1" d="M755.39,469.18A1.85,1.85,0,1,0,754,467a1.85,1.85,0,0,0,1.43,2.2Z" transform="translate(-730.99 -310.98)"/><path class="cls-1" d="M777.53,476a3.81,3.81,0,1,0-2.95-4.56,3.81,3.81,0,0,0,2.95,4.56Z" transform="translate(-730.99 -310.98)"/><path class="cls-1" d="M799.68,482.79a5.83,5.83,0,1,0-4.47-6.93,5.81,5.81,0,0,0,4.47,6.93Z" transform="translate(-730.99 -310.98)"/><path class="cls-1" d="M821.82,489.58a7.81,7.81,0,1,0-6-9.28h0A7.81,7.81,0,0,0,821.82,489.58Z" transform="translate(-730.99 -310.98)"/><path class="cls-1" d="M844,496.38a9.79,9.79,0,1,0-7.51-11.64A9.78,9.78,0,0,0,844,496.38Z" transform="translate(-730.99 -310.98)"/><path class="cls-1" d="M866.12,503.12a11.71,11.71,0,1,0-9-13.92A11.72,11.72,0,0,0,866.12,503.12Z" transform="translate(-730.99 -310.98)"/><path class="cls-1" d="M888.27,509.86a13.64,13.64,0,1,0-10.44-16.22,13.64,13.64,0,0,0,10.44,16.22Z" transform="translate(-730.99 -310.98)"/><path class="cls-1" d="M910.72,515.35a14.28,14.28,0,1,0-11-17,14.29,14.29,0,0,0,11,17Z" transform="translate(-730.99 -310.98)"/><path class="cls-1" d="M933.26,520.2a14.27,14.27,0,1,0-10.93-17h0A14.28,14.28,0,0,0,933.26,520.2Z" transform="translate(-730.99 -310.98)"/><path class="cls-1" d="M955.82,525.06a14.27,14.27,0,1,0-10.94-17h0A14.27,14.27,0,0,0,955.82,525.06Z" transform="translate(-730.99 -310.98)"/><path class="cls-1" d="M978.4,529.92a14.27,14.27,0,1,0-11-17,14.27,14.27,0,0,0,11,17Z" transform="translate(-730.99 -310.98)"/><path class="cls-1" d="M1001,534.78a14.26,14.26,0,1,0-11-17,14.26,14.26,0,0,0,11,17Z" transform="translate(-730.99 -310.98)"/><path class="cls-1" d="M1023.52,539.65a14.28,14.28,0,1,0-11-17,14.27,14.27,0,0,0,11,17Z" transform="translate(-730.99 -310.98)"/><path class="cls-1" d="M1046.48,542.63a12.36,12.36,0,1,0-9.48-14.69,12.35,12.35,0,0,0,9.48,14.69Z" transform="translate(-730.99 -310.98)"/><path class="cls-1" d="M1069.46,545.6a10.43,10.43,0,1,0-8-12.4,10.43,10.43,0,0,0,8,12.4Z" transform="translate(-730.99 -310.98)"/><path class="cls-1" d="M1092.43,548.53a8.45,8.45,0,1,0-6.47-10h0A8.44,8.44,0,0,0,1092.43,548.53Z" transform="translate(-730.99 -310.98)"/><path class="cls-1" d="M1115.41,551.45a6.47,6.47,0,1,0-4.94-7.7v0A6.47,6.47,0,0,0,1115.41,551.45Z" transform="translate(-730.99 -310.98)"/><path class="cls-1" d="M1138.37,554.44a4.55,4.55,0,1,0-3.49-5.41,4.54,4.54,0,0,0,3.49,5.41Z" transform="translate(-730.99 -310.98)"/><path class="cls-1" d="M1161.35,557.35a2.56,2.56,0,1,0-1.94-3.05h0A2.57,2.57,0,0,0,1161.35,557.35Z" transform="translate(-730.99 -310.98)"/><path class="cls-1" d="M1184.34,560.22a.52.52,0,0,0,.62-.39.52.52,0,0,0-1-.23A.52.52,0,0,0,1184.34,560.22Z" transform="translate(-730.99 -310.98)"/><path class="cls-1" d="M750.5,491.87a2,2,0,1,0-1.52-2.39,2,2,0,0,0,1.52,2.39Z" transform="translate(-730.99 -310.98)"/><path class="cls-1" d="M772.63,498.74a4,4,0,1,0-3.09-4.81,4,4,0,0,0,3.09,4.81Z" transform="translate(-730.99 -310.98)"/><path class="cls-1" d="M794.78,505.54a6,6,0,1,0-4.62-7.15,6,6,0,0,0,4.62,7.15Z" transform="translate(-730.99 -310.98)"/><path class="cls-1" d="M816.92,512.33a8,8,0,1,0-6.14-9.51A8,8,0,0,0,816.92,512.33Z" transform="translate(-730.99 -310.98)"/><path class="cls-1" d="M839.06,519.14a10,10,0,1,0-7.65-11.88A10,10,0,0,0,839.06,519.14Z" transform="translate(-730.99 -310.98)"/><path class="cls-1" d="M861.19,526A12,12,0,1,0,852,511.68,12,12,0,0,0,861.19,526Z" transform="translate(-730.99 -310.98)"/><path class="cls-1" d="M883.34,532.78a14,14,0,1,0-10.74-16.65h0A14,14,0,0,0,883.34,532.78Z" transform="translate(-730.99 -310.98)"/><path class="cls-1" d="M905.86,537.91a14.27,14.27,0,1,0-11-17,14.27,14.27,0,0,0,11,17Z" transform="translate(-730.99 -310.98)"/><path class="cls-1" d="M928.4,542.77a14.28,14.28,0,1,0-10.94-17h0A14.29,14.29,0,0,0,928.4,542.77Z" transform="translate(-730.99 -310.98)"/><path class="cls-1" d="M951,547.63a14.28,14.28,0,1,0-10.93-17h0A14.27,14.27,0,0,0,951,547.63Z" transform="translate(-730.99 -310.98)"/><path class="cls-1" d="M973.54,552.49a14.27,14.27,0,1,0-11-17,14.28,14.28,0,0,0,11,17Z" transform="translate(-730.99 -310.98)"/><path class="cls-1" d="M996.1,557.35a14.27,14.27,0,1,0-11-17,14.27,14.27,0,0,0,11,17Z" transform="translate(-730.99 -310.98)"/><path class="cls-1" d="M1018.66,562.21a14.28,14.28,0,1,0-11-17,14.27,14.27,0,0,0,11,17Z" transform="translate(-730.99 -310.98)"/><path class="cls-1" d="M1041.54,565.57a12.74,12.74,0,1,0-9.75-15.15h0a12.74,12.74,0,0,0,9.75,15.14Z" transform="translate(-730.99 -310.98)"/><path class="cls-1" d="M1064.53,568.43a10.69,10.69,0,1,0-8.18-12.71h0A10.69,10.69,0,0,0,1064.53,568.43Z" transform="translate(-730.99 -310.98)"/><path class="cls-1" d="M1087.51,571.35a8.7,8.7,0,1,0-6.68-10.35A8.7,8.7,0,0,0,1087.51,571.35Z" transform="translate(-730.99 -310.98)"/><path class="cls-1" d="M1110.51,574.21a6.67,6.67,0,1,0-5.1-7.94v0A6.68,6.68,0,0,0,1110.51,574.21Z" transform="translate(-730.99 -310.98)"/><path class="cls-1" d="M1133.48,577.12a4.67,4.67,0,1,0-3.57-5.56h0A4.68,4.68,0,0,0,1133.48,577.12Z" transform="translate(-730.99 -310.98)"/><path class="cls-1" d="M1156.46,580a2.68,2.68,0,1,0-2.06-3.2,2.69,2.69,0,0,0,2.06,3.2Z" transform="translate(-730.99 -310.98)"/><path class="cls-1" d="M1179.44,583a.7.7,0,1,0-.54-.84.71.71,0,0,0,.53.84Z" transform="translate(-730.99 -310.98)"/><path class="cls-1" d="M745.66,514.36a1.9,1.9,0,1,0-1.48-2.28,1.9,1.9,0,0,0,1.48,2.28Z" transform="translate(-730.99 -310.98)"/><path class="cls-1" d="M767.79,521.16a3.9,3.9,0,1,0-3-4.63,3.9,3.9,0,0,0,3,4.63Z" transform="translate(-730.99 -310.98)"/><path class="cls-1" d="M790,528a5.89,5.89,0,1,0-4.52-7h0A5.88,5.88,0,0,0,790,528Z" transform="translate(-730.99 -310.98)"/><path class="cls-1" d="M812.08,534.77a7.87,7.87,0,1,0-6-9.36h0A7.89,7.89,0,0,0,812.08,534.77Z" transform="translate(-730.99 -310.98)"/><path class="cls-1" d="M834.21,541.63a9.92,9.92,0,1,0-7.63-11.79,9.91,9.91,0,0,0,7.63,11.79Z" transform="translate(-730.99 -310.98)"/><path class="cls-1" d="M856.37,548.37a11.84,11.84,0,1,0-9.06-14.08h0A11.84,11.84,0,0,0,856.37,548.37Z" transform="translate(-730.99 -310.98)"/><path class="cls-1" d="M878.52,555.16a13.83,13.83,0,1,0-10.59-16.44v0A13.83,13.83,0,0,0,878.52,555.16Z" transform="translate(-730.99 -310.98)"/><path class="cls-1" d="M901,560.47a14.27,14.27,0,1,0-11-17,14.27,14.27,0,0,0,11,17Z" transform="translate(-730.99 -310.98)"/><path class="cls-1" d="M923.53,565.33a14.27,14.27,0,1,0-10.93-17h0A14.31,14.31,0,0,0,923.53,565.33Z" transform="translate(-730.99 -310.98)"/><path class="cls-1" d="M946.11,570.19a14.28,14.28,0,1,0-11-17,14.28,14.28,0,0,0,11,17Z" transform="translate(-730.99 -310.98)"/><path class="cls-1" d="M968.68,575.05a14.27,14.27,0,1,0-11-17,14.27,14.27,0,0,0,11,17Z" transform="translate(-730.99 -310.98)"/><path class="cls-1" d="M991.25,579.93a14.27,14.27,0,1,0-11-17,14.26,14.26,0,0,0,11,17Z" transform="translate(-730.99 -310.98)"/><path class="cls-1" d="M1013.8,584.77a14.28,14.28,0,1,0-11-17,14.27,14.27,0,0,0,11,17Z" transform="translate(-730.99 -310.98)"/><path class="cls-1" d="M1036.72,587.94a12.55,12.55,0,1,0-9.61-14.91h0A12.55,12.55,0,0,0,1036.72,587.94Z" transform="translate(-730.99 -310.98)"/><path class="cls-1" d="M1059.7,590.86a10.56,10.56,0,1,0-8.1-12.55A10.56,10.56,0,0,0,1059.7,590.86Z" transform="translate(-730.99 -310.98)"/><path class="cls-1" d="M1082.68,593.76a8.58,8.58,0,1,0-6.57-10.2v0A8.59,8.59,0,0,0,1082.68,593.76Z" transform="translate(-730.99 -310.98)"/><path class="cls-1" d="M1105.66,596.7a6.59,6.59,0,1,0-5.05-7.83A6.59,6.59,0,0,0,1105.66,596.7Z" transform="translate(-730.99 -310.98)"/><path class="cls-1" d="M1128.64,599.62a4.61,4.61,0,1,0-3.53-5.48h0A4.61,4.61,0,0,0,1128.64,599.62Z" transform="translate(-730.99 -310.98)"/><path class="cls-1" d="M1151.62,602.54a2.62,2.62,0,1,0-2-3.12,2.61,2.61,0,0,0,2,3.12Z" transform="translate(-730.99 -310.98)"/><path class="cls-1" d="M1174.61,605.4a.57.57,0,0,0,.69-.43.58.58,0,1,0-.7.43Z" transform="translate(-730.99 -310.98)"/><path class="cls-1" d="M740.85,536.68a1.67,1.67,0,1,0-1.27-2h0A1.67,1.67,0,0,0,740.85,536.68Z" transform="translate(-730.99 -310.98)"/><path class="cls-1" d="M763,543.48a3.65,3.65,0,1,0-2.79-4.34h0A3.66,3.66,0,0,0,763,543.48Z" transform="translate(-730.99 -310.98)"/><path class="cls-1" d="M785.15,550.22a5.57,5.57,0,1,0-4.29-6.62,5.57,5.57,0,0,0,4.29,6.62Z" transform="translate(-730.99 -310.98)"/><path class="cls-1" d="M807.3,557a7.49,7.49,0,1,0-5.71-8.91v0A7.49,7.49,0,0,0,807.3,557Z" transform="translate(-730.99 -310.98)"/><path class="cls-1" d="M829.46,563.69a9.41,9.41,0,1,0-7.21-11.18h0a9.42,9.42,0,0,0,7.21,11.18Z" transform="translate(-730.99 -310.98)"/><path class="cls-1" d="M851.64,570.36A11.26,11.26,0,1,0,843,557v0A11.26,11.26,0,0,0,851.64,570.36Z" transform="translate(-730.99 -310.98)"/><path class="cls-1" d="M873.81,577a13.06,13.06,0,1,0-10-15.52h0a13,13,0,0,0,10,15.5Z" transform="translate(-730.99 -310.98)"/><path class="cls-1" d="M896.14,583a14.28,14.28,0,1,0-11-17,14.27,14.27,0,0,0,11,17Z" transform="translate(-730.99 -310.98)"/><path class="cls-1" d="M918.68,587.88a14.27,14.27,0,1,0-10.93-17v0A14.27,14.27,0,0,0,918.68,587.88Z" transform="translate(-730.99 -310.98)"/><path class="cls-1" d="M941.25,592.74a14.27,14.27,0,1,0-11-17h0A14.27,14.27,0,0,0,941.25,592.74Z" transform="translate(-730.99 -310.98)"/><path class="cls-1" d="M963.82,597.61a14.28,14.28,0,1,0-11-17,14.28,14.28,0,0,0,11,17Z" transform="translate(-730.99 -310.98)"/><path class="cls-1" d="M986.38,602.47a14.28,14.28,0,1,0-11-17,14.27,14.27,0,0,0,11,17Z" transform="translate(-730.99 -310.98)"/><path class="cls-1" d="M1009.07,606.7a13.63,13.63,0,1,0-10.46-16.21,13.64,13.64,0,0,0,10.46,16.21Z" transform="translate(-730.99 -310.98)"/><path class="cls-1" d="M1032,609.81a11.84,11.84,0,1,0-9.06-14.08h0a11.83,11.83,0,0,0,9.06,14.07Z" transform="translate(-730.99 -310.98)"/><path class="cls-1" d="M1055,612.84A10,10,0,1,0,1047.3,601a10,10,0,0,0,7.67,11.86Z" transform="translate(-730.99 -310.98)"/><path class="cls-1" d="M1077.91,615.91a8.11,8.11,0,1,0-6.23-9.66A8.12,8.12,0,0,0,1077.91,615.91Z" transform="translate(-730.99 -310.98)"/><path class="cls-1" d="M1100.88,618.88a6.2,6.2,0,1,0-4.77-7.37,6.21,6.21,0,0,0,4.77,7.37Z" transform="translate(-730.99 -310.98)"/><path class="cls-1" d="M1123.82,621.9a4.29,4.29,0,1,0-3.28-5.1h0A4.29,4.29,0,0,0,1123.82,621.9Z" transform="translate(-730.99 -310.98)"/><path class="cls-1" d="M1146.82,624.79a2.31,2.31,0,1,0-1.76-2.74h0a2.29,2.29,0,0,0,1.75,2.73Z" transform="translate(-730.99 -310.98)"/><path class="cls-1" d="M1169.8,627.71a.31.31,0,1,0,.1-.6.34.34,0,0,0-.34.22A.33.33,0,0,0,1169.8,627.71Z" transform="translate(-730.99 -310.98)"/><path class="cls-1" d="M736.12,558.75a1.15,1.15,0,1,0-.88-1.38A1.15,1.15,0,0,0,736.12,558.75Z" transform="translate(-730.99 -310.98)"/><path class="cls-1" d="M758.25,565.48a3.07,3.07,0,1,0-2.35-3.65A3.07,3.07,0,0,0,758.25,565.48Z" transform="translate(-730.99 -310.98)"/><path class="cls-1" d="M780.43,572.15a4.93,4.93,0,1,0-3.77-5.86h0A4.92,4.92,0,0,0,780.43,572.15Z" transform="translate(-730.99 -310.98)"/><path class="cls-1" d="M802.59,578.82a6.78,6.78,0,1,0-5.2-8.05h0A6.77,6.77,0,0,0,802.59,578.82Z" transform="translate(-730.99 -310.98)"/><path class="cls-1" d="M824.78,585.44a8.58,8.58,0,1,0-6.58-10.21v0A8.58,8.58,0,0,0,824.78,585.44Z" transform="translate(-730.99 -310.98)"/><path class="cls-1" d="M847,592a10.3,10.3,0,1,0-7.91-12.24h0A10.29,10.29,0,0,0,847,592Z" transform="translate(-730.99 -310.98)"/><path class="cls-1" d="M869.21,598.35a11.85,11.85,0,1,0-9.05-14.09v0A11.85,11.85,0,0,0,869.21,598.35Z" transform="translate(-730.99 -310.98)"/><path class="cls-1" d="M891.49,604.59a13.24,13.24,0,1,0-10.17-15.73,13.24,13.24,0,0,0,10.17,15.73Z" transform="translate(-730.99 -310.98)"/><path class="cls-1" d="M913.82,610.45a14.27,14.27,0,1,0-10.93-17h0A14.26,14.26,0,0,0,913.82,610.45Z" transform="translate(-730.99 -310.98)"/><path class="cls-1" d="M936.41,615.31a14.28,14.28,0,1,0-11-17,14.27,14.27,0,0,0,11,17Z" transform="translate(-730.99 -310.98)"/><path class="cls-1" d="M959,620.17a14.27,14.27,0,1,0-11-17,14.27,14.27,0,0,0,11,17Z" transform="translate(-730.99 -310.98)"/><path class="cls-1" d="M981.65,624.41a13.63,13.63,0,1,0-10.46-16.22,13.64,13.64,0,0,0,10.46,16.22Z" transform="translate(-730.99 -310.98)"/><path class="cls-1" d="M1004.49,628A12.35,12.35,0,1,0,995,613.34h0a12.36,12.36,0,0,0,9.47,14.67Z" transform="translate(-730.99 -310.98)"/><path class="cls-1" d="M1027.37,631.38a10.82,10.82,0,1,0-8.3-12.88,10.81,10.81,0,0,0,8.3,12.88Z" transform="translate(-730.99 -310.98)"/><path class="cls-1" d="M1050.28,634.61a9.15,9.15,0,1,0-7-10.88,9.14,9.14,0,0,0,7,10.88Z" transform="translate(-730.99 -310.98)"/><path class="cls-1" d="M1073.21,637.71a7.36,7.36,0,1,0-5.66-8.74,7.35,7.35,0,0,0,5.66,8.74Z" transform="translate(-730.99 -310.98)"/><path class="cls-1" d="M1096.17,640.82a5.56,5.56,0,1,0-4.3-6.61,5.56,5.56,0,0,0,4.3,6.61Z" transform="translate(-730.99 -310.98)"/><path class="cls-1" d="M1119.1,643.86a3.7,3.7,0,1,0-2.86-4.4,3.7,3.7,0,0,0,2.86,4.4Z" transform="translate(-730.99 -310.98)"/><path class="cls-1" d="M1142.07,646.85a1.79,1.79,0,1,0-1.37-2.13A1.79,1.79,0,0,0,1142.07,646.85Z" transform="translate(-730.99 -310.98)"/><path class="cls-1" d="M731.38,580.62a.45.45,0,0,0,.51-.39A.45.45,0,0,0,731,580a.45.45,0,0,0,.3.56Z" transform="translate(-730.99 -310.98)"/><path class="cls-1" d="M753.55,587.29a2.31,2.31,0,0,0,1-4.51,2.32,2.32,0,0,0-2.75,1.76h0a2.3,2.3,0,0,0,1.75,2.74Z" transform="translate(-730.99 -310.98)"/><path class="cls-1" d="M775.74,593.91A4.1,4.1,0,1,0,772.6,589a4.11,4.11,0,0,0,3.14,4.88Z" transform="translate(-730.99 -310.98)"/><path class="cls-1" d="M797.93,600.44a5.82,5.82,0,1,0-4.46-6.92A5.83,5.83,0,0,0,797.93,600.44Z" transform="translate(-730.99 -310.98)"/><path class="cls-1" d="M820.14,606.94a7.49,7.49,0,1,0-5.72-8.91h0A7.49,7.49,0,0,0,820.14,606.94Z" transform="translate(-730.99 -310.98)"/><path class="cls-1" d="M842.38,613.32a9,9,0,1,0-6.91-10.74h0A9,9,0,0,0,842.38,613.32Z" transform="translate(-730.99 -310.98)"/><path class="cls-1" d="M864.65,619.52a10.43,10.43,0,1,0-8-12.4h0A10.43,10.43,0,0,0,864.65,619.52Z" transform="translate(-730.99 -310.98)"/><path class="cls-1" d="M887,625.52a11.58,11.58,0,1,0-8.88-13.76A11.58,11.58,0,0,0,887,625.52Z" transform="translate(-730.99 -310.98)"/><path class="cls-1" d="M909.37,631.13a12.35,12.35,0,1,0-9.47-14.69v0A12.35,12.35,0,0,0,909.37,631.13Z" transform="translate(-730.99 -310.98)"/><path class="cls-1" d="M931.85,636.37a12.73,12.73,0,1,0-9.74-15.14h0A12.75,12.75,0,0,0,931.85,636.37Z" transform="translate(-730.99 -310.98)"/><path class="cls-1" d="M954.46,641a12.54,12.54,0,1,0-9.63-14.91A12.54,12.54,0,0,0,954.46,641Z" transform="translate(-730.99 -310.98)"/><path class="cls-1" d="M977.17,645.21a11.84,11.84,0,1,0-9.09-14.07,11.84,11.84,0,0,0,9.09,14.07Z" transform="translate(-730.99 -310.98)"/><path class="cls-1" d="M1000,649.08a10.82,10.82,0,1,0-8.3-12.87,10.81,10.81,0,0,0,8.3,12.87Z" transform="translate(-730.99 -310.98)"/><path class="cls-1" d="M1022.79,652.62a9.48,9.48,0,1,0-7.27-11.26,9.48,9.48,0,0,0,7.27,11.26Z" transform="translate(-730.99 -310.98)"/><path class="cls-1" d="M1045.66,656a8,8,0,1,0-6.14-9.5A8,8,0,0,0,1045.66,656Z" transform="translate(-730.99 -310.98)"/><path class="cls-1" d="M1068.56,659.33a6.4,6.4,0,1,0-4.91-7.6h0A6.4,6.4,0,0,0,1068.56,659.33Z" transform="translate(-730.99 -310.98)"/><path class="cls-1" d="M1091.48,662.51a4.67,4.67,0,1,0-3.57-5.55,4.67,4.67,0,0,0,3.57,5.55Z" transform="translate(-730.99 -310.98)"/><path class="cls-1" d="M1114.41,665.68a2.94,2.94,0,1,0-2.25-3.5h0a2.92,2.92,0,0,0,2.23,3.49Z" transform="translate(-730.99 -310.98)"/><path class="cls-1" d="M1137.36,668.72a1.08,1.08,0,1,0-.83-1.29h0a1.08,1.08,0,0,0,.82,1.29Z" transform="translate(-730.99 -310.98)"/><path class="cls-1" d="M748.88,609a1.41,1.41,0,1,0-1.08-1.67h0A1.42,1.42,0,0,0,748.88,609Z" transform="translate(-730.99 -310.98)"/><path class="cls-1" d="M771.1,615.46a3.07,3.07,0,1,0-2.39-3.64,3.07,3.07,0,0,0,2.39,3.64Z" transform="translate(-730.99 -310.98)"/><path class="cls-1" d="M793.32,621.9a4.68,4.68,0,1,0-3.58-5.56v0A4.67,4.67,0,0,0,793.32,621.9Z" transform="translate(-730.99 -310.98)"/><path class="cls-1" d="M815.55,628.25a6.2,6.2,0,1,0-4.76-7.37,6.2,6.2,0,0,0,4.76,7.37Z" transform="translate(-730.99 -310.98)"/><path class="cls-1" d="M837.83,634.42a7.56,7.56,0,1,0-5.78-9v0A7.55,7.55,0,0,0,837.83,634.42Z" transform="translate(-730.99 -310.98)"/><path class="cls-1" d="M860.14,640.46a8.76,8.76,0,1,0-6.7-10.43v0A8.76,8.76,0,0,0,860.14,640.46Z" transform="translate(-730.99 -310.98)"/><path class="cls-1" d="M882.52,646.34A9.79,9.79,0,1,0,875,634.71a9.8,9.8,0,0,0,7.52,11.63Z" transform="translate(-730.99 -310.98)"/><path class="cls-1" d="M904.91,651.81a10.43,10.43,0,1,0-8-12.4h0a10.42,10.42,0,0,0,8,12.39Z" transform="translate(-730.99 -310.98)"/><path class="cls-1" d="M927.42,656.93a10.69,10.69,0,1,0-8.17-12.72v0A10.69,10.69,0,0,0,927.42,656.93Z" transform="translate(-730.99 -310.98)"/><path class="cls-1" d="M950,661.66a10.56,10.56,0,1,0-8.11-12.54h0A10.55,10.55,0,0,0,950,661.66Z" transform="translate(-730.99 -310.98)"/><path class="cls-1" d="M972.7,666A10,10,0,1,0,965,654.11,10,10,0,0,0,972.7,666Z" transform="translate(-730.99 -310.98)"/><path class="cls-1" d="M995.43,670a9.16,9.16,0,1,0-7-10.88h0A9.17,9.17,0,0,0,995.43,670Z" transform="translate(-730.99 -310.98)"/><path class="cls-1" d="M1018.24,673.75a8,8,0,1,0-6.14-9.5h0A8,8,0,0,0,1018.24,673.75Z" transform="translate(-730.99 -310.98)"/><path class="cls-1" d="M1041.09,677.29a6.68,6.68,0,1,0-5.1-7.95v0A6.67,6.67,0,0,0,1041.09,677.29Z" transform="translate(-730.99 -310.98)"/><path class="cls-1" d="M1064,680.71a5.18,5.18,0,1,0-4-6.17v0A5.18,5.18,0,0,0,1064,680.71Z" transform="translate(-730.99 -310.98)"/><path class="cls-1" d="M1086.84,684.08a3.66,3.66,0,1,0-2.8-4.34h0A3.66,3.66,0,0,0,1086.84,684.08Z" transform="translate(-730.99 -310.98)"/><path class="cls-1" d="M1109.76,687.23a1.91,1.91,0,1,0-1.47-2.26,1.91,1.91,0,0,0,1.47,2.26Z" transform="translate(-730.99 -310.98)"/><path class="cls-1" d="M1132.69,690.41a.18.18,0,0,0,.23-.14.19.19,0,0,0-.38-.08h0a.18.18,0,0,0,.14.22Z" transform="translate(-730.99 -310.98)"/><path class="cls-1" d="M744.26,630.41a.26.26,0,0,0,.31-.2.27.27,0,0,0-.2-.3.26.26,0,0,0-.31.2h0A.26.26,0,0,0,744.26,630.41Z" transform="translate(-730.99 -310.98)"/><path class="cls-1" d="M766.49,636.83a1.85,1.85,0,1,0-1.43-2.19A1.85,1.85,0,0,0,766.49,636.83Z" transform="translate(-730.99 -310.98)"/><path class="cls-1" d="M788.72,643.19a3.39,3.39,0,1,0-2.6-4h0a3.38,3.38,0,0,0,2.59,4Z" transform="translate(-730.99 -310.98)"/><path class="cls-1" d="M811,649.37a4.74,4.74,0,1,0-3.63-5.62h0A4.76,4.76,0,0,0,811,649.37Z" transform="translate(-730.99 -310.98)"/><path class="cls-1" d="M833.3,655.49a6,6,0,1,0-4.62-7.16,6,6,0,0,0,4.62,7.16Z" transform="translate(-730.99 -310.98)"/><path class="cls-1" d="M855.64,661.34a7,7,0,1,0-5.39-8.38v0A7,7,0,0,0,855.64,661.34Z" transform="translate(-730.99 -310.98)"/><path class="cls-1" d="M878,667a7.87,7.87,0,1,0-6-9.36,7.87,7.87,0,0,0,6,9.36Z" transform="translate(-730.99 -310.98)"/><path class="cls-1" d="M900.47,672.45a8.45,8.45,0,1,0-6.5-10h0A8.45,8.45,0,0,0,900.47,672.45Z" transform="translate(-730.99 -310.98)"/><path class="cls-1" d="M923,677.55a8.7,8.7,0,1,0-6.68-10.34h0A8.7,8.7,0,0,0,923,677.55Z" transform="translate(-730.99 -310.98)"/><path class="cls-1" d="M945.58,682.29A8.58,8.58,0,1,0,939,672.08v0A8.59,8.59,0,0,0,945.58,682.29Z" transform="translate(-730.99 -310.98)"/><path class="cls-1" d="M968.23,686.71a8.11,8.11,0,1,0-6.24-9.65,8.1,8.1,0,0,0,6.24,9.65Z" transform="translate(-730.99 -310.98)"/><path class="cls-1" d="M991,690.82a7.36,7.36,0,1,0-5.64-8.75h0A7.38,7.38,0,0,0,991,690.82Z" transform="translate(-730.99 -310.98)"/><path class="cls-1" d="M1013.72,694.74a6.4,6.4,0,1,0-4.92-7.6h0a6.4,6.4,0,0,0,4.9,7.6Z" transform="translate(-730.99 -310.98)"/><path class="cls-1" d="M1036.56,698.41a5.18,5.18,0,1,0-4-6.15h0a5.16,5.16,0,0,0,4,6.14Z" transform="translate(-730.99 -310.98)"/><path class="cls-1" d="M1059.37,702a3.84,3.84,0,1,0-2.94-4.57h0A3.85,3.85,0,0,0,1059.37,702Z" transform="translate(-730.99 -310.98)"/><path class="cls-1" d="M1082.25,705.38a2.38,2.38,0,1,0-1.81-2.84v0A2.39,2.39,0,0,0,1082.25,705.38Z" transform="translate(-730.99 -310.98)"/><path class="cls-1" d="M1105.14,708.69a.79.79,0,0,0,.39-1.53.77.77,0,0,0-.94.52.44.44,0,0,0,0,.1A.76.76,0,0,0,1105.14,708.69Z" transform="translate(-730.99 -310.98)"/><path class="cls-1" d="M761.91,658.09a.52.52,0,0,0,.61-.4.51.51,0,0,0-1-.21.5.5,0,0,0,.39.6Z" transform="translate(-730.99 -310.98)"/><path class="cls-1" d="M784.18,664.34a1.91,1.91,0,1,0-1.47-2.28,1.91,1.91,0,0,0,1.47,2.28Z" transform="translate(-730.99 -310.98)"/><path class="cls-1" d="M806.46,670.49a3.26,3.26,0,1,0-2.51-3.87A3.26,3.26,0,0,0,806.46,670.49Z" transform="translate(-730.99 -310.98)"/><path class="cls-1" d="M828.79,676.42a4.35,4.35,0,1,0-3.34-5.17h0a4.35,4.35,0,0,0,3.32,5.17Z" transform="translate(-730.99 -310.98)"/><path class="cls-1" d="M851.14,682.22a5.31,5.31,0,1,0-4.06-6.31A5.32,5.32,0,0,0,851.14,682.22Z" transform="translate(-730.99 -310.98)"/><path class="cls-1" d="M873.57,687.77a6,6,0,1,0-4.62-7.16,6,6,0,0,0,4.62,7.16Z" transform="translate(-730.99 -310.98)"/><path class="cls-1" d="M896,693.06a6.46,6.46,0,1,0-4.94-7.68h0A6.46,6.46,0,0,0,896,693.06Z" transform="translate(-730.99 -310.98)"/><path class="cls-1" d="M918.55,698.11a6.67,6.67,0,1,0-5.09-8v.05A6.67,6.67,0,0,0,918.55,698.11Z" transform="translate(-730.99 -310.98)"/><path class="cls-1" d="M941.13,702.91a6.59,6.59,0,1,0-5.07-7.83,6.59,6.59,0,0,0,5.07,7.83Z" transform="translate(-730.99 -310.98)"/><path class="cls-1" d="M963.77,707.4A6.2,6.2,0,1,0,959,700a6.22,6.22,0,0,0,4.77,7.38Z" transform="translate(-730.99 -310.98)"/><path class="cls-1" d="M986.48,711.63a5.57,5.57,0,1,0-4.29-6.61,5.57,5.57,0,0,0,4.29,6.61Z" transform="translate(-730.99 -310.98)"/><path class="cls-1" d="M1009.22,715.62a4.67,4.67,0,1,0-3.6-5.55,4.68,4.68,0,0,0,3.6,5.55Z" transform="translate(-730.99 -310.98)"/><path class="cls-1" d="M1032,719.47a3.65,3.65,0,1,0-2.8-4.33A3.64,3.64,0,0,0,1032,719.47Z" transform="translate(-730.99 -310.98)"/><path class="cls-1" d="M1054.82,723.09a2.38,2.38,0,1,0-1.8-2.85v0A2.39,2.39,0,0,0,1054.82,723.09Z" transform="translate(-730.99 -310.98)"/><path class="cls-1" d="M1077.67,726.63a1,1,0,1,0,.43-2,1,1,0,0,0-.43,2Z" transform="translate(-730.99 -310.98)"/><path class="cls-1" d="M779.64,685.38a.38.38,0,0,0,.45-.3.39.39,0,0,0-.31-.45.38.38,0,0,0-.17.75Z" transform="translate(-730.99 -310.98)"/><path class="cls-1" d="M801.93,691.42a1.6,1.6,0,1,0-1.22-1.9,1.6,1.6,0,0,0,1.22,1.9Z" transform="translate(-730.99 -310.98)"/><path class="cls-1" d="M824.29,697.29a2.62,2.62,0,1,0-2-3.12h0a2.61,2.61,0,0,0,2,3.11Z" transform="translate(-730.99 -310.98)"/><path class="cls-1" d="M846.68,703a3.46,3.46,0,1,0-2.64-4.12h0A3.47,3.47,0,0,0,846.68,703Z" transform="translate(-730.99 -310.98)"/><path class="cls-1" d="M869.12,708.45a4.09,4.09,0,1,0-3.15-4.87A4.09,4.09,0,0,0,869.12,708.45Z" transform="translate(-730.99 -310.98)"/><path class="cls-1" d="M891.58,713.74a4.54,4.54,0,1,0-3.48-5.4h0A4.54,4.54,0,0,0,891.58,713.74Z" transform="translate(-730.99 -310.98)"/><path class="cls-1" d="M914.11,718.73a4.66,4.66,0,1,0-3.59-5.55,4.66,4.66,0,0,0,3.59,5.55Z" transform="translate(-730.99 -310.98)"/><path class="cls-1" d="M936.69,723.53a4.61,4.61,0,1,0-3.54-5.47h0A4.61,4.61,0,0,0,936.69,723.53Z" transform="translate(-730.99 -310.98)"/><path class="cls-1" d="M959.3,728.08A4.3,4.3,0,1,0,956,723v0A4.31,4.31,0,0,0,959.3,728.08Z" transform="translate(-730.99 -310.98)"/><path class="cls-1" d="M982,732.37a3.71,3.71,0,1,0-2.86-4.4,3.71,3.71,0,0,0,2.86,4.4Z" transform="translate(-730.99 -310.98)"/><path class="cls-1" d="M1004.72,736.48a2.94,2.94,0,1,0-2.25-3.49h0A2.94,2.94,0,0,0,1004.72,736.48Z" transform="translate(-730.99 -310.98)"/><path class="cls-1" d="M1027.49,740.35a1.91,1.91,0,1,0,.77-3.74,1.91,1.91,0,0,0-.8,3.73Z" transform="translate(-730.99 -310.98)"/><path class="cls-1" d="M1050.3,744.08a.77.77,0,1,0-.59-.92A.77.77,0,0,0,1050.3,744.08Z" transform="translate(-730.99 -310.98)"/><path class="cls-1" d="M819.82,718a.78.78,0,1,0,.43-1.49l-.1,0a.77.77,0,0,0-.33,1.51Z" transform="translate(-730.99 -310.98)"/><path class="cls-1" d="M842.21,723.71A1.6,1.6,0,1,0,841,721.8h0A1.6,1.6,0,0,0,842.21,723.71Z" transform="translate(-730.99 -310.98)"/><path class="cls-1" d="M864.66,729.14a2.17,2.17,0,1,0-1.68-2.59,2.17,2.17,0,0,0,1.68,2.59Z" transform="translate(-730.99 -310.98)"/><path class="cls-1" d="M887.12,734.38a2.57,2.57,0,1,0-1.94-3.06h0A2.58,2.58,0,0,0,887.12,734.38Z" transform="translate(-730.99 -310.98)"/><path class="cls-1" d="M909.66,739.37a2.7,2.7,0,1,0-2-3.21h0A2.71,2.71,0,0,0,909.66,739.37Z" transform="translate(-730.99 -310.98)"/><path class="cls-1" d="M932.25,744.16a2.63,2.63,0,1,0-2-3.13,2.63,2.63,0,0,0,2,3.13Z" transform="translate(-730.99 -310.98)"/><path class="cls-1" d="M954.88,748.7a2.3,2.3,0,1,0-1.76-2.74h0A2.29,2.29,0,0,0,954.88,748.7Z" transform="translate(-730.99 -310.98)"/><path class="cls-1" d="M977.55,753a1.79,1.79,0,1,0-1.38-2.13,1.77,1.77,0,0,0,1.38,2.13Z" transform="translate(-730.99 -310.98)"/><path class="cls-1" d="M1000.26,757.23a1.08,1.08,0,1,0-.83-1.29h0a1.07,1.07,0,0,0,.82,1.29Z" transform="translate(-730.99 -310.98)"/><path class="cls-1" d="M1023,761.22a.2.2,0,0,0,.23-.15.2.2,0,0,0-.16-.23.19.19,0,1,0-.07.38Z" transform="translate(-730.99 -310.98)"/><path class="cls-1" d="M860.22,749.76a.18.18,0,0,0,.22-.15h0a.2.2,0,0,0-.14-.23.19.19,0,0,0-.23.15.18.18,0,0,0,.14.23Z" transform="translate(-730.99 -310.98)"/><path class="cls-1" d="M882.7,755a.51.51,0,1,0-.39-.61.52.52,0,0,0,.38.61Z" transform="translate(-730.99 -310.98)"/><path class="cls-1" d="M905.22,760a.71.71,0,0,0,.84-.54h0a.71.71,0,0,0-.55-.83.7.7,0,0,0-.83.54A.71.71,0,0,0,905.22,760Z" transform="translate(-730.99 -310.98)"/><path class="cls-1" d="M927.83,764.71a.56.56,0,0,0,.67-.44h0a.57.57,0,0,0-.44-.68.57.57,0,0,0-.23,1.12Z" transform="translate(-730.99 -310.98)"/><path class="cls-1" d="M950.44,769.32a.32.32,0,0,0,.12-.63.33.33,0,0,0-.38.25.33.33,0,0,0,.25.38Z" transform="translate(-730.99 -310.98)"/></svg>