<svg xmlns="http://www.w3.org/2000/svg" viewBox="0 0 127.57 124.16"><defs><style>.cls-1{fill:#fff;}.cls-2{fill:#1d1d1b;}</style></defs><g id="Layer_2" data-name="Layer 2"><g id="Layer_1-2" data-name="Layer 1"><circle class="cls-1" cx="69.75" cy="66.34" r="57.82"/><path class="cls-2" d="M2.77,57.15A54.09,54.09,0,0,0,5.27,80.2,56,56,0,0,0,16.55,100a46.71,46.71,0,0,0,4,4,44.23,44.23,0,0,0,4.36,3.5,48.76,48.76,0,0,0,9.73,5.29,50.41,50.41,0,0,0,10.71,3,64.7,64.7,0,0,0,11.24,1,82.42,82.42,0,0,0,22.72-2.95,59.41,59.41,0,0,0,20.49-10.41,55.09,55.09,0,0,0,8.32-8,58,58,0,0,0,6.56-9.53,61.58,61.58,0,0,0,7.1-21.78,56.42,56.42,0,0,0-1.45-22.45,40.26,40.26,0,0,0-1.83-5.25q-1.1-2.59-2.43-5.06a48.1,48.1,0,0,0-6.34-9.1A44.51,44.51,0,0,0,91.65,10,54.4,54.4,0,0,0,80.93,7.18a75.54,75.54,0,0,0-11.17-.85A80.21,80.21,0,0,0,26.83,19.2a56.09,56.09,0,0,0-16.2,16.17A51.29,51.29,0,0,0,5.48,45.79,54.65,54.65,0,0,0,2.77,57.15Zm-.6-.07A62.58,62.58,0,0,1,9.31,34.59a61.65,61.65,0,0,1,6.74-9.89,64.2,64.2,0,0,1,8.59-8.46A70.26,70.26,0,0,1,45.71,4.36,78.17,78.17,0,0,1,69.67,0,63,63,0,0,1,93.93,4.07a49.8,49.8,0,0,1,20.15,14.4,53.84,53.84,0,0,1,6.79,10.37,59.68,59.68,0,0,1,2.45,5.64,45.64,45.64,0,0,1,1.83,5.93,58,58,0,0,1,.09,24.26A70.18,70.18,0,0,1,101,104.93C88.61,115,72.77,120.67,56.7,121.57c-1,.07-2,.09-3.05.12s-2,0-3-.07a55,55,0,0,1-6.12-.55,51.21,51.21,0,0,1-11.9-3.3,45.23,45.23,0,0,1-19.15-15.21A60.53,60.53,0,0,1,3.7,80.63,69.48,69.48,0,0,1,2.17,57.08Z" transform="translate(0 0)"/><path class="cls-2" d="M11.93,25.8c-.58.94-1.17,1.87-1.72,2.82S9.08,30.5,8.55,31.46c-1.08,1.91-2.14,3.82-3.13,5.77s-1.95,3.91-2.86,5.9c-.46,1-.89,2-1.3,3S.45,48.19,0,49.2a42.82,42.82,0,0,1,1.85-6.36,52,52,0,0,1,2.68-6.07A57.39,57.39,0,0,1,7.9,31.06,42.85,42.85,0,0,1,11.93,25.8Z" transform="translate(0 0)"/><path class="cls-2" d="M85.11,109.3c.94-.58,1.88-1.15,2.8-1.75s1.85-1.18,2.76-1.79c1.82-1.22,3.63-2.46,5.38-3.76s3.5-2.62,5.2-4c.87-.68,1.7-1.39,2.52-2.11s1.64-1.47,2.5-2.17a42.35,42.35,0,0,1-4.51,4.86,53.12,53.12,0,0,1-5.12,4.22,56.28,56.28,0,0,1-5.57,3.6A43.67,43.67,0,0,1,85.11,109.3Z" transform="translate(0 0)"/></g></g></svg>