<svg xmlns="http://www.w3.org/2000/svg" viewBox="0 0 126.15 122.49"><defs><style>.cls-1{fill:#fff;}.cls-2{fill:#1d1d1b;}</style></defs><g id="Layer_2" data-name="Layer 2"><g id="Layer_1-2" data-name="Layer 1"><circle class="cls-1" cx="68.32" cy="64.67" r="57.82"/><path class="cls-2" d="M1.34,56.93a58.44,58.44,0,0,0,2,23.18,56,56,0,0,0,10.74,20.54A45.92,45.92,0,0,0,32.62,114a55.61,55.61,0,0,0,22.55,3.45,80.08,80.08,0,0,0,22.61-4,64.06,64.06,0,0,0,19.93-11,61.53,61.53,0,0,0,14.55-17.33,63.39,63.39,0,0,0,7.41-21.32,54.63,54.63,0,0,0-1-22.29,41.33,41.33,0,0,0-1.79-5.23q-1.08-2.59-2.4-5.06a49.62,49.62,0,0,0-6.29-9.1,45.2,45.2,0,0,0-18-12.37A57.54,57.54,0,0,0,79.53,6.81a72,72,0,0,0-11.2-.92A81,81,0,0,0,45.9,9.05,71.54,71.54,0,0,0,25.21,18.7a56.08,56.08,0,0,0-16,16.42A52.13,52.13,0,0,0,4.08,45.58,59.45,59.45,0,0,0,1.34,56.93Zm-.59-.08A59.83,59.83,0,0,1,7.93,34.39a62.19,62.19,0,0,1,6.84-9.78,66.64,66.64,0,0,1,8.64-8.32,75,75,0,0,1,21-11.73A76.94,76.94,0,0,1,68.25,0,62.77,62.77,0,0,1,92.48,3.9a49,49,0,0,1,11,5.85,48,48,0,0,1,9.23,8.43,52.08,52.08,0,0,1,6.83,10.37c.93,1.84,1.75,3.73,2.49,5.64a47.67,47.67,0,0,1,1.86,6,59.86,59.86,0,0,1,.56,24.42,68.37,68.37,0,0,1-8.39,22.75,65.56,65.56,0,0,1-15.9,18.21,67.63,67.63,0,0,1-21.3,11.22,83.12,83.12,0,0,1-23.64,3.77,56.81,56.81,0,0,1-23.52-4.36A46.78,46.78,0,0,1,13,101.5,60.55,60.55,0,0,1,2.77,80.27,68.3,68.3,0,0,1,.67,68.66,55.51,55.51,0,0,1,.75,56.85Z"/><path class="cls-2" d="M9.35,25.25C7.8,28.59,6.13,31.74,4.58,35c-.8,1.59-1.54,3.22-2.3,4.84S.83,43.08,0,44.74A22.31,22.31,0,0,1,.94,39.3a31.84,31.84,0,0,1,2-5.14,34.71,34.71,0,0,1,2.8-4.74A23.81,23.81,0,0,1,9.35,25.25Z"/><path class="cls-2" d="M81.85,108.43c.94-.58,1.88-1.14,2.8-1.75s1.85-1.18,2.76-1.79c1.82-1.22,3.63-2.46,5.38-3.76s3.5-2.62,5.21-4c.86-.68,1.69-1.39,2.51-2.11s1.64-1.47,2.5-2.17a42.35,42.35,0,0,1-4.51,4.86,50.55,50.55,0,0,1-5.12,4.22,55.13,55.13,0,0,1-5.57,3.6A43.67,43.67,0,0,1,81.85,108.43Z"/></g></g></svg>