<svg xmlns="http://www.w3.org/2000/svg" viewBox="0 0 132.69 119.24"><defs><style>.cls-1{fill:#fff;}.cls-2{fill:#1d1d1b;}</style></defs><g id="Layer_2" data-name="Layer 2"><g id="Layer_1-2" data-name="Layer 1"><circle class="cls-1" cx="57.82" cy="61.42" r="57.82"/><path class="cls-2" d="M7.88,55.39A60.79,60.79,0,0,0,10,78.66,57.52,57.52,0,0,0,20.75,99.29a45.46,45.46,0,0,0,18.63,13.38A55.13,55.13,0,0,0,62,115.87a81.1,81.1,0,0,0,22.49-4.38,65.11,65.11,0,0,0,19.65-11.07A63.22,63.22,0,0,0,126,62.17a54.33,54.33,0,0,0-.6-22.15,42.28,42.28,0,0,0-1.64-5.27,55.73,55.73,0,0,0-2.25-5.13,48.1,48.1,0,0,0-6.08-9.33A45,45,0,0,0,97.48,7.2,60.31,60.31,0,0,0,75.15,2.86,76,76,0,0,0,52.26,6.08a74.64,74.64,0,0,0-10.85,4.25,64.25,64.25,0,0,0-10,6,57.49,57.49,0,0,0-15.9,17A57,57,0,0,0,7.88,55.39Zm0,0A57.16,57.16,0,0,1,15.29,33.2a61,61,0,0,1,6.94-9.52,63.33,63.33,0,0,1,8.69-8A76,76,0,0,1,51.74,4.52,82.06,82.06,0,0,1,75.11.05,63.82,63.82,0,0,1,98.93,3.43,49.28,49.28,0,0,1,119.23,17a53.65,53.65,0,0,1,7,10.15,61.35,61.35,0,0,1,2.64,5.56,45.69,45.69,0,0,1,2,5.91,60.23,60.23,0,0,1,.94,24.56,67.72,67.72,0,0,1-8.34,23,64.37,64.37,0,0,1-16.09,18.37,66.31,66.31,0,0,1-21.58,11.11,81.8,81.8,0,0,1-23.76,3.44,57.63,57.63,0,0,1-23.45-4.61A47.42,47.42,0,0,1,20.05,99.85,59.18,59.18,0,0,1,9.78,78.72,61.08,61.08,0,0,1,7.88,55.39Z" transform="translate(0 0)"/><path class="cls-2" d="M21,18.52c-.66.88-1.33,1.75-2,2.65s-1.29,1.77-1.92,2.67c-1.24,1.8-2.48,3.61-3.64,5.46s-2.3,3.71-3.39,5.61c-.56.94-1.08,1.91-1.58,2.88s-1,2-1.54,2.93A43,43,0,0,1,9.4,34.55a52.07,52.07,0,0,1,3.23-5.79,58.62,58.62,0,0,1,3.87-5.38A43.18,43.18,0,0,1,21,18.52Z" transform="translate(0 0)"/></g></g></svg>