<svg id="Слой_1" data-name="Слой 1" xmlns="http://www.w3.org/2000/svg" viewBox="0 0 364.11 433.01"><defs><style>.cls-1{fill:#b6d7e0;}.cls-2{fill:#a5c2c8;}.cls-3{fill:#4e5778;}.cls-4{fill:#f9e69a;}.cls-5{fill:#f8c5a8;}.cls-6{fill:#f6ecc3;}.cls-7{fill:#e3a583;}.cls-8{fill:#cb8d6d;}.cls-9{fill:#4e4c4c;}.cls-10{fill:#383632;}.cls-11{fill:none;stroke:#373735;stroke-miterlimit:10;stroke-width:0.76px;}.cls-12{fill:#1d1d1b;}.cls-13{fill:#a6c2c9;}.cls-14{fill:#374260;}</style></defs><path class="cls-1" d="M920.31,409.13a37.94,37.94,0,0,0-5.46,7.48c-2.74,5.79.46,17.52,1.42,19.48s4.6,11.42,4.6,11.42,1.64,5.8,3,9,1.91,17.67,1.72,20.84-3.45,11.91-1.56,16.79,4,6.7,4,6.7L942.39,502l21.43-3.88,14.76-1.31,12.7.33s-1-13.32-.57-16.52,3.82-19.45,3.82-19.45l-4.62-4.64s-.82.49.8-.79c3.6-2.85,9.9-7.68,13-9,16.89-7.48,18.54-5.5,18.54-5.5.7-2.35-7.47-27-17.61-38.92C1001.9,399,975.05,386,975.05,386A72.55,72.55,0,0,1,968,399.87c-3.05,4.78-17.6,15.39-25.07,15.45-16.24.12-13.62-15.45-13.62-15.45S924.48,404.37,920.31,409.13Z" transform="translate(-778.03 -323.68)"/><path class="cls-2" d="M926.69,449l-5-1.66s-.22,6,2.7,6.85,7.06,1.07,10-1.62,4.83-4.29,5.88-8.55c.26-1.07.33-2.43-.08-1.6s-.45.86-3.08,2.91C933.6,448.09,931.18,449.14,926.69,449Z" transform="translate(-778.03 -323.68)"/><path class="cls-2" d="M994.09,471.17c-.92,5-2.07,10.14-2.07,10.14s-4.59-17.41-11.86-22.3-25.43-8.29-28-8.8-7-8.41-7-8.41l7,4.37s12.15-.39,14.79-2.17,19.92-14.13,19.92-14.13-4.16,14.58-3.25,15.32,7.61,12,7.61,12,3.36,2.71,3.94,5.08C995.41,463.34,994.82,467.2,994.09,471.17Z" transform="translate(-778.03 -323.68)"/><path class="cls-2" d="M1007.57,407.64s2.77.89,2.89,9.95,0,10.66,0,10.66l3.09-11.8-4.94-8.81Z" transform="translate(-778.03 -323.68)"/><path class="cls-3" d="M903.63,590.5s8.83-52.91,9.63-57.55,8-24,8-24l5.72-9.27s3.79.68,21.14.31S968.83,496,968.83,496l21.34-.29-.48,11.65L995.22,533,997.49,568l-1.18,10.72,1.81,19.14s-14.74-2.88-17.32-3-12.73.68-15,1.48A22.49,22.49,0,0,0,961,599l-4-8.53-2.4,9L943.34,599Z" transform="translate(-778.03 -323.68)"/><ellipse class="cls-4" cx="42" cy="191.88" rx="42" ry="51.32"/><path class="cls-5" d="M924.12,338l-2.83,12.58.83,4.71c.31,1.7.58,6.13.58,6.13l2.15,4.48v4.6l1.36,6.17,1.83,2.66,5.69,1.61-1.15,4,1.15,8.53-4.61,5.33.17,8.3s.92,6.69,5.74,7.59,13.49-.13,16.3-1.28,15.47-12,15.47-12l9.31-15.91s-10-1.6-12.3-5.17-2.66-16.39-2.66-16.39l-.63-14.46-7.23,8.25s-.84-5-1.32-7.66-3.41-7.08-5.77-7.67-1.17-7.61-1.17-7.61l-7.4-2.18-6.34.93Z" transform="translate(-778.03 -323.68)"/><path class="cls-5" d="M872.83,511.4S874,509,878.89,508s12-3.19,15.43-2.85,9-.89,10.21-1.73,10.62-10.3,10.62-10.3l10.44-17.59s-3.28,12.2-2.17,15.29,3.54,8.85,3.54,8.85-3.31,7.43-4.68,7.57-8.11,4.28-8.11,4.28L895.11,524l-4.65,1.52-2.47-.19-6.32-3.44-3.37-2.63,1.41-3.24,3.07-4.23-5.54,1.57h-3.07Z" transform="translate(-778.03 -323.68)"/><path class="cls-5" d="M988.89,454.19s5.15,5.65,6.31,9.4,1.8,6.76,1.8,6.76l-3.72,9.12-2.7,21-.31,5.66-2.45,1.7-4.33-.67-6.63,2.67-2.25,6.27L978,523.8l3.23,1.68,1.35.06,2.93,1.45,3.73,0,2.16.59s2.35-1.09,2-1.31.2-2.59.2-2.59l2.94,1.23L999,524l.52-6.66,2.33-8.38s13.21-20,13.34-22,2.59-14,2.59-14l-.54-5.49s2.88-25.24,2.31-26.32S1001.3,448,1001.3,448Z" transform="translate(-778.03 -323.68)"/><path class="cls-5" d="M912.55,592.61s1.59,5.33,1,8.6,0,9.93,0,9.93l3.55,12.79-1.7,11,1.7,20.06,1.33,18s1.76,15.66,1.32,17.89-1.69,7-1.69,7,9,7.45,11.22,8.21,6.16-1.43,6.16-1.43l3.59-5.06V675.38l1.62-14.3,4.4-15.1-1-18.61L942,612.74,943.34,599Z" transform="translate(-778.03 -323.68)"/><ellipse class="cls-3" cx="47.96" cy="191.67" rx="42" ry="51.32"/><path class="cls-5" d="M961,599s2.08,8,3,9.33,3.34,4.21,3.34,4.21l.77,5,4,8.49,5.69,9.7-.39,7.63-.06,14,5.94,19.35,3.38,22-1.45,15.61,6.83-1.91,3,6.26,5.36.82,2.55-2.43-1.38-11.79s4.56-41.28,4.87-43.4,1-18.64,0-21.32-11.42-23.83-11.42-23.83l-2.89-20.46s-12.66-.71-16.85-1.26C967.93,594.06,961,599,961,599Z" transform="translate(-778.03 -323.68)"/><ellipse class="cls-4" cx="309.31" cy="187.4" rx="38.92" ry="72.39"/><ellipse class="cls-3" cx="321" cy="187.87" rx="28.33" ry="72.39"/><circle class="cls-4" cx="53.83" cy="191.88" r="9.01"/><path class="cls-4" d="M1138.67,518.81h-45.6a4.9,4.9,0,0,1-4.83-5.66l.49-3.08a4.58,4.58,0,0,1,4.45-3.86l45.3-2.83c2.09,0,3.49,3.77,3.49,5.86v6.27A3.3,3.3,0,0,1,1138.67,518.81Z" transform="translate(-778.03 -323.68)"/><path class="cls-4" d="M889.48,717.48l19-13.73,5.5-3.26s-.33-2.64,1.07-3.34,4.8,2.8,4.8,2.8,10.79,7.92,12.27,7.32,7-7.6,7-7.6l1.4,5.87,3.68,11.94s-3.86,5.09-7.45,5.43-16.57-.72-22.85-.87-13,3-13,3l-8.1-4.47Z" transform="translate(-778.03 -323.68)"/><path class="cls-6" d="M888.55,717.24s-2.4.77-2.27,2.58a29.55,29.55,0,0,0,1.14,4.93s8.51,4.7,9.78,4.9,10.08-.39,10.08-.39l11.07-2.7,13.73.44,10.24-3.35,3.85-3.34-2-2.83-5.57,4.87-11.91.73-8.87-.88-11.55,2h-8.81l-5.94-5.08Z" transform="translate(-778.03 -323.68)"/><polygon class="cls-4" points="186.43 417.87 196.57 408.31 202.74 399.55 205.58 392.74 209.49 389.17 212.97 389.84 216.5 393.43 217.08 396.14 221.31 395.25 223.62 395.85 224.51 389.28 225.81 390.09 227.75 396.86 229.79 402.64 232.2 408.98 229.01 413.77 224.72 415.66 220.45 420.39 208.5 427 198.15 428.32 187.36 424.93 182.26 424.97 183.9 420.47 186.43 417.87"/><path class="cls-6" d="M959.91,750.1s1.15,3.73,4,4.51,13,1.71,13,1.71l13.4-3,7-2.92,3.64-3.45,4.64-3.27,4.49-4,3-2.13v-3.39l-2.8-1.51-3.18,4.79-5.4,2-3.16,4.65-6.26,3.26-8.2,4.2-9.72-.53-5-1.94-6.76-.79-2.27.38Z" transform="translate(-778.03 -323.68)"/><path class="cls-7" d="M923.71,339.81s11.41-4.95,14.22-1.82,3.7,7.48,6,9.14,3.92-.52,4.77,3.57-1,8.65,0,9.31,5.44,1.41,5.44,1.41l-7.4,11.75-3.56,5.53-10.6,2.63-.13,4.65s6.89-2.82,9.06-1.75,6.5-.08,8,1.07,4.38-8.05,8-4.73,8.85,7.26,9.1,10.4-5.81,13.93-7.67,16.16a29,29,0,0,1-4,3.89s9-8.48,11.72-11.26,8.39-14.71,8.39-14.71-12.33-5.24-13-8.44.92-27.19.92-27.19L945.25,339l-.56-9.22-13.78,2.17L923.63,335Z" transform="translate(-778.03 -323.68)"/><path class="cls-8" d="M928.9,351.08s1.83-2.82,3.68-3.06a42.66,42.66,0,0,1,7.33.45c.19.06,2.42,1.4,2.42,1.4s-7.85.64-9.44,1.21-4.48,1.56-4.48,1.56l.87-1.58" transform="translate(-778.03 -323.68)"/><polyline class="cls-8" points="144.01 27.73 147.51 27.98 147.19 34.43 146.5 37.4 144.67 37.73 143.78 30.8 143.08 28.29"/><path class="cls-7" d="M944.61,356.41s-3.41,8.42-3.83,8.57-3.78,6.95-3.78,6.95l9.2-13Z" transform="translate(-778.03 -323.68)"/><polygon class="cls-7" points="150.91 30.39 152.06 34.43 153.77 35.4 150.91 30.39"/><path class="cls-9" d="M966.81,347.78c.08-.63-2.29-7.06-3-8.13s-3.09-4.4-3.09-4.4l-5-6.63-2.8-.47-3.58-2.43-1.36,1s-6.15-1.32-9.8-2.13-11.85-.4-16.29-.4S917,332.6,919.23,335c1,1.07,3.64,2.44,4.4,3.62.56.87,1.17-.73,2.41-.41s1.28,2.26,1.28,2.26l4.52-2.75,4.92,2.83-3.92-3.42s.51.3,2.89-.05,10.21,1.22,10.21,1.22a26.66,26.66,0,0,1,1.86,5.21c.45,2.3-2,2.63-2,2.63s-1.19-.09,1.77.82,1.68,9,1.68,9l-.82,1.54-5.26,6.05-5.45,1.5s-5-.5-8-1.19-3.63.85-3.63.85l-1,1-1.29.46s-2.27,3.67-2.65,4.08,1.27.49,1.27.49l.16,2.18v3.36s.79,7.24.74,7.42a30.17,30.17,0,0,0-1.44,3.71,7.89,7.89,0,0,0,.84,2.23s2.55.55,2.79.22,9.4-3,9.4-3l-5.62,3.54s7.75-1.25,9-1.35,3-2.16,4.13-2.85,4.46-5.09,4.46-5.09l-1.79,4.38s5.6-6,5.49-6.7a45.1,45.1,0,0,1,1-5.54s.29,2.84.28,2.85,1.64-4,1.64-4-1-8.82-1.16-9.23,2-3.32,1.91-3.8-1-2.85-.59-3.51,2.34-3.21,3.59-3.94,1.7-.68,4,.32.49,4.3.73,6.57a2.27,2.27,0,0,1-1.62,2.67l.41,3.41-1.38-1.3.73,3.65.89,8s3.16-5.17,3.65-6.38.32-5.76.24-6.49,2.28-6.49,2.4-7.15S966.73,348.4,966.81,347.78Zm-35.9,22.13c.12,1.41-3.42-.06-3.69,0s-1.1-1.4-1.1-1.4,3.34-1.63,4.25-1.49a36.51,36.51,0,0,0,4.11,0S930.79,368.51,930.91,369.91Z" transform="translate(-778.03 -323.68)"/><path class="cls-10" d="M918,328.61s.32-4.6,2.15-4.5,9.71-.43,9.71-.43l13.88,2.13,6.2.85,11.2,9.11-19.49-7,7.74,6.64-22.94-7.27,4,5.06-8.89-1.45Z" transform="translate(-778.03 -323.68)"/><path class="cls-10" d="M922.41,370.74l.08,1.19.57,9.12-.65,7.07.29,1.52,8.88-1.79s-3.86-.43-5.46-3.24S922.41,370.74,922.41,370.74Z" transform="translate(-778.03 -323.68)"/><path class="cls-10" d="M949.89,363.25s.93,5.79,0,9.28-3.66,6.2-4.86,7.66-5.74,5.79-5.74,5.79,4.89-8.66,3.89-7.28-2.74,3.25-3.27,4c-2.94,4-8.33,3.3-8.33,3.3s.4-1.54,3.45-3.11,8.58-9.51,8.58-9.51Z" transform="translate(-778.03 -323.68)"/><path class="cls-10" d="M926.12,371.93s5-.29,6.83-.55,1.4,1,0,2-2.66,2.75-2.58,3.45-1.89-2.46-2.65-2.76S926.12,371.93,926.12,371.93Z" transform="translate(-778.03 -323.68)"/><polygon class="cls-4" points="218.31 186.42 215.34 187.62 212.81 187.25 212.81 189.04 218.2 193.59 221.46 193.62 221.34 193.7 231 193.59 269.29 193.59 269.29 186.1 218.31 186.42"/><path class="cls-4" d="M878.89,517.29l3.23-5-3.23.85s-3.88.46-4.92.5-.56-.77-1.14-1.84a1.62,1.62,0,0,1-.19-.86l-6.2,0-33.86-1.15v9.46l45.71-.51Z" transform="translate(-778.03 -323.68)"/><polygon class="cls-4" points="199.64 186.54 120.49 187.05 118.7 187.9 116.28 188.23 114.33 189.91 113.73 193.62 117.88 194.85 197.22 193.97 196.64 192.45 197.83 188.96 199.64 186.54"/><path class="cls-11" d="M924.42,365.15" transform="translate(-778.03 -323.68)"/><path class="cls-12" d="M924.42,365.15a3.36,3.36,0,0,0-.44-1c-.17-.3-.41-.64-.68-1.05a5.75,5.75,0,0,1-.75-1.51,18.41,18.41,0,0,1-.52-4.3,7.46,7.46,0,0,0-.53-2.31,8.19,8.19,0,0,1-.9-2.73,11.68,11.68,0,0,1,.39-2.8c.18-.86.36-1.69.54-2.48.36-1.58.71-3,1-4.18s.53-2.15.7-2.82.23-1,.23-1-.07.37-.16,1-.21,1.66-.37,2.87-.34,2.66-.58,4.26c-.12.8-.25,1.63-.39,2.5a14.09,14.09,0,0,0-.32,2.58,8.54,8.54,0,0,0,.78,2.41,7.67,7.67,0,0,1,.45,2.64,22.16,22.16,0,0,0,.08,4.24,11,11,0,0,0,1.1,2.62A5.44,5.44,0,0,1,924.42,365.15Z" transform="translate(-778.03 -323.68)"/><path class="cls-12" d="M964.07,340.13a4.14,4.14,0,0,0-.31-.53,9.44,9.44,0,0,0-1-1.3c-.48-.52-1.08-1.11-1.69-1.87s-1.07-1.74-1.67-2.52a28.19,28.19,0,0,0-2-2.19c-.64-.68-1.21-1.32-1.68-1.85l-1.11-1.27c-.27-.3-.43-.45-.43-.45s.17.15.48.39l1.34,1c.57.43,1.24.94,2,1.54a13,13,0,0,1,2.26,2.17,27.63,27.63,0,0,1,1.53,2.67c.46.78.95,1.49,1.32,2.1a13.54,13.54,0,0,1,.79,1.51Z" transform="translate(-778.03 -323.68)"/><path class="cls-12" d="M962.15,365v-1a21.28,21.28,0,0,1,.27-2.78,39.79,39.79,0,0,1,.9-4c.4-1.5.89-3.12,1.23-4.83a23.38,23.38,0,0,0,.12-8.92c-.21-1.14-.46-2.07-.55-2.72a10.13,10.13,0,0,1-.13-1,6.23,6.23,0,0,0,.2,1c.16.64.51,1.51.88,2.64a19.17,19.17,0,0,1,.81,4.1,18.19,18.19,0,0,1-.3,5.13,34.76,34.76,0,0,1-1.45,4.87c-.52,1.46-1,2.76-1.31,3.88a17.38,17.38,0,0,0-.59,2.7A9.22,9.22,0,0,0,962.15,365Z" transform="translate(-778.03 -323.68)"/><path class="cls-12" d="M977.3,386l-1.16-.44L973,384.42c-1.34-.48-2.94-1-4.7-1.72a17.72,17.72,0,0,1-2.68-1.35,9.51,9.51,0,0,1-2.49-2.19,7.86,7.86,0,0,1-1.43-3,16.4,16.4,0,0,1-.42-3c-.1-1.88-.15-3.56-.2-5a15.63,15.63,0,0,1,0-1.93,4,4,0,0,1,.35-1.42,2,2,0,0,1,.57-.72,1.61,1.61,0,0,1,.26-.18,1.74,1.74,0,0,0-.76.93,4,4,0,0,0-.21,1.4,16.13,16.13,0,0,0,.2,1.88c.18,1.41.4,3.08.64,4.94a10.7,10.7,0,0,0,1.84,5.44,13.19,13.19,0,0,0,4.69,3.41c1.67.81,3.22,1.5,4.5,2.12l3,1.42Z" transform="translate(-778.03 -323.68)"/><path class="cls-12" d="M1010.41,418.23v-.41c0-.27,0-.67,0-1.19a19,19,0,0,0-.71-4.28,21.26,21.26,0,0,0-7.86-11.43c-2.2-1.66-4.53-3-6.57-4.33a50.2,50.2,0,0,0-5.61-3.16,21.73,21.73,0,0,0-4.09-1.47c-.5-.12-.89-.19-1.16-.23l-.41-.06.41.05c.27,0,.67.08,1.18.17a22.53,22.53,0,0,1,4.23,1.16,43.58,43.58,0,0,1,5.88,2.81,65.55,65.55,0,0,1,6.78,4.22,20,20,0,0,1,3.08,2.85,19.41,19.41,0,0,1,2.27,3.18,20.57,20.57,0,0,1,2.65,10.52,11.41,11.41,0,0,1-.05,1.19Z" transform="translate(-778.03 -323.68)"/><path class="cls-12" d="M1017.41,468.39c0-.19.07-1.63.19-4.18s.39-6.16.83-10.07.84-7.43.85-10a22.57,22.57,0,0,0-.13-3A9.9,9.9,0,0,0,1019,440s.1.39.26,1.09a26.18,26.18,0,0,1,.47,3,39.57,39.57,0,0,1,.17,4.57c0,1.73-.18,3.61-.39,5.57-.43,3.93-1,7.45-1.46,10-.21,1.27-.37,2.31-.47,3S1017.41,468.39,1017.41,468.39Z" transform="translate(-778.03 -323.68)"/><path class="cls-12" d="M1000.86,510.41c0-.08.34-.59.94-1.6l2.53-4.39,3.77-6.48c.71-1.21,1.43-2.51,2.17-3.85s1.49-2.74,2.21-4.18a56.62,56.62,0,0,0,3.5-8.4,35.63,35.63,0,0,0,1.52-7.26,25,25,0,0,0,0-5c-.07-.6-.13-1.06-.19-1.36l-.09-.48.1.47c.07.31.16.77.26,1.36a27.66,27.66,0,0,1,.34,5.06,32.7,32.7,0,0,1-1.12,7.48,46.62,46.62,0,0,1-3.37,8.63c-.74,1.46-1.51,2.87-2.29,4.2s-1.54,2.61-2.31,3.79l-4.14,6.27-2.81,4.21C1001.22,509.84,1000.91,510.33,1000.86,510.41Z" transform="translate(-778.03 -323.68)"/><path class="cls-12" d="M990.27,429.45l-.61-.09-1.67-.19a21.53,21.53,0,0,1-5.46-1.26,9.53,9.53,0,0,1-2.69-1.64,13.69,13.69,0,0,1-1.74-1.85c-.45-.56-.78-1-1-1.35s-.38-.49-.38-.49a18.39,18.39,0,0,0,1.68,1.56,16.65,16.65,0,0,0,4.54,2.8c2,.76,3.81,1.37,5.15,1.83.67.23,1.22.4,1.6.52Z" transform="translate(-778.03 -323.68)"/><path class="cls-12" d="M989.48,455.38s-.85-1.17-2.17-3.11c-.65-1-1.42-2.13-2.2-3.48a17.15,17.15,0,0,1-1.13-2.23,9,9,0,0,1-.49-2.69,20,20,0,0,1,.6-5.09c.34-1.51.68-2.86,1-4s.5-2,.66-2.69.22-1,.22-1-.07.36-.15,1-.19,1.6-.33,2.76-.31,2.54-.53,4.07a28.34,28.34,0,0,0-.39,4.89,9.8,9.8,0,0,0,.39,2.42c.25.72.61,1.47.93,2.16.66,1.38,1.29,2.62,1.82,3.67s1,1.87,1.29,2.44S989.48,455.38,989.48,455.38Z" transform="translate(-778.03 -323.68)"/><path class="cls-12" d="M999,462a3.82,3.82,0,0,0,.56-.76c.31-.5.69-1.19,1.17-1.87s1-1.28,1.35-1.74a4,4,0,0,0,.53-.79,1.43,1.43,0,0,0-.05.25c0,.16-.06.4-.11.7a5.43,5.43,0,0,1-.86,2.18,5.35,5.35,0,0,1-1.75,1.56l-.62.34Z" transform="translate(-778.03 -323.68)"/><path class="cls-12" d="M993.06,480.73c0-.08.05-.33.13-.85a19.24,19.24,0,0,1,.52-2.31,29,29,0,0,1,1.18-3.32c.26-.6.55-1.23.84-1.88a8.27,8.27,0,0,0,.73-1.92,4.33,4.33,0,0,0-.2-1.94c-.19-.63-.46-1.31-.62-2-.34-1.28-.58-2.44-.78-3.41s-.38-1.76-.52-2.3-.25-.82-.25-.82.47,1.14,1.16,3l1.19,3.27c.21.6.5,1.19.76,1.91a4.89,4.89,0,0,1,.29,2.41,7.82,7.82,0,0,1-.86,2.19l-1,1.81c-.62,1.15-1.15,2.19-1.56,3.09A12.92,12.92,0,0,0,993.06,480.73Z" transform="translate(-778.03 -323.68)"/><path class="cls-12" d="M990.17,506.55s0-.38,0-1.07,0-1.69,0-2.93a87.43,87.43,0,0,1,2.2-19.17l.64-2.86.22-1s-.23,1.51-.46,4-.56,5.85-1,9.58-.89,7.11-1.2,9.56S990.17,506.55,990.17,506.55Z" transform="translate(-778.03 -323.68)"/><path class="cls-12" d="M1014,458.29s0-.23-.08-.63-.16-1-.28-1.7c-.26-1.43-.6-3.39-1-5.51a54.91,54.91,0,0,0-1.43-5.39,20.76,20.76,0,0,0-.82-2.2s.11.2.32.55.51.85.87,1.48a18.68,18.68,0,0,1,2.08,5.34,24.41,24.41,0,0,1,.42,5.7l0,1.73C1014,458.06,1014,458.29,1014,458.29Z" transform="translate(-778.03 -323.68)"/><path class="cls-12" d="M1020.08,440.39s-.45.09-1.26.3c-.41.11-.91.22-1.47.41s-1.21.39-1.91.64-1.47.53-2.27.88-1.67.69-2.55,1.12-1.81.86-2.77,1.33l-2.94,1.51c-2,1.06-3.93,2.08-5.71,2.95s-3.43,1.6-4.82,2.17c-.69.3-1.34.52-1.89.74s-1,.38-1.44.53c-.79.28-1.22.46-1.22.46s.43-.19,1.18-.56c.38-.18.84-.41,1.36-.7s1.11-.6,1.76-1c1.29-.74,2.81-1.67,4.5-2.7s3.56-2.14,5.59-3.21q1.53-.81,3-1.47c1-.43,2-.85,2.92-1.17s1.85-.62,2.71-.86,1.67-.41,2.4-.59,1.41-.25,2-.37,1.1-.15,1.52-.22C1019.63,440.48,1020.08,440.39,1020.08,440.39Z" transform="translate(-778.03 -323.68)"/><path class="cls-12" d="M995.84,486.89v-.31c0-.2,0-.5,0-.89a17.23,17.23,0,0,1,.41-3.24,25.17,25.17,0,0,1,1.57-4.61c.74-1.67,1.68-3.44,2.66-5.28s2-3.58,2.88-5.14a13.43,13.43,0,0,0,1.73-4.36,6.33,6.33,0,0,0-.23-3.15,5.11,5.11,0,0,0-.38-.8l-.17-.25.18.25a5.59,5.59,0,0,1,.44.77,6.71,6.71,0,0,1,.56,3.22,12.65,12.65,0,0,1-1.38,4.7c-.8,1.65-1.71,3.41-2.7,5.25s-2,3.57-2.83,5.16a29.88,29.88,0,0,0-1.94,4.35,14.64,14.64,0,0,0-.72,3.14,6.73,6.73,0,0,0-.06.88Z" transform="translate(-778.03 -323.68)"/><path class="cls-12" d="M997.49,501.8l.34-1.12a31.3,31.3,0,0,1,1.11-3,40.82,40.82,0,0,1,2.12-4.26c.87-1.57,1.9-3.24,3-5s2-3.43,2.75-5a25.51,25.51,0,0,0,1.67-4.37,17.14,17.14,0,0,0,.55-3.12c0-.37,0-.67,0-.86v0a8.51,8.51,0,0,1,0,.86,18.11,18.11,0,0,1-.23,3.21,21.54,21.54,0,0,1-1.29,4.61,35.08,35.08,0,0,1-2.63,5.23c-1.06,1.77-2.16,3.4-3.13,4.88s-1.83,2.84-2.48,4A22,22,0,0,0,997.49,501.8Z" transform="translate(-778.03 -323.68)"/><path class="cls-12" d="M924.85,406.13s.09-.2.23-.57.33-.91.58-1.58a23.77,23.77,0,0,1,2.6-4.91,23.51,23.51,0,0,1,3.73-4.13c.53-.47,1-.84,1.28-1.1s.46-.4.46-.4a22.19,22.19,0,0,0-1.44,1.77c-.85,1.13-1.95,2.72-3.17,4.46s-2.32,3.32-3.09,4.5S924.85,406.13,924.85,406.13Z" transform="translate(-778.03 -323.68)"/><path class="cls-12" d="M918.66,440.05s-.32-.44-.87-1.25a31.43,31.43,0,0,1-2.13-3.59,26.61,26.61,0,0,1-2.18-5.84,23.19,23.19,0,0,1-.57-7.65,20.21,20.21,0,0,1,2.22-7.36,19.9,19.9,0,0,1,1.8-2.83,18.2,18.2,0,0,1,3.78-3.69,15.46,15.46,0,0,1,1.51-1c.42-.27.77-.41,1-.54l.35-.19-.35.2c-.22.14-.56.3-1,.59a13.75,13.75,0,0,0-1.41,1.08,17.14,17.14,0,0,0-1.67,1.65,20.36,20.36,0,0,0-1.72,2.25,22.34,22.34,0,0,0-1.56,2.84,22.69,22.69,0,0,0-1.93,7.08,26.91,26.91,0,0,0,.35,7.37A30,30,0,0,0,916,435a29.28,29.28,0,0,0,1.81,3.73C918.35,439.61,918.66,440.05,918.66,440.05Z" transform="translate(-778.03 -323.68)"/><path class="cls-12" d="M940.3,442.82s-.47.43-1.33,1.17a37,37,0,0,1-3.87,2.91c-.86.56-1.82,1.14-2.89,1.71a13.23,13.23,0,0,1-1.73.8,4.47,4.47,0,0,1-2.1.25c-.67-.06-1.37-.14-2.08-.26a6.87,6.87,0,0,1-2.23-.67,17.25,17.25,0,0,1-3.43-3.19,14.27,14.27,0,0,1-2.34-4.05,13.69,13.69,0,0,1-.83-4.28,12.65,12.65,0,0,1,.64-3.87c.36-1.14.69-2.21,1-3.18.61-1.94,1.11-3.52,1.46-4.6l.51-1.7c0,.09-.16.63-.44,1.72s-.66,2.71-1.14,4.69c-.24,1-.5,2.07-.79,3.23a13.08,13.08,0,0,0-.41,3.68,13.8,13.8,0,0,0,3.14,7.7,18.28,18.28,0,0,0,3.16,3,6.85,6.85,0,0,0,1.87.6c.67.13,1.35.24,2,.33a5.85,5.85,0,0,0,3.45-.79c1.09-.49,2.08-1,3-1.48a33.8,33.8,0,0,0,4-2.63C939.83,443.24,940.3,442.82,940.3,442.82Z" transform="translate(-778.03 -323.68)"/><path class="cls-12" d="M982.33,443.72l-2.3.52-6.24,1.48a89.54,89.54,0,0,1-9.35,1.89,32.28,32.28,0,0,1-5.69.18c-2-.13-4-.27-6-.57a12.19,12.19,0,0,1-5.72-2.45,16.11,16.11,0,0,1-3.81-4.32,19.42,19.42,0,0,1-2.07-4.73,24,24,0,0,1-.88-4.39,27.81,27.81,0,0,1,.19-6.42l.31-2.33s-.11.83-.23,2.33a26.09,26.09,0,0,0,.16,6.37,24.68,24.68,0,0,0,1.09,4.23,19.74,19.74,0,0,0,2.18,4.46,15.91,15.91,0,0,0,3.7,4,11.46,11.46,0,0,0,5.26,2.2c2,.28,4,.45,5.94.61a35.13,35.13,0,0,0,5.53,0c3.52-.31,6.69-1,9.35-1.43l6.32-1.13Z" transform="translate(-778.03 -323.68)"/><path class="cls-12" d="M963.39,440.39s.12-.22.31-.64.48-1,.85-1.77a29.7,29.7,0,0,1,8-10.12l1.52-1.24c.36-.28.55-.45.55-.45s-.73.71-1.78,2-2.47,3-4,5-2.93,3.74-3.91,5.06S963.39,440.39,963.39,440.39Z" transform="translate(-778.03 -323.68)"/><path class="cls-12" d="M968,398.77l-1.1.32-3,.93c-1.26.4-2.76.87-4.43,1.36s-3.53,1-5.42,1.55a24.58,24.58,0,0,0-5.11,2.12,35.88,35.88,0,0,0-3.81,2.54c-2.1,1.59-3.31,2.69-3.31,2.69l.82-.81c.52-.52,1.26-1.28,2.23-2.19a26.57,26.57,0,0,1,3.63-2.94,19.14,19.14,0,0,1,5.24-2.41c2-.6,3.82-1,5.52-1.37s3.25-.68,4.54-.93l3.06-.61Z" transform="translate(-778.03 -323.68)"/><path class="cls-12" d="M963,394.66s-.09-.18-.27-.47-.43-.74-.72-1.3a12.67,12.67,0,0,1-1.36-4.75,12.46,12.46,0,0,1,.63-4.9c.19-.6.4-1.07.51-1.39.08-.15,0-.33-.1-.23s0,.12,0,.1-.08,0,0-.11a.1.1,0,0,1,.16,0,.35.35,0,0,1,0,.25c-.06.34-.14.84-.19,1.45a29,29,0,0,0,0,4.74,31,31,0,0,0,.69,4.69,10.08,10.08,0,0,0,.41,1.4C962.93,394.48,963,394.66,963,394.66Z" transform="translate(-778.03 -323.68)"/><path class="cls-12" d="M956.15,398.26s0-.27,0-.78-.12-1.23-.17-2.13a34,34,0,0,1,.24-7.07,34.3,34.3,0,0,1,1.77-6.85c.31-.85.58-1.53.76-2s.28-.74.28-.74-.32,1.07-.65,2.84-.72,4.21-1.12,6.89-.7,5.14-.88,6.93S956.15,398.26,956.15,398.26Z" transform="translate(-778.03 -323.68)"/><path class="cls-12" d="M946.24,403s0-.35,0-1-.11-1.53-.19-2.65a43.75,43.75,0,0,1,.15-8.83,25.81,25.81,0,0,1,2.6-8.45,26.11,26.11,0,0,1,1.36-2.3l.55-.82a16.92,16.92,0,0,0-1.54,3.28,40.56,40.56,0,0,0-1.93,8.43c-.44,3.36-.64,6.44-.78,8.68-.06,1.12-.11,2-.15,2.66S946.24,403,946.24,403Z" transform="translate(-778.03 -323.68)"/><path class="cls-12" d="M936.42,408.63a5.46,5.46,0,0,0,0-1.57,20.45,20.45,0,0,0-1-3.58c-.46-1.36-.88-2.64-1.17-3.58l-.2-.64a.69.69,0,0,0-.24-.39c-.1-.08-.21-.11-.27-.07s-.06.09-.06.09,0,0,0-.1a.31.31,0,0,1,.32,0,.86.86,0,0,1,.38.36l.38.55a13.82,13.82,0,0,1,1.81,3.43,9.09,9.09,0,0,1,.44,2.13c0,.34,0,.66,0,1s0,.57-.08.82a11.39,11.39,0,0,1-.26,1.16A2.83,2.83,0,0,0,936.42,408.63Z" transform="translate(-778.03 -323.68)"/><path class="cls-12" d="M927,499.15s-.33-.71-1-2c-.32-.62-.73-1.38-1.17-2.28a19.29,19.29,0,0,1-1.24-3.2,19,19,0,0,1,0-8.9c.33-1.64.65-3.33.88-5.12s.43-3.63.53-5.53a63.22,63.22,0,0,0-.47-9.91,32.42,32.42,0,0,0-.7-4.28c-.49-1.33-.88-2.57-1.26-3.73s-.7-2.22-.95-3.19a13.84,13.84,0,0,1-.35-2.62,13.68,13.68,0,0,1,.19-2.77l0-.08s0,0,0,0v.14h0s0,0,0,0v.46l0-.41v-.16s0,0,0,0v.07a12,12,0,0,0-.06,2.74,12.5,12.5,0,0,0,.49,2.54c.3.94.7,2,1.13,3.11s.9,2.36,1.44,3.63a28.61,28.61,0,0,1,.92,4.42c.23,1.55.42,3.17.56,4.85a37.75,37.75,0,0,1,.1,5.23q-.16,2.91-.59,5.63c-.28,1.8-.65,3.54-1.05,5.15a19.43,19.43,0,0,0-.43,8.63,27.17,27.17,0,0,0,2.08,5.54Z" transform="translate(-778.03 -323.68)"/><path class="cls-13" d="M965.12,464.19c2.78,2.48,1.6,16.31,3,19.75C973.33,496.81,980.2,496,980,496" transform="translate(-778.03 -323.68)"/><path class="cls-12" d="M980,496s-.13,0-.38,0a6.76,6.76,0,0,1-1.1-.15,10,10,0,0,1-3.73-1.7,17.53,17.53,0,0,1-4.23-4.43,27.67,27.67,0,0,1-1.83-3.13c-.29-.56-.56-1.14-.82-1.73a8.84,8.84,0,0,1-.65-1.94,28.41,28.41,0,0,1-.38-3.89c-.06-1.24-.09-2.44-.11-3.57,0-2.28-.08-4.32-.21-6a15.39,15.39,0,0,0-.72-4,3.69,3.69,0,0,0-.5-1l-.26-.29.27.28a4.41,4.41,0,0,1,.56,1,15.89,15.89,0,0,1,1,4c.28,1.71.48,3.76.65,6,.08,1.13.16,2.32.25,3.56a37.21,37.21,0,0,0,.42,3.74,7.73,7.73,0,0,0,.58,1.74c.24.58.49,1.15.75,1.7a33.53,33.53,0,0,0,1.66,3.11,18.36,18.36,0,0,0,3.77,4.56,9.62,9.62,0,0,0,3.51,2,5.81,5.81,0,0,0,1.08.21C979.91,496,980.05,496,980,496Z" transform="translate(-778.03 -323.68)"/><path class="cls-13" d="M952,474.74c.85,2.58,4.27,11.4,6.17,13.33,7.1,7.21,12.28,8.67,12.38,8.58" transform="translate(-778.03 -323.68)"/><path class="cls-12" d="M970.59,496.65a1.31,1.31,0,0,1-.3,0c-.19-.06-.48-.14-.83-.27a22.51,22.51,0,0,1-2.92-1.36q-.91-.48-1.92-1.14c-.68-.43-1.38-.92-2.1-1.46s-1.45-1.15-2.2-1.79-1.47-1.35-2.21-2.08a9.94,9.94,0,0,1-1.74-2.58c-.45-.88-.85-1.74-1.21-2.56-.71-1.66-1.27-3.18-1.73-4.45-.9-2.56-1.39-4.17-1.39-4.17s.13.4.41,1.1.7,1.72,1.26,3,1.22,2.7,2,4.3c.39.81.82,1.64,1.28,2.48a10.49,10.49,0,0,0,1.65,2.39c.73.73,1.45,1.42,2.16,2.08s1.41,1.28,2.1,1.84a38.9,38.9,0,0,0,3.78,2.83,21.46,21.46,0,0,0,2.8,1.56,8.06,8.06,0,0,0,.81.31A1.11,1.11,0,0,0,970.59,496.65Z" transform="translate(-778.03 -323.68)"/><path class="cls-13" d="M928.29,479.28c.34,2.41,2,10.74,3.31,12.75,5,7.51,9.34,9.64,9.43,9.58" transform="translate(-778.03 -323.68)"/><path class="cls-12" d="M941,501.61a3.34,3.34,0,0,1-.94-.47,20.69,20.69,0,0,1-2.34-1.68,29.46,29.46,0,0,1-3.09-3c-.55-.6-1.09-1.25-1.64-1.94s-1.07-1.43-1.6-2.2a9.12,9.12,0,0,1-1.1-2.55c-.26-.84-.47-1.66-.65-2.45-.36-1.57-.62-3-.81-4.19-.39-2.4-.57-3.89-.57-3.89s.24,1.48.82,3.84c.29,1.18.64,2.57,1.08,4.11.21.77.45,1.57.73,2.39A9.51,9.51,0,0,0,932,492a46,46,0,0,0,5.95,7.27,18.41,18.41,0,0,0,2.2,1.84A3,3,0,0,0,941,501.61Z" transform="translate(-778.03 -323.68)"/><path class="cls-12" d="M901.39,505.38s.47-.27,1.27-.8,1.94-1.35,3.27-2.45a51.71,51.71,0,0,0,9.1-9.76c.39-.52.74-1.06,1.1-1.58l1-1.61,1.89-3,3.19-5.17,2.16-3.47c.49-.81.73-1.21.77-1.29l-.7,1.33c-.45.86-1.09,2.1-1.88,3.64l-2.81,5.38c-.57,1-1.16,2.05-1.78,3.13l-1,1.65c-.36.54-.71,1.1-1.11,1.63a39.3,39.3,0,0,1-9.7,9.48c-1.43,1-2.64,1.7-3.48,2.18Z" transform="translate(-778.03 -323.68)"/><path class="cls-12" d="M927,499.15s-.07.25-.17.71-.23,1.12-.46,1.94a8.54,8.54,0,0,1-1.31,2.73,11,11,0,0,1-2.72,2.52,45.61,45.61,0,0,1-5.67,3.3l-1.81.84c-.42.19-.65.31-.65.31a25.57,25.57,0,0,0,2.25-1.5l2.36-1.74c.88-.65,1.89-1.35,2.92-2.06a16.49,16.49,0,0,0,2.67-2.2,9.59,9.59,0,0,0,1.58-2.35A17.5,17.5,0,0,0,927,499.15Z" transform="translate(-778.03 -323.68)"/><path class="cls-12" d="M902,504.53l-1.15.24c-.74.15-1.83.36-3.18.52s-3,.2-4.77.24a17.08,17.08,0,0,0-2.71.28c-.93.18-1.89.43-2.87.72s-2,.58-2.92.81-1.91.39-2.79.53a33.47,33.47,0,0,0-4.63.87,10.06,10.06,0,0,0-2.88,1.31,5.18,5.18,0,0,0-.91.75l.21-.22c.15-.14.36-.34.65-.59a11.24,11.24,0,0,1,2.79-1.63,27,27,0,0,1,4.61-1.32c.88-.19,1.78-.39,2.7-.65l2.88-.86a21.89,21.89,0,0,1,3-.7,15,15,0,0,1,2.88-.14c1.81.08,3.39.22,4.74.19A25.64,25.64,0,0,0,902,504.53Z" transform="translate(-778.03 -323.68)"/><path class="cls-12" d="M882.78,512s-.66.19-1.7.61c-.52.2-1.14.42-1.83.65s-1.43.48-2.29.69a4.38,4.38,0,0,1-2.59-.09,2.47,2.47,0,0,1-1.53-1.5,2,2,0,0,1,0-1.37,1.52,1.52,0,0,1,.24-.42,1.11,1.11,0,0,0-.17.44,1.65,1.65,0,0,0,.28,1.18,2.1,2.1,0,0,0,1.41.87,5.22,5.22,0,0,0,2.12-.13,20.22,20.22,0,0,1,2.31-.48c.73-.11,1.4-.18,2-.24C882.11,512.09,882.78,512,882.78,512Z" transform="translate(-778.03 -323.68)"/><path class="cls-12" d="M881.29,510.52a1.06,1.06,0,0,0-.37-.36,8.76,8.76,0,0,1-.9-.63,10.74,10.74,0,0,1-.74-.82,1.24,1.24,0,0,0-.39-.33H879l.41-.05a1.79,1.79,0,0,1,1.28.41,1.76,1.76,0,0,1,.57,1.23c0,.18,0,.32,0,.41A.79.79,0,0,0,881.29,510.52Z" transform="translate(-778.03 -323.68)"/><path class="cls-12" d="M889.53,525a1.35,1.35,0,0,1-.74.39,2.1,2.1,0,0,1-1-.08,10.92,10.92,0,0,1-1.21-.53,11.49,11.49,0,0,0-1.45-.52,8.29,8.29,0,0,1-1.74-.71c-.58-.32-1.14-.72-1.7-1.1a11,11,0,0,0-1.77-1,3.64,3.64,0,0,1-1.89-1.51,1.88,1.88,0,0,1-.17-1.31,3.74,3.74,0,0,1,.42-1,23.74,23.74,0,0,1,2-2.82,13.48,13.48,0,0,0,1.27-1.88,5.71,5.71,0,0,0,.36-.75c0,.08-.12.31-.29.79a19,19,0,0,1-1,2.06c-.46.86-1.06,1.84-1.54,3-.25.57-.39,1.09-.13,1.48a3,3,0,0,0,1.46,1,9.53,9.53,0,0,1,1.91,1.16c.56.43,1.06.85,1.57,1.19a9.09,9.09,0,0,0,1.52.84,9.46,9.46,0,0,1,1.42.75,11,11,0,0,0,1.08.69,1.85,1.85,0,0,0,.92.2A1.1,1.1,0,0,0,889.53,525Z" transform="translate(-778.03 -323.68)"/><path class="cls-12" d="M892.55,524.54a1,1,0,0,0-.07.16c-.05.1-.09.27-.18.48a1.46,1.46,0,0,1-.58.66,1.69,1.69,0,0,1-1.05.2,2.28,2.28,0,0,1-1.54-.83,3.32,3.32,0,0,1-.34-.63.49.49,0,0,0,.13.12,1.14,1.14,0,0,0,.44.18c.37.08.88,0,1.42.12a5.74,5.74,0,0,0,.65,0,1.35,1.35,0,0,0,.57-.15A1.72,1.72,0,0,0,892.55,524.54Z" transform="translate(-778.03 -323.68)"/><path class="cls-12" d="M897,522.93a1.82,1.82,0,0,0-.17.21c-.11.13-.26.35-.48.59a4.12,4.12,0,0,1-2.18,1.3,3.63,3.63,0,0,1-1.42.06,2,2,0,0,1-.7-.21,1.18,1.18,0,0,1-.4-.46,2,2,0,0,0-.4-.59.41.41,0,0,0-.25-.09,1.18,1.18,0,0,1,.28,0,3.09,3.09,0,0,1,.66.39,1,1,0,0,0,.37.16l.44,0c.37-.07.77-.15,1.19-.25a15.55,15.55,0,0,0,2.18-.62A2.87,2.87,0,0,0,897,522.93Z" transform="translate(-778.03 -323.68)"/><path class="cls-12" d="M902.68,518.64a2,2,0,0,0-.14.27c-.09.18-.21.45-.38.77a5.72,5.72,0,0,1-1.91,2.1,13.42,13.42,0,0,1-2.55,1.06,2.56,2.56,0,0,0-1,.56l.18-.25a7,7,0,0,1,.56-.65,12.41,12.41,0,0,1,2.2-1.6c.84-.55,1.62-1,2.17-1.49A4.23,4.23,0,0,0,902.68,518.64Z" transform="translate(-778.03 -323.68)"/><path class="cls-12" d="M895.9,511.58c-.08,0-.4-.53-.89-1.18s-.78-1.29-.69-1.34.48.48,1,1.14S896,511.55,895.9,511.58Z" transform="translate(-778.03 -323.68)"/><path class="cls-12" d="M891.84,524l-.48-.57c-.31-.37-.77-.89-1.31-1.57a29.1,29.1,0,0,1-1.78-2.46c-.31-.49-.62-1-.92-1.57a3.6,3.6,0,0,1-.36-1,2.45,2.45,0,0,1,.11-1.2,6.53,6.53,0,0,1,1.1-1.73c.37-.47.7-1,1-1.42a9,9,0,0,1,2.12-2.25,4.37,4.37,0,0,1,1.91-.78,3.21,3.21,0,0,1,.56,0H894a2.11,2.11,0,0,0-.73.1,3.88,3.88,0,0,0-1.68,1,10.26,10.26,0,0,0-1.67,2.39c-.28.49-.57,1-.93,1.54a7.55,7.55,0,0,0-.92,1.49,1.82,1.82,0,0,0,.16,1.46c.23.53.51,1.07.75,1.57.5,1,1,1.9,1.39,2.65A22.84,22.84,0,0,0,891.84,524Z" transform="translate(-778.03 -323.68)"/><path class="cls-12" d="M900.38,518.91l-.62.11c-.4.07-1,.2-1.7.3a8.36,8.36,0,0,1-2.63,0,5.71,5.71,0,0,1-1.52-.52,7.28,7.28,0,0,1-.72-.4,5.37,5.37,0,0,1-.74-.52,1.58,1.58,0,0,1-.52-1c0-.33,0-.56,0-.84a7.55,7.55,0,0,1,.13-1.58,3.68,3.68,0,0,1,.56-1.38,3.29,3.29,0,0,1,.93-.87,3.35,3.35,0,0,1,1.69-.51,3.44,3.44,0,0,1,.63,0,2.24,2.24,0,0,0-.62,0,3,3,0,0,0-1.45.76,3,3,0,0,0-.91,2,9.65,9.65,0,0,0,0,1.41c0,.24,0,.54.08.74a.58.58,0,0,0,.21.4c.13.12.37.27.58.42s.43.28.64.4a7.07,7.07,0,0,0,1.26.58,9.87,9.87,0,0,0,2.41.44A15.87,15.87,0,0,0,900.38,518.91Z" transform="translate(-778.03 -323.68)"/><path class="cls-12" d="M904.89,518.6a3.83,3.83,0,0,0-.73.24,5.88,5.88,0,0,1-1.73.4,6.12,6.12,0,0,1-1.78-.21,4.1,4.1,0,0,0-.74-.15,4.42,4.42,0,0,0,.71-.25,5,5,0,0,1,1.75-.44,5.74,5.74,0,0,1,1.79.24A4.26,4.26,0,0,0,904.89,518.6Z" transform="translate(-778.03 -323.68)"/><path class="cls-12" d="M891.65,513.32c.08-.05.28.09.44.31s.24.45.17.51-.28-.08-.44-.31S891.58,513.38,891.65,513.32Z" transform="translate(-778.03 -323.68)"/><path class="cls-12" d="M890.89,516.62c0-.09.22-.17.52-.18s.53.07.52.17-.24.17-.52.17S890.9,516.71,890.89,516.62Z" transform="translate(-778.03 -323.68)"/><path class="cls-12" d="M892.92,520.16c-.09,0-.11-.46,0-1s.2-1,.29-1,.11.47.05,1S893,520.16,892.92,520.16Z" transform="translate(-778.03 -323.68)"/><path class="cls-12" d="M890,524.74l-.65-.55c-.42-.36-1-.87-1.77-1.54a30.51,30.51,0,0,1-2.44-2.48,14,14,0,0,1-1.32-1.65,2.42,2.42,0,0,1-.38-1.29,3.18,3.18,0,0,1,.35-1.27c.35-.69.75-1.3,1.12-1.92l1.09-1.75a7.33,7.33,0,0,1,1.2-1.49,4,4,0,0,1,1.48-.86,4.34,4.34,0,0,1,2.37-.05q.39.12.6.21l.2.09A3.16,3.16,0,0,0,891,510a3.94,3.94,0,0,0-2.2.36,3.75,3.75,0,0,0-1.18.91,8.31,8.31,0,0,0-.94,1.51c-.3.57-.62,1.17-.94,1.79s-.71,1.24-1,1.88a1.55,1.55,0,0,0,0,1.62c.3.53.75,1.1,1.11,1.62.76,1,1.47,2,2.09,2.72A27.62,27.62,0,0,0,890,524.74Z" transform="translate(-778.03 -323.68)"/><path class="cls-12" d="M887.6,524.12s-.22-.19-.64-.5l-1.8-1.3c-.76-.55-1.66-1.2-2.65-2l-.75-.59a2.87,2.87,0,0,1-.78-.86,1.76,1.76,0,0,1-.13-1.36,5.65,5.65,0,0,1,.45-1.07,33.88,33.88,0,0,1,2.06-3.49q.51-.78,1-1.44a3,3,0,0,1,1.21-1.1,5.2,5.2,0,0,1,1.25-.35,6.42,6.42,0,0,1,1-.11,1.51,1.51,0,0,1,.6.09,1.07,1.07,0,0,1,.19.09.79.79,0,0,0-.19-.08,1.57,1.57,0,0,0-.6,0,5.11,5.11,0,0,0-.91.25,4.23,4.23,0,0,0-1.1.49,2.72,2.72,0,0,0-.88,1.09l-.83,1.53L882.23,517c-.34.65-.57,1.15-.37,1.49a6,6,0,0,0,1.2,1.26c.9.85,1.7,1.63,2.36,2.29l1.58,1.56C887.38,523.93,887.6,524.12,887.6,524.12Z" transform="translate(-778.03 -323.68)"/><path class="cls-12" d="M884.92,511.4s-.19.12-.55.32a9,9,0,0,1-1.25.46,4.07,4.07,0,0,0-1.06.47,1,1,0,0,0-.39.44,1.15,1.15,0,0,0,0-.17,3.06,3.06,0,0,1,0-.47,1.64,1.64,0,0,1,1.08-1.26,2.37,2.37,0,0,1,1.54.12A1.26,1.26,0,0,0,884.92,511.4Z" transform="translate(-778.03 -323.68)"/><path class="cls-12" d="M903.8,510.61a1.18,1.18,0,0,0-.25,0c-.16,0-.39,0-.69,0a3.9,3.9,0,0,1-2.22-.68,3.81,3.81,0,0,1-1.38-1.86c-.1-.28-.16-.51-.21-.66s-.07-.23-.07-.23a2.88,2.88,0,0,0,.61.67c.42.37,1,.78,1.66,1.23s1.22.86,1.71,1.14A2.75,2.75,0,0,0,903.8,510.61Z" transform="translate(-778.03 -323.68)"/><path class="cls-12" d="M894.92,509.81c0-.09,1-.13,2.25-.51a5.38,5.38,0,0,1,2.31-.36,16.48,16.48,0,0,1-2.22.69A3.89,3.89,0,0,1,894.92,509.81Z" transform="translate(-778.03 -323.68)"/><path class="cls-12" d="M895.73,511.48c-.09,0-.05-.46.19-.94s.56-.77.63-.71-.1.42-.32.87S895.82,511.5,895.73,511.48Z" transform="translate(-778.03 -323.68)"/><path class="cls-12" d="M990.85,496l-.62-.22a11.53,11.53,0,0,0-1.85-.44,15.85,15.85,0,0,0-3-.14c-1.17,0-2.49.19-3.95.37s-3.07.41-4.82.49-3.59.1-5.52.26a90.17,90.17,0,0,0-12.4,2.21c-2.2.49-4.35,1-6.46,1.32s-4.15.61-6.1.77a70.22,70.22,0,0,1-10.4.09c-3-.2-5.32-.52-7-.76l-2.53-.42s.9.16,2.54.34,4,.38,7,.43a79.74,79.74,0,0,0,10.3-.52c1.92-.21,3.94-.51,6-.9s4.2-.88,6.4-1.37a74.25,74.25,0,0,1,12.58-2c2-.1,3.83,0,5.55,0s3.32-.15,4.8-.26a25.53,25.53,0,0,1,7,.1,12.25,12.25,0,0,1,1.83.5Z" transform="translate(-778.03 -323.68)"/><path class="cls-12" d="M989.76,502.07a21.6,21.6,0,0,0-2.64-.19,55.45,55.45,0,0,0-7.19.45c-3,.34-6.64.67-10.58,1.4a61,61,0,0,0-6.09,1.48c-2.1.6-4.27,1.29-6.52,1.9a60.94,60.94,0,0,1-13,2c-2,.1-3.94.13-5.74.12a37.18,37.18,0,0,1-5-.3,17,17,0,0,1-6.83-2.32,11.71,11.71,0,0,1-1.57-1.17c-.34-.3-.5-.46-.5-.46s.16.16.51.45a11.42,11.42,0,0,0,1.6,1.12,16.5,16.5,0,0,0,6.84,2,40.06,40.06,0,0,0,5,.07c1.78-.07,3.69-.17,5.69-.33a70.2,70.2,0,0,0,12.81-2.17l6.53-1.85a54,54,0,0,1,6.22-1.35c4-.62,7.65-.79,10.69-1a57.45,57.45,0,0,1,7.23-.12c.85.05,1.51.12,2,.17Z" transform="translate(-778.03 -323.68)"/><path class="cls-12" d="M919.52,511.65l.06-.3a5.88,5.88,0,0,1,.26-.8c.3-.67.72-1.47,1.22-2.34.25-.44.5-.84.74-1.22a9.37,9.37,0,0,1,.71-1,2.34,2.34,0,0,1,.67-.54,1.51,1.51,0,0,1,.28-.1.7.7,0,0,0-.24.16,1.53,1.53,0,0,0-.36.68c-.1.31-.16.7-.3,1.16a6.35,6.35,0,0,1-.6,1.39,8,8,0,0,1-1.78,2,3.18,3.18,0,0,0-.53.6A1.13,1.13,0,0,0,919.52,511.65Z" transform="translate(-778.03 -323.68)"/><path class="cls-12" d="M975.7,511.49l-11.67.07c-7.21,0-17.17,0-28.16-.08s-21-.15-28.16-.07c-1.8,0-3.43.06-4.86.08s-2.66.07-3.67.11l-3.13.15,3.13-.22c1-.08,2.23-.17,3.66-.25s3.06-.2,4.86-.27c7.2-.38,17.17-.65,28.17-.57s21,.43,28.17.71l8.53.29C974.58,511.49,975.7,511.49,975.7,511.49Z" transform="translate(-778.03 -323.68)"/><path class="cls-12" d="M975.74,519.39,965,519.24c-3.31,0-7.26-.06-11.65,0-2.19,0-4.49.07-6.86.15s-4.86.18-7.4.23c-10.13.22-19.3,0-25.94,0l-7.86-.09H902.4l10.74-.31c6.64-.21,15.8-.39,25.92-.61l7.39-.17c2.39,0,4.7,0,6.9,0,4.39.08,8.34.27,11.66.45l7.85.43Z" transform="translate(-778.03 -323.68)"/><path class="cls-12" d="M908.44,555.47c0-.1.1-.53.26-1.42s.36-2.25.63-3.89c.53-3.29,1.28-7.82,2.32-12.78s2.11-9.42,3-12.65a14.05,14.05,0,0,1,1.45-3.68,9.35,9.35,0,0,1,.61-.88l.24-.28-.23.29a7.38,7.38,0,0,0-.56.91,13.23,13.23,0,0,0-1.12,3.73c-.54,3.27-1.29,7.81-2.32,12.77s-2.12,9.43-2.94,12.65c-.41,1.61-.73,2.92-1,3.82S908.46,555.38,908.44,555.47Z" transform="translate(-778.03 -323.68)"/><path class="cls-12" d="M903.87,590.44c0-.1,0-.52,0-1.39s0-2.2.05-3.8a115,115,0,0,1,.89-12.51,116.24,116.24,0,0,1,2.3-12.33c.38-1.55.7-2.81.91-3.69l.33-1.35c0,.09-.1.51-.26,1.37s-.35,2.16-.58,3.75c-.46,3.17-1,7.55-1.66,12.38s-1.17,9.22-1.52,12.4c-.18,1.6-.31,2.89-.38,3.78S903.88,590.34,903.87,590.44Z" transform="translate(-778.03 -323.68)"/><path class="cls-12" d="M952.88,599.56h-.51c-.34,0-.83,0-1.47,0-1.27,0-3.11,0-5.38-.14s-5-.46-7.95-1-6.21-1.16-9.59-1.92c-6.77-1.5-12.85-3-17.25-4.17-2.2-.55-4-1.09-5.2-1.41l-1.9-.51,1.92.44c1.25.25,3,.67,5.27,1.08,4.46.84,10.62,2,17.38,3.55,3.39.76,6.59,1.5,9.52,2.11s5.59,1.08,7.84,1.37,4.08.44,5.34.47S952.88,599.56,952.88,599.56Z" transform="translate(-778.03 -323.68)"/><path class="cls-12" d="M952.28,599.4a2.07,2.07,0,0,0,.34.07,3.51,3.51,0,0,0,1,0,3.29,3.29,0,0,0,.6-.15.64.64,0,0,0,.37-.33,15.16,15.16,0,0,0,.4-1.53,31.3,31.3,0,0,1,1-3,8.75,8.75,0,0,0,.4-1.28s0,.13,0,.36,0,.58,0,1a12.78,12.78,0,0,1-.37,3.22c-.08.31-.17.6-.27.89a2.56,2.56,0,0,1-.47.89,1.35,1.35,0,0,1-.92.44,2.78,2.78,0,0,1-.74-.07,5,5,0,0,1-.95-.31Z" transform="translate(-778.03 -323.68)"/><path class="cls-12" d="M956.13,596.93s-2.9-.74-7.63-1.8-11.26-2.52-18.53-3.73c-3.64-.61-7.13-1.18-10.26-1.92s-5.89-1.61-8.23-2.2a42.6,42.6,0,0,0-5.61-1.14c-1.35-.16-2.1-.17-2.1-.17l.54,0c.36,0,.89,0,1.56.08a49,49,0,0,1,5.7.81c2.38.46,5.19,1.17,8.31,1.78s6.61,1.1,10.27,1.71a158.17,158.17,0,0,1,18.45,4.36l5.51,1.62Z" transform="translate(-778.03 -323.68)"/><path class="cls-14" d="M920.44,537.32A142.67,142.67,0,0,1,935.52,545l-13.79,3.76c4.45,1.73,9.45,1,14.15,1.8" transform="translate(-778.03 -323.68)"/><path class="cls-12" d="M935.88,550.59a16.8,16.8,0,0,0-1.78-.2c-1.15-.1-2.81-.11-4.88-.13-1,0-2.17,0-3.39-.16-.61-.06-1.24-.14-1.89-.27l-.49-.1-.24-.05-.36-.1c-.62-.16-1.18-.37-1.83-.59l-.47-.16-.24-.08s.13,0,.19-.07l.93-.27,1.82-.51,2.09-.61,4.42-1.23,4.44-1.18c.15,0,.11,0,.09,0l-1.61-1c-2.34-1.38-4.47-2.58-6.29-3.56-3.62-2-5.95-3-5.95-3l1.65.7c1.06.44,2.6,1.08,4.48,1.94s4.11,1.91,6.52,3.19l.92.49,1.11.62.92.53.46.27.24.13-.25.07-2,.57L930,547.07l-4.44,1.18-2.11.54-.19.05h0s-.09,0,0,0l.06,0,.13,0,.23.07.46.12c.62.15,1.22.27,1.81.36,1.19.19,2.31.3,3.33.39,2,.16,3.72.29,4.87.45S935.88,550.59,935.88,550.59Z" transform="translate(-778.03 -323.68)"/><path class="cls-14" d="M938.3,546.09A21.38,21.38,0,0,1,949,541.17a60,60,0,0,1,9-.81" transform="translate(-778.03 -323.68)"/><path class="cls-12" d="M957.91,540.36l-3,.34c-.93.12-2,.27-3.26.48s-2.56.47-3.93.8a29.43,29.43,0,0,0-6.82,2.44,13.09,13.09,0,0,0-2.55,1.67l.6-.56a17.13,17.13,0,0,1,1.73-1.45,18.61,18.61,0,0,1,6.79-3.12,28.29,28.29,0,0,1,7.42-.67l2.25.08C957.62,540.38,957.91,540.36,957.91,540.36Z" transform="translate(-778.03 -323.68)"/><path class="cls-14" d="M940.37,550.3c.92-1,3.15-1.88,5-2.49a20.48,20.48,0,0,1,7.69-.79" transform="translate(-778.03 -323.68)"/><path class="cls-12" d="M953.06,547a2.06,2.06,0,0,0-.53,0,8.68,8.68,0,0,0-1.42.13c-1.2.19-2.83.52-4.59.92-.86.2-1.68.47-2.45.68s-1.44.44-2,.65a5.88,5.88,0,0,0-1.28.62,2.3,2.3,0,0,0-.41.32s.12-.14.36-.38a8.57,8.57,0,0,1,1.15-.92,13.83,13.83,0,0,1,1.89-1.07,13.14,13.14,0,0,1,2.51-.92,15.73,15.73,0,0,1,4.81-.3A12.35,12.35,0,0,1,953.06,547Z" transform="translate(-778.03 -323.68)"/><path class="cls-14" d="M940.37,551.93c4.66-2.93,7.73-.55,11.4,1.69" transform="translate(-778.03 -323.68)"/><path class="cls-12" d="M951.77,553.62s-.61-.33-1.65-.78c-.51-.23-1.12-.5-1.8-.78a19.65,19.65,0,0,0-2.17-.76c-.39-.1-.77-.16-1.14-.22a10,10,0,0,0-1.08-.05c-.35,0-.68.06-1,.08s-.6.11-.87.18a8,8,0,0,0-1.25.43l-.44.21a3.89,3.89,0,0,0,.41-.27,12.88,12.88,0,0,1,1.13-.75c.25-.13.54-.27.86-.41a7.53,7.53,0,0,1,1.07-.3,6.25,6.25,0,0,1,1.25-.11,6.81,6.81,0,0,1,1.32.2,8.38,8.38,0,0,1,2.3,1,19.14,19.14,0,0,1,1.62,1.19c.44.35.79.65,1,.84S951.77,553.62,951.77,553.62Z" transform="translate(-778.03 -323.68)"/><path class="cls-12" d="M939.36,543.12l-1,0-2.66.2a1.6,1.6,0,0,1-.49,0,.73.73,0,0,1-.51-.41,4.3,4.3,0,0,1-.18-1c-.07-.66-.13-1.37-.17-2.11-.1-1.49-.14-3.14-.1-4.86a56.31,56.31,0,0,1,1-8.76,14.54,14.54,0,0,1,.73-2.59c.24-.58.41-.89.41-.89a4.75,4.75,0,0,0-.34.92,13,13,0,0,0-.39,2.61c-.14,2.24-.24,5.33-.34,8.74,0,1.7-.08,3.33-.11,4.81q0,1.11,0,2.1a4.55,4.55,0,0,0,0,.86c0,.16.21.2.51.21l2.67.13Z" transform="translate(-778.03 -323.68)"/><path class="cls-12" d="M939.71,543.25a8.49,8.49,0,0,0-.05-1.26,21.6,21.6,0,0,1-.07-3,21.37,21.37,0,0,1,.39-3,9.58,9.58,0,0,0,.19-1.24,2,2,0,0,0,0,.33c0,.22.1.53.18.91a12.71,12.71,0,0,1,.24,3,12.86,12.86,0,0,1-.56,3c-.12.38-.22.68-.28.89A3.34,3.34,0,0,0,939.71,543.25Z" transform="translate(-778.03 -323.68)"/><path class="cls-11" d="M937.36,544" transform="translate(-778.03 -323.68)"/><path class="cls-12" d="M960.54,597.88,959.31,596c-.38-.63-.85-1.41-1.31-2.36a19.69,19.69,0,0,1-1.22-3.36,21.71,21.71,0,0,0-1.44-4,31,31,0,0,0-2.53-4.18c-1-1.43-2.08-2.89-3.12-4.52a21.43,21.43,0,0,1-2.57-5.41c-.57-2-.9-3.9-1.4-5.72s-1-3.55-1.59-5.19a66,66,0,0,0-3.65-8.46c-.6-1.17-1.21-2.2-1.67-3.15a9.69,9.69,0,0,1-.88-2.55,5.15,5.15,0,0,1,0-1.7,5.3,5.3,0,0,1,.13-.57,4.34,4.34,0,0,0-.12.58A4.84,4.84,0,0,0,938,547a9.78,9.78,0,0,0,1,2.46c.5.92,1.17,1.91,1.84,3a58.53,58.53,0,0,1,4.08,8.37c.64,1.63,1.24,3.38,1.76,5.22s.9,3.8,1.44,5.68a21.61,21.61,0,0,0,2.42,5.19c1,1.6,2,3.09,3,4.57a28.16,28.16,0,0,1,2.41,4.39,22.14,22.14,0,0,1,1.26,4.17,18.88,18.88,0,0,0,1,3.38,22.76,22.76,0,0,0,1.18,2.41C960.1,597.2,960.54,597.88,960.54,597.88Z" transform="translate(-778.03 -323.68)"/><path class="cls-12" d="M994.63,596.67a.9.9,0,0,0-.25-.25,1.72,1.72,0,0,0-1-.13l-1.62.13c-.63,0-1.35.06-2.15,0a47.62,47.62,0,0,1-5.57-.47c-2.08-.26-4.35-.63-6.72-.85a31.64,31.64,0,0,0-3.46-.15,20.27,20.27,0,0,0-3.19.27,19.51,19.51,0,0,0-2.85.67l-2.46.78a26.15,26.15,0,0,1-3.64.95c-.22,0-.43.07-.52.21s0,.33.11.33a.17.17,0,0,0,.14-.18c0-.06-.06-.06-.05-.07s0,0,.06.07a.18.18,0,0,1-.15.19c-.14,0-.22-.2-.14-.36s.32-.21.53-.26a23.28,23.28,0,0,0,3.52-1.26c.73-.31,1.52-.65,2.4-1a17.09,17.09,0,0,1,2.88-.9,18.59,18.59,0,0,1,3.33-.43,24,24,0,0,1,3.58.1c2.44.23,4.71.67,6.77,1.06s3.89.73,5.46.89c.78.11,1.5.13,2.12.18h1.61a1.85,1.85,0,0,1,1,.2A1,1,0,0,1,994.63,596.67Z" transform="translate(-778.03 -323.68)"/><path class="cls-12" d="M993.37,596.28l2.89.43.73.1c.14,0,.29.08.27,0l0-.39c0-.57.07-1.19.11-1.86.07-1.33.14-2.84.12-4.52a36.58,36.58,0,0,0-.4-5.43c-.15-1-.38-2-.57-3-.1-.52-.2-1-.3-1.58s-.14-1.1-.18-1.66c-.14-2.26,0-4.59.09-7s.21-4.91.32-7.47c.21-5.11.31-10,.14-14.39a95.82,95.82,0,0,0-1.19-11.7,54.23,54.23,0,0,1-.75-7.92c0-.94,0-1.67.07-2.16s0-.71.06-.76l0,.76c0,.49,0,1.22,0,2.16a54,54,0,0,0,1.08,7.86,84.78,84.78,0,0,1,1.63,11.71,133.8,133.8,0,0,1,.06,14.49c-.12,2.56-.25,5.06-.37,7.47s-.31,4.74-.24,6.92a20.93,20.93,0,0,0,.38,3.18c.16,1,.34,2,.46,3a35.21,35.21,0,0,1,.18,5.53c-.06,1.68-.19,3.2-.32,4.53-.06.66-.12,1.28-.18,1.85l0,.45c0,.14-.1.08-.19.07l-.2,0-.73-.13Z" transform="translate(-778.03 -323.68)"/><path class="cls-12" d="M996.31,592.78a13.94,13.94,0,0,0-1.45-.2c-.93-.11-2.29-.19-4-.25a46.8,46.8,0,0,1-5.94-.5,21.8,21.8,0,0,1-3.44-.89A17,17,0,0,0,978,590a17.8,17.8,0,0,0-7,.72,55.79,55.79,0,0,0-5.53,2l-3.7,1.51-1.35.57,1.32-.64,3.56-1.81a43.62,43.62,0,0,1,5.44-2.43,16.6,16.6,0,0,1,7.34-1,15.74,15.74,0,0,1,3.72,1,25.26,25.26,0,0,0,3.28,1c2.14.49,4.14.7,5.81.92s3,.41,4,.58Z" transform="translate(-778.03 -323.68)"/><path class="cls-12" d="M974.67,516.12s0-.15.07-.44.09-.7.18-1.21a11.08,11.08,0,0,1,1.41-3.82,5,5,0,0,1,.75-1,3.4,3.4,0,0,1,1-.67c.67-.28,1.23-.44,1.73-.61,1-.29,1.57-.53,1.57-.53s-.55.31-1.4.9l-1.49,1a4.25,4.25,0,0,0-1.26,1.46c-.77,1.29-1.46,2.49-1.91,3.41A8.91,8.91,0,0,0,974.67,516.12Z" transform="translate(-778.03 -323.68)"/><path class="cls-12" d="M982.6,525.22s-.17.08-.49.19a4.08,4.08,0,0,1-1.45.2,3.65,3.65,0,0,1-2.11-.8,6.37,6.37,0,0,1-1.67-2.17,20.32,20.32,0,0,1-1.65-4.43c-.14-.6-.22-1.08-.28-1.42s-.1-.51-.1-.51a9,9,0,0,0,.76,1.79c.27.53.61,1.15,1,1.84s.8,1.46,1.2,2.26a9.26,9.26,0,0,0,1.3,2,3.54,3.54,0,0,0,1.62,1,3.17,3.17,0,0,0,1.37.13A1.79,1.79,0,0,0,982.6,525.22Z" transform="translate(-778.03 -323.68)"/><path class="cls-12" d="M988.16,526.55s-.32.13-.92.31a6.57,6.57,0,0,1-1.13.23,4.14,4.14,0,0,1-1.56-.14A3.06,3.06,0,0,1,983,525.8c-.42-.55-.79-1.12-1.21-1.74-.82-1.24-1.73-2.55-2.59-4.08a12.34,12.34,0,0,1-1.06-2.32c-.27-.78-.5-1.48-.7-2.25a3.54,3.54,0,0,1,.25-2.28,14,14,0,0,1,.92-1.62c.6-.94,1.08-1.71,1.41-2.25s.51-.82.51-.82-.65,1.22-1.56,3.26a14.3,14.3,0,0,0-.69,1.66,2.8,2.8,0,0,0,0,1.83c.22.64.52,1.4.81,2.12a14,14,0,0,0,1.05,2.18c.81,1.43,1.68,2.84,2.39,4.13l1,1.82a2.55,2.55,0,0,0,1.2,1.13,4.33,4.33,0,0,0,2.52.22A5.47,5.47,0,0,0,988.16,526.55Z" transform="translate(-778.03 -323.68)"/><path class="cls-12" d="M987.82,507.34a2.19,2.19,0,0,0-.27.11c-.18.06-.45.16-.79.26a8.54,8.54,0,0,1-2.65.14,7.58,7.58,0,0,0-2.42,0,2.64,2.64,0,0,0-.72.3.46.46,0,0,0-.16.13.09.09,0,0,0,0,.08.11.11,0,0,1,0-.08.51.51,0,0,1,.12-.18,5,5,0,0,1,.58-.61,3.48,3.48,0,0,1,1.14-.59,4.59,4.59,0,0,1,1.54-.15,20.74,20.74,0,0,1,2.56.5,3.07,3.07,0,0,0,.79.07Z" transform="translate(-778.03 -323.68)"/><path class="cls-12" d="M993.57,523.64s0,.42-.16,1.19a5.35,5.35,0,0,1-.41,1.36,3,3,0,0,1-1.33,1.39,2.54,2.54,0,0,1-2.39-.22,6.4,6.4,0,0,1-1.88-2,10.92,10.92,0,0,0-1.8-2.07,19.87,19.87,0,0,1-2.23-2.19,17.16,17.16,0,0,1-2.58-5.48,6.17,6.17,0,0,1-.32-1.38,2.48,2.48,0,0,1,.25-1.4c.44-.77.89-1.32,1.28-1.9.8-1.12,1.42-2.05,1.92-2.65a6.19,6.19,0,0,1,.84-.85,4.19,4.19,0,0,0-.78.9c-.44.62-1,1.61-1.63,2.82-.32.59-.75,1.27-1.05,1.94a2.88,2.88,0,0,0,.28,2.23,20.05,20.05,0,0,0,2.6,5.11,24.78,24.78,0,0,0,2.1,2.13,10.31,10.31,0,0,1,1.82,2.33,5.85,5.85,0,0,0,1.52,1.88,2,2,0,0,0,1.89.39,2.75,2.75,0,0,0,1.31-1.12,5.14,5.14,0,0,0,.52-1.28A10.79,10.79,0,0,0,993.57,523.64Z" transform="translate(-778.03 -323.68)"/><path class="cls-12" d="M988.68,508.06a1.1,1.1,0,0,1,.36-.43,2.88,2.88,0,0,1,.59-.34,3.81,3.81,0,0,1,.87-.31,1.55,1.55,0,0,1,1.18.23,2.57,2.57,0,0,1,1.06.91,1.42,1.42,0,0,1-.22,1.83,7.82,7.82,0,0,1-1.49.61c-.43.15-.85.28-1.26.4a5.2,5.2,0,0,1-1.35.3,1.09,1.09,0,0,1-.83-.4,1.39,1.39,0,0,1-.25-.69,2.88,2.88,0,0,1,.08-1.11,3,3,0,0,1,.84-1.37,2.94,2.94,0,0,1,.6-.45l0,0,0,0-.14.14.14-.15h0a2.34,2.34,0,0,0-.5.53,2.6,2.6,0,0,0-.46,1.36,2.72,2.72,0,0,0,.11.89.6.6,0,0,0,.18.32.25.25,0,0,0,.22,0,7.22,7.22,0,0,0,1-.36c.41-.16.82-.3,1.25-.45l1.22-.41c.12,0,.21-.38.09-.64a2.19,2.19,0,0,0-.65-.78,1.13,1.13,0,0,0-.82-.35,3.41,3.41,0,0,0-1.45.3A.85.85,0,0,0,988.68,508.06Z" transform="translate(-778.03 -323.68)"/><path class="cls-12" d="M999.29,509.48a10.62,10.62,0,0,0-1.54.39,10.11,10.11,0,0,0-1.54.62,5,5,0,0,0-.78.48,5.57,5.57,0,0,1-1,.63,2.62,2.62,0,0,1-1.29.19,7.35,7.35,0,0,1-1-.16l-1.68-.4a15.8,15.8,0,0,0-1.55-.37s.61,0,1.59,0c.5,0,1.08,0,1.73,0a4.79,4.79,0,0,0,1.82-.14c.24-.11.52-.32.86-.52a4.64,4.64,0,0,1,1-.43,7.3,7.3,0,0,1,1.78-.23c.5,0,.9,0,1.17,0A2.85,2.85,0,0,0,999.29,509.48Z" transform="translate(-778.03 -323.68)"/><path class="cls-12" d="M994.69,504.22l-.18.17-.53.41a8.44,8.44,0,0,1-1.82,1.14,7.84,7.84,0,0,1-2.07.54,5.91,5.91,0,0,0-.89.17,5.54,5.54,0,0,0,.72-.54,8.43,8.43,0,0,1,1.83-1.14,8.17,8.17,0,0,1,2.08-.55,4.77,4.77,0,0,0,.65-.1A.6.6,0,0,0,994.69,504.22Z" transform="translate(-778.03 -323.68)"/><path class="cls-12" d="M1000.19,510.32a2.75,2.75,0,0,0,.2-.53,5.36,5.36,0,0,0,.21-1.5,6.62,6.62,0,0,0-.32-2.14,3.17,3.17,0,0,0-1.39-1.9,7.37,7.37,0,0,0-2.41-.87,8,8,0,0,0-2.18-.13,6.1,6.1,0,0,0-1.49.29,3.13,3.13,0,0,0-.53.21l.5-.28a9.08,9.08,0,0,1,1.44-.61,7.17,7.17,0,0,1,2.36-.32,6.1,6.1,0,0,1,2.87.82,3.6,3.6,0,0,1,1.17,1.19,4,4,0,0,1,.47,1.41,6,6,0,0,1-.09,2.39,7.28,7.28,0,0,1-.54,1.47Z" transform="translate(-778.03 -323.68)"/><path class="cls-12" d="M999.49,517.3c0,.09.07.46.18,1.22a10.14,10.14,0,0,1,0,3.37,5.2,5.2,0,0,1-1,2.21,3.37,3.37,0,0,1-1.07.93,2,2,0,0,1-1.63.15,8.15,8.15,0,0,1-1.31-.74,8.77,8.77,0,0,0-1.3-.54,9,9,0,0,1-1.5-.64,11.11,11.11,0,0,1-1.37-1,28,28,0,0,0-2.41-1.9,6.05,6.05,0,0,0-1.26-.59,3.13,3.13,0,0,1-.75-.35,1.92,1.92,0,0,1-.61-.66,5.4,5.4,0,0,1-.32-2.81c0-.83.09-1.6.13-2.31a9.87,9.87,0,0,1,.21-1.91,3.05,3.05,0,0,1,.72-1.27,7.54,7.54,0,0,1,.64-.64l.23-.22-.22.22a7,7,0,0,0-.6.68,2.92,2.92,0,0,0-.56,1.27,9.72,9.72,0,0,0,0,1.88c0,.7.06,1.47.09,2.3a5.22,5.22,0,0,0,.41,2.38,1.5,1.5,0,0,0,.93.57,5.65,5.65,0,0,1,1.47.61,21.82,21.82,0,0,1,2.57,1.93,7.88,7.88,0,0,0,2.56,1.48,8.43,8.43,0,0,1,1.43.68,9.25,9.25,0,0,0,1.13.74c.62.3,1.41-.15,1.91-.7a4.85,4.85,0,0,0,1-1.9,9.6,9.6,0,0,0,.29-3.27C999.55,517.74,999.49,517.3,999.49,517.3Z" transform="translate(-778.03 -323.68)"/><path class="cls-12" d="M998.52,517.42l-.4.11a4.72,4.72,0,0,1-1.17.13,4.8,4.8,0,0,1-1.73-.38,6.36,6.36,0,0,1-1.81-1.19,12.15,12.15,0,0,1-1.39-1.57,7.91,7.91,0,0,1-.91-1.48,4,4,0,0,1-.31-1.13c0-.27,0-.42,0-.42a1.64,1.64,0,0,0,.1.4,3.19,3.19,0,0,0,.58.94,13.44,13.44,0,0,0,1.19,1.12c.47.42,1,.89,1.48,1.37a13.83,13.83,0,0,0,1.49,1.22,5.71,5.71,0,0,0,1.41.72,3.2,3.2,0,0,0,1.09.2A1.75,1.75,0,0,0,998.52,517.42Z" transform="translate(-778.03 -323.68)"/><path class="cls-12" d="M1004.84,510.77a2.51,2.51,0,0,0-1-.25c-.61-.08-1.42,0-2.34-.1a11.13,11.13,0,0,1-2.4-.37,8.18,8.18,0,0,0-1-.22,7.08,7.08,0,0,0,1-.18,9.35,9.35,0,0,1,2.46-.27,4.78,4.78,0,0,1,2.42.76,7.15,7.15,0,0,1,.62.46A1.61,1.61,0,0,0,1004.84,510.77Z" transform="translate(-778.03 -323.68)"/><path class="cls-12" d="M1006.3,516.93a12.74,12.74,0,0,0-1.37.21,25.11,25.11,0,0,1-3.28.41,23.91,23.91,0,0,1-3.31-.09,11.68,11.68,0,0,0-1.38-.06l.36-.08c.23-.05.57-.15,1-.26a15.65,15.65,0,0,1,3.3-.55,14.8,14.8,0,0,1,3.33.22c.42.07.77.14,1,.16A2.52,2.52,0,0,0,1006.3,516.93Z" transform="translate(-778.03 -323.68)"/><path class="cls-12" d="M1001.5,510s.06-.06,0-.08a.18.18,0,0,0-.14,0,.13.13,0,0,0,0,.17.86.86,0,0,0,.55.09h.78c.58,0,1.29-.05,2.12-.11l2.82-.19,7.33-.47,4.32-.23,4.66-.31a40.67,40.67,0,0,1,4.68,0c1.52,0,3,.08,4.35.17l7.33.46,5,.33,1.81.09-1.81,0h-5l-7.35,0c-1.38,0-2.83,0-4.33,0s-3-.08-4.63.07l-4.63.26-4.35.08-7.36,0h-2.82c-.83,0-1.55,0-2.13,0l-.78,0a.9.9,0,0,1-.55-.11c-.06-.05-.09-.13,0-.18s.1,0,.14,0S1001.5,510,1001.5,510Z" transform="translate(-778.03 -323.68)"/><path class="cls-12" d="M1048.37,516.75s-.62.06-1.74.1-2.74,0-4.74-.1-4.37-.35-7-.36a84.83,84.83,0,0,0-8.52.49c-3,.28-5.93.57-8.58.67a62.53,62.53,0,0,1-7-.15c-2-.14-3.61-.3-4.72-.4l-1.73-.15s2.47.14,6.46.15c2,0,4.37-.06,7-.29s5.49-.59,8.53-.87a58.35,58.35,0,0,1,8.64-.29c2.67.13,5,.54,7,.79a42.91,42.91,0,0,0,4.7.43C1047.75,516.8,1048.37,516.75,1048.37,516.75Z" transform="translate(-778.03 -323.68)"/><path class="cls-12" d="M968.83,612.74a2.79,2.79,0,0,0-.44-.5,6.86,6.86,0,0,0-1.5-1,10,10,0,0,1-2.34-1.52,8.35,8.35,0,0,1-1.78-3,22.49,22.49,0,0,1-.91-3.23c-.21-1-.38-1.9-.52-2.66s-.26-1.36-.34-1.79a.63.63,0,0,1,0-.3c0-.08.11-.15.16-.09s0,.15,0,.13a0,0,0,0,0,0,0,.11.11,0,0,0,0-.11c0-.05-.12,0-.12.09a.78.78,0,0,0,.06.27c.16.4.38,1,.66,1.7s.6,1.58.94,2.54.68,2,1.08,3.09a10.57,10.57,0,0,0,1.42,2.77,11.89,11.89,0,0,0,1.94,1.75,8.29,8.29,0,0,1,1.33,1.28A5.52,5.52,0,0,1,968.83,612.74Z" transform="translate(-778.03 -323.68)"/><path class="cls-12" d="M979.28,638.49s-.86-1.83-2.51-4.62c-.41-.7-.88-1.45-1.42-2.23s-1.16-1.57-1.82-2.43a15.9,15.9,0,0,1-1.84-2.93,25,25,0,0,1-1.05-3.52,12.31,12.31,0,0,0-1.69-3,10.35,10.35,0,0,1-1.59-3.12,9.1,9.1,0,0,1-.27-3.15,23.39,23.39,0,0,1,.37-2.66c.3-1.6.55-2.89.72-3.79s.22-1.3.24-1.39c0,.09-.06.52-.17,1.4s-.22,2.22-.39,3.83a13.68,13.68,0,0,0,.3,5.52,10.51,10.51,0,0,0,1.61,2.79,11.82,11.82,0,0,1,1.86,3.26,30.22,30.22,0,0,0,1,3.44,17.56,17.56,0,0,0,1.62,2.84c.59.88,1.18,1.74,1.66,2.58s.9,1.64,1.25,2.37c.71,1.47,1.22,2.69,1.58,3.53S979.24,638.41,979.28,638.49Z" transform="translate(-778.03 -323.68)"/><path class="cls-12" d="M999.49,621.92l-.76-.71a19.37,19.37,0,0,1-1.92-2.11,19.72,19.72,0,0,1-2.26-3.62,23.1,23.1,0,0,1-1.71-4.94,35,35,0,0,1-.66-9.4c.07-1.19.12-2.16.16-2.83s0-.95,0-1,0,1.48.19,3.87a66.2,66.2,0,0,0,1.28,9.17,34.16,34.16,0,0,0,1.46,4.84,24.38,24.38,0,0,0,1.82,3.72,17.16,17.16,0,0,0,1.65,2.29C999.22,621.66,999.49,621.92,999.49,621.92Z" transform="translate(-778.03 -323.68)"/><path class="cls-12" d="M1006.82,658c0-.09,0-.58.11-1.59s.14-2.5.24-4.32a44.37,44.37,0,0,0-.07-6.37,25.45,25.45,0,0,0-2-7.44c-1-2.55-2.24-4.93-3.19-7.16-.49-1.12-.91-2.2-1.27-3.22s-.63-2-.91-2.86a20.46,20.46,0,0,0-1.63-4,8.2,8.2,0,0,0-.89-1.31l.26.32a11.14,11.14,0,0,1,.69,1,21.61,21.61,0,0,1,1.95,3.89c.34.85.72,1.77,1.12,2.77s.91,2,1.44,3.09c1.06,2.16,2.33,4.51,3.4,7.13a22.66,22.66,0,0,1,1.83,7.77,38.09,38.09,0,0,1-.36,6.46c-.24,1.82-.44,3.28-.57,4.3Z" transform="translate(-778.03 -323.68)"/><path class="cls-12" d="M1003.7,715.52l-.21-.56c-.14-.37-.32-.93-.55-1.64a35.92,35.92,0,0,1-1.3-6.24,48.52,48.52,0,0,1-.16-9.47,114,114,0,0,1,1.54-11.48c1.44-8,2.51-15.37,3.14-20.7s.86-8.64.86-8.64,0,.84-.11,2.33-.16,3.67-.34,6.35-.44,5.87-.84,9.4-1,7.41-1.68,11.44-1.37,7.87-1.73,11.38a53.31,53.31,0,0,0-.27,9.35,33.34,33.34,0,0,0,1,6.26c.19.72.35,1.28.48,1.65S1003.68,715.48,1003.7,715.52Z" transform="translate(-778.03 -323.68)"/><path class="cls-12" d="M985.3,673c0-.09-.09-.52-.23-1.4s-.39-2.21-.68-3.83c-.59-3.22-1.35-7.69-2-12.63s-1.37-9.38-2.12-12.57a52.14,52.14,0,0,0-1.4-5.1c0,.08.18.49.5,1.33s.78,2.1,1.29,3.66,1,3.45,1.52,5.58.9,4.48,1.25,6.95c.69,5,1.1,9.46,1.4,12.73.14,1.63.26,3,.35,3.87S985.29,672.94,985.3,673Z" transform="translate(-778.03 -323.68)"/><path class="cls-12" d="M985.3,684.35s-.08-.63-.35-1.75a39.8,39.8,0,0,0-1.42-4.63c-.7-1.92-1.65-4.16-2.66-6.69a66.16,66.16,0,0,1-2.77-8.43,40.88,40.88,0,0,1-1.27-8.81,34.68,34.68,0,0,1,.56-7.23,46,46,0,0,0,.66-4.81,14.22,14.22,0,0,0,0-1.78s.06.63.06,1.78-.13,2.82-.34,4.86a38.48,38.48,0,0,0-.12,7.14,51.11,51.11,0,0,0,1.44,8.6c.75,3,1.67,5.83,2.55,8.39s1.69,4.87,2.25,6.85a44.56,44.56,0,0,1,1.12,4.75c.09.56.16,1,.2,1.3Z" transform="translate(-778.03 -323.68)"/><path class="cls-12" d="M985.24,714.36l.06-1.24c0-.81.08-2,.18-3.41,0-.72.12-1.51.23-2.35s.27-1.75.43-2.68a19.1,19.1,0,0,0,.3-2.87,23.23,23.23,0,0,0-.29-3.11c-.61-4.34-1-8.29-1.23-11.15-.13-1.43-.24-2.59-.31-3.39s-.12-1.15-.13-1.24c0,.09.07.46.2,1.23s.37,1.93.64,3.34c.54,2.82,1.27,6.73,1.87,11.08a18.76,18.76,0,0,1,.24,3.26,15.52,15.52,0,0,1-.47,3c-.22.93-.45,1.8-.63,2.62s-.32,1.58-.45,2.29C985.4,712.59,985.24,714.36,985.24,714.36Z" transform="translate(-778.03 -323.68)"/><path class="cls-12" d="M995.12,718.71a11.56,11.56,0,0,0-1-2,6.87,6.87,0,0,0-1.48-1.79,5,5,0,0,0-2.48-1,7.47,7.47,0,0,0-4.92,1,5.87,5.87,0,0,0-1.26,1,4.06,4.06,0,0,0-.38.48s.11-.19.32-.52a7.07,7.07,0,0,1,1.07-1.31,6.65,6.65,0,0,1,2.15-1.38,6.37,6.37,0,0,1,3.18-.38,4.91,4.91,0,0,1,2.9,1.45,6.19,6.19,0,0,1,1.27,2.23c.23.68.36,1.23.46,1.61S995.12,718.71,995.12,718.71Z" transform="translate(-778.03 -323.68)"/><path class="cls-12" d="M992.83,720.31a1.21,1.21,0,0,0-.18-.32,2.28,2.28,0,0,0-.76-.6,15.59,15.59,0,0,0-3-1.06l-3.11-.89a12.3,12.3,0,0,0-1.34-.34h.37c.24,0,.59,0,1-.06a9.87,9.87,0,0,1,3.36.28,6.32,6.32,0,0,1,2.94,1.76,3.26,3.26,0,0,1,.56.88A2.55,2.55,0,0,1,992.83,720.31Z" transform="translate(-778.03 -323.68)"/><path class="cls-12" d="M981.16,721.32l.39-.21c.25-.14.62-.34,1.1-.56a9.57,9.57,0,0,1,4-.8,14.16,14.16,0,0,1,4,.69l1.17.36.43.11s-.63-.07-1.66-.07l-3.93-.05a29.39,29.39,0,0,0-3.88.15A6.12,6.12,0,0,0,981.16,721.32Z" transform="translate(-778.03 -323.68)"/><path class="cls-12" d="M991,725.63a1.48,1.48,0,0,0-.25-.27,3.38,3.38,0,0,0-.87-.54,24.46,24.46,0,0,1-3-1.58,21.29,21.29,0,0,1-2.69-2.11c-.65-.61-1.08-.94-1.08-.94a14.06,14.06,0,0,0,1.29.6,18.59,18.59,0,0,1,3,1.57,17.28,17.28,0,0,1,2.7,2.13,5.44,5.44,0,0,1,.68.82Z" transform="translate(-778.03 -323.68)"/><path class="cls-12" d="M979.68,727.16l.33-.32c.21-.2.51-.5.92-.85a11.36,11.36,0,0,1,3.59-2.1,16.69,16.69,0,0,1,4.05-.85l1.24-.13a3.57,3.57,0,0,0,.45-.07,16.63,16.63,0,0,0-1.6.59c-1,.39-2.31.92-3.78,1.44s-2.79,1-3.73,1.46A7.05,7.05,0,0,0,979.68,727.16Z" transform="translate(-778.03 -323.68)"/><path class="cls-12" d="M989.2,730.77l-.38-.2c-.25-.12-.61-.3-1.06-.54a13,13,0,0,1-3.12-2.38,20.35,20.35,0,0,1-2.38-3.09c-.54-.85-.92-1.33-.92-1.33s.44.43,1.22,1.06a34,34,0,0,1,2.83,2.63c1,1.07,1.92,2.08,2.62,2.79A7.81,7.81,0,0,0,989.2,730.77Z" transform="translate(-778.03 -323.68)"/><path class="cls-12" d="M977.85,728.68a12.57,12.57,0,0,0,1.5-.31,33.14,33.14,0,0,1,3.6-.73c1.41-.21,2.71-.27,3.65-.32a13.9,13.9,0,0,0,1.53-.12,3.39,3.39,0,0,0-.39.12l-1.06.4a16,16,0,0,1-7.29,1l-1.13-.08A3.18,3.18,0,0,0,977.85,728.68Z" transform="translate(-778.03 -323.68)"/><path class="cls-12" d="M986.54,733.19l-.33-.08-.91-.16a12,12,0,0,1-2.92-.88,12.71,12.71,0,0,1-2.58-1.64l-.72-.59a3.28,3.28,0,0,0-.27-.19,9.11,9.11,0,0,0,1.19.42,25.27,25.27,0,0,1,2.81,1,22.51,22.51,0,0,1,2.63,1.46A8.24,8.24,0,0,0,986.54,733.19Z" transform="translate(-778.03 -323.68)"/><path class="cls-12" d="M960.24,749.76l0-.42a8.53,8.53,0,0,1,0-1.21,8.91,8.91,0,0,1,1.46-4.21,7.35,7.35,0,0,1,1-1.17l1.19-1.08,2.58-2.39c1.8-1.7,3.82-3.55,5.93-5.45a11.88,11.88,0,0,0,1.38-1.48c.4-.52.74-1.1,1.12-1.68a39.1,39.1,0,0,1,2.35-3.15,41.84,41.84,0,0,0,3.88-5.26,17.61,17.61,0,0,0,1.64-4.08,10.72,10.72,0,0,1,.59-1.52,7.58,7.58,0,0,0-.52,1.54,18.6,18.6,0,0,1-1.35,4.25,34.52,34.52,0,0,1-3.58,5.58c-.72,1-1.48,2.05-2.17,3.17-.35.57-.7,1.17-1.13,1.77a11.57,11.57,0,0,1-1.5,1.62c-2.14,1.93-4.19,3.71-6.08,5.32-.94.8-1.88,1.56-2.73,2.24l-1.24,1a7.36,7.36,0,0,0-1,1,8.47,8.47,0,0,0-1.72,4,7.39,7.39,0,0,0-.08,1.2Z" transform="translate(-778.03 -323.68)"/><path class="cls-12" d="M1010.23,732.66l-.22.55c-.15.37-.37.91-.7,1.58a8.28,8.28,0,0,1-1.57,2.26,5.45,5.45,0,0,1-1.44,1c-.56.26-1.18.45-1.79.69a9.21,9.21,0,0,0-3.47,2.42,11.76,11.76,0,0,0-1.36,2,6.53,6.53,0,0,1-1.79,2c-1.52,1-3.11,1.93-4.81,2.88s-3.48,1.85-5.36,2.72a17.5,17.5,0,0,1-5.87,1.68,18.67,18.67,0,0,1-5.66-.47c-1.76-.39-3.37-.91-4.87-1.39s-2.9-.92-4.18-1.28a29.13,29.13,0,0,0-3.53-.74,10.67,10.67,0,0,0-2.7-.11,1.3,1.3,0,0,0-1.14,1.1.79.79,0,0,0,.14.57.82.82,0,0,1-.15-.57,1.35,1.35,0,0,1,1.14-1.17,10.73,10.73,0,0,1,2.74,0,25.85,25.85,0,0,1,3.59.55c1.32.28,2.74.66,4.27,1.07s3.14.84,4.86,1.16a18.52,18.52,0,0,0,5.39.31,17.06,17.06,0,0,0,5.54-1.65c1.83-.84,3.62-1.74,5.32-2.63s3.36-1.79,4.79-2.7a5.7,5.7,0,0,0,1.66-1.76,11.5,11.5,0,0,1,1.52-2,9.69,9.69,0,0,1,3.79-2.37c.65-.21,1.26-.36,1.81-.58a4.71,4.71,0,0,0,1.41-.86,7.88,7.88,0,0,0,1.65-2.13c.36-.66.6-1.19.76-1.55Z" transform="translate(-778.03 -323.68)"/><path class="cls-12" d="M1004.61,721.31s-.74-.29-2-.67a23,23,0,0,0-4.71-1.16,8.09,8.09,0,0,0-2.54.14,5.5,5.5,0,0,0-1.92.88,4.93,4.93,0,0,0-.62.55l-.12.16s-.11.15,0,.08l.3-.22-.5.39c-.14.14,0,0,0-.12s.12-.25.19-.4a4.39,4.39,0,0,1,.52-.74,5.12,5.12,0,0,1,1.93-1.37,6.16,6.16,0,0,1,2.9-.39,11.42,11.42,0,0,1,4.78,1.83c.56.33,1,.61,1.31.78S1004.61,721.31,1004.61,721.31Z" transform="translate(-778.03 -323.68)"/><path class="cls-12" d="M1003,719.7a6,6,0,0,0-.22-1,11.82,11.82,0,0,1-.46-2.33,19.27,19.27,0,0,1,.11-3.12v-.11l.06.08a1.31,1.31,0,0,0,.15.2l-.2-.15.06,0a10.46,10.46,0,0,1,.87,3,8,8,0,0,1-.18,2.41c-.06.31-.12.55-.15.72A1.73,1.73,0,0,0,1003,719.7Z" transform="translate(-778.03 -323.68)"/><path class="cls-12" d="M1008.68,730.77a2.93,2.93,0,0,1-.45-.63,5.41,5.41,0,0,1-.59-2,17.78,17.78,0,0,0-.39-3,9.42,9.42,0,0,0-.72-1.58c-.3-.57-.59-1.18-.85-1.81a22.06,22.06,0,0,1-1.14-3.69,25.72,25.72,0,0,1-.45-3.1,2.22,2.22,0,0,0-.32-1.07,1.18,1.18,0,0,0-.68-.48.73.73,0,0,0-.71.15.83.83,0,0,1,.72-.22,1.3,1.3,0,0,1,.83.42,2.69,2.69,0,0,1,.56,1.12c.23.87.5,1.86.86,3s.8,2.29,1.3,3.51c.25.61.51,1.2.77,1.78a8.14,8.14,0,0,1,.65,1.81,13.21,13.21,0,0,1,0,3.18,4.91,4.91,0,0,0,.26,2A2.3,2.3,0,0,0,1008.68,730.77Z" transform="translate(-778.03 -323.68)"/><path class="cls-12" d="M1010,733.54a2.37,2.37,0,0,0-.42-.37,2.83,2.83,0,0,1-.86-.94,3,3,0,0,1-.29-1.25,2,2,0,0,0-.06-.55,2.15,2.15,0,0,0,.42.36,3.09,3.09,0,0,1,.86,1A3,3,0,0,1,1010,733,2.1,2.1,0,0,0,1010,733.54Z" transform="translate(-778.03 -323.68)"/><path class="cls-12" d="M1009.57,732.16a4.6,4.6,0,0,1,.65.25,5.29,5.29,0,0,1,1.63,1.16,5.2,5.2,0,0,1,1.42,2.84,2.14,2.14,0,0,1-.62,1.93,9,9,0,0,1-1.94,1.17c-1.35.71-2.29,2.16-3.67,3.44s-3.15,2.24-4.76,3.46a14.75,14.75,0,0,0-2.24,2.11,14.15,14.15,0,0,1-2.48,2.32,22.24,22.24,0,0,1-6.48,2.83,63.18,63.18,0,0,1-13.18,2.91,34.81,34.81,0,0,1-11-.94,15.54,15.54,0,0,1-4-1.34,6,6,0,0,1-2.34-2.15,4.35,4.35,0,0,1-.64-1.89,3.1,3.1,0,0,1,0-.7,2.86,2.86,0,0,0,0,.7,4.09,4.09,0,0,0,.7,1.85,5.73,5.73,0,0,0,2.37,2,14.92,14.92,0,0,0,4,1.13,35.72,35.72,0,0,0,10.81.5,71.75,71.75,0,0,0,12.95-3.07A22.41,22.41,0,0,0,997,750a14.05,14.05,0,0,0,2.36-2.14,14.92,14.92,0,0,1,2.42-2.16c1.73-1.22,3.48-2.09,4.84-3.25s2.41-2.63,3.9-3.34a8.87,8.87,0,0,0,1.92-1,1.84,1.84,0,0,0,.62-1.67,5.1,5.1,0,0,0-1.26-2.82,5.23,5.23,0,0,0-1.58-1.2A4.15,4.15,0,0,0,1009.57,732.16Z" transform="translate(-778.03 -323.68)"/><path class="cls-12" d="M1008,728.77l-.66,2.13c-.2.69-.46,1.53-.75,2.5A5.14,5.14,0,0,1,1006,735a3.84,3.84,0,0,1-1.52,1.13,12.39,12.39,0,0,0-3.43,2.24c-1.11,1-2.18,2.17-3.38,3.39a16.86,16.86,0,0,1-4.31,3.3,31.67,31.67,0,0,1-5.43,2,21.11,21.11,0,0,1-2.87.71,9.18,9.18,0,0,1-3,0,17.47,17.47,0,0,1-5.08-1.93c-1.5-.79-2.89-1.57-4.26-2.13a23.39,23.39,0,0,0-4-1.24,22.21,22.21,0,0,0-3.4-.47,4.41,4.41,0,0,0-2.51.38,1.92,1.92,0,0,0-1,1.27,1.2,1.2,0,0,0,0,.57,1.3,1.3,0,0,1,0-.58,2,2,0,0,1,.92-1.33,4.6,4.6,0,0,1,2.56-.52,23.69,23.69,0,0,1,3.46.28,22.1,22.1,0,0,1,4.1,1,43,43,0,0,1,4.42,2,17.55,17.55,0,0,0,4.86,1.71,11.59,11.59,0,0,0,5.37-.72,34.13,34.13,0,0,0,5.28-1.89,16.39,16.39,0,0,0,4.17-3c1.23-1.15,2.36-2.31,3.56-3.27a12.83,12.83,0,0,1,3.67-2.12,3.58,3.58,0,0,0,1.45-.94,5.19,5.19,0,0,0,.65-1.44l.88-2.45C1007.74,729.54,1008,728.86,1008,728.77Z" transform="translate(-778.03 -323.68)"/><path class="cls-12" d="M915.12,638.46a15.12,15.12,0,0,1,0-1.79,16.43,16.43,0,0,1,.27-2.09,23.64,23.64,0,0,1,.73-2.7,12,12,0,0,0,.63-3.23,23.81,23.81,0,0,0-.17-3.8,32.27,32.27,0,0,0-.72-4.15c-.34-1.42-.79-2.87-1.27-4.36a37.16,37.16,0,0,1-2.07-8.7,14.87,14.87,0,0,1,.25-3.94c.24-1.2.54-2.28.66-3.29a15.13,15.13,0,0,0-.14-4.82,10.89,10.89,0,0,0-.44-1.73l.15.44c.09.28.23.71.37,1.27a16.46,16.46,0,0,1,.46,4.88c0,1-.28,2.17-.44,3.35a14.8,14.8,0,0,0,0,3.77,44.63,44.63,0,0,0,2.23,8.45c.48,1.5.92,3,1.24,4.46a28,28,0,0,1,.59,4.3,23.21,23.21,0,0,1,0,3.92,12.4,12.4,0,0,1-.88,3.31,23,23,0,0,0-.91,2.62,13.44,13.44,0,0,0-.41,2A11.74,11.74,0,0,0,915.12,638.46Z" transform="translate(-778.03 -323.68)"/><path class="cls-12" d="M918.66,663.78a33,33,0,0,0-.84-4.6c-.33-1.41-.78-3.07-1.25-4.93a59.82,59.82,0,0,1-1.28-6.13,57.31,57.31,0,0,1-.33-11.36c.09-1.44.16-2.61.21-3.42s.07-1.17.07-1.26,0,1.79.13,4.69.34,6.87,1,11.2c.31,2.16.72,4.22,1.07,6.1s.63,3.59.82,5,.3,2.61.36,3.42S918.66,663.69,918.66,663.78Z" transform="translate(-778.03 -323.68)"/><path class="cls-12" d="M918.12,698s.53-1.89,1.08-5a33.5,33.5,0,0,0,.55-5.46,22.5,22.5,0,0,0-.22-3.21l-.17-1.7c-.08-.58-.17-1.16-.25-1.76-.34-2.37-.67-4.65-.9-6.73s-.35-4-.4-5.56,0-2.86,0-3.75.06-1.27.07-1.37a35.05,35.05,0,0,0,.3,5.1c.34,3.13,1.22,7.38,1.93,12.16.08.6.15,1.2.23,1.78s.09,1.18.14,1.75a20.7,20.7,0,0,1,.08,3.32,28.83,28.83,0,0,1-1,5.52c-.42,1.53-.81,2.74-1.07,3.59S918.15,697.86,918.12,698Z" transform="translate(-778.03 -323.68)"/><path class="cls-12" d="M944.67,633.89c0-.09,0-.51,0-1.37,0-.44,0-1-.09-1.6s-.14-1.32-.25-2.1-.28-1.62-.48-2.52-.43-1.85-.68-2.86a58.12,58.12,0,0,1-1.37-6.68c-.17-1.2-.26-2.38-.31-3.53a11.33,11.33,0,0,1,.31-3.37,28.28,28.28,0,0,1,1-2.83c.31-.87.58-1.68.8-2.44a29.87,29.87,0,0,0,1.1-5l-.14,1.36c-.1.88-.25,2.15-.56,3.7-.16.78-.35,1.63-.6,2.53s-.54,1.84-.74,2.83a11.14,11.14,0,0,0-.14,3.13c.08,1.11.2,2.27.36,3.45.3,2.35.77,4.58,1.15,6.63a43.8,43.8,0,0,1,.75,5.52c0,.79,0,1.51,0,2.14s0,1.16,0,1.6C944.71,633.38,944.68,633.8,944.67,633.89Z" transform="translate(-778.03 -323.68)"/><path class="cls-12" d="M940.49,661.16l.09-.42a6.9,6.9,0,0,1,.35-1.18c.18-.5.45-1.11.77-1.79a22.74,22.74,0,0,0,1-2.36,48.35,48.35,0,0,0,1.44-6.51c.23-1.23.46-2.53.61-3.87a31.76,31.76,0,0,0,.19-4.18c0-2.87-.33-5.63-.54-8.14s-.46-4.76-.75-6.65a39.8,39.8,0,0,0-1.29-6l.51,1.58c.32,1,.76,2.51,1.18,4.38s.84,4.11,1.19,6.62a71.17,71.17,0,0,1,.75,8.23,27.66,27.66,0,0,1-.26,4.31c-.19,1.38-.47,2.69-.76,3.93a40.8,40.8,0,0,1-1.89,6.47,22.3,22.3,0,0,1-1.18,2.31,19.42,19.42,0,0,0-.89,1.73A6.43,6.43,0,0,0,940.49,661.16Z" transform="translate(-778.03 -323.68)"/><path class="cls-12" d="M939.13,699.75c0-.09-.09-.56-.25-1.51a39.29,39.29,0,0,1-.39-4.15c-.08-1.76,0-3.87.09-6.19s.35-4.86.47-7.51c.06-1.32.07-2.63.09-3.9s0-2.49.17-3.66c.26-2.33.69-4.38,1-6.11a31.74,31.74,0,0,0,.45-4.12,13.78,13.78,0,0,0,0-1.52l0,.39c0,.26,0,.64.06,1.13a33.6,33.6,0,0,1-.11,4.17c-.13,1.76-.4,3.84-.53,6.13-.08,1.14,0,2.36,0,3.62s0,2.56,0,3.91c-.11,2.7-.42,5.24-.67,7.54s-.45,4.37-.52,6.12a35,35,0,0,0,.06,4.15C939.05,699.21,939.13,699.75,939.13,699.75Z" transform="translate(-778.03 -323.68)"/><path class="cls-12" d="M930.26,659.36c0-.09-.13-.48-.35-1.28s-.54-2-.85-3.52a42.61,42.61,0,0,1-.79-12,19.3,19.3,0,0,1,.56-3.44,16.09,16.09,0,0,1,1.18-3,47.2,47.2,0,0,1,2.81-4.62c.85-1.27,1.53-2.3,2-3l.71-1.12c0,.08-.24.44-.65,1.16s-1,1.85-1.71,3.19-1.61,2.94-2.4,4.76a17.26,17.26,0,0,0-1,2.92,23.59,23.59,0,0,0-.48,3.27,65.09,65.09,0,0,0,.15,11.82A36.45,36.45,0,0,0,930.26,659.36Z" transform="translate(-778.03 -323.68)"/><path class="cls-12" d="M938.6,661.16s-.52-.5-1.44-1.25a33.1,33.1,0,0,1-3.34-3.14,14,14,0,0,1-2.53-3.9c-.22-.56-.36-1-.46-1.33s-.14-.49-.14-.49a6.83,6.83,0,0,0,1,1.62c.68.94,1.77,2.08,3,3.4a40.4,40.4,0,0,1,2.86,3.56C938.14,660.6,938.6,661.16,938.6,661.16Z" transform="translate(-778.03 -323.68)"/><path class="cls-12" d="M931.64,611.24a4.65,4.65,0,0,1-.48.49,4,4,0,0,1-1.67.9,4.86,4.86,0,0,1-2.88-.11,7.8,7.8,0,0,1-3-1.89,22.53,22.53,0,0,1-2.21-2.6c-.62-.81-1.2-1.53-1.71-2.12a17.59,17.59,0,0,0-1.77-1.81l.55.4c.36.26.88.63,1.5,1.12a22.71,22.71,0,0,1,2.07,1.86c.73.75,1.47,1.6,2.3,2.4a9.79,9.79,0,0,0,2.56,1.86,4.79,4.79,0,0,0,2.5.49,3.53,3.53,0,0,0,1.7-.56A2.65,2.65,0,0,0,931.64,611.24Z" transform="translate(-778.03 -323.68)"/><path class="cls-12" d="M928.82,618.64a3.05,3.05,0,0,0-.21.32c-.14.2-.32.52-.6.88a5.51,5.51,0,0,1-3,2,4.56,4.56,0,0,1-2,0,6.55,6.55,0,0,1-1.52-.52c-.41-.19-.72-.36-1-.47a2.57,2.57,0,0,0-.35-.15,8.54,8.54,0,0,0,1.41.23,8.89,8.89,0,0,0,3.2-.15,9.8,9.8,0,0,0,2.94-1.3A4.92,4.92,0,0,0,928.82,618.64Z" transform="translate(-778.03 -323.68)"/><path class="cls-12" d="M980.31,637.09s.8-1.47,1.93-3.92c.56-1.23,1.22-2.69,1.93-4.32s1.55-3.41,2.17-5.31a14.91,14.91,0,0,0,.62-2.82c.1-.94.12-1.86.13-2.75,0-1.78,0-3.38,0-4.72a17.34,17.34,0,0,0-.64-4.3l.35,1.12a27,27,0,0,1,.7,3.14c.21,1.34.36,3,.46,4.74a22.58,22.58,0,0,1,0,2.86,12.82,12.82,0,0,1-.62,3.05,35.59,35.59,0,0,1-2.4,5.35c-.83,1.59-1.64,3-2.33,4.15C981.2,635.64,980.4,636.93,980.31,637.09Z" transform="translate(-778.03 -323.68)"/><path class="cls-12" d="M994.07,624s-.26-.7-.78-1.81a39.81,39.81,0,0,1-1.72-4.44,37.77,37.77,0,0,1-1.11-4.62c-.21-1.21-.39-1.94-.39-1.94s.26.7.78,1.82a38.8,38.8,0,0,1,1.72,4.43,37.44,37.44,0,0,1,1.11,4.63C993.89,623.22,994.07,624,994.07,624Z" transform="translate(-778.03 -323.68)"/><path class="cls-12" d="M997.89,667.63a33,33,0,0,0,.46-4.22c.15-2.62.09-6.22-.1-10.2s-.42-7.6-.47-10.24c0-1.32,0-2.39.1-3.12s.1-1.05.11-1.14,0,.41,0,1.14a26.78,26.78,0,0,0,.23,3.09c.33,2.6.93,6.19,1.1,10.22a51,51,0,0,1,0,5.68,45,45,0,0,1-.52,4.61c-.22,1.3-.44,2.35-.61,3.06S997.91,667.54,997.89,667.63Z" transform="translate(-778.03 -323.68)"/><path class="cls-12" d="M919.66,698.54l-.26-.32a7.72,7.72,0,0,0-.84-.88,3.12,3.12,0,0,0-1.73-.87,2.17,2.17,0,0,0-1.21.2,1.59,1.59,0,0,0-.84,1.07c-.13.49-.12,1-.21,1.59a2.54,2.54,0,0,1-.9,1.52c-.95.8-2,1.64-3.13,2.53-2.26,1.79-4.88,3.77-7.81,5.91l-4.62,3.33a46.08,46.08,0,0,1-5.19,3.4,15.14,15.14,0,0,1-3.08,1.24,9.29,9.29,0,0,0-1.54.45,2.68,2.68,0,0,0-1.1,1,3.65,3.65,0,0,0-.35,3,7.36,7.36,0,0,0,1.71,2.86,12.92,12.92,0,0,0,6.05,3.57,20.73,20.73,0,0,0,7.44.54c5.14-.41,10.31-2.21,16-2.6s11,.87,16.08.07a23.87,23.87,0,0,0,7.1-2.42c1.1-.56,2.27-1.1,3.25-1.7a4.28,4.28,0,0,0,1.21-1.08c.21-.32.07-.77-.22-1.27a30.31,30.31,0,0,1-2.8-6.49c-.72-2.16-1.48-4.22-2.09-6.29a23,23,0,0,1-.69-3.1,23,23,0,0,0-.4-3,3.14,3.14,0,0,0-.27-.62c0-.07-.08-.15-.11-.07l-.75,1-1.63,2.26c-.54.73-1,1.45-1.57,2.14A3.75,3.75,0,0,1,933,707a4.57,4.57,0,0,1-2.42-.23,12.31,12.31,0,0,1-2-.94,51.56,51.56,0,0,1-6.09-4.19l-5-3.8,5.07,3.74a50.83,50.83,0,0,0,6.15,4.06,12.24,12.24,0,0,0,2,.89,4.27,4.27,0,0,0,2.27.17,3.44,3.44,0,0,0,1.91-1.39c.51-.67,1-1.42,1.52-2.16l1.58-2.29c.31-.43.61-.87.92-1.32l.19-.23.05-.06,0,.06.1.12a5.15,5.15,0,0,1,.37.48,3.34,3.34,0,0,1,.33.72,21.89,21.89,0,0,1,.48,3,20.91,20.91,0,0,0,.73,3c.63,2,1.43,4.08,2.18,6.22a29.88,29.88,0,0,0,2.82,6.32,3.38,3.38,0,0,1,.41.94,1.59,1.59,0,0,1-.17,1.18,4.68,4.68,0,0,1-1.46,1.39c-1.11.69-2.2,1.2-3.33,1.79a24.45,24.45,0,0,1-7.36,2.57c-5.31.86-10.74-.35-16.17,0s-10.63,2.15-15.92,2.55a21.41,21.41,0,0,1-7.79-.64,13.66,13.66,0,0,1-6.42-3.9,8.34,8.34,0,0,1-1.85-3.21,4.42,4.42,0,0,1,.5-3.63,3.29,3.29,0,0,1,1.43-1.21,9.75,9.75,0,0,1,1.66-.47,14.26,14.26,0,0,0,3-1.13,47.62,47.62,0,0,0,5.19-3.26l4.67-3.24c3-2.08,5.63-4,7.92-5.74,1.15-.87,2.21-1.69,3.17-2.47a2.33,2.33,0,0,0,.88-1.44c.11-.54.1-1.09.25-1.59a1.65,1.65,0,0,1,.88-1.1,2.3,2.3,0,0,1,1.24-.18,3.16,3.16,0,0,1,1.74.89,9.4,9.4,0,0,1,.83.89Z" transform="translate(-778.03 -323.68)"/><path class="cls-12" d="M919.81,706.33s-.1-.07-.3-.18-.48-.27-.83-.47a10.72,10.72,0,0,1-2.49-1.94,10.53,10.53,0,0,1-1.75-2.62c-.18-.37-.31-.67-.41-.87a2,2,0,0,0-.16-.3,7.87,7.87,0,0,0,.9.93c.58.55,1.39,1.28,2.19,2.15s1.47,1.72,2,2.34A8.36,8.36,0,0,0,919.81,706.33Z" transform="translate(-778.03 -323.68)"/><path class="cls-12" d="M917.82,706.28a2.06,2.06,0,0,0-.33,0c-.21,0-.53.05-.92.05a7.64,7.64,0,0,1-3-.54,14,14,0,0,1-2.6-1.42,8.78,8.78,0,0,0-1-.63,2.29,2.29,0,0,0,.32.08l.89.17a16.16,16.16,0,0,1,2.82.83c1,.4,2,.85,2.65,1.11A4.7,4.7,0,0,0,917.82,706.28Z" transform="translate(-778.03 -323.68)"/><path class="cls-12" d="M911.6,712.45a12.89,12.89,0,0,0,.14-1.67c0-1,.07-2.44.19-4s.29-2.94.4-4a14.09,14.09,0,0,0,.11-1.67,3.59,3.59,0,0,0,.07.45c0,.28.13.69.22,1.21a15.91,15.91,0,0,1,.25,4.06,16.55,16.55,0,0,1-.84,4c-.17.5-.32.89-.41,1.17S911.6,712.45,911.6,712.45Z" transform="translate(-778.03 -323.68)"/><path class="cls-12" d="M913.94,709.63a9.5,9.5,0,0,0-1.08-.18,11.39,11.39,0,0,1-2.56-.6,12.44,12.44,0,0,1-2.33-1.2,1.35,1.35,0,0,0-.7-.26.59.59,0,0,0-.28.07,2.21,2.21,0,0,1,.26-.14,1.85,1.85,0,0,1,.85-.05,11.27,11.27,0,0,1,2.56.6,11.46,11.46,0,0,1,2.34,1.2A9,9,0,0,0,913.94,709.63Z" transform="translate(-778.03 -323.68)"/><path class="cls-12" d="M903.75,715.06a7.59,7.59,0,0,0,.4-1.48c.19-.92.35-2.2.73-3.59a12.08,12.08,0,0,1,1.5-3.42c.27-.4.5-.72.66-.93a3,3,0,0,0,.24-.33,6.44,6.44,0,0,0-.53,1.43c-.26.9-.48,2.15-.86,3.53a15.19,15.19,0,0,1-1.36,3.45c-.23.42-.44.75-.57,1Z" transform="translate(-778.03 -323.68)"/><path class="cls-12" d="M907.5,713l-.29,0c-.18,0-.46,0-.8-.07a9.57,9.57,0,0,1-2.59-.55,9.36,9.36,0,0,1-2.29-1.31c-.27-.2-.49-.38-.64-.48a1.48,1.48,0,0,0-.25-.16,7.92,7.92,0,0,0,1.06.27,17.6,17.6,0,0,1,2.5.7,17,17,0,0,1,2.33,1.14A6.88,6.88,0,0,0,907.5,713Z" transform="translate(-778.03 -323.68)"/><path class="cls-12" d="M901.49,715.05a5.46,5.46,0,0,0,.09-.88,6.86,6.86,0,0,1,1.38-3.9,5.32,5.32,0,0,0,.47-.74,5.42,5.42,0,0,0-.09.87,7.75,7.75,0,0,1-.38,2.06,7.85,7.85,0,0,1-1,1.85A6.3,6.3,0,0,0,901.49,715.05Z" transform="translate(-778.03 -323.68)"/><path class="cls-12" d="M945.1,716.32s-.54.72-1.57,2a22.26,22.26,0,0,1-2,2.21,10.94,10.94,0,0,1-3.34,2.19,14.68,14.68,0,0,1-4.78.84,54.47,54.47,0,0,1-5.55,0c-3.89-.19-8.13-.74-12.54-.57a29.84,29.84,0,0,0-6.35.94,36.85,36.85,0,0,1-6,1.22,11.09,11.09,0,0,1-5.56-.92,14.16,14.16,0,0,1-4-2.79c-1.08-1-1.82-2.16-2.65-2.95a3.53,3.53,0,0,0-2.59-1.19,2.33,2.33,0,0,0-1.7.68,1.87,1.87,0,0,0-.27.41l-.07.15.07-.15a1.34,1.34,0,0,1,.27-.41,2.35,2.35,0,0,1,1.69-.75,3.71,3.71,0,0,1,2.75,1.1c.89.78,1.68,1.87,2.78,2.81a13.53,13.53,0,0,0,4,2.5,10.54,10.54,0,0,0,5.23.67,39.73,39.73,0,0,0,5.86-1.34,29.58,29.58,0,0,1,6.55-1,102.48,102.48,0,0,1,12.65.78c1.92.16,3.75.26,5.47.24a14.21,14.21,0,0,0,4.66-.59,10.38,10.38,0,0,0,3.34-2,19.17,19.17,0,0,0,2.12-2.1C944.55,717,945.1,716.32,945.1,716.32Z" transform="translate(-778.03 -323.68)"/><path class="cls-12" d="M910.21,722.47l-.74.37a13.12,13.12,0,0,1-2.13.82,8.87,8.87,0,0,1-3.44.28,7.34,7.34,0,0,1-2-.55,11.31,11.31,0,0,1-1.92-1.07c-2.42-1.63-4.5-3.25-6-4.44l-1.78-1.4c-.42-.33-.67-.49-.67-.49l.71.43,2,1.13c1.66.94,3.95,2.27,6.35,3.9a10,10,0,0,0,3.5,1.66,9.7,9.7,0,0,0,3.22.15,10.88,10.88,0,0,0,2.18-.49A7.6,7.6,0,0,0,910.21,722.47Z" transform="translate(-778.03 -323.68)"/><path class="cls-12" d="M1136.76,518.7l-2.67.33c-1.72.17-4.22.44-7.31.59s-6.79.26-10.88.26l-13.31-.09c-2.35,0-4.65,0-6.87.07l-3.26.13a5.66,5.66,0,0,1-1.72-.11,2.91,2.91,0,0,1-1.47-1,10.28,10.28,0,0,1-2.18-5.54,9.95,9.95,0,0,1,3.36-8.44,10.76,10.76,0,0,1,2.66-1.72,10.38,10.38,0,0,1,1.88-.64l.69-.14-.68.15a9.45,9.45,0,0,0-1.86.7,10.38,10.38,0,0,0-2.55,1.8,9.57,9.57,0,0,0-2.87,8.22,9.74,9.74,0,0,0,2.19,5.06,2,2,0,0,0,1,.7,4.54,4.54,0,0,0,1.44,0c1.07-.06,2.17-.14,3.29-.19,2.23-.09,4.54-.13,6.91-.13,4.73,0,9.22.18,13.31.3s7.76.2,10.86.17,5.59-.15,7.31-.26Z" transform="translate(-778.03 -323.68)"/><path class="cls-12" d="M1137.74,503.38a2,2,0,0,1,.74,0,3.31,3.31,0,0,1,1.88,1,5.71,5.71,0,0,1,1.41,3.1,31.75,31.75,0,0,1,.37,4.56c0,.86,0,1.75-.06,2.68a6.74,6.74,0,0,1-.61,2.93,3.38,3.38,0,0,1-2.87,1.59,4.72,4.72,0,0,1-3.22-1.36,8.06,8.06,0,0,1-2.2-6.94,11.38,11.38,0,0,1,1.23-3.76,15.29,15.29,0,0,1,1.06-1.72l.35-.47h0l-.55.1c-.75.13-1.53.23-2.32.33-5.86.67-11.44.31-16.46.32-2.52,0-4.91.09-7.16.12s-4.34.06-6.25,0c-3.83,0-6.92-.17-9-.4-1.06-.11-1.88-.25-2.43-.36l-.84-.2.84.19a24.56,24.56,0,0,0,2.44.29c2.13.17,5.22.18,9,.07,1.91-.05,4-.15,6.24-.26s4.63-.28,7.17-.33c5.06-.13,10.62.13,16.35-.52.77-.1,1.54-.19,2.26-.32l.54-.09,1-.2,2-.41c-.45.52-1,1.07-1.4,1.59l-.32.39c-.11.12-.24.3-.27.33l-.28.38a13,13,0,0,0-1,1.6,10.65,10.65,0,0,0-1.19,3.42,7.3,7.3,0,0,0,1.81,6.26,4,4,0,0,0,2.69,1.24,2.73,2.73,0,0,0,2.39-1.21,6.48,6.48,0,0,0,.64-2.67c.09-.92.14-1.8.16-2.65a31.71,31.71,0,0,0-.2-4.53,5.47,5.47,0,0,0-1.27-3.08,3.24,3.24,0,0,0-1.84-1A2,2,0,0,0,1137.74,503.38Z" transform="translate(-778.03 -323.68)"/><path class="cls-12" d="M878.3,519.22s-2.57.21-6.73.41-9.92.38-16.28.18c-1.59,0-3.14-.13-4.63-.22s-3-.24-4.31-.35c-2.72-.2-5.19-.15-7.27-.1l-6.73.19s.64,0,1.8-.12l4.91-.48a59.32,59.32,0,0,1,7.34-.33l4.31.2,4.62.16,16.24.46c2.08,0,3.76.06,4.92,0S878.3,519.22,878.3,519.22Z" transform="translate(-778.03 -323.68)"/><path class="cls-12" d="M835.27,519.37a1.92,1.92,0,0,1-.49.11,2.32,2.32,0,0,1-1.39-.35A2.93,2.93,0,0,1,832,517.3a8.54,8.54,0,0,1,.32-3c.14-.55.28-1.12.44-1.72l.08-.3c0-.12,0-.29.22-.26l.59-.05,1-.1c1.32-.13,2.72-.24,4.21-.34,3-.21,6.24-.36,9.67-.42,6.86-.12,13.07.05,17.56.12l5.32.06,2,0-7.26.37c-4.5.22-10.7.4-17.55.52l-9.65.21-4.21.14-1,0-.36,0s0,0,0,0l0,.14c-.19.58-.37,1.14-.55,1.67a8.41,8.41,0,0,0-.5,2.92,2.77,2.77,0,0,0,1.21,1.8,2.27,2.27,0,0,0,1.35.4A1.73,1.73,0,0,0,835.27,519.37Z" transform="translate(-778.03 -323.68)"/><path class="cls-12" d="M840.37,519.47l-.13.39a6.43,6.43,0,0,1-.53,1.07,7.71,7.71,0,0,1-3.27,2.91,13.19,13.19,0,0,1-6.47,1.09,9.17,9.17,0,0,1-3.86-1,6.49,6.49,0,0,1-2.85-3.29,12.27,12.27,0,0,1-.85-4.17,13.78,13.78,0,0,1,0-2,3.67,3.67,0,0,1,.79-1.93,8.22,8.22,0,0,1,3-2c1-.45,1.93-.84,2.79-1.18,1.72-.68,3.14-1.15,4.12-1.47l1.52-.49a49.85,49.85,0,0,0-5.48,2.33c-.83.41-1.72.86-2.67,1.38a7.88,7.88,0,0,0-2.64,1.92c-.68.83-.57,2.07-.48,3.38a12.74,12.74,0,0,0,.82,3.83,5.8,5.8,0,0,0,2.38,2.83,8.72,8.72,0,0,0,3.45,1,13.41,13.41,0,0,0,6.23-.63,7.3,7.3,0,0,0,3.37-2.57,6.21,6.21,0,0,0,.58-1Z" transform="translate(-778.03 -323.68)"/><path class="cls-12" d="M840.45,513.07a1,1,0,0,0,0-.36,1.83,1.83,0,0,0-.38-.89,19.75,19.75,0,0,0-2.33-2.22c-1-.82-1.83-1.57-2.53-2.08a6.41,6.41,0,0,0-1.17-.75,2.81,2.81,0,0,0,.36.11c.23.07.58.15,1,.28a8.47,8.47,0,0,1,3,1.65,7.93,7.93,0,0,1,1.28,1.41,4.8,4.8,0,0,1,.73,1.42A2.24,2.24,0,0,1,840.45,513.07Z" transform="translate(-778.03 -323.68)"/><path class="cls-12" d="M834.35,523.23l-.79-.41c-.5-.26-1.24-.63-2.13-1.13a32.81,32.81,0,0,1-3-1.92,5.42,5.42,0,0,1-1.57-1.65,4.6,4.6,0,0,1-.58-2.43,6.29,6.29,0,0,1,1.91-4.2,9.8,9.8,0,0,1,3.11-1.94c1-.38,1.75-.61,2.3-.77l.84-.26s-.29.1-.82.33a18.21,18.21,0,0,0-2.14,1.07,10.46,10.46,0,0,0-2.68,2.15,6.07,6.07,0,0,0-1.47,3.65,4,4,0,0,0,.4,1.93,5,5,0,0,0,1.23,1.46c1,.87,1.94,1.62,2.74,2.24A29.07,29.07,0,0,0,834.35,523.23Z" transform="translate(-778.03 -323.68)"/><path class="cls-12" d="M929.09,399.63c-.35,4.93-.05,11.27,4.6,14.1,9,3.51,19.9-.72,26.72-7a39.64,39.64,0,0,0,5.78-6.85c3.38-4.95,6.87-10,8.86-15.69-1.73,5.81-5.08,11-8.38,16-4.81,7.72-12.82,13.69-21.95,15.05-4.06.55-8.77.73-12.26-1.76-3.85-3.42-3.92-9.19-3.37-13.91Z" transform="translate(-778.03 -323.68)"/><path class="cls-12" d="M927.25,402.78c0,4.57.63,9.69,3.87,13.13a7.62,7.62,0,0,0,4,2,26.24,26.24,0,0,0,9.27.2,32.11,32.11,0,0,0,22.62-15,121.29,121.29,0,0,0,9.86-16.06,104.63,104.63,0,0,1-9.38,16.38,31.8,31.8,0,0,1-27.76,15.63,17.24,17.24,0,0,1-7-1.41c-5.05-2.94-5.65-9.68-5.46-14.94Z" transform="translate(-778.03 -323.68)"/><path class="cls-14" d="M935.66,543.17s-1,14,0,17.7,7.7,19.06,7.68,21.28-.87,10.58-2.31,12.69-10.23,1.48-10.23,1.48l25.33,3.13.92-9-8.95-19.12-8.19-20Z" transform="translate(-778.03 -323.68)"/><path class="cls-12" d="M869.12,515.39c.58,32.12-28.83,61.88-60.91,46.08-34.3-17.82-34.31-74.35,0-92.17,32.09-15.8,61.5,13.95,60.92,46.09Zm0,0c0-18.19-9-37.13-25.57-45.65a37.58,37.58,0,0,0-35,.17c-33.42,17.76-33.42,73.19,0,90.95a37.58,37.58,0,0,0,35,.17c16.55-8.52,25.62-27.46,25.57-45.64Z" transform="translate(-778.03 -323.68)"/><path class="cls-12" d="M1127.84,511.61c-.07,20.21-3.16,52.19-17.51,67.36-9.73,9.47-19.45,1.65-24.7-8.07-9.58-18.1-11.76-39.12-12.1-59.29.34-20.16,2.52-41.18,12.1-59.28,5.22-9.67,14.95-17.58,24.7-8.07,14.35,15.16,17.44,47.14,17.51,67.35Zm0,0c-.25-20.44-3.3-51.61-18-66.84-9.43-8.91-18.32-1.14-23.18,8.13-9.1,18-11.21,38.77-11.41,58.71.19,19.95,2.31,40.71,11.4,58.72,8.57,16,20.34,16,29.2.15,9.49-17.94,11.64-38.84,12-58.87Z" transform="translate(-778.03 -323.68)"/><path class="cls-12" d="M1083.19,582.84c-15.41-.19-24.38-15.9-29.44-28.58-9.77-26.51-9.77-58.78,0-85.29,4.58-11.42,11.58-24.08,24.09-27.94a21.13,21.13,0,0,1,5.36-.64,21,21,0,0,0-5.28.93c-5.12,1.68-9.32,5.31-12.66,9.44-20,26.28-20.71,72.68-10.07,103,4.7,12.59,13,28.16,28,29.12Z" transform="translate(-778.03 -323.68)"/><path class="cls-12" d="M921.48,350.8s2.4-1.07,3.16-.92,1.48,2.45,1.48,2.45l-.87,1.73s.46-1.73-.76-1.88-1.89-1-2.45-.77S921.48,350.8,921.48,350.8Z" transform="translate(-778.03 -323.68)"/><path class="cls-12" d="M929.64,347.9,928.41,352a6.26,6.26,0,0,1,3-2.1c1.84-.55,1-2.74,3.52-2s4.48,1.32,5.15,1.42a5.11,5.11,0,0,0,2-.51s-2.19-2.55-3.92-2.55-2.91.31-4.38.41A17.15,17.15,0,0,0,929.64,347.9Z" transform="translate(-778.03 -323.68)"/><path class="cls-12" d="M925.25,354.06s-1.48,5.76-1.45,6.32,1.86,1.18,1.86,1.18l1.63.56s-2.7-1.58-2.34-2.75,1.17-6.73,1.17-6.73Z" transform="translate(-778.03 -323.68)"/><path class="cls-12" d="M931.42,356.41s2.86,3.62,2.55,4a20,20,0,0,1-3.06,1.68s2.45-.87,2.35-1.68A26.76,26.76,0,0,0,931.42,356.41Z" transform="translate(-778.03 -323.68)"/><path class="cls-12" d="M925.77,368.86a5.24,5.24,0,0,1,2.57-1.3c1.19,0,5.51-.54,5.51-.54s-5.94,1.34-6.33,1.57A6.11,6.11,0,0,1,925.77,368.86Z" transform="translate(-778.03 -323.68)"/><path class="cls-12" d="M953.56,356.41c.51-2.39,1.88-5.72,4.78-5.76a4.25,4.25,0,0,1,3.73,2.6,5.11,5.11,0,0,0-3.78-1.65c-2.25.25-3.48,3.1-4.73,4.81Z" transform="translate(-778.03 -323.68)"/><path class="cls-12" d="M955.44,356.57c.37-1.7,1.35-4.07,3.41-4.1a3,3,0,0,1,2.66,1.86,3.66,3.66,0,0,0-2.7-1.18c-1.65.22-2.44,2.17-3.37,3.42Z" transform="translate(-778.03 -323.68)"/><path class="cls-12" d="M959.56,361.61c-.31,1.71-1.21,4.11-3.27,4.21a3,3,0,0,1-2.72-1.77,3.67,3.67,0,0,0,2.74,1.09c1.64-.27,2.37-2.25,3.25-3.53Z" transform="translate(-778.03 -323.68)"/><path class="cls-12" d="M930.91,352a3.24,3.24,0,0,1,3.38-1.67c2.46.3,5,.56,5,.56" transform="translate(-778.03 -323.68)"/><path d="M930.91,352a3.4,3.4,0,0,1,3.87-1.74c1.49.18,3,.36,4.46.63-1.5-.07-3-.23-4.49-.38a3.51,3.51,0,0,0-3.84,1.49Z" transform="translate(-778.03 -323.68)"/></svg>