<svg id="Слой_1" data-name="Слой 1" xmlns="http://www.w3.org/2000/svg" viewBox="0 0 376.34 376.2"><defs><style>.cls-1{fill:#f6ecc3;}</style></defs><path class="cls-1" d="M916.89,352.37a.16.16,0,0,0,.19-.11h0a.15.15,0,0,0-.11-.19.15.15,0,0,0-.19.1v0a.16.16,0,0,0,.11.19Z" transform="translate(-772.08 -352.05)"/><path class="cls-1" d="M935.27,357a.79.79,0,1,0-.6-.94A.79.79,0,0,0,935.27,357Z" transform="translate(-772.08 -352.05)"/><path class="cls-1" d="M953.72,361.38a1.21,1.21,0,1,0-.93-1.44,1.21,1.21,0,0,0,.93,1.44Z" transform="translate(-772.08 -352.05)"/><path class="cls-1" d="M972.15,365.67a1.53,1.53,0,0,0,.76-3l-.11,0a1.53,1.53,0,0,0-.65,3Z" transform="translate(-772.08 -352.05)"/><path class="cls-1" d="M990.66,369.76a1.63,1.63,0,1,0-1.25-1.94h0A1.63,1.63,0,0,0,990.66,369.76Z" transform="translate(-772.08 -352.05)"/><path class="cls-1" d="M1009.18,373.7a1.56,1.56,0,1,0,.63-3.06,1.55,1.55,0,0,0-1.84,1.19,1.57,1.57,0,0,0,1.18,1.87Z" transform="translate(-772.08 -352.05)"/><path class="cls-1" d="M1027.75,377.49a1.37,1.37,0,1,0-1-1.62h0A1.36,1.36,0,0,0,1027.75,377.49Z" transform="translate(-772.08 -352.05)"/><path class="cls-1" d="M1046.36,381.06a.94.94,0,0,0,1.12-.71h0a.95.95,0,1,0-1.13.71Z" transform="translate(-772.08 -352.05)"/><path class="cls-1" d="M1065,384.48a.39.39,0,0,0,.43-.28.37.37,0,0,0-.26-.45h0a.36.36,0,0,0-.41.32.37.37,0,0,0,.25.4Z" transform="translate(-772.08 -352.05)"/><path class="cls-1" d="M894.24,367.56a.83.83,0,0,0,1-.62v0a.83.83,0,1,0-1,.64Z" transform="translate(-772.08 -352.05)"/><path class="cls-1" d="M912.59,372.31a1.62,1.62,0,1,0-1.24-1.93h0A1.61,1.61,0,0,0,912.59,372.31Z" transform="translate(-772.08 -352.05)"/><path class="cls-1" d="M931,377a2.35,2.35,0,0,0,1-4.6,2.35,2.35,0,0,0-1,4.59Z" transform="translate(-772.08 -352.05)"/><path class="cls-1" d="M949.38,381.48a2.83,2.83,0,1,0-2.18-3.37,2.83,2.83,0,0,0,2.18,3.37Z" transform="translate(-772.08 -352.05)"/><path class="cls-1" d="M967.82,385.78a3.15,3.15,0,1,0-2.41-3.75h0a3.12,3.12,0,0,0,2.37,3.73Z" transform="translate(-772.08 -352.05)"/><path class="cls-1" d="M986.31,389.92a3.31,3.31,0,1,0-2.54-3.93h0A3.32,3.32,0,0,0,986.31,389.92Z" transform="translate(-772.08 -352.05)"/><path class="cls-1" d="M1004.87,393.82a3.21,3.21,0,1,0-2.46-3.82,3.21,3.21,0,0,0,2.46,3.82Z" transform="translate(-772.08 -352.05)"/><path class="cls-1" d="M1023.42,397.59a3,3,0,1,0-2.29-3.56h0A3,3,0,0,0,1023.42,397.59Z" transform="translate(-772.08 -352.05)"/><path class="cls-1" d="M1042.06,401.12a2.52,2.52,0,1,0-1.94-3h0A2.52,2.52,0,0,0,1042.06,401.12Z" transform="translate(-772.08 -352.05)"/><path class="cls-1" d="M1060.69,404.5a1.89,1.89,0,1,0-1.45-2.25A1.89,1.89,0,0,0,1060.69,404.5Z" transform="translate(-772.08 -352.05)"/><path class="cls-1" d="M1079.36,407.76a1.18,1.18,0,0,0,1.41-.88,1.19,1.19,0,0,0-.89-1.41,1.18,1.18,0,0,0-1.4.89v0A1.17,1.17,0,0,0,1079.36,407.76Z" transform="translate(-772.08 -352.05)"/><path class="cls-1" d="M1098.08,410.82a.2.2,0,0,0,.24-.14h0a.22.22,0,0,0-.15-.26h0a.22.22,0,0,0-.26.17A.2.2,0,0,0,1098.08,410.82Z" transform="translate(-772.08 -352.05)"/><path class="cls-1" d="M853.39,377.33a0,0,0,0,0,.06,0h0a0,0,0,0,0,0-.06h0a.06.06,0,0,0-.07,0,0,0,0,0,0,0,.06Z" transform="translate(-772.08 -352.05)"/><path class="cls-1" d="M871.66,382.4a1.18,1.18,0,1,0-.9-1.42,1.18,1.18,0,0,0,.9,1.42Z" transform="translate(-772.08 -352.05)"/><path class="cls-1" d="M890,387.41a2.21,2.21,0,1,0-1.69-2.62h0A2.2,2.2,0,0,0,890,387.41Z" transform="translate(-772.08 -352.05)"/><path class="cls-1" d="M908.29,392.28a3.1,3.1,0,1,0-2.37-3.69h0A3.1,3.1,0,0,0,908.29,392.28Z" transform="translate(-772.08 -352.05)"/><path class="cls-1" d="M926.65,397a3.83,3.83,0,1,0-2.93-4.56h0A3.83,3.83,0,0,0,926.65,397Z" transform="translate(-772.08 -352.05)"/><path class="cls-1" d="M945.06,401.54a4.41,4.41,0,1,0-3.39-5.24,4.4,4.4,0,0,0,3.39,5.24Z" transform="translate(-772.08 -352.05)"/><path class="cls-1" d="M963.49,405.89a4.78,4.78,0,1,0-3.66-5.68h0A4.78,4.78,0,0,0,963.49,405.89Z" transform="translate(-772.08 -352.05)"/><path class="cls-1" d="M982,410a4.93,4.93,0,1,0-3.8-5.87A4.94,4.94,0,0,0,982,410Z" transform="translate(-772.08 -352.05)"/><path class="cls-1" d="M1000.53,413.92a4.83,4.83,0,1,0-3.71-5.74A4.83,4.83,0,0,0,1000.53,413.92Z" transform="translate(-772.08 -352.05)"/><path class="cls-1" d="M1019.1,417.65a4.57,4.57,0,1,0-3.52-5.43,4.56,4.56,0,0,0,3.52,5.43Z" transform="translate(-772.08 -352.05)"/><path class="cls-1" d="M1037.73,421.13a4,4,0,1,0-3.11-4.81,4,4,0,0,0,3.11,4.81Z" transform="translate(-772.08 -352.05)"/><path class="cls-1" d="M1056.39,424.46a3.36,3.36,0,1,0-2.57-4h0a3.36,3.36,0,0,0,2.58,4Z" transform="translate(-772.08 -352.05)"/><path class="cls-1" d="M1075.08,427.62a2.52,2.52,0,1,0-1.95-3,2.53,2.53,0,0,0,1.95,3Z" transform="translate(-772.08 -352.05)"/><path class="cls-1" d="M1093.81,430.63a1.52,1.52,0,1,0-1.17-1.81,1.52,1.52,0,0,0,1.17,1.81Z" transform="translate(-772.08 -352.05)"/><path class="cls-1" d="M1112.56,433.54a.42.42,0,0,0,.5-.32h0a.42.42,0,0,0-.82-.18.42.42,0,0,0,.32.5Z" transform="translate(-772.08 -352.05)"/><path class="cls-1" d="M849.16,396.93a1.17,1.17,0,1,0-.89-1.4v0A1.17,1.17,0,0,0,849.16,396.93Z" transform="translate(-772.08 -352.05)"/><path class="cls-1" d="M867.41,402.15a2.41,2.41,0,1,0-1.85-2.87A2.41,2.41,0,0,0,867.41,402.15Z" transform="translate(-772.08 -352.05)"/><path class="cls-1" d="M885.7,407.24a3.52,3.52,0,1,0-2.7-4.19h0A3.53,3.53,0,0,0,885.7,407.24Z" transform="translate(-772.08 -352.05)"/><path class="cls-1" d="M904,412.18a4.52,4.52,0,1,0-3.47-5.37,4.5,4.5,0,0,0,3.47,5.37Z" transform="translate(-772.08 -352.05)"/><path class="cls-1" d="M922.36,417a5.3,5.3,0,1,0-4.07-6.31A5.31,5.31,0,0,0,922.36,417Z" transform="translate(-772.08 -352.05)"/><path class="cls-1" d="M940.75,421.55a5.94,5.94,0,1,0-4.56-7.05h0a5.93,5.93,0,0,0,4.56,7.05Z" transform="translate(-772.08 -352.05)"/><path class="cls-1" d="M959.16,426a6.41,6.41,0,1,0-4.9-7.63h0A6.42,6.42,0,0,0,959.16,426Z" transform="translate(-772.08 -352.05)"/><path class="cls-1" d="M977.64,430.14a6.56,6.56,0,1,0-5-7.81h0A6.57,6.57,0,0,0,977.64,430.14Z" transform="translate(-772.08 -352.05)"/><path class="cls-1" d="M996.19,434a6.46,6.46,0,1,0-5-7.68,6.47,6.47,0,0,0,5,7.68Z" transform="translate(-772.08 -352.05)"/><path class="cls-1" d="M1014.78,437.72a6.15,6.15,0,1,0-4.7-7.32h0A6.16,6.16,0,0,0,1014.78,437.72Z" transform="translate(-772.08 -352.05)"/><path class="cls-1" d="M1033.42,441.14a5.57,5.57,0,1,0-4.28-6.62,5.57,5.57,0,0,0,4.28,6.62Z" transform="translate(-772.08 -352.05)"/><path class="cls-1" d="M1052.1,444.35a4.77,4.77,0,1,0-3.66-5.68,4.76,4.76,0,0,0,3.66,5.68Z" transform="translate(-772.08 -352.05)"/><path class="cls-1" d="M1070.82,447.42a3.83,3.83,0,1,0-2.93-4.57,3.84,3.84,0,0,0,2.93,4.57Z" transform="translate(-772.08 -352.05)"/><path class="cls-1" d="M1089.55,450.38a2.78,2.78,0,1,0-2.12-3.31h0A2.79,2.79,0,0,0,1089.55,450.38Z" transform="translate(-772.08 -352.05)"/><path class="cls-1" d="M1108.33,453.19a1.57,1.57,0,1,0-1.21-1.88,1.57,1.57,0,0,0,1.21,1.88Z" transform="translate(-772.08 -352.05)"/><path class="cls-1" d="M1127.11,456a.33.33,0,0,0,.39-.24h0a.31.31,0,0,0-.61-.13A.32.32,0,0,0,1127.11,456Z" transform="translate(-772.08 -352.05)"/><path class="cls-1" d="M826.71,411.15a.84.84,0,1,0-.63-1h0A.83.83,0,0,0,826.71,411.15Z" transform="translate(-772.08 -352.05)"/><path class="cls-1" d="M845,416.47a2.2,2.2,0,1,0,.92-4.31,2.19,2.19,0,0,0-2.61,1.69h0a2.2,2.2,0,0,0,1.68,2.62Z" transform="translate(-772.08 -352.05)"/><path class="cls-1" d="M863.18,421.75a3.52,3.52,0,1,0-2.7-4.19h0A3.52,3.52,0,0,0,863.18,421.75Z" transform="translate(-772.08 -352.05)"/><path class="cls-1" d="M881.45,426.92a4.73,4.73,0,1,0-3.62-5.62h0A4.73,4.73,0,0,0,881.45,426.92Z" transform="translate(-772.08 -352.05)"/><path class="cls-1" d="M899.75,431.93a5.78,5.78,0,1,0-4.43-6.86A5.77,5.77,0,0,0,899.75,431.93Z" transform="translate(-772.08 -352.05)"/><path class="cls-1" d="M918.07,436.84a6.71,6.71,0,1,0-5.15-8A6.72,6.72,0,0,0,918.07,436.84Z" transform="translate(-772.08 -352.05)"/><path class="cls-1" d="M936.43,441.61a7.51,7.51,0,1,0-5.77-8.93,7.51,7.51,0,0,0,5.77,8.93Z" transform="translate(-772.08 -352.05)"/><path class="cls-1" d="M954.83,446.11a8,8,0,1,0-6.15-9.57v0A8,8,0,0,0,954.83,446.11Z" transform="translate(-772.08 -352.05)"/><path class="cls-1" d="M973.31,450.26a8.2,8.2,0,1,0-6.26-9.76v0A8.19,8.19,0,0,0,973.31,450.26Z" transform="translate(-772.08 -352.05)"/><path class="cls-1" d="M991.85,454.21a8.15,8.15,0,1,0-6.26-9.68,8.16,8.16,0,0,0,6.26,9.68Z" transform="translate(-772.08 -352.05)"/><path class="cls-1" d="M1010.46,457.77a7.72,7.72,0,1,0-5.93-9.18,7.73,7.73,0,0,0,5.93,9.18Z" transform="translate(-772.08 -352.05)"/><path class="cls-1" d="M1029.14,461.09a7,7,0,1,0-5.4-8.37h0A7,7,0,0,0,1029.14,461.09Z" transform="translate(-772.08 -352.05)"/><path class="cls-1" d="M1047.83,464.21a6.15,6.15,0,1,0-4.7-7.32v0A6.14,6.14,0,0,0,1047.83,464.21Z" transform="translate(-772.08 -352.05)"/><path class="cls-1" d="M1066.56,467.17a5.09,5.09,0,1,0-3.91-6.06,5.09,5.09,0,0,0,3.91,6.06Z" transform="translate(-772.08 -352.05)"/><path class="cls-1" d="M1085.34,470a3.89,3.89,0,1,0-3-4.64v0A3.9,3.9,0,0,0,1085.34,470Z" transform="translate(-772.08 -352.05)"/><path class="cls-1" d="M1104.11,472.78a2.67,2.67,0,1,0-2.06-3.18h0a2.68,2.68,0,0,0,2,3.18Z" transform="translate(-772.08 -352.05)"/><path class="cls-1" d="M1122.91,475.43a1.31,1.31,0,1,0-1-1.56,1.3,1.3,0,0,0,1,1.56Z" transform="translate(-772.08 -352.05)"/><path class="cls-1" d="M804.36,425a.16.16,0,0,0,.18-.12h0a.15.15,0,0,0-.12-.18.16.16,0,1,0-.06.31Z" transform="translate(-772.08 -352.05)"/><path class="cls-1" d="M822.56,430.44a1.63,1.63,0,1,0-1.25-1.94,1.63,1.63,0,0,0,1.25,1.94Z" transform="translate(-772.08 -352.05)"/><path class="cls-1" d="M840.77,435.86a3.1,3.1,0,1,0-2.37-3.68h0A3.1,3.1,0,0,0,840.77,435.86Z" transform="translate(-772.08 -352.05)"/><path class="cls-1" d="M859,441.24a4.52,4.52,0,1,0-3.46-5.37,4.53,4.53,0,0,0,3.46,5.37Z" transform="translate(-772.08 -352.05)"/><path class="cls-1" d="M877.24,446.46a5.78,5.78,0,1,0-4.42-6.87A5.78,5.78,0,0,0,877.24,446.46Z" transform="translate(-772.08 -352.05)"/><path class="cls-1" d="M895.5,451.68a7,7,0,1,0-5.4-8.38v0A7,7,0,0,0,895.5,451.68Z" transform="translate(-772.08 -352.05)"/><path class="cls-1" d="M913.78,456.75a8.14,8.14,0,1,0-6.23-9.68A8.13,8.13,0,0,0,913.78,456.75Z" transform="translate(-772.08 -352.05)"/><path class="cls-1" d="M932.12,461.61a9,9,0,1,0-6.93-10.74,9,9,0,0,0,6.93,10.74Z" transform="translate(-772.08 -352.05)"/><path class="cls-1" d="M950.5,466.17a9.61,9.61,0,1,0-7.36-11.43A9.62,9.62,0,0,0,950.5,466.17Z" transform="translate(-772.08 -352.05)"/><path class="cls-1" d="M969,470.41a9.87,9.87,0,1,0-7.57-11.74A9.88,9.88,0,0,0,969,470.41Z" transform="translate(-772.08 -352.05)"/><path class="cls-1" d="M987.53,474.25a9.72,9.72,0,1,0-7.46-11.55,9.73,9.73,0,0,0,7.46,11.55Z" transform="translate(-772.08 -352.05)"/><path class="cls-1" d="M1006.15,477.78a9.25,9.25,0,1,0-7.1-11,9.25,9.25,0,0,0,7.1,11Z" transform="translate(-772.08 -352.05)"/><path class="cls-1" d="M1024.83,481a8.45,8.45,0,1,0-6.49-10.05,8.47,8.47,0,0,0,6.49,10.05Z" transform="translate(-772.08 -352.05)"/><path class="cls-1" d="M1043.57,484a7.41,7.41,0,1,0-5.68-8.81h0A7.41,7.41,0,0,0,1043.57,484Z" transform="translate(-772.08 -352.05)"/><path class="cls-1" d="M1062.34,486.77a6.2,6.2,0,1,0-4.76-7.37,6.21,6.21,0,0,0,4.76,7.37Z" transform="translate(-772.08 -352.05)"/><path class="cls-1" d="M1081.12,489.52a4.94,4.94,0,1,0-3.78-5.87A4.94,4.94,0,0,0,1081.12,489.52Z" transform="translate(-772.08 -352.05)"/><path class="cls-1" d="M1099.93,492.17a3.57,3.57,0,1,0-2.74-4.24,3.56,3.56,0,0,0,2.74,4.24Z" transform="translate(-772.08 -352.05)"/><path class="cls-1" d="M1118.74,494.78a2.15,2.15,0,1,0-1.65-2.56A2.15,2.15,0,0,0,1118.74,494.78Z" transform="translate(-772.08 -352.05)"/><path class="cls-1" d="M1137.59,497.28a.63.63,0,1,0-.52-.8.62.62,0,0,0,.43.78Z" transform="translate(-772.08 -352.05)"/><path class="cls-1" d="M800.23,444.15a.79.79,0,0,0,.31-1.54.79.79,0,0,0-.92.6.78.78,0,0,0,.59.93Z" transform="translate(-772.08 -352.05)"/><path class="cls-1" d="M818.42,449.68a2.35,2.35,0,1,0-1.81-2.81,2.36,2.36,0,0,0,1.81,2.81Z" transform="translate(-772.08 -352.05)"/><path class="cls-1" d="M836.63,455.11a3.84,3.84,0,1,0-2.94-4.56,3.84,3.84,0,0,0,2.94,4.56Z" transform="translate(-772.08 -352.05)"/><path class="cls-1" d="M854.83,460.53a5.31,5.31,0,1,0-4.06-6.31h0A5.3,5.3,0,0,0,854.83,460.53Z" transform="translate(-772.08 -352.05)"/><path class="cls-1" d="M873.05,465.91a6.73,6.73,0,1,0-5.15-8h0A6.73,6.73,0,0,0,873.05,465.91Z" transform="translate(-772.08 -352.05)"/><path class="cls-1" d="M891.27,471.28a8.14,8.14,0,1,0-6.23-9.67h0A8.13,8.13,0,0,0,891.27,471.28Z" transform="translate(-772.08 -352.05)"/><path class="cls-1" d="M909.53,476.46a9.36,9.36,0,1,0-7.16-11.12h0A9.36,9.36,0,0,0,909.53,476.46Z" transform="translate(-772.08 -352.05)"/><path class="cls-1" d="M927.84,481.51a10.29,10.29,0,1,0-.05,0Z" transform="translate(-772.08 -352.05)"/><path class="cls-1" d="M946.18,486.23a11.19,11.19,0,1,0-8.57-13.31,11.21,11.21,0,0,0,8.57,13.31Z" transform="translate(-772.08 -352.05)"/><path class="cls-1" d="M964.64,490.52a11.5,11.5,0,1,0-8.81-13.67h0A11.51,11.51,0,0,0,964.64,490.52Z" transform="translate(-772.08 -352.05)"/><path class="cls-1" d="M983.2,494.36a11.35,11.35,0,1,0-8.71-13.48,11.34,11.34,0,0,0,8.71,13.48Z" transform="translate(-772.08 -352.05)"/><path class="cls-1" d="M1001.85,497.74A10.72,10.72,0,1,0,993.63,485a10.73,10.73,0,0,0,8.22,12.74Z" transform="translate(-772.08 -352.05)"/><path class="cls-1" d="M1020.58,500.75a9.72,9.72,0,1,0-7.44-11.56h0A9.72,9.72,0,0,0,1020.58,500.75Z" transform="translate(-772.08 -352.05)"/><path class="cls-1" d="M1039.34,503.61a8.56,8.56,0,1,0-6.57-10.18,8.56,8.56,0,0,0,6.57,10.18Z" transform="translate(-772.08 -352.05)"/><path class="cls-1" d="M1058.14,506.26a7.2,7.2,0,1,0-5.52-8.55,7.2,7.2,0,0,0,5.52,8.55Z" transform="translate(-772.08 -352.05)"/><path class="cls-1" d="M1077,508.86a5.78,5.78,0,1,0-4.43-6.87h0A5.78,5.78,0,0,0,1077,508.86Z" transform="translate(-772.08 -352.05)"/><path class="cls-1" d="M1095.78,511.46a4.36,4.36,0,1,0-3.34-5.18A4.35,4.35,0,0,0,1095.78,511.46Z" transform="translate(-772.08 -352.05)"/><path class="cls-1" d="M1114.61,514a2.83,2.83,0,1,0-2.16-3.37h0A2.82,2.82,0,0,0,1114.61,514Z" transform="translate(-772.08 -352.05)"/><path class="cls-1" d="M1133.45,516.46a1.31,1.31,0,1,0-1-1.56,1.3,1.3,0,0,0,1,1.56Z" transform="translate(-772.08 -352.05)"/><path class="cls-1" d="M796.16,463.08a1.21,1.21,0,0,0,.49-2.37,1.21,1.21,0,0,0-.51,2.37Z" transform="translate(-772.08 -352.05)"/><path class="cls-1" d="M814.33,468.65a2.83,2.83,0,1,0-2.18-3.37A2.82,2.82,0,0,0,814.33,468.65Z" transform="translate(-772.08 -352.05)"/><path class="cls-1" d="M832.52,474.17a4.41,4.41,0,1,0-3.39-5.24h0A4.41,4.41,0,0,0,832.52,474.17Z" transform="translate(-772.08 -352.05)"/><path class="cls-1" d="M850.71,479.65a5.93,5.93,0,1,0-4.54-7.06h0a5.94,5.94,0,0,0,4.54,7Z" transform="translate(-772.08 -352.05)"/><path class="cls-1" d="M868.9,485.19a7.51,7.51,0,1,0-5.76-8.93h0a7.5,7.5,0,0,0,5.75,8.92Z" transform="translate(-772.08 -352.05)"/><path class="cls-1" d="M887.1,490.67a9,9,0,1,0-6.94-10.74,9,9,0,0,0,6.94,10.74Z" transform="translate(-772.08 -352.05)"/><path class="cls-1" d="M905.31,496.05a10.46,10.46,0,1,0-8-12.43A10.46,10.46,0,0,0,905.31,496.05Z" transform="translate(-772.08 -352.05)"/><path class="cls-1" d="M923.58,501.28a11.72,11.72,0,1,0-9-13.93,11.72,11.72,0,0,0,9,13.93Z" transform="translate(-772.08 -352.05)"/><path class="cls-1" d="M942.08,505.26a11.72,11.72,0,1,0-9-13.92h0A11.74,11.74,0,0,0,942.08,505.26Z" transform="translate(-772.08 -352.05)"/><path class="cls-1" d="M960.6,509.25a11.72,11.72,0,1,0-9-13.94v0A11.73,11.73,0,0,0,960.6,509.25Z" transform="translate(-772.08 -352.05)"/><path class="cls-1" d="M979.13,513.24a11.71,11.71,0,1,0-9-13.92,11.72,11.72,0,0,0,9,13.92Z" transform="translate(-772.08 -352.05)"/><path class="cls-1" d="M997.65,517.22a11.71,11.71,0,1,0-9-13.92,11.71,11.71,0,0,0,9,13.92Z" transform="translate(-772.08 -352.05)"/><path class="cls-1" d="M1016.34,520.39a10.87,10.87,0,1,0-8.34-12.91A10.87,10.87,0,0,0,1016.34,520.39Z" transform="translate(-772.08 -352.05)"/><path class="cls-1" d="M1035.15,523.05a9.51,9.51,0,1,0-7.29-11.31A9.52,9.52,0,0,0,1035.15,523.05Z" transform="translate(-772.08 -352.05)"/><path class="cls-1" d="M1054,525.6a8,8,0,1,0-6.17-9.55,8,8,0,0,0,6.17,9.55Z" transform="translate(-772.08 -352.05)"/><path class="cls-1" d="M1072.83,528.05a6.46,6.46,0,1,0-5-7.69,6.46,6.46,0,0,0,5,7.69Z" transform="translate(-772.08 -352.05)"/><path class="cls-1" d="M1091.66,530.55a4.94,4.94,0,1,0-3.78-5.87A4.93,4.93,0,0,0,1091.66,530.55Z" transform="translate(-772.08 -352.05)"/><path class="cls-1" d="M1110.51,533a3.36,3.36,0,1,0-2.57-4h0a3.37,3.37,0,0,0,2.57,4Z" transform="translate(-772.08 -352.05)"/><path class="cls-1" d="M1129.36,535.45a1.79,1.79,0,1,0,.88-3.47l-.13,0a1.79,1.79,0,0,0-.75,3.49Z" transform="translate(-772.08 -352.05)"/><path class="cls-1" d="M1148.22,537.84a.16.16,0,0,0,.19-.12.15.15,0,0,0-.11-.18h0a.15.15,0,0,0-.18.1v0a.15.15,0,0,0,.11.18Z" transform="translate(-772.08 -352.05)"/><path class="cls-1" d="M792.1,481.9a1.52,1.52,0,0,0,.62-3,1.52,1.52,0,0,0-.63,3Z" transform="translate(-772.08 -352.05)"/><path class="cls-1" d="M810.27,487.48a3.14,3.14,0,1,0-2.42-3.75,3.13,3.13,0,0,0,2.42,3.75Z" transform="translate(-772.08 -352.05)"/><path class="cls-1" d="M828.45,493.07a4.78,4.78,0,1,0-3.67-5.69,4.79,4.79,0,0,0,3.67,5.69Z" transform="translate(-772.08 -352.05)"/><path class="cls-1" d="M846.62,498.65a6.41,6.41,0,1,0-4.91-7.62h0A6.41,6.41,0,0,0,846.62,498.65Z" transform="translate(-772.08 -352.05)"/><path class="cls-1" d="M864.8,504.22a8,8,0,1,0-6.17-9.55,8,8,0,0,0,6.17,9.55Z" transform="translate(-772.08 -352.05)"/><path class="cls-1" d="M883,509.76a9.61,9.61,0,1,0-7.38-11.43A9.61,9.61,0,0,0,883,509.76Z" transform="translate(-772.08 -352.05)"/><path class="cls-1" d="M901.17,515.29A11.19,11.19,0,1,0,892.6,502a11.2,11.2,0,0,0,8.57,13.31Z" transform="translate(-772.08 -352.05)"/><path class="cls-1" d="M919.59,519.79a11.71,11.71,0,1,0-9-13.92,11.72,11.72,0,0,0,9,13.92Z" transform="translate(-772.08 -352.05)"/><path class="cls-1" d="M938.1,523.78a11.71,11.71,0,1,0-9-13.93h0A11.72,11.72,0,0,0,938.1,523.78Z" transform="translate(-772.08 -352.05)"/><path class="cls-1" d="M956.61,527.77a11.71,11.71,0,1,0-9-13.93h0A11.72,11.72,0,0,0,956.61,527.77Z" transform="translate(-772.08 -352.05)"/><path class="cls-1" d="M975.14,531.76a11.72,11.72,0,1,0-9-13.93,11.72,11.72,0,0,0,9,13.93Z" transform="translate(-772.08 -352.05)"/><path class="cls-1" d="M993.66,535.75a11.71,11.71,0,1,0-9-13.93,11.72,11.72,0,0,0,9,13.93Z" transform="translate(-772.08 -352.05)"/><path class="cls-1" d="M1012.18,539.74a11.71,11.71,0,1,0-9-13.93,11.71,11.71,0,0,0,9,13.93Z" transform="translate(-772.08 -352.05)"/><path class="cls-1" d="M1031,542.19a10.14,10.14,0,1,0-7.79-12.06,10.13,10.13,0,0,0,7.79,12.06Z" transform="translate(-772.08 -352.05)"/><path class="cls-1" d="M1049.88,544.62a8.56,8.56,0,1,0-6.56-10.17,8.55,8.55,0,0,0,6.56,10.17Z" transform="translate(-772.08 -352.05)"/><path class="cls-1" d="M1068.74,547a6.94,6.94,0,1,0-5.32-8.25h0A6.94,6.94,0,0,0,1068.74,547Z" transform="translate(-772.08 -352.05)"/><path class="cls-1" d="M1087.6,549.43a5.31,5.31,0,1,0-4-6.32h0A5.31,5.31,0,0,0,1087.6,549.43Z" transform="translate(-772.08 -352.05)"/><path class="cls-1" d="M1106.44,551.88a3.73,3.73,0,1,0-2.86-4.44,3.74,3.74,0,0,0,2.86,4.44Z" transform="translate(-772.08 -352.05)"/><path class="cls-1" d="M1125.31,554.27a2.1,2.1,0,1,0-1.6-2.51h0A2.1,2.1,0,0,0,1125.31,554.27Z" transform="translate(-772.08 -352.05)"/><path class="cls-1" d="M1144.18,556.62a.41.41,0,0,0,.5-.31.42.42,0,0,0-.31-.51.42.42,0,1,0-.19.82Z" transform="translate(-772.08 -352.05)"/><path class="cls-1" d="M788.09,500.52a1.63,1.63,0,1,0-1.25-2,1.63,1.63,0,0,0,1.25,2Z" transform="translate(-772.08 -352.05)"/><path class="cls-1" d="M806.25,506.16a3.31,3.31,0,1,0-2.54-3.94,3.32,3.32,0,0,0,2.54,3.94Z" transform="translate(-772.08 -352.05)"/><path class="cls-1" d="M824.43,511.74a4.94,4.94,0,1,0-3.79-5.87,4.94,4.94,0,0,0,3.79,5.87Z" transform="translate(-772.08 -352.05)"/><path class="cls-1" d="M842.6,517.31a6.56,6.56,0,1,0-5-7.8A6.56,6.56,0,0,0,842.6,517.31Z" transform="translate(-772.08 -352.05)"/><path class="cls-1" d="M860.78,522.9a8.19,8.19,0,1,0-6.29-9.74A8.2,8.2,0,0,0,860.78,522.9Z" transform="translate(-772.08 -352.05)"/><path class="cls-1" d="M878.94,528.53a9.88,9.88,0,1,0-7.57-11.74,9.87,9.87,0,0,0,7.57,11.74Z" transform="translate(-772.08 -352.05)"/><path class="cls-1" d="M897.12,534.11a11.5,11.5,0,1,0-8.82-13.67h0A11.51,11.51,0,0,0,897.12,534.11Z" transform="translate(-772.08 -352.05)"/><path class="cls-1" d="M915.6,538.31a11.71,11.71,0,1,0-9-13.93,11.72,11.72,0,0,0,9,13.93Z" transform="translate(-772.08 -352.05)"/><path class="cls-1" d="M934.1,542.3a11.72,11.72,0,1,0-9-13.93h0A11.72,11.72,0,0,0,934.1,542.3Z" transform="translate(-772.08 -352.05)"/><path class="cls-1" d="M952.63,546.29a11.72,11.72,0,1,0-9-13.93h0A11.71,11.71,0,0,0,952.63,546.29Z" transform="translate(-772.08 -352.05)"/><path class="cls-1" d="M971.15,550.28a11.71,11.71,0,1,0-9-13.93,11.72,11.72,0,0,0,9,13.93Z" transform="translate(-772.08 -352.05)"/><path class="cls-1" d="M989.67,554.27a11.72,11.72,0,1,0-9-13.93,11.71,11.71,0,0,0,9,13.93Z" transform="translate(-772.08 -352.05)"/><path class="cls-1" d="M1008.19,558.26a11.72,11.72,0,1,0-9-13.93,11.71,11.71,0,0,0,9,13.93Z" transform="translate(-772.08 -352.05)"/><path class="cls-1" d="M1027,561a10.45,10.45,0,1,0-8-12.43h0a10.45,10.45,0,0,0,8,12.42Z" transform="translate(-772.08 -352.05)"/><path class="cls-1" d="M1045.84,563.36a8.77,8.77,0,1,0-6.72-10.43h0A8.78,8.78,0,0,0,1045.84,563.36Z" transform="translate(-772.08 -352.05)"/><path class="cls-1" d="M1064.7,565.76a7.14,7.14,0,1,0-5.48-8.49A7.15,7.15,0,0,0,1064.7,565.76Z" transform="translate(-772.08 -352.05)"/><path class="cls-1" d="M1083.58,568.11a5.48,5.48,0,1,0-4.19-6.52v0A5.48,5.48,0,0,0,1083.58,568.11Z" transform="translate(-772.08 -352.05)"/><path class="cls-1" d="M1102.43,570.5a3.84,3.84,0,1,0-2.93-4.57h0A3.86,3.86,0,0,0,1102.43,570.5Z" transform="translate(-772.08 -352.05)"/><path class="cls-1" d="M1121.3,572.89a2.2,2.2,0,1,0-1.7-2.63,2.2,2.2,0,0,0,1.7,2.63Z" transform="translate(-772.08 -352.05)"/><path class="cls-1" d="M1140.16,575.29a.59.59,0,0,0,.68-.45.57.57,0,1,0-.69.45Z" transform="translate(-772.08 -352.05)"/><path class="cls-1" d="M784.11,519a1.57,1.57,0,1,0-1.21-1.88,1.57,1.57,0,0,0,1.21,1.88Z" transform="translate(-772.08 -352.05)"/><path class="cls-1" d="M802.28,524.57a3.2,3.2,0,1,0-2.46-3.81,3.2,3.2,0,0,0,2.46,3.81Z" transform="translate(-772.08 -352.05)"/><path class="cls-1" d="M820.46,530.14a4.83,4.83,0,1,0-3.7-5.74h0A4.83,4.83,0,0,0,820.46,530.14Z" transform="translate(-772.08 -352.05)"/><path class="cls-1" d="M838.63,535.73a6.46,6.46,0,1,0-5-7.68h0A6.47,6.47,0,0,0,838.63,535.73Z" transform="translate(-772.08 -352.05)"/><path class="cls-1" d="M856.8,541.36a8.14,8.14,0,1,0-6.26-9.67,8.13,8.13,0,0,0,6.26,9.67Z" transform="translate(-772.08 -352.05)"/><path class="cls-1" d="M875,546.9a9.72,9.72,0,1,0-7.43-11.56h0A9.71,9.71,0,0,0,875,546.9Z" transform="translate(-772.08 -352.05)"/><path class="cls-1" d="M893.16,552.47A11.35,11.35,0,1,0,884.47,539h0A11.35,11.35,0,0,0,893.16,552.47Z" transform="translate(-772.08 -352.05)"/><path class="cls-1" d="M911.61,556.83a11.71,11.71,0,1,0-9-13.92,11.72,11.72,0,0,0,9,13.92Z" transform="translate(-772.08 -352.05)"/><path class="cls-1" d="M930.11,560.82a11.71,11.71,0,1,0-9-13.93h0A11.74,11.74,0,0,0,930.11,560.82Z" transform="translate(-772.08 -352.05)"/><path class="cls-1" d="M948.64,564.8a11.71,11.71,0,1,0-9-13.91,11.7,11.7,0,0,0,9,13.91Z" transform="translate(-772.08 -352.05)"/><path class="cls-1" d="M967.16,568.8a11.72,11.72,0,1,0-9-13.93,11.72,11.72,0,0,0,9,13.93Z" transform="translate(-772.08 -352.05)"/><path class="cls-1" d="M985.69,572.81a11.72,11.72,0,1,0-9-13.93,11.72,11.72,0,0,0,9,13.93Z" transform="translate(-772.08 -352.05)"/><path class="cls-1" d="M1004.2,576.77a11.71,11.71,0,1,0-9-13.92,11.7,11.7,0,0,0,9,13.92Z" transform="translate(-772.08 -352.05)"/><path class="cls-1" d="M1023,579.38a10.3,10.3,0,1,0-7.89-12.24h0A10.3,10.3,0,0,0,1023,579.38Z" transform="translate(-772.08 -352.05)"/><path class="cls-1" d="M1041.88,581.77a8.66,8.66,0,1,0-6.66-10.3A8.66,8.66,0,0,0,1041.88,581.77Z" transform="translate(-772.08 -352.05)"/><path class="cls-1" d="M1060.73,584.16a7.05,7.05,0,1,0-5.39-8.38v0A7,7,0,0,0,1060.73,584.16Z" transform="translate(-772.08 -352.05)"/><path class="cls-1" d="M1079.6,586.57a5.41,5.41,0,1,0-4.15-6.43A5.4,5.4,0,0,0,1079.6,586.57Z" transform="translate(-772.08 -352.05)"/><path class="cls-1" d="M1098.46,589a3.78,3.78,0,1,0-2.9-4.49h0A3.78,3.78,0,0,0,1098.46,589Z" transform="translate(-772.08 -352.05)"/><path class="cls-1" d="M1117.32,591.36a2.15,2.15,0,1,0-1.65-2.56,2.16,2.16,0,0,0,1.65,2.56Z" transform="translate(-772.08 -352.05)"/><path class="cls-1" d="M1136.19,593.71a.48.48,0,0,0,.57-.36.48.48,0,0,0-.36-.56.47.47,0,0,0-.22.92Z" transform="translate(-772.08 -352.05)"/><path class="cls-1" d="M780.17,537.3a1.37,1.37,0,1,0-1-1.63h0A1.36,1.36,0,0,0,780.17,537.3Z" transform="translate(-772.08 -352.05)"/><path class="cls-1" d="M798.34,542.88a3,3,0,1,0-2.29-3.56h0A3,3,0,0,0,798.34,542.88Z" transform="translate(-772.08 -352.05)"/><path class="cls-1" d="M816.53,548.42A4.57,4.57,0,1,0,813,543a4.58,4.58,0,0,0,3.52,5.44Z" transform="translate(-772.08 -352.05)"/><path class="cls-1" d="M834.71,553.94a6.15,6.15,0,1,0-4.69-7.31h0A6.15,6.15,0,0,0,834.71,553.94Z" transform="translate(-772.08 -352.05)"/><path class="cls-1" d="M852.9,559.47A7.72,7.72,0,1,0,847,550.3h0a7.71,7.71,0,0,0,5.92,9.17Z" transform="translate(-772.08 -352.05)"/><path class="cls-1" d="M871.1,565A9.24,9.24,0,1,0,864,554v0A9.25,9.25,0,0,0,871.1,565Z" transform="translate(-772.08 -352.05)"/><path class="cls-1" d="M889.3,570.38a10.72,10.72,0,1,0-8.22-12.74h0a10.71,10.71,0,0,0,8.21,12.73Z" transform="translate(-772.08 -352.05)"/><path class="cls-1" d="M907.62,575.35a11.72,11.72,0,1,0-9-13.92,11.72,11.72,0,0,0,9,13.92Z" transform="translate(-772.08 -352.05)"/><path class="cls-1" d="M926.13,579.33a11.71,11.71,0,1,0-9-13.93v0A11.72,11.72,0,0,0,926.13,579.33Z" transform="translate(-772.08 -352.05)"/><path class="cls-1" d="M944.65,583.32a11.71,11.71,0,1,0-9-13.92h0A11.72,11.72,0,0,0,944.65,583.32Z" transform="translate(-772.08 -352.05)"/><path class="cls-1" d="M963.17,587.31a11.72,11.72,0,1,0-9-13.92,11.72,11.72,0,0,0,9,13.92Z" transform="translate(-772.08 -352.05)"/><path class="cls-1" d="M981.69,591.3a11.72,11.72,0,1,0-9-13.92,11.72,11.72,0,0,0,9,13.92Z" transform="translate(-772.08 -352.05)"/><path class="cls-1" d="M1000.32,594.78a11.19,11.19,0,1,0-8.59-13.31,11.19,11.19,0,0,0,8.59,13.31Z" transform="translate(-772.08 -352.05)"/><path class="cls-1" d="M1019.15,597.33a9.72,9.72,0,1,0-7.44-11.56h0a9.71,9.71,0,0,0,7.44,11.55Z" transform="translate(-772.08 -352.05)"/><path class="cls-1" d="M1038,599.81a8.19,8.19,0,1,0-6.29-9.73,8.2,8.2,0,0,0,6.29,9.73Z" transform="translate(-772.08 -352.05)"/><path class="cls-1" d="M1056.82,602.33a6.66,6.66,0,1,0-5.12-7.93A6.65,6.65,0,0,0,1056.82,602.33Z" transform="translate(-772.08 -352.05)"/><path class="cls-1" d="M1075.68,604.77a5.09,5.09,0,1,0-3.92-6,5.08,5.08,0,0,0,3.92,6Z" transform="translate(-772.08 -352.05)"/><path class="cls-1" d="M1094.51,607.25a3.52,3.52,0,1,0-2.7-4.19h0A3.52,3.52,0,0,0,1094.51,607.25Z" transform="translate(-772.08 -352.05)"/><path class="cls-1" d="M1113.38,609.63a1.9,1.9,0,1,0-1.44-2.26h0a1.87,1.87,0,0,0,1.43,2.24Z" transform="translate(-772.08 -352.05)"/><path class="cls-1" d="M1132.24,612a.27.27,0,0,0,.32-.2.26.26,0,0,0-.23-.29.26.26,0,0,0-.28.18A.27.27,0,0,0,1132.24,612Z" transform="translate(-772.08 -352.05)"/><path class="cls-1" d="M776.28,555.42a1,1,0,0,0,1.13-.73.95.95,0,0,0-1.85-.4A1,1,0,0,0,776.28,555.42Z" transform="translate(-772.08 -352.05)"/><path class="cls-1" d="M794.45,560.94a2.52,2.52,0,1,0-1.93-3A2.51,2.51,0,0,0,794.45,560.94Z" transform="translate(-772.08 -352.05)"/><path class="cls-1" d="M812.65,566.42a4,4,0,1,0-3.1-4.81h0A4.06,4.06,0,0,0,812.65,566.42Z" transform="translate(-772.08 -352.05)"/><path class="cls-1" d="M830.84,571.89a5.57,5.57,0,1,0-4.27-6.61h0A5.57,5.57,0,0,0,830.84,571.89Z" transform="translate(-772.08 -352.05)"/><path class="cls-1" d="M849.05,577.32a7,7,0,1,0-5.4-8.37h0A7,7,0,0,0,849.05,577.32Z" transform="translate(-772.08 -352.05)"/><path class="cls-1" d="M867.27,582.7a8.45,8.45,0,1,0-6.48-10.05h0a8.44,8.44,0,0,0,6.47,10Z" transform="translate(-772.08 -352.05)"/><path class="cls-1" d="M885.52,587.92a9.72,9.72,0,1,0-7.43-11.56h0A9.73,9.73,0,0,0,885.52,587.92Z" transform="translate(-772.08 -352.05)"/><path class="cls-1" d="M903.81,593.05a10.88,10.88,0,1,0-8.35-12.92,10.89,10.89,0,0,0,8.35,12.92Z" transform="translate(-772.08 -352.05)"/><path class="cls-1" d="M922.14,597.86a11.71,11.71,0,1,0-9-13.93h0A11.72,11.72,0,0,0,922.14,597.86Z" transform="translate(-772.08 -352.05)"/><path class="cls-1" d="M940.68,601.84a11.71,11.71,0,1,0-9-13.92,11.72,11.72,0,0,0,9,13.92Z" transform="translate(-772.08 -352.05)"/><path class="cls-1" d="M959.19,605.83a11.71,11.71,0,1,0-9-13.92,11.71,11.71,0,0,0,9,13.92Z" transform="translate(-772.08 -352.05)"/><path class="cls-1" d="M977.81,609.31A11.19,11.19,0,1,0,969.23,596a11.18,11.18,0,0,0,8.58,13.31Z" transform="translate(-772.08 -352.05)"/><path class="cls-1" d="M996.55,612.26a10.14,10.14,0,1,0-7.78-12h0a10.13,10.13,0,0,0,7.77,12Z" transform="translate(-772.08 -352.05)"/><path class="cls-1" d="M1015.33,615a8.88,8.88,0,1,0-6.8-10.57,8.88,8.88,0,0,0,6.8,10.57Z" transform="translate(-772.08 -352.05)"/><path class="cls-1" d="M1034.14,617.68a7.51,7.51,0,1,0-5.76-8.93,7.49,7.49,0,0,0,5.76,8.93Z" transform="translate(-772.08 -352.05)"/><path class="cls-1" d="M1053,620.23a6,6,0,1,0-4.65-7.18,6,6,0,0,0,4.65,7.18Z" transform="translate(-772.08 -352.05)"/><path class="cls-1" d="M1071.8,622.78a4.57,4.57,0,1,0-3.52-5.43,4.58,4.58,0,0,0,3.52,5.43Z" transform="translate(-772.08 -352.05)"/><path class="cls-1" d="M1090.63,625.27a3,3,0,1,0-2.35-3.61,3,3,0,0,0,2.35,3.61Z" transform="translate(-772.08 -352.05)"/><path class="cls-1" d="M1109.49,627.73a1.47,1.47,0,1,0-1.13-1.75A1.47,1.47,0,0,0,1109.49,627.73Z" transform="translate(-772.08 -352.05)"/><path class="cls-1" d="M772.4,573.36a.36.36,0,0,0,.41-.31.37.37,0,0,0-.72-.16.36.36,0,0,0,.25.46Z" transform="translate(-772.08 -352.05)"/><path class="cls-1" d="M790.59,578.84a1.89,1.89,0,1,0-1.44-2.25h0a1.87,1.87,0,0,0,1.43,2.25Z" transform="translate(-772.08 -352.05)"/><path class="cls-1" d="M808.8,584.27a3.36,3.36,0,1,0-2.57-4,3.36,3.36,0,0,0,2.57,4Z" transform="translate(-772.08 -352.05)"/><path class="cls-1" d="M827,589.64a4.78,4.78,0,1,0-3.66-5.69A4.78,4.78,0,0,0,827,589.64Z" transform="translate(-772.08 -352.05)"/><path class="cls-1" d="M845.25,595a6.15,6.15,0,1,0-4.7-7.31h0A6.15,6.15,0,0,0,845.25,595Z" transform="translate(-772.08 -352.05)"/><path class="cls-1" d="M863.5,600.2a7.41,7.41,0,1,0-5.67-8.81h0A7.41,7.41,0,0,0,863.5,600.2Z" transform="translate(-772.08 -352.05)"/><path class="cls-1" d="M881.78,605.29a8.56,8.56,0,1,0-6.56-10.17h0A8.56,8.56,0,0,0,881.78,605.29Z" transform="translate(-772.08 -352.05)"/><path class="cls-1" d="M900.11,610.22a9.5,9.5,0,1,0-7.29-11.29,9.5,9.5,0,0,0,7.29,11.29Z" transform="translate(-772.08 -352.05)"/><path class="cls-1" d="M918.48,614.83a10.14,10.14,0,1,0-7.76-12.06h0A10.16,10.16,0,0,0,918.48,614.83Z" transform="translate(-772.08 -352.05)"/><path class="cls-1" d="M936.93,619.13a10.45,10.45,0,1,0-8-12.43h0A10.46,10.46,0,0,0,936.93,619.13Z" transform="translate(-772.08 -352.05)"/><path class="cls-1" d="M955.49,623a10.29,10.29,0,1,0-7.9-12.23,10.3,10.3,0,0,0,7.9,12.23Z" transform="translate(-772.08 -352.05)"/><path class="cls-1" d="M974.13,626.38a9.72,9.72,0,1,0-7.46-11.54,9.71,9.71,0,0,0,7.46,11.54Z" transform="translate(-772.08 -352.05)"/><path class="cls-1" d="M992.83,629.56A8.88,8.88,0,1,0,986,619a8.87,8.87,0,0,0,6.81,10.57Z" transform="translate(-772.08 -352.05)"/><path class="cls-1" d="M1011.58,632.46a7.77,7.77,0,1,0-6-9.24,7.76,7.76,0,0,0,6,9.24Z" transform="translate(-772.08 -352.05)"/><path class="cls-1" d="M1030.35,635.28a6.57,6.57,0,1,0-5-7.81A6.57,6.57,0,0,0,1030.35,635.28Z" transform="translate(-772.08 -352.05)"/><path class="cls-1" d="M1049.14,638a5.25,5.25,0,1,0-4-6.24h0A5.27,5.27,0,0,0,1049.14,638Z" transform="translate(-772.08 -352.05)"/><path class="cls-1" d="M1068,640.58A3.83,3.83,0,1,0,1065,636a3.84,3.84,0,0,0,2.94,4.56Z" transform="translate(-772.08 -352.05)"/><path class="cls-1" d="M1086.78,643.18a2.41,2.41,0,1,0-1.85-2.87h0a2.41,2.41,0,0,0,1.83,2.87Z" transform="translate(-772.08 -352.05)"/><path class="cls-1" d="M1105.61,645.68a.89.89,0,1,0-.68-1.06h0a.89.89,0,0,0,.68,1.06Z" transform="translate(-772.08 -352.05)"/><path class="cls-1" d="M786.76,596.63a1.14,1.14,0,0,0,1.36-.88,1.15,1.15,0,1,0-2.25-.48h0A1.14,1.14,0,0,0,786.76,596.63Z" transform="translate(-772.08 -352.05)"/><path class="cls-1" d="M805,602a2.52,2.52,0,1,0-2-3,2.52,2.52,0,0,0,2,3Z" transform="translate(-772.08 -352.05)"/><path class="cls-1" d="M823.23,607.25a3.84,3.84,0,1,0-2.94-4.56h0A3.83,3.83,0,0,0,823.23,607.25Z" transform="translate(-772.08 -352.05)"/><path class="cls-1" d="M841.48,612.46a5.09,5.09,0,1,0-3.91-6,5.08,5.08,0,0,0,3.91,6Z" transform="translate(-772.08 -352.05)"/><path class="cls-1" d="M859.77,617.52a6.2,6.2,0,1,0-4.75-7.37v0A6.18,6.18,0,0,0,859.77,617.52Z" transform="translate(-772.08 -352.05)"/><path class="cls-1" d="M878.08,622.49a7.19,7.19,0,1,0-5.5-8.56v0A7.19,7.19,0,0,0,878.08,622.49Z" transform="translate(-772.08 -352.05)"/><path class="cls-1" d="M896.45,627.31a8,8,0,1,0-6.17-9.55,8,8,0,0,0,6.17,9.55Z" transform="translate(-772.08 -352.05)"/><path class="cls-1" d="M914.82,631.8a8.56,8.56,0,1,0-6.56-10.18h0a8.56,8.56,0,0,0,6.56,10.17Z" transform="translate(-772.08 -352.05)"/><path class="cls-1" d="M933.3,636a8.77,8.77,0,1,0-6.71-10.44v0A8.77,8.77,0,0,0,933.3,636Z" transform="translate(-772.08 -352.05)"/><path class="cls-1" d="M951.85,639.89a8.67,8.67,0,1,0-6.65-10.3h0a8.65,8.65,0,0,0,6.63,10.28Z" transform="translate(-772.08 -352.05)"/><path class="cls-1" d="M970.47,643.42a8.19,8.19,0,1,0-6.31-9.73,8.2,8.2,0,0,0,6.31,9.73Z" transform="translate(-772.08 -352.05)"/><path class="cls-1" d="M989.12,646.74a7.52,7.52,0,1,0-5.75-8.93h0A7.53,7.53,0,0,0,989.12,646.74Z" transform="translate(-772.08 -352.05)"/><path class="cls-1" d="M1007.84,649.8a6.56,6.56,0,1,0-5-7.79h0A6.56,6.56,0,0,0,1007.84,649.8Z" transform="translate(-772.08 -352.05)"/><path class="cls-1" d="M1026.6,652.71a5.48,5.48,0,1,0-4.19-6.52v0A5.48,5.48,0,0,0,1026.6,652.71Z" transform="translate(-772.08 -352.05)"/><path class="cls-1" d="M1045.36,655.52a4.26,4.26,0,1,0-3.25-5.06h0A4.24,4.24,0,0,0,1045.36,655.52Z" transform="translate(-772.08 -352.05)"/><path class="cls-1" d="M1064.15,658.28a3,3,0,1,0-2.3-3.56h0A3,3,0,0,0,1064.15,658.28Z" transform="translate(-772.08 -352.05)"/><path class="cls-1" d="M1083,660.87a1.56,1.56,0,1,0-1.21-1.86,1.57,1.57,0,0,0,1.21,1.86Z" transform="translate(-772.08 -352.05)"/><path class="cls-1" d="M1101.78,663.48a.15.15,0,1,0-.12-.18h0a.16.16,0,0,0,.12.18Z" transform="translate(-772.08 -352.05)"/><path class="cls-1" d="M783,614.24a.21.21,0,1,0-.17-.25h0A.22.22,0,0,0,783,614.24Z" transform="translate(-772.08 -352.05)"/><path class="cls-1" d="M801.21,619.51A1.52,1.52,0,1,0,800,617.7,1.53,1.53,0,0,0,801.21,619.51Z" transform="translate(-772.08 -352.05)"/><path class="cls-1" d="M819.46,624.73a2.79,2.79,0,1,0-2.13-3.31h0a2.77,2.77,0,0,0,2.13,3.29Z" transform="translate(-772.08 -352.05)"/><path class="cls-1" d="M837.74,629.8a3.89,3.89,0,1,0-3-4.62h0A3.93,3.93,0,0,0,837.74,629.8Z" transform="translate(-772.08 -352.05)"/><path class="cls-1" d="M856.05,634.82a4.94,4.94,0,1,0-3.79-5.87,5,5,0,0,0,3.79,5.87Z" transform="translate(-772.08 -352.05)"/><path class="cls-1" d="M874.38,639.62a5.78,5.78,0,1,0-4.42-6.87v0A5.77,5.77,0,0,0,874.38,639.62Z" transform="translate(-772.08 -352.05)"/><path class="cls-1" d="M892.77,644.29a6.46,6.46,0,1,0-5-7.68,6.46,6.46,0,0,0,5,7.68Z" transform="translate(-772.08 -352.05)"/><path class="cls-1" d="M911.18,648.74a6.93,6.93,0,1,0-5.34-8.23h0A6.94,6.94,0,0,0,911.18,648.74Z" transform="translate(-772.08 -352.05)"/><path class="cls-1" d="M929.65,652.92a7.14,7.14,0,1,0-5.47-8.48h0A7.14,7.14,0,0,0,929.65,652.92Z" transform="translate(-772.08 -352.05)"/><path class="cls-1" d="M948.2,656.82a7,7,0,1,0-5.4-8.38v0A7.06,7.06,0,0,0,948.2,656.82Z" transform="translate(-772.08 -352.05)"/><path class="cls-1" d="M966.8,660.44a6.65,6.65,0,1,0-5.13-7.91,6.65,6.65,0,0,0,5.13,7.91Z" transform="translate(-772.08 -352.05)"/><path class="cls-1" d="M985.45,663.82a6,6,0,1,0-4.64-7.18h0A6,6,0,0,0,985.45,663.82Z" transform="translate(-772.08 -352.05)"/><path class="cls-1" d="M1004.13,667a5.25,5.25,0,1,0-4-6.23h0a5.24,5.24,0,0,0,4,6.23Z" transform="translate(-772.08 -352.05)"/><path class="cls-1" d="M1022.88,670.05a4.25,4.25,0,1,0-3.28-5h0a4.24,4.24,0,0,0,3.25,5Z" transform="translate(-772.08 -352.05)"/><path class="cls-1" d="M1041.61,673a3.16,3.16,0,1,0-2.42-3.75h0A3.16,3.16,0,0,0,1041.61,673Z" transform="translate(-772.08 -352.05)"/><path class="cls-1" d="M1060.38,675.77a2,2,0,1,0-1.49-2.33v0A2,2,0,0,0,1060.38,675.77Z" transform="translate(-772.08 -352.05)"/><path class="cls-1" d="M1079.17,678.49a.63.63,0,0,0,.75-.48.63.63,0,1,0-1.2-.35l0,.08A.64.64,0,0,0,1079.17,678.49Z" transform="translate(-772.08 -352.05)"/><path class="cls-1" d="M797.46,637a.42.42,0,0,0,.49-.32.42.42,0,1,0-.5.32Z" transform="translate(-772.08 -352.05)"/><path class="cls-1" d="M815.73,642.09a1.57,1.57,0,1,0-1.21-1.88,1.58,1.58,0,0,0,1.21,1.88Z" transform="translate(-772.08 -352.05)"/><path class="cls-1" d="M834,647.14a2.68,2.68,0,1,0-2-3.19A2.69,2.69,0,0,0,834,647.14Z" transform="translate(-772.08 -352.05)"/><path class="cls-1" d="M852.34,652a3.58,3.58,0,1,0-2.73-4.25h0a3.58,3.58,0,0,0,2.73,4.24Z" transform="translate(-772.08 -352.05)"/><path class="cls-1" d="M870.69,656.76a4.36,4.36,0,1,0-3.34-5.18A4.36,4.36,0,0,0,870.69,656.76Z" transform="translate(-772.08 -352.05)"/><path class="cls-1" d="M889.1,661.31a4.93,4.93,0,1,0-3.79-5.87,4.94,4.94,0,0,0,3.79,5.87Z" transform="translate(-772.08 -352.05)"/><path class="cls-1" d="M907.53,665.66a5.3,5.3,0,1,0-4.06-6.31h0A5.3,5.3,0,0,0,907.53,665.66Z" transform="translate(-772.08 -352.05)"/><path class="cls-1" d="M926,669.81a5.48,5.48,0,1,0-4.17-6.54v.05A5.48,5.48,0,0,0,926,669.81Z" transform="translate(-772.08 -352.05)"/><path class="cls-1" d="M944.55,673.74a5.41,5.41,0,1,0-4.16-6.43,5.41,5.41,0,0,0,4.16,6.43Z" transform="translate(-772.08 -352.05)"/><path class="cls-1" d="M963.14,677.43a5.09,5.09,0,1,0-3.92-6.06,5.08,5.08,0,0,0,3.92,6.06Z" transform="translate(-772.08 -352.05)"/><path class="cls-1" d="M981.78,680.9a4.57,4.57,0,1,0-3.52-5.43,4.57,4.57,0,0,0,3.52,5.43Z" transform="translate(-772.08 -352.05)"/><path class="cls-1" d="M1000.44,684.17a3.83,3.83,0,1,0-3-4.55,3.82,3.82,0,0,0,3,4.55Z" transform="translate(-772.08 -352.05)"/><path class="cls-1" d="M1019.13,687.33a3,3,0,1,0-2.29-3.55A3,3,0,0,0,1019.13,687.33Z" transform="translate(-772.08 -352.05)"/><path class="cls-1" d="M1037.87,690.3a2,2,0,1,0-1.48-2.33v0A2,2,0,0,0,1037.87,690.3Z" transform="translate(-772.08 -352.05)"/><path class="cls-1" d="M1056.62,693.21a.84.84,0,1,0-.64-1,.84.84,0,0,0,.64,1Z" transform="translate(-772.08 -352.05)"/><path class="cls-1" d="M812,659.36a.32.32,0,1,0-.24-.4.32.32,0,0,0,.22.39Z" transform="translate(-772.08 -352.05)"/><path class="cls-1" d="M830.3,664.31a1.3,1.3,0,0,0,1.56-1,1.31,1.31,0,0,0-2.56-.56,1.3,1.3,0,0,0,1,1.56Z" transform="translate(-772.08 -352.05)"/><path class="cls-1" d="M848.65,669.13a2.15,2.15,0,1,0-1.64-2.56h0a2.15,2.15,0,0,0,1.64,2.56Z" transform="translate(-772.08 -352.05)"/><path class="cls-1" d="M867,673.79a2.84,2.84,0,1,0-2.17-3.38h0A2.83,2.83,0,0,0,867,673.79Z" transform="translate(-772.08 -352.05)"/><path class="cls-1" d="M885.45,678.29a3.36,3.36,0,1,0-2.59-4A3.35,3.35,0,0,0,885.45,678.29Z" transform="translate(-772.08 -352.05)"/><path class="cls-1" d="M903.89,682.63A3.73,3.73,0,1,0,901,678.2h0A3.72,3.72,0,0,0,903.89,682.63Z" transform="translate(-772.08 -352.05)"/><path class="cls-1" d="M922.37,686.73a3.83,3.83,0,1,0-2.94-4.56,3.83,3.83,0,0,0,2.94,4.56Z" transform="translate(-772.08 -352.05)"/><path class="cls-1" d="M940.91,690.67a3.78,3.78,0,1,0-2.91-4.5h0A3.79,3.79,0,0,0,940.91,690.67Z" transform="translate(-772.08 -352.05)"/><path class="cls-1" d="M959.47,694.4a3.52,3.52,0,1,0-2.69-4.2v0A3.53,3.53,0,0,0,959.47,694.4Z" transform="translate(-772.08 -352.05)"/><path class="cls-1" d="M978.1,697.93a3,3,0,1,0-2.35-3.62,3.06,3.06,0,0,0,2.35,3.62Z" transform="translate(-772.08 -352.05)"/><path class="cls-1" d="M996.75,701.3a2.41,2.41,0,1,0-1.85-2.87h0A2.42,2.42,0,0,0,996.75,701.3Z" transform="translate(-772.08 -352.05)"/><path class="cls-1" d="M1015.44,704.47a1.57,1.57,0,1,0-1.21-1.87,1.55,1.55,0,0,0,1.18,1.86Z" transform="translate(-772.08 -352.05)"/><path class="cls-1" d="M1034.16,707.53a.63.63,0,0,0,.27-1.23.63.63,0,1,0-.27,1.23Z" transform="translate(-772.08 -352.05)"/><path class="cls-1" d="M845,686.16a.63.63,0,0,0,.35-1.22l-.09,0a.63.63,0,0,0-.72.54A.64.64,0,0,0,845,686.16Z" transform="translate(-772.08 -352.05)"/><path class="cls-1" d="M863.36,690.81a1.32,1.32,0,0,0,1.57-1,1.33,1.33,0,0,0-1-1.57,1.31,1.31,0,0,0-1.56,1h0A1.3,1.3,0,0,0,863.36,690.81Z" transform="translate(-772.08 -352.05)"/><path class="cls-1" d="M881.79,695.27a1.78,1.78,0,1,0-1.38-2.13,1.79,1.79,0,0,0,1.38,2.13Z" transform="translate(-772.08 -352.05)"/><path class="cls-1" d="M900.23,699.57a2.1,2.1,0,1,0-1.6-2.51h0A2.1,2.1,0,0,0,900.23,699.57Z" transform="translate(-772.08 -352.05)"/><path class="cls-1" d="M918.72,703.66A2.21,2.21,0,1,0,917,701h0A2.22,2.22,0,0,0,918.72,703.66Z" transform="translate(-772.08 -352.05)"/><path class="cls-1" d="M937.26,707.6a2.16,2.16,0,1,0-1.65-2.57,2.15,2.15,0,0,0,1.65,2.57Z" transform="translate(-772.08 -352.05)"/><path class="cls-1" d="M955.83,711.33a1.89,1.89,0,1,0-1.44-2.25h0A1.9,1.9,0,0,0,955.83,711.33Z" transform="translate(-772.08 -352.05)"/><path class="cls-1" d="M974.44,714.89a1.47,1.47,0,1,0-1.13-1.75,1.46,1.46,0,0,0,1.13,1.75Z" transform="translate(-772.08 -352.05)"/><path class="cls-1" d="M993.08,718.33a.89.89,0,1,0,.38-1.74.89.89,0,0,0-1.06.68h0a.9.9,0,0,0,.68,1.06Z" transform="translate(-772.08 -352.05)"/><path class="cls-1" d="M1011.76,721.6a.16.16,0,1,0,.06-.31.16.16,0,1,0-.06.31Z" transform="translate(-772.08 -352.05)"/><path class="cls-1" d="M878.14,712.2a.15.15,0,0,0,.18-.12h0a.16.16,0,0,0-.11-.19.17.17,0,0,0-.19.12.15.15,0,0,0,.11.19Z" transform="translate(-772.08 -352.05)"/><path class="cls-1" d="M896.59,716.46a.42.42,0,0,0,.5-.32.42.42,0,1,0-.81-.19.4.4,0,0,0,.31.5Z" transform="translate(-772.08 -352.05)"/><path class="cls-1" d="M915.08,720.58a.57.57,0,0,0,.68-.44h0a.58.58,0,0,0-.45-.68.57.57,0,0,0-.68.45A.56.56,0,0,0,915.08,720.58Z" transform="translate(-772.08 -352.05)"/><path class="cls-1" d="M933.63,724.47a.47.47,0,0,0,.56-.37h0a.47.47,0,0,0-.36-.55.47.47,0,0,0-.56.36.48.48,0,0,0,.36.56Z" transform="translate(-772.08 -352.05)"/><path class="cls-1" d="M952.19,728.25a.26.26,0,0,0,.1-.52.28.28,0,0,0-.31.21.27.27,0,0,0,.21.31Z" transform="translate(-772.08 -352.05)"/></svg>