<?xml version="1.0" encoding="utf-8"?>
<!-- Generator: Adobe Illustrator 25.2.1, SVG Export Plug-In . SVG Version: 6.00 Build 0)  -->
<svg version="1.1" id="Layer_1" xmlns="http://www.w3.org/2000/svg" xmlns:xlink="http://www.w3.org/1999/xlink" x="0px" y="0px"
	 viewBox="0 0 595.3 841.9" style="enable-background:new 0 0 595.3 841.9;" xml:space="preserve">
<style type="text/css">
	.st0{fill:#FFFFFF;stroke:#2B4B9B;stroke-width:0.2978;stroke-miterlimit:10;}
	.st1{fill:#020203;}
</style>
<g>
	<g>
		<g>
			<path class="st0" d="M461.2,547.6c-3.3,24.6,25.9,50.5,50.7,74.8c-9.2-4.2-68.8-28.8-80.4-30.2c-11.6-1.5,7.5,22.1,7.5,22.1s-14.2-11.7-29.5-11.6c-15.3,0.1-3.5,25.4-3.5,25.4s-27.5-40.1-70.1-31.8c-11.4,2.2-20.4,17.6-27.4,37.7c-8.7-6.2-20.1-7.9-30.7-2.9c-1.9,0.9-3.6,2-5.3,3.3c-5.7-26.8-12.8-49.1-21.1-53.6c-23.1-12.3-31.2,44.3-31.2,44.3s-14.5-43.6-36.6-49.7c-22.1-6.1-69,18.7-103.4,43.5c22.4-31.9,68.2-97.5,50.8-138.5c-10.9-25.8-86.2-44.6-86.2-44.6s81.9-3.1,94.7-28c12.1-23.6-28.5-49.7-28.5-49.7s42.6,7.7,41.1-0.2c-1.5-7.9-10.9-12.5-17.7-17.3c11.3,2.9,30,5.8,25.3-8.5c-6.5-20.2-59.4-53.6-92-73.4c129.6,49.1,144.3,20.7,161.3-1.2c-0.2,6.5,7.7,48.9,26.2,56.4c18.5,7.6,40.2-17.9,60.6-34c0,0-26.4,39.9-8.4,55.6c18,15.7,87-14.6,87-14.6s-28.8,29.1,7.8,46.3c36.6,17.2,105-9,105-9s-55.5,48.1-50.3,92.2c5.2,44.1,74.7,78,74.7,78S464.4,523.1,461.2,547.6z"/>
		</g>
	</g>
	<g>
		<g>
			<path class="st1" d="M511.5,624.3c-4.3-1.9-8.7-3.8-13.1-5.6c-4.4-1.8-8.8-3.6-13.2-5.4c-8.8-3.5-17.6-7-26.3-10.3c-4.4-1.6-8.8-3.2-13.2-4.8c-2.2-0.8-4.4-1.5-6.6-2.2c-2.2-0.7-4.4-1.3-6.4-1.7c-0.5-0.1-1-0.2-1.4-0.2c-0.4,0-0.8,0-1.1,0.1c-0.3,0.1-0.4,0.2-0.5,0.3c-0.1,0.1-0.2,0.3-0.2,0.5c0,0.6,0.2,1.5,0.6,2.5c0.4,1,0.9,2.1,1.5,3.1
													c2.3,4.2,5.4,8.5,8.5,12.4l9.9,12.6l-12.1-10c-0.5-0.4-1-0.8-1.6-1.2c-0.6-0.4-1.1-0.8-1.7-1.2
													c-1.1-0.8-2.3-1.5-3.5-2.2c-2.3-1.4-4.7-2.6-7.1-3.6c-4.8-2-9.7-3.2-14.3-3.3c-2.2,0-4.2,0.5-5.4,2
													c-1.2,1.4-1.7,3.6-1.7,6.1c0,2.4,0.5,5.1,1.2,7.7c0.7,2.6,1.6,5.3,2.8,7.8l0,0l4.1,8.7l-5.8-8c-1.4-1.9-3.1-3.9-4.7-5.7
													c-1.7-1.9-3.4-3.6-5.2-5.3c-3.6-3.4-7.4-6.5-11.4-9.1c-8-5.4-16.5-8.9-24.9-10.5c-4.2-0.8-8.3-1.1-12.3-0.9
													c-2,0.1-4,0.2-5.9,0.5c-1,0.1-1.9,0.3-2.9,0.5l-1.4,0.3c-0.5,0.1-0.9,0.2-1.3,0.3c-3.5,1-6.6,3-9.3,5.4
													c-2.7,2.4-5.1,5.3-7.2,8.4c-4.2,6.3-7.4,13.4-10.1,20.9c-0.1,0.2-0.1,0.4-0.2,0.7c-1.4-1-2.8-1.8-4.3-2.6
													c0.1-0.3,0.2-0.6,0.3-0.9c3-7.5,6.4-14.8,10.9-21.2c2.3-3.2,4.8-6.2,7.8-8.7c3-2.5,6.4-4.6,10.4-5.6
													c0.5-0.1,1-0.2,1.5-0.3c0.5-0.1,1-0.2,1.5-0.3c1-0.2,2-0.3,3-0.4c2-0.2,4.1-0.4,6.2-0.4c4.2-0.1,8.6,0.4,13,1.3
													c8.8,1.8,17.8,5.7,26.1,11.5c4.1,2.9,8.1,6.1,11.8,9.7c1.8,1.8,3.6,3.7,5.3,5.6c0.3,0.4,0.7,0.8,1,1.2
													c-0.3-0.9-0.6-1.7-0.9-2.6c-0.8-2.8-1.4-5.6-1.6-8.4c-0.1-1.4,0-2.8,0.3-4.1c0.3-1.3,0.8-2.5,1.6-3.5
													c0.8-1,1.8-1.8,3-2.2c1.2-0.5,2.5-0.6,3.8-0.7c5-0.1,10.3,1,15.5,3c2.5,1,5,2.2,7.5,3.5c-1.2-1.8-2.4-3.7-3.5-5.7
													c-0.7-1.2-1.3-2.5-1.8-3.8c-0.5-1.3-1-2.8-0.9-4.5c0-0.8,0.3-1.7,0.8-2.4c0.5-0.7,1.2-1,1.9-1.2c0.7-0.2,1.4-0.2,2-0.1
													c0.7,0,1.2,0.2,1.9,0.3c2.3,0.5,4.6,1.1,6.8,1.8c2.2,0.7,4.5,1.4,6.7,2.2c4.4,1.5,8.9,3.1,13.3,4.8
													c8.8,3.3,17.6,6.8,26.4,10.3c4.4,1.8,8.8,3.6,13.2,5.4c1.6,0.7,3.1,1.3,4.7,2c-9.2-8.9-18.5-17.9-26.9-28
													c-2.6-3.2-5.2-6.5-7.5-10c-2.3-3.5-4.5-7.1-6.2-11c-1.7-3.8-3-7.8-3.6-11.7c-0.3-2-0.4-3.9-0.4-5.8
													c0.1-1.9,0.2-3.7,0.7-5.5c1-3.6,3.1-6.2,5.6-8.2c2.5-2,5.2-3.5,8.2-4.6c5.8-2.3,12.1-3.5,18.5-4.4
													c11.4-1.4,23.3-1.4,35.3-0.6c-3-1.5-6-3.1-9-4.9c-4.4-2.5-8.7-5.2-13-8.1c-8.6-5.8-16.9-12.3-24.7-19.8
													c-3.9-3.8-7.6-7.8-10.9-12.1c-3.4-4.3-6.4-9-8.9-13.9c-2.5-4.9-4.2-10-5.2-15.1c-1-5.1-1-10-0.6-14.6
													c0.9-9.3,3.7-17.5,7.1-25.1c3.5-7.6,7.7-14.6,12.4-21.2c4.6-6.6,9.7-12.7,15.1-18.6c3.8-4.2,7.8-8.1,11.9-11.9
													c-3.8,1.5-7.6,2.8-11.4,4.1c-6.1,2-12.3,3.7-18.6,5.2c-6.3,1.5-12.8,2.7-19.4,3.5c-6.6,0.8-13.4,1.3-20.4,1.1
													c-3.5-0.1-7-0.4-10.6-0.9c-3.6-0.5-7.3-1.3-11-2.5c-3.7-1.1-7.5-2.7-11-4.8c-3.6-2-7.2-4.5-10.4-7.9
													c-1.6-1.7-3-3.6-4-5.7c-0.5-1-1-2.1-1.3-3.1c-0.3-1.1-0.6-2.1-0.8-3.2c-0.7-4.2-0.1-7.9,0.9-11.2c1-3.3,2.6-6.3,4.3-9
													c0.7-1.1,1.5-2.2,2.3-3.3c-3.7,1.7-7.4,3.3-11.2,4.8c-5.5,2.2-11.1,4.2-16.8,6.1c-5.7,1.8-11.5,3.5-17.5,4.8
													c-6,1.3-12.1,2.3-18.6,2.5c-3.3,0.1-6.6-0.1-10.2-0.8c-1.8-0.4-3.6-1-5.6-1.9c-1-0.5-1.9-1-2.9-1.8
													c-0.5-0.4-1-0.8-1.4-1.2c-0.4-0.4-0.8-0.8-1.2-1.2c-1.6-1.7-2.9-3.8-3.7-5.9c-0.9-2.1-1.4-4.1-1.6-6.1
													c-0.5-3.9-0.2-7.4,0.4-10.7c1.2-6.6,3.5-12.5,6.1-18.1c1.4-2.9,2.9-5.7,4.5-8.4c-5.3,5-10.5,10.1-16,14.9
													c-3.8,3.3-7.7,6.5-12,9.4c-4.3,2.8-8.9,5.4-14.3,6.6c-2.7,0.6-5.7,0.8-9,0.2c-1.6-0.3-3.3-0.8-5-1.6
													c-1.7-0.8-3.3-1.8-4.8-3.1c-3-2.5-5.4-5.4-7.4-8.5c-2-3.1-3.6-6.2-5-9.4c-2.8-6.3-4.7-12.7-6.2-19
													c-0.7-3.2-1.3-6.3-1.8-9.4c-0.2-1.6-0.4-3.1-0.6-4.7c0-0.4-0.1-0.9-0.1-1.3c-3.4,4.5-6.8,9.1-11,13
													c-4.8,4.6-10.6,8.1-17,10.3c-6.4,2.2-13.4,3.2-20.6,3.4c-7.2,0.2-14.6-0.3-22-1.3c-14.9-2-29.9-5.7-44.9-10.1
													c-9.9-2.9-19.9-6.2-29.8-9.7c6.2,4,12.4,8,18.5,12.1c10.9,7.4,21.8,15,32.3,23.4c5.2,4.2,10.4,8.6,15.3,13.6
													c2.4,2.5,4.8,5,6.9,7.9c1.1,1.4,2.1,2.9,2.9,4.4c0.9,1.5,1.6,3.2,2.1,4.9c0.5,1.7,0.8,3.4,0.6,5.1
													c-0.2,1.6-0.9,3.1-1.9,4c-1,1-2.3,1.6-3.6,2c-1.3,0.4-2.7,0.6-4.1,0.7c-3.2,0.2-6.4,0-9.6-0.4c0.2,0.2,0.5,0.3,0.7,0.5
													c1.3,0.9,2.7,2,4,3.1c1.3,1.1,2.6,2.4,3.8,3.9c1.2,1.5,2.1,3.3,2.7,5c0.1,0.4,0.3,0.9,0.3,1.3l0.1,0.3c0,0,0,0.1,0,0.2
													c0,0.1,0,0.2,0,0.3c0,0.4,0,0.7-0.1,1c-0.1,0.6-0.4,1.1-0.7,1.4c-0.3,0.3-0.6,0.6-1,0.8c-1.3,0.7-2.7,1-4,1.2
													c-1.3,0.2-2.7,0.2-4,0.3c-5.4,0.1-10.9-0.5-16.4-1.2c-3.9-0.5-7.8-1.1-11.8-1.8c1.8,1.3,3.6,2.7,5.4,4.1
													c3.2,2.6,6.3,5.4,9.2,8.5c2.9,3.1,5.6,6.5,7.9,10.2c2.3,3.7,4,7.8,4.8,11.9c0.4,2,0.5,4.1,0.4,6
													c-0.1,1.9-0.5,3.7-1.1,5.4c-1.1,3.3-3,6.2-5.3,8.3c-1.1,1.1-2.3,2.1-3.6,3.1c-1.3,0.9-2.6,1.8-3.9,2.6
													c-2.7,1.6-5.5,2.9-8.4,4.1c-11.7,4.7-24.2,7.3-37,9.2c-6.4,0.9-12.9,1.7-19.4,2.3c-4.6,0.4-9.3,0.7-14,0.9
													c5.6,1.4,11.1,3,16.7,4.7c7.6,2.4,15.2,5.1,22.8,8.2c3.8,1.6,7.6,3.2,11.4,5.1c3.8,1.8,7.5,3.9,11.3,6.1
													c3.7,2.3,7.4,4.8,10.9,7.9c1.7,1.5,3.4,3.2,5,5.2c1.5,1.9,2.9,4,3.9,6.3c1.6,3.8,2.7,7.7,3.3,11.5
													c0.6,3.8,0.9,7.5,0.8,11c-0.1,7.2-1.2,13.9-2.7,20.3c-1.6,6.4-3.6,12.5-5.9,18.4c-2.3,5.9-4.9,11.6-7.6,17.2
													c-5.5,11.1-11.7,21.7-18.2,32c-4.2,6.6-8.6,13-13,19.4c7.6-5,15.4-9.8,23.4-14.3c11.7-6.5,23.8-12.5,36.8-17.1
													c6.5-2.3,13.2-4.2,20.4-5c3.6-0.4,7.3-0.5,11.3,0.2c2,0.4,4.1,1,6.1,1.9c2,0.9,4,2.2,5.8,3.6c3.7,2.8,6.9,6.3,9.7,10
													c2.8,3.7,5.3,7.6,7.5,11.5c2.2,4,4.2,8,6,12.1c1.3,2.9,2.4,5.7,3.5,8.6c1.1-6.4,2.5-12.6,4.4-18.6
													c1.1-3.5,2.3-6.9,3.8-10.2c1.5-3.3,3.3-6.4,5.5-9.1c1.1-1.4,2.4-2.6,3.8-3.7c1.5-1,3.1-1.9,5-2.3c0.5-0.1,1-0.2,1.5-0.2
													c0.5,0,1-0.1,1.6,0c1.1,0,2.2,0.3,3.2,0.6c1.1,0.3,2.2,0.8,3.2,1.3c1.1,0.6,2.2,1.4,3.2,2.2c1.9,1.7,3.5,3.7,4.9,5.6
													c1.4,2,2.6,4,3.7,6.1c2.2,4.1,4,8.3,5.7,12.5c3.3,8.4,5.9,16.7,8.3,25.1c0,0.1,0.1,0.3,0.1,0.4
													c-1.4,0.7-2.6,1.4-3.9,2.3c-0.1-1.1-0.3-2-0.5-2.7c-2.2-8.2-4.6-16.5-7.7-24.6c-1.5-4-3.2-8.1-5.2-11.9
													c-1-1.9-2.1-3.8-3.3-5.6c-1.2-1.8-2.5-3.4-3.9-4.7c-0.7-0.7-1.5-1.2-2.2-1.6c-0.8-0.4-1.7-0.8-2.5-1.1
													c-0.8-0.3-1.7-0.5-2.5-0.5c-0.4-0.1-0.8,0-1.2,0c-0.4,0-0.8,0.1-1.2,0.1c-3.1,0.5-5.7,2.6-7.8,5
													c-2.1,2.5-3.9,5.4-5.4,8.5c-1.5,3.1-2.8,6.4-4,9.8c-2.3,6.8-4.1,14-5.3,21.3l0,0l-0.5,3.7l-1.4-4c-1.4-4-3.1-8.1-4.9-12
													c-1.8-4-3.8-7.9-6-11.8c-2.2-3.8-4.6-7.6-7.3-11.1c-2.7-3.5-5.7-6.7-9-9.2c-1.7-1.3-3.4-2.3-5.2-3.1
													c-1.8-0.8-3.6-1.3-5.4-1.6c-3.6-0.6-7.2-0.4-10.6,0c-6.9,0.9-13.5,2.9-19.8,5.2c-12.7,4.7-24.6,10.8-36.2,17.5
													c-11.5,6.7-22.7,14-33.4,21.8l0,0l-10.8,7.9l7.7-11.3c6.8-9.9,13.7-19.8,20.1-30.1c6.5-10.2,12.6-20.7,18-31.7
													c5.4-11,10.3-22.5,13.4-34.9c1.5-6.2,2.7-12.6,2.8-19.4c0.1-3.4-0.1-6.8-0.7-10.2c-0.5-3.5-1.5-6.9-2.9-10.3
													c-1.4-3.5-4.2-6.7-7.3-9.5c-3.1-2.8-6.6-5.2-10.1-7.4c-7.1-4.4-14.5-8-21.9-11.2c-7.5-3.2-15-6.1-22.5-8.7
													c-7.5-2.6-15.1-5-22.6-7.2l0,0l-6-1.4l5.7-0.4c13-1,25.9-2.5,38.5-4.7c6.3-1.1,12.5-2.4,18.6-3.9
													c6.1-1.6,12-3.4,17.6-5.8c2.8-1.2,5.5-2.5,8.1-4c1.3-0.8,2.5-1.6,3.7-2.4c1.2-0.9,2.3-1.8,3.3-2.9
													c2.1-2,3.7-4.5,4.7-7.4c0.5-1.4,0.8-3,0.9-4.6c0.1-1.6,0-3.3-0.3-5c-0.3-1.7-0.8-3.4-1.5-5.1c-0.7-1.7-1.6-3.4-2.5-5.1
													c-2-3.3-4.4-6.5-7.1-9.4c-2.7-3-5.6-5.7-8.6-8.4c-3-2.6-6.1-5.1-9.3-7.3l0,0l-4.8-3.1l5.1,0.8
													c5.4,0.9,10.9,1.6,16.3,2.2c5.4,0.5,10.8,0.9,15.9,0.7c1.3-0.1,2.5-0.2,3.7-0.4c1.2-0.2,2.3-0.5,3.1-1
													c0.4-0.2,0.6-0.6,0.6-0.6c0,0,0,0,0,0l-0.1-0.3c-0.1-0.3-0.2-0.6-0.2-0.9c-0.4-1.2-1-2.3-1.9-3.4
													c-1.7-2.2-4.2-4-6.7-5.7c-2.5-1.7-5.2-3.3-7.9-5.2l0,0l-8.4-6.7l9.1,3.1c2.8,1,5.7,1.7,8.5,2.3c2.8,0.5,5.6,0.9,8.2,0.8
													c1.3,0,2.6-0.2,3.8-0.5c1.2-0.3,2.2-0.8,3.1-1.6c0.8-0.8,1.3-1.8,1.5-3c0.1-1.2-0.1-2.6-0.5-4.1
													c-0.9-2.8-2.6-5.7-4.6-8.3c-2-2.6-4.2-5.1-6.6-7.5c-4.7-4.7-9.8-9-15-13.2c-5.2-4.1-10.5-8-15.9-11.8
													c-5.4-3.8-10.8-7.4-16.3-10.9c-11-7.1-22-13.8-33.2-20.3l0,0l-17.5-10.7l18.1,7c14.9,5.7,29.8,11,44.7,15.6
													c14.9,4.5,29.8,8.3,44.5,10.5c7.3,1.1,14.6,1.7,21.6,1.6c7-0.1,13.9-1,20.1-3.1c6.3-2,11.9-5.3,16.6-9.7
													c4.8-4.3,8.7-9.7,12.8-14.9l0,0l1.6-2.4l0.2,3.5c0.1,1.4,0.4,2.9,0.6,4.4c0.3,1.5,0.6,3,1,4.6c0.7,3.1,1.5,6.1,2.4,9.2
													c1.8,6.1,3.9,12.2,6.7,18c1.4,2.9,2.9,5.7,4.7,8.3c1.8,2.6,3.8,5,6,6.8c1.1,0.9,2.3,1.6,3.4,2.2
													c1.2,0.5,2.4,0.9,3.7,1.2c2.5,0.5,5,0.3,7.4-0.2c2.4-0.5,4.7-1.3,6.9-2.4c2.2-1,4.4-2.2,6.5-3.5
													c4.2-2.6,8.2-5.6,12.1-8.7c7.9-6.2,15.5-12.8,23.8-18.6l0,0l4.6-4.1l-3.2,5.6c-2.9,5.2-5.6,10.6-7.9,16.3
													c-1.1,2.8-2.2,5.7-3.1,8.7c-0.9,3-1.6,6-2.1,9.1c-0.2,1.6-0.4,3.2-0.4,4.8c0,1.6,0,3.2,0.3,4.8c0.5,3.2,1.7,6.3,3.9,8.6
													c0.3,0.3,0.5,0.6,0.8,0.8c0.3,0.3,0.6,0.5,0.8,0.7c0.6,0.4,1.2,0.8,1.9,1.1c1.4,0.7,2.9,1.1,4.4,1.4
													c3.1,0.6,6.2,0.8,9.2,0.7c6.1-0.2,12.1-1.1,18-2.3c5.9-1.2,11.7-2.7,17.4-4.3c11.5-3.3,22.7-7.1,33.8-11.1l0,0l5.2-2.4
													l-3.8,4.3c-2,2.3-3.9,4.8-5.4,7.5c-1.6,2.7-2.9,5.6-3.8,8.8c-0.8,3.1-1.2,6.6-0.5,10c0.2,0.9,0.4,1.7,0.7,2.6
													c0.3,0.8,0.7,1.7,1.1,2.5c0.9,1.6,2,3.1,3.3,4.4c2.7,2.7,5.9,4.8,9.2,6.5c3.3,1.7,6.7,2.9,10.1,3.8
													c6.8,1.8,13.6,2.3,20.3,2.5c13.4,0.2,26.4-1.5,39.1-3.9c12.7-2.4,25.1-5.6,37.3-9.2l0,0l5.7-2.4l-4.4,4.2
													c-5.7,5.4-11,11.1-16.2,17.1c-5.1,6-10,12.3-14.4,18.8c-2.2,3.3-4.4,6.7-6.3,10.2c-2,3.5-3.9,7.1-5.5,10.8
													c-1.7,3.7-3.1,7.6-4.3,11.6c-0.6,2-1.1,4.1-1.5,6.1c-0.4,2.1-0.7,4.2-0.9,6.4c-0.2,2.2-0.3,4.4-0.2,6.6
													c0.1,2.2,0.3,4.5,0.7,6.8c0.8,4.6,2.4,9.2,4.6,13.7c2.2,4.5,5,8.8,8.1,12.9c3.1,4.1,6.6,8,10.3,11.6
													c3.7,3.7,7.5,7.1,11.5,10.4c4,3.3,8.1,6.4,12.2,9.3c4.2,2.9,8.4,5.8,12.7,8.4c2.1,1.3,4.3,2.6,6.5,3.9
													c2.2,1.3,4.3,2.5,6.5,3.6l0,0l4.5,2.1l-4.5-0.2c-6.6-0.3-13.2-0.3-19.7,0c-6.5,0.3-12.9,0.8-19.1,1.7
													c-6.2,1-12.3,2.3-17.7,4.6c-2.7,1.2-5.3,2.6-7.4,4.4c-2.1,1.8-3.9,4.1-4.6,6.9c-0.3,1.3-0.5,3-0.5,4.6
													c0,1.6,0.1,3.3,0.4,5c0.5,3.4,1.7,6.9,3.3,10.3c3.1,6.9,7.8,13.3,12.9,19.5c5.1,6.1,10.6,11.9,16.3,17.6
													c5.6,5.7,11.5,11.3,17.2,17l0,0l7.3,7.1L511.5,624.3z"/>
											</g>
										
									
								
							
						
					
				
			
		
	</g>
</g>
</svg>
