<svg xmlns="http://www.w3.org/2000/svg" viewBox="0 0 113.55 88.34"><defs><style>.cls-1{fill:#fff;}.cls-2{fill:#1d1d1b;}</style></defs><g id="Layer_2" data-name="Layer 2"><g id="Layer_1-2" data-name="Layer 1"><path class="cls-1" d="M3.27,65c1.66,3.89,2.81,6.89,15.83,5.87,4.2-.33,13.14-.66,23.5-1,5.95-.16,13.14,16.39,19.4,16.26,5.17-.1,9.46-16.9,14.06-17C86.23,69.06,94.14,69,96,69.08c5.36.26,12.77,1.79,14.3-7.15s-2.3-20.17,0-35.74,3.58-19.66-1.53-22.47-89.36-.51-95.49,0S1,8.06,2.25,15,1.64,61.17,3.27,65Z"/><path class="cls-2" d="M3.5,64.9c.71,1.67,1.49,3.37,3,4.3a10.92,10.92,0,0,0,5.11,1.4,39.69,39.69,0,0,0,5.45-.09c1.8-.13,3.65-.39,5.48-.54l11-.93,5.5-.44,2.75-.21.69,0a4.65,4.65,0,0,1,1,0,6.42,6.42,0,0,1,1.77.54,17.22,17.22,0,0,1,4.8,3.79c1.33,1.38,2.53,2.8,3.71,4.21s2.35,2.77,3.56,4A13.11,13.11,0,0,0,61,83.8a1.73,1.73,0,0,0,1.12.19,3.75,3.75,0,0,0,1.25-1,25.33,25.33,0,0,0,2.75-4.19L68.74,74a26.32,26.32,0,0,1,3.42-5,7.63,7.63,0,0,1,1.49-1.23,5,5,0,0,1,1.09-.52,6.77,6.77,0,0,1,.68-.16,4.46,4.46,0,0,1,.66-.06c.92,0,1.84,0,2.76,0l5.51,0c3.69,0,7.33.11,11.08.28,2,.13,3.73.41,5.46.48a10.25,10.25,0,0,0,4.71-.68,5.88,5.88,0,0,0,3-3.32,12.4,12.4,0,0,0,.67-2.43l.22-1.3.13-1.32a78,78,0,0,0-.31-10.88c-.28-3.66-.52-7.35-.54-11.06a84.19,84.19,0,0,1,.7-11.1c.49-3.64,1-7.3,1.33-10.91s.71-7.54-1.66-9a7.57,7.57,0,0,0-1-.59c-.27-.14-.1,0-.33-.12s-.34-.07-.52-.11c-.79-.13-1.69-.19-2.58-.25-1.78-.11-3.6-.14-5.41-.16-7.29-.08-14.62,0-21.94.13-14.65.18-29.32.75-44,1.07-3.66.11-7.33.14-11,.23l-5.48.15-2.71.1a17.78,17.78,0,0,0-2.39.23c-3.09.51-6,2.14-7.1,4.52a5.4,5.4,0,0,0-.51,1.93,6.36,6.36,0,0,0,0,1.07c0,.18,0,.37,0,.55l.09.76A55.22,55.22,0,0,1,4.4,21C4.21,28.37,3.67,35.69,3.33,43,3.13,46.7,3,50.36,3,54c0,1.83,0,3.67,0,5.5,0,.91.06,1.83.12,2.73A11.67,11.67,0,0,0,3.5,64.9ZM3,65.09a11.5,11.5,0,0,1-.48-2.78c-.09-.92-.14-1.84-.18-2.76-.1-1.84-.11-3.68-.19-5.51l-.3-11c-.22-7.34-.48-14.71-1-22C.79,19.25.64,17.39.36,15.77l-.12-.6c0-.27-.11-.54-.14-.81A11.66,11.66,0,0,1,0,12.68,10.16,10.16,0,0,1,.65,9.26,11.08,11.08,0,0,1,4.94,4a17.2,17.2,0,0,1,5.89-2.45,18.78,18.78,0,0,1,3.07-.41L16.69,1,22.21.75c3.68-.15,7.35-.33,11-.4C40.58.16,47.93,0,55.28,0S70,0,77.34.07s14.72.26,22.1.77c1.85.14,3.7.29,5.58.53a29.18,29.18,0,0,1,2.88.47c.26.07.51.12.81.23a4.22,4.22,0,0,1,.93.43,9.5,9.5,0,0,1,1.31.93,6.86,6.86,0,0,1,2,2.78,9.23,9.23,0,0,1,.58,3.14,33,33,0,0,1-.48,5.71c-.57,3.67-1.31,7.25-1.88,10.88-.27,1.8-.52,3.59-.68,5.4s-.21,3.62-.23,5.44a105.47,105.47,0,0,0,.59,10.93,98.86,98.86,0,0,1,.71,11.1l0,1.43-.14,1.43a13.92,13.92,0,0,1-.59,2.91,8.53,8.53,0,0,1-3.92,5,13.11,13.11,0,0,1-6,1.37c-1.94.07-3.83-.09-5.53-.07-3.6.07-7.3.25-10.95.36l-5.5.17c-.92,0-1.83.06-2.75.07h0l-.15.08a3.52,3.52,0,0,0-.61.53,23.26,23.26,0,0,0-2.74,4.11C71.77,77.71,70.93,79.34,70,81a29.62,29.62,0,0,1-3.4,4.92,7.57,7.57,0,0,1-3.13,2.2,5.83,5.83,0,0,1-4.23-.39,11.57,11.57,0,0,1-2.77-1.87,24.86,24.86,0,0,1-2.12-2.11c-1.29-1.45-2.44-2.92-3.57-4.37s-2.23-2.89-3.37-4.23a14.44,14.44,0,0,0-3.58-3.25,3.46,3.46,0,0,0-.84-.33l-.38,0H41.9l-2.76,0-5.5-.09c-3.67,0-7.34-.1-11,0s-7.35.41-11.06,0A12.46,12.46,0,0,1,6.2,69.68a6.36,6.36,0,0,1-2-2.07A19.32,19.32,0,0,1,3,65.09Z"/><path class="cls-2" d="M105.55,53.82c-.41-1.52-.72-3.06-1-4.59s-.56-3.09-.8-4.64a86.9,86.9,0,0,1-1-9.38,42.27,42.27,0,0,1,.47-9.46c.29-1.54.59-3.08.92-4.61.18-.77.37-1.53.57-2.29a6.77,6.77,0,0,1,.84-2.18,2.81,2.81,0,0,0-.36,1.09c-.08.38-.15.76-.22,1.15-.13.77-.24,1.54-.35,2.32-.23,1.54-.44,3.09-.64,4.64a53.35,53.35,0,0,0-.23,9.29c.13,3.11.42,6.22.72,9.33S105.17,50.7,105.55,53.82Z"/><path class="cls-2" d="M6.58,58.21c.12,1.63.14,3.18.31,4.71a19.38,19.38,0,0,0,.38,2.26A14.52,14.52,0,0,0,8,67.4a5.11,5.11,0,0,1-1.49-2A8.49,8.49,0,0,1,5.9,63a10.56,10.56,0,0,1,0-2.45A8.1,8.1,0,0,1,6.58,58.21Z"/></g></g></svg>