<svg xmlns="http://www.w3.org/2000/svg" viewBox="0 0 129.07 73.53"><defs><style>.cls-1{fill:#fff;}.cls-2{fill:#1d1d1b;}</style></defs><g id="Layer_2" data-name="Layer 2"><g id="Layer_1-2" data-name="Layer 1"><path class="cls-1" d="M.25,29.05s14.3,5.87,16.34,9.45-.35,23,1.28,26.8,2.81,6.9,15.83,5.88,71.49-2.05,76.85-1.79,12.76,1.79,14.3-7.15-2.3-20.17,0-35.74S128.42,6.84,123.31,4,34,3.52,27.82,4s-12.25,4.34-11,11.23S.25,29.05.25,29.05Z" transform="translate(0 0)"/><path class="cls-2" d="M.5,29.05c0-.24-.18-.24-.07-.2l.08,0,.17.06.33.12.65.23L3,29.76c.88.33,1.75.66,2.61,1C7.3,31.48,9,32.21,10.71,33a33.23,33.23,0,0,1,5,2.88,6.54,6.54,0,0,1,2.25,2.5,12.89,12.89,0,0,1,.7,3A97.74,97.74,0,0,1,19,52.75c0,1.85,0,3.7.05,5.52a45.52,45.52,0,0,0,.33,5.26,5,5,0,0,0,.24.94.85.85,0,0,0,.1.24l.14.31.27.59a6.5,6.5,0,0,0,1.15,1.8A6.47,6.47,0,0,0,25.11,69a28,28,0,0,0,5.15.21c1.77-.06,3.56-.23,5.47-.36,3.74-.27,7.45-.4,11.16-.51s7.42-.15,11.13-.2c14.84-.09,29.68.43,44.51.44l5.57,0c.92,0,1.88,0,2.82.07l2.77.18a17.7,17.7,0,0,0,5.28-.34,6,6,0,0,0,3.83-2.88,12.12,12.12,0,0,0,1.32-5,37.58,37.58,0,0,0,0-5.41c-.26-3.65-.77-7.32-1.11-11a94.14,94.14,0,0,1-.48-11.29q.06-2.85.36-5.69c.19-1.9.45-3.71.68-5.56l.69-5.48a46.85,46.85,0,0,0,.4-5.27,9.59,9.59,0,0,0-.22-2.25,3.15,3.15,0,0,0-.72-1.49,5.07,5.07,0,0,0-1.5-1.1c.15.06-.35-.1-.69-.14l-1.24-.16c-3.5-.34-7.22-.4-10.88-.47s-7.37,0-11.07,0l-22.18.18L31.73,5.8,29,5.86a20.16,20.16,0,0,0-2.53.19,13.11,13.11,0,0,0-4.62,1.57,7.65,7.65,0,0,0-3.16,3.27,6.42,6.42,0,0,0-.6,2.18,6.74,6.74,0,0,0,0,1.19c0,.4.1.73.13,1.44A6.16,6.16,0,0,1,17.24,19a11.4,11.4,0,0,1-2,2.36,26.44,26.44,0,0,1-4.69,3.37,51.5,51.5,0,0,1-5,2.54c-.85.39-1.72.74-2.59,1.07l-1.31.49L1,29.06l-.33.11-.16.06-.09,0C.32,29.31.54,29.21.5,29.05Zm-.5,0c0-.19.29-.3.24-.27l.08,0,.15-.07.31-.15.63-.3,1.23-.63c.82-.43,1.62-.87,2.43-1.32a52.6,52.6,0,0,0,4.65-2.91,24.38,24.38,0,0,0,4-3.49c1.13-1.27,2-2.79,1.86-4,0-.22-.16-.8-.22-1.31a10.58,10.58,0,0,1-.09-1.6,9.63,9.63,0,0,1,.63-3.2,10.77,10.77,0,0,1,4.12-4.9,16.6,16.6,0,0,1,5.72-2.36,21.78,21.78,0,0,1,3-.4l2.8-.19C46.41.92,61.23.44,76.07.11,79.78.05,83.49,0,87.21,0s7.42,0,11.14,0,7.44.15,11.17.29,7.43.29,11.31.75c.49.07,1,.14,1.51.24a7.37,7.37,0,0,1,2,.6,8.1,8.1,0,0,1,.78.46,6.87,6.87,0,0,1,.73.51,7.65,7.65,0,0,1,1.37,1.31,7.75,7.75,0,0,1,1.64,3.47,13.92,13.92,0,0,1,.23,3.28,49.43,49.43,0,0,1-.62,5.78c-.28,1.87-.61,3.69-.93,5.52-.65,3.68-1.31,7.21-1.6,10.82A88.38,88.38,0,0,0,125.72,44c.13,3.66.46,7.36.52,11.13a41.85,41.85,0,0,1-.27,5.69,14,14,0,0,1-1.71,5.64A7.89,7.89,0,0,1,119.37,70a18.79,18.79,0,0,1-5.76.33c-.94,0-1.87-.14-2.78-.18s-1.81,0-2.74,0l-5.55.05c-14.81.31-29.61,1.41-44.4,2.11L36,73.24c-1.79.09-3.69.25-5.63.29a32.66,32.66,0,0,1-5.94-.36,13.19,13.19,0,0,1-3.14-.9,8.5,8.5,0,0,1-3-2.1,10.67,10.67,0,0,1-1.77-2.9l-.28-.68-.14-.33c0-.1-.09-.21-.15-.4a9.05,9.05,0,0,1-.4-1.77,41.35,41.35,0,0,1-.15-5.84c.06-1.88.16-3.73.25-5.59l.25-5.52c.08-1.83.13-3.66,0-5.42a11,11,0,0,0-.35-2.4,4.74,4.74,0,0,0-1.35-1.65,32.26,32.26,0,0,0-4.4-3.09c-1.56-1-3.17-1.87-4.79-2.74l-2.45-1.3L1.4,29.9l-.62-.31-.31-.16-.16-.07-.08,0A.37.37,0,0,1,0,29.05Z" transform="translate(0 0)"/><path class="cls-2" d="M120.14,54.12c-.4-1.51-.71-3-1-4.59s-.56-3.08-.8-4.64a91.69,91.69,0,0,1-1-9.38,42.78,42.78,0,0,1,.47-9.45c.29-1.54.59-3.08.93-4.62q.26-1.14.57-2.28a6.75,6.75,0,0,1,.83-2.18,2.76,2.76,0,0,0-.36,1.08c-.08.39-.15.77-.22,1.15-.12.78-.24,1.55-.34,2.32-.24,1.55-.45,3.1-.65,4.65a54.33,54.33,0,0,0-.23,9.29c.13,3.11.42,6.22.72,9.33S119.76,51,120.14,54.12Z" transform="translate(0 0)"/><path class="cls-2" d="M18.15,23.7c.66-1.5,1.35-2.88,1.91-4.31a21.38,21.38,0,0,0,.72-2.18,13.9,13.9,0,0,0,.36-2.32,5.08,5.08,0,0,1,.41,2.44A8.29,8.29,0,0,1,21,19.75a10.72,10.72,0,0,1-1.17,2.16A7.88,7.88,0,0,1,18.15,23.7Z" transform="translate(0 0)"/></g></g></svg>