<svg xmlns="http://www.w3.org/2000/svg" viewBox="0 0 1712.09 1712.09"><defs><style>.cls-1{fill:#ff0;}</style></defs><g id="Layer_2" data-name="Layer 2"><g id="Layer_2-2" data-name="Layer 2"><path class="cls-1" d="M382.52,1650.75c251.85-172.39,380.21-316.26,438.19-443.88,58.69-127.78,47-239.3,35.33-350.83-4.08,224.11-12.54,448.65-593,730.37C303.46,1608.76,343.4,1630.12,382.52,1650.75Z"/><path class="cls-1" d="M165.46,1500.16C785.73,1299,821.16,1077.55,856,856c-60.5,215.65-132.28,429.45-752.79,553.48Q134.78,1454,165.46,1500.16Z"/><path class="cls-1" d="M65.48,1312.68c290.7-27.54,472.08-88.47,585.05-170.32C764.64,1060.86,810.34,958.45,856,856c-58.44,95.72-116.88,191.46-239.2,258.35-120.37,67.77-304.65,106.71-569.51,109.27A534.22,534.22,0,0,1,65.48,1312.68Z"/><path class="cls-1" d="M35.9,1131c238.18,17.57,422.91,1.75,549.38-50.46C714.37,1030,785.19,943,856,856c-81.37,77.22-162.72,154.46-296.56,188.75-131,36.61-314.48,30.28-534.46-5.91C32.55,1071.55,36.39,1101.76,35.9,1131Z"/><path class="cls-1" d="M11.45,929.53c210.37,62.38,391,92.87,525.51,73.91C674.06,987.27,765,921.64,856,856c-98.57,53.55-197.12,107.12-335.47,105.34C384.23,962.38,208.1,908,.67,810.13,6.44,854,10.53,893.48,11.45,929.53Z"/><path class="cls-1" d="M0,668.54c204.16,146.87,372.9,227.12,509.05,246.1C646.43,935.94,751.23,896,856,856c-109,26.41-218,52.84-352,13C370.58,830.81,212.1,726.31,17.77,527,11.34,577.25,5.81,624.47,0,668.54Z"/><path class="cls-1" d="M61.33,382.52C233.73,634.37,377.6,762.73,505.21,820.71,633,879.4,744.52,867.72,856,856,631.94,852,407.4,843.5,125.67,263,103.32,303.46,82,343.4,61.33,382.52Z"/><path class="cls-1" d="M211.93,165.46C413.05,785.73,634.54,821.16,856,856,640.4,795.54,426.59,723.76,302.56,103.25Q258.09,134.78,211.93,165.46Z"/><path class="cls-1" d="M399.41,65.48c27.53,290.7,88.47,472.08,170.32,585.05C651.23,764.64,753.64,810.34,856,856,760.32,797.6,664.59,739.16,597.7,616.84,529.92,496.46,491,312.19,488.42,47.33A533.89,533.89,0,0,1,399.41,65.48Z"/><path class="cls-1" d="M581.05,35.9c-17.57,238.18-1.75,422.91,50.47,549.38C682.1,714.37,769.08,785.19,856,856,778.83,774.67,701.59,693.32,667.3,559.48,630.68,428.48,637,245,673.21,25,640.53,32.55,610.33,36.39,581.05,35.9Z"/><path class="cls-1" d="M782.56,11.45c-62.38,210.37-92.88,391-73.92,525.51C724.81,674.06,790.44,765,856,856,802.5,757.47,748.92,658.92,750.71,520.57,749.7,384.23,804.06,208.1,902,.67,858.1,6.44,818.61,10.53,782.56,11.45Z"/><path class="cls-1" d="M1043.54,0C896.67,204.16,816.43,372.9,797.45,509.05,776.14,646.43,816.1,751.23,856,856c-26.41-109-52.84-218-13-352,38.26-133.44,142.76-291.92,342-486.25C1134.83,11.34,1087.62,5.81,1043.54,0Z"/><path class="cls-1" d="M1329.56,61.33c-251.85,172.4-380.2,316.27-438.18,443.88C832.68,633,844.37,744.52,856,856c4.08-224.1,12.54-448.64,593-730.37C1408.62,103.32,1368.69,82,1329.56,61.33Z"/><path class="cls-1" d="M1546.63,211.93C926.35,413.05,890.92,634.54,856,856c60.51-215.64,132.28-429.45,752.79-553.48Q1577.3,258.09,1546.63,211.93Z"/><path class="cls-1" d="M1646.6,399.41c-290.69,27.53-472.08,88.47-585,170.32C947.44,651.23,901.75,753.64,856,856c58.45-95.72,116.88-191.45,239.21-258.34,120.37-67.78,304.64-106.72,569.5-109.28A536.13,536.13,0,0,1,1646.6,399.41Z"/><path class="cls-1" d="M1676.18,581.05c-238.17-17.57-422.91-1.75-549.38,50.47C997.71,682.1,926.89,769.08,856,856c81.38-77.21,162.73-154.45,296.57-188.74,131-36.62,314.47-30.29,534.45,5.9C1679.54,640.53,1675.69,610.33,1676.18,581.05Z"/><path class="cls-1" d="M1700.63,782.55c-210.37-62.37-391-92.87-525.51-73.91C1038,724.81,947,790.44,856,856c98.57-53.55,197.12-107.12,335.47-105.33,136.34-1,312.48,53.35,519.9,151.24C1705.65,858.1,1701.55,818.61,1700.63,782.55Z"/><path class="cls-1" d="M1712.09,1043.54c-204.17-146.87-372.9-227.11-509-246.09C1065.66,776.14,960.85,816.1,856,856c109-26.41,218-52.84,352-13,133.44,38.26,291.93,142.76,486.25,342C1700.75,1134.83,1706.28,1087.62,1712.09,1043.54Z"/><path class="cls-1" d="M1650.75,1329.56c-172.39-251.85-316.26-380.2-443.88-438.18-127.78-58.7-239.3-47-350.83-35.34,224.11,4.08,448.65,12.54,730.37,593C1608.76,1408.62,1630.12,1368.69,1650.75,1329.56Z"/><path class="cls-1" d="M1500.16,1546.63C1299,926.35,1077.55,890.92,856,856c215.65,60.51,429.45,132.28,553.48,752.79Q1454,1577.3,1500.16,1546.63Z"/><path class="cls-1" d="M1312.68,1646.6c-27.53-290.69-88.47-472.08-170.32-585C1060.86,947.44,958.45,901.75,856,856c95.72,58.45,191.46,116.88,258.35,239.21,67.77,120.37,106.71,304.64,109.27,569.5A535.23,535.23,0,0,1,1312.68,1646.6Z"/><path class="cls-1" d="M1131,1676.18c17.57-238.17,1.75-422.91-50.46-549.38C1030,997.71,943,926.89,856,856c77.22,81.38,154.46,162.73,188.75,296.56,36.61,131,30.28,314.48-5.91,534.46C1071.55,1679.54,1101.76,1675.69,1131,1676.18Z"/><path class="cls-1" d="M929.53,1700.63c62.38-210.37,92.87-391,73.91-525.51C987.27,1038,921.64,947,856,856c53.55,98.57,107.12,197.12,105.34,335.47,1,136.34-53.36,312.47-151.25,519.9C854,1705.65,893.48,1701.55,929.53,1700.63Z"/><path class="cls-1" d="M668.54,1712.09c146.87-204.17,227.12-372.9,246.1-509C935.94,1065.66,896,960.85,856,856c26.41,109,52.84,218,13,352C830.81,1341.5,726.31,1500,527,1694.31,577.25,1700.75,624.47,1706.28,668.54,1712.09Z"/></g></g></svg>