<svg id="Слой_1" data-name="Слой 1" xmlns="http://www.w3.org/2000/svg" viewBox="0 0 130.26 156.63"><defs><style>.cls-1{fill:#bf5c42;}.cls-2{fill:#b7d8e1;}.cls-3{fill:#4f5878;}.cls-4{fill:#a5c2c8;}.cls-5{fill:#1e1e1c;}</style></defs><ellipse class="cls-1" cx="297.94" cy="481.81" rx="46.73" ry="15.17" transform="translate(-306.41 -287.52) rotate(-9.29)"/><polygon class="cls-2" points="34.85 68.22 22.84 65.11 13.14 66.67 4.87 75.89 0.81 91.66 2.15 106.03 8.56 119.6 18.52 126.44 24.56 128.17 38.75 125.68 44.88 122.92 42.77 108.51 27.45 114.89 20.56 114.38 12.89 102.55 11.88 88.85 15.71 80.93 18.73 77.26 24.89 76.47 36.19 79.61 39.22 82.75 43.09 105.4 48.66 135.21 54.42 142.06 67.29 149.27 77.43 150.89 99.2 147.97 120.62 137.74 127.18 130.92 130 121.74 119.55 46.01 114.83 37.54 100.18 30.54 75.61 28.85 56.76 32.77 43.01 39.84 34.6 51.49 34.85 68.22"/><path class="cls-3" d="M276.47,406.57s8.43-5.73,20.11-12.65c3.87-2.29,8.16-3,11-3.6a53.51,53.51,0,0,1,25.67,1.31l14.06,7.26-11.61,8.23-21.37,5.07H296.88c-1.37,0-10.6-.81-11.87-1.31C280.76,409.22,277.76,406.49,276.47,406.57Z" transform="translate(-232.53 -341.95)"/><path class="cls-4" d="M267.64,393.48l2.47-5.16a47.46,47.46,0,0,1,24.1-15.53l16.61-2.18L330,371.85l11.31,3.71c3.52,1.59,7.91,4.53,10,7.74h0c.51,3.05,1.39,6.85.23,9.71l-4.21,5.88-17-8.78s-17.78-1.86-25.44.78-29,15.29-29,15.29-6.12-5.36-7.15-9-.94-3.12-.94-3.12Z" transform="translate(-232.53 -341.95)"/><path class="cls-4" d="M283.65,410.29s-7.18-3.72-7.83-4.11a28.89,28.89,0,0,1-5.94-5.41c-1.85-2.45-2.24-8.78-2.24-8.78l-.26,18.18-5.46-1.91-8.83-2.08-6.19,1.88-6.83,4.13L234.58,423l-1,13.16,2,13.66,5,10.49,8.67,7.18,7.91,2.61,4.18,0,8-1.87,9.42-4.23,2.47,13.18,4.58,5.73,7.34,5.5Zm-8.35,40.16-12.76,5.88-8.3.89-5.36-3.7-3.45-11.24.26-13.27,5.57-9.81,1.06-1.17,14.3,1.91,4.6,3.07,4.59,25.66Z" transform="translate(-232.53 -341.95)"/><g id="кружка"><path class="cls-5" d="M352.18,388c.4,9.06-8.33,15.09-15.51,18.84-15.47,7.57-33.82,8.45-50.31,4.1-24-6.38-25.68-24-3.24-34.71a74.49,74.49,0,0,1,50.53-4.13c7.73,2.46,17.37,6.89,18.53,15.9Zm-.2,0c-1.18-8.9-11-12.75-18.67-14.65a82.56,82.56,0,0,0-49.39,4.57c-8.55,3.66-20.5,13-13.42,23,6.54,8.36,18.51,10.57,28.56,11.15a89.84,89.84,0,0,0,37.08-6.4c7.22-3.21,16.24-8.71,15.84-17.68Z" transform="translate(-232.53 -341.95)"/><path class="cls-5" d="M267.23,393.43c.24,5.79.4,11.58.59,17.37-6.83-2.65-15.07-4.82-21.93-1.42-6.27,3.86-9.43,11.23-10.9,18.23a51.17,51.17,0,0,0-.53,14.73,32.66,32.66,0,0,0,4.21,14.07c4.68,8.49,14.5,15.35,24.47,13a51.4,51.4,0,0,0,7.15-2.12,73,73,0,0,0,6.86-2.95l-.33.62-2.28-13.79,1.09.61c-4.34,1.85-8.67,3.66-13.16,5.2-1.74.52-3.63,1.36-5.5,1.23-7.42-.51-11.14-8-12.84-14.36-1.87-8.18-.25-22.69,8.5-26.38a7.82,7.82,0,0,1,3.9-.08,68.15,68.15,0,0,1,7,1.38c3.32,1,7.82,2.23,9,6.07.31,1.18.52,2.34.73,3.5,1.2,7,2,14,2.77,21l-.2,0c-1.42-8-2.56-16.22-4.57-24.14-1.65-4.74-12.12-5.67-16.57-6.21a5.5,5.5,0,0,0-3.94,2c-4.57,5-5.53,12.47-5.09,19.05a26.19,26.19,0,0,0,4.75,12.44c1.95,2.45,5.06,4.33,8.22,3.71,5.92-1.56,11.66-4,17.39-6.23,0,.37,2,14.64,2.07,15.3a67.08,67.08,0,0,1-14.77,4.91,18.36,18.36,0,0,1-7.6.07c-12.75-2.67-21.37-15.2-22.65-27.69-1.4-10-.05-21.05,6.32-29.28,6.88-9.76,18.68-7.62,28.21-3.45l-.6.39c0-5.58,0-11.16.07-16.74Z" transform="translate(-232.53 -341.95)"/><path class="cls-5" d="M352.18,388.87a476.23,476.23,0,0,1,10.13,64.7c.44,5.41,1.12,11.08-.86,16.33-3.06,9.11-12.51,13.63-20.78,17-10.3,3.78-21,7.68-32.19,6.88-11.16-.64-22.16-6.67-27.74-16.49-.46-3.33-.93-6.66-1.35-10l.2,0c.61,3,1.57,7.16,2,9.65,8,12.35,23.64,16.76,37.64,14.18a131.38,131.38,0,0,0,20.8-5.82c10.47-4,20.54-8.48,22-20.84.39-10.86-2.32-21.64-3.81-32.36-2-14.27-4.87-29.19-6.1-43.22Z" transform="translate(-232.53 -341.95)"/><path class="cls-5" d="M279.42,404.79A55.12,55.12,0,0,1,294,394.3a69.37,69.37,0,0,1,17.28-5.06,43.19,43.19,0,0,1,26.61,3.55,40.15,40.15,0,0,1,7.56,4.94l-.11.17a64.36,64.36,0,0,0-33.94-7.57,29.08,29.08,0,0,0-12.77,3.27c-6.51,3.54-12.71,7.4-19.07,11.35l-.13-.16Z" transform="translate(-232.53 -341.95)"/></g><path class="cls-5" d="M295.43,345.55a20.46,20.46,0,0,0,1.11,2.54,37,37,0,0,0,4,6.29,44.79,44.79,0,0,0,3.37,3.81c.64.65,1.36,1.32,2.08,2.16a9.34,9.34,0,0,1,1.9,3.2,6.46,6.46,0,0,1-.12,4.51,5.43,5.43,0,0,1-1.63,2.1,8,8,0,0,1-2.06,1.12,23.63,23.63,0,0,0-2.95,1.09,1.84,1.84,0,0,0-.95,1.29,4.9,4.9,0,0,0,.17,2.36,7.58,7.58,0,0,0,.49,1.22,7.25,7.25,0,0,0,.73,1.15c1.18,1.61,2.86,3.15,4.22,5.1a11.82,11.82,0,0,1,1.61,3.19A10.59,10.59,0,0,1,308,390a11.74,11.74,0,0,1-1.47,5.54,10.87,10.87,0,0,1-3,3.44,17.09,17.09,0,0,1-2.89,1.65l-1.88.83-.65.3a20.08,20.08,0,0,0,2.37-1.42,14,14,0,0,0,2.44-2,10.25,10.25,0,0,0,1.14-1.54,9.93,9.93,0,0,0,.86-1.93,10.06,10.06,0,0,0,.35-4.63,8.36,8.36,0,0,0-2.25-4.43c-1.24-1.39-3-2.69-4.7-4.66a10.32,10.32,0,0,1-1.23-1.7,9.83,9.83,0,0,1-.91-2,8.91,8.91,0,0,1-.34-4.75,6.72,6.72,0,0,1,1.17-2.5,6.2,6.2,0,0,1,2.11-1.75,19.57,19.57,0,0,1,3.65-1.2c.9-.29,1.22-.5,1.45-.85a2.71,2.71,0,0,0,.23-1.83c-.22-1.42-1.44-3-2.55-4.55a37.77,37.77,0,0,1-2.75-4.62,45.89,45.89,0,0,1-2.85-7.13Z" transform="translate(-232.53 -341.95)"/><path class="cls-5" d="M312.8,342s.33.36,1,1a11.48,11.48,0,0,1,1.11,1.24,4.66,4.66,0,0,1,.91,2.17,3.59,3.59,0,0,1-.09,1.51,3.25,3.25,0,0,1-1,1.5,10.72,10.72,0,0,1-2.91,1.49,1.84,1.84,0,0,0-1.26,1.42,4.28,4.28,0,0,0,.42,2.43,10.7,10.7,0,0,0,1.78,2.43,21.6,21.6,0,0,1,2.15,2.7A7.72,7.72,0,0,1,316.1,363a7.92,7.92,0,0,1-.2,2.85,8.3,8.3,0,0,1-1.83,3.46,10.09,10.09,0,0,1-.72.73l-.26.25.23-.27a4.4,4.4,0,0,0,.57-.84,6.92,6.92,0,0,0,.84-3.48,7.07,7.07,0,0,0-.41-2.3,6.42,6.42,0,0,0-1.35-2.14c-.61-.69-1.4-1.35-2.26-2.16a15.29,15.29,0,0,1-1.29-1.35,7.65,7.65,0,0,1-1.18-1.81,6.39,6.39,0,0,1-.44-4.43,4.26,4.26,0,0,1,1.33-2,4.74,4.74,0,0,1,1.9-.94,15.21,15.21,0,0,0,2.61-.65,1.88,1.88,0,0,0,1-1.53,3.83,3.83,0,0,0-.27-1.89,7.83,7.83,0,0,0-.74-1.4A13,13,0,0,0,312.8,342Z" transform="translate(-232.53 -341.95)"/></svg>