<svg id="Слой_1" data-name="Слой 1" xmlns="http://www.w3.org/2000/svg" viewBox="0 0 125.42 103.05"><defs><style>.cls-1{fill:#bf5c42;}.cls-2{fill:#fae79a;}.cls-3{fill:#444e66;}.cls-4{fill:#1e1e1c;}.cls-5{fill:#f7edc4;}</style></defs><ellipse class="cls-1" cx="286.7" cy="456.1" rx="39.38" ry="15.17" transform="translate(-304.73 -317.04) rotate(-9.29)"/><path class="cls-2" d="M260.14,427.22s15.77,10.86,24,12.83,21.62,3.09,21.62,3.09l20.1-6.89,9-5.08s-5.9,17.51-7.94,20.12-10.11,10.37-10.11,10.37l-11.5,2.41-16.38-1.25-11.84-6.72L266.15,444l-5.28-8.86Z" transform="translate(-234.85 -369.31)"/><polygon class="cls-3" points="23.35 50.83 25.73 54.9 34.74 63.85 49.28 70.74 63.52 74.09 75.29 73.22 85.42 70.12 99.96 61.86 110.67 52.32 101.97 49.84 105.26 38.16 93.78 41.06 89.77 33.52 90.68 23.08 81.2 28.81 72.63 29.66 73.24 11.73 66.92 15.57 64.33 9.57 60.82 11.73 56.98 16.23 52.79 11.73 52.79 20.19 54.03 27.5 51.57 33.17 47.15 29.9 43.85 19.74 38.86 10.7 38.61 17.86 36.6 22.5 36.6 34.65 30.03 39.42 24.06 31.72 24.49 40.03 23.15 42.92 24.06 47 23.35 50.83"/><g id="цветок"><path class="cls-4" d="M260,422.64c2.57,12.45,24,17.35,34.82,19.36,14,2.9,28.07-2.48,39.49-10.34l.37-.26-.11.44c-2.05,6.92-3.59,14.34-7.88,20.3-8.61,11.59-18.82,13.74-32.58,12.18-12.62-1-22.29-10.59-28.62-20.85a29.27,29.27,0,0,1-4.89-13.63c-.27-2.06-.45-4.27-.6-6.34l0-.46c0-.13-.07-.33,0-.4Zm0-.1c.11.23,0,.33.09.5l0,.45c.22,2.06.48,4.26.82,6.3A29.45,29.45,0,0,0,266,443.12a53,53,0,0,0,14.81,15.54c8,5.35,18.47,5.59,27.72,4.55,9.37-1.68,17.47-9,21.12-17.69a115.54,115.54,0,0,0,4.54-13.77l.25.18c-11.57,7.8-25.65,13.86-39.83,10.94C284.06,441,261.29,435.2,260,422.54Z" transform="translate(-234.85 -369.31)"/><path class="cls-5" d="M256.56,417.67s-.28-.14-.82-.36-1.32-.53-2.27-.94a26.22,26.22,0,0,1-3.24-1.65c-.57-.36-1.17-.76-1.78-1.18a21.38,21.38,0,0,1-1.81-1.43,19,19,0,0,0-1.82-1.41,17.47,17.47,0,0,0-1.87-1,13.15,13.15,0,0,1-1.67-1c-.49-.35-.93-.72-1.32-1.06-.78-.67-1.38-1.26-1.8-1.66s-.66-.61-.66-.61l.78.44c.51.28,1.26.66,2.15,1.18.44.25.93.54,1.43.87a14.28,14.28,0,0,1,1.51,1.21,15,15,0,0,0,1.67,1.33,15.37,15.37,0,0,0,2,1.11c.71.33,1.41.66,2,1s1.26.72,1.83,1.07a33.51,33.51,0,0,1,3,2.07l2,1.49C256.3,417.49,256.56,417.67,256.56,417.67Z" transform="translate(-234.85 -369.31)"/><path class="cls-5" d="M266.5,422.74s-.19-.17-.56-.45l-1.56-1.19a18.36,18.36,0,0,1-2.14-1.91c-.37-.39-.74-.82-1.12-1.27a14.48,14.48,0,0,1-1.08-1.48,9,9,0,0,0-2.4-2.55,7.73,7.73,0,0,1-1.15-1,11.63,11.63,0,0,1-.84-1c-.49-.66-.85-1.23-1.11-1.61s-.41-.59-.41-.59.19.17.56.44.91.68,1.54,1.2c.32.27.66.56,1,.9a9.43,9.43,0,0,1,.95,1.21,9.85,9.85,0,0,0,1,1.35,11.65,11.65,0,0,0,1.38,1.2,15,15,0,0,1,1.41,1.16c.43.41.84.8,1.21,1.19a19.06,19.06,0,0,1,1.78,2.25l1.1,1.62C266.35,422.54,266.5,422.74,266.5,422.74Z" transform="translate(-234.85 -369.31)"/><path class="cls-5" d="M277.92,426.53s-.14-.25-.41-.7-.69-1.1-1.17-1.92a21.79,21.79,0,0,1-1.49-3c-.22-.58-.44-1.2-.66-1.84a20.05,20.05,0,0,1-.53-2,14.89,14.89,0,0,0-.56-2,14.54,14.54,0,0,0-.81-1.78,10.25,10.25,0,0,1-.71-1.62,14.89,14.89,0,0,1-.39-1.48c-.2-.93-.32-1.69-.4-2.21s-.15-.8-.15-.8l.35.74c.23.47.58,1.16,1,2,.19.43.4.9.58,1.42a11.06,11.06,0,0,1,.45,1.7,12.42,12.42,0,0,0,.49,1.88,13.42,13.42,0,0,0,.89,1.89,20.47,20.47,0,0,1,.95,1.86c.27.62.54,1.21.77,1.78a28,28,0,0,1,1,3.13c.24.91.44,1.64.58,2.16S277.92,426.53,277.92,426.53Z" transform="translate(-234.85 -369.31)"/><path class="cls-5" d="M287.65,432.14l-.58-.9c-.38-.57-.94-1.4-1.59-2.44a32.85,32.85,0,0,1-2.07-3.79c-.33-.74-.66-1.53-1-2.35a26.61,26.61,0,0,1-.85-2.61c-.26-.9-.54-1.77-.86-2.59a24.72,24.72,0,0,0-1.07-2.31,17.12,17.12,0,0,1-.91-2.12c-.23-.68-.41-1.33-.56-1.93-.3-1.19-.49-2.17-.62-2.85s-.22-1-.22-1,.14.35.42,1l1.19,2.65c.24.56.5,1.18.75,1.85a19.16,19.16,0,0,1,.65,2.2,18.57,18.57,0,0,0,.75,2.42,19.58,19.58,0,0,0,1.17,2.46c.94,1.62,1.67,3.23,2.36,4.69s1.17,2.82,1.6,4l1,2.72C287.5,431.79,287.65,432.14,287.65,432.14Z" transform="translate(-234.85 -369.31)"/><path class="cls-5" d="M294.3,413.26s0,.28-.07.8-.07,1.27-.16,2.19a19.12,19.12,0,0,1-.55,3.21c-.17.58-.36,1.19-.58,1.82a16.26,16.26,0,0,1-.82,1.9,15.35,15.35,0,0,0-.81,1.89,14.77,14.77,0,0,0-.47,1.85,9.64,9.64,0,0,1-.48,1.67c-.2.5-.44,1-.65,1.36-.44.82-.84,1.46-1.12,1.9l-.41.68s.09-.27.22-.77.31-1.23.56-2.11c.13-.44.27-.92.45-1.43a12.6,12.6,0,0,1,.73-1.55,11.39,11.39,0,0,0,.79-1.73,12.06,12.06,0,0,0,.48-2,30.67,30.67,0,0,1,.82-3.84c.31-1.17.71-2.18,1-3.05s.59-1.56.78-2Z" transform="translate(-234.85 -369.31)"/><path class="cls-5" d="M299.46,418.94s0,.14,0,.41,0,.67,0,1.14a6.28,6.28,0,0,1-.25,1.62c-.09.29-.21.58-.34.89a5.28,5.28,0,0,1-.53.9,4,4,0,0,0-.47.92,3.2,3.2,0,0,0-.12,1,3.23,3.23,0,0,1-.13.86,4,4,0,0,1-.33.69c-.23.41-.47.73-.61,1s-.21.35-.22.35,0-.14,0-.41,0-.66,0-1.12a4.17,4.17,0,0,1,.12-.75,3.4,3.4,0,0,1,.39-.79,3.36,3.36,0,0,0,.45-.86,3.84,3.84,0,0,0,.15-1,4.51,4.51,0,0,1,.09-1.05c.07-.32.13-.64.22-.93a6.1,6.1,0,0,1,.73-1.47c.25-.4.49-.71.63-.94S299.45,418.93,299.46,418.94Z" transform="translate(-234.85 -369.31)"/><path class="cls-5" d="M314.47,421.47s-.16.15-.41.44-.61.71-1.05,1.22a16.69,16.69,0,0,1-1.63,1.69c-.33.29-.69.57-1.06.87a15,15,0,0,1-1.24.85,6.88,6.88,0,0,0-1.18.92,6.3,6.3,0,0,0-.84,1.12,7.54,7.54,0,0,1-.74,1c-.27.28-.55.53-.8.75-.51.44-1,.77-1.25,1a5,5,0,0,0-.45.38,4.09,4.09,0,0,0,.29-.52c.18-.33.43-.83.8-1.41a7,7,0,0,1,.65-.9,6.14,6.14,0,0,1,1-.84,7.58,7.58,0,0,0,1.09-.89,8.74,8.74,0,0,0,.95-1.18,8.75,8.75,0,0,1,.94-1.2c.33-.36.67-.69,1-1a11.11,11.11,0,0,1,2-1.33c.6-.33,1.11-.56,1.45-.73S314.47,421.47,314.47,421.47Z" transform="translate(-234.85 -369.31)"/><path class="cls-5" d="M323.67,426.54s-.17.1-.47.31-.73.52-1.25.9a19.37,19.37,0,0,1-1.86,1.23l-1.15.61a13.22,13.22,0,0,1-1.31.56,6,6,0,0,0-1.25.68,5.23,5.23,0,0,0-.94.94,7.72,7.72,0,0,1-.82.87c-.29.23-.58.43-.84.61l-1.29.84a4.48,4.48,0,0,0-.46.33s.12-.16.31-.47a13.66,13.66,0,0,1,.89-1.28,6.5,6.5,0,0,1,.72-.8,5.65,5.65,0,0,1,1-.68,7.72,7.72,0,0,0,1.17-.68,9.69,9.69,0,0,0,1.07-1,7.66,7.66,0,0,1,1.09-1c.39-.27.77-.52,1.14-.74a9.25,9.25,0,0,1,2.15-.82c.64-.17,1.17-.26,1.53-.33A4.46,4.46,0,0,0,323.67,426.54Z" transform="translate(-234.85 -369.31)"/><path class="cls-5" d="M341.65,423.79l-.69.62-1.87,1.73a32,32,0,0,1-2.89,2.39c-.58.41-1.2.82-1.84,1.24A21.37,21.37,0,0,1,332.3,431a18.31,18.31,0,0,0-2,1.25,16.09,16.09,0,0,0-1.69,1.43,12.76,12.76,0,0,1-3.08,2.19,4.53,4.53,0,0,1-2.58.53,2.55,2.55,0,0,1-.68-.2l-.22-.1a2.52,2.52,0,0,0,.91.09,4.74,4.74,0,0,0,2.16-1l1.35-1a13.74,13.74,0,0,1,1.7-1.06,17.48,17.48,0,0,0,1.9-1.15,17,17,0,0,0,1.82-1.53c.6-.55,1.19-1.1,1.8-1.57s1.19-.92,1.76-1.34a34.48,34.48,0,0,1,3.18-2l2.24-1.21C341.37,424,341.65,423.79,341.65,423.79Z" transform="translate(-234.85 -369.31)"/><path class="cls-5" d="M340.5,404.65l-.33.77c-.21.51-.52,1.24-.95,2.12a20.39,20.39,0,0,1-1.74,2.94q-.57.78-1.23,1.59a20.91,20.91,0,0,1-1.43,1.61,12.28,12.28,0,0,0-1.36,1.67,10,10,0,0,0-.92,1.77c-.25.59-.51,1.13-.77,1.62l-.79,1.34c-.25.41-.46.79-.65,1.12s-.35.62-.47.86c-.25.49-.37.76-.37.76s.07-.29.17-.83a8.71,8.71,0,0,1,.21-1c.11-.38.2-.82.38-1.28a11.77,11.77,0,0,1,.62-1.48,9.33,9.33,0,0,1,1-1.53,19.4,19.4,0,0,0,1.23-1.61,18.62,18.62,0,0,0,1.07-1.87,19.87,19.87,0,0,1,1.07-1.89c.39-.58.76-1.14,1.12-1.66.74-1,1.51-1.89,2.13-2.62s1.15-1.33,1.47-1.76S340.5,404.65,340.5,404.65Z" transform="translate(-234.85 -369.31)"/><path class="cls-5" d="M325.37,402.06s0,.19-.09.54-.1.88-.2,1.51a11.65,11.65,0,0,1-.51,2.16c-.15.39-.32.79-.5,1.21a8.55,8.55,0,0,1-.7,1.23,6.45,6.45,0,0,0-.63,1.26,6,6,0,0,0-.28,1.28,5.48,5.48,0,0,1-.28,1.16,8.07,8.07,0,0,1-.44.93c-.31.56-.6,1-.79,1.3a4.13,4.13,0,0,0-.28.47s0-.19.09-.54.1-.88.22-1.5a7.07,7.07,0,0,1,.25-1,5.75,5.75,0,0,1,.52-1.06,6.16,6.16,0,0,0,.61-1.17,7.22,7.22,0,0,0,.31-1.37,8.36,8.36,0,0,1,.26-1.39c.12-.44.24-.86.38-1.25a10.85,10.85,0,0,1,1-2c.33-.55.62-1,.81-1.29S325.37,402.06,325.37,402.06Z" transform="translate(-234.85 -369.31)"/><path class="cls-5" d="M311.8,387.24a3.31,3.31,0,0,0-.23.44c-.15.29-.32.72-.54,1.24a13.48,13.48,0,0,1-.87,1.75c-.19.31-.42.61-.63.95a11,11,0,0,1-.78,1,4.47,4.47,0,0,0-.69,1,4.2,4.2,0,0,0-.3,1.13,4.92,4.92,0,0,1-.24,1,9,9,0,0,1-.39.82c-.13.25-.26.47-.37.67l-.29.51a3.43,3.43,0,0,0-.22.44,4.79,4.79,0,0,0,0-.5,11.54,11.54,0,0,1,.09-1.37,7.32,7.32,0,0,1,.2-.92,4,4,0,0,1,.51-.95,6.07,6.07,0,0,0,.62-1,6.44,6.44,0,0,0,.38-1.22,6.56,6.56,0,0,1,.4-1.23c.17-.37.36-.73.55-1.06a7.35,7.35,0,0,1,1.33-1.53c.43-.39.81-.67,1.06-.87S311.8,387.24,311.8,387.24Z" transform="translate(-234.85 -369.31)"/><path class="cls-5" d="M316.43,391.21s-.06.28-.14.8-.18,1.26-.34,2.18a20.92,20.92,0,0,1-.75,3.17c-.2.58-.43,1.18-.67,1.8a18.58,18.58,0,0,1-.89,1.87,14.68,14.68,0,0,0-.84,1.88,13.54,13.54,0,0,0-.5,1.86,11.08,11.08,0,0,1-.47,1.68c-.21.5-.43,1-.64,1.37a4.08,4.08,0,0,1-.75,1.11,1.75,1.75,0,0,1-.92.48,1.07,1.07,0,0,1-.81-.16.91.91,0,0,0,.75-.05,1.31,1.31,0,0,0,.59-.58,4.41,4.41,0,0,0,.39-1.09c.12-.45.25-.93.43-1.44a12.15,12.15,0,0,1,.73-1.58,12,12,0,0,0,.82-1.73,12.45,12.45,0,0,0,.51-2c.14-.69.26-1.37.45-2s.36-1.25.55-1.83a25.67,25.67,0,0,1,1.23-3l.94-2C316.32,391.48,316.43,391.21,316.43,391.21Z" transform="translate(-234.85 -369.31)"/><path class="cls-5" d="M322.42,388s.16.26.41.76a11.37,11.37,0,0,1,.88,2.19,10.08,10.08,0,0,1,.37,3.52,14,14,0,0,1-.33,2.06,11.39,11.39,0,0,1-.73,2.1c-.31.69-.61,1.36-.85,2a20.26,20.26,0,0,0-.58,1.95,11.07,11.07,0,0,1-.6,1.74c-.25.52-.51,1-.76,1.41a6.83,6.83,0,0,1-1.43,1.89,3.08,3.08,0,0,1-.72.47l.16-.14a2.64,2.64,0,0,0,.4-.47,8.72,8.72,0,0,0,.86-2.09c.16-.46.33-1,.56-1.48a14.81,14.81,0,0,1,.84-1.62,10.4,10.4,0,0,0,.89-1.8,9.39,9.39,0,0,0,.5-2.09c.09-.72.18-1.43.27-2.11s.14-1.32.19-1.94c.08-1.23.16-2.34.13-3.29a11.79,11.79,0,0,0-.24-2.26c-.05-.27-.12-.47-.15-.6S322.42,388,322.42,388Z" transform="translate(-234.85 -369.31)"/><path class="cls-5" d="M293.85,376.17s.16.29.48.82.79,1.27,1.32,2.23a24.11,24.11,0,0,1,1.65,3.47c.25.68.49,1.4.71,2.16a20.74,20.74,0,0,1,.55,2.38q.22,1.23.54,2.37c.22.75.51,1.45.78,2.13a13.84,13.84,0,0,1,.64,1.95c.14.62.23,1.21.3,1.76.15,1.08.2,2,.24,2.58s.08,1,.08,1-.09-.33-.28-.91l-.82-2.45c-.17-.51-.35-1.08-.51-1.69a18.29,18.29,0,0,1-.37-2,15.15,15.15,0,0,0-.44-2.21,16.62,16.62,0,0,0-.87-2.26c-.36-.75-.7-1.48-1-2.2l-.82-2.09c-.51-1.33-.86-2.57-1.17-3.61s-.55-1.9-.73-2.48S293.85,376.17,293.85,376.17Z" transform="translate(-234.85 -369.31)"/><path class="cls-5" d="M282.91,374.29l.11.27c.08.18.17.45.33.78a22.43,22.43,0,0,0,1.53,2.67c.7,1.08,1.64,2.28,2.67,3.63.51.67,1.05,1.38,1.65,2.1s1.18,1.48,1.8,2.26a20.55,20.55,0,0,0,1.95,2.17,25.15,25.15,0,0,0,2.07,1.76,19,19,0,0,1,1.86,1.63c.53.55,1,1.1,1.42,1.62a30.68,30.68,0,0,1,1.84,2.53l.63,1s-.27-.3-.79-.82-1.31-1.23-2.27-2.11c-.48-.44-1-.92-1.55-1.45s-1.1-1.15-1.66-1.81a24.11,24.11,0,0,0-1.83-2c-.68-.66-1.42-1.29-2.2-1.93a22,22,0,0,1-2.18-2c-.65-.69-1.26-1.39-1.8-2.08a18.35,18.35,0,0,1-2.35-4.06,20.47,20.47,0,0,1-1-3C283,374.69,282.91,374.29,282.91,374.29Z" transform="translate(-234.85 -369.31)"/><path class="cls-5" d="M272.61,376.94s.1.3.33.82a20,20,0,0,0,1.16,2.09c.53.85,1.23,1.8,1.94,2.91l1.14,1.73c.4.6.78,1.26,1.17,1.93a14.44,14.44,0,0,0,1.26,1.89,15.26,15.26,0,0,0,1.43,1.55,14.88,14.88,0,0,1,1.29,1.41c.36.48.66,1,.94,1.37.55.86,1,1.59,1.25,2.08s.46.76.46.76-.21-.23-.62-.63-1-1-1.72-1.71c-.35-.37-.74-.77-1.11-1.24a12.1,12.1,0,0,1-1.07-1.58,16.78,16.78,0,0,0-1.17-1.76,15.83,15.83,0,0,0-1.53-1.67,17.36,17.36,0,0,1-1.56-1.68c-.46-.58-.89-1.15-1.27-1.72a13.76,13.76,0,0,1-1.58-3.29,16.7,16.7,0,0,1-.6-2.38Z" transform="translate(-234.85 -369.31)"/><path class="cls-5" d="M258.93,371.47s.11.27.33.76l1,2a31.66,31.66,0,0,1,1.3,3,36.13,36.13,0,0,1,1.2,3.86,11.81,11.81,0,0,0,.67,2,11.59,11.59,0,0,0,1,1.7,12.32,12.32,0,0,1,.9,1.52q.35.75.6,1.41l.79,2.1c.19.49.31.76.31.76s-.17-.24-.49-.66-.8-1-1.32-1.83a12.29,12.29,0,0,1-.8-1.33,9.16,9.16,0,0,1-.66-1.65,15.81,15.81,0,0,0-.66-1.85,16.89,16.89,0,0,0-1-1.86,17.12,17.12,0,0,1-1-1.87c-.28-.62-.53-1.23-.75-1.82a19.48,19.48,0,0,1-.85-3.23c-.17-.93-.28-1.7-.35-2.23S258.93,371.47,258.93,371.47Z" transform="translate(-234.85 -369.31)"/><path class="cls-5" d="M253.82,376s.08.26.25.73l.75,2a25.9,25.9,0,0,1,.92,3l.38,1.78c.14.62.21,1.28.3,1.95a9.7,9.7,0,0,0,.41,1.93,10.21,10.21,0,0,0,.76,1.67,13.33,13.33,0,0,1,1.21,2.83l.38,1.13a1.9,1.9,0,0,0,.38.74.58.58,0,0,0,.45.24.71.71,0,0,0,.19-.05.55.55,0,0,1-.18.1.74.74,0,0,1-.59-.12,2.05,2.05,0,0,1-.69-.69c-.2-.29-.44-.63-.67-1a12.07,12.07,0,0,1-.68-1.3,8.21,8.21,0,0,1-.49-1.61,15.94,15.94,0,0,0-.45-1.81,18.28,18.28,0,0,0-.75-1.84,15,15,0,0,1-.75-1.85c-.19-.61-.37-1.21-.51-1.78a19,19,0,0,1-.44-3.1c-.07-.89-.09-1.62-.12-2.12S253.82,376,253.82,376Z" transform="translate(-234.85 -369.31)"/><path class="cls-5" d="M243.4,387.54l.49.38c.32.25.79.59,1.35,1a13.27,13.27,0,0,1,1.83,1.7c.31.35.61.74.92,1.14a11.1,11.1,0,0,1,.85,1.35,8.32,8.32,0,0,0,.88,1.31,7.22,7.22,0,0,0,1.07,1,7.05,7.05,0,0,1,1,.94c.25.33.46.66.65,1,.36.61.63,1.14.81,1.49s.3.55.3.55-.16-.16-.46-.42-.76-.62-1.28-1.11a10.52,10.52,0,0,1-.81-.82,7.11,7.11,0,0,1-.73-1.11,7.25,7.25,0,0,0-.81-1.23,6.92,6.92,0,0,0-1.14-1.08,14,14,0,0,1-1.2-1c-.35-.37-.69-.71-1-1.06a15,15,0,0,1-1.45-2l-.88-1.45C243.53,387.72,243.4,387.54,243.4,387.54Z" transform="translate(-234.85 -369.31)"/><path class="cls-5" d="M272.81,384.88s0,.25.05.71.1,1.12.12,2a13.65,13.65,0,0,1-.19,2.88c-.11.53-.24,1.09-.41,1.65a12.06,12.06,0,0,1-.65,1.72,10.8,10.8,0,0,0-1.05,3.35,7,7,0,0,1-.41,1.49,11.18,11.18,0,0,1-.6,1.2,17.88,17.88,0,0,1-1.07,1.63c-.27.38-.4.59-.4.59s.08-.24.21-.68.3-1.08.52-1.86c.11-.39.24-.81.39-1.25a11.33,11.33,0,0,1,.66-1.37,7.91,7.91,0,0,0,.69-1.53,9,9,0,0,0,.33-1.76c.05-.63.1-1.23.2-1.79l.28-1.64c.18-1,.46-1.95.67-2.73s.41-1.42.51-1.87S272.81,384.88,272.81,384.88Z" transform="translate(-234.85 -369.31)"/><path class="cls-5" d="M289.86,395.1s-.12.28-.31.82-.45,1.3-.82,2.25a24,24,0,0,1-1.46,3.22c-.32.58-.69,1.17-1.07,1.78a19.53,19.53,0,0,1-1.32,1.83,16.49,16.49,0,0,0-1.29,1.83,16.25,16.25,0,0,0-.93,1.87,11.85,11.85,0,0,1-.87,1.67c-.33.5-.66.94-1,1.33s-.61.75-.87,1.06a6.87,6.87,0,0,1-.71.77.94.94,0,0,1-.62.28.39.39,0,0,1-.22-.07.57.57,0,0,0,.22,0,.84.84,0,0,0,.47-.37,9.34,9.34,0,0,0,.45-.9l.6-1.22c.23-.45.48-.93.78-1.44a13.87,13.87,0,0,1,1.11-1.52,13.82,13.82,0,0,0,1.22-1.69,14.29,14.29,0,0,0,1-2c.3-.71.58-1.41.91-2s.64-1.26,1-1.84a30.85,30.85,0,0,1,1.9-3l1.38-2C289.7,395.36,289.86,395.1,289.86,395.1Z" transform="translate(-234.85 -369.31)"/><path class="cls-5" d="M302.33,403.6s0,.22,0,.61,0,1,0,1.66a10.37,10.37,0,0,1-.35,2.41,13.63,13.63,0,0,1-.46,1.36,9.07,9.07,0,0,1-.69,1.4,9.7,9.7,0,0,0-.67,1.38,8,8,0,0,0-.35,1.4,5,5,0,0,1-.39,1.26,5.53,5.53,0,0,1-.64,1,5.13,5.13,0,0,1-.7.7,1.49,1.49,0,0,1-.72.33.61.61,0,0,1-.47-.11.3.3,0,0,1-.09-.13.6.6,0,0,0,.12.08.39.39,0,0,0,.38-.05,1.17,1.17,0,0,0,.41-.44c.12-.23.25-.51.38-.81l.41-1a7.87,7.87,0,0,1,.62-1.1,6.26,6.26,0,0,0,.66-1.26,6.39,6.39,0,0,0,.34-1.48c.07-.53.13-1,.24-1.51s.22-.93.34-1.36a16.39,16.39,0,0,1,.82-2.25l.64-1.51A5.81,5.81,0,0,0,302.33,403.6Z" transform="translate(-234.85 -369.31)"/><path class="cls-5" d="M305.41,371.57s.18.38.55,1.06c.18.34.4.76.63,1.27s.52,1.06.75,1.72a21.78,21.78,0,0,1,1.32,4.72,23.87,23.87,0,0,1,.26,2.89,20.35,20.35,0,0,1-.11,3.1c-.14,1.06-.24,2.08-.35,3.07s-.15,2-.2,2.87a14.35,14.35,0,0,1-.41,2.58,21,21,0,0,1-1.49,3.88c-.23.5-.46.91-.65,1.25-.38.67-.58,1-.58,1s.15-.4.38-1.13c.12-.37.26-.82.39-1.35s.32-1.12.46-1.78.33-1.39.5-2.17.41-1.59.67-2.46a15.74,15.74,0,0,0,.53-2.78,17.14,17.14,0,0,0,0-3c-.12-1-.23-2-.34-3s-.26-1.89-.38-2.78c-.29-1.75-.51-3.35-.8-4.68-.12-.68-.28-1.27-.4-1.8a13.62,13.62,0,0,0-.37-1.35C305.55,372,305.41,371.57,305.41,371.57Z" transform="translate(-234.85 -369.31)"/><path class="cls-5" d="M335.44,404.57s-.11.19-.3.56l-.8,1.56a15.61,15.61,0,0,1-1.36,2.17c-.3.38-.63.76-1,1.15a11.52,11.52,0,0,1-1.17,1.14,8.32,8.32,0,0,0-1.13,1.18,7.91,7.91,0,0,0-.78,1.29,6.89,6.89,0,0,1-.73,1.17,8.76,8.76,0,0,1-.83.88,2.51,2.51,0,0,1-.94.59,1.41,1.41,0,0,1-.84,0,1,1,0,0,1-.44-.24.58.58,0,0,1-.11-.12.82.82,0,0,0,.57.15,1.17,1.17,0,0,0,.6-.24,2.56,2.56,0,0,0,.55-.67c.18-.28.38-.64.63-1a7.94,7.94,0,0,1,.95-1,8.38,8.38,0,0,0,1.05-1.09,7.93,7.93,0,0,0,.85-1.39,12.84,12.84,0,0,1,.81-1.42c.29-.43.58-.85.87-1.23a14.58,14.58,0,0,1,1.76-1.86L335,405C335.29,404.73,335.44,404.57,335.44,404.57Z" transform="translate(-234.85 -369.31)"/><path class="cls-5" d="M354,413.17s-.26.24-.7.71l-1.88,2a36.87,36.87,0,0,1-2.92,2.75c-.59.48-1.21,1-1.87,1.46s-1.36,1-2.1,1.45a19.21,19.21,0,0,0-2.07,1.49,20.6,20.6,0,0,0-1.71,1.64,16.19,16.19,0,0,1-1.56,1.47c-.52.42-1,.78-1.51,1.11a17.23,17.23,0,0,1-2.35,1.4c-.58.29-.91.43-.91.43a7,7,0,0,0,.79-.6c.5-.41,1.15-1.05,2-1.85.41-.4.86-.84,1.37-1.27a15.31,15.31,0,0,1,1.74-1.26,23.08,23.08,0,0,0,1.93-1.38,21.57,21.57,0,0,0,1.84-1.76c.61-.64,1.19-1.26,1.81-1.8s1.2-1.08,1.78-1.56a36.11,36.11,0,0,1,3.25-2.37l2.28-1.48Z" transform="translate(-234.85 -369.31)"/><path class="cls-5" d="M360.28,417.87a3.89,3.89,0,0,0-.36.34l-.92,1a9.31,9.31,0,0,1-1.44,1.28c-.29.21-.62.4-.95.61a8.79,8.79,0,0,1-1.11.54,4.81,4.81,0,0,0-1.07.61,4.45,4.45,0,0,0-.78.85,4.26,4.26,0,0,1-.69.76,6.1,6.1,0,0,1-.75.5c-.47.29-.89.49-1.16.65a4.25,4.25,0,0,0-.42.25,3.89,3.89,0,0,0,.28-.4c.18-.26.42-.66.77-1.1a5.41,5.41,0,0,1,.62-.67,4.45,4.45,0,0,1,.88-.57,5.14,5.14,0,0,0,1-.59A6.08,6.08,0,0,0,355,421a5.8,5.8,0,0,1,.85-.92c.31-.26.6-.51.9-.72a7.87,7.87,0,0,1,1.76-.89c.53-.2,1-.33,1.27-.43S360.28,417.87,360.28,417.87Z" transform="translate(-234.85 -369.31)"/><path class="cls-5" d="M339.41,394.55s-.06.26-.12.73l-.26,2a24.87,24.87,0,0,1-.5,2.92,27.65,27.65,0,0,1-1,3.47,9.81,9.81,0,0,0-.5,1.81,8.83,8.83,0,0,0-.1,1.76,11.42,11.42,0,0,1-.07,1.58c-.08.49-.18.94-.27,1.35-.18.83-.37,1.5-.48,2s-.16.73-.16.73,0-.26-.05-.74-.1-1.17-.11-2a13.48,13.48,0,0,1,.05-1.39,9,9,0,0,1,.35-1.57,11.26,11.26,0,0,0,.44-1.71,12.79,12.79,0,0,0,.16-1.89,14.61,14.61,0,0,1,.16-1.91c.09-.6.2-1.18.33-1.73a15.32,15.32,0,0,1,1-2.84c.34-.78.66-1.41.87-1.84S339.41,394.55,339.41,394.55Z" transform="translate(-234.85 -369.31)"/><path class="cls-5" d="M326.84,385.54s0,.23.12.64.22,1,.33,1.76a12.59,12.59,0,0,1,.16,2.64c0,.49-.1,1-.18,1.54a11.11,11.11,0,0,1-.41,1.63,11.32,11.32,0,0,0-.41,1.62,9.08,9.08,0,0,0-.09,1.55,6.83,6.83,0,0,1-.15,1.4,11.3,11.3,0,0,1-.38,1.16,17.85,17.85,0,0,1-.74,1.63c-.19.38-.28.59-.28.59s0-.23.08-.64.09-1,.15-1.77c0-.36.09-.77.17-1.19a8.6,8.6,0,0,1,.41-1.32,6.35,6.35,0,0,0,.43-1.48,7.39,7.39,0,0,0,.06-1.64,15.46,15.46,0,0,1-.05-1.65l.05-1.52a22.38,22.38,0,0,1,.35-2.56c.12-.73.24-1.33.3-1.74S326.84,385.54,326.84,385.54Z" transform="translate(-234.85 -369.31)"/><path class="cls-5" d="M296.55,376.57s-.15.34-.38,1a27.34,27.34,0,0,0-.8,2.66c-.3,1.13-.56,2.49-.89,4-.16.75-.34,1.54-.49,2.36s-.34,1.67-.52,2.55a16,16,0,0,0-.31,2.61,16.17,16.17,0,0,0,.14,2.44,19.63,19.63,0,0,1,.19,2.2c0,.69,0,1.33,0,1.93,0,1.18-.11,2.14-.14,2.8s-.05,1-.05,1,0-.36-.16-1-.3-1.6-.45-2.78c-.08-.58-.15-1.23-.19-1.93a15.68,15.68,0,0,1,.09-2.23c.08-.78.17-1.6.2-2.46s0-1.73,0-2.65a19.6,19.6,0,0,1,.08-2.67,23,23,0,0,1,.38-2.46,17.3,17.3,0,0,1,1.4-4,22,22,0,0,1,1.41-2.46Z" transform="translate(-234.85 -369.31)"/><path class="cls-5" d="M322.76,379.2a4.52,4.52,0,0,0,.14.58c.09.37.24.91.36,1.6a8.71,8.71,0,0,1,.14,2.41,10.78,10.78,0,0,1-.22,1.41,8.53,8.53,0,0,1-.47,1.46,11.23,11.23,0,0,0-.5,1.44,10.09,10.09,0,0,0-.21,1.4,5.3,5.3,0,0,1-.27,1.26,6.79,6.79,0,0,1-.49,1,13.3,13.3,0,0,1-.91,1.35c-.24.31-.35.48-.35.48a5.51,5.51,0,0,0,.16-.57l.35-1.56c.08-.33.17-.68.28-1.05a8,8,0,0,1,.52-1.13,5.46,5.46,0,0,0,.53-1.29,6,6,0,0,0,.15-1.48c0-.52,0-1,0-1.49l.09-1.36a23.06,23.06,0,0,1,.35-2.3c.12-.66.24-1.2.28-1.58S322.76,379.2,322.76,379.2Z" transform="translate(-234.85 -369.31)"/><path class="cls-5" d="M329,392.9s-.2.13-.52.39a10.51,10.51,0,0,0-1.22,1.25c-.47.56-.94,1.26-1.49,2-.28.38-.57.77-.85,1.21s-.59.87-.9,1.34a5.88,5.88,0,0,0-.7,1.48,5.41,5.41,0,0,0-.21,1.52,9.59,9.59,0,0,1-.12,1.38c-.08.43-.18.82-.27,1.18l-.46,1.72c-.11.41-.15.64-.15.64s0-.24-.06-.66-.12-1-.13-1.8a11,11,0,0,1,.06-1.24,6.37,6.37,0,0,1,.4-1.37,13.68,13.68,0,0,0,.55-1.48c.16-.52.28-1.07.4-1.65a7.24,7.24,0,0,1,.53-1.65,10.64,10.64,0,0,1,.82-1.41,7.08,7.08,0,0,1,2-1.85,8.38,8.38,0,0,1,1.66-.79Z" transform="translate(-234.85 -369.31)"/><path class="cls-5" d="M356.1,408.19s-.22.18-.6.53-.93.86-1.63,1.46a19.86,19.86,0,0,1-2.58,1.95c-.52.32-1.08.63-1.66.95a17.72,17.72,0,0,1-1.86.85,14.49,14.49,0,0,0-1.86.88,14.28,14.28,0,0,0-1.56,1.08,9.64,9.64,0,0,1-1.44.95,14.52,14.52,0,0,1-1.38.62c-.85.35-1.56.58-2,.74l-.76.27s.24-.15.66-.45,1-.76,1.78-1.27c.38-.26.79-.53,1.26-.8a10.76,10.76,0,0,1,1.56-.71,10.59,10.59,0,0,0,1.73-.78,12.28,12.28,0,0,0,1.67-1.17c.55-.45,1.08-.88,1.62-1.25s1.07-.72,1.58-1a25.39,25.39,0,0,1,2.83-1.52l2-.93C355.85,408.33,356.1,408.19,356.1,408.19Z" transform="translate(-234.85 -369.31)"/><path class="cls-5" d="M334.85,408.74l.45.42a9.2,9.2,0,0,1,1.15,1.3,6.21,6.21,0,0,1,1.09,2.37,7.58,7.58,0,0,1,.16,1.54,6.49,6.49,0,0,1-.21,1.62,10.42,10.42,0,0,0-.3,1.56,7.18,7.18,0,0,0,0,1.47,8.31,8.31,0,0,1,0,1.3c0,.4-.09.77-.13,1.11-.08.69-.1,1.25-.11,1.65s.05.61.05.61-.08-.2-.25-.57a7.15,7.15,0,0,1-.49-1.66,6.33,6.33,0,0,1-.09-1.19,5.34,5.34,0,0,1,.24-1.32,8.17,8.17,0,0,0,.32-1.44,5.81,5.81,0,0,0-.06-1.55c-.08-.53-.18-1-.24-1.51s-.16-.91-.25-1.34c-.19-.84-.35-1.62-.54-2.28a11.19,11.19,0,0,0-.56-1.55,4.35,4.35,0,0,0-.21-.4Z" transform="translate(-234.85 -369.31)"/><path class="cls-5" d="M296.24,398.76s.34.2,1,.54,1.55.85,2.65,1.52a30.12,30.12,0,0,1,3.7,2.58c.65.55,1.32,1.14,2,1.78a28.28,28.28,0,0,1,2,2.09c.63.75,1.28,1.45,1.93,2.11s1.32,1.23,2,1.78a16.32,16.32,0,0,1,1.73,1.68c.5.56.92,1.13,1.3,1.64.76,1,1.32,1.92,1.71,2.53s.6.93.6.93l-.77-.8L313.85,415a27.08,27.08,0,0,1-3-3.34,18.67,18.67,0,0,0-1.73-2,20.54,20.54,0,0,0-2.15-1.84c-.79-.58-1.55-1.15-2.26-1.73l-2-1.66c-1.3-1.05-2.4-2.09-3.35-2.94s-1.71-1.56-2.26-2S296.24,398.76,296.24,398.76Z" transform="translate(-234.85 -369.31)"/><path class="cls-5" d="M264.46,389.5s.57.31,1.63.85,2.58,1.32,4.44,2.34,4.05,2.29,6.37,3.87c1.15.79,2.35,1.64,3.57,2.56s2.44,1.92,3.67,3,2.44,2.06,3.64,3,2.38,1.81,3.53,2.62,2.2,1.62,3.13,2.44,1.79,1.62,2.55,2.35c1.52,1.48,2.71,2.72,3.52,3.59s1.27,1.33,1.27,1.33-.5-.43-1.42-1.18l-3.9-3.13-2.68-2.18c-.94-.8-1.93-1.69-2.94-2.65s-2.11-1.94-3.31-2.87-2.49-1.84-3.84-2.72-2.67-1.73-3.93-2.58l-3.62-2.45c-2.3-1.56-4.33-3-6.06-4.26s-3.11-2.22-4.09-2.87S264.46,389.5,264.46,389.5Z" transform="translate(-234.85 -369.31)"/><path class="cls-5" d="M245.66,389s.2.2.58.55.94.83,1.63,1.42,1.54,1.27,2.38,2.12c.43.42.86.88,1.31,1.35s.87,1,1.31,1.57a14.51,14.51,0,0,0,1.34,1.54,16.27,16.27,0,0,0,1.46,1.22,8.57,8.57,0,0,1,1.28,1.17,11.18,11.18,0,0,1,.91,1.2A16.84,16.84,0,0,1,259,403c.23.46.37.71.37.71s-.19-.22-.54-.59-.91-.87-1.56-1.5c-.32-.32-.68-.66-1.05-1a15.44,15.44,0,0,1-1.05-1.33,9.95,9.95,0,0,0-2.79-2.74,17.79,17.79,0,0,1-1.63-1.23c-.5-.44-1-.86-1.41-1.28a17.71,17.71,0,0,1-2.06-2.51c-.52-.76-.91-1.4-1.17-1.85S245.66,389,245.66,389Z" transform="translate(-234.85 -369.31)"/><path class="cls-5" d="M274,401.74a4.63,4.63,0,0,0-.29.5c-.19.32-.44.8-.78,1.37a11.4,11.4,0,0,1-1.33,1.89c-.29.32-.62.64-1,1a10,10,0,0,1-1.16.92,8,8,0,0,0-1.12.94,6.84,6.84,0,0,0-.81,1.09,5.53,5.53,0,0,1-.76,1,8,8,0,0,1-.83.68c-.26.2-.51.37-.73.51s-.39.28-.58.38a.62.62,0,0,1-.45.08c-.11,0-.12-.09-.12-.09a.21.21,0,0,0,.12,0,.42.42,0,0,0,.32-.2l.37-.55c.14-.22.31-.47.5-.73a9.46,9.46,0,0,1,.67-.84,6.24,6.24,0,0,1,.95-.77,7.13,7.13,0,0,0,1.06-.86,6.5,6.5,0,0,0,.86-1.18,12.35,12.35,0,0,1,.82-1.22c.29-.36.57-.71.86-1a11.6,11.6,0,0,1,1.7-1.54l1.25-1C273.85,401.88,274,401.74,274,401.74Z" transform="translate(-234.85 -369.31)"/><path class="cls-5" d="M280.93,397.93s0,.26,0,.73.07,1.17.08,2a15.88,15.88,0,0,1-.17,3c-.09.56-.22,1.13-.36,1.72a13.08,13.08,0,0,1-.58,1.81,12,12,0,0,0-.56,1.8,10.84,10.84,0,0,0-.24,1.74,8,8,0,0,1-.26,1.57,13.1,13.1,0,0,1-.47,1.31c-.33.79-.64,1.4-.85,1.83s-.32.67-.32.67,0-.26.12-.73.14-1.16.27-2c.07-.42.15-.87.26-1.35a10.22,10.22,0,0,1,.53-1.48,10.44,10.44,0,0,0,.56-1.66,10.07,10.07,0,0,0,.23-1.86,18.37,18.37,0,0,1,.12-1.87c.08-.6.14-1.17.23-1.72a24.09,24.09,0,0,1,.67-2.87c.22-.81.41-1.47.54-1.94S280.93,397.93,280.93,397.93Z" transform="translate(-234.85 -369.31)"/><path class="cls-5" d="M267.33,401.37s.3.14.87.36a21.12,21.12,0,0,1,2.36,1.09,16.08,16.08,0,0,1,3.22,2.15c.53.5,1.09,1,1.62,1.62a15.59,15.59,0,0,1,1.48,2c.44.72.9,1.39,1.35,2s.94,1.22,1.41,1.78a10.57,10.57,0,0,1,1.13,1.72,10.78,10.78,0,0,1,.7,1.66c.2.51.32,1,.44,1.41s.2.79.26,1.09c.12.6.21.92.21.92s-.14-.31-.41-.85c-.14-.27-.3-.6-.52-1s-.43-.81-.71-1.27l-.87-1.51c-.29-.56-.58-1.15-.87-1.81a11.08,11.08,0,0,0-1.09-1.94,12,12,0,0,0-1.6-1.77l-1.78-1.59c-.54-.53-1.12-1-1.63-1.46-1.07-.91-2-1.78-2.8-2.47-.4-.37-.79-.66-1.12-.93a10.37,10.37,0,0,0-.88-.67C267.61,401.55,267.33,401.37,267.33,401.37Z" transform="translate(-234.85 -369.31)"/><path class="cls-5" d="M254.47,395.1s.15.26.46.72.76,1.13,1.29,2a23.81,23.81,0,0,1,1.69,3c.27.59.53,1.22.79,1.88a18.12,18.12,0,0,1,.7,2.08,15.25,15.25,0,0,0,.73,2.07,14.64,14.64,0,0,0,1,1.8,11.79,11.79,0,0,1,.86,1.64c.22.53.38,1,.53,1.52.3.94.49,1.72.63,2.25s.24.83.24.83-.15-.27-.43-.74-.7-1.16-1.18-2c-.23-.43-.49-.91-.73-1.43a14.14,14.14,0,0,1-.6-1.74,13.84,13.84,0,0,0-.67-1.93,13.54,13.54,0,0,0-1.05-1.93c-.4-.64-.79-1.26-1.11-1.89s-.63-1.23-.9-1.82a30.06,30.06,0,0,1-1.24-3.23l-.71-2.23C254.58,395.39,254.47,395.1,254.47,395.1Z" transform="translate(-234.85 -369.31)"/><path class="cls-5" d="M274.14,415.9s0,.15.06.42.13.67.2,1.16a6.66,6.66,0,0,1,.06,1.7c0,.31-.12.64-.19,1a5,5,0,0,1-.38,1,4,4,0,0,0-.32,1,3.79,3.79,0,0,0,0,1,3.83,3.83,0,0,1,0,.9,4.84,4.84,0,0,1-.25.76c-.18.45-.38.8-.49,1.05a2.07,2.07,0,0,0-.18.39s0-.15,0-.43-.08-.67-.09-1.16a7.14,7.14,0,0,1,0-.78,3.84,3.84,0,0,1,.28-.85,3.45,3.45,0,0,0,.33-.95,3.86,3.86,0,0,0,0-1.07,5.79,5.79,0,0,1-.08-1.08c0-.34,0-.67.06-1a7.29,7.29,0,0,1,.44-1.62l.43-1.09C274.1,416.05,274.13,415.9,274.14,415.9Z" transform="translate(-234.85 -369.31)"/><path class="cls-5" d="M297.61,424.43a2.9,2.9,0,0,0-.49.14,3.07,3.07,0,0,0-1.06.77c-.38.38-.72.92-1.17,1.47l-.71.91a12.67,12.67,0,0,1-.87,1,4.72,4.72,0,0,0-.79,1,4.63,4.63,0,0,0-.4,1.15,5,5,0,0,1-.81,1.85c-.31.5-.6.89-.78,1.17s-.26.44-.26.44a4,4,0,0,0,.07-.51,14.2,14.2,0,0,1,.23-1.41,5.76,5.76,0,0,1,.29-.93,4.18,4.18,0,0,1,.59-.94,6.09,6.09,0,0,0,.71-1,7.18,7.18,0,0,0,.5-1.23,6.55,6.55,0,0,1,.5-1.24,8.85,8.85,0,0,1,.68-1.07,4.42,4.42,0,0,1,1.77-1.35,3,3,0,0,1,.84-.23,3,3,0,0,1,.64,0Z" transform="translate(-234.85 -369.31)"/><path class="cls-5" d="M314.06,414.39s0,.27-.07.78-.09,1.23-.18,2.13a20.11,20.11,0,0,1-.52,3.11q-.24.85-.54,1.77A19.16,19.16,0,0,1,312,424a14.89,14.89,0,0,0-.73,1.86,12.24,12.24,0,0,0-.37,1.82,9.41,9.41,0,0,1-.38,1.64c-.17.5-.37.95-.55,1.36-.37.82-.72,1.46-1,1.91s-.35.7-.35.7.06-.27.15-.77.21-1.22.39-2.09c.1-.44.21-.92.35-1.42a10.85,10.85,0,0,1,.64-1.55,11,11,0,0,0,.7-1.72,12.94,12.94,0,0,0,.39-1.95,17.24,17.24,0,0,1,.31-2c.14-.62.27-1.22.41-1.79a28.29,28.29,0,0,1,1-3l.79-2C314,414.65,314.06,414.39,314.06,414.39Z" transform="translate(-234.85 -369.31)"/><path class="cls-5" d="M323.89,414.36l-.14.16a5.53,5.53,0,0,0-.38.44,15.4,15.4,0,0,0-1.19,1.78c-.46.77-.93,1.72-1.51,2.74l-.91,1.61c-.31.57-.68,1.14-1,1.74a12.76,12.76,0,0,0-.92,1.8,12.19,12.19,0,0,0-.56,1.82,11.41,11.41,0,0,1-.52,1.62c-.22.49-.45.93-.67,1.34-.42.81-.8,1.45-1.06,1.9s-.38.7-.38.7l.19-.78c.11-.5.25-1.23.5-2.12.13-.44.28-.92.47-1.42a10.06,10.06,0,0,1,.78-1.53,12.78,12.78,0,0,0,.88-1.69,13.49,13.49,0,0,0,.61-2,10.94,10.94,0,0,1,.62-2c.27-.61.54-1.2.84-1.73a11.1,11.1,0,0,1,2-2.6,11.44,11.44,0,0,1,1.71-1.41Z" transform="translate(-234.85 -369.31)"/><path class="cls-5" d="M336.92,422.31s-.05.1-.11.3-.15.51-.28.87a3.48,3.48,0,0,1-.62,1.14,5.45,5.45,0,0,1-.54.53,2.88,2.88,0,0,1-.7.44,2.48,2.48,0,0,0-.68.47,2.09,2.09,0,0,0-.39.66,2.26,2.26,0,0,1-.39.58,2.81,2.81,0,0,1-.49.33,7.05,7.05,0,0,1-.83.37c-.2.08-.29.14-.3.14a2.18,2.18,0,0,0,.16-.29c.1-.19.22-.48.41-.8a3.29,3.29,0,0,1,.34-.48,2,2,0,0,1,.56-.37,1.92,1.92,0,0,0,.64-.42,2.14,2.14,0,0,0,.41-.69,3,3,0,0,1,.36-.74,7.1,7.1,0,0,1,.43-.6,3.87,3.87,0,0,1,1-.79l.78-.47C336.84,422.38,336.92,422.3,336.92,422.31Z" transform="translate(-234.85 -369.31)"/><path class="cls-5" d="M338.57,415.5l.72-.52,1.95-1.5a33.59,33.59,0,0,1,3-2.06c.57-.36,1.2-.7,1.84-1.07s1.33-.7,2-1a13.2,13.2,0,0,0,3.68-2.44,14.28,14.28,0,0,1,1.51-1.21c.5-.33,1-.62,1.43-.87.9-.52,1.64-.9,2.15-1.18l.78-.44s-.24.21-.66.61-1,1-1.8,1.66c-.39.34-.83.7-1.32,1.06a12,12,0,0,1-1.67,1,20.84,20.84,0,0,0-1.87,1.05,19,19,0,0,0-1.82,1.41,19.39,19.39,0,0,1-1.81,1.42c-.61.43-1.2.83-1.78,1.19a26.93,26.93,0,0,1-3.24,1.65c-1,.41-1.73.72-2.27.94Z" transform="translate(-234.85 -369.31)"/><path class="cls-5" d="M328.63,420.58s.16-.2.41-.59l1.1-1.62a19.06,19.06,0,0,1,1.78-2.25c.38-.39.79-.79,1.21-1.19a15,15,0,0,1,1.41-1.16,10.9,10.9,0,0,0,1.38-1.2,10.5,10.5,0,0,0,1-1.35,9.43,9.43,0,0,1,.95-1.21c.34-.34.68-.63,1-.9.63-.52,1.17-.92,1.54-1.2s.56-.44.56-.44-.15.2-.41.59-.62.95-1.11,1.61c-.24.33-.51.68-.83,1a8.26,8.26,0,0,1-1.15,1,10.25,10.25,0,0,0-1.29,1.11,11.73,11.73,0,0,0-1.12,1.44,13.12,13.12,0,0,1-1.08,1.48c-.38.45-.75.88-1.11,1.27a19.23,19.23,0,0,1-2.15,1.91l-1.56,1.19C328.82,420.41,328.63,420.58,328.63,420.58Z" transform="translate(-234.85 -369.31)"/><path class="cls-5" d="M317.21,424.37s.09-.28.23-.78.34-1.25.58-2.16a28,28,0,0,1,1-3.13c.23-.57.5-1.16.77-1.78a20.63,20.63,0,0,1,1-1.86,13.33,13.33,0,0,0,.88-1.89,12.74,12.74,0,0,0,.49-1.88,12.49,12.49,0,0,1,.45-1.71c.19-.51.39-1,.58-1.41.39-.85.74-1.54,1-2s.35-.75.35-.75-.06.29-.15.81-.2,1.28-.4,2.2a15,15,0,0,1-.39,1.49,10.17,10.17,0,0,1-.7,1.62,13.21,13.21,0,0,0-.82,1.78,14.89,14.89,0,0,0-.56,2,20.05,20.05,0,0,1-.53,2c-.22.64-.43,1.26-.66,1.84a21.79,21.79,0,0,1-1.49,2.95c-.47.82-.89,1.46-1.17,1.92S317.21,424.37,317.21,424.37Z" transform="translate(-234.85 -369.31)"/><path class="cls-5" d="M307.48,430s.16-.35.4-1l1-2.72c.43-1.15.93-2.52,1.6-4s1.42-3.07,2.36-4.69a19.58,19.58,0,0,0,1.17-2.46,17.15,17.15,0,0,0,.75-2.42c.2-.79.41-1.53.65-2.2s.51-1.29.76-1.85l1.18-2.65c.28-.63.42-1,.42-1s-.09.37-.22,1-.32,1.66-.62,2.85c-.15.6-.33,1.25-.56,1.93a17.12,17.12,0,0,1-.91,2.12,24.72,24.72,0,0,0-1.07,2.31,27.09,27.09,0,0,0-.85,2.59c-.27.91-.53,1.79-.86,2.61s-.65,1.61-1,2.35a32.85,32.85,0,0,1-2.07,3.79c-.65,1-1.21,1.87-1.59,2.44Z" transform="translate(-234.85 -369.31)"/><path class="cls-5" d="M300.84,411.1s.08.27.26.76.45,1.18.77,2a29.7,29.7,0,0,1,1,3,33.12,33.12,0,0,1,.83,3.85,11.55,11.55,0,0,0,.47,2,11.39,11.39,0,0,0,.79,1.73,11.29,11.29,0,0,1,.73,1.55c.18.51.32,1,.45,1.43.25.88.42,1.61.56,2.11s.22.77.22.77-.14-.25-.41-.69-.68-1.07-1.12-1.89c-.21-.41-.45-.86-.65-1.36a9.64,9.64,0,0,1-.48-1.67,14.77,14.77,0,0,0-.47-1.85A15.35,15.35,0,0,0,303,421a16.26,16.26,0,0,1-.82-1.9c-.22-.63-.41-1.24-.58-1.83a18.85,18.85,0,0,1-.55-3.2c-.09-.92-.13-1.67-.16-2.19S300.84,411.1,300.84,411.1Z" transform="translate(-234.85 -369.31)"/><path class="cls-5" d="M295.67,416.78s.06.12.21.34.38.54.63.94a6.1,6.1,0,0,1,.73,1.47c.09.29.15.61.23.93a6,6,0,0,1,.09,1.05,3.49,3.49,0,0,0,.14,1,3.53,3.53,0,0,0,.45.86,3.4,3.4,0,0,1,.39.79,4.17,4.17,0,0,1,.12.75c0,.46,0,.86,0,1.12s0,.41,0,.41a2.7,2.7,0,0,0-.22-.36c-.14-.22-.38-.54-.61-.95a4,4,0,0,1-.33-.69,3.23,3.23,0,0,1-.13-.86,3.2,3.2,0,0,0-.12-1,4,4,0,0,0-.47-.92,5.28,5.28,0,0,1-.53-.9c-.12-.31-.25-.6-.34-.89a6.28,6.28,0,0,1-.25-1.62c0-.47,0-.87,0-1.14S295.66,416.78,295.67,416.78Z" transform="translate(-234.85 -369.31)"/><path class="cls-5" d="M280.66,419.31s.18.11.53.28.85.4,1.45.73a10.76,10.76,0,0,1,2,1.33c.33.3.67.63,1,1a8.8,8.8,0,0,1,.95,1.2,8.7,8.7,0,0,0,.94,1.18,8.86,8.86,0,0,0,1.09.89,6.14,6.14,0,0,1,1,.84,7,7,0,0,1,.65.9c.37.58.62,1.08.8,1.41a4.09,4.09,0,0,0,.29.52s-.15-.15-.45-.39-.74-.57-1.25-1c-.25-.22-.53-.47-.8-.75a8.24,8.24,0,0,1-.74-1,6,6,0,0,0-.84-1.12,6.88,6.88,0,0,0-1.18-.92,13.25,13.25,0,0,1-1.23-.85c-.37-.3-.74-.58-1.07-.87a16.69,16.69,0,0,1-1.63-1.69c-.44-.51-.79-1-1.05-1.23S280.66,419.31,280.66,419.31Z" transform="translate(-234.85 -369.31)"/><path class="cls-5" d="M271.46,424.38a4.46,4.46,0,0,0,.55.12c.36.07.89.16,1.53.33a8.82,8.82,0,0,1,2.15.82c.37.22.76.47,1.14.74a7.66,7.66,0,0,1,1.09,1,9.76,9.76,0,0,0,1.08,1,7.63,7.63,0,0,0,1.16.68,5.17,5.17,0,0,1,1,.68,6.37,6.37,0,0,1,.72.79,15,15,0,0,1,.89,1.29c.19.31.31.47.31.47a4.48,4.48,0,0,0-.46-.33l-1.29-.84c-.26-.18-.55-.38-.84-.61a7.72,7.72,0,0,1-.82-.87,5.23,5.23,0,0,0-.94-.94,6,6,0,0,0-1.25-.68,13.22,13.22,0,0,1-1.31-.56l-1.15-.61a19.32,19.32,0,0,1-1.86-1.24c-.52-.37-.94-.7-1.25-.9Z" transform="translate(-234.85 -369.31)"/><path class="cls-5" d="M253.48,421.63s.28.17.81.46l2.24,1.21a34.48,34.48,0,0,1,3.18,2c.58.42,1.16.87,1.76,1.34s1.2,1,1.8,1.57a19.43,19.43,0,0,0,1.82,1.53,17.48,17.48,0,0,0,1.9,1.15,16.15,16.15,0,0,1,1.71,1.05l1.35,1.05a4.53,4.53,0,0,0,2.15,1,2.37,2.37,0,0,0,.91-.08l-.22.1a2.27,2.27,0,0,1-.68.19,4.43,4.43,0,0,1-2.58-.52,12.53,12.53,0,0,1-3.07-2.19,16,16,0,0,0-1.7-1.43,18.31,18.31,0,0,0-2-1.25c-.72-.39-1.43-.77-2.06-1.19s-1.26-.83-1.84-1.24A33.46,33.46,0,0,1,256,424l-1.87-1.73C253.73,421.84,253.48,421.63,253.48,421.63Z" transform="translate(-234.85 -369.31)"/><path class="cls-5" d="M254.63,402.48s.17.25.51.68.85,1,1.47,1.76,1.39,1.59,2.13,2.62c.37.52.73,1.08,1.12,1.66a21,21,0,0,1,1.07,1.88A16.19,16.19,0,0,0,262,413a18.84,18.84,0,0,0,1.22,1.61,8.74,8.74,0,0,1,1,1.53,10.45,10.45,0,0,1,.62,1.48,11.49,11.49,0,0,1,.38,1.27,9.33,9.33,0,0,1,.21,1l.17.83s-.12-.28-.37-.76c-.12-.24-.27-.53-.47-.86s-.4-.71-.65-1.12l-.79-1.34a17.61,17.61,0,0,1-.76-1.62,10.73,10.73,0,0,0-.93-1.77,13,13,0,0,0-1.35-1.67,19.16,19.16,0,0,1-1.44-1.61c-.43-.54-.85-1.07-1.23-1.59a20.39,20.39,0,0,1-1.74-2.94c-.43-.88-.74-1.61-.95-2.12S254.63,402.48,254.63,402.48Z" transform="translate(-234.85 -369.31)"/><path class="cls-5" d="M269.76,399.9s.08.17.27.48.48.74.81,1.29a10.85,10.85,0,0,1,1,2c.14.39.26.81.39,1.24a9.94,9.94,0,0,1,.25,1.4,7.22,7.22,0,0,0,.31,1.37,6.16,6.16,0,0,0,.61,1.17,5.45,5.45,0,0,1,.52,1.06,7.07,7.07,0,0,1,.25,1c.12.62.17,1.14.23,1.5s.08.54.08.54a4.13,4.13,0,0,0-.28-.47c-.18-.31-.48-.74-.78-1.3a6.7,6.7,0,0,1-.45-.93,5.63,5.63,0,0,1-.28-1.16,5.45,5.45,0,0,0-.28-1.28,6.45,6.45,0,0,0-.63-1.26,8.46,8.46,0,0,1-.69-1.23c-.19-.42-.36-.82-.5-1.21a11.74,11.74,0,0,1-.52-2.16c-.09-.63-.15-1.15-.2-1.51S269.76,399.9,269.76,399.9Z" transform="translate(-234.85 -369.31)"/><path class="cls-5" d="M283.33,385.08s.13.12.39.32.63.48,1.06.87a7.35,7.35,0,0,1,1.33,1.53,11.66,11.66,0,0,1,.55,1.06,6.56,6.56,0,0,1,.4,1.23,6.44,6.44,0,0,0,.38,1.22,6.82,6.82,0,0,0,.62,1,4,4,0,0,1,.51.95,7.32,7.32,0,0,1,.2.92,11.54,11.54,0,0,1,.09,1.37,3.21,3.21,0,0,0,0,.5s-.07-.16-.23-.44l-.28-.51c-.12-.2-.24-.42-.38-.67a9,9,0,0,1-.39-.82,5.08,5.08,0,0,1-.24-1,4.2,4.2,0,0,0-.3-1.13,4.42,4.42,0,0,0-.68-1,9.61,9.61,0,0,1-.79-1c-.21-.34-.44-.64-.63-.95a13.48,13.48,0,0,1-.87-1.75c-.22-.52-.39-.95-.54-1.24A3.31,3.31,0,0,0,283.33,385.08Z" transform="translate(-234.85 -369.31)"/><path class="cls-5" d="M278.7,389.05s.11.27.33.74l1,2a25.76,25.76,0,0,1,1.22,3c.19.58.36,1.19.55,1.83s.31,1.32.45,2a12.46,12.46,0,0,0,.52,2,11.45,11.45,0,0,0,.81,1.73,12.15,12.15,0,0,1,.73,1.58c.18.51.32,1,.43,1.44a4.41,4.41,0,0,0,.39,1.09,1.28,1.28,0,0,0,.6.58.89.89,0,0,0,.74,0,1,1,0,0,1-.8.15,1.65,1.65,0,0,1-.93-.47,4.32,4.32,0,0,1-.75-1.11c-.21-.42-.43-.87-.63-1.38a9.64,9.64,0,0,1-.48-1.67,15.06,15.06,0,0,0-.49-1.86,16.32,16.32,0,0,0-.85-1.88,18.58,18.58,0,0,1-.89-1.87c-.24-.62-.47-1.22-.67-1.8a20.92,20.92,0,0,1-.75-3.17c-.16-.92-.26-1.67-.34-2.18S278.7,389.05,278.7,389.05Z" transform="translate(-234.85 -369.31)"/><path class="cls-5" d="M272.71,385.82l-.06.22a4.74,4.74,0,0,0-.16.6,12.66,12.66,0,0,0-.24,2.26c0,1,.05,2.06.13,3.29.05.62.1,1.27.19,1.94s.18,1.39.27,2.11a10,10,0,0,0,.5,2.09,10.4,10.4,0,0,0,.89,1.8,14.05,14.05,0,0,1,.85,1.61c.22.53.39,1,.55,1.49a8.44,8.44,0,0,0,.86,2.08,2.43,2.43,0,0,0,.4.48l.16.14a3.08,3.08,0,0,1-.72-.47,7,7,0,0,1-1.43-1.89c-.25-.43-.51-.89-.75-1.41a10.14,10.14,0,0,1-.61-1.74,20.26,20.26,0,0,0-.58-1.95c-.24-.66-.53-1.33-.84-2a11.44,11.44,0,0,1-.74-2.1,14,14,0,0,1-.33-2.06,10.32,10.32,0,0,1,.37-3.52,12.21,12.21,0,0,1,.88-2.2C272.56,386.08,272.71,385.82,272.71,385.82Z" transform="translate(-234.85 -369.31)"/><path class="cls-5" d="M301.28,374s-.11.31-.29.9-.43,1.43-.74,2.47-.66,2.29-1.17,3.62l-.81,2.09c-.29.72-.63,1.45-1,2.2a18,18,0,0,0-.87,2.26,15.15,15.15,0,0,0-.44,2.21,18.29,18.29,0,0,1-.37,2c-.16.61-.34,1.18-.51,1.69-.34,1-.62,1.87-.82,2.45s-.28.91-.28.91,0-.34.08-.95.09-1.5.24-2.58c.07-.55.16-1.14.3-1.77a14.73,14.73,0,0,1,.64-1.95c.27-.67.56-1.37.78-2.12s.39-1.55.54-2.38a21.06,21.06,0,0,1,.55-2.37c.23-.76.47-1.48.71-2.16a26.44,26.44,0,0,1,1.65-3.47c.54-1,1-1.71,1.32-2.24S301.28,374,301.28,374Z" transform="translate(-234.85 -369.31)"/><path class="cls-5" d="M312.22,372.13s-.08.4-.25,1.11a20.14,20.14,0,0,1-1,3,17.7,17.7,0,0,1-2.35,4.05,26,26,0,0,1-1.8,2.09,22,22,0,0,1-2.18,2c-.78.64-1.52,1.27-2.2,1.93a25.72,25.72,0,0,0-1.83,2c-.56.67-1.1,1.28-1.65,1.82s-1.08,1-1.56,1.45c-1,.88-1.74,1.59-2.26,2.11s-.79.82-.79.82l.62-.95c.41-.62,1-1.51,1.84-2.54.42-.51.89-1.06,1.43-1.61a18.85,18.85,0,0,1,1.85-1.63,23.59,23.59,0,0,0,2.07-1.76,20.55,20.55,0,0,0,1.95-2.17c.62-.78,1.2-1.55,1.8-2.26s1.14-1.43,1.65-2.1c1-1.35,2-2.55,2.67-3.63a22.43,22.43,0,0,0,1.53-2.67c.16-.33.25-.6.33-.78Z" transform="translate(-234.85 -369.31)"/><path class="cls-5" d="M322.53,374.78s-.06.31-.15.88a15.43,15.43,0,0,1-.6,2.38,14.09,14.09,0,0,1-1.57,3.29c-.39.57-.81,1.14-1.28,1.72a17.23,17.23,0,0,1-1.55,1.67,17.1,17.1,0,0,0-1.54,1.68,15.23,15.23,0,0,0-1.16,1.76,13.21,13.21,0,0,1-1.08,1.58,15.57,15.57,0,0,1-1.11,1.24c-.7.74-1.31,1.31-1.72,1.71s-.62.63-.62.63.17-.27.46-.76.7-1.22,1.25-2.08c.28-.42.58-.89.94-1.37a13.75,13.75,0,0,1,1.29-1.41,16.58,16.58,0,0,0,1.44-1.55,15.47,15.47,0,0,0,1.25-1.89c.39-.67.77-1.33,1.17-1.93l1.14-1.73c.71-1.11,1.41-2.06,1.94-2.91a21.12,21.12,0,0,0,1.16-2.09C322.42,375.08,322.53,374.78,322.53,374.78Z" transform="translate(-234.85 -369.31)"/><path class="cls-5" d="M336.2,369.31s-.06.29-.14.81-.18,1.3-.35,2.23a19.48,19.48,0,0,1-.85,3.23c-.22.59-.47,1.2-.75,1.82a17.12,17.12,0,0,1-1,1.87,15.25,15.25,0,0,0-1,1.86,14.25,14.25,0,0,0-.67,1.85,9.16,9.16,0,0,1-.66,1.65A13.36,13.36,0,0,1,330,386c-.53.79-1,1.41-1.33,1.83s-.49.66-.49.66.12-.27.31-.76l.79-2.1c.18-.44.37-.92.6-1.41a12.32,12.32,0,0,1,.9-1.52,10.54,10.54,0,0,0,1.64-3.68,36.13,36.13,0,0,1,1.2-3.86,31.66,31.66,0,0,1,1.3-3l1-2C336.09,369.58,336.2,369.31,336.2,369.31Z" transform="translate(-234.85 -369.31)"/><path class="cls-5" d="M341.31,373.83s0,.27-.06.77-.05,1.23-.12,2.12a19,19,0,0,1-.44,3.1c-.14.57-.32,1.17-.51,1.78a13.54,13.54,0,0,1-.75,1.85,17.37,17.37,0,0,0-.75,1.84,16.22,16.22,0,0,0-.44,1.8,8.1,8.1,0,0,1-.5,1.62,12.07,12.07,0,0,1-.68,1.3c-.23.38-.47.72-.67,1a2,2,0,0,1-.69.69.78.78,0,0,1-.59.12.55.55,0,0,1-.18-.1.71.71,0,0,0,.19,0,.58.58,0,0,0,.45-.24,1.9,1.9,0,0,0,.38-.74l.38-1.13a13.61,13.61,0,0,1,1.21-2.84,9,9,0,0,0,.76-1.66,9.7,9.7,0,0,0,.41-1.93c.09-.67.16-1.33.3-1.95l.38-1.78a25.9,25.9,0,0,1,.92-3c.32-.83.57-1.51.75-2S341.31,373.83,341.31,373.83Z" transform="translate(-234.85 -369.31)"/><path class="cls-5" d="M351.73,385.38s-.13.18-.34.52l-.88,1.45a15,15,0,0,1-1.45,2c-.3.34-.65.69-1,1.06a12.4,12.4,0,0,1-1.2,1,7.9,7.9,0,0,0-1.14,1.09,6.63,6.63,0,0,0-.8,1.23,7.93,7.93,0,0,1-.74,1.11,10.52,10.52,0,0,1-.81.82c-.52.49-1,.85-1.28,1.11s-.46.42-.46.42.11-.19.3-.55.45-.88.82-1.49a10.66,10.66,0,0,1,.64-1,7.05,7.05,0,0,1,.95-.94,7.22,7.22,0,0,0,1.07-1,7.68,7.68,0,0,0,.88-1.31,11.1,11.1,0,0,1,.85-1.35c.31-.4.61-.79.92-1.14a13.27,13.27,0,0,1,1.83-1.7c.56-.44,1-.78,1.35-1Z" transform="translate(-234.85 -369.31)"/><path class="cls-5" d="M322.32,382.72l.15.69c.11.44.29,1.08.51,1.86s.49,1.71.67,2.74l.28,1.64c.1.56.15,1.16.2,1.78a8.28,8.28,0,0,0,.34,1.77,7.88,7.88,0,0,0,.68,1.53,9.48,9.48,0,0,1,.66,1.37c.16.44.28.86.4,1.25.21.78.39,1.41.51,1.86s.21.68.21.68-.13-.22-.4-.59a18.31,18.31,0,0,1-1.07-1.64,10.14,10.14,0,0,1-.6-1.19,7.21,7.21,0,0,1-.41-1.49,10.8,10.8,0,0,0-1.05-3.35,12.06,12.06,0,0,1-.65-1.72c-.17-.56-.3-1.12-.41-1.65a13.65,13.65,0,0,1-.19-2.88c0-.83.08-1.5.12-1.95S322.32,382.72,322.32,382.72Z" transform="translate(-234.85 -369.31)"/><path class="cls-5" d="M305.27,392.94s.16.26.48.72l1.39,1.95a32.52,32.52,0,0,1,1.89,3c.32.58.63,1.2,1,1.83s.61,1.34.91,2a14.29,14.29,0,0,0,1,2,12.88,12.88,0,0,0,1.23,1.69,15.16,15.16,0,0,1,1.1,1.52c.3.5.55,1,.78,1.44l.6,1.22a9.34,9.34,0,0,0,.45.9.77.77,0,0,0,.47.36.48.48,0,0,0,.22,0,.39.39,0,0,1-.22.07,1,1,0,0,1-.62-.28,6.87,6.87,0,0,1-.71-.77c-.26-.31-.56-.66-.87-1.06a15.92,15.92,0,0,1-1-1.33,10.9,10.9,0,0,1-.88-1.67,16.25,16.25,0,0,0-.93-1.87,16.49,16.49,0,0,0-1.29-1.83,19.53,19.53,0,0,1-1.32-1.83c-.38-.61-.75-1.2-1.07-1.78A24,24,0,0,1,306.4,396c-.37-.95-.63-1.72-.82-2.25S305.27,392.94,305.27,392.94Z" transform="translate(-234.85 -369.31)"/><path class="cls-5" d="M292.8,401.44s.07.21.21.57l.64,1.51a17.74,17.74,0,0,1,.83,2.25c.11.43.21.88.33,1.36a13.26,13.26,0,0,1,.24,1.51,6.39,6.39,0,0,0,.34,1.48,6.26,6.26,0,0,0,.66,1.26,7.87,7.87,0,0,1,.62,1.1l.41,1c.13.3.26.58.38.81a1.19,1.19,0,0,0,.42.44.37.37,0,0,0,.37,0,.27.27,0,0,0,.12-.09.3.3,0,0,1-.09.14.56.56,0,0,1-.47.1,1.38,1.38,0,0,1-.72-.32,5.73,5.73,0,0,1-.69-.7,5.3,5.3,0,0,1-.65-1,4.81,4.81,0,0,1-.39-1.25,8,8,0,0,0-.35-1.4,9.7,9.7,0,0,0-.67-1.38,9.07,9.07,0,0,1-.69-1.4c-.18-.47-.34-.92-.46-1.36a10.38,10.38,0,0,1-.35-2.42c0-.69,0-1.26,0-1.65S292.8,401.44,292.8,401.44Z" transform="translate(-234.85 -369.31)"/><path class="cls-5" d="M289.72,369.41s-.14.4-.36,1.14a13.92,13.92,0,0,0-.36,1.35c-.13.53-.29,1.12-.41,1.8-.29,1.33-.51,2.93-.8,4.68-.12.88-.3,1.81-.37,2.78s-.23,2-.34,3a16.26,16.26,0,0,0,0,3,15.92,15.92,0,0,0,.53,2.78c.26.87.47,1.69.67,2.46s.34,1.5.5,2.17.33,1.25.46,1.78.27,1,.39,1.34c.23.74.38,1.14.38,1.14s-.2-.38-.58-1.05c-.19-.34-.42-.76-.65-1.25a16.86,16.86,0,0,1-.76-1.72,16.52,16.52,0,0,1-.73-2.16,14.5,14.5,0,0,1-.41-2.58c-.05-.92-.13-1.88-.2-2.87s-.2-2-.35-3.07a21.73,21.73,0,0,1-.11-3.1,25.86,25.86,0,0,1,.26-2.89,21.78,21.78,0,0,1,1.32-4.72c.24-.66.53-1.22.75-1.73s.45-.92.63-1.26C289.54,369.79,289.72,369.41,289.72,369.41Z" transform="translate(-234.85 -369.31)"/><path class="cls-5" d="M259.69,402.41s.15.16.46.44.76.67,1.3,1.17a14.58,14.58,0,0,1,1.76,1.86c.29.38.58.8.87,1.23a12.84,12.84,0,0,1,.81,1.42,7.93,7.93,0,0,0,.85,1.39A7.83,7.83,0,0,0,266.8,411a7.83,7.83,0,0,1,.94,1,11.27,11.27,0,0,1,.63,1,2.74,2.74,0,0,0,.55.67,1.17,1.17,0,0,0,.6.24.72.72,0,0,0,.57-.16.78.78,0,0,1-.11.13,1,1,0,0,1-.44.24,1.41,1.41,0,0,1-.84,0,2.59,2.59,0,0,1-.94-.59,8.76,8.76,0,0,1-.83-.88,6.89,6.89,0,0,1-.73-1.17,6.93,6.93,0,0,0-.78-1.29,8.32,8.32,0,0,0-1.13-1.18,11.52,11.52,0,0,1-1.17-1.14c-.34-.39-.67-.77-1-1.15a15.61,15.61,0,0,1-1.36-2.17L260,403C259.8,402.6,259.69,402.41,259.69,402.41Z" transform="translate(-234.85 -369.31)"/><path class="cls-5" d="M241.1,411l.83.55,2.28,1.48a36.11,36.11,0,0,1,3.25,2.37c.58.48,1.17,1,1.78,1.56s1.21,1.16,1.81,1.8a20,20,0,0,0,1.84,1.75,19.23,19.23,0,0,0,1.93,1.38,16.67,16.67,0,0,1,1.74,1.27c.51.43,1,.87,1.37,1.27.81.79,1.47,1.44,2,1.85a8.36,8.36,0,0,0,.79.6s-.33-.14-.91-.43a17.23,17.23,0,0,1-2.35-1.4c-.48-.33-1-.69-1.51-1.11a16.19,16.19,0,0,1-1.56-1.47,19.22,19.22,0,0,0-1.71-1.65,20.64,20.64,0,0,0-2.07-1.48c-.74-.48-1.46-.94-2.1-1.45s-1.28-1-1.86-1.46a35.48,35.48,0,0,1-2.93-2.75l-1.88-2C241.36,411.25,241.1,411,241.1,411Z" transform="translate(-234.85 -369.31)"/><path class="cls-5" d="M234.85,415.71s.16.07.46.17.74.23,1.27.43a7.87,7.87,0,0,1,1.76.89,11.34,11.34,0,0,1,.9.72,5.8,5.8,0,0,1,.85.92,6.08,6.08,0,0,0,.86.89,5.7,5.7,0,0,0,1,.59,4.12,4.12,0,0,1,.89.57,5.36,5.36,0,0,1,.61.67c.35.44.59.84.77,1.1a3.89,3.89,0,0,0,.28.4,4.25,4.25,0,0,0-.42-.25c-.27-.16-.69-.36-1.16-.65a6.1,6.1,0,0,1-.75-.5,4.67,4.67,0,0,1-.69-.76,4.45,4.45,0,0,0-.78-.85,5,5,0,0,0-1.06-.61,8.31,8.31,0,0,1-1.12-.54c-.33-.21-.65-.4-1-.61a9.85,9.85,0,0,1-1.44-1.28l-.92-1A3.89,3.89,0,0,0,234.85,415.71Z" transform="translate(-234.85 -369.31)"/><path class="cls-5" d="M255.72,392.39l.32.67c.21.43.52,1.06.86,1.84a16.05,16.05,0,0,1,1,2.84c.12.55.23,1.13.33,1.73a14.63,14.63,0,0,1,.15,1.91,12.79,12.79,0,0,0,.16,1.89A12.57,12.57,0,0,0,259,405a8.85,8.85,0,0,1,.35,1.56,13.77,13.77,0,0,1,.05,1.4c0,.85-.07,1.55-.11,2s0,.74,0,.74,0-.26-.16-.73-.3-1.13-.48-2c-.09-.41-.19-.86-.26-1.35a10,10,0,0,1-.08-1.58,8.83,8.83,0,0,0-.1-1.76,9.6,9.6,0,0,0-.5-1.81,27.65,27.65,0,0,1-1-3.47,24.87,24.87,0,0,1-.5-2.92l-.26-2C255.78,392.65,255.72,392.39,255.72,392.39Z" transform="translate(-234.85 -369.31)"/><path class="cls-5" d="M268.29,383.38s0,.23.08.64.18,1,.31,1.75a22.23,22.23,0,0,1,.34,2.56c0,.49,0,1,.05,1.52a15.54,15.54,0,0,1-.05,1.65,7.39,7.39,0,0,0,.06,1.64,6.87,6.87,0,0,0,.43,1.48,7.62,7.62,0,0,1,.41,1.32c.08.42.13.82.17,1.19l.15,1.76c0,.42.08.65.08.65s-.09-.21-.28-.59-.46-.92-.74-1.63a9.34,9.34,0,0,1-.37-1.16,6.2,6.2,0,0,1-.15-1.4,10.25,10.25,0,0,0-.1-1.55,9.17,9.17,0,0,0-.41-1.62,10.18,10.18,0,0,1-.4-1.63c-.09-.53-.15-1-.19-1.55a12.54,12.54,0,0,1,.16-2.63c.12-.75.25-1.35.33-1.76S268.29,383.38,268.29,383.38Z" transform="translate(-234.85 -369.31)"/><path class="cls-5" d="M298.58,374.41l.56.87a21.07,21.07,0,0,1,1.41,2.46,17.76,17.76,0,0,1,1.41,4c.16.78.29,1.6.38,2.46a19.63,19.63,0,0,1,.07,2.67c0,.92-.06,1.8,0,2.65s.11,1.68.19,2.46a15.63,15.63,0,0,1,.09,2.23c0,.7-.11,1.34-.19,1.93-.15,1.18-.33,2.13-.45,2.78s-.16,1-.16,1,0-.37-.05-1-.1-1.62-.14-2.81c0-.59,0-1.23,0-1.92a19.63,19.63,0,0,1,.19-2.2,14.47,14.47,0,0,0-.17-5.05c-.18-.88-.38-1.73-.52-2.55s-.33-1.61-.49-2.36c-.33-1.49-.59-2.85-.89-4a22.66,22.66,0,0,0-.8-2.66C298.73,374.74,298.58,374.41,298.58,374.41Z" transform="translate(-234.85 -369.31)"/><path class="cls-5" d="M272.37,377s0,.21.06.59.16.92.28,1.58a23.06,23.06,0,0,1,.35,2.3c0,.44.06.89.09,1.36s0,1,0,1.49a6,6,0,0,0,.15,1.48,5.22,5.22,0,0,0,.53,1.28,8.67,8.67,0,0,1,.52,1.14c.11.37.2.72.28,1.05l.35,1.56a5.51,5.51,0,0,0,.16.57s-.11-.17-.35-.48-.56-.76-.91-1.35a6.79,6.79,0,0,1-.49-1,5.41,5.41,0,0,1-.27-1.26,7.94,7.94,0,0,0-.71-2.84A8.53,8.53,0,0,1,272,383a12.78,12.78,0,0,1-.22-1.41,9.12,9.12,0,0,1,.14-2.41c.13-.69.27-1.23.37-1.6A5.43,5.43,0,0,0,272.37,377Z" transform="translate(-234.85 -369.31)"/><path class="cls-5" d="M266.15,390.74l.62.22a8.38,8.38,0,0,1,1.66.79,6.94,6.94,0,0,1,2,1.85,10.64,10.64,0,0,1,.82,1.41,6.78,6.78,0,0,1,.53,1.65c.12.58.24,1.13.4,1.65a13.68,13.68,0,0,0,.55,1.48,5.85,5.85,0,0,1,.4,1.37,11,11,0,0,1,.06,1.24,16.54,16.54,0,0,1-.13,1.8c0,.42-.06.66-.06.66s0-.23-.15-.64l-.46-1.72c-.09-.36-.19-.76-.27-1.18a9.59,9.59,0,0,1-.12-1.38,5.41,5.41,0,0,0-.21-1.52,5.55,5.55,0,0,0-.7-1.48c-.31-.47-.63-.91-.9-1.35s-.57-.82-.84-1.2c-.56-.75-1-1.45-1.5-2a9.78,9.78,0,0,0-1.22-1.25A4.51,4.51,0,0,0,266.15,390.74Z" transform="translate(-234.85 -369.31)"/><path class="cls-5" d="M239,406s.25.14.72.36l2,.93a25.39,25.39,0,0,1,2.83,1.52c.51.32,1,.68,1.58,1s1.07.8,1.62,1.24a12.1,12.1,0,0,0,1.67,1.18,10.59,10.59,0,0,0,1.73.78,10.76,10.76,0,0,1,1.56.71c.47.27.89.54,1.27.8.75.51,1.35,1,1.77,1.27s.66.45.66.45l-.75-.27c-.49-.16-1.21-.39-2.06-.74a13.36,13.36,0,0,1-1.37-.62,9.71,9.71,0,0,1-1.45-.95,12.23,12.23,0,0,0-3.41-2,17,17,0,0,1-1.87-.85c-.58-.32-1.14-.63-1.66-.95a20.64,20.64,0,0,1-2.57-2c-.71-.6-1.25-1.11-1.64-1.46S239,406,239,406Z" transform="translate(-234.85 -369.31)"/><path class="cls-5" d="M260.28,406.58a1,1,0,0,0-.08.14,4.35,4.35,0,0,0-.21.4,10.72,10.72,0,0,0-.56,1.55c-.19.66-.35,1.44-.53,2.28a13.25,13.25,0,0,0-.26,1.34c-.06.48-.16,1-.24,1.51a6.25,6.25,0,0,0-.06,1.55,8.17,8.17,0,0,0,.32,1.44,5.34,5.34,0,0,1,.24,1.32,6.33,6.33,0,0,1-.09,1.19,7.94,7.94,0,0,1-.48,1.66l-.26.57s0-.22.05-.62a14.65,14.65,0,0,0-.11-1.64c0-.34-.09-.71-.12-1.11a7.19,7.19,0,0,1,0-1.3,7.18,7.18,0,0,0,0-1.47,11.77,11.77,0,0,0-.29-1.56,6.51,6.51,0,0,1-.22-1.62,8.36,8.36,0,0,1,.16-1.54,6.36,6.36,0,0,1,1.09-2.37,9.88,9.88,0,0,1,1.15-1.3Z" transform="translate(-234.85 -369.31)"/><path class="cls-5" d="M298.89,396.6s-.31.24-.86.71-1.31,1.16-2.26,2-2,1.88-3.35,2.94l-2,1.66c-.71.58-1.47,1.15-2.25,1.73A19.69,19.69,0,0,0,286,407.5a18.67,18.67,0,0,0-1.73,2,26.29,26.29,0,0,1-3,3.34L279.13,415l-.77.8s.22-.32.61-.93.94-1.49,1.7-2.53c.38-.51.8-1.08,1.3-1.64a15.54,15.54,0,0,1,1.74-1.68c.65-.55,1.32-1.14,2-1.78s1.3-1.36,1.93-2.11a26.42,26.42,0,0,1,2-2.09c.67-.64,1.34-1.23,2-1.78a30.12,30.12,0,0,1,3.7-2.58c1.1-.67,2-1.17,2.65-1.52S298.89,396.6,298.89,396.6Z" transform="translate(-234.85 -369.31)"/><path class="cls-5" d="M330.67,387.34s-.55.36-1.52,1-2.38,1.65-4.1,2.87-3.75,2.7-6.06,4.26L315.37,398q-1.89,1.28-3.93,2.58c-1.35.88-2.65,1.78-3.84,2.72s-2.28,1.92-3.31,2.87-2,1.85-2.94,2.65L298.67,411l-3.9,3.13c-.92.75-1.41,1.17-1.41,1.17l1.27-1.32c.81-.87,2-2.11,3.51-3.59.76-.73,1.6-1.54,2.55-2.35s2-1.62,3.13-2.44,2.33-1.68,3.53-2.62,2.42-1.94,3.64-3,2.44-2.07,3.67-3,2.42-1.77,3.58-2.56c2.31-1.58,4.5-2.85,6.36-3.87s3.39-1.8,4.44-2.34S330.67,387.34,330.67,387.34Z" transform="translate(-234.85 -369.31)"/><path class="cls-5" d="M349.47,386.82s-.16.23-.42.68-.64,1.09-1.17,1.85a17,17,0,0,1-2.06,2.51c-.44.42-.91.84-1.41,1.27a16.21,16.21,0,0,1-1.63,1.24,11.81,11.81,0,0,0-1.57,1.28,10.18,10.18,0,0,0-1.21,1.46c-.36.49-.71.94-1.06,1.33s-.73.72-1.05,1c-.65.63-1.2,1.13-1.55,1.5l-.55.58s.14-.24.38-.7a16.48,16.48,0,0,1,1.1-1.9,12.34,12.34,0,0,1,.91-1.21,9.09,9.09,0,0,1,1.28-1.16,16.27,16.27,0,0,0,1.46-1.22,13.45,13.45,0,0,0,1.34-1.54c.44-.56.86-1.1,1.31-1.57s.88-.93,1.31-1.36c.84-.84,1.69-1.51,2.38-2.11s1.27-1.06,1.64-1.42Z" transform="translate(-234.85 -369.31)"/><path class="cls-5" d="M321.13,399.58s.15.14.45.37l1.25.95a13.59,13.59,0,0,1,1.7,1.55c.28.31.56.67.85,1a10.81,10.81,0,0,1,.82,1.22,7.62,7.62,0,0,0,.86,1.18,6.48,6.48,0,0,0,1.06.85,7,7,0,0,1,.95.78,9.46,9.46,0,0,1,.67.84c.19.26.36.51.5.73l.37.55a.42.42,0,0,0,.32.2c.09,0,.12-.05.13,0s0,0-.12.09a.64.64,0,0,1-.46-.08c-.18-.1-.35-.23-.58-.38s-.47-.31-.73-.51a8,8,0,0,1-.83-.68,6,6,0,0,1-.76-1,6.84,6.84,0,0,0-.81-1.09,7.43,7.43,0,0,0-1.12-.94,10,10,0,0,1-1.16-.92c-.34-.32-.67-.64-1-1a11.4,11.4,0,0,1-1.33-1.89c-.34-.57-.59-1.05-.77-1.37A5.63,5.63,0,0,0,321.13,399.58Z" transform="translate(-234.85 -369.31)"/><path class="cls-5" d="M314.2,395.77s.05.25.17.71l.55,1.94a26.38,26.38,0,0,1,.66,2.87c.09.54.15,1.12.23,1.72s.1,1.22.13,1.87a9.29,9.29,0,0,0,.22,1.86,9.15,9.15,0,0,0,.57,1.65,11.56,11.56,0,0,1,.52,1.49c.11.48.19.93.26,1.35.13.83.21,1.52.28,2s.11.73.11.73-.1-.24-.32-.67-.52-1-.85-1.83a13.1,13.1,0,0,1-.47-1.31,8,8,0,0,1-.26-1.57,12.05,12.05,0,0,0-.23-1.74,13.32,13.32,0,0,0-.57-1.8,13.08,13.08,0,0,1-.58-1.81c-.14-.59-.26-1.17-.36-1.72a15.94,15.94,0,0,1-.17-3c0-.85.06-1.54.09-2S314.2,395.77,314.2,395.77Z" transform="translate(-234.85 -369.31)"/><path class="cls-5" d="M327.8,399.21s-.28.18-.77.54a10.37,10.37,0,0,0-.88.67c-.33.27-.72.56-1.11.93-.83.69-1.74,1.56-2.8,2.47-.52.47-1.1.93-1.64,1.46l-1.78,1.59a12.61,12.61,0,0,0-1.6,1.77,11.08,11.08,0,0,0-1.09,1.94c-.29.66-.58,1.25-.87,1.81l-.87,1.51c-.28.46-.5.89-.71,1.27s-.38.7-.52,1c-.27.54-.41.85-.41.85s.09-.32.21-.92c.06-.3.14-.67.26-1.09s.24-.9.44-1.41a11.87,11.87,0,0,1,.7-1.66,10.57,10.57,0,0,1,1.13-1.72c.47-.56.94-1.15,1.41-1.78s.91-1.31,1.35-2a14.74,14.74,0,0,1,1.49-1.95,22.42,22.42,0,0,1,1.61-1.62,16.61,16.61,0,0,1,3.22-2.16,22.65,22.65,0,0,1,2.36-1.08Z" transform="translate(-234.85 -369.31)"/><path class="cls-5" d="M340.66,392.94l-.28.81-.71,2.23a28.8,28.8,0,0,1-1.24,3.23c-.27.58-.58,1.19-.9,1.82s-.71,1.25-1.11,1.89a14,14,0,0,0-1.05,1.92,13.08,13.08,0,0,0-.66,1.94,13.12,13.12,0,0,1-.61,1.74c-.24.52-.5,1-.73,1.43-.47.86-.9,1.55-1.18,2l-.43.75s.1-.29.24-.83.33-1.31.63-2.26c.15-.47.31-1,.53-1.51a11.79,11.79,0,0,1,.86-1.64,14.64,14.64,0,0,0,1-1.8,15.25,15.25,0,0,0,.73-2.07,21.33,21.33,0,0,1,.7-2.09c.26-.65.52-1.28.79-1.87a25.12,25.12,0,0,1,1.69-3c.53-.84,1-1.5,1.29-2S340.66,392.94,340.66,392.94Z" transform="translate(-234.85 -369.31)"/><path class="cls-5" d="M321,413.74s0,.15.14.4l.43,1.09a7.29,7.29,0,0,1,.44,1.62c0,.31.05.64.06,1a5.79,5.79,0,0,1-.08,1.08,3.86,3.86,0,0,0,0,1.07,3.82,3.82,0,0,0,.33.95,3.25,3.25,0,0,1,.28.85,5.28,5.28,0,0,1,0,.78c0,.49-.07.89-.09,1.16a2.77,2.77,0,0,0,0,.43s-.05-.14-.18-.39-.32-.6-.5-1.06a3.67,3.67,0,0,1-.24-.75,3.34,3.34,0,0,1,0-.9,3.79,3.79,0,0,0,0-1,4.49,4.49,0,0,0-.33-1,5,5,0,0,1-.38-1c-.07-.33-.14-.66-.18-1a6.25,6.25,0,0,1,.05-1.7c.07-.49.16-.89.2-1.16S321,413.74,321,413.74Z" transform="translate(-234.85 -369.31)"/><path class="cls-5" d="M297.52,422.27l.52-.06a3,3,0,0,1,.64,0,3.1,3.1,0,0,1,.85.23,4.37,4.37,0,0,1,1.76,1.35,7.78,7.78,0,0,1,.68,1.07,6.55,6.55,0,0,1,.5,1.24,7.18,7.18,0,0,0,.5,1.23,6.09,6.09,0,0,0,.71,1,4.64,4.64,0,0,1,.6.94,6.84,6.84,0,0,1,.28.93,14.2,14.2,0,0,1,.23,1.41,4,4,0,0,0,.07.51s-.08-.16-.26-.44-.47-.67-.78-1.17a8.88,8.88,0,0,1-.47-.82,5.66,5.66,0,0,1-.34-1,4.49,4.49,0,0,0-.4-1.15,5,5,0,0,0-.78-1,11,11,0,0,1-.88-1l-.71-.91c-.45-.55-.79-1.09-1.17-1.47a3.07,3.07,0,0,0-1.06-.77A2.9,2.9,0,0,0,297.52,422.27Z" transform="translate(-234.85 -369.31)"/><path class="cls-5" d="M281.07,412.23s.08.26.27.73l.79,2a24.32,24.32,0,0,1,1,3c.15.56.27,1.17.41,1.79a17.24,17.24,0,0,1,.31,2,12.94,12.94,0,0,0,.39,1.95,11.06,11.06,0,0,0,.71,1.72,12,12,0,0,1,.63,1.55c.15.5.25,1,.35,1.42.19.87.3,1.6.39,2.09s.15.77.15.77-.11-.25-.35-.7-.58-1.09-1-1.91c-.18-.41-.38-.86-.55-1.36a10.41,10.41,0,0,1-.38-1.64,12.24,12.24,0,0,0-.37-1.82,14.31,14.31,0,0,0-.73-1.86,19.16,19.16,0,0,1-.76-1.86c-.2-.61-.38-1.2-.54-1.78a19.81,19.81,0,0,1-.52-3.1c-.09-.9-.14-1.63-.18-2.14S281.07,412.23,281.07,412.23Z" transform="translate(-234.85 -369.31)"/><path class="cls-5" d="M271.24,412.2l.66.46a11.91,11.91,0,0,1,1.71,1.4,11.26,11.26,0,0,1,2,2.6c.3.54.57,1.13.84,1.74a10.94,10.94,0,0,1,.62,2,12.36,12.36,0,0,0,.62,1.95,12.2,12.2,0,0,0,.87,1.69,10.06,10.06,0,0,1,.78,1.53c.19.5.34,1,.47,1.42.25.89.39,1.62.51,2.12s.18.78.18.78-.12-.26-.38-.7-.63-1.1-1.06-1.9c-.22-.41-.45-.85-.66-1.34a10.05,10.05,0,0,1-.53-1.63,13.29,13.29,0,0,0-.55-1.81,14,14,0,0,0-.93-1.8c-.35-.6-.72-1.17-1-1.74l-.91-1.61c-.58-1-1-2-1.5-2.74a16.83,16.83,0,0,0-1.19-1.78c-.16-.2-.3-.34-.39-.44Z" transform="translate(-234.85 -369.31)"/><path class="cls-5" d="M258.21,420.14a1.42,1.42,0,0,0,.27.19l.77.46a4.16,4.16,0,0,1,1,.8c.15.18.29.39.44.59a3.47,3.47,0,0,1,.35.75,2.14,2.14,0,0,0,.41.69,2.09,2.09,0,0,0,.64.42,2,2,0,0,1,.56.37,3.29,3.29,0,0,1,.34.48c.19.32.31.61.41.8a2.18,2.18,0,0,0,.16.29s-.1-.06-.3-.14a7,7,0,0,1-.82-.37,2.54,2.54,0,0,1-.5-.33,2,2,0,0,1-.38-.58,2.33,2.33,0,0,0-.4-.66,2.58,2.58,0,0,0-.67-.47,2.76,2.76,0,0,1-.71-.44,5.45,5.45,0,0,1-.54-.53,3.48,3.48,0,0,1-.62-1.14c-.13-.36-.21-.67-.28-.87S258.2,420.15,258.21,420.14Z" transform="translate(-234.85 -369.31)"/></g></svg>