<svg id="Слой_1" data-name="Слой 1" xmlns="http://www.w3.org/2000/svg" xmlns:xlink="http://www.w3.org/1999/xlink" viewBox="0 0 75.77 42.03"><defs><style>.cls-1{fill:none;}.cls-2{fill:#fff;}.cls-3{fill:#1e1e1c;}.cls-4{isolation:isolate;}.cls-5{clip-path:url(#clip-path);}.cls-6{fill:#1e1e1d;}</style><clipPath id="clip-path" transform="translate(-470.32 -526.59)"><polygon class="cls-1" points="503.5 548.6 503.58 521.78 546.06 546.31 545.99 573.13 503.5 548.6"/></clipPath></defs><polygon class="cls-2" points="0.1 33.64 40.03 22.35 52.97 30 0.1 33.64"/><path class="cls-3" d="M470.32,560.25c6.11-1.79,12.56-4,19.32-6.13s13.86-3.7,20.63-5.49c4.42,2.38,8.82,5.12,13.34,7.44a.61.61,0,0,1-.27,1.14c-17.21,2.08-35.75,2.13-53,3Zm.2,0c17.45-1.38,35.26-4,52.73-4.24l-.27,1.15c-4.21-2.72-8.44-5.42-12.79-7.91l.25,0c-6.55,2-12.66,4.26-19.3,5.81s-13.41,3.19-20.62,5.16Z" transform="translate(-470.32 -526.59)"/><g class="cls-4"><g class="cls-5"><path class="cls-2" d="M538.68,568a.39.39,0,0,1-.14.24l-.15,0,.19.12c0-.14.07-.27.1-.41M544,548.08c-1.46.25-2.92.49-4.39.7-3.73.49-7.64,1.12-11.39,1.93q2.9,4.85,5.92,9.59c1.44,2.27,2.89,4.56,4.31,6.85a1.24,1.24,0,0,1,.2.85c1.73-6.79,3.49-13.36,5.35-19.92M511.52,528c-1,2.59-2.81,7.26-3.68,9.68-1.14,3.13-2.17,6.36-3.17,9.62,3.52-1.94,7.71-4.44,11.71-6.34-1.7-4.34-3.29-8.7-4.86-13" transform="translate(-470.32 -526.59)"/><path class="cls-6" d="M511.52,528l-.33-.89c8.24,4.41,17.17,9,25.41,13.76l.51.29c2.74,1.59,5.49,3.23,8.21,4.83h0a1.58,1.58,0,0,1,.72,1.26.47.47,0,0,1-.32.51l-1.69.3c-1.86,6.56-3.62,13.13-5.35,19.92h0c0,.14-.07.27-.1.41l-.19-.12a.63.63,0,0,1-.37-.1c-2.17-1.16-4.53-2.48-7-3.91-8.89-5.14-19.21-11.62-27.12-16.55l.78-.43c1-3.26,2-6.49,3.17-9.62.87-2.42,2.64-7.09,3.68-9.68m25.2,12.9c-5.65-3.26-11.3-6.43-17-9.58-2.84-1.6-5.69-3.15-8.54-4.69-.18-.09-.34,0-.4.12l-1.68,5.29c-1.66,5.15-3.73,10.6-5.65,15.44a1,1,0,0,0,.46.81c2.91,1.84,5.84,3.72,8.77,5.5,3.29,2,6.64,4,10,5.9,5.35,3.09,10.72,6.09,15.95,8.92,2.53-6.83,5-14,7.38-21.1a1.57,1.57,0,0,0-.71-1.54h0q-4.32-2.57-8.63-5.06" transform="translate(-470.32 -526.59)"/><path class="cls-2" d="M517.06,542.71c-4.23,1.88-8.75,3.31-13,5,8.71,4.72,17.8,9.42,26.67,14.54,1.9,1.11,3.8,2.22,5.68,3.37-2.29-4-4.53-8-6.85-12-.56-1-1.12-1.92-1.69-2.87-2.14.47-4.22,1-6.19,1.61a.37.37,0,0,1-.28-.06,1.08,1.08,0,0,1-.44-.53c-1.37-3-2.66-6-3.88-9.11" transform="translate(-470.32 -526.59)"/><path class="cls-6" d="M516.38,541c-4,1.9-8.19,4.4-11.71,6.34l-.78.43c7.91,4.93,18.23,11.41,27.12,16.55,2.48,1.43,4.84,2.75,7,3.91a.63.63,0,0,0,.37.1l.15,0a.39.39,0,0,0,.14-.24h0a1.24,1.24,0,0,0-.2-.85c-1.42-2.29-2.87-4.58-4.31-6.85q-3-4.75-5.92-9.59l-.41.09c.57,1,1.13,1.91,1.69,2.87,2.32,4,4.56,8,6.85,12-1.88-1.15-3.78-2.26-5.68-3.37-8.87-5.12-18-9.82-26.67-14.54,4.27-1.74,8.79-3.17,13-5-.23-.58-.46-1.16-.68-1.74" transform="translate(-470.32 -526.59)"/><path class="cls-2" d="M511.33,527.29c3.41,7.67,7.39,16,10.24,23.77a97.11,97.11,0,0,0,11.61-2.14c2.82-.75,6.6-1.78,9.77-2.55-1.18-.65-2.4-1.35-3.67-2.08-9-5.22-20-12.06-27.95-17" transform="translate(-470.32 -526.59)"/><path class="cls-6" d="M521.57,551.06c-2.85-7.77-6.83-16.1-10.24-23.77,8,4.94,18.92,11.78,27.95,17,1.27.73,2.49,1.43,3.67,2.08-3.17.77-7,1.8-9.77,2.55a97.11,97.11,0,0,1-11.61,2.14m15.54-9.89-.51-.29c-8.24-4.74-17.17-9.35-25.41-13.76l.33.89c1.57,4.26,3.16,8.62,4.86,13,.22.58.45,1.16.68,1.74,1.22,3.07,2.51,6.13,3.88,9.11a1.08,1.08,0,0,0,.44.53.37.37,0,0,0,.28.06c2-.6,4.05-1.14,6.19-1.61l.41-.09c3.75-.81,7.66-1.44,11.39-1.93,1.47-.21,2.93-.45,4.39-.7l1.69-.3a.47.47,0,0,0,.32-.51,1.58,1.58,0,0,0-.72-1.26h0c-2.72-1.6-5.47-3.24-8.21-4.83" transform="translate(-470.32 -526.59)"/></g></g></svg>