<svg id="Слой_1" data-name="Слой 1" xmlns="http://www.w3.org/2000/svg" viewBox="0 0 19.94 23.61"><defs><style>.cls-1{fill:#b7d8e1;}.cls-2{fill:#1e1e1c;}</style></defs><path class="cls-1" d="M445.48,490a5.23,5.23,0,0,0-1.16-2.33.33.33,0,0,1-.08-.38,5.08,5.08,0,0,0-.14-3.33c-.09-.24-.3-.23-.48-.19a5.85,5.85,0,0,0-1.31.33,19.17,19.17,0,0,0-1.85,1,.62.62,0,0,1-.53.09,13.39,13.39,0,0,0-3.34-.4,13,13,0,0,0-3,.38.74.74,0,0,1-.66-.09,7.54,7.54,0,0,0-2.28-1.11,4.94,4.94,0,0,0-1.09-.15.29.29,0,0,0-.23.18,5,5,0,0,0-.16,3.27.43.43,0,0,1-.08.44A5.67,5.67,0,0,0,427.8,492a8.07,8.07,0,0,0,.65,2.79,5.14,5.14,0,0,0,3.22,2.81,22.07,22.07,0,0,0,2.17.5l.2.05c-.2.37-.4.72-.59,1.08a.87.87,0,0,0-.11.38c0,.38-.25.5-.56.6a2.88,2.88,0,0,1-3.6-1.35,2.8,2.8,0,0,0-1.93-1.41,1,1,0,0,0-.3,0l-.11.73a4.18,4.18,0,0,1,1.66,2.13,3,3,0,0,0,2.7,2,15.45,15.45,0,0,0,2,0v1.2c0,.33,0,.66,0,1a.73.73,0,0,1-1,.75,15.51,15.51,0,0,0,4.31.83,12.66,12.66,0,0,0,4.36-.78.62.62,0,0,1-.68-.69c0-1.15,0-2.3,0-3.46a3.91,3.91,0,0,0-.92-2.94c.55-.1,1.05-.17,1.53-.29a6,6,0,0,0,3.47-2,6.25,6.25,0,0,0,1.27-3.23A7.87,7.87,0,0,0,445.48,490Z" transform="translate(-425.68 -482.36)"/><path class="cls-2" d="M427.28,491.11c.8,3.41,2.84,5.85,6.51,6l-.12.29a11.61,11.61,0,0,0-.52,1.32,1,1,0,0,1-.2.68,3.21,3.21,0,0,1-4.78-1.16,2.43,2.43,0,0,0-2.16-1.43c0,.1.18.37.28.46l-.05.09a1.23,1.23,0,0,1-.31-.19c-.58-.44,0-.81.48-.85a2.51,2.51,0,0,1,1.5.34c.83.42,1.18,1.39,1.89,1.9a2.64,2.64,0,0,0,2.53.28c.07,0,.07-.37.17-.5.27-.43.52-.76.77-1.15l.15.32c-1.56-.54-3.36-.52-4.7-1.66a5.32,5.32,0,0,1-1.54-4.71Z" transform="translate(-425.68 -482.36)"/><path class="cls-2" d="M426.29,497.25a4.77,4.77,0,0,1,2,2.41c.87,1.63,2.75,1.51,4.37,1.35H433c0,.31,0,1.65,0,2,0,.65.06,1.54-.78,1.78a1.51,1.51,0,0,1-.82,0s0,0,0,0c-.11.28.76-.37.41-.66-.12-.13-.1-.1-.18-.14h0a13.06,13.06,0,0,0,8.42.14l.12.62a1,1,0,0,1-.65-.22c-.49-.42-.27-1.1-.29-1.62-.05-1.85.58-4.27-1-5.66,1.75-.34,3.7-.64,4.9-2.09,1.79-2.18,1.95-6,0-8.16a.88.88,0,0,1-.05-.69,4.66,4.66,0,0,0-.16-2.95c-.06-.13,0,.05.1.06s-.2.05-.38.1a3.1,3.1,0,0,0-1.13.39c-.66.35-1.1.62-1.83.94a1.06,1.06,0,0,1-.61,0,13.23,13.23,0,0,0-6-.11,1.36,1.36,0,0,1-1.16-.12l-.41-.28a5.62,5.62,0,0,0-2.73-1s0,0,0,0h.08l0,0a5,5,0,0,0-.23,3.23.67.67,0,0,1-.16.5,5.48,5.48,0,0,0-1,1.6,6.13,6.13,0,0,0-.41,2.55h-.1a6.19,6.19,0,0,1,1.15-4.6,5.35,5.35,0,0,1-.11-3.07c.09-.43.3-1,.8-.93l.53.07a6.8,6.8,0,0,1,3.11,1.23,14.32,14.32,0,0,1,5.83-.27c.33,0,.75.17,1.05.22a11.09,11.09,0,0,1,3.07-1.32c.33,0,.47-.16.91,0a.84.84,0,0,1,.5.56,7.06,7.06,0,0,1,.26,1,5.21,5.21,0,0,1-.16,2.51c0,.13,0,0,0,0l.17.21a7.21,7.21,0,0,1-.61,8.74c-1.28,1.36-3.16,1.74-4.92,2l.09-.25a3.63,3.63,0,0,1,.89,1.78c.19,1.16.09,2.73.17,3.89.08.44-.21,1.22.42,1.2h1.62a17.55,17.55,0,0,1-4.67,1.44,12.7,12.7,0,0,1-5.82-.79.38.38,0,0,1-.21-.16c-.35-.29.53-.94.41-.66l.09,0c.45.18.57-.07.55-.53,0-.22,0-1.73,0-2l.39.37c-2.47.17-4.4-.22-5.16-2.87a3.83,3.83,0,0,0-1.27-1.55l.05-.09Z" transform="translate(-425.68 -482.36)"/></svg>