<svg id="Слой_1" data-name="Слой 1" xmlns="http://www.w3.org/2000/svg" viewBox="0 0 561.16 302.05"><defs><style>.cls-1{fill:#bf5c42;}.cls-2{fill:#f9c6a9;}.cls-3{fill:#f7edc4;}.cls-4{fill:#fae79a;}.cls-5{fill:#f6bc94;}.cls-6{fill:#e4a684;}.cls-7{fill:#1e1e1c;}</style></defs><ellipse class="cls-1" cx="367.4" cy="540.8" rx="135.59" ry="44.01" transform="translate(-315.89 -330.35) rotate(-9.29)"/><polygon class="cls-2" points="261.83 54.11 308.82 29.71 346.14 5.27 357.58 2.05 364.39 4.59 377.24 1.24 387.44 7.2 398.57 21.02 427.56 40.01 433.43 44.73 434.17 49.66 422.11 54.11 434.54 67.21 436.9 73.27 428.32 76.18 407.7 67.19 403.78 63.3 394.2 64.56 373.86 61.52 364.74 64.12 363.12 69.36 360.28 77.16 357.58 83.51 362.92 87.09 387.45 77.16 407.59 74.81 420.7 77.16 419.47 90.05 402.32 97.21 387.6 105.13 368.56 107.33 360.9 116.04 340.38 117.26 334.7 118.63 275.45 116.04 261.83 63.41 261.83 54.11"/><polygon class="cls-2" points="368.54 210.82 378.21 149.03 402.6 127.17 413.5 121.32 417.72 121.32 426.37 110.57 454.34 96.07 463.02 94.51 477.24 99.03 482.26 100.53 492.64 99.03 520.88 107.33 524.11 109.85 525.17 116.92 538.43 119.48 542.97 124.5 544.27 133.65 521.92 136.26 511.7 141.36 498.77 147.83 498.35 154.23 505.79 155.82 519.04 153.48 526.15 147.92 555.23 148.44 559.63 158.89 549.67 166.42 519.04 173.64 451.62 234.01 439.88 226.13 405.36 212.38 383.02 209.4 368.54 210.82"/><polygon class="cls-3" points="112.21 81.11 160.62 64.95 189.32 62.67 204.73 60.31 217.08 56.6 239.96 54.11 261.37 47.93 265.72 74.8 274.09 103.92 276.74 118.28 263.49 123.29 240.06 134.29 199.23 137.8 185.51 149.91 143.02 173.64 72.56 207.86 91.96 92.45 112.21 81.11"/><polygon class="cls-3" points="331.79 292.51 343.48 241.76 354.85 216.34 367.79 210.81 397.83 209.4 426.19 220.68 447.64 231.34 448.69 283.83 335.06 292.51 331.79 292.51"/><path class="cls-4" d="M414.89,532.91s-28.76.74-49,3.15-45.95,31-45.95,31" transform="translate(-233.39 -396.76)"/><path class="cls-4" d="M424.7,527.48s-16.72-9.05-29.13-14.34S359,515.78,359,515.78" transform="translate(-233.39 -396.76)"/><polygon class="cls-4" points="213.58 57.36 188.24 83.51 200.91 61.5 213.58 57.36"/><path class="cls-4" d="M426.46,520.16s14.38,9,33.28,1.12S493.18,508,493.18,508l14.3-7.32,2.66,17.4-13.26,2L485,527.48l-26.92,5.86L435.32,536Z" transform="translate(-233.39 -396.76)"/><path class="cls-4" d="M593.84,610.64,583.5,653.51A62.47,62.47,0,0,0,587.31,694l2.2,4.86H559.9l17.93-60.28,8.71-25.43Z" transform="translate(-233.39 -396.76)"/><path class="cls-4" d="M666,630.78s2.28,10.16-4.91,26.16S627.31,694,627.31,694l26.78-36.42" transform="translate(-233.39 -396.76)"/><path class="cls-4" d="M672.68,654.72S676,661,666.3,674A86.06,86.06,0,0,1,644.79,694l25.53-13.95" transform="translate(-233.39 -396.76)"/><path class="cls-5" d="M503,483.12s4.31-17.71,7.19-23.59c7.64-15.61,18.68-20.74,22.73-22.56s31-22.38,31-22.38L497.78,454v9.33Z" transform="translate(-233.39 -396.76)"/><path class="cls-6" d="M498,467.2a36.5,36.5,0,0,1,15.61-20.82c12.79-8.12,43.67-27.83,48.15-30.15,5.4-2.8,20.42-9.93,20.42-9.93l19.77-4.95-12.23-2.84-18.91,7.78-28.58,20.19-47,24.39.9,6.39Z" transform="translate(-233.39 -396.76)"/><path class="cls-5" d="M507.69,498s22.31,3.33,39.65,3.49,27.49,5.9,39.77-.37,14.25-11.64,24.33-11.67,20.3-6.09,21.32-7,14.79-9.76,14.79-9.76l5.72,5.57-.4,8.5L635.72,494l-10.21,7.55-20,3.73-11.2,7.55H576.87l-8.78,2.58-59.25-2.58Z" transform="translate(-233.39 -396.76)"/><path class="cls-5" d="M618.19,595.73s25,8.42,40.89,4.77,31.09,4.23,40.34-4.31,30.92-21.34,30.92-21.34L745,563.59l25.72-7.15,22.33-.79-10,7.54-30.64,7.21-41,33.29-21,12.94-71.67-15.91Z" transform="translate(-233.39 -396.76)"/><path class="cls-6" d="M651.12,518.08l-10.55,1.45-13.26,12.34L611.6,545.79l-4.37,29.53-6.05,32.26,30-1.42,31.07,12.36L681,628.1l4,2.68,26.39-27.09s-24.68,8.06-41.11,4.61-43.17-6.71-52.1-12.57S623,546.58,623,546.58l17.57-13.91Z" transform="translate(-233.39 -396.76)"/><path class="cls-5" d="M574.38,417.45a155.35,155.35,0,0,1,16.6-5.92c7.57-2.08,3.14-1.51,14-1.2s23.15,4.26,23.15,4.26l3.81,3.19-27.47-.33-13.79.33Z" transform="translate(-233.39 -396.76)"/><path class="cls-5" d="M590.21,429.2a137,137,0,0,1,23.83,0c11.91,1.18,14.35-3.09,21.39,1.43s16.5,11.5,18.66,12.69,3.13,6.71,3.13,6.71l-1.71.84-17.16-11.61-22.76-5.08Z" transform="translate(-233.39 -396.76)"/><polyline class="cls-5" points="449.92 116.04 450.77 117.3 464.36 114.6 473.91 108.15 483.46 99.94"/><path class="cls-5" d="M711.71,527.83l6.66-.85,20.22-11.59,7.87-5.67,7.36,2.54,4.75,1.42L756,504.91l-15.78-.7s-10.29,4.72-13.53,8.6" transform="translate(-233.39 -396.76)"/><path class="cls-7" d="M419.45,457.21c0,.05-.11,1.2-.32,3.48-.13,1.14-.2,2.56-.29,4.23s-.16,3.6-.18,5.77a133.72,133.72,0,0,0,.8,15.79,138,138,0,0,0,12.61,44.19l1.51,3.08a3,3,0,0,0,.61,1s.28.11.83,0l7.13-.88,14.93-1.78c5.12-.62,10.35-1.11,15.52-2.19a50.33,50.33,0,0,0,7.63-2.22,54.1,54.1,0,0,0,7.28-3.61c4.79-2.74,9.65-6.06,15.48-7.71.73-.19,1.46-.36,2.21-.5s1.53-.24,2.18-.32a3.72,3.72,0,0,0,1.6-.51c.31-.25.42-.5.37-1.16-.32-2.84-.67-5.82-1.08-8.73a83.57,83.57,0,0,0-4-17c-.94-2.72-2-5.4-2.9-8.1s-1.81-5.39-2.57-8.1a131.91,131.91,0,0,1-3.51-16.15c-.4-2.68-.72-5.33-1-8-.06-.66-.12-1.32-.16-2v-.25s0,0-.06,0l-3.55,1.27a129.16,129.16,0,0,1-14.48,4.39,70.16,70.16,0,0,1-7.18,1.26c-2.38.29-4.71.46-7,.62a96.9,96.9,0,0,0-13,1.45c-4.07.8-7.81,2.38-11.57,3.57a38.23,38.23,0,0,1-5.63,1.39,37.29,37.29,0,0,1-5.48.46c-3.54.07-6.84-.16-9.92-.17a115.34,115.34,0,0,0-15.77.92c-4.31.55-7.63,1.21-9.86,1.7-1.12.25-2,.45-2.54.59l-.87.2s1.16-.34,3.38-.89,5.52-1.32,9.83-2a116.84,116.84,0,0,1,15.82-1.48c6.19-.2,13.33.55,20.53-2.23,3.63-1.24,7.41-2.94,11.68-3.87a88.47,88.47,0,0,1,13.27-1.64c2.28-.17,4.58-.33,6.9-.59s4.66-.65,7-1.14a145.13,145.13,0,0,0,14.41-3.92l3.79-1.22.89-.29.43-.13.11,0s0,.06,0,.09l0,.22c0,.3.06.59.07.92l0,.76c0,.65,0,1.3.09,2,.15,2.61.39,5.26.73,7.92a110.6,110.6,0,0,0,3.29,16.08q1.14,4,2.6,8l3,8.05a92.52,92.52,0,0,1,4.54,17.08c.52,3,1,5.83,1.4,8.8a3.64,3.64,0,0,1-.09,1.44,2.77,2.77,0,0,1-.9,1.36,5.35,5.35,0,0,1-2.47,1c-.79.12-1.42.24-2.11.37s-1.35.33-2,.52c-5.33,1.66-10,4.93-14.84,7.79a55.66,55.66,0,0,1-7.58,3.86,52.68,52.68,0,0,1-8,2.41c-5.37,1.17-10.66,1.7-15.76,2.31l-14.94,1.71-7.17.78a5.42,5.42,0,0,1-1.15,0,2.83,2.83,0,0,1-1.42-.55,4.8,4.8,0,0,1-1.31-1.89l-1.47-3.17a133.3,133.3,0,0,1-8.22-24.25,135.07,135.07,0,0,1-3.21-20.84,139.13,139.13,0,0,1-.25-15.89c.1-2.18.2-4.11.37-5.78s.25-3.08.41-4.22C419.31,458.41,419.45,457.26,419.45,457.21Z" transform="translate(-233.39 -396.76)"/><path class="cls-7" d="M373.07,570.32l.53-.45,1.53-1.3c1.33-1.13,3.26-2.77,5.76-4.66a69.09,69.09,0,0,1,9.22-6c1.83-1,3.8-1.92,5.86-2.83a59.91,59.91,0,0,1,6.54-2.44c2.28-.72,4.48-1.44,6.55-2.26a55.22,55.22,0,0,0,5.83-2.74c1.8-1,3.5-1.88,5.12-2.67l2.33-1.14c.74-.4,1.46-.74,2.13-1.11,1.34-.73,2.54-1.44,3.57-2.1l1.42-.94,1.15-.87c.7-.51,1.17-1,1.53-1.28l.52-.46-.45.53c-.31.34-.7.9-1.31,1.53l-1,1.07-1.26,1.2a34,34,0,0,1-3.32,2.68,33.16,33.16,0,0,1-9.85,4.93c-2,.64-4,1.29-6.11,2.12a59.37,59.37,0,0,0-6.27,2.9c-2.09,1.11-4.1,2.24-6.08,3.24s-3.84,2-5.63,3l-9.59,5.05c-2.73,1.45-4.93,2.68-6.43,3.57-.75.44-1.31.81-1.7,1.05Z" transform="translate(-233.39 -396.76)"/><path class="cls-7" d="M597.79,401.35l-.25-.15a8.15,8.15,0,0,0-.74-.46,12.35,12.35,0,0,0-3.1-1.21,12.2,12.2,0,0,0-5.13-.12,28.21,28.21,0,0,0-6.43,2.43,170.12,170.12,0,0,0-15.95,8.62c-2.91,1.78-5.93,3.71-8.94,5.87s-6.07,4.51-9.33,6.86a100.38,100.38,0,0,1-9.85,6.3l-9.43,5.36c-3,1.71-5.87,3.29-8.62,4.65s-5.34,2.56-7.71,3.65c-4.74,2.17-8.62,3.85-11.29,5L498,449.55l-1.07.48,1-.58,2.93-1.66c2.53-1.44,6.19-3.56,10.76-6.08,2.28-1.26,4.79-2.63,7.52-4s5.7-2.77,8.86-4.16a94.79,94.79,0,0,0,9.7-4.73A50.85,50.85,0,0,0,547,422c2.93-2.65,5.79-5.35,8.82-7.64a106.88,106.88,0,0,1,9-6.2,91.05,91.05,0,0,1,16.7-7.89,28.08,28.08,0,0,1,6.94-1.83,12.78,12.78,0,0,1,5.38.69,13.17,13.17,0,0,1,3,1.5C597.49,401.09,597.79,401.35,597.79,401.35Z" transform="translate(-233.39 -396.76)"/><path class="cls-7" d="M631.22,414.59l-.63-.29a13.78,13.78,0,0,1-1.77-.95,20.61,20.61,0,0,1-2.58-1.94,40.58,40.58,0,0,1-3-3c-2.11-2.29-4.39-5.22-7.38-7.47a7.35,7.35,0,0,0-5.1-1.67,24.53,24.53,0,0,0-6.32,1.62,42.81,42.81,0,0,0-6.14,3.05c-1.94,1.12-3.76,2.29-5.54,3.35a34,34,0,0,1-5.25,2.64,48,48,0,0,1-4.88,1.58,64.2,64.2,0,0,1-7.25,1.47c-1.73.26-2.68.38-2.68.38l.67-.2c.44-.12,1.08-.32,1.91-.6,1.64-.55,4-1.42,6.84-2.58l4.62-1.94c1.66-.69,3.47-1.36,5.37-2.08a38.08,38.08,0,0,0,5.78-2.72c1.93-1.11,3.82-2.44,5.89-3.7a18.08,18.08,0,0,1,6.72-2.68,8.59,8.59,0,0,1,3.77.3,11.4,11.4,0,0,1,3.15,1.61,20.91,20.91,0,0,1,4.27,4.38c1.12,1.51,2,2.95,2.87,4.24s1.64,2.41,2.39,3.36a18,18,0,0,0,2.12,2.28,11.51,11.51,0,0,0,1.58,1.2Z" transform="translate(-233.39 -396.76)"/><path class="cls-7" d="M655.51,450.87a4.73,4.73,0,0,1,1.08-.67,11.81,11.81,0,0,1,3.56-.89,13.09,13.09,0,0,0,5.38-1.45,3.48,3.48,0,0,0,1.69-2.49,4.64,4.64,0,0,0-1-3.25,11.54,11.54,0,0,0-3.13-2.65L659,436.91c-2.82-1.79-5.81-3.74-8.91-5.84s-6.32-4.37-9.67-6.7l-5.05-3.6A18.23,18.23,0,0,0,630,418c-4-1.19-8.32-.8-12.37-.61s-8,.63-11.73,1-7.24.8-10.67.81a22.49,22.49,0,0,1-5-.53c-1.57-.36-3-.81-4.31-1.12a19.41,19.41,0,0,0-7.35-.23,33.63,33.63,0,0,0-5.55,1.39c-1.49.51-2.64,1-3.41,1.28l-1.18.49s1.54-.84,4.44-2.17a33.49,33.49,0,0,1,5.5-2,19.36,19.36,0,0,1,7.86-.38c1.44.23,2.89.6,4.37.86a26.24,26.24,0,0,0,4.61.34c1.62,0,3.32-.1,5.1-.16s3.61-.07,5.49-.1c3.75,0,7.69-.1,11.76-.34,2-.12,4.1-.3,6.23-.4a27.44,27.44,0,0,1,6.55.35,19.14,19.14,0,0,1,6.18,2.51c1.85,1.11,3.56,2.23,5.28,3.35,3.41,2.24,6.71,4.4,9.81,6.49s6,4.15,8.73,6.1l3.91,2.86a12.56,12.56,0,0,1,3.36,3.38,6.1,6.1,0,0,1,.88,4.42,4.65,4.65,0,0,1-2.5,3.09,13.66,13.66,0,0,1-5.82,1,10.69,10.69,0,0,0-3.56.59,6.25,6.25,0,0,0-.85.41Z" transform="translate(-233.39 -396.76)"/><path class="cls-7" d="M591,480.28s.09-.14.29-.41a12.78,12.78,0,0,0,.78-1.23,12.15,12.15,0,0,0,1.49-5.32,31.81,31.81,0,0,1,0-4.12,4.05,4.05,0,0,1,1.26-2.17,14.88,14.88,0,0,0,1.75-1.69,3.24,3.24,0,0,0,.48-2.26,6.48,6.48,0,0,1,.1-1.54,2.65,2.65,0,0,1,1-1.57,4.59,4.59,0,0,1,1.59-.72l1.51-.4,3.1-.79a31.5,31.5,0,0,1,6.95-1.27,24.51,24.51,0,0,1,7.6,1.41,50.59,50.59,0,0,0,7.56,1.69,19.1,19.1,0,0,0,7.82-.43,7.81,7.81,0,0,0,1-.33l.57-.21a2.91,2.91,0,0,1,1-.23,2.11,2.11,0,0,1,1.75.81,3.41,3.41,0,0,1,.3.44l.21.39a3,3,0,0,0,.23.38,7.16,7.16,0,0,0,2.9,2.36c2.43,1.23,5.59,1.46,8.75,2.82s5.42,3.92,8.09,5.2a11.14,11.14,0,0,0,8.87.31,3.16,3.16,0,0,0,1.61-1.16,2.28,2.28,0,0,0-.14-1.88,22.21,22.21,0,0,0-2-4.34,31.61,31.61,0,0,0-6.07-7.23c-4.64-4.2-10-7.16-14.77-10.43-1.21-.82-2.38-1.65-3.52-2.53s-2.21-1.83-3.22-2.6a9.65,9.65,0,0,0-3.31-1.58c-1.24-.37-2.52-.69-3.74-1-4.94-1.3-9.59-2.37-13.86-3.28-8.54-1.8-15.49-3.2-20.26-4.33s-7.38-1.8-7.38-1.8l1.93.38c1.26.25,3.13.6,5.54,1,4.82.83,11.83,1.74,20.48,3.17,4.32.72,9,1.61,14.07,2.89,1.25.35,2.51.67,3.81,1.08a14.33,14.33,0,0,1,2,.78,9.63,9.63,0,0,1,1.88,1.22c1.14.93,2.07,1.88,3.14,2.77s2.16,1.79,3.3,2.67c4.53,3.52,9.72,6.78,14.44,11a37.1,37.1,0,0,1,6.37,7.31,25,25,0,0,1,2.31,4.45,6,6,0,0,1,.41,1.3,2.65,2.65,0,0,1-.21,1.6,4.48,4.48,0,0,1-2.2,1.92,12.76,12.76,0,0,1-10.34.23c-3.26-1.43-5.55-3.84-8.19-4.89s-5.84-1.28-8.9-2.7a9.62,9.62,0,0,1-4-3.23c-.13-.18-.23-.37-.35-.56s0-.07,0-.1h0a.07.07,0,0,0-.06,0h0l-.46.17A8.71,8.71,0,0,1,635,462a20.76,20.76,0,0,1-8.93.44,47.39,47.39,0,0,1-7.91-2,24,24,0,0,0-6.9-1.63,31,31,0,0,0-6.58.88l-3.14.61a8.73,8.73,0,0,0-2.66.72c-.58.35-.7,1.13-.73,2.07a6.8,6.8,0,0,1-.16,1.46,3.33,3.33,0,0,1-.69,1.38,16.41,16.41,0,0,1-2,1.69,3.24,3.24,0,0,0-1.16,1.72,31,31,0,0,0-.26,4,12.88,12.88,0,0,1-1.81,5.35A9.93,9.93,0,0,1,591,480.28Z" transform="translate(-233.39 -396.76)"/><path class="cls-7" d="M513.12,511.87s.78,0,2.27.11l6.52.4c5.66.36,13.84.91,24,1.46,5,.26,10.6.58,16.5.6,1.46,0,3,0,4.4-.15l1-.13,1.11-.24c.74-.17,1.49-.37,2.25-.56a59.63,59.63,0,0,1,9.78-2.07c3.52-.3,7,.13,10.25-.22a16.55,16.55,0,0,0,9.06-3.87c.7-.56,1.42-1.18,2.26-1.75a10.31,10.31,0,0,1,2.78-1.33c2-.59,3.75-.81,5.61-1.19l11.26-2.06a17,17,0,0,0,5.26-1.73A37.88,37.88,0,0,0,632,496a30,30,0,0,1,4.78-3.08,34.37,34.37,0,0,1,5.21-2c1.76-.53,3.52-1,5.23-1.47a10.9,10.9,0,0,0,4.54-2.21,5.66,5.66,0,0,0,1.68-4.3,13,13,0,0,0-1-4.69,7.79,7.79,0,0,0-2.74-3.51,11.15,11.15,0,0,0-4.07-1.72,25.88,25.88,0,0,0-8.82-.1c-5.77.78-11,2.6-15.82,4.17l-13,4.21L602.64,483a20.76,20.76,0,0,1-4.65,1,7.46,7.46,0,0,1-6.1-2,4.48,4.48,0,0,1-1-1.41,3.25,3.25,0,0,1-.19-.54,4.76,4.76,0,0,0,1.22,1.88,7.16,7.16,0,0,0,6,1.66,20.17,20.17,0,0,0,4.48-1.25l5.24-2,12.81-4.81c4.75-1.73,10-3.79,16.08-4.66a25.26,25.26,0,0,1,9.54.25,12.76,12.76,0,0,1,4.67,2.21,9.45,9.45,0,0,1,3.08,4.36,14.23,14.23,0,0,1,.86,5.25,6.9,6.9,0,0,1-2.23,5,12.46,12.46,0,0,1-5,2.28c-1.74.47-3.49.9-5.22,1.42a30.93,30.93,0,0,0-5.07,2,26.14,26.14,0,0,0-4.55,3.1,44.12,44.12,0,0,1-4.63,3.44,18.92,18.92,0,0,1-5.54,2.15L611.33,505c-1.82.44-3.73.78-5.32,1.32a7.89,7.89,0,0,0-2.16,1.11c-.68.48-1.34,1.06-2.05,1.66a19,19,0,0,1-10.32,4.58c-3.7.42-7.15,0-10.31.31a64.6,64.6,0,0,0-9.37,1.91l-2.34.54-1.18.23-1.27.13a45.9,45.9,0,0,1-4.68,0c-6-.22-11.54-.78-16.59-1.29-10.1-1-18.24-2.08-23.87-2.72-2.81-.33-5-.57-6.49-.71Z" transform="translate(-233.39 -396.76)"/><path class="cls-7" d="M649.08,518.23l-.27,0a7,7,0,0,0-.81-.05,9.16,9.16,0,0,0-3,.48,15.67,15.67,0,0,0-4.25,2.28,48.71,48.71,0,0,0-4.86,4.24c-3.5,3.36-7.67,7.34-12.5,11.53l-3.74,3.19c-1.28,1.08-2.61,2.17-3.81,3.32a15.54,15.54,0,0,0-3.08,3.83,19.32,19.32,0,0,0-1.78,4.89c-.41,1.76-.67,3.57-.93,5.35s-.48,3.54-.68,5.28c-.42,3.46-.69,6.81-1,10s-.61,6.23-1.09,9.05-1,5.41-1.54,7.78c-1,4.74-2,8.54-2.74,11.16-.35,1.32-.62,2.33-.8,3s-.28,1.06-.28,1.06l.18-1.08c.11-.7.27-1.74.47-3.08.38-2.68.92-6.57,1.58-11.36.33-2.4.69-5,1.12-7.83s1-5.79,1.63-8.93,1.23-6.44,1.63-9.9c.2-1.73.37-3.49.5-5.28s.21-3.63.43-5.51a19.58,19.58,0,0,1,1.38-5.54,15.54,15.54,0,0,1,3.25-4.64c1.28-1.31,2.56-2.42,3.81-3.54l3.68-3.26c4.83-4.21,9.37-7.79,13.18-10.79a45.43,45.43,0,0,1,5.43-3.78,16.55,16.55,0,0,1,4.67-1.86,10.08,10.08,0,0,1,3.14-.19A9.14,9.14,0,0,1,649.08,518.23Z" transform="translate(-233.39 -396.76)"/><path class="cls-7" d="M713.74,497.4l-1-.49c-.68-.32-1.69-.79-3-1.36s-2.93-1.23-4.85-1.84a30,30,0,0,0-6.6-1.4,19.6,19.6,0,0,0-7.86.89,59.92,59.92,0,0,0-8.61,3.78c-3,1.51-6.2,3-9.51,4.65s-6.87,3.06-10.17,4.95a21.49,21.49,0,0,0-4.47,3.43,32.56,32.56,0,0,0-3.53,4.29c-2.1,3-3.73,6.17-5.58,9.06a52.11,52.11,0,0,1-5.89,7.73,73.59,73.59,0,0,1-6.14,5.82,112.67,112.67,0,0,1-9.76,7.3c-2.39,1.6-3.72,2.46-3.72,2.46l.9-.71c.6-.47,1.46-1.18,2.56-2.09,2.19-1.85,5.31-4.58,8.93-8.15,1.81-1.79,3.73-3.8,5.72-6s4.11-4.57,6.19-7.21,4-5.62,6.13-8.66a34.53,34.53,0,0,1,7.83-8.52,80.68,80.68,0,0,1,9.91-5.85c3.27-1.72,6.43-3.38,9.46-4.91a43.59,43.59,0,0,1,9.11-3.63,20.11,20.11,0,0,1,8.72-.28,29.92,29.92,0,0,1,6.73,2.16c1.88.84,3.43,1.68,4.68,2.38C712.38,496.6,713.74,497.4,713.74,497.4Z" transform="translate(-233.39 -396.76)"/><path class="cls-7" d="M758.57,513.68s.1-.3.2-.87a6.91,6.91,0,0,0,0-2.52,7.61,7.61,0,0,0-1.67-3.48,6.59,6.59,0,0,0-1.81-1.47,10.56,10.56,0,0,0-2.49-.91L746.42,503c-2.29-.53-4.72-1.14-7.26-1.86s-5.2-1.51-7.95-2.34a56.16,56.16,0,0,0-8.41-2.21,12.7,12.7,0,0,0-4.31.11,10.28,10.28,0,0,0-3.83,1.71c-2.3,1.62-3.94,3.87-5.67,5.9a26,26,0,0,1-5.73,5.11,28.94,28.94,0,0,1-6,2.92,31.85,31.85,0,0,1-5.32,1.34,34.38,34.38,0,0,1-4.1.4c-1.13,0-2,0-2.59,0l-.9,0,.9-.07a24.75,24.75,0,0,0,2.54-.32,31.67,31.67,0,0,0,3.93-.93,39.24,39.24,0,0,0,4.94-1.88,41.36,41.36,0,0,0,5.52-3.12,52,52,0,0,0,5.78-4.44,76.32,76.32,0,0,1,6.28-5.53,13.7,13.7,0,0,1,4-2,16.67,16.67,0,0,1,4.64-.65,35.15,35.15,0,0,1,9,1.38c2.78.71,5.47,1.39,8,2.1s5,1.43,7.18,2.16,4.29,1.4,6.23,2.11a11.77,11.77,0,0,1,2.68,1.41,7.45,7.45,0,0,1,1.87,2,8.4,8.4,0,0,1,1.31,4,7.68,7.68,0,0,1-.27,2.59A7,7,0,0,1,758.57,513.68Z" transform="translate(-233.39 -396.76)"/><path class="cls-7" d="M685,630.78s3.21-3.58,9.1-9.95,14.54-15.5,25.68-26.34c5.56-5.43,11.75-11.27,18.54-17.39,1.7-1.53,3.45-3.1,5.4-4.56a33.35,33.35,0,0,1,3.06-2.06,34.19,34.19,0,0,1,3.36-1.71,38.3,38.3,0,0,1,7.23-2.39c2.49-.59,5-1,7.59-1.38,5.12-.73,10.33-1.21,15.43-2.44a27.63,27.63,0,0,0,7.29-2.62c2.2-1.24,4-3.09,4.36-5.43a11.67,11.67,0,0,0-.15-3.79,10.55,10.55,0,0,0-1-3.58,1.52,1.52,0,0,0-1-.69,11.44,11.44,0,0,0-1.93-.16l-4.3-.18-17.52-.79-4.42-.2a6.34,6.34,0,0,0-2,.17,4.77,4.77,0,0,0-1.67,1c-1.05.87-2,2.08-3.18,3a15.27,15.27,0,0,1-3.91,2.2,26.49,26.49,0,0,1-8.56,1.52c-1.43,0-2.86,0-4.27,0a21.48,21.48,0,0,1-4.27-.36,5,5,0,0,1-2-1,3.66,3.66,0,0,1-1.25-1.92,5.47,5.47,0,0,1,.88-4.26,7.6,7.6,0,0,1,3.25-2.78,28.1,28.1,0,0,1,3.85-1.43,18.64,18.64,0,0,0,3.6-1.49,21.18,21.18,0,0,0,3.1-2.29c2-1.66,3.9-3.59,6.49-4.63a10.45,10.45,0,0,1,4-.74c1.34,0,2.62.16,3.85.27a43.74,43.74,0,0,0,7.23.09,40,40,0,0,0,6.89-1,7.19,7.19,0,0,0,2.74-1.3,2.52,2.52,0,0,0,1-2.2,15.48,15.48,0,0,0-.78-3c-.34-1-.7-2.06-1.12-3a9.53,9.53,0,0,0-3.62-4.52c-1.58-.94-3.61-1-5.66-1.25a51.07,51.07,0,0,1-6-1,51.72,51.72,0,0,1-10.56-3.75,4.88,4.88,0,0,0-2.17-.67,4.11,4.11,0,0,0-2,.71l-4,2.64a141.41,141.41,0,0,1-13.75,7.89c-3.88,2-7,3.3-9.08,4.19s-3.23,1.31-3.23,1.31l.81-.35c.54-.23,1.34-.58,2.38-1.06,2.07-1,5.12-2.38,8.92-4.47A141.28,141.28,0,0,0,741,513.19l3.91-2.8a5.24,5.24,0,0,1,2.61-1,6.23,6.23,0,0,1,2.76.71,50.92,50.92,0,0,0,10.36,3.36,53.39,53.39,0,0,0,5.79.88c1,.09,2,.14,3.12.31a9.57,9.57,0,0,1,3.29,1.05,11.39,11.39,0,0,1,4.49,5.32,32.18,32.18,0,0,1,1.24,3.21,15.82,15.82,0,0,1,.89,3.53,4.53,4.53,0,0,1-.34,2.15,4.88,4.88,0,0,1-1.31,1.74,9,9,0,0,1-3.54,1.7,40,40,0,0,1-7.31,1,43.28,43.28,0,0,1-7.53-.29c-2.49-.31-4.93-.72-7.15.13s-4.18,2.55-6.24,4.2a21.55,21.55,0,0,1-3.35,2.3,19.06,19.06,0,0,1-3.83,1.48c-2.53.77-5.27,1.47-6.68,3.72a4.6,4.6,0,0,0-.81,3.59,3.38,3.38,0,0,0,2.68,2.32,21,21,0,0,0,4.1.32c1.4,0,2.81,0,4.21,0a24.61,24.61,0,0,0,8.24-1.59,13.76,13.76,0,0,0,3.58-2.12c1.08-.86,1.91-2,3.08-3.08a6.07,6.07,0,0,1,2.08-1.26,7.41,7.41,0,0,1,2.38-.3l4.44.05,17.54.2,4.31.07a12.53,12.53,0,0,1,2.34.16,3.77,3.77,0,0,1,2.44,1.57,6.75,6.75,0,0,1,1,2.35c.18.76.3,1.42.44,2.14a13.92,13.92,0,0,1,.2,4.58,8.84,8.84,0,0,1-2,4.33,13.1,13.1,0,0,1-3.5,2.89,21.82,21.82,0,0,1-4,1.79c-1.33.43-2.65.86-4,1.17a152,152,0,0,1-15.67,2.58c-2.52.34-5,.77-7.36,1.32a36.48,36.48,0,0,0-6.8,2.17c-4.33,1.76-7.86,4.76-11.3,7.73-6.89,6-13.24,11.6-18.95,16.83-11.45,10.47-20.42,19.26-26.53,25.41-3.06,3.09-5.4,5.5-7,7.15Z" transform="translate(-233.39 -396.76)"/><path class="cls-7" d="M682,642.62s0-.5,0-1.45-.08-2.35-.14-4.15-.15-4-.25-6.58c0-.64-.06-1.3-.08-2a2.2,2.2,0,0,0-.5-1.55,4.94,4.94,0,0,0-1.74-.85l-2.22-.81c-6.07-2.22-13.28-4.86-21.16-8.09l-6-2.51c-2.05-.87-4.16-1.76-6.31-2.58s-4.34-1.65-6.58-2.38-4.57-1.33-7-1.84a65.93,65.93,0,0,0-7.15-1.05,66.73,66.73,0,0,0-7-.2,73.77,73.77,0,0,0-13.21,1.62c-4.13.91-8.17,1.63-11.17,3.43a9.22,9.22,0,0,0-3.44,3.52c-.8,1.43-1.46,3-2.16,4.48-2.72,5.86-5,10.56-6.57,13.81l-1.79,3.76-.62,1.31.52-1.35c.34-.89.85-2.2,1.49-3.89,1.29-3.37,3.12-8.27,5.49-14.27.61-1.5,1.15-3.07,2-4.75a10.62,10.62,0,0,1,4-4.36,18.57,18.57,0,0,1,5.76-2.17c2-.43,4.1-.72,6.23-1,4.27-.53,8.77-.82,13.43-1a101.46,101.46,0,0,1,14.45.58,66.71,66.71,0,0,1,7.28,1.31,71.06,71.06,0,0,1,6.85,2.12c2.21.77,4.33,1.6,6.41,2.43s4.11,1.65,6.09,2.44c7.92,3.22,14.94,6.38,20.83,9l2.15,1A5.86,5.86,0,0,1,682,626a3.37,3.37,0,0,1,.66,2.42c0,.68-.06,1.35-.09,2-.12,2.57-.22,4.77-.3,6.58s-.13,3.2-.17,4.15S682,642.62,682,642.62Z" transform="translate(-233.39 -396.76)"/><path class="cls-7" d="M789.89,555.65s-.18,0-.5-.08-.81-.08-1.4-.15a13.66,13.66,0,0,1-2.08-.42,6.77,6.77,0,0,1-2.41-1.24,3.1,3.1,0,0,1-.92-1.33,2.7,2.7,0,0,1,0-1.49,9.23,9.23,0,0,1,.75-2c.28-.54.55-.94.72-1.23s.27-.43.27-.43a6.34,6.34,0,0,0-.48,1.82,14.35,14.35,0,0,0-.17,2,1.89,1.89,0,0,0,.15.9,2.63,2.63,0,0,0,.6.75,12.34,12.34,0,0,0,1.94,1.25c.65.37,1.27.67,1.8.93A13.55,13.55,0,0,0,789.89,555.65Z" transform="translate(-233.39 -396.76)"/><path class="cls-7" d="M776.36,525a5.54,5.54,0,0,0-.55-.13c-.36-.08-.88-.16-1.53-.3a11,11,0,0,1-2.25-.75,7.46,7.46,0,0,1-1.23-.76,11.66,11.66,0,0,1-1.07-1l-1.86-2c-.58-.63-1.11-1.21-1.53-1.72s-.73-.94-1-1.23-.34-.45-.34-.45a3.69,3.69,0,0,0,.41.38,12.63,12.63,0,0,0,1.25.91c.54.36,1.19.78,1.9,1.29a11.37,11.37,0,0,1,1.07.87,14.17,14.17,0,0,1,1,1c.33.33.64.73.94,1a11.62,11.62,0,0,0,1,.8,17.38,17.38,0,0,0,1.87,1.2A13.8,13.8,0,0,0,776.36,525Z" transform="translate(-233.39 -396.76)"/><path class="cls-7" d="M757.51,512.81a4.63,4.63,0,0,0-.49-.21c-.32-.13-.79-.3-1.37-.54a15.25,15.25,0,0,1-4.17-2.5,15.06,15.06,0,0,1-3.11-3.74c-.32-.53-.56-1-.73-1.27a5,5,0,0,0-.28-.45,11.61,11.61,0,0,0,1.42,1.38c.92.81,2.22,1.85,3.59,3l3.55,3.09c.47.39.86.71,1.14.9S757.51,512.81,757.51,512.81Z" transform="translate(-233.39 -396.76)"/><path class="cls-7" d="M640.28,489.21s-.11-.24-.33-.67-.55-1.05-.91-1.86a9.61,9.61,0,0,1-.83-3,6.07,6.07,0,0,1,.9-3.92,6.6,6.6,0,0,1,1.45-1.52c.51-.41,1-.74,1.46-1.07.94-.65,1.81-1.21,2.54-1.67l1.72-1.11c.41-.27.62-.44.62-.44s-.21.17-.55.51l-1.46,1.45c-.61.61-1.34,1.34-2.18,2.12a16,16,0,0,0-2.45,2.49,6.29,6.29,0,0,0-1,3.14,11.77,11.77,0,0,0,.24,2.89A17.81,17.81,0,0,0,640.28,489.21Z" transform="translate(-233.39 -396.76)"/></svg>