<svg id="Слой_1" data-name="Слой 1" xmlns="http://www.w3.org/2000/svg" viewBox="0 0 596.11 563.03"><defs><style>.cls-1{fill:#b7d8e1;}.cls-2{fill:#4f5878;}.cls-3{fill:#444e66;}.cls-4{fill:#a5c2c8;}.cls-5{fill:#1e1e1c;}</style></defs><polygon class="cls-1" points="0 341.46 0.34 325.41 201.13 214.32 209.51 214.88 483.04 388.27 485.64 396.83 483.56 409.05 279.51 562.39 271.31 562.39 0 341.46"/><polygon class="cls-2" points="220.95 222.16 216.88 217.15 214.88 212.67 214.12 207.61 214.39 204.21 264.95 14.75 273.33 3.58 280.48 0.86 294.79 4.19 585.48 123.93 590.87 128.11 594.39 133.94 595.82 140.61 594.19 147.68 497.97 379.14 483.04 388.27 475.64 384.14 220.95 222.16"/><g id="кнопки"><path class="cls-3" d="M410.48,521.5l7.71-4.27a1.64,1.64,0,0,1,1.78,0l7.61,4.68a1.63,1.63,0,0,1-.1,2.78l-8.43,4.34a1.62,1.62,0,0,1-1.73-.08l-6.9-4.76A1.63,1.63,0,0,1,410.48,521.5Z" transform="translate(-213.37 -267.09)"/><path class="cls-3" d="M424.62,530.44l7.72-4.26a1.62,1.62,0,0,1,1.78,0l7.61,4.68a1.63,1.63,0,0,1-.1,2.78L433.2,538a1.63,1.63,0,0,1-1.74-.08l-6.89-4.76A1.63,1.63,0,0,1,424.62,530.44Z" transform="translate(-213.37 -267.09)"/><path class="cls-3" d="M437.44,539l7.71-4.26a1.64,1.64,0,0,1,1.78,0l7.61,4.68a1.64,1.64,0,0,1-.1,2.79L446,546.52a1.64,1.64,0,0,1-1.73-.07l-6.9-4.76A1.64,1.64,0,0,1,437.44,539Z" transform="translate(-213.37 -267.09)"/><path class="cls-3" d="M450.59,546.94l7.72-4.27a1.64,1.64,0,0,1,1.78,0l7.61,4.68a1.64,1.64,0,0,1-.1,2.78l-8.43,4.34a1.63,1.63,0,0,1-1.74-.08l-6.89-4.76A1.63,1.63,0,0,1,450.59,546.94Z" transform="translate(-213.37 -267.09)"/><path class="cls-3" d="M443.22,561l7.71-4.26a1.62,1.62,0,0,1,1.78,0l7.61,4.68a1.63,1.63,0,0,1-.1,2.78l-8.43,4.34a1.63,1.63,0,0,1-1.74-.08l-6.89-4.76A1.63,1.63,0,0,1,443.22,561Z" transform="translate(-213.37 -267.09)"/><path class="cls-3" d="M463.92,556.68l8.07-4.89a1.59,1.59,0,0,1,1.87,0l8,5.38a2,2,0,0,1-.1,3.19l-8.83,5a1.57,1.57,0,0,1-1.81-.09l-7.22-5.46A2,2,0,0,1,463.92,556.68Z" transform="translate(-213.37 -267.09)"/><path class="cls-3" d="M477.66,566.05l8.56-4.81a1.78,1.78,0,0,1,2,0l8.43,5.27a1.86,1.86,0,0,1-.1,3.14l-9.35,4.89a1.8,1.8,0,0,1-1.93-.08l-7.65-5.37A1.86,1.86,0,0,1,477.66,566.05Z" transform="translate(-213.37 -267.09)"/><path class="cls-3" d="M491.62,575.11l8.56-4.8a1.8,1.8,0,0,1,2,0l8.43,5.28a1.86,1.86,0,0,1-.1,3.14l-9.35,4.89a1.78,1.78,0,0,1-1.93-.09l-7.65-5.36A1.87,1.87,0,0,1,491.62,575.11Z" transform="translate(-213.37 -267.09)"/><path class="cls-3" d="M506.64,584.81l8.55-4.81a1.8,1.8,0,0,1,2,0l8.44,5.28a1.86,1.86,0,0,1-.11,3.13l-9.35,4.89a1.8,1.8,0,0,1-1.93-.08l-7.64-5.37A1.86,1.86,0,0,1,506.64,584.81Z" transform="translate(-213.37 -267.09)"/><path class="cls-3" d="M521.35,595l8.55-5.13a1.71,1.71,0,0,1,2,0l8.44,5.63a2.06,2.06,0,0,1-.11,3.35l-9.35,5.22a1.7,1.7,0,0,1-1.93-.09l-7.64-5.73A2.06,2.06,0,0,1,521.35,595Z" transform="translate(-213.37 -267.09)"/><path class="cls-3" d="M536.55,604.9l8.56-5.13a1.7,1.7,0,0,1,2,0l8.44,5.63a2.06,2.06,0,0,1-.11,3.35L546.07,614a1.69,1.69,0,0,1-1.93-.09l-7.65-5.73A2.06,2.06,0,0,1,536.55,604.9Z" transform="translate(-213.37 -267.09)"/><path class="cls-3" d="M552.64,615l8.56-5.13a1.7,1.7,0,0,1,2,0l8.44,5.63a2.06,2.06,0,0,1-.11,3.35l-8.31,6.2a1.69,1.69,0,0,1-1.93-.09l-8.68-6.71A2.06,2.06,0,0,1,552.64,615Z" transform="translate(-213.37 -267.09)"/><path class="cls-3" d="M456.47,569.49l8.23-4.87a1.64,1.64,0,0,1,1.9,0l8.12,5.36a2,2,0,0,1-.1,3.18l-8,5.9a1.65,1.65,0,0,1-1.85-.09l-8.36-6.38A1.94,1.94,0,0,1,456.47,569.49Z" transform="translate(-213.37 -267.09)"/><path class="cls-3" d="M445.84,581.55l8.23-4.88a1.65,1.65,0,0,1,1.9,0l8.12,5.35a2,2,0,0,1-.11,3.19l-8,5.89a1.65,1.65,0,0,1-1.86-.09l-8.35-6.37A1.94,1.94,0,0,1,445.84,581.55Z" transform="translate(-213.37 -267.09)"/><path class="cls-3" d="M459.27,590.57l8.23-4.87a1.64,1.64,0,0,1,1.9,0l8.12,5.36a1.94,1.94,0,0,1-.1,3.18l-8,5.89a1.63,1.63,0,0,1-1.85-.08l-8.36-6.38A2,2,0,0,1,459.27,590.57Z" transform="translate(-213.37 -267.09)"/><path class="cls-3" d="M437.89,596.09l8.23-4.87a1.64,1.64,0,0,1,1.9,0l8.12,5.36a2,2,0,0,1-.1,3.18l-8,5.89a1.65,1.65,0,0,1-1.85-.08l-8.36-6.38A1.94,1.94,0,0,1,437.89,596.09Z" transform="translate(-213.37 -267.09)"/><path class="cls-3" d="M424.67,585.66l8.24-4.88a1.65,1.65,0,0,1,1.9,0l8.11,5.35a1.94,1.94,0,0,1-.1,3.18l-8,5.9a1.65,1.65,0,0,1-1.85-.09l-8.35-6.37A2,2,0,0,1,424.67,585.66Z" transform="translate(-213.37 -267.09)"/><path class="cls-3" d="M410.53,575.65l8.23-4.87a1.64,1.64,0,0,1,1.9,0l8.12,5.36a1.94,1.94,0,0,1-.11,3.18l-8,5.89a1.64,1.64,0,0,1-1.86-.08l-8.35-6.38A1.94,1.94,0,0,1,410.53,575.65Z" transform="translate(-213.37 -267.09)"/><path class="cls-3" d="M395.47,565.55l8.23-4.87a1.64,1.64,0,0,1,1.9,0l8.12,5.36a1.94,1.94,0,0,1-.11,3.18l-8,5.89a1.64,1.64,0,0,1-1.86-.08l-8.35-6.38A1.94,1.94,0,0,1,395.47,565.55Z" transform="translate(-213.37 -267.09)"/><path class="cls-3" d="M377.67,572.48l8.23-4.87a1.64,1.64,0,0,1,1.9,0l8.12,5.36a1.94,1.94,0,0,1-.11,3.18l-8,5.89A1.66,1.66,0,0,1,386,582l-8.35-6.38A1.94,1.94,0,0,1,377.67,572.48Z" transform="translate(-213.37 -267.09)"/><path class="cls-3" d="M391.32,582.12l8.23-4.88a1.65,1.65,0,0,1,1.9,0l54,38.64a1.94,1.94,0,0,1-.1,3.18l-8,5.89c-4.86,7.31-47.14-33-47.7-33.37l-8.35-6.37A1.94,1.94,0,0,1,391.32,582.12Z" transform="translate(-213.37 -267.09)"/><path class="cls-3" d="M474.82,600.8l8.23-4.88a1.65,1.65,0,0,1,1.9,0l8.12,5.35a2,2,0,0,1-.1,3.18l-8,5.9a1.65,1.65,0,0,1-1.85-.09l-8.36-6.37A1.94,1.94,0,0,1,474.82,600.8Z" transform="translate(-213.37 -267.09)"/><path class="cls-3" d="M470.45,579.1l8.23-4.88a1.65,1.65,0,0,1,1.9,0l8.12,5.35a2,2,0,0,1-.1,3.19l-8,5.89a1.65,1.65,0,0,1-1.85-.09l-8.36-6.37A1.94,1.94,0,0,1,470.45,579.1Z" transform="translate(-213.37 -267.09)"/><path class="cls-3" d="M326.92,646.68l59.66-27.51A12.92,12.92,0,0,1,400,620l55.64,36.31a11.38,11.38,0,0,1-1.73,19.82l-58.32,34a12.88,12.88,0,0,1-13.06-1.19l-57-42.75A11.36,11.36,0,0,1,326.92,646.68Z" transform="translate(-213.37 -267.09)"/><path class="cls-3" d="M484.74,588.6l8.23-4.88a1.65,1.65,0,0,1,1.9,0L503,589.1a1.94,1.94,0,0,1-.11,3.18l-8,5.9a1.66,1.66,0,0,1-1.86-.09l-8.35-6.38A1.93,1.93,0,0,1,484.74,588.6Z" transform="translate(-213.37 -267.09)"/><path class="cls-3" d="M500.3,599.88l8.23-4.87a1.64,1.64,0,0,1,1.9,0l8.12,5.36a1.94,1.94,0,0,1-.11,3.18l-8,5.9a1.66,1.66,0,0,1-1.86-.09L500.24,603A1.94,1.94,0,0,1,500.3,599.88Z" transform="translate(-213.37 -267.09)"/><path class="cls-3" d="M513.85,610.33l9.2-5.94a1.71,1.71,0,0,1,2.12,0l9.07,6.53a2.49,2.49,0,0,1-.12,3.87L525.19,622a1.71,1.71,0,0,1-2.07-.11l-9.34-7.77A2.5,2.5,0,0,1,513.85,610.33Z" transform="translate(-213.37 -267.09)"/><path class="cls-3" d="M529.57,620.83l9.2-5.94a1.71,1.71,0,0,1,2.12,0l9.07,6.53a2.49,2.49,0,0,1-.12,3.87l-8.93,7.19a1.71,1.71,0,0,1-2.07-.11l-9.34-7.77A2.5,2.5,0,0,1,529.57,620.83Z" transform="translate(-213.37 -267.09)"/><path class="cls-3" d="M545,631.13l8.87-5.94a1.61,1.61,0,0,1,2.05,0l8.75,6.53a2.56,2.56,0,0,1-.11,3.88L556,642.81a1.62,1.62,0,0,1-2-.1l-9-7.77A2.57,2.57,0,0,1,545,631.13Z" transform="translate(-213.37 -267.09)"/><path class="cls-3" d="M562.2,641.59l8.88-5.94a1.6,1.6,0,0,1,2,0l8.75,6.52a2.56,2.56,0,0,1-.11,3.88l-8.62,7.18a1.6,1.6,0,0,1-2-.1l-9-7.77A2.57,2.57,0,0,1,562.2,641.59Z" transform="translate(-213.37 -267.09)"/><path class="cls-3" d="M578.42,652.52l8.87-5.94a1.61,1.61,0,0,1,2.05,0l8.75,6.52A2.56,2.56,0,0,1,598,657l-8.62,7.19a1.61,1.61,0,0,1-2-.11l-9-7.77A2.56,2.56,0,0,1,578.42,652.52Z" transform="translate(-213.37 -267.09)"/><path class="cls-3" d="M568.41,667l8.88-5.94a1.61,1.61,0,0,1,2.05,0l8.75,6.53a2.56,2.56,0,0,1-.12,3.88l-8.62,7.18a1.6,1.6,0,0,1-2-.11l-9-7.77A2.57,2.57,0,0,1,568.41,667Z" transform="translate(-213.37 -267.09)"/><path class="cls-3" d="M531.37,688.46l11.54-8a1.61,1.61,0,0,1,2.05,0l9.79,6.72a2.55,2.55,0,0,1-.11,3.87l-11,8.39a1.61,1.61,0,0,1-2-.1l-10.3-7.15A2.56,2.56,0,0,1,531.37,688.46Z" transform="translate(-213.37 -267.09)"/><path class="cls-3" d="M546.89,701.55l5.5-3.84,0,0c.78-.59,1.71-.08,2.52.44l10.25,6.93a2.55,2.55,0,0,1-.11,3.88l-6,3.67a1.61,1.61,0,0,1-2-.11l-10.29-7.14A2.57,2.57,0,0,1,546.89,701.55Z" transform="translate(-213.37 -267.09)"/><path class="cls-3" d="M513,677.61l5.5-3.85h0c.79-.59,1.72-.08,2.53.44l10.25,6.93a2.54,2.54,0,0,1-.11,3.87l-6,3.67a1.6,1.6,0,0,1-2-.1L513,681.41A2.56,2.56,0,0,1,513,677.61Z" transform="translate(-213.37 -267.09)"/><path class="cls-3" d="M543.79,672.35,557,669.43a1.61,1.61,0,0,1,2,0l29,19a2.56,2.56,0,0,1-.12,3.88l-8.62,7.18a1.61,1.61,0,0,1-2-.1l-33.63-23.26A2.56,2.56,0,0,1,543.79,672.35Z" transform="translate(-213.37 -267.09)"/><path class="cls-3" d="M614.59,664.79l-8.75-6.53a1.61,1.61,0,0,0-2.05,0l-8.88,5.94a2.58,2.58,0,0,0-.06,3.81l1.22,1a1.26,1.26,0,0,1-.09,2l-10.51,7.6a2.57,2.57,0,0,0-.06,3.81l5.92,4.93a1.62,1.62,0,0,0,2,.1l11.87-11.17a1.08,1.08,0,0,1,.36-.24,2.28,2.28,0,0,0,.3-.17l8.62-7.18A2.56,2.56,0,0,0,614.59,664.79Z" transform="translate(-213.37 -267.09)"/><path class="cls-3" d="M568.05,625.88l8.56-5.13a1.7,1.7,0,0,1,2,0l8.44,5.63a2.06,2.06,0,0,1-.11,3.35L578.6,636a1.7,1.7,0,0,1-1.93-.09L568,629.16A2.06,2.06,0,0,1,568.05,625.88Z" transform="translate(-213.37 -267.09)"/><path class="cls-3" d="M536.55,644.77l8.56-5.13a1.68,1.68,0,0,1,2,0l8.44,5.64a2,2,0,0,1-.11,3.34l-8.31,6.21a1.72,1.72,0,0,1-1.93-.09l-8.68-6.71A2.06,2.06,0,0,1,536.55,644.77Z" transform="translate(-213.37 -267.09)"/><path class="cls-3" d="M513.55,648.77l8.55-5.12a1.7,1.7,0,0,1,2,0l8.44,5.64a2.05,2.05,0,0,1-.11,3.34l-8.31,6.2a1.69,1.69,0,0,1-1.93-.09l-8.68-6.7A2.07,2.07,0,0,1,513.55,648.77Z" transform="translate(-213.37 -267.09)"/><path class="cls-3" d="M584.57,636.88l8.56-5.13a1.71,1.71,0,0,1,2,0l8.43,5.64a2,2,0,0,1-.11,3.34l-8.31,6.2a1.67,1.67,0,0,1-1.92-.09l-8.69-6.71A2.07,2.07,0,0,1,584.57,636.88Z" transform="translate(-213.37 -267.09)"/><path class="cls-3" d="M600.5,647.54l8.56-5.13a1.7,1.7,0,0,1,2,0l19.33,13.11a2.06,2.06,0,0,1-.11,3.35l-8.6,6.15a1.7,1.7,0,0,1-1.93-.09l-19.28-14.14A2.06,2.06,0,0,1,600.5,647.54Z" transform="translate(-213.37 -267.09)"/><path class="cls-3" d="M438.91,522.14l2-1.26a1.64,1.64,0,0,1,1.79,0l7.12,4.75a1.63,1.63,0,0,1-.09,2.78l-2.23,1.27a1.63,1.63,0,0,1-1.74-.08l-6.9-4.76A1.63,1.63,0,0,1,438.91,522.14Z" transform="translate(-213.37 -267.09)"/><path class="cls-3" d="M452.22,531l2.22-1.41a1.84,1.84,0,0,1,2,0l7.94,5.29a1.82,1.82,0,0,1-.1,3.1l-2.49,1.42a1.84,1.84,0,0,1-1.94-.09l-7.68-5.3A1.82,1.82,0,0,1,452.22,531Z" transform="translate(-213.37 -267.09)"/><path class="cls-3" d="M466,539.9l2.23-1.41a1.84,1.84,0,0,1,2,0l7.94,5.29a1.82,1.82,0,0,1-.11,3.1l-2.48,1.42a1.84,1.84,0,0,1-1.94-.09l-7.69-5.3A1.83,1.83,0,0,1,466,539.9Z" transform="translate(-213.37 -267.09)"/><path class="cls-3" d="M480.43,549.31l2.31-1.4a1.92,1.92,0,0,1,2.05,0l8.22,5.29a1.8,1.8,0,0,1-.11,3.1l-2.58,1.42a1.94,1.94,0,0,1-2-.08l-7.95-5.31A1.79,1.79,0,0,1,480.43,549.31Z" transform="translate(-213.37 -267.09)"/><path class="cls-3" d="M494.5,558.44l2.42-1.41a2.12,2.12,0,0,1,2.16,0l8.64,5.3a1.75,1.75,0,0,1-.12,3.1l-2.7,1.41a2.12,2.12,0,0,1-2.11-.08l-8.35-5.31A1.74,1.74,0,0,1,494.5,558.44Z" transform="translate(-213.37 -267.09)"/><path class="cls-3" d="M509.13,567.82l2.56-1.56a2.17,2.17,0,0,1,2.29,0l9.14,5.87a2,2,0,0,1-.13,3.43l-2.86,1.57a2.15,2.15,0,0,1-2.23-.09l-8.84-5.88A2,2,0,0,1,509.13,567.82Z" transform="translate(-213.37 -267.09)"/><path class="cls-3" d="M524.44,577.82l2.56-1.55a2.15,2.15,0,0,1,2.28,0l9.14,5.87a2,2,0,0,1-.13,3.43l-2.85,1.57a2.15,2.15,0,0,1-2.23-.09l-8.84-5.88A2,2,0,0,1,524.44,577.82Z" transform="translate(-213.37 -267.09)"/><path class="cls-3" d="M540.33,587.68l2.56-1.56a2.13,2.13,0,0,1,2.28,0l9.14,5.86a2,2,0,0,1-.12,3.44L551.33,597a2.18,2.18,0,0,1-2.23-.1l-8.84-5.87A2,2,0,0,1,540.33,587.68Z" transform="translate(-213.37 -267.09)"/><path class="cls-3" d="M556.22,598.35l2.56-1.56a2.16,2.16,0,0,1,2.28,0l9.14,5.87a2,2,0,0,1-.12,3.43l-2.86,1.57a2.15,2.15,0,0,1-2.23-.1l-8.84-5.87A2,2,0,0,1,556.22,598.35Z" transform="translate(-213.37 -267.09)"/><path class="cls-3" d="M572.11,609.08l2.56-1.56a2.13,2.13,0,0,1,2.28,0l9.14,5.87a2,2,0,0,1-.12,3.43l-2.86,1.57a2.15,2.15,0,0,1-2.23-.1L572,612.45A2,2,0,0,1,572.11,609.08Z" transform="translate(-213.37 -267.09)"/><path class="cls-3" d="M588.4,620.33l2.74-1.64a2.33,2.33,0,0,1,2.44,0l9.77,6.15a2.06,2.06,0,0,1-.13,3.61l-3.06,1.64a2.34,2.34,0,0,1-2.38-.1l-9.45-6.16A2.06,2.06,0,0,1,588.4,620.33Z" transform="translate(-213.37 -267.09)"/><path class="cls-3" d="M605.39,631.24l2.74-1.64a2.37,2.37,0,0,1,2.44,0l9.77,6.16a2.06,2.06,0,0,1-.13,3.6L617.15,641a2.33,2.33,0,0,1-2.38-.09l-9.45-6.17A2.06,2.06,0,0,1,605.39,631.24Z" transform="translate(-213.37 -267.09)"/><path class="cls-3" d="M622.76,643.1l2.92-1.78a2.44,2.44,0,0,1,2.6,0l10.42,6.72a2.28,2.28,0,0,1-.14,3.94l-3.26,1.8a2.47,2.47,0,0,1-2.54-.11L622.68,647A2.27,2.27,0,0,1,622.76,643.1Z" transform="translate(-213.37 -267.09)"/></g><polygon class="cls-3" points="226.75 206.99 280.48 14.6 574.65 146.4 483.04 369.13 226.75 206.99"/><ellipse class="cls-4" cx="448.31" cy="718.26" rx="102.47" ry="44.01" transform="translate(-607.81 369.62) rotate(-52.5)"/><path class="cls-4" d="M386.66,593.38c3.26,13-25.53,38-66.7,41.74-45.67,4.21-52.64,13.51-54.95,15.3,0,0-19.18-13.37-21-20.68-3.27-13,24.05-31.57,64.15-41.64S383.4,580.39,386.66,593.38Z" transform="translate(-213.37 -267.09)"/><polygon class="cls-4" points="43.16 371.01 269.78 555.42 279.44 556.27 481.62 405.54 485.06 399.07 485.6 405.77 479.63 413.47 282.54 560.65 275.52 562.39 268.07 560.27 36.63 371.01 43.16 371.01"/><g id="корпус"><path class="cls-5" d="M220.22,608.28c82.94,67.6,171.82,139,254.08,206.92l3.61,3,1.81,1.49c5.35,4.93,12.84,4.75,18.3-.06,61.55-45.68,133.56-99.76,194.79-146a13.07,13.07,0,0,0,4.17-16,14.07,14.07,0,0,0-6.17-6.34c-4.56-2.8-34.34-21.53-39.69-24.83-59.2-37.09-166.55-104.52-225.91-142-5.29-3.83-11.1-3.27-16.46.27-52.44,28.66-124.49,67.51-176.86,96.12l-8.21,4.49a19,19,0,0,0-3.89,2.53,13.53,13.53,0,0,0,.43,20.41Zm-.13.15a13.82,13.82,0,0,1,3.44-23.36c53.82-29.72,126.21-70,180.17-99.82,2.41-1.25,5.86-3.42,8.36-4.47a14.59,14.59,0,0,1,9.86-.26c2.61.84,6,3.3,8.33,4.73,20.18,12.7,135.66,85.46,158.41,99.84,25,15.87,78.25,49.52,102.82,65.12a19.62,19.62,0,0,1,3.84,2.89,14.23,14.23,0,0,1,1.53,17.95,14.62,14.62,0,0,1-3.39,3.45l-60,44.82c-40.69,30.46-93.88,70.35-134.67,101.3-5.32,4.77-13.34,5.54-19,.88-.33-.25-2.3-1.88-2.73-2.21-84.16-68-173-142.08-256.91-210.86Z" transform="translate(-213.37 -267.09)"/><path class="cls-5" d="M220.22,613.77c82.94,67.6,171.82,139,254.08,206.93l3.61,3,1.81,1.49c5.35,4.94,12.84,4.75,18.3,0,61.55-45.69,133.56-99.77,194.79-146a13.06,13.06,0,0,0,4.17-16,14.17,14.17,0,0,0-6.17-6.34c-4.56-2.79-34.34-21.52-39.69-24.83-59.2-37.08-166.55-104.52-225.91-142-5.29-3.84-11.1-3.27-16.46.27-52.44,28.66-124.49,67.5-176.86,96.11l-8.21,4.49a19,19,0,0,0-3.89,2.53,13.53,13.53,0,0,0,.43,20.41Zm-.13.16a13.83,13.83,0,0,1,3.44-23.37c53.82-29.72,126.21-70,180.17-99.82,2.41-1.24,5.86-3.41,8.36-4.47a14.65,14.65,0,0,1,9.86-.26c2.61.85,6,3.31,8.33,4.73,20.18,12.71,135.66,85.47,158.41,99.84,25,15.87,78.26,49.52,102.82,65.13a19.23,19.23,0,0,1,3.84,2.89,14.22,14.22,0,0,1,1.53,17.94,14.66,14.66,0,0,1-3.39,3.46l-60,44.81c-40.69,30.46-93.88,70.35-134.67,101.3-5.32,4.78-13.34,5.55-19,.88-.33-.24-2.3-1.88-2.73-2.21-84.16-68-173-142.08-256.91-210.85Z" transform="translate(-213.37 -267.09)"/></g><g id="экран"><path class="cls-5" d="M428,469.6c15-55.7,34.81-132.69,49.59-188.19a19.68,19.68,0,0,1,19.72-14.3c3.12.07,6.23,1.27,9.07,2.48l8.47,3.48c10.46,4.35,39.87,16.44,50.78,21,72.4,30.21,156.21,65,228.5,94.47,2.84,1.15,5.81,2.26,8.21,4.25a19.38,19.38,0,0,1,7,16.63,29.54,29.54,0,0,1-2.7,8.86l-3.47,8.48c-20.84,51-67.12,164.28-87.57,214a19.82,19.82,0,0,1-29.76,9.95l-7.72-4.93c-75.59-48-155.65-99.92-231.2-148.39l-7.71-4.94c-2.56-1.65-5.29-3.19-7.26-5.57a18.93,18.93,0,0,1-4-17.25Zm.2,0a18.69,18.69,0,0,0,4,17c1.94,2.37,4.67,3.83,7.23,5.49l7.73,4.9C523.1,545.06,603.8,595.75,679.3,644l7.73,4.91a17.71,17.71,0,0,0,26.67-9C734,590.74,781.29,476.7,802.22,426.31l3.5-8.46c1.18-2.79,2.4-5.52,2.67-8.55.7-10-5.36-16.93-14.59-19.95-71.94-30-156.25-64.2-228.78-93.77-10.86-4.41-40.24-16.55-50.83-20.86l-8.47-3.49c-2.63-1.1-5.56-2.33-8.47-2.38a18,18,0,0,0-18.09,13c-15.09,55.29-36,132.2-50.94,187.8Z" transform="translate(-213.37 -267.09)"/><path class="cls-5" d="M492.85,281.77C478,338.71,456,418.36,441,474.31l-.38-1c57.05,36.48,134.7,86.89,191.66,123.49l64.08,40.86-.69.22c22.65-56.26,68.59-169.34,91.39-225.53l.56,1.37c-82.32-36.65-211.66-94.54-294.74-132Zm-.09-.18c83.91,37.07,212.9,93.23,295.69,130.22l.94.42-.39.95c-23,56.11-69.33,169.05-92.48,225.09l-.22.53-.48-.31-63.89-41.15c-57-36.46-135.32-86-192.28-122.53l-.55-.34.18-.63c15-55.94,37.86-135.66,53.48-192.25Z" transform="translate(-213.37 -267.09)"/></g><g id="кнопки-2" data-name="кнопки"><path class="cls-5" d="M410.43,521.41c2.87-1.45,5.05-3.92,8-5.24a2.92,2.92,0,0,1,2.65.79c2.32,1.8,4.61,3.46,7.09,5a2.12,2.12,0,0,1-.4,3.18c-1.62,1.06-3.24,2.06-4.92,3l-3.13,1.75a2.8,2.8,0,0,1-3.12-.13,41.54,41.54,0,0,1-4.49-3.59c-.47-.46-1.38-1.27-1.87-1.71a1.91,1.91,0,0,1,.19-3.07Zm.1.17a1.39,1.39,0,0,0,.07,2.38c.19.11.76.4,1,.5a45.76,45.76,0,0,1,6.24,3.57c.51.31.42.22,1.55-.3l2.6-1.22c1.71-.84,3.5-1.58,5.27-2.28a1.18,1.18,0,0,0,.43-1.78c-2.17-1.75-5-2.78-7.48-4.09a5.22,5.22,0,0,0-1-.48c-.33,0-.35,0-.74.22-2.56,1.31-5.45,2-7.93,3.48Z" transform="translate(-213.37 -267.09)"/><path class="cls-5" d="M424.57,530.35c2.87-1.45,5.06-3.92,8-5.24a3,3,0,0,1,2.66.79c2.32,1.81,4.6,3.46,7.08,5a2.12,2.12,0,0,1-.4,3.19c-1.61,1-3.23,2-4.91,3l-3.13,1.75a2.8,2.8,0,0,1-3.12-.13,41.54,41.54,0,0,1-4.49-3.59c-.48-.45-1.39-1.27-1.87-1.71a1.92,1.92,0,0,1,.18-3.07Zm.1.17a1.39,1.39,0,0,0,.08,2.38c.19.11.76.4,1,.5A45.87,45.87,0,0,1,432,537c.5.31.42.22,1.54-.3l2.6-1.22c1.72-.84,3.5-1.58,5.28-2.28a1.17,1.17,0,0,0,.42-1.78c-2.17-1.75-5-2.78-7.47-4.09a5.13,5.13,0,0,0-1-.47c-.34,0-.35,0-.75.21-2.55,1.32-5.45,2.05-7.93,3.48Z" transform="translate(-213.37 -267.09)"/><path class="cls-5" d="M437.39,538.88c2.87-1.45,5.05-3.93,8-5.25a2.93,2.93,0,0,1,2.65.8c2.32,1.8,4.61,3.46,7.09,5a2.12,2.12,0,0,1-.4,3.18c-1.62,1.06-3.24,2.06-4.92,3-.46.26-2.71,1.52-3.13,1.74a2.8,2.8,0,0,1-3.12-.12,42.8,42.8,0,0,1-4.49-3.59c-.47-.46-1.38-1.28-1.87-1.71a1.91,1.91,0,0,1,.19-3.07Zm.1.17a1.39,1.39,0,0,0,.07,2.38l1,.49a48,48,0,0,1,6.24,3.57c.51.32.42.23,1.55-.29l2.6-1.23c1.71-.83,3.5-1.57,5.27-2.27a1.18,1.18,0,0,0,.43-1.78c-2.17-1.75-5-2.78-7.48-4.09a5.22,5.22,0,0,0-1-.48c-.33,0-.35,0-.74.22-2.56,1.31-5.45,2-7.93,3.48Z" transform="translate(-213.37 -267.09)"/><path class="cls-5" d="M450.54,546.85c2.87-1.45,5-3.92,8-5.24a3,3,0,0,1,2.65.79c2.33,1.81,4.61,3.46,7.09,5a2.11,2.11,0,0,1-.4,3.18c-1.62,1.06-3.23,2.06-4.91,3l-3.13,1.75a2.81,2.81,0,0,1-3.13-.13,42.43,42.43,0,0,1-4.48-3.59c-.48-.45-1.39-1.27-1.87-1.71a1.92,1.92,0,0,1,.18-3.07Zm.1.17a1.39,1.39,0,0,0,.08,2.38c.19.11.76.4,1,.5a46.48,46.48,0,0,1,6.25,3.57c.5.31.41.22,1.54-.3l2.6-1.22c1.72-.84,3.5-1.58,5.28-2.28a1.18,1.18,0,0,0,.42-1.78c-2.17-1.75-5-2.78-7.47-4.09a5.13,5.13,0,0,0-1-.47c-.34,0-.36,0-.75.21-2.56,1.32-5.45,2.05-7.93,3.48Z" transform="translate(-213.37 -267.09)"/><path class="cls-5" d="M443.16,560.87c2.87-1.45,5.06-3.92,8-5.24a3,3,0,0,1,2.66.79c2.32,1.81,4.6,3.46,7.09,5.05a2.12,2.12,0,0,1-.4,3.18c-1.62,1.05-3.24,2.06-4.92,3l-3.13,1.75a2.8,2.8,0,0,1-3.12-.13,41.54,41.54,0,0,1-4.49-3.59c-.47-.45-1.39-1.27-1.87-1.71a1.92,1.92,0,0,1,.18-3.07Zm.11.17a1.39,1.39,0,0,0,.07,2.39l1,.49a46.83,46.83,0,0,1,6.24,3.57c.5.31.42.22,1.55-.3l2.59-1.22c1.72-.84,3.51-1.58,5.28-2.28a1.17,1.17,0,0,0,.42-1.78c-2.17-1.74-5-2.77-7.47-4.09a5.81,5.81,0,0,0-1-.47c-.34,0-.35,0-.74.21-2.56,1.32-5.45,2.05-7.93,3.48Z" transform="translate(-213.37 -267.09)"/><path class="cls-5" d="M463.86,556.6c2.68-1.56,4.91-3.8,7.51-5.47a2.52,2.52,0,0,1,3.13.07c2.48,1.84,4.72,4,7.37,5.64a2.44,2.44,0,0,1,.14,4c-2.44,1.74-5.26,3.44-7.83,5l-.66.4a2.71,2.71,0,0,1-3,0,50.5,50.5,0,0,1-5-4.33l-1.11-1.1a8.43,8.43,0,0,1-1.12-1.19,2.27,2.27,0,0,1,.58-3Zm.11.16a1.74,1.74,0,0,0-.25,2.52,24.66,24.66,0,0,0,2.59,1.56,48.72,48.72,0,0,1,5.18,3.41c.29.24.57.43.94.15l3.43-1.79c1.82-1,3.7-1.86,5.58-2.71a1.51,1.51,0,0,0,.07-2.54,77.44,77.44,0,0,0-7.35-4.34c-1.13-.67-1.13-.81-1.82-.41-2.7,1.54-5.75,2.5-8.37,4.15Z" transform="translate(-213.37 -267.09)"/><path class="cls-5" d="M477.61,566c2.82-1.52,5.21-3.73,8-5.37a2.81,2.81,0,0,1,2.14-.47,4.61,4.61,0,0,1,1.69.91c3,2.32,4.75,3.55,7.88,5.64a2.34,2.34,0,0,1-.47,3.47c-2.58,1.72-5.55,3.37-8.26,4.89a3.77,3.77,0,0,1-3,.75,2.91,2.91,0,0,1-1-.52,51.63,51.63,0,0,1-5-4c-.69-.67-1.75-1.51-2.4-2.23a2.13,2.13,0,0,1,.52-3.06Zm.11.17a1.63,1.63,0,0,0-.23,2.53c.64.47,2,1.09,2.76,1.51a53.24,53.24,0,0,1,5.47,3.34c.62.41.6.28,1.83-.31l2.88-1.39c1.9-.95,3.88-1.8,5.84-2.62a1.4,1.4,0,0,0,.48-2.08,15.46,15.46,0,0,0-2.56-1.72c-2.07-1.21-4.32-2.15-6.4-3.35a1.32,1.32,0,0,0-.43-.18c-.38,0-.45,0-.88.25-2.83,1.5-6,2.41-8.76,4Z" transform="translate(-213.37 -267.09)"/><path class="cls-5" d="M491.57,575c2.82-1.52,5.21-3.73,8-5.37a2.82,2.82,0,0,1,2.14-.48,4.63,4.63,0,0,1,1.69.92c3,2.32,4.75,3.55,7.88,5.64a2.34,2.34,0,0,1-.47,3.47c-2.58,1.72-5.55,3.36-8.26,4.88a3.74,3.74,0,0,1-3,.76,2.93,2.93,0,0,1-1-.53,51.71,51.71,0,0,1-5-4c-.7-.68-1.76-1.51-2.41-2.23a2.12,2.12,0,0,1,.52-3.06Zm.11.17a1.62,1.62,0,0,0-.23,2.52c.64.48,2,1.09,2.76,1.52a53.24,53.24,0,0,1,5.47,3.34c.62.41.6.28,1.83-.31l2.88-1.39c1.9-1,3.88-1.81,5.84-2.62a1.4,1.4,0,0,0,.48-2.08,15.46,15.46,0,0,0-2.56-1.72c-2.07-1.21-4.32-2.15-6.4-3.35a1.38,1.38,0,0,0-.42-.18,1.23,1.23,0,0,0-.89.25c-2.83,1.49-6,2.41-8.76,4Z" transform="translate(-213.37 -267.09)"/><path class="cls-5" d="M506.58,584.72c2.82-1.51,5.21-3.73,8-5.37a2.86,2.86,0,0,1,2.14-.47,4.48,4.48,0,0,1,1.69.92c3,2.31,4.75,3.54,7.88,5.64a2.34,2.34,0,0,1-.46,3.47c-2.59,1.71-5.56,3.36-8.27,4.88a3.73,3.73,0,0,1-3,.75,2.86,2.86,0,0,1-1-.52,51.63,51.63,0,0,1-5-4c-.7-.67-1.76-1.51-2.41-2.23a2.13,2.13,0,0,1,.52-3.06Zm.11.17a1.64,1.64,0,0,0-.23,2.53c.64.47,2,1.09,2.76,1.52a53.16,53.16,0,0,1,5.47,3.33c.62.41.6.28,1.83-.31l2.88-1.39c1.91-1,3.88-1.8,5.85-2.62a1.4,1.4,0,0,0,.48-2.08,15.94,15.94,0,0,0-2.57-1.71c-2.07-1.21-4.32-2.16-6.4-3.36a1.11,1.11,0,0,0-.42-.17c-.39,0-.46,0-.89.24-2.83,1.5-6,2.41-8.76,4Z" transform="translate(-213.37 -267.09)"/><path class="cls-5" d="M521.29,594.89c2.83-1.64,5.22-3.95,8-5.7a2.63,2.63,0,0,1,3.24,0c2.64,1.94,5,4.2,7.84,5.9a2.53,2.53,0,0,1,.15,4.17c-2.59,1.81-5.58,3.58-8.31,5.21a3.44,3.44,0,0,1-3.16.72,35.47,35.47,0,0,1-5.95-4.82c-.55-.58-2-1.81-2.39-2.38a2.34,2.34,0,0,1,.6-3.15Zm.11.16a1.82,1.82,0,0,0-.27,2.66,25.81,25.81,0,0,0,2.74,1.65,55.39,55.39,0,0,1,5.47,3.59c.49.37.6.41,1.07.15s3.11-1.61,3.63-1.88c1.92-1,3.91-2,5.9-2.85a1.59,1.59,0,0,0,.54-2.22c-2.33-2.14-5.55-3.4-8.26-5-1.17-.71-1.24-.87-2-.42-2.85,1.61-6.06,2.65-8.83,4.37Z" transform="translate(-213.37 -267.09)"/><path class="cls-5" d="M536.5,604.82c2.83-1.63,5.22-4,8-5.7a2.63,2.63,0,0,1,3.24.06c2.63,1.93,5,4.19,7.83,5.89a2.53,2.53,0,0,1,.16,4.17c-2.59,1.82-5.59,3.58-8.31,5.21a3.41,3.41,0,0,1-3.16.72,35.05,35.05,0,0,1-6-4.82c-.55-.58-2-1.81-2.38-2.38a2.35,2.35,0,0,1,.6-3.15Zm.11.17a1.81,1.81,0,0,0-.28,2.65,26.86,26.86,0,0,0,2.74,1.65,56.16,56.16,0,0,1,5.48,3.59c.48.37.6.41,1.07.15l3.63-1.88c1.92-1,3.91-2,5.89-2.85a1.58,1.58,0,0,0,.54-2.22c-2.33-2.14-5.54-3.4-8.25-5.05-1.18-.7-1.24-.87-2-.42-2.86,1.61-6.06,2.65-8.83,4.38Z" transform="translate(-213.37 -267.09)"/><path class="cls-5" d="M552.59,614.94c2.83-1.64,5.24-3.93,8-5.7a2.64,2.64,0,0,1,3.25,0c2.44,1.75,4.64,3.81,7.14,5.47l.69.45a2.53,2.53,0,0,1,.16,4.1c-2.23,2-5.62,4.74-8,6.64-1.81,1.28-3.51-.27-4.87-1.42a67.25,67.25,0,0,1-6.24-5.69,2.42,2.42,0,0,1-.09-3.9Zm.1.17a1.83,1.83,0,0,0,.43,3.15,68.53,68.53,0,0,1,8.75,5.87.67.67,0,0,0,.77.09l-.07,0,4.25-3c1.44-1,2.94-1.89,4.41-2.83a1.61,1.61,0,0,0,.56-2.27c-.18-.36-.85-.7-1.17-1-2.64-1.72-5.55-3.15-8.25-4.74a1,1,0,0,0-.84.21c-2.87,1.59-6.06,2.66-8.84,4.39Z" transform="translate(-213.37 -267.09)"/><path class="cls-5" d="M456.42,569.41c2.72-1.55,5-3.76,7.66-5.45a2.65,2.65,0,0,1,2.17-.45,2.89,2.89,0,0,1,1,.49c1.92,1.36,3.68,3,5.57,4.33.42.31.86.59,1.29.89a4.82,4.82,0,0,1,1.31,1,2.41,2.41,0,0,1-.52,3.38c-2.28,2.08-5.09,4.31-7.66,6.3a2.61,2.61,0,0,1-1.63.46,2.8,2.8,0,0,1-1.5-.56c-1.6-1.23-3.18-2.47-4.67-3.84a50.13,50.13,0,0,1-3.63-3.66,2.21,2.21,0,0,1,.63-2.91Zm.1.17a1.72,1.72,0,0,0,.43,3,62.71,62.71,0,0,1,8.42,5.54.64.64,0,0,0,.71.08l-.08,0c1.37-.94,2.73-1.89,4.1-2.81s2.83-1.79,4.25-2.68a1.5,1.5,0,0,0,.53-2.13,4.3,4.3,0,0,0-1.13-.9c-2.18-1.45-4.58-2.55-6.84-3.87-1.15-.66-1.15-.81-1.88-.4-2.76,1.51-5.84,2.49-8.51,4.13Z" transform="translate(-213.37 -267.09)"/><path class="cls-5" d="M445.79,581.46c2.72-1.54,5-3.75,7.66-5.44a2.61,2.61,0,0,1,2.17-.45,2.89,2.89,0,0,1,1,.48c1.92,1.36,3.67,3,5.57,4.33.42.31.86.6,1.29.9a4.46,4.46,0,0,1,1.31,1,2.4,2.4,0,0,1-.52,3.37c-2.29,2.08-5.09,4.31-7.66,6.31a2.67,2.67,0,0,1-1.63.45,2.72,2.72,0,0,1-1.5-.56c-1.6-1.22-3.18-2.47-4.67-3.84-1.22-1.23-2.54-2.31-3.63-3.65a2.22,2.22,0,0,1,.63-2.92Zm.1.17a1.72,1.72,0,0,0,.43,3,62.78,62.78,0,0,1,8.42,5.55.64.64,0,0,0,.71.07l-.08,0,4.1-2.81c1.38-.94,2.83-1.79,4.25-2.68a1.5,1.5,0,0,0,.53-2.13,4.3,4.3,0,0,0-1.13-.9c-2.18-1.45-4.59-2.54-6.85-3.86-1.14-.67-1.14-.82-1.87-.41-2.76,1.51-5.84,2.49-8.51,4.13Z" transform="translate(-213.37 -267.09)"/><path class="cls-5" d="M459.22,590.49c2.72-1.55,5-3.76,7.66-5.45a2.65,2.65,0,0,1,2.17-.45,2.79,2.79,0,0,1,1,.49c1.92,1.36,3.68,2.95,5.57,4.33.43.31.86.59,1.29.89a4.82,4.82,0,0,1,1.32,1,2.42,2.42,0,0,1-.53,3.38c-2.28,2.07-5.09,4.3-7.66,6.3a2.65,2.65,0,0,1-1.62.46,2.89,2.89,0,0,1-1.51-.56c-1.6-1.23-3.18-2.47-4.67-3.84a50.13,50.13,0,0,1-3.63-3.66,2.21,2.21,0,0,1,.63-2.91Zm.11.17a1.72,1.72,0,0,0,.42,3,62.71,62.71,0,0,1,8.42,5.54.66.66,0,0,0,.71.08l-.07.05c1.36-.94,2.72-1.89,4.09-2.81s2.83-1.79,4.25-2.69a1.5,1.5,0,0,0,.53-2.13,4.5,4.5,0,0,0-1.13-.89c-2.18-1.46-4.58-2.55-6.84-3.87-1.14-.67-1.15-.81-1.88-.4-2.76,1.51-5.84,2.49-8.5,4.13Z" transform="translate(-213.37 -267.09)"/><path class="cls-5" d="M437.84,596c2.72-1.55,5-3.76,7.66-5.45a2.61,2.61,0,0,1,2.17-.45,2.89,2.89,0,0,1,1,.49c1.92,1.35,3.68,2.94,5.57,4.33.42.3.86.59,1.29.89a4.63,4.63,0,0,1,1.31,1,2.4,2.4,0,0,1-.52,3.37c-2.28,2.08-5.09,4.31-7.66,6.31A2.65,2.65,0,0,1,447,607a2.72,2.72,0,0,1-1.5-.56c-1.6-1.22-3.18-2.46-4.67-3.84a48.08,48.08,0,0,1-3.63-3.65,2.21,2.21,0,0,1,.63-2.91Zm.1.17a1.73,1.73,0,0,0,.43,3,62.71,62.71,0,0,1,8.42,5.54.66.66,0,0,0,.71.08l-.08.05c1.37-.94,2.73-1.89,4.1-2.82s2.83-1.79,4.25-2.68a1.5,1.5,0,0,0,.53-2.13,4.28,4.28,0,0,0-1.13-.89c-2.18-1.46-4.58-2.55-6.84-3.87-1.15-.67-1.15-.81-1.88-.4-2.76,1.5-5.84,2.48-8.51,4.13Z" transform="translate(-213.37 -267.09)"/><path class="cls-5" d="M424.62,585.57c2.72-1.55,5-3.76,7.67-5.44a2.59,2.59,0,0,1,2.16-.45,2.79,2.79,0,0,1,1,.48c1.92,1.36,3.68,3,5.58,4.33.42.31.85.6,1.28.89a5,5,0,0,1,1.32,1,2.41,2.41,0,0,1-.52,3.38c-2.29,2.08-5.1,4.31-7.67,6.31a2.62,2.62,0,0,1-1.62.45,2.81,2.81,0,0,1-1.51-.56c-1.6-1.22-3.18-2.47-4.67-3.84-1.21-1.23-2.54-2.31-3.63-3.66a2.21,2.21,0,0,1,.63-2.91Zm.11.17a1.72,1.72,0,0,0,.42,3,63.46,63.46,0,0,1,8.43,5.54.63.63,0,0,0,.7.08l-.07,0c1.36-.93,2.72-1.89,4.09-2.81s2.84-1.79,4.25-2.68a1.5,1.5,0,0,0,.53-2.13,4.3,4.3,0,0,0-1.13-.9c-2.18-1.45-4.58-2.55-6.84-3.86-1.14-.67-1.15-.82-1.88-.41-2.76,1.51-5.84,2.49-8.5,4.13Z" transform="translate(-213.37 -267.09)"/><path class="cls-5" d="M410.47,575.57c2.73-1.55,5-3.76,7.67-5.45a2.64,2.64,0,0,1,2.17-.45,2.89,2.89,0,0,1,1,.49c1.91,1.36,3.67,3,5.57,4.33.42.31.86.59,1.29.89a5.14,5.14,0,0,1,1.31,1,2.41,2.41,0,0,1-.52,3.38c-2.29,2.07-5.1,4.3-7.66,6.3a2.68,2.68,0,0,1-1.63.46,2.77,2.77,0,0,1-1.5-.56c-1.61-1.23-3.19-2.47-4.67-3.84-1.22-1.23-2.54-2.31-3.64-3.66a2.23,2.23,0,0,1,.63-2.91Zm.11.17a1.72,1.72,0,0,0,.43,3,62.71,62.71,0,0,1,8.42,5.54.66.66,0,0,0,.71.08l-.08,0c1.37-.94,2.72-1.89,4.1-2.81s2.83-1.79,4.25-2.69a1.5,1.5,0,0,0,.53-2.13,4.39,4.39,0,0,0-1.14-.89c-2.18-1.45-4.58-2.55-6.84-3.87-1.14-.66-1.14-.81-1.88-.4-2.75,1.51-5.83,2.49-8.5,4.13Z" transform="translate(-213.37 -267.09)"/><path class="cls-5" d="M395.42,565.47c2.72-1.55,5-3.76,7.66-5.45a2.64,2.64,0,0,1,2.17-.45,2.89,2.89,0,0,1,1,.49c1.92,1.36,3.67,3,5.57,4.33.42.31.86.59,1.29.89a4.78,4.78,0,0,1,1.31,1,2.41,2.41,0,0,1-.52,3.38c-2.29,2.07-5.09,4.3-7.66,6.3a2.68,2.68,0,0,1-1.63.46,2.85,2.85,0,0,1-1.5-.56c-1.6-1.23-3.18-2.47-4.67-3.84-1.22-1.23-2.54-2.31-3.64-3.66a2.22,2.22,0,0,1,.64-2.91Zm.1.17a1.72,1.72,0,0,0,.43,3,62.71,62.71,0,0,1,8.42,5.54.66.66,0,0,0,.71.08l-.08,0c1.37-.94,2.72-1.89,4.1-2.81s2.83-1.79,4.25-2.69a1.5,1.5,0,0,0,.53-2.13,4.5,4.5,0,0,0-1.13-.89c-2.19-1.46-4.59-2.55-6.85-3.87-1.14-.67-1.14-.81-1.88-.4-2.75,1.51-5.83,2.49-8.5,4.13Z" transform="translate(-213.37 -267.09)"/><path class="cls-5" d="M377.61,572.4c2.73-1.55,5-3.76,7.67-5.45a2.6,2.6,0,0,1,2.17-.45,2.89,2.89,0,0,1,1,.49c1.91,1.36,3.67,2.94,5.57,4.33l1.28.89a4.82,4.82,0,0,1,1.32,1,2.4,2.4,0,0,1-.52,3.37c-2.29,2.08-5.1,4.31-7.66,6.31a2.68,2.68,0,0,1-1.63.46,2.75,2.75,0,0,1-1.5-.57c-1.61-1.22-3.19-2.46-4.67-3.83-1.22-1.23-2.54-2.31-3.64-3.66a2.23,2.23,0,0,1,.63-2.91Zm.11.17a1.72,1.72,0,0,0,.42,3,62.19,62.19,0,0,1,8.43,5.54.65.65,0,0,0,.7.08l-.07.05c1.37-.94,2.72-1.89,4.1-2.82s2.83-1.78,4.25-2.68a1.5,1.5,0,0,0,.53-2.13,4.18,4.18,0,0,0-1.14-.89c-2.18-1.46-4.58-2.55-6.84-3.87-1.14-.67-1.14-.81-1.88-.4-2.75,1.5-5.83,2.48-8.5,4.13Z" transform="translate(-213.37 -267.09)"/><path class="cls-5" d="M391.27,582c1.48-.89,5.14-3.08,6.54-4l1.08-.68a4.34,4.34,0,0,1,1.2-.64c.88-.31,1.83.47,2.52.93,7.77,5.13,15.67,10.36,23.12,16,6.77,5,13.56,10.38,20.44,15.3,2.42,1.7,5.95,4.21,8.37,5.86l1,.72a2.44,2.44,0,0,1,0,4c.21-.12-7.87,6.08-7.81,6.06l.18-.19a2.87,2.87,0,0,1-1.24,1c-4.66,1.33-12.35-4.73-16.19-7.23A230.46,230.46,0,0,1,402.44,595a65.26,65.26,0,0,0-6.85-6.15L392,586c-.61-.48-1.37-.93-1.52-1.77a2,2,0,0,1,.82-2.15Zm.1.17a1.83,1.83,0,0,0-.69,1.93c.16.78.87,1.14,1.46,1.6l3.74,2.73,3.77,2.67c1.27,1,2.36,2,3.56,3,11.17,9.15,23.83,21,36.08,28.51a25.47,25.47,0,0,0,4,1.94c1.31.49,2.9.73,3.37,0l.07-.11.12-.08s8.15-5.7,8.18-5.73a1.47,1.47,0,0,0,0-2.43l-1-.77c-2.31-1.75-5.86-4.27-8.24-6-6.88-4.94-14.1-9.65-21.07-14.43-7.68-5.25-15.19-11-22.54-16.75l-1-.77a1.38,1.38,0,0,0-1-.22,13.42,13.42,0,0,0-2.19,1.13c-1.46.79-5.16,3-6.64,3.83Z" transform="translate(-213.37 -267.09)"/><path class="cls-5" d="M474.77,600.71c2.72-1.55,5-3.76,7.66-5.44a2.61,2.61,0,0,1,2.17-.45,2.89,2.89,0,0,1,1,.48c1.92,1.36,3.68,3,5.57,4.33.42.31.86.6,1.29.89a4.67,4.67,0,0,1,1.31,1,2.4,2.4,0,0,1-.52,3.37c-2.28,2.08-5.09,4.31-7.66,6.31a2.67,2.67,0,0,1-1.63.45,2.72,2.72,0,0,1-1.5-.56c-1.6-1.22-3.18-2.47-4.67-3.84a50.13,50.13,0,0,1-3.63-3.66,2.21,2.21,0,0,1,.63-2.91Zm.1.17a1.72,1.72,0,0,0,.43,3,62.71,62.71,0,0,1,8.42,5.54.64.64,0,0,0,.71.08l-.08,0,4.1-2.81c1.38-.94,2.83-1.79,4.25-2.68a1.5,1.5,0,0,0,.53-2.13,4.3,4.3,0,0,0-1.13-.9c-2.18-1.45-4.58-2.55-6.84-3.86-1.15-.67-1.15-.82-1.88-.41-2.76,1.51-5.84,2.49-8.51,4.13Z" transform="translate(-213.37 -267.09)"/><path class="cls-5" d="M470.4,579c2.72-1.55,5-3.75,7.66-5.44a2.61,2.61,0,0,1,2.17-.45,2.89,2.89,0,0,1,1,.48c1.92,1.36,3.68,2.95,5.57,4.33.42.31.86.6,1.29.9a4.46,4.46,0,0,1,1.31,1,2.4,2.4,0,0,1-.52,3.37c-2.28,2.08-5.09,4.31-7.66,6.31a2.67,2.67,0,0,1-1.63.45,2.72,2.72,0,0,1-1.5-.56c-1.6-1.22-3.18-2.47-4.67-3.84-1.22-1.23-2.54-2.31-3.63-3.65a2.22,2.22,0,0,1,.63-2.92Zm.1.17a1.72,1.72,0,0,0,.43,3,63.7,63.7,0,0,1,8.42,5.54.62.62,0,0,0,.71.08l-.08.05,4.1-2.81c1.38-.94,2.83-1.79,4.25-2.68a1.5,1.5,0,0,0,.53-2.13,4.3,4.3,0,0,0-1.13-.9c-2.18-1.45-4.58-2.54-6.84-3.86-1.15-.67-1.15-.82-1.88-.41-2.76,1.51-5.84,2.49-8.51,4.13Z" transform="translate(-213.37 -267.09)"/><path class="cls-5" d="M326.88,646.59c19.37-8.87,38.39-18.46,57.7-27.46,5-2.91,11.13-3.32,15.95.19l4.45,2.93c11.83,7.85,23.55,15.87,35.41,23.68,2.84,1.89,10.56,7,13.37,8.76,5,2.69,8.23,7.73,7,13.52a12.35,12.35,0,0,1-6.61,8.36q-14.48,8.67-29,17.28c-.08,0-29.07,17.13-29.15,17.16a13.85,13.85,0,0,1-13.94-1.16c-5.4-4.07-16.28-12.23-21.67-16.31-6.9-5.24-25.09-19.4-32.15-24.89-1.47-1.2-4-2.93-5.18-4.46a11.67,11.67,0,0,1,3.78-17.6Zm.09.18c-6.89,3.52-8.28,13.2-2.31,18.27.71.67,3.22,2.37,4.06,3,7.35,5.32,25.85,18.7,32.88,23.9,5.42,4,16.29,12.17,21.71,16.2a12.1,12.1,0,0,0,11.76,1l29.24-16.83Q439,684,453.65,675.67A11.38,11.38,0,0,0,460,668c1.26-5.48-1.89-10.24-6.61-12.82-2.73-1.82-10.51-6.85-13.4-8.7-11.92-7.72-24-15.22-35.95-22.89l-4.47-2.9c-4.26-3.1-9.82-2.56-14.22,0C366,629.54,346.29,637.8,327,646.77Z" transform="translate(-213.37 -267.09)"/><path class="cls-5" d="M484.69,588.51c2.72-1.55,5-3.76,7.66-5.45a2.68,2.68,0,0,1,2.17-.45,3.08,3.08,0,0,1,1,.49c1.92,1.36,3.67,2.95,5.57,4.33.42.31.86.59,1.29.89a4.82,4.82,0,0,1,1.31,1,2.41,2.41,0,0,1-.52,3.38c-2.29,2.08-5.09,4.31-7.66,6.3a2.61,2.61,0,0,1-1.63.46,2.8,2.8,0,0,1-1.5-.56c-1.6-1.22-3.18-2.47-4.67-3.84a50.13,50.13,0,0,1-3.63-3.66,2.21,2.21,0,0,1,.63-2.91Zm.1.17a1.72,1.72,0,0,0,.43,3,62.71,62.71,0,0,1,8.42,5.54.64.64,0,0,0,.71.08l-.08.05c1.37-.94,2.73-1.89,4.1-2.81s2.83-1.79,4.25-2.68a1.5,1.5,0,0,0,.53-2.13,4.3,4.3,0,0,0-1.13-.9c-2.19-1.45-4.59-2.55-6.85-3.86-1.14-.67-1.14-.82-1.87-.41-2.76,1.51-5.84,2.49-8.51,4.13Z" transform="translate(-213.37 -267.09)"/><path class="cls-5" d="M500.25,599.8c2.72-1.55,5-3.76,7.66-5.45a2.65,2.65,0,0,1,2.17-.45,2.89,2.89,0,0,1,1,.49c1.92,1.36,3.67,3,5.57,4.33.42.31.86.59,1.29.89a5,5,0,0,1,1.31,1,2.41,2.41,0,0,1-.52,3.38c-2.29,2.08-5.09,4.31-7.66,6.3a2.61,2.61,0,0,1-1.63.46,2.77,2.77,0,0,1-1.5-.56c-1.6-1.23-3.18-2.47-4.67-3.84-1.22-1.23-2.54-2.31-3.64-3.66a2.22,2.22,0,0,1,.64-2.91Zm.1.17a1.72,1.72,0,0,0,.43,3,62.71,62.71,0,0,1,8.42,5.54.64.64,0,0,0,.71.08l-.08,0c1.37-.94,2.72-1.89,4.1-2.81s2.83-1.79,4.25-2.68a1.5,1.5,0,0,0,.53-2.13,4.3,4.3,0,0,0-1.13-.9c-2.19-1.45-4.59-2.55-6.85-3.87-1.14-.66-1.14-.81-1.88-.4-2.75,1.51-5.83,2.49-8.5,4.13Z" transform="translate(-213.37 -267.09)"/><path class="cls-5" d="M513.79,610.25c3.07-1.91,5.68-4.48,8.66-6.51a2.61,2.61,0,0,1,2.48-.46,3.81,3.81,0,0,1,1,.6c2.63,2,5,4.34,7.71,6.27l.73.52a3,3,0,0,1,.06,4.55c-2.4,2.32-6,5.42-8.62,7.61a2.73,2.73,0,0,1-1.83.53c-1.51-.17-2.32-1.38-3.42-2.21a81.46,81.46,0,0,1-6.75-6.52,2.84,2.84,0,0,1,0-4.38Zm.12.16a2.22,2.22,0,0,0,.37,3.66,85.27,85.27,0,0,1,9.43,6.93.69.69,0,0,0,.9.14l-.07.06,4.57-3.46c1.54-1.16,3.16-2.23,4.73-3.34a2,2,0,0,0,.17-3.24l-.73-.53c-2.68-1.94-5.65-3.48-8.4-5.33-.44-.32-.52-.4-1-.35-3.27,1.85-6.86,3.42-10,5.46Z" transform="translate(-213.37 -267.09)"/><path class="cls-5" d="M529.51,620.75c3.07-1.91,5.68-4.48,8.66-6.51a2.61,2.61,0,0,1,2.48-.46,3.81,3.81,0,0,1,1,.6c2.63,2,5,4.34,7.71,6.27l.73.52a3,3,0,0,1,.06,4.55c-2.4,2.31-6,5.42-8.62,7.61a2.78,2.78,0,0,1-1.83.53c-1.51-.17-2.32-1.38-3.42-2.21a81.46,81.46,0,0,1-6.75-6.52,2.84,2.84,0,0,1,0-4.38Zm.12.16a2.22,2.22,0,0,0,.37,3.66,85.27,85.27,0,0,1,9.43,6.93.69.69,0,0,0,.9.14l-.07.06,4.57-3.46c1.54-1.16,3.16-2.23,4.73-3.34a2,2,0,0,0,.17-3.24l-.73-.53c-2.69-1.94-5.65-3.48-8.4-5.33-.44-.32-.52-.4-1-.35-3.27,1.85-6.86,3.42-10,5.46Z" transform="translate(-213.37 -267.09)"/><path class="cls-5" d="M545,631.05c3-1.91,5.47-4.48,8.35-6.52a2.49,2.49,0,0,1,3.06-.09c2.7,2.06,5.08,4.53,7.81,6.55l.71.52a3.05,3.05,0,0,1,0,4.5c-2.33,2.33-5.83,5.47-8.36,7.65a2.66,2.66,0,0,1-3.38-.23,79.89,79.89,0,0,1-8.22-8,2.9,2.9,0,0,1,0-4.35Zm.11.16a2.27,2.27,0,0,0,.34,3.64,75.81,75.81,0,0,1,7.39,5.47c.65.52,1.26,1.07,1.89,1.61a.6.6,0,0,0,.68,0l4.34-3.41c1.49-1.15,3-2.22,4.58-3.34a2.1,2.1,0,0,0,.67-2.62c-.59-1-1.73-1.45-2.59-2.15-2.19-1.49-4.53-2.79-6.7-4.32-.25-.17-.57-.46-.9-.37-3.17,1.84-6.64,3.43-9.7,5.46Z" transform="translate(-213.37 -267.09)"/><path class="cls-5" d="M562.15,641.51c3-1.92,5.47-4.48,8.35-6.52a2.48,2.48,0,0,1,3.06-.1c2.7,2.07,5.07,4.53,7.8,6.55l.72.53a3.06,3.06,0,0,1,0,4.5c-2.33,2.33-5.83,5.46-8.36,7.65a2.66,2.66,0,0,1-3.38-.24,80.84,80.84,0,0,1-8.22-8,2.9,2.9,0,0,1,0-4.35Zm.11.16a2.26,2.26,0,0,0,.34,3.63,80.57,80.57,0,0,1,7.39,5.47c.65.52,1.26,1.08,1.89,1.61a.6.6,0,0,0,.68,0l4.34-3.4c1.49-1.16,3.05-2.23,4.58-3.34a2.11,2.11,0,0,0,.67-2.63c-.6-1-1.73-1.45-2.6-2.14-2.19-1.49-4.52-2.8-6.69-4.32-.25-.18-.57-.47-.9-.38-3.17,1.84-6.64,3.43-9.7,5.47Z" transform="translate(-213.37 -267.09)"/><path class="cls-5" d="M578.36,652.44c3-1.92,5.47-4.48,8.35-6.52a2.51,2.51,0,0,1,3.07-.1c2.69,2.07,5.07,4.53,7.8,6.55l.71.53a3,3,0,0,1,0,4.5c-2.33,2.33-5.83,5.46-8.35,7.65a2.66,2.66,0,0,1-3.38-.24,80.94,80.94,0,0,1-8.23-8,2.9,2.9,0,0,1,0-4.35Zm.12.16a2.26,2.26,0,0,0,.33,3.63,77.93,77.93,0,0,1,7.39,5.47c.65.52,1.26,1.08,1.9,1.61a.58.58,0,0,0,.67,0l4.34-3.4c1.49-1.16,3.06-2.23,4.58-3.34a2.1,2.1,0,0,0,.67-2.63c-.59-1-1.72-1.45-2.59-2.14-2.19-1.49-4.53-2.8-6.7-4.32-.25-.18-.57-.47-.9-.38-3.16,1.84-6.64,3.43-9.69,5.47Z" transform="translate(-213.37 -267.09)"/><path class="cls-5" d="M568.36,666.89c3-1.91,5.46-4.48,8.34-6.52a2.51,2.51,0,0,1,3.07-.09c2.7,2.06,5.07,4.52,7.8,6.55l.72.52a3.06,3.06,0,0,1,0,4.5c-2.33,2.33-5.83,5.47-8.36,7.65a2.68,2.68,0,0,1-3.38-.23,81,81,0,0,1-8.23-8,2.9,2.9,0,0,1,0-4.35Zm.11.16a2.27,2.27,0,0,0,.34,3.64,77,77,0,0,1,7.39,5.47c.64.51,1.26,1.07,1.89,1.61a.6.6,0,0,0,.68,0l4.34-3.41c1.49-1.15,3-2.22,4.58-3.34a2.1,2.1,0,0,0,.67-2.62c-.6-1-1.73-1.45-2.6-2.15-2.19-1.49-4.52-2.79-6.69-4.32-.25-.17-.57-.46-.9-.37-3.17,1.83-6.65,3.42-9.7,5.46Z" transform="translate(-213.37 -267.09)"/><path class="cls-5" d="M531.31,688.38c3.65-2.47,6.77-5.64,10.39-8.14l.9-.6a2.5,2.5,0,0,1,2.84.2c3.12,2.43,6.15,5,9.49,7.14a3,3,0,0,1,0,4.61l-.48.42c-2.94,2.63-6.8,5.65-9.89,8.12a2.76,2.76,0,0,1-3.63.1,119.06,119.06,0,0,1-9.77-7.73,2.82,2.82,0,0,1,.17-4.12Zm.12.16a2.31,2.31,0,0,0,0,3.48,118.45,118.45,0,0,1,10.74,6.51.58.58,0,0,0,.82.07c1.46-1.08,5-3.58,6.48-4.67s2.81-1.92,4.24-2.86l.53-.35a2.11,2.11,0,0,0,.28-3.21c-3.19-2.35-6.68-4.25-10.07-6.29a.8.8,0,0,0-1-.07c-3.83,2.79-8.24,4.67-12.11,7.39Z" transform="translate(-213.37 -267.09)"/><path class="cls-5" d="M546.83,701.47a37.88,37.88,0,0,0,4.24-3.46c.8-.78,1.74-1.67,3-1.22,4.3,1.83,7.33,5.63,11.31,8a2.84,2.84,0,0,1,1,1.66,2.94,2.94,0,0,1-1.17,3.09l-1.71,1.26c-1.14.82-2.33,1.62-3.5,2.39a2.72,2.72,0,0,1-3.51.09,69.1,69.1,0,0,1-7.49-5.51l-2.36-2.11,0,0a2.91,2.91,0,0,1,.24-4.18Zm.12.17a2.21,2.21,0,0,0,.13,3.42l2.76,1.45a73.24,73.24,0,0,1,7.94,5.2.61.61,0,0,0,.61.19c.33-.13,1-.54,1.28-.71,1.64-1,3.51-1.9,5.2-2.79a2.06,2.06,0,0,0,.12-3.1,44.77,44.77,0,0,0-4.64-2.84,69.12,69.12,0,0,1-6.81-4.17.88.88,0,0,0-.69-.09,49.37,49.37,0,0,0-5.9,3.44Z" transform="translate(-213.37 -267.09)"/><path class="cls-5" d="M513,677.53a38.81,38.81,0,0,0,4.24-3.46c.8-.79,1.74-1.68,3-1.23,4.3,1.84,7.33,5.64,11.31,8a2.81,2.81,0,0,1,1,1.65,3,3,0,0,1-1.17,3.1c-.21.14-1.47,1.08-1.71,1.25-1.14.83-2.33,1.62-3.5,2.39a2.72,2.72,0,0,1-3.51.1,70.32,70.32,0,0,1-7.5-5.52l-2.35-2.1,0,0a2.92,2.92,0,0,1,.25-4.18Zm.12.16a2.22,2.22,0,0,0,.13,3.43c-.17-.1,2.8,1.47,2.76,1.45a70.37,70.37,0,0,1,7.94,5.2.61.61,0,0,0,.61.18,13.62,13.62,0,0,0,1.28-.71c1.64-1,3.51-1.89,5.2-2.78a2.07,2.07,0,0,0,.12-3.1,43.11,43.11,0,0,0-4.64-2.84,71.88,71.88,0,0,1-6.81-4.17.85.85,0,0,0-.69-.09,50.69,50.69,0,0,0-5.9,3.43Z" transform="translate(-213.37 -267.09)"/><path class="cls-5" d="M543.75,672.26c3.81-1.11,10.07-3,12.79-3.43a2.42,2.42,0,0,1,3,0c4.55,2.81,9.79,6.24,14.36,9.58s9.46,6.71,14.39,9.76a3,3,0,0,1,0,4.53l-4.18,3.75c-1.39,1.26-2.82,2.48-4.22,3.73a2.58,2.58,0,0,1-3,0c-5-3.38-12.06-8-16.88-11.53q-8.34-5.91-16.44-12.17a2.75,2.75,0,0,1,.23-4.19Zm.08.18a2.4,2.4,0,0,0,.1,3.41q8.72,5.39,17.19,11.09c4.94,3.28,11.86,8.23,16.75,11.72a.77.77,0,0,0,1,.15c2.24-1.77,6.29-4.95,8.83-6.88a2.15,2.15,0,0,0,.19-3.18c-4.76-3.3-9.7-6.31-14.68-9.25s-9.88-6.12-14.67-9.41a.83.83,0,0,0-1.08-.06l-.16.12-.13,0c-4.42.85-8.87,1.63-13.34,2.27Z" transform="translate(-213.37 -267.09)"/><path class="cls-5" d="M614.53,664.87c-2.83-2.14-6.16-4.28-9.16-6.21-.92-.48-1.67.72-2.47,1.15-2.44,1.79-5,3.47-7.6,5.07a1.91,1.91,0,0,0,0,2.69l1,1a1.76,1.76,0,0,1,.45,2.22,2.23,2.23,0,0,1-.81.75c-3.32,2.23-6.53,4.63-9.66,7.12a2,2,0,0,0,.1,3.61l4.37,3.42c.31.21,1.08.91,1.32,1a.63.63,0,0,0,.72-.06l-.11.09c3.75-3.69,7.74-7.48,11.68-11,3.12-2.25,6.7-4.77,10-7.26a2.37,2.37,0,0,0,.19-3.64Zm.12-.16a2.75,2.75,0,0,1,0,4.12c-2.78,2.52-5.42,5.22-8.2,7.74-.19.13-.6.35-.52.34-3.8,3.78-8,7.73-12,11.32a2.55,2.55,0,0,1-2.77.08,6.94,6.94,0,0,1-.84-.67l-.7-.6-2.77-2.45c-.83-.87-2.35-1.72-2.67-3a3.19,3.19,0,0,1,1.55-3.76q3.11-2,6.1-4.18c1.23-.91,2.49-1.83,3.69-2.78.69-.39.8-1.15.14-1.57l-.73-.57a3.24,3.24,0,0,1-1.53-2.82,3.09,3.09,0,0,1,1.31-2.55c.24-.19.87-.62,1.13-.81,2-1.42,4.06-2.78,6.16-4.07l1.64-1a2.28,2.28,0,0,1,2.45.16c2.72,2.36,5.74,4.92,8.61,7.05Z" transform="translate(-213.37 -267.09)"/><path class="cls-5" d="M568,625.8c2.84-1.64,5.25-3.93,8-5.7a2.64,2.64,0,0,1,3.25,0c2.43,1.75,4.64,3.81,7.14,5.47l.69.45a2.53,2.53,0,0,1,.16,4.1c-2.23,2-5.62,4.74-8,6.63-1.82,1.29-3.51-.26-4.87-1.41a67.25,67.25,0,0,1-6.24-5.69,2.42,2.42,0,0,1-.1-3.9Zm.11.16a1.84,1.84,0,0,0,.43,3.16,68.53,68.53,0,0,1,8.75,5.87.69.69,0,0,0,.77.09l-.07,0,4.25-3c1.44-1,2.94-1.89,4.41-2.84a1.6,1.6,0,0,0,.56-2.26c-.18-.36-.85-.7-1.17-.95-2.64-1.73-5.55-3.15-8.25-4.74a1,1,0,0,0-.84.21c-2.87,1.59-6.06,2.66-8.84,4.38Z" transform="translate(-213.37 -267.09)"/><path class="cls-5" d="M536.5,644.68c2.83-1.63,5.24-3.92,8-5.7a2.64,2.64,0,0,1,3.24,0c2.44,1.75,4.64,3.82,7.15,5.47l.68.45a2.53,2.53,0,0,1,.16,4.1c-2.23,2-5.61,4.74-8,6.64-1.82,1.28-3.51-.26-4.88-1.42a67,67,0,0,1-6.24-5.69,2.42,2.42,0,0,1-.09-3.9Zm.11.17A1.83,1.83,0,0,0,537,648a69.52,69.52,0,0,1,8.75,5.86.69.69,0,0,0,.78.09l-.08,0,4.26-3c1.43-1,2.94-1.89,4.41-2.84a1.61,1.61,0,0,0,.56-2.26c-.19-.36-.86-.7-1.18-1-2.64-1.73-5.54-3.15-8.25-4.75-.37,0-.44,0-.84.22-2.87,1.59-6.06,2.65-8.83,4.38Z" transform="translate(-213.37 -267.09)"/><path class="cls-5" d="M513.49,648.69c2.84-1.63,5.24-3.92,8-5.7a2.66,2.66,0,0,1,3.25,0c2.43,1.75,4.64,3.81,7.14,5.47l.68.45a2.52,2.52,0,0,1,.16,4.1c-2.22,2-5.61,4.74-8,6.64-1.82,1.28-3.51-.27-4.87-1.42a65.88,65.88,0,0,1-6.24-5.69,2.42,2.42,0,0,1-.1-3.9Zm.11.17A1.83,1.83,0,0,0,514,652a69.41,69.41,0,0,1,8.74,5.86.69.69,0,0,0,.78.09l-.07,0,4.25-3c1.44-1,2.94-1.9,4.41-2.84a1.61,1.61,0,0,0,.56-2.27c-.18-.36-.85-.69-1.17-.94-2.64-1.73-5.55-3.16-8.26-4.75a1,1,0,0,0-.84.21c-2.86,1.59-6.06,2.66-8.83,4.39Z" transform="translate(-213.37 -267.09)"/><path class="cls-5" d="M584.52,636.8c2.83-1.63,5.24-3.93,8-5.7a2.64,2.64,0,0,1,3.24,0c2.44,1.75,4.65,3.81,7.15,5.47l.68.45a2.53,2.53,0,0,1,.16,4.1c-2.23,2-5.61,4.74-8,6.64-1.82,1.28-3.51-.27-4.87-1.42a67.24,67.24,0,0,1-6.25-5.69,2.42,2.42,0,0,1-.09-3.9Zm.11.17a1.82,1.82,0,0,0,.42,3.15A70.69,70.69,0,0,1,593.8,646a.69.69,0,0,0,.78.09l-.08,0,4.26-3c1.43-1,2.94-1.89,4.41-2.83a1.62,1.62,0,0,0,.56-2.27c-.19-.36-.86-.7-1.18-.94-2.64-1.73-5.54-3.16-8.25-4.75a1,1,0,0,0-.84.21c-2.87,1.59-6.06,2.66-8.83,4.39Z" transform="translate(-213.37 -267.09)"/><path class="cls-5" d="M600.45,647.46c2.86-1.68,5.54-3.65,8.25-5.57a2.43,2.43,0,0,1,1.61-.49,3.09,3.09,0,0,1,1.48.59c5,3,9.45,6.78,14.16,10.18,1.65,1.31,3.66,2.21,5.18,3.66a2.52,2.52,0,0,1-.46,3.41l-.51.4c-2.6,2.09-5.21,4.15-7.89,6.12a2.76,2.76,0,0,1-3.39-.19A163.71,163.71,0,0,1,605,655c-1.26-1.08-2.5-2.19-3.78-3.25l-1-.8a2.25,2.25,0,0,1,.19-3.48Zm.1.17a1.89,1.89,0,0,0,0,3c1.72,1.16,3.53,2.22,5.29,3.32,2.86,1.71,5.57,3.63,8.28,5.56,1.94,1.41,4.07,3,6,4.48.33.28.72.54,1.17.21,2.72-1.89,5.51-3.69,8.32-5.46l.5-.32a1.64,1.64,0,0,0,.46-2.17,39.87,39.87,0,0,0-4.94-3.54c-4.18-2.7-8.63-5-12.68-7.94-.89-.55-1.87-1.5-2.75-1.92a1,1,0,0,0-.76.11c-3,1.5-6,2.94-8.83,4.68Z" transform="translate(-213.37 -267.09)"/><path class="cls-5" d="M438.86,522.05c1.33-.72,2.48-2.64,4.22-1.71a14.68,14.68,0,0,1,1.58.81c1.76,1,3.1,2.6,4.7,3.81.28.22.52.35.85.61a2.15,2.15,0,0,1-.15,3.29c-.57.43-1.07.83-1.63,1.23l-.52.36a2.57,2.57,0,0,1-2.76-.05l-1.28-.8a25.1,25.1,0,0,1-4.74-3.74l-.75-.79a2.06,2.06,0,0,1,.48-3Zm.1.17a1.26,1.26,0,0,0,0,2.17,24.89,24.89,0,0,1,6.07,3.49l.8.61c.3.2.63.59,1,.51l.17,0c.77-.37,1.65-.71,2.42-1a1.1,1.1,0,0,0,.69-1.2,1.15,1.15,0,0,0-.37-.7,31.56,31.56,0,0,0-4.42-2.34,13.13,13.13,0,0,1-2.87-2l-.3-.29c-.86-.81-2.37.4-3.25.86Z" transform="translate(-213.37 -267.09)"/><path class="cls-5" d="M452.16,530.88c1.08-.57,1.73-1.52,2.88-2a2.58,2.58,0,0,1,2,.28,16.93,16.93,0,0,1,3.33,2.09c1.17.93,2.23,2,3.44,2.9.32.23.58.4.94.68a2.32,2.32,0,0,1-.17,3.58c-.88.65-1.68,1.29-2.6,1.85a3,3,0,0,1-3.25-.46,34.37,34.37,0,0,1-6.26-4.74c-.29-.29-.5-.48-.84-.85a2.24,2.24,0,0,1,.49-3.31Zm.11.16a1.45,1.45,0,0,0,0,2.47l1,.45a26.87,26.87,0,0,1,3.92,2.21c.89.6,1.86,1.3,2.72,2,.43.33.87.77,1.45.51.86-.42,1.83-.81,2.69-1.18a1.33,1.33,0,0,0,.35-2.19c-2.09-1.52-4.73-2.27-6.8-3.85a17,17,0,0,1-1.66-1.39c-1-.87-2.66.49-3.66,1Z" transform="translate(-213.37 -267.09)"/><path class="cls-5" d="M466,539.82c1.08-.57,1.73-1.52,2.88-2a2.54,2.54,0,0,1,2,.27,16.86,16.86,0,0,1,3.32,2.09c1.18.93,2.24,2,3.45,2.9.32.24.58.4.94.69a2.32,2.32,0,0,1-.17,3.57c-.89.65-1.68,1.29-2.6,1.85a3,3,0,0,1-3.26-.46,33.85,33.85,0,0,1-6.25-4.74c-.29-.28-.5-.48-.85-.85a2.23,2.23,0,0,1,.5-3.31Zm.11.17a1.44,1.44,0,0,0,0,2.46l1,.45a26.25,26.25,0,0,1,3.91,2.21c.9.6,1.87,1.3,2.73,2,.43.33.87.77,1.45.51.86-.42,1.83-.81,2.69-1.17a1.34,1.34,0,0,0,.34-2.2c-2.08-1.52-4.72-2.27-6.79-3.85a17,17,0,0,1-1.66-1.39c-1-.87-2.66.5-3.66,1Z" transform="translate(-213.37 -267.09)"/><path class="cls-5" d="M480.38,549.23c1.11-.57,1.8-1.51,3-2a2.61,2.61,0,0,1,2.07.26c2.69,1.12,4.71,3.28,7,5l1,.67a2.29,2.29,0,0,1-.15,3.62c-1.45.92-2.85,2.58-4.71,2a12.55,12.55,0,0,1-2.24-1.23,32.87,32.87,0,0,1-5.49-4.13l-.87-.84a2.19,2.19,0,0,1,.45-3.36Zm.11.17a1.42,1.42,0,0,0,0,2.48l1,.45a37.62,37.62,0,0,1,7.31,4.5c.59.45,1,.18,1.73-.14s1.44-.6,2.11-.88a1.31,1.31,0,0,0,.32-2.21A44.05,44.05,0,0,0,488,551a17.35,17.35,0,0,1-3.67-2.58c-1.08-.85-2.74.5-3.79,1Z" transform="translate(-213.37 -267.09)"/><path class="cls-5" d="M494.45,558.35c1.15-.56,1.9-1.5,3.1-2a2.75,2.75,0,0,1,2.13.22c2.79,1.12,4.94,3.27,7.35,5l1,.66a2.24,2.24,0,0,1-.09,3.68c-1.52.89-2.89,2.51-4.85,2a11.63,11.63,0,0,1-2.35-1.21,35,35,0,0,1-5.78-4.13l-.91-.83a2.13,2.13,0,0,1,.39-3.41Zm.1.17a1.4,1.4,0,0,0,.05,2.51l1.07.45a40.12,40.12,0,0,1,7.65,4.48c.64.45,1.14.16,1.89-.17s1.5-.58,2.19-.86a1.28,1.28,0,0,0,.28-2.24,47.35,47.35,0,0,0-5.29-2.63,19.43,19.43,0,0,1-3.85-2.57c-1.16-.83-2.86.49-4,1Z" transform="translate(-213.37 -267.09)"/><path class="cls-5" d="M509.08,567.73c1.22-.62,2-1.65,3.3-2.19a2.89,2.89,0,0,1,2.25.3,21.11,21.11,0,0,1,3.8,2.32c1.36,1,2.61,2.21,4,3.17.73.49,1.64,1,1.88,1.94a2.53,2.53,0,0,1-1,2.74,23.85,23.85,0,0,1-3.4,2.17,3.46,3.46,0,0,1-3.15-.65l-1.08-.67a40.58,40.58,0,0,1-6.14-4.54l-1-.91a2.39,2.39,0,0,1,.48-3.68Zm.1.17a1.62,1.62,0,0,0,0,2.8l1.13.52a47,47,0,0,1,8.11,5c.69.52,1.23.21,2-.17,1.19-.71,3.46-.78,3.21-2.62-.13-.82-.91-1.15-1.57-1.57-1.46-.86-3.06-1.5-4.56-2.31a22.27,22.27,0,0,1-4.1-2.85c-1.25-.91-3,.59-4.25,1.19Z" transform="translate(-213.37 -267.09)"/><path class="cls-5" d="M524.39,577.74c1.21-.62,2-1.66,3.29-2.19a2.91,2.91,0,0,1,2.26.3,21.65,21.65,0,0,1,3.8,2.31c1.36,1,2.6,2.22,4,3.18.73.48,1.65,1,1.88,1.94a2.53,2.53,0,0,1-1,2.74,23.75,23.75,0,0,1-3.39,2.17,3.49,3.49,0,0,1-3.16-.65l-1.08-.67a40.58,40.58,0,0,1-6.14-4.54c-.32-.31-.6-.55-1-.91a2.39,2.39,0,0,1,.48-3.68Zm.1.17a1.61,1.61,0,0,0,0,2.8l1.12.52a45.63,45.63,0,0,1,8.11,5c.7.52,1.23.21,2-.17,1.18-.71,3.46-.78,3.2-2.62-.13-.83-.91-1.15-1.57-1.57-1.46-.86-3.06-1.51-4.55-2.31a22.76,22.76,0,0,1-4.1-2.85c-1.25-.91-3,.59-4.25,1.19Z" transform="translate(-213.37 -267.09)"/><path class="cls-5" d="M540.28,587.59c1.21-.62,2-1.65,3.29-2.18a2.86,2.86,0,0,1,2.26.3,21.65,21.65,0,0,1,3.8,2.31c1.36,1,2.61,2.21,4,3.17.73.49,1.65,1,1.88,1.95a2.5,2.5,0,0,1-1,2.73,22.91,22.91,0,0,1-3.39,2.17,3.49,3.49,0,0,1-3.16-.65l-1.08-.67a39.83,39.83,0,0,1-6.13-4.54c-.33-.31-.61-.54-1-.91a2.39,2.39,0,0,1,.48-3.68Zm.1.18a1.61,1.61,0,0,0,0,2.79l1.12.52a45.68,45.68,0,0,1,8.11,5c.7.52,1.23.2,2-.17,1.18-.71,3.46-.78,3.2-2.63-.13-.82-.91-1.15-1.57-1.56-1.46-.87-3.06-1.51-4.55-2.32a22.71,22.71,0,0,1-4.1-2.84c-1.25-.92-3,.59-4.25,1.19Z" transform="translate(-213.37 -267.09)"/><path class="cls-5" d="M556.17,598.27c1.21-.62,2-1.66,3.3-2.19a2.84,2.84,0,0,1,2.25.3,21.65,21.65,0,0,1,3.8,2.31c1.36,1,2.61,2.21,4,3.17.73.49,1.65,1,1.88,1.95a2.5,2.5,0,0,1-1,2.73,22.4,22.4,0,0,1-3.39,2.17,3.46,3.46,0,0,1-3.16-.65l-1.08-.67a39.83,39.83,0,0,1-6.13-4.54c-.33-.31-.61-.54-1-.91a2.38,2.38,0,0,1,.48-3.67Zm.1.17a1.62,1.62,0,0,0,0,2.8l1.13.52a46.36,46.36,0,0,1,8.11,5c.69.52,1.23.2,2-.17,1.18-.71,3.46-.78,3.2-2.63-.13-.82-.91-1.15-1.57-1.56-1.45-.87-3.06-1.51-4.55-2.32a22.71,22.71,0,0,1-4.1-2.84c-1.25-.92-3,.59-4.25,1.19Z" transform="translate(-213.37 -267.09)"/><path class="cls-5" d="M572.06,609c1.22-.62,2-1.66,3.3-2.19a2.84,2.84,0,0,1,2.25.3,21.65,21.65,0,0,1,3.8,2.31c1.36,1,2.61,2.21,4,3.17.73.49,1.65,1,1.88,1.95a2.5,2.5,0,0,1-1,2.73,22.4,22.4,0,0,1-3.39,2.17,3.49,3.49,0,0,1-3.16-.65l-1.08-.67a39.83,39.83,0,0,1-6.13-4.54c-.33-.31-.61-.54-1-.91a2.38,2.38,0,0,1,.48-3.67Zm.1.17a1.62,1.62,0,0,0,0,2.8l1.13.52a46.36,46.36,0,0,1,8.11,5c.69.52,1.23.2,2-.17,1.18-.71,3.46-.78,3.21-2.63-.13-.82-.92-1.15-1.58-1.56-1.45-.87-3.06-1.51-4.55-2.32a22.71,22.71,0,0,1-4.1-2.84c-1.25-.92-3,.59-4.25,1.19Z" transform="translate(-213.37 -267.09)"/><path class="cls-5" d="M588.35,620.24c1.29-.65,2.16-1.72,3.52-2.28a3.1,3.1,0,0,1,2.37.31,24.83,24.83,0,0,1,4,2.43c1.46,1.07,2.8,2.3,4.3,3.31l1.15.77a2.55,2.55,0,0,1-.16,4.12,26.61,26.61,0,0,1-3.62,2.25,3.63,3.63,0,0,1-3.3-.66,49.55,49.55,0,0,1-7.72-5.45c-.7-.61-1.66-1.32-1.77-2.33a2.41,2.41,0,0,1,1.18-2.47Zm.1.17a1.71,1.71,0,0,0,0,3l1.21.56a52.18,52.18,0,0,1,8.64,5.26c.76.55,1.39.21,2.24-.2,1.26-.74,3.71-.83,3.41-2.8-.15-.87-1-1.21-1.71-1.64-1.55-.91-3.25-1.6-4.84-2.45a26,26,0,0,1-4.39-3c-1.37-.94-3.26.64-4.56,1.27Z" transform="translate(-213.37 -267.09)"/><path class="cls-5" d="M605.34,631.15c1.29-.64,2.15-1.72,3.52-2.27a3.05,3.05,0,0,1,2.37.31,24.78,24.78,0,0,1,4,2.42c1.45,1.07,2.8,2.3,4.3,3.31l1.14.77a2.55,2.55,0,0,1-.15,4.12,25.72,25.72,0,0,1-3.62,2.26,3.66,3.66,0,0,1-3.3-.67,48.89,48.89,0,0,1-7.72-5.45c-.7-.61-1.66-1.31-1.77-2.32a2.43,2.43,0,0,1,1.18-2.48Zm.1.17a1.71,1.71,0,0,0,0,3l1.2.56a51.25,51.25,0,0,1,8.65,5.27c.76.54,1.38.2,2.24-.2,1.26-.75,3.71-.84,3.41-2.8-.15-.87-1-1.22-1.71-1.65-1.55-.91-3.25-1.6-4.84-2.45a26,26,0,0,1-4.39-3c-1.37-.94-3.26.64-4.56,1.27Z" transform="translate(-213.37 -267.09)"/><path class="cls-5" d="M622.71,643c1.37-.71,2.3-1.87,3.76-2.46a3.19,3.19,0,0,1,2.51.38,28.25,28.25,0,0,1,4.33,2.66c1.56,1.15,3,2.47,4.6,3.58.83.55,1.86,1.12,2.12,2.2a2.8,2.8,0,0,1-1.1,3,27.6,27.6,0,0,1-3.87,2.44,3.83,3.83,0,0,1-3.49-.76l-1.23-.76a52.25,52.25,0,0,1-7-5.16c-.74-.65-1.76-1.43-1.86-2.51a2.64,2.64,0,0,1,1.26-2.65Zm.1.17a1.91,1.91,0,0,0,0,3.27l1.27.62a52.34,52.34,0,0,1,7.46,4.52,25.34,25.34,0,0,0,2.16,1.5c.77.28,1.24-.07,2.06-.44,1.37-.82,4-1,3.65-3.12-.16-.95-1-1.34-1.81-1.82-3.15-1.8-6.58-3.17-9.36-5.57a2.25,2.25,0,0,0-1.58-.72c-1.32.15-2.63,1.13-3.81,1.76Z" transform="translate(-213.37 -267.09)"/></g></svg>