<svg id="Слой_1" data-name="Слой 1" xmlns="http://www.w3.org/2000/svg" viewBox="0 0 19.86 19.4"><defs><style>.cls-1{fill:#4f5878;}.cls-2{fill:#1e1e1c;}</style></defs><path class="cls-1" d="M449.23,491.47H453v1.67a3.84,3.84,0,0,1,2.24-1.78,5.13,5.13,0,0,1,4.47.59,3.66,3.66,0,0,1,1.41,2.25,9.31,9.31,0,0,1,.3,2.46c0,2.37,0,4.73,0,7.1,0,.23-.05.31-.29.31-1.13,0-2.26,0-3.38,0-.23,0-.29-.06-.29-.29,0-2.17,0-4.33,0-6.5a4.16,4.16,0,0,0-.31-1.67,1.51,1.51,0,0,0-1-.9,2.78,2.78,0,0,0-1.59.05,1.91,1.91,0,0,0-1.25,1.53,6.36,6.36,0,0,0-.15,1.23c0,2.08,0,4.15,0,6.22,0,.32,0,.32-.34.32H449.5c-.22,0-.29-.06-.29-.29q0-6,0-12.06C449.22,491.64,449.23,491.56,449.23,491.47Z" transform="translate(-441.58 -484.66)"/><path class="cls-1" d="M446.87,491.31h-3.93c0,.08,0,.15,0,.22q0,6.06,0,12.11c0,.21.07.26.27.26h3.43c.21,0,.26-.07.26-.28V491.56C446.88,491.48,446.87,491.39,446.87,491.31Z" transform="translate(-441.58 -484.66)"/><path class="cls-1" d="M444.88,489.62a2.29,2.29,0,1,0,0-4.57,2.29,2.29,0,0,0,0,4.57Z" transform="translate(-441.58 -484.66)"/><path class="cls-2" d="M448.92,490.92c.84,0,2.54,0,3.37,0,.38,0,.29.52.31.75s0,.34.06.38c2.24-2.58,7.39-2.33,8.28,1.45.65,2.7.11,5.6.15,8.34,0,.37,0,1.2,0,1.57a.36.36,0,0,1-.26.33c-.8.05-1.57,0-2.37,0h-1.3c-.42,0-.33-.56-.34-.82,0-1.37-.06-2.75-.09-4.13-.1-1.78.3-4.64-2.13-4.24-1.43.17-1.47,1.67-1.5,2.82s0,3.1,0,4.13c0,.33,0,1.23,0,1.55s.1.57-.24.87-.3.1-.52.12-.61,0-.78,0H449a.77.77,0,0,1-.58-.24.7.7,0,0,1-.13-.52c0-1.38.06-2.75.13-4.13.1-2,.22-5.31.23-7.24,0-.33-.12-.94.29-.95Zm0,.09c-.29,0-.14.58-.17.86,0,3.6.3,7.78.36,11.37,0,.09,0,.13,0,0s-.17-.07-.1-.09h2.59c.23,0,.65,0,.88,0,0,0,0,0-.12.06s-.12.3-.14.12V499.4a14.47,14.47,0,0,1,.38-4.26,2.54,2.54,0,0,1,4.13-.62c.86,1.17.47,2.93.5,4.24,0,1.53-.1,3.09-.08,4.62,0,0,0,0,.06,0h.24c1,0,2.11,0,3.1,0h.22s0,0,0-.06c0-.92-.07-2.67-.09-3.6-.19-2.16.28-6-1.33-7.7a4.77,4.77,0,0,0-6.21,0c-.12.17-.39.37-.61.19s-.14-.4-.14-.6.12-.51-.1-.57c-.81-.05-2.53,0-3.35-.05Z" transform="translate(-441.58 -484.66)"/><path class="cls-2" d="M442.58,490.92c1.29,0,2.72-.18,3.66-.16a.48.48,0,0,1,.32.4,55.58,55.58,0,0,1-.11,8.46c-.06,1.31.08,2.6.05,3.91a.43.43,0,0,1-.21.23,21.62,21.62,0,0,1-2.26.15l-1,0a3.86,3.86,0,0,1-.59,0,.62.62,0,0,1-.48-.54,87.36,87.36,0,0,1,.35-11.55c0-.34-.12-.93.29-.94Zm0,.09c-.29,0-.14.59-.16.85a89.65,89.65,0,0,1,.34,11.47c0-.06-.14-.18-.18-.17l1.45,0c.69,0,1.43.08,2.08.11,0,0,0,.05,0,.05a.45.45,0,0,0,0-.17c.33-4-.47-8,0-12-.93-.09-2.4-.2-3.47-.19Z" transform="translate(-441.58 -484.66)"/><path class="cls-2" d="M444.32,484.67c3.75,0,3.27,4.38,0,4.85a2.44,2.44,0,1,1,0-4.85Zm0,.09c-2.4.14-2.42,4,0,4.28,2.78.38,2.36-4.26,0-4.28Z" transform="translate(-441.58 -484.66)"/></svg>