<svg width="912" height="545" viewBox="0 0 912 545" fill="none" xmlns="http://www.w3.org/2000/svg">
<path d="M564.578 154.269C564.361 107.56 560.28 70.3631 538.729 30.9088C513.919 49.8525 478.541 52.9153 448.982 54.9528C466.679 83.3149 486.597 97.515 495.452 131.196C497.318 138.587 498.586 146.394 498.791 154.104C477.222 153.283 458.495 151.128 444.227 146.77C89.0016 40.463 -4.54301 219.898 26.9634 337.647C49.3762 421.367 160.796 526.358 398.074 507.049C635.353 487.741 878.858 363.617 886.652 267.689C897.44 136.012 707.028 150.956 564.578 154.269Z" fill="white"/>
<path d="M564.578 154.269C564.578 154.269 565.206 154.218 566.254 154.133C567.301 154.048 568.991 154.094 571.085 153.924C575.289 153.766 581.586 153.437 589.783 153.138C606.178 152.54 630.321 151.311 661.465 150.616C677.037 150.269 694.314 150.151 713.326 150.627C732.337 151.104 752.89 152.375 774.862 155.554C785.751 157.243 797.088 159.264 808.515 162.381C819.942 165.499 831.443 169.53 842.674 175.422C853.68 181.149 864.207 188.755 872.789 198.359C881.37 207.963 887.378 219.615 890.708 232.038C892.276 238.349 893.424 244.694 893.735 251.108C893.869 252.753 894.003 254.397 893.928 256.059C893.852 257.721 893.986 259.366 893.91 261.028C893.759 264.351 893.803 267.475 893.247 271.016C891.625 284.761 885.965 298.099 878.121 310.511C870.262 322.741 860.444 334.21 849.504 344.85C844.042 350.262 838.131 355.342 832.22 360.422C826.309 365.502 819.949 370.251 813.38 375.016C787.523 394.045 758.541 410.937 727.525 426.154C696.51 441.372 663.265 455.115 628.392 466.967C593.518 478.819 556.836 489.163 518.703 497.233C480.78 505.286 441.227 511.448 400.793 514.555C395.767 514.964 390.726 515.19 385.49 515.616L377.936 516.047C375.423 516.251 372.895 516.273 370.158 516.312C365.102 516.355 359.851 516.599 354.795 516.642C349.739 516.686 344.459 516.563 339.403 516.607C318.716 516.267 297.954 515.013 277.089 512.48C235.747 507.014 194.422 496.579 156.511 478.876C137.234 469.959 119.498 459.26 103.124 447.163C94.8402 441.215 87.3492 434.65 80.0527 427.885L74.7749 422.612L72.2482 420.058L69.7065 417.321L64.8327 411.831L60.1683 406.324C58.5388 404.433 57.1186 402.524 55.6985 400.616C54.2783 398.708 52.8582 396.8 51.4381 394.892C48.7923 390.876 45.9521 387.06 43.7252 383.01C41.0795 378.994 39.062 374.927 36.8203 370.695C34.7879 366.445 32.7705 362.378 30.9476 358.111C27.5112 349.561 24.4788 340.793 22.703 331.923C22.3151 329.747 21.5083 327.605 21.315 325.229L20.3459 318.502L19.8688 315.229L19.6011 311.94L19.0508 305.178C17.8028 287.251 19.3071 269.468 23.3839 252.211C27.4607 234.955 34.3196 218.208 43.8254 202.901C62.6127 172.122 92.212 147.269 126.204 132.361L129.242 130.827C130.259 130.376 131.486 129.908 132.503 129.457C134.747 128.539 136.797 127.82 139.041 126.902C141.285 125.983 143.335 125.265 145.579 124.346C147.838 123.61 149.888 122.892 152.162 122.339C156.485 121.067 161.004 119.596 165.327 118.324C169.875 117.218 174.228 116.312 178.567 115.223C182.905 114.134 187.498 113.576 191.851 112.67C194.14 112.3 196.219 111.947 198.508 111.576C200.797 111.206 202.876 110.853 205.18 110.666C209.563 110.125 213.961 109.767 218.553 109.209C220.857 109.022 222.936 108.669 225.24 108.481C227.334 108.311 229.653 108.306 231.747 108.136C266.81 106.386 300.54 108.976 332.13 113.764C363.914 118.353 393.393 125.704 421.197 133.191C428.107 135.204 434.808 137.235 441.493 139.082C443.213 139.494 444.948 140.089 446.459 140.518C447.969 140.947 449.48 141.376 451.2 141.788C454.43 142.629 457.437 143.304 460.652 143.962C467.069 145.095 473.68 146.029 480.052 146.614C483.238 146.907 486.634 147.183 489.61 147.492C490.463 147.607 491.525 147.704 492.572 147.619C492.512 146.888 492.438 145.974 492.378 145.243L492.26 143.781L492.096 141.771C491.992 140.492 491.678 139.229 491.574 137.95C490.739 132.867 489.515 128.184 487.871 123.534C486.438 118.868 484.39 114.435 482.582 110.351C480.341 106.119 478.114 102.069 475.692 98.2185C470.64 90.5352 465.004 83.4513 459.787 76.3333C457.186 72.8657 454.585 69.3981 452.193 65.9134C451.476 64.868 450.743 63.6398 450.026 62.5944C449.069 61.2005 448.337 59.9724 447.38 58.5785C446.633 57.1676 445.691 55.9565 444.959 54.7284L443.748 52.8033L443.24 51.7408C443.225 51.558 443.001 51.3924 442.986 51.2096L442.956 50.8441C446.95 50.703 450.929 50.3792 454.923 50.2382C456.808 50.0848 458.693 49.9315 460.592 49.9609C461.849 49.8586 462.896 49.7734 464.152 49.6712C468.969 49.2792 473.577 48.9042 478.169 48.3465C487.145 47.2482 495.881 45.8015 504.139 43.6577C512.397 41.514 519.967 38.6903 526.64 35.2039C528.466 34.3195 529.857 33.2864 531.683 32.402L532.895 31.7515C533.493 31.3349 534.092 30.9183 534.705 30.6844C535.902 29.8511 536.905 29.2176 538.102 28.3843L539.703 27.3342L540.107 27.1174L540.122 27.3001L540.136 27.4829L540.63 28.3626C541.138 29.4251 541.855 30.4704 542.363 31.5329C543.364 33.475 544.142 35.2515 545.143 37.1936C550.762 49.246 554.87 60.8694 557.422 71.5156C560.185 82.1447 561.825 91.9452 562.749 100.7C563.881 109.439 564.297 117.131 564.622 123.727C564.681 127.034 564.934 130.141 564.947 132.899C564.961 135.658 564.96 138.233 565.138 140.426C565.286 144.829 565.134 148.153 565.104 150.363C565.193 151.46 565.058 152.391 565.102 152.939C564.548 153.904 564.578 154.269 564.578 154.269C564.578 154.269 564.548 153.904 564.504 153.355C564.459 152.807 564.385 151.893 564.505 150.78C564.536 148.57 564.478 145.263 564.121 140.877C563.942 138.684 563.944 136.108 563.72 133.367C563.497 130.626 563.454 127.502 563.186 124.212C562.651 117.633 562.026 109.957 560.475 101.253C559.133 92.5323 557.088 82.9485 554.131 72.5192C550.965 62.1069 546.677 50.8661 540.654 39.0305C540.176 38.3336 539.907 37.6196 539.429 36.9227L538.697 35.6945C538.218 34.9975 537.89 33.5526 536.932 34.7343L535.735 35.5677C535.54 35.7675 535.331 35.7844 535.136 35.9842L533.939 36.8175C532.338 37.8676 530.528 38.9348 528.702 39.8192C521.64 43.7053 513.681 46.9284 505.243 49.4547C496.805 51.9809 487.68 53.8274 478.51 55.1255C473.932 55.8659 469.13 56.4406 464.314 56.8326C461.591 57.0541 458.883 57.4585 455.951 57.6971L455.742 57.7142C455.742 57.7142 455.742 57.7141 455.757 57.8969L455.996 58.2454L456.46 58.7595L457.177 59.8049C457.88 60.6675 458.597 61.7129 459.315 62.7583C461.692 66.0602 464.278 69.3451 467.088 72.7957C469.899 76.2463 472.709 79.6969 475.535 83.3302C478.36 86.9636 481.395 90.5799 484.041 94.5958C486.896 98.5946 489.347 102.81 491.813 107.209C492.844 109.516 494.294 111.79 495.116 114.115C495.639 115.36 496.147 116.422 496.67 117.667C497.193 118.913 497.506 120.175 498.029 121.42C499.911 126.418 501.39 131.632 502.464 137.064C502.778 138.326 502.897 139.788 503.225 141.233L503.598 143.227L504.016 145.768C504.597 150.32 504.759 154.906 505.146 159.657C499.866 159.535 494.361 159.247 488.647 158.976C485.043 158.718 481.871 158.608 478.476 158.332C471.685 157.781 464.88 157.047 457.835 155.965C454.409 155.324 450.775 154.7 447.335 153.876C445.615 153.464 443.895 153.052 441.95 152.474C440.23 152.062 438.72 151.633 436.985 151.039C430.299 149.191 423.614 147.344 416.719 145.513C389.379 138.54 360.153 131.72 329.236 127.429C298.305 122.956 265.816 120.081 231.965 121.18C229.856 121.167 227.762 121.338 225.653 121.325C223.558 121.496 221.464 121.666 219.37 121.837C215.181 122.177 210.784 122.535 206.595 122.876C204.501 123.047 202.421 123.4 200.118 123.587C198.038 123.94 195.944 124.111 193.655 124.481C189.497 125.187 185.099 125.545 180.76 126.634C176.616 127.523 172.263 128.429 167.91 129.335C163.556 130.242 159.457 131.679 155.328 132.751C153.264 133.287 150.99 133.84 148.94 134.558C146.89 135.277 144.841 135.996 142.791 136.715C140.742 137.433 138.692 138.152 136.642 138.871C135.625 139.321 134.593 139.589 133.575 140.04L130.523 141.392C97.8628 154.536 68.7133 177.144 49.7922 206.279C30.871 235.413 21.9094 270.36 24.5256 305.1L25.061 311.679L25.3287 314.969L25.8058 318.241L26.7601 324.786C27.1479 326.962 27.7453 329.121 28.1331 331.297C29.8941 339.984 32.8968 348.386 36.3034 356.572C37.902 360.673 40.1289 364.723 42.1463 368.79C44.3583 372.657 46.5852 376.707 49.0066 380.557C51.4281 384.407 54.0589 388.24 56.8992 392.056C58.3193 393.964 59.7246 395.69 61.1447 397.598C62.5649 399.506 63.9702 401.231 65.5848 402.939L70.2344 408.264L75.0784 413.389L77.6052 415.943L80.132 418.496L85.38 423.404C92.6467 429.804 100.108 436.003 108.362 441.586C116.422 447.369 124.841 452.387 133.679 457.371C138.091 459.771 142.503 462.171 147.109 464.372L154.123 467.665C156.321 468.774 158.729 469.865 161.122 470.774C198.465 486.684 238.609 495.559 278.785 499.648C298.978 501.684 319.067 502.441 339.096 502.467C344.152 502.423 349.208 502.38 354.054 502.353C359.095 502.127 363.927 501.918 368.968 501.692C371.481 501.487 374.009 501.465 376.313 501.278L383.643 500.681C388.669 500.272 393.5 500.063 398.527 499.654C437.869 496.085 476.36 489.825 513.64 481.64C550.71 473.473 586.555 463.197 620.606 451.596C654.642 439.812 687.302 426.668 717.749 412.233C748.181 397.615 776.61 381.688 801.942 363.989C808.332 359.606 814.287 355.074 820.228 350.36C826.169 345.645 831.691 340.965 836.973 335.936C847.553 326.06 857.042 315.722 864.586 304.806C871.921 293.907 877.506 282.231 879.097 270.696C879.502 267.903 879.668 264.762 879.849 261.804C879.94 260.325 880.03 258.846 879.911 257.384C880.001 255.905 879.882 254.443 879.763 252.981C879.497 247.115 878.812 241.284 877.722 235.67C875.334 224.459 870.268 214.017 863.018 205.225C855.767 196.433 846.541 189.273 836.597 183.643C826.652 178.014 815.764 173.749 804.951 170.398C794.138 167.046 783.189 164.626 772.495 162.737C751.106 158.958 730.719 157.122 712.067 155.88C693.22 154.839 675.898 154.409 660.491 154.191C629.482 153.955 605.28 154.452 588.855 154.685C580.643 154.802 574.331 154.947 570.112 154.923C568.003 154.91 566.328 155.047 565.266 154.949C564.997 154.235 564.578 154.269 564.578 154.269Z" fill="black"/>
</svg>
