<svg width="833" height="401" viewBox="0 0 833 401" fill="none" xmlns="http://www.w3.org/2000/svg">
<path d="M428.02 8.61596L502.746 0.427032C527.185 15.1151 544.809 33.4426 553.033 52.94C706.95 65.0284 822.093 112.992 822.093 170.444C822.093 215.808 750.187 255.453 643.973 275.99C649.848 283.399 652.903 291.068 652.903 298.997C652.903 352.94 509.561 396.614 332.615 396.614C155.67 396.614 12.3284 352.94 12.3284 298.997C12.3284 264.552 70.8401 234.266 159.43 216.848C142.276 202.55 132.877 186.952 132.877 170.444C132.877 103.893 287.263 49.9504 477.602 49.9504C479.482 49.9504 481.362 49.9504 483.242 49.9504C483.712 45.661 486.767 39.1619 466.558 23.6939C457.159 16.8048 442.589 12.2555 428.02 8.61596Z" fill="white"/>
<path d="M428.02 8.61598C428.02 8.61598 428.49 8.74594 429.43 9.00591C430.37 9.26587 431.545 9.65581 433.425 10.1757C436.95 11.2156 442.354 12.7754 449.169 15.2451C452.459 16.5449 456.219 18.1047 459.743 20.0544C463.503 22.0042 466.558 24.6038 470.083 27.4635C473.373 30.3231 476.662 33.5726 479.247 37.3421C480.422 39.1619 481.597 41.1116 481.832 43.1913C482.067 44.2312 482.067 45.2711 482.067 46.3109V47.0908V47.6108C482.067 48.0007 481.832 48.3907 481.832 48.6506V48.7806H481.597H481.127H480.187C479.717 48.7806 479.012 48.7806 478.542 48.7806C477.837 48.7806 477.132 48.7806 476.663 48.7806C475.958 48.7806 475.018 48.7806 474.313 48.7806C471.023 48.7806 467.733 48.7806 464.443 48.7806C457.629 48.7806 450.344 48.9106 442.824 49.0406C427.785 49.4305 411.101 50.0804 393.242 51.3803C375.383 52.6801 356.349 54.6298 336.14 57.4894C315.931 60.349 295.018 64.1185 273.399 69.3178C267.994 70.4877 262.589 72.0475 257.185 73.4773C251.78 74.9071 246.375 76.4669 240.971 78.1567C235.566 79.8465 230.161 81.5362 224.757 83.4859C222.172 84.3958 219.352 85.3057 216.767 86.3456C214.182 87.3854 211.362 88.4253 208.777 89.4652C198.203 93.7546 187.864 98.434 177.994 103.763C168.36 109.093 158.96 115.072 150.971 121.701C142.746 128.33 135.932 135.609 130.762 143.668C125.827 151.597 122.537 160.176 122.067 169.015C121.362 177.853 123.712 186.822 128.177 195.531C130.527 199.95 133.347 204.11 136.871 208.269C137.811 209.309 138.751 210.349 139.691 211.389L140.866 212.689L141.571 213.469C141.336 213.599 140.866 213.599 140.631 213.729L138.751 214.119C136.401 214.638 133.817 215.158 131.467 215.808C128.882 216.458 126.062 217.108 123.477 217.758C112.903 220.358 102.093 223.347 91.754 226.727C70.8401 233.486 50.3962 241.935 33.2422 252.983C29.0125 255.713 25.0177 258.703 21.2579 261.822C17.4981 264.942 14.2083 268.191 11.1535 271.701C5.27881 278.59 1.284 286.259 0.344055 294.188C-0.830872 302.117 1.04901 310.176 5.27881 317.845C9.74353 325.514 16.5582 332.533 25.0177 339.032C33.4772 345.401 43.3467 351.12 54.1561 356.32C64.9655 361.389 76.4799 365.938 88.6992 369.968C113.138 378.027 139.456 384.266 166.95 388.945C194.443 393.625 222.877 396.744 251.78 398.824C280.683 400.644 310.057 401.424 339.665 400.774C378.673 400.124 416.976 397.264 453.869 392.455C490.762 387.645 526.245 380.626 558.673 371.008C574.887 366.198 590.161 360.609 604.025 354.11C617.89 347.611 630.344 340.332 639.978 331.883C649.613 323.564 655.957 313.945 657.837 304.067C658.072 301.597 658.542 299.127 658.307 296.658C658.072 294.188 657.837 291.718 657.132 289.379C656.427 286.909 655.487 284.569 654.313 282.229C653.608 281.06 653.138 279.89 652.433 278.72V278.59C652.433 278.59 652.433 278.59 652.433 278.46C652.433 278.46 652.433 278.46 652.668 278.46C652.668 278.46 652.668 278.46 652.903 278.46L653.608 278.33L655.018 278.07L657.837 277.55C661.362 276.77 665.122 276.12 668.647 275.34C675.696 273.781 682.981 272.221 689.796 270.401C703.66 266.891 717.054 262.992 729.978 258.573C755.592 249.734 778.621 239.075 796.715 226.207C805.644 219.838 813.399 212.819 819.508 205.54C825.383 198.131 829.613 190.462 831.493 182.663C835.722 166.935 830.788 151.207 819.978 137.689C809.169 124.041 793.19 112.732 775.566 103.243C757.942 93.7546 738.438 86.2156 718.934 79.9764C699.43 73.7373 679.691 68.7979 660.187 65.0284C640.918 61.129 621.884 58.1394 603.555 55.9297C601.206 55.6697 599.091 55.4097 596.741 55.1497C594.391 54.8898 592.276 54.6298 589.926 54.3698C587.811 54.1099 585.461 53.8499 583.347 53.7199C581.232 53.46 578.882 53.33 576.767 53.07C572.302 52.6801 568.072 52.2901 563.843 52.0302L560.788 51.7702L559.378 51.6402H558.673C558.203 51.6402 557.733 51.6402 557.263 51.5103L556.793 50.4704L556.323 49.4305L555.383 47.8707C554.678 46.8309 554.208 45.661 553.503 44.6211C552.328 42.5414 550.683 40.4617 549.273 38.382C546.219 34.3525 543.164 30.583 539.639 26.9435C532.824 19.7945 525.07 13.5553 517.315 8.226C515.435 6.92618 513.555 5.62635 511.441 4.32652C510.501 3.67661 509.561 3.02671 508.621 2.50678C507.681 1.85686 506.506 1.20696 505.566 0.687026C504.626 -0.482818 502.511 0.167092 500.631 0.297074C499.221 0.427057 498.046 0.557032 496.636 0.816997C494.052 1.07696 491.467 1.46691 489.117 1.72687C469.613 4.06656 454.574 5.88633 444.234 7.18616C439.065 7.83607 435.305 8.22603 432.72 8.61598C431.31 8.74596 430.37 8.87593 429.9 9.00591C428.49 8.61596 428.02 8.61598 428.02 8.61598C428.02 8.61598 428.255 8.61597 428.96 8.48598C429.665 8.48598 430.605 8.35599 432.015 8.226C434.6 7.96604 438.595 7.5761 443.529 7.05617C453.869 6.01631 468.908 4.58651 488.647 2.63677C490.997 2.3768 493.582 2.11683 496.166 1.85686C497.576 1.72688 498.751 1.59689 500.161 1.46691C501.101 1.46691 502.041 1.07696 502.511 1.72687L503.686 2.50678L505.096 3.41665C506.036 4.06656 506.976 4.58651 507.916 5.23642C509.796 6.53625 511.441 7.83607 513.32 9.1359C520.37 14.5952 527.42 20.8343 533.529 27.9834C536.584 31.4929 539.404 35.2624 541.989 39.2919C543.164 41.2416 544.339 43.3213 545.514 45.4011C546.219 46.4409 546.454 47.4808 547.159 48.5206C547.864 49.8205 548.333 51.1203 549.038 52.5501C549.508 53.33 549.743 54.1099 550.213 54.8898C551.623 55.1497 553.268 55.2797 554.678 55.4097C557.028 55.6697 559.378 55.9297 561.728 56.0596C565.957 56.4496 569.952 56.9695 574.417 57.3595C576.532 57.6194 578.647 57.8794 580.762 58.1393C582.877 58.3993 584.991 58.6593 587.106 59.0492C589.221 59.3092 591.336 59.5692 593.686 59.9591C595.801 60.2191 598.151 60.609 600.266 60.869C617.89 63.4686 636.219 66.7182 654.783 70.8777C673.347 75.0371 692.145 80.2364 710.474 86.4756C719.639 89.5952 728.803 92.9747 737.498 96.8742C746.192 100.644 754.887 104.803 762.877 109.353C778.856 118.451 792.955 128.98 802.119 141.198C811.284 153.287 815.044 167.065 811.519 180.713C809.874 187.602 806.114 194.361 801.179 200.86C796.01 207.359 789.43 213.729 781.205 219.708C765.226 231.666 744.313 242.065 720.579 251.034C708.595 255.453 696.14 259.482 682.981 263.252C676.401 265.072 669.587 266.891 662.772 268.451C659.247 269.231 655.957 270.011 652.433 270.791L646.558 272.091C643.033 272.741 639.743 273.521 636.454 274.301C637.394 275.34 638.333 276.51 639.038 277.55L640.213 279.11L640.918 279.89L641.388 280.54C642.093 281.58 642.798 282.619 643.503 283.659C644.678 285.739 645.853 287.819 646.558 290.028C647.263 292.238 647.968 294.448 648.203 296.658C648.438 298.867 648.203 301.077 648.203 303.287C647.028 312.255 641.858 321.094 632.929 329.153C624.234 337.212 612.485 344.361 599.091 350.6C592.511 353.72 585.226 356.579 577.942 359.439C574.182 360.739 570.422 362.039 566.662 363.339C562.668 364.508 558.908 365.808 554.913 366.978C523.19 376.337 487.942 382.836 451.519 386.995C433.19 389.075 414.626 390.635 396.062 391.545C377.263 392.455 358.229 392.845 339.43 392.715C310.527 392.585 282.093 391.155 254.365 388.685C226.636 386.086 199.378 382.576 173.529 377.637C147.681 372.827 123.007 366.588 100.683 359.049C78.5947 351.38 58.6208 342.151 44.5215 331.233C37.472 325.774 32.0673 319.924 28.7775 313.815C25.4877 307.706 24.0778 301.467 25.0177 295.358C26.8976 283.009 37.7069 271.571 52.5111 262.212C67.3153 252.723 85.6443 245.054 104.678 238.815C114.313 235.696 123.947 232.836 134.052 230.236C136.636 229.586 138.986 228.937 141.571 228.417L145.331 227.507L147.211 227.117L148.151 226.857L149.796 226.467C154.26 225.427 158.96 224.517 163.425 223.607C168.125 222.567 173.059 221.658 177.759 220.618C175.644 218.928 173.764 217.108 171.649 215.418L168.595 212.819L166.95 211.519C166.48 211.129 166.01 210.609 165.54 210.219L163.19 207.879L162.015 206.71L161.31 206.19L161.075 205.8C160.37 204.89 159.43 203.98 158.49 203.2C155.435 199.69 152.616 196.051 150.501 192.281C146.271 184.872 143.921 177.203 144.156 169.664C144.156 154.586 153.086 140.158 167.185 127.94C174.234 121.831 182.224 116.242 190.918 111.042C199.613 105.843 209.012 101.294 218.647 97.1341C220.997 96.0943 223.582 95.0544 225.931 94.0145C228.281 92.9747 230.866 92.0648 233.451 91.155C238.386 89.2052 243.556 87.5154 248.49 85.6957C251.075 84.7858 253.66 84.0059 256.01 83.226C258.595 82.4461 260.945 81.5362 263.529 80.8863C268.699 79.4565 273.634 77.8967 278.804 76.5969C299.247 71.1376 319.456 66.9782 338.725 63.7286C358.229 60.479 376.793 58.0094 394.182 56.3196C411.571 54.4998 428.02 53.46 442.824 52.6801C446.584 52.5501 450.109 52.4201 453.869 52.2901C457.394 52.1601 460.918 52.0302 464.208 51.9002C467.498 51.7702 470.788 51.7702 474.078 51.6402C475.723 51.6402 476.897 51.5103 479.247 51.5103C480.187 51.5103 481.127 51.5103 482.302 51.5103H483.712H484.417H484.652L484.887 51.3803C484.887 50.6004 485.122 49.6905 485.122 48.9106V47.7407V46.8309C485.122 45.661 484.887 44.4912 484.652 43.3213C483.947 41.1116 482.772 39.0319 481.362 37.0822C478.542 33.3127 474.783 30.0631 471.258 27.2035C467.733 24.3439 464.208 21.7442 460.448 19.9244C456.689 17.9747 452.929 16.4149 449.404 15.2451C442.589 12.7754 436.95 11.3456 433.425 10.4357C431.545 9.91579 430.135 9.6558 429.43 9.39584C428.49 8.74593 428.02 8.61598 428.02 8.61598Z" fill="black"/>
</svg>
