<svg width="799" height="335" viewBox="0 0 799 335" fill="none" xmlns="http://www.w3.org/2000/svg">
<path d="M664.892 246.613L666.958 243.045C728.467 203.946 758.982 155.727 742.953 108.628C712.478 18.5827 553.219 23.5881 326.06 5.32975C121.251 -11.1326 -19.0475 114.332 11.4283 204.378C41.9041 294.423 230.161 346 432.158 319.557C485.339 312.599 534.202 300.906 576.69 285.903C647.813 301.314 688.194 301.173 768.957 300.747C735.901 294.052 680.322 269.688 664.892 246.613Z" fill="white"/>
<path d="M663.979 246.609L665.818 242.755L665.819 242.612L666.047 242.47C679.312 233.367 691.438 223.688 701.742 213.287C712.273 203.03 720.981 192.051 727.638 180.637C740.951 157.95 744.919 133.085 736.333 109.748C732.269 98.0091 725.237 86.8312 715.006 77.0717C714.323 76.4973 713.87 75.7808 713.187 75.2064L711.14 73.4833L706.818 70.0362L702.039 66.7304L699.763 65.1495L697.259 63.7107L692.022 60.6893L686.557 57.953L683.824 56.5134C682.913 56.0811 682.002 55.6489 680.863 55.2159L674.94 52.764C658.994 46.4155 641.216 41.7764 622.978 37.9934C613.859 36.102 604.511 34.6386 595.162 33.1753C585.814 31.7119 576.237 30.3907 566.659 29.2125C557.082 28.0343 547.504 26.9991 537.697 26.1061C532.908 25.517 528.119 25.0708 523.102 24.6239C518.312 24.1778 513.295 23.7309 508.506 23.2847C498.699 22.3917 489.12 21.6424 479.313 20.7494L449.892 18.3562C410.663 15.2129 371.435 12.0696 332.436 8.4982L325.138 7.9001L317.839 7.44499L310.54 6.98987L306.891 6.69082C305.751 6.68673 304.382 6.53884 303.242 6.53475L288.642 6.05347C283.852 6.03629 278.832 6.16128 274.041 6.1441C254.647 6.78949 235.249 8.57872 216.53 11.8002C197.811 15.0217 179.543 19.8176 162.413 25.4755C145.281 31.2764 129.058 38.3674 114.201 46.1782C99.3438 54.1319 85.852 62.9485 73.726 72.6279C61.8281 82.308 51.2965 92.708 42.5884 103.543C25.1723 125.214 14.3638 149.197 13.3651 173.214C13.0939 185.224 15.1041 197.242 20.3102 208.699L21.215 210.847C21.6687 211.563 21.8943 212.279 22.348 212.996L24.6145 217.15C25.2938 218.583 26.2017 219.873 27.1091 221.306L29.8319 225.462C31.8754 228.186 34.1475 230.768 36.191 233.492C38.6912 236.075 40.9633 238.656 43.4641 241.096C64.1526 261.188 93.5246 277.307 126.79 289.294C160.055 301.281 196.984 309.42 234.838 314.131C272.692 318.843 311.469 320.697 350.257 319.407C388.816 318.258 427.385 314.536 464.823 308.093C502.26 301.793 538.566 292.772 572.373 281.026L575.571 279.893L578.762 280.62C593.807 284.105 609.081 287.163 624.586 289.506C640.09 291.992 655.826 293.621 671.563 294.822C687.529 295.88 703.496 296.509 719.693 296.71C735.891 296.911 752.088 297.112 768.285 297.17L766.896 302.885C755.498 300.413 745.016 296.944 734.991 293.19C724.967 289.294 715.629 284.971 706.52 280.363C697.639 275.756 689.217 270.578 681.48 264.974C679.66 263.538 677.84 262.101 676.02 260.665C674.2 259.228 672.609 257.65 671.017 256.214C669.426 254.636 668.063 253.058 666.7 251.481C666.248 250.192 665.114 248.329 663.979 246.609ZM665.804 246.616C667.168 248.194 668.303 249.627 669.667 251.062C671.259 252.498 672.622 254.075 674.442 255.512C676.262 256.948 677.853 258.384 679.674 259.677C681.494 260.97 683.314 262.407 685.363 263.701C693.101 268.876 701.753 273.626 710.864 277.805C719.974 282.127 729.542 285.879 739.568 289.346C749.594 292.671 759.849 295.71 770.336 297.75L797.923 302.853L769.175 303.465C736.777 304.063 704.151 304.947 671.076 303.399C654.653 302.625 638.232 301.136 622.043 298.934C605.853 296.731 589.893 293.814 574.391 290.613L581.009 290.208C546.287 302.809 509.065 312.541 470.484 319.695C431.905 326.563 392.193 330.853 352.036 332.282C347.016 332.407 341.996 332.675 336.977 332.657L321.92 332.746C311.883 332.567 301.845 332.388 291.809 331.923C271.736 330.993 251.666 329.348 232.055 326.704C192.606 321.415 154.083 312.555 118.996 299.561C101.453 293.064 85.0544 285.427 70.0288 276.651C55.0031 267.875 41.8067 257.962 31.1233 247.057C9.30027 225.245 -0.871476 198.9 1.72874 173.602C2.91504 160.88 6.60979 148.454 12.5849 136.322C18.5594 124.333 26.358 112.636 35.751 101.66C45.3722 90.685 56.5882 80.2875 69.1705 70.6098C81.7528 60.932 95.7013 51.9741 111.015 44.022C126.329 36.0699 142.78 28.9797 160.368 23.0375C177.728 17.0944 196.225 12.1564 215.4 8.79352C234.576 5.2877 254.204 3.07034 274.284 2.14145L289.343 1.62351L304.4 1.67749C305.54 1.68158 306.909 1.68649 308.05 1.69058L311.699 1.84665L319.227 2.1596L326.754 2.47255L334.053 2.92767C353.668 4.28484 373.284 5.35604 392.9 6.57023L451.975 9.92765L481.399 11.7489C491.206 12.356 501.013 13.1061 510.821 13.8562C515.839 14.1601 520.628 14.6062 525.645 15.0532C530.663 15.5001 535.453 15.8033 540.47 16.3932C550.276 17.2862 560.082 18.3223 569.888 19.5013C589.5 21.8593 609.109 24.6463 628.258 28.7185C647.407 32.7906 666.325 37.8629 683.638 44.9311L690.016 47.6706C691.155 48.1037 692.066 48.5359 693.205 49.1119L696.165 50.6953C698.214 51.7035 700.264 52.7118 702.085 53.8622L707.776 57.3141L710.508 59.0397L713.01 60.9075L718.244 64.6438L722.793 68.5206L725.067 70.5306C725.749 71.2479 726.431 71.9653 727.113 72.5396C738.252 83.5893 745.509 95.9118 749.342 108.508C753.175 121.104 753.813 133.975 751.486 146.692C749.16 159.266 743.64 171.686 736.07 183.24C720.473 206.491 696.218 226.85 667.639 243.906L667.868 243.621L665.804 246.616Z" fill="black"/>
</svg>
