<svg id="Слой_1" data-name="Слой 1" xmlns="http://www.w3.org/2000/svg" viewBox="0 0 215.1 182.53"><defs><style>.cls-1{fill:#88b5c0;}.cls-2{fill:#4e5778;}.cls-3{fill:#1d1d1b;}.cls-4{fill:#f9e69a;}.cls-5{fill:#ee7950;}.cls-6{fill:#fff;}</style></defs><path class="cls-1" d="M923.55,619.07S917.87,483.22,926,479.9c5.79-2.36,78.83,2.58,84.82,1.44,4.81-.92,4,138.87,2.64,140.59S923.55,619.07,923.55,619.07Z" transform="translate(-852.59 -449.16)"/><path class="cls-2" d="M920.76,623.31V486.91a6,6,0,0,1,6-6l76.92-.15a7.34,7.34,0,0,1,7.35,7.16l3.36,138.61h-12l2.77-137.64-75.71-1.09-3.14,143.88Z" transform="translate(-852.59 -449.16)"/><path class="cls-3" d="M1067.69,619c0,.27-3,.41-8.46.48-2.73.06-6,.09-9.92.13l-13.13.12c-19.45.17-46.33.34-76,.43s-56.58.09-76,0c-9.73-.07-17.61-.16-23.05-.3s-8.46-.3-8.47-.57,3-.59,8.44-.92,13.31-.65,23.05-.93c19.46-.56,46.35-1,76.06-1.08s56.6.17,76.07.7c4.87.13,9.27.29,13.14.44s7.19.35,9.91.52C1064.71,618.39,1067.7,618.76,1067.69,619Z" transform="translate(-852.59 -449.16)"/><path class="cls-3" d="M1009.82,476.82s0,.48.12,1.41.19,2.29.34,4,.31,3.91.51,6.41.36,5.34.5,8.5.2,6.62.16,10.34-.17,7.66-.25,11.81-.13,8.5-.12,13,0,9.2,0,14,0,9.5.1,14,.38,8.9.64,13.06.46,8.11.51,11.81,0,7.16,0,10.31c0,1.59-.06,3.08-.16,4.54s-.31,2.75-.47,4a50.74,50.74,0,0,0-.55,6.36,18.21,18.21,0,0,0,.35,4c.08.45.18.79.24,1l.09.35a13.2,13.2,0,0,1-.42-1.35,19.66,19.66,0,0,1-.64-4,50.65,50.65,0,0,1,.07-6.45c.06-1.26.15-2.59.18-4s0-2.89-.11-4.45c-.11-3.15-.26-6.59-.35-10.29s-.08-7.66,0-11.82.09-8.54,0-13.07-.37-9.21-.71-14-.7-9.49-.83-14-.19-8.92-.1-13.1.32-8.14.52-11.83.35-7.12.45-10.26.11-6,.13-8.49,0-4.65,0-6.41,0-3.13-.07-4.06Z" transform="translate(-852.59 -449.16)"/><path class="cls-3" d="M1004.94,618.31c-24,.56-51.56,1.05-75.55,1.12h-1.21v-1.23c-.27-18.79.39-46.11.63-65.2.29-21.32.12-44.58-.19-66,17.81.07,39.67.89,57.36.72,6.79-.24,13.59-.78,20.32-1.57,0,9,.05,25.41,0,34.38-.13,30.84-.79,66.78-1.37,97.74Zm-.19-.2c-.6-31-1.21-67-1.37-97.86,0-8.06,0-24.37,0-32.44l1.62,1.44c-18.2,2.15-38.45.78-56.77.12l-18.88-.79.79-.77c-.58,31.14-.28,66.53.33,97.8q.22,16.3.13,32.6L929.39,617l18.65.14c17.29.16,39.35.59,56.71,1Z" transform="translate(-852.59 -449.16)"/><path class="cls-3" d="M922.45,615.85s0-.49,0-1.42,0-2.29.07-4,0-3.92,0-6.42-.06-5.35-.13-8.49-.23-6.57-.45-10.26-.45-7.64-.52-11.82,0-8.57.1-13.11.46-9.23.83-14,.59-9.48.71-14,.1-8.9,0-13.06-.07-8.13,0-11.82.24-7.15.35-10.29c.06-1.57.11-3.08.11-4.45s-.12-2.74-.18-4a50.66,50.66,0,0,1-.07-6.45,19.54,19.54,0,0,1,.64-4,13.2,13.2,0,0,1,.42-1.35l-.09.35c-.06.23-.16.56-.24,1a18,18,0,0,0-.35,4,50.74,50.74,0,0,0,.55,6.36c.16,1.24.34,2.57.47,4s.13,2.95.16,4.53c.06,3.16.08,6.61,0,10.31s-.25,7.66-.51,11.82-.52,8.52-.64,13-.14,9.22-.1,14,0,9.5,0,14,0,8.87.12,13,.21,8.09.25,11.81,0,7.18-.16,10.33-.32,6-.5,8.51l-.51,6.4c-.15,1.76-.26,3.12-.34,4.05S922.45,615.85,922.45,615.85Z" transform="translate(-852.59 -449.16)"/><path class="cls-3" d="M1010.83,482l-.88.06-2.52.19-9.27.78c-3.91.3-8.57.65-13.75.73-2.6,0-5.32,0-8.15,0-1.41,0-2.85-.06-4.32-.16l-4.42-.36c-3-.26-5.9-.44-8.72-.51s-5.55,0-8.15,0a59.84,59.84,0,0,1-7.4-.39c-2.3-.3-4.42-.67-6.35-1-3.86-.73-7-1.43-9.1-1.89l-2.48-.52-.86-.18.88.09,2.51.24,9.25.86,6.36.66,7.26.86c2.56.3,5.28.53,8.1.59s5.73,0,8.73-.1l8.7-.29,8.11-.22c5.18-.1,9.85,0,13.77.15l9.29.34,2.53.08Z" transform="translate(-852.59 -449.16)"/><path class="cls-3" d="M990.56,543.33c-14.78.65-31,.94-46,.33h-.41c.25-7.77.12-15.54-.09-23.31,11.22-.34,23.74-.48,35-.47,4.09,0,8.19.06,12.29.16l0,.77c0,6.47-.49,16-.72,22.53Zm-.13-.12c-.28-6.45-.6-16.05-.72-22.41l.79.79c-3.83.09-7.66.12-11.49.15-6.65,0-16.24-.1-23-.19-3.83,0-7.66-.15-11.49-.27l.48-.48c-.21,7.49-.32,15-.09,22.47l-.39-.4c15.27-.63,30.48-.28,45.89.34Z" transform="translate(-852.59 -449.16)"/><path class="cls-3" d="M958.82,538c-.67,0-1-2.83-.8-6.23a21.13,21.13,0,0,1,.72-4.58l1.45.48c-.5.36-.6,1-.88,1.06s-.34,0-.5-.37a1.94,1.94,0,0,1,.05-1.55l1-2.24.46,2.72a21.41,21.41,0,0,1,.12,4.63C960.2,535.28,959.48,538,958.82,538Z" transform="translate(-852.59 -449.16)"/><path class="cls-3" d="M965.47,525.6c0,.32-.54.69-1.52.86a13.25,13.25,0,0,1-3.64-.07c-1.33-.17-2.42-.32-3.24-.37s-1.42-.09-1.57-.4.27-.86,1.25-1.28a7.76,7.76,0,0,1,3.85-.35,21.71,21.71,0,0,1,3.44.76C964.88,525,965.44,525.26,965.47,525.6Z" transform="translate(-852.59 -449.16)"/><path class="cls-3" d="M962,536.78c.14.65-1.79,1.6-4.35,1.78s-4.61-.48-4.57-1.14,2-1.09,4.39-1.27S961.9,536.12,962,536.78Z" transform="translate(-852.59 -449.16)"/><path class="cls-3" d="M977.46,535.87c.14.28-.75,1.13-2.57,1.87a12.15,12.15,0,0,1-1.51.5,7.88,7.88,0,0,1-.87.2,6.16,6.16,0,0,1-1,.15,2.44,2.44,0,0,1-1.66-.52,2.28,2.28,0,0,1-.75-1.67c0-.53,0-.8,0-1.16s0-.69.07-1c.35-4.54,1.27-8.32,1.93-9.46l1.56-2.67-.8,2.74c-.13.46-.27.64-.4.63s-.26-.19-.36-.65l.75.07c.29,1.28.07,5.08-.27,9.53q-.08,1-.15,1.89s0,.07.05.1a7,7,0,0,0,.74,0l.79-.06,1.42-.18C976.18,535.83,977.31,535.56,977.46,535.87Z" transform="translate(-852.59 -449.16)"/><path class="cls-3" d="M979.51,527.93c.11.66-2.92,1.62-6.77,2.15s-7,.42-7.1-.24,3-1.63,6.77-2.15S979.39,527.28,979.51,527.93Z" transform="translate(-852.59 -449.16)"/><path class="cls-4" d="M1005.1,526.84c.17-5,4-9.28,8.37-11.72s9.39-3.46,14.16-5,9.61-3.8,12.51-7.9a44.69,44.69,0,0,0,2.5-4.36" transform="translate(-852.59 -449.16)"/><path d="M1042.64,497.85s-.33.62-.85,1.78a18.92,18.92,0,0,1-2.78,4.69,20.83,20.83,0,0,1-6.51,5,52.06,52.06,0,0,1-9.31,3.42,59.93,59.93,0,0,0-9,3.12,19.22,19.22,0,0,0-6.15,4.49,12.24,12.24,0,0,0-2.61,4.54,8.51,8.51,0,0,0-.29,1.43l0,.51,0-.51a14.46,14.46,0,0,1,.15-1.47,12.27,12.27,0,0,1,.6-2.27,13.58,13.58,0,0,1,1.4-2.81,18.42,18.42,0,0,1,6-5.67,38.7,38.7,0,0,1,9.24-3.76c3.35-1,6.47-1.77,9.17-2.85a22.29,22.29,0,0,0,6.65-3.86,16.86,16.86,0,0,0,3.32-4.1C1042.3,498.46,1042.64,497.85,1042.64,497.85Z" transform="translate(-852.59 -449.16)"/><path class="cls-5" d="M877.36,461.07c3.29-.49,6.93-.75,9.68,1.12,2.12,1.45,3.29,3.9,4.61,6.11a35.37,35.37,0,0,0,11.64,11.82" transform="translate(-852.59 -449.16)"/><path class="cls-3" d="M903.29,480.12l-1.16-.7c-.75-.45-1.82-1.13-3.09-2.06a31.58,31.58,0,0,1-4.14-3.67,29.2,29.2,0,0,1-4.08-5.46c-1.2-2.07-2.22-4-3.69-5.28a8.81,8.81,0,0,0-4.77-1.94,20.21,20.21,0,0,0-3.66-.07c-.87.06-1.34.13-1.34.13l1.33-.23a23.91,23.91,0,0,1,3.71-.36,10.84,10.84,0,0,1,2.61.3,8.05,8.05,0,0,1,2.8,1.3,10.81,10.81,0,0,1,2.34,2.47c.67.95,1.26,2,1.85,3a43.13,43.13,0,0,0,7.39,9.41A26,26,0,0,0,903.29,480.12Z" transform="translate(-852.59 -449.16)"/><path class="cls-4" d="M1044.55,506.31a22.72,22.72,0,0,1-7.39,9.94,88.73,88.73,0,0,1-8.16,5,46.45,46.45,0,0,0-21.31,31.11" transform="translate(-852.59 -449.16)"/><path d="M1007.69,552.33s.16-.83.4-2.36c.16-.76.32-1.69.58-2.76s.57-2.3,1-3.62c.19-.67.46-1.35.73-2.07s.56-1.45.9-2.2.7-1.53,1.12-2.31.85-1.57,1.33-2.37a42.65,42.65,0,0,1,3.36-4.79,41.18,41.18,0,0,1,4.35-4.55,39.42,39.42,0,0,1,5-3.85,54,54,0,0,1,5.07-2.85c1.62-.82,3.13-1.6,4.47-2.44a22.42,22.42,0,0,0,3.48-2.67,21.41,21.41,0,0,0,4-5,17.42,17.42,0,0,0,.81-1.58l.24-.57-.22.58c-.14.38-.36.94-.67,1.65a23.67,23.67,0,0,1-3.47,5.62,21.68,21.68,0,0,1-3.31,3.23,43.1,43.1,0,0,1-4.36,3c-1.57.95-3.15,1.95-4.72,3.06a52.88,52.88,0,0,0-4.65,3.74,56.09,56.09,0,0,0-4.22,4.23c-1.26,1.47-2.45,2.91-3.49,4.37-.51.73-1,1.43-1.47,2.15s-.91,1.41-1.3,2.11-.79,1.36-1.12,2-.69,1.29-1,1.92c-.59,1.23-1,2.38-1.44,3.4s-.65,1.93-.89,2.66C1007.87,551.5,1007.69,552.33,1007.69,552.33Z" transform="translate(-852.59 -449.16)"/><path class="cls-4" d="M1039.33,502.38a36.54,36.54,0,0,0-14-.25l13.81-6.53c5.07-2.4,10.33-4.94,13.83-9.33-1.14,11.21-1,22.5-.75,33.75a148.86,148.86,0,0,0-7.24-15" transform="translate(-852.59 -449.16)"/><path d="M1045,505l2.1,3.7c.68,1.2,1.49,2.68,2.4,4.42.45.87.92,1.8,1.43,2.8l.17.34a.39.39,0,0,0,.06.13,2.26,2.26,0,0,1,.11.22,2.75,2.75,0,0,1,.2.42s0,.08,0,.07l0-.24,0-.49c0-.21,0-.42,0-.63,0-.59-.06-1.2-.09-1.81-.12-2.45-.22-5.06-.28-7.81s-.07-5.64,0-8.63c0-1.49.09-3,.17-4.56,0-.77.09-1.54.14-2.33l.07-.93h0s0,0,0,0l-.2.18c-.3.27-.61.52-.93.76a30.71,30.71,0,0,1-3.86,2.56,83.83,83.83,0,0,1-7.71,3.71c-4.93,2.17-9.39,4.08-13.18,5.69l-.29-.91a37.78,37.78,0,0,1,10.38,0c1.22.17,2.14.36,2.77.48l1,.21-1-.18c-.63-.1-1.57-.24-2.78-.33a35.56,35.56,0,0,0-10.2.74l-3.5.76,3.21-1.67c3.64-1.91,8-4.15,12.76-6.58,2.4-1.22,4.93-2.45,7.36-3.94a32.87,32.87,0,0,0,3.53-2.47c.28-.23.56-.46.83-.7l.22-.2a5.6,5.6,0,0,0,.43-.41l.84-.9c.56-.57,1.16-1.3,1.76-2l1.73-2.06c-.14,1.46-.29,3-.43,4.62l-.21,2.37-.12,1.39c0,.77-.1,1.54-.16,2.3-.08,1.52-.16,3-.25,4.49-.14,3-.23,5.82-.31,8.55s-.12,5.35-.17,7.79c0,1.57-.06,3.08-.09,4.54,0,.85,0,1.7,0,2.52,0,.4,0,.79,0,1.18a5.06,5.06,0,0,1-.12.61c-.5-1.31-1-2.59-1.46-3.83-.21-.56-.42-1.14-.6-1.58l-.45-1.09c-.42-1-.82-2-1.2-2.89-.77-1.8-1.46-3.33-2-4.57C1045.7,506.34,1045,505,1045,505Z" transform="translate(-852.59 -449.16)"/><path class="cls-5" d="M876.76,464.8c2.86,0,5.42,1.93,7,4.3s2.42,5.16,3.39,7.85,2.17,5.41,4.29,7.34c2.52,2.28,6,3.13,9,4.83" transform="translate(-852.59 -449.16)"/><path class="cls-3" d="M900.42,489.12s-.44-.25-1.27-.61-2.07-.81-3.6-1.4a19.73,19.73,0,0,1-2.46-1.11,11.13,11.13,0,0,1-2.57-1.86,16.73,16.73,0,0,1-3.7-6.17c-.88-2.36-1.51-4.61-2.35-6.53a13.06,13.06,0,0,0-3.07-4.57,7.83,7.83,0,0,0-3.25-1.87,5.57,5.57,0,0,0-1-.18l-.36,0h.36a6.07,6.07,0,0,1,1,.1,8.4,8.4,0,0,1,3.57,1.55,12.55,12.55,0,0,1,3.72,4.5,55,55,0,0,1,2.64,6.52,18.81,18.81,0,0,0,3.22,5.89,15.26,15.26,0,0,0,4.45,3.26c1.44.75,2.62,1.34,3.42,1.79Z" transform="translate(-852.59 -449.16)"/><path class="cls-5" d="M883,472.13a45.45,45.45,0,0,1-2.29,8.11c-3-7.46-6.13-15.09-11.59-21q10.77-3,21.5-6.06l-6.35,8.29" transform="translate(-852.59 -449.16)"/><path class="cls-3" d="M884.28,461.48l1.52-2.07,4-5.52a.47.47,0,0,0,.09-.12l0,0s-.06,0-.08,0l-.15.05-.33.11-2.4.75-5.31,1.64-5.87,1.76-3.12.91-1.59.45-.41.12c-.1,0-.34.1-.28.07h0l.33.38c.36.44.72.87,1.06,1.32.67.89,1.3,1.79,1.87,2.7a51.76,51.76,0,0,1,3,5.44c1.7,3.55,2.91,6.87,3.94,9.64l.09.25,0,.07a1,1,0,0,1,.06.18s0-.08.07-.12,0-.05.08-.22c.25-.61.47-1.2.66-1.75.39-1.11.68-2.08.9-2.87.43-1.6.58-2.5.58-2.5s-.14.9-.49,2.52c-.17.81-.4,1.8-.72,2.93-.16.57-.34,1.17-.55,1.81a5.24,5.24,0,0,1-.57,1.34c-.11-.25-.23-.5-.34-.76l-.29-.68c-1.2-2.69-2.62-5.92-4.43-9.35-.91-1.71-1.92-3.47-3.08-5.22-.58-.87-1.21-1.73-1.87-2.59-.33-.43-.68-.84-1-1.26l-.78-.88-.56-.63L868,459c0-.05-.12-.11-.11-.15l.2-.06,4.16-1.17,3.13-.85,5.92-1.57,5.38-1.38,2.44-.61,1.76-.45.23-.06.11,0s.09,0,0,0l-.27.37c-.17.24-.35.49-.56.75l-4.58,5.61Z" transform="translate(-852.59 -449.16)"/><path class="cls-6" d="M982.48,576.2c12,2.67,25.12,5.2,36-.42,5.71-2.95,10.13-7.84,14.42-12.63L1043,552" transform="translate(-852.59 -449.16)"/><path class="cls-3" d="M1043,552s-.66.75-1.78,2.16l-4.7,6c-2,2.53-4.28,5.59-7.16,8.83a46.59,46.59,0,0,1-4.91,4.78,28.14,28.14,0,0,1-13.55,6.2,34.16,34.16,0,0,1-6.89.46,47.75,47.75,0,0,1-6.14-.56c-1.9-.3-3.65-.65-5.23-1s-3-.73-4.23-1.06l-3.17-.87c-1.74-.48-2.71-.7-2.71-.7s1,.2,2.75.48c.89.14,2,.3,3.25.46s2.71.33,4.31.46,3.34.26,5.21.32,3.85.06,5.92-.08a41.23,41.23,0,0,0,6.36-.86,29.75,29.75,0,0,0,6.43-2.13,30.15,30.15,0,0,0,5.81-3.49,61,61,0,0,0,5-4.2c3-2.87,5.74-5.63,8.07-7.86L1041,554C1042.28,552.7,1043,552,1043,552Z" transform="translate(-852.59 -449.16)"/><path class="cls-3" d="M918.15,554.8l-1-1.68a32.65,32.65,0,0,1-2.29-4.86,26.42,26.42,0,0,1-1-3.61,9.2,9.2,0,0,0-1.12-3.48,2,2,0,0,0-1-.76,1.71,1.71,0,0,0-1.13.34,13.08,13.08,0,0,1-2.36,1.3,4.39,4.39,0,0,1-1.9.25,4.7,4.7,0,0,1-1.84-.6,6.16,6.16,0,0,1-2.27-2.43,7.11,7.11,0,0,1-.6-1.43,8.35,8.35,0,0,1-.29-1.44c-.19-1.81,0-3.34-.14-4.63a5.86,5.86,0,0,0-1.2-3.27,7,7,0,0,0-2.53-2,6.63,6.63,0,0,0-2.74-.63,9.73,9.73,0,0,0-2.21.27,16.34,16.34,0,0,0-1.86.54l1.79-.76a11.76,11.76,0,0,1,2.22-.69,7.3,7.3,0,0,1,3.2.1,8.11,8.11,0,0,1,3.54,1.88,7.31,7.31,0,0,1,1.47,1.84,8.19,8.19,0,0,1,.86,2.35c.35,1.62.34,3.22.6,4.59a5.47,5.47,0,0,0,.24.93,5.28,5.28,0,0,0,.4.83,3.41,3.41,0,0,0,1.13,1.21,1.28,1.28,0,0,0,1.11.13,17.82,17.82,0,0,0,2-1,5.22,5.22,0,0,1,1.55-.52,3.75,3.75,0,0,1,1.85.16,4.53,4.53,0,0,1,2.37,2.09,10,10,0,0,1,.85,4.6,31,31,0,0,0,.34,3.55,26.89,26.89,0,0,0,1.29,5.07A14.54,14.54,0,0,0,918.15,554.8Z" transform="translate(-852.59 -449.16)"/><path class="cls-3" d="M1034.86,479.26s-.22.42-.55,1.22-.82,2-1.47,3.4c-.33.71-.71,1.48-1.15,2.3a21.07,21.07,0,0,1-1.58,2.6,6.16,6.16,0,0,1-1.41,1.37,4,4,0,0,1-2.35.72,8.52,8.52,0,0,1-2-.37,2.22,2.22,0,0,0-1-.09,3.77,3.77,0,0,0-2,1.1,8.08,8.08,0,0,0-1.48,2.2c-.41.84-.75,1.73-1.11,2.57l-1,2.34c-.63,1.42-1.14,2.57-1.46,3.37a11.85,11.85,0,0,0-.47,1.26s.12-.46.25-1.32.29-2.1.48-3.65c.11-.76.22-1.61.35-2.51a23.92,23.92,0,0,1,.56-2.95,8.86,8.86,0,0,1,1.63-3.33,6.25,6.25,0,0,1,3.82-2.25,5.35,5.35,0,0,1,2.37.21,10.34,10.34,0,0,0,1.29.39,1.22,1.22,0,0,0,.74-.12,4.31,4.31,0,0,0,1-.67c.63-.58,1.3-1.35,1.91-2l1.68-1.87c1-1.15,1.81-2.13,2.32-2.82A11.71,11.71,0,0,0,1034.86,479.26Z" transform="translate(-852.59 -449.16)"/><path class="cls-4" d="M922.86,467.79l1.11-.33a2.39,2.39,0,0,1-1.86-1.25,7,7,0,0,1-.75-2.19q-1.17-5.19-2.32-10.37a7.54,7.54,0,0,0-.65-2,3.67,3.67,0,0,0-4.14-1.66.87.87,0,0,0-.37.19,1,1,0,0,0-.15.9,30.13,30.13,0,0,0,8.77,16.76c.11.11.28.22.41.14S922.93,467.83,922.86,467.79Z" transform="translate(-852.59 -449.16)"/><path d="M922.86,467.79a.15.15,0,0,1,.09.08c.08.07-.05.24-.22.19s-.56-.42-1-.73a28.37,28.37,0,0,1-3.32-3.12,20.79,20.79,0,0,1-5.09-9.64c-.17-.69-.32-1.41-.43-2.14,0-.37-.07-.74-.11-1.11a3.08,3.08,0,0,1,0-.8,1.5,1.5,0,0,1,.48-.93,1.53,1.53,0,0,1,.53-.3l.33-.07.24,0a4.12,4.12,0,0,1,.86,0,4.55,4.55,0,0,1,3.46,2.28,8,8,0,0,1,.65,1.8c.16.58.33,1.14.52,1.69.36,1.09.76,2.14,1.06,3.15a23,23,0,0,1,.66,2.9c.16.92.28,1.78.38,2.58a12.73,12.73,0,0,0,.34,2,2.63,2.63,0,0,0,.76,1.27,1.87,1.87,0,0,0,.9.47l.52.1-.49.1-1.14.23s.26-.09,1.08-.43l0,.2a2.11,2.11,0,0,1-1.17-.26,3.45,3.45,0,0,1-1.31-1.3,10.58,10.58,0,0,1-.86-2.11c-.24-.76-.5-1.59-.75-2.49a21.53,21.53,0,0,1-.64-2.91c-.16-1-.25-2.16-.39-3.3a9.25,9.25,0,0,0-.79-3.35,2.9,2.9,0,0,0-2.82-1.29,3.05,3.05,0,0,0-.54.14l-.08,0h0l.08.29.27,1c.2.67.36,1.32.57,1.95.4,1.26.87,2.44,1.31,3.57a55.63,55.63,0,0,0,2.73,5.85c.45.81.89,1.54,1.3,2.15s.79,1.14,1.11,1.56a4.18,4.18,0,0,0,.78.89c.11,0,.21,0,.16-.1S922.86,467.8,922.86,467.79Z" transform="translate(-852.59 -449.16)"/><path class="cls-4" d="M923.84,473c-.06-.28-.11-.58-.15-.87a1,1,0,0,1-.12-.16Z" transform="translate(-852.59 -449.16)"/><path d="M923.84,473s0,0-.19,0l-.27,0-.35,0c-.22,0-.5-.08-.53-.2a.37.37,0,0,1,0-.22,1.11,1.11,0,0,1,.33-.31l2.1-1.51-.83.93v0a1.09,1.09,0,0,0-.13.17.41.41,0,0,0,0,.12l.09.19c0,.06.06.11.23.14a2.46,2.46,0,0,1,.35.11c.11.08-.12.21-.24.31l-.43.27-.13.09s0,0-.15,0-.27-.06-.49-.11-.41-.11-.34-.23a1.36,1.36,0,0,1,.3-.23c.14-.09.2-.16.16-.22l.08.19s-.08,0-.14,0l-.25,0h0l1.27-.58a.88.88,0,0,1,.44.11c.07.05.14.1.16.16s-.19.3-.36.45l-.29.21-.21.16C923.87,473,923.86,473,923.84,473Z" transform="translate(-852.59 -449.16)"/><path class="cls-4" d="M928.1,467.06a1.59,1.59,0,0,0-1.08-.5,3.29,3.29,0,0,0-3.14,2.31,6.73,6.73,0,0,0-.19,3.28,1.91,1.91,0,0,0,1.28.68,2.76,2.76,0,0,0,2.36-1.22,6.41,6.41,0,0,0,1-2.56A2.26,2.26,0,0,0,928.1,467.06Z" transform="translate(-852.59 -449.16)"/><path d="M928.1,467.06a1.29,1.29,0,0,1,.39.6,11.42,11.42,0,0,1,.41,2.08,4.11,4.11,0,0,1-.13,1.52,3.54,3.54,0,0,1-1,1.67,3.64,3.64,0,0,1-2.13,1,2.52,2.52,0,0,1-1.33-.24,2.49,2.49,0,0,1-1-.87,1.39,1.39,0,0,1-.16-.3l-.07-.21a.28.28,0,0,1,0-.24c0-.19,0-.23,0-.32l0-.24c0-.32.05-.63.05-.93,0-.61-.05-1.23,0-1.86a2.86,2.86,0,0,1,.72-1.69,2.64,2.64,0,0,1,1.44-.78,3.51,3.51,0,0,1,2.17.38,1.62,1.62,0,0,1,.44.31c.09.09.12.14.11.15a1.39,1.39,0,0,0-.6-.31,1.6,1.6,0,0,0-1.54.68l-.64.81c-.22.28-.52.54-.82.9a2.31,2.31,0,0,0-.55,1.43,2.67,2.67,0,0,0,.11.83,1.29,1.29,0,0,0,.06.21c0,.07.07.17,0,.14h0l.12.05a1.09,1.09,0,0,0,.58.05,3.52,3.52,0,0,0,.43-.13,2.27,2.27,0,0,0,.79-.55,12,12,0,0,0,1.43-1.78,2.72,2.72,0,0,0,.79-1.69A1.38,1.38,0,0,0,928.1,467.06Z" transform="translate(-852.59 -449.16)"/><path class="cls-4" d="M923.57,472l-.27-1A1.48,1.48,0,0,0,923.57,472Z" transform="translate(-852.59 -449.16)"/><path d="M923.57,472l-.2,0-.27,0a1.63,1.63,0,0,1-.38,0c-.24,0-.56-.15-.59-.39a.74.74,0,0,1,.07-.37c0-.13.22-.25.42-.34h0l3.83-2-2.54,1.92c-.15.11-.26.21-.23.27s.22.08.37.11.28.05.27.11a.66.66,0,0,1-.16.2l-.25.19-.21.16-.16.12s-.05,0-.2,0a2.6,2.6,0,0,1-.26,0l-.32,0a.49.49,0,0,1-.23-.1c0-.05.05-.13.17-.23s.3-.21.27-.27-.15-.1-.33-.13l1.29-.09h0a2.49,2.49,0,0,0,.42.08l.11,0a4.57,4.57,0,0,0-.4.24,2.75,2.75,0,0,0-.26.22l-.17.19A1.35,1.35,0,0,0,923.57,472Z" transform="translate(-852.59 -449.16)"/><path class="cls-2" d="M1033.44,537.24a2.36,2.36,0,0,0-.86-1.27,2.43,2.43,0,0,0-2.53.25,12.91,12.91,0,0,0-3.27,3.28l-8.09,10.34.41-.43-.13.62a2.9,2.9,0,0,0-2.4.64,4.75,4.75,0,0,0-1.27,4.05l-.29-4a8.25,8.25,0,0,0-.65,3.77,2.8,2.8,0,0,0,2.5,2.51,3.8,3.8,0,0,0,2.75-2c.84-1.19,1.58-2.8.81-4a2,2,0,0,0-1-.8,21.44,21.44,0,0,1,7.43-4,18.26,18.26,0,0,0,3.76-1.33A6.54,6.54,0,0,0,1033.44,537.24Z" transform="translate(-852.59 -449.16)"/><path class="cls-3" d="M1033.44,537.24l.12.39a6.74,6.74,0,0,1,.2,1.14,7.17,7.17,0,0,1-1.07,4.23,6.48,6.48,0,0,1-2.28,2.22,21.06,21.06,0,0,1-3.44,1.36,22.22,22.22,0,0,0-3.66,1.66,21.18,21.18,0,0,0-1.82,1.15c-.29.2-.64.45-.86.63,0,0-.1.07-.07.08l0,0h0l0,0,.1.1a2.94,2.94,0,0,1,.55,1,3.46,3.46,0,0,1-.09,2.12,7.1,7.1,0,0,1-.89,1.76,8.26,8.26,0,0,1-1.29,1.52,3.31,3.31,0,0,1-2.06.9,2.76,2.76,0,0,1-2.11-1,3.75,3.75,0,0,1-.92-2,5.76,5.76,0,0,1,.18-2.12,16.68,16.68,0,0,1,.63-1.85l.53-1.4,0,1.48c.05,1.39.11,2.73.19,4l-.41,0a5.73,5.73,0,0,1,.74-3.55,3.18,3.18,0,0,1,1.37-1.22,3.35,3.35,0,0,1,.87-.26,3.22,3.22,0,0,1,.62,0s0,0,0,0l0-.09,0-.2v0h0l-.17-.05h0v.05l0,.09.07.38c-.05,0-.09-.07-.13-.09l-.11-.15c.47-.75.61-.87.86-1.23l.69-.94,1.35-1.8c.9-1.16,1.78-2.25,2.62-3.26s1.65-1.94,2.4-2.81a24.63,24.63,0,0,1,2.18-2.31,6.61,6.61,0,0,1,2.17-1.39,2.07,2.07,0,0,1,1.86.1,2,2,0,0,1,.72.92c.1.25.14.38.14.38s-.06-.13-.16-.37a2.13,2.13,0,0,0-.73-.9,2,2,0,0,0-1.79,0,6,6,0,0,0-2,1.49,20.55,20.55,0,0,0-1.9,2.48l-2.15,3c-.78,1.06-1.63,2.17-2.54,3.32l-1.41,1.75-.75.89c-.24.25-.58.75-.6.63s0,0,0,0,0,0,0,0l-.06.2-.07.31-.11.37a3.09,3.09,0,0,0-1.06-.12,2.74,2.74,0,0,0-.74.17,2.56,2.56,0,0,0-1.2,1,4.88,4.88,0,0,0-.7,3.27l-.41,0c-.11-1.31-.23-2.64-.38-4l.59.08a15.5,15.5,0,0,0-.47,1.81,5.06,5.06,0,0,0,0,1.82,2.91,2.91,0,0,0,.78,1.43,1.69,1.69,0,0,0,1.3.53,2.17,2.17,0,0,0,1.29-.64,7.54,7.54,0,0,0,1-1.31A6.47,6.47,0,0,0,1020,553a2.36,2.36,0,0,0,.06-1.33,1.7,1.7,0,0,0-.27-.5l0,0a1,1,0,0,0-.15-.11,1.5,1.5,0,0,0-.42-.21l-1-.4c.2-.2.53-.45.81-.68l.84-.67c.38-.29.66-.48,1-.71a19.9,19.9,0,0,1,2-1.15,20.48,20.48,0,0,1,3.94-1.51,23.19,23.19,0,0,0,3.45-1,5.78,5.78,0,0,0,2.33-1.84,6.4,6.4,0,0,0,1.25-4.07,6.66,6.66,0,0,0-.17-1.14C1033.47,537.38,1033.44,537.24,1033.44,537.24Z" transform="translate(-852.59 -449.16)"/><path class="cls-4" d="M996.06,454.38l-1.64,4a7.23,7.23,0,0,1-5.14,4.28l-4.2.89,3.27,2.79a7.2,7.2,0,0,1,2.48,6.21l-.45,4.27,3.66-2.24a7.19,7.19,0,0,1,6.68-.44l3.92,1.74-1-4.18a7.2,7.2,0,0,1,1.64-6.48l2.87-3.19-4.28-.34a7.19,7.19,0,0,1-5.66-3.56Z" transform="translate(-852.59 -449.16)"/><path d="M996.07,454.47c-1.34,4.07-2.29,7.84-7.05,8.86l-3.77,1s.36-1.42.36-1.42c1.72,1.68,4.5,3.61,5.25,6,1,2.32,0,5.56-.2,7.92a4.78,4.78,0,0,1-.42-.26c2-1.26,4.53-3.46,7-3.6,2.47-.37,5.44,1.32,7.68,2.14,0,0-1.13.94-1.12.94l-.93-3.77a8.23,8.23,0,0,1,2-8l2.58-2.9s.6,1.51.61,1.5l-3.86-.5c-4.92-.44-6.28-4-8.15-7.93Zm0-.18c2.05,3.11,3.9,6.91,8.27,6.7l5.83.15-1.33,1.47s-2.63,2.87-2.62,2.88a6.42,6.42,0,0,0-1.66,6.39c.26,1.12,1,4.38,1.28,5.46l-1.53-.75c-2-.86-4.73-2.72-6.94-2.54-2.21-.06-4.94,2-6.83,3l-.45.25,0-.52c.07-2.16.75-5.47-.26-7.45-.79-2.06-3.69-3.77-5.3-5.16L983.13,463l5.62-.93a6.84,6.84,0,0,0,5.58-4.25c.59-1.25,1.21-2.42,1.73-3.55Z" transform="translate(-852.59 -449.16)"/><path class="cls-4" d="M965.09,488.48l-2.35.5a4,4,0,0,1-3.59-1l-1.74-1.65-.26,2.39a4,4,0,0,1-2.08,3.1L953,492.93l2.19,1a4,4,0,0,1,2.3,2.94l.44,2.36,1.61-1.78a4,4,0,0,1,3.51-1.28l2.38.31-1.2-2.08a4,4,0,0,1-.14-3.73Z" transform="translate(-852.59 -449.16)"/><path d="M965.09,488.48c-2.17.63-4.51,1.39-6.3-.48l-1.61-1.46.56-.21-.18,2.17a4.49,4.49,0,0,1-2.47,3.81l-1.9,1.05,0-.88c1.24.6,3.05,1.12,3.9,2.3s1,3,1.31,4.34l-.85-.24,1.48-1.59a4.48,4.48,0,0,1,4.29-1.5l2.14.34-.33.5-1-1.91c-1.39-2.19-.09-4.27,1-6.24Zm0,0c-.83,1.83-2,4.09-.54,6l1.13,1.86.35.57-.69-.07-2.16-.24a3.71,3.71,0,0,0-3.49,1.36c-.44.48-1.67,1.89-2.1,2.37-.11-.62-.46-2.47-.59-3.12a3.57,3.57,0,0,0-.74-1.76,3.67,3.67,0,0,0-1.53-1.14c-.59-.28-2.31-1-2.89-1.31l2.8-1.47a3.74,3.74,0,0,0,2.15-3.07l.29-2.16.09-.68,2,2c1.48,1.81,4,1.25,5.92.88Z" transform="translate(-852.59 -449.16)"/><path class="cls-2" d="M955.66,458.66l5.22,2a6.43,6.43,0,0,1,3.55,3.15,6,6,0,0,1,.21,4.72,6.51,6.51,0,0,1-8.35,4.19c-3.06-1.12-6.06-2.13-9.37-1.89h-.07a.37.37,0,0,1-.05-.7c.62-.26,1.65-.08,1.21-1.31-.65-.78-4.84-6.31,1.16-9.87a2.54,2.54,0,0,1,.78-.38A8.37,8.37,0,0,1,955.66,458.66Zm-.75,9c1.24.49,4.38,2.49,4.49.21a.57.57,0,0,0-.35-.48q-3.7-1.51-7.46-2.9a.88.88,0,0,0-.56.06c-.22.07-.08.34-.21.54C950,466.28,953.71,467.18,954.91,467.64Zm4.87-3.2a29.33,29.33,0,0,0-6.62-2.37c-.41-.09-.7.72-.34.94a23.31,23.31,0,0,0,6.54,2.72C959.77,465.79,960.15,464.64,959.78,464.44Z" transform="translate(-852.59 -449.16)"/><path class="cls-3" d="M955.68,458.61c2.87,1.34,6.5,1.63,8.48,4.39s1,6.88-1.6,8.94a6.91,6.91,0,0,1-7.14.84,23.22,23.22,0,0,0-6.9-1.53,14,14,0,0,0-1.45,0,.94.94,0,0,1-.57-.1.88.88,0,0,1-.28-1.24c.33-.48.92-.41,1.33-.59.1-.06,0,0,.05,0a1.08,1.08,0,0,0-.08-.35l.09.15a10.35,10.35,0,0,1-1.55-2.62c-2.55-6.12,4.35-10.19,9.62-7.89Zm0,.09c-6.69-2.28-12.19,3.89-7.23,9.76a1.64,1.64,0,0,1,.21,1,1.06,1.06,0,0,1-.66.85,3.05,3.05,0,0,1-.67.19c-.18,0-.38.13-.23,0s0-.09-.07-.18.17,0,.33,0c.41,0,.83,0,1.24,0a24.52,24.52,0,0,1,7.12,1.75,6.18,6.18,0,0,0,6.51-.6c2.42-1.84,3.5-5.61,1.71-8.29s-5.45-3.19-8.26-4.47Z" transform="translate(-852.59 -449.16)"/><path class="cls-3" d="M954.92,467.6c1,.39,4.19,2.33,4.24.22,0-.21-.39-.26-.56-.34l-1.21-.42c-1.71-.62-4.26-1.49-6-2.1a1,1,0,0,0-.21.05c-.09,0,.1,0,.14-.13s0-.07,0,.11a1.24,1.24,0,0,1-.15.4s0,0,0,.13a10.24,10.24,0,0,0,3.67,2.08Zm0,.09c-1.4-.58-5.42-.65-4.51-2.85a.92.92,0,0,1,.12-.52.86.86,0,0,1,.41-.3,1.31,1.31,0,0,1,.73-.08,5.85,5.85,0,0,1,.67.27l3,1.27,3.83,1.63a.82.82,0,0,1,.49,1.06c-.68,2.14-3.42-.1-4.69-.48Z" transform="translate(-852.59 -449.16)"/><path class="cls-3" d="M959.76,464.48a27.18,27.18,0,0,0-6.67-2.07h0s-.1.19-.07.27-.09-.08.15.07c2.06.95,4.08,2,6.18,2.85.36,0,.67-.87.39-1.12Zm0-.08c.34.27.16.74,0,1.07-.09.15-.2.38-.51.38a12.53,12.53,0,0,1-6.85-2.61.92.92,0,0,1,.75-1.51,30.08,30.08,0,0,1,6.58,2.67Z" transform="translate(-852.59 -449.16)"/><path class="cls-2" d="M914.56,489.79c-1.14-.44-.75-1.2-.54-2,.14-.59.2-1.54-.13-1.82a2.33,2.33,0,0,0-2-.37c-2.33.87-2.51.83-3.15-1.62-1.38.16-2.81.05-2.6,2.27.07.83-.84,1.42-2,1a2.33,2.33,0,0,0-2,.09c-.74.64-.4,1.4.3,2.12,1.15,1.2.92,2-.64,2.59-.76.26-1.29.48-1.15,1.48s.67,1.2,1.58,1.24c1.6.07,2,.69,1.35,2.16-.36.85-.59,1.48.39,2.12s1.39.17,2-.41c1.06-1,1.81-.79,2.38.52.25.54.58,1.05.88,1.57,1.33-.21,2.22-.67,2.09-2.35a1,1,0,0,1,1.72-1c1.56,1,2.33.24,3-1-.35-.42-.71-.84-1.05-1.27-.79-1-.64-1.9.51-2.23,2-.58,1.72-1.65,1-3Zm-4.29,4.76a2.7,2.7,0,0,1-3.66-.9,2.53,2.53,0,0,1,.85-3.63,2.69,2.69,0,0,1,3.7.81A3,3,0,0,1,910.27,494.55Z" transform="translate(-852.59 -449.16)"/><path class="cls-3" d="M914.55,489.84c-1.32-.32-.81-1.54-.68-2.43,0-.64.16-1.26-.53-1.46a2.11,2.11,0,0,0-1.77.12c-1,.46-2.34.76-2.8-.65a10.65,10.65,0,0,1-.43-1.36l.45.32c-1.29.12-2.39.14-2.22,1.72a1.43,1.43,0,0,1-.48,1.25,2.12,2.12,0,0,1-2.27.08c-.69-.24-2-.14-1.8.87s1.56,1.54,1.3,2.68-1.92,1-2.4,1.73a1.44,1.44,0,0,0,.38,1.59c.48.28,1.2.08,1.93.29a1.25,1.25,0,0,1,.91.81,2.12,2.12,0,0,1-.08,1.16c-.22.69-.54,1.31-.31,1.64s.93.78,1.22.61.8-.8,1.56-1.17c1.81-.8,2.42,1.69,3.18,2.76l-.53-.25c.79-.14,1.42-.38,1.56-.92a3.17,3.17,0,0,0,.07-1.07,1.57,1.57,0,0,1,.93-1.49c1.06-.45,1.71.53,2.56.63.51.09,1-.51,1.39-1.21l0,.5a20.91,20.91,0,0,1-1.32-1.74,1.84,1.84,0,0,1-.22-1.3,1.48,1.48,0,0,1,.93-1c.66-.24,1.29-.3,1.62-.89a2.48,2.48,0,0,0-.39-1.82l.14.08-2-.12Zm0-.1,1.94-.1h.08c1.27,1.81.79,2.95-1.18,3.56-1.35.73.51,2.08,1,2.82l.2.22a5.85,5.85,0,0,1-.9,1.42,2.16,2.16,0,0,1-2.88.14c-.52-.33-.93-.25-1,.37.22,2-1,2.88-2.9,3.06-.36-.7-.8-1.45-1.13-2.12-.7-1.66-1.6.23-2.62.52a2,2,0,0,1-2.16-1.07c-.4-.81.14-1.53.38-2.2.77-1.81-1.44-1.13-2.37-1.74a1.76,1.76,0,0,1-.45-2.07c.42-.67,1.22-.63,1.8-1,1.63-1-.49-2-.86-3.12-.42-1.56,1.56-2,2.7-1.57.57.23,1.56.13,1.44-.68-.26-2.15,1.28-2.61,3-2.64l.36,0c.24.74.46,2.36,1.05,2.21a14.6,14.6,0,0,0,1.93-.51,2.34,2.34,0,0,1,2.19.78,2.46,2.46,0,0,1,.06,1.51c-.19.84-.83,1.83.27,2.27Z" transform="translate(-852.59 -449.16)"/><path class="cls-3" d="M910.3,494.6c-3.61,2.2-6-2.4-3-4.81a2.94,2.94,0,0,1,4.28.75c.89,1.51-.05,3.24-1.31,4.06Zm0-.09c1.06-.71,1-2.48.46-3.4a2.48,2.48,0,0,0-3.09-.86,1.93,1.93,0,0,0-.66,3.18c.73.9,2.11,1.82,3.29,1.08Z" transform="translate(-852.59 -449.16)"/><path class="cls-2" d="M904.88,500.53c-2.24,1.15-3.26.39-3-2.12.13-1.42-.33-2-1.69-2.29s-1.84.34-2.26,1.43c-.89,2.34-2.19,2.49-3.81.5a2.69,2.69,0,0,1-.2-.27c-.83-1.29-1.68-.52-2.56-.06s-1,1.15-.56,2.07c1.19,2.69.52,3.63-2.39,3.4a1.54,1.54,0,0,0-1.94,1.25c-.51,1.58.06,2.16,1.47,2.66,2.16.77,2.38,2.27.63,3.7-.91.74-1.53,1.37-.68,2.62s1.49,1.2,2.65.6c2-1,3.12-.27,2.94,2-.11,1.42.14,2.42,1.72,2.65a1.68,1.68,0,0,0,2.15-1.27c1-2.47,2.1-2.65,3.77-.69.73.86,1.36,1.28,2.54.56a1.83,1.83,0,0,0,.85-2.63c-1-2.55-.45-3.34,2.2-3.09a1.75,1.75,0,0,0,2.24-1.55c.35-1.39-.21-1.9-1.39-2.33-2.31-.83-2.43-2-.63-3.75a7.2,7.2,0,0,0,1-2C907.09,501,906.64,499.63,904.88,500.53ZM899.94,511a4.37,4.37,0,0,1-6-1.53,4.29,4.29,0,0,1,7.39-4.36A4.31,4.31,0,0,1,899.94,511Z" transform="translate(-852.59 -449.16)"/><path class="cls-3" d="M904.9,500.58c-1.36.76-3,.89-3.14-1.08-.09-1.38.39-2.77-1.42-3.12-.84-.25-1.62-.16-1.93.77-1.11,3.63-3.09,3.3-5.19.51-.46-.4-1.2.23-1.69.45s-.66.45-.56.9a11,11,0,0,1,.74,2.65c.14,1.27-1.1,1.91-2.17,1.86-1.66,0-2.54-.51-3,1.34-.7,2.28,2.7,1.8,3.24,3.58.52,1.55-1.39,2.46-2,3.43s.89,2.68,2,2.19c1.26-.61,3.19-1.59,3.92.34.35.9.05,1.88.23,2.74s.91,1,1.68,1.1,1.1-.43,1.43-1.34c.67-1.87,2.19-2.81,3.79-1.27.61.48,1.06,1.4,1.77,1.43,1-.15,2-1,1.49-2.15-.63-1.47-1.1-3.72,1.2-3.91.84-.14,1.82.23,2.56,0s1.24-2.28.23-2.72-3.3-1.31-2.41-3a4.24,4.24,0,0,1,.85-1.14,5.18,5.18,0,0,0,1.34-2.28l0,.11a9.75,9.75,0,0,0-1.25-1.37,1.6,1.6,0,0,0-1.71,0Zm0-.09a1.75,1.75,0,0,1,1.84-.08,11.06,11.06,0,0,1,1.3,1.36l0,.05,0,.06a6.28,6.28,0,0,1-1.28,2.42c-1.88,2.16-.2,2.61,1.66,3.33,1.61.66,1.19,3.38-.17,4.14-2.23.84-4.77-1.11-3.19,2.79.8,1.75-.65,3.39-2.45,3.56-1.62,0-2-2-3.36-2.27-1.06-.11-1.32,2-2.1,2.74a1.94,1.94,0,0,1-1.62.54c-1,0-2.28-.69-2.39-1.82-.21-1.51.6-4.11-1.93-3.26-.8.32-1.94,1-2.79.28s-1.44-1.66-.94-2.63,1.4-1.17,1.86-2a1.42,1.42,0,0,0-.64-2.08c-.7-.46-1.78-.48-2.39-1.4a2.85,2.85,0,0,1,.45-2.81c1-1.08,2.78,0,3.9-.84.93-.91-.31-2.31-.5-3.42-.3-1.28,1-1.84,1.91-2.32a1.56,1.56,0,0,1,1.74.13c.7.71,1.68,2.5,2.74,2,1.58-1.08,1.08-4,3.93-3,2,.57,1.48,1.93,1.48,3.51.06,1.9,1.64,1.68,2.92,1Z" transform="translate(-852.59 -449.16)"/><path class="cls-3" d="M900,511c-5.56,3.25-9.47-3.87-4.69-7.57A4.46,4.46,0,1,1,900,511Zm-.05-.09c4-2.88.17-9.33-4.35-7-4.82,2.56.13,9.4,4.35,7Z" transform="translate(-852.59 -449.16)"/><path class="cls-5" d="M1048.62,461.33a2.58,2.58,0,0,1-.55-1.58,7.54,7.54,0,0,0-1.92-4.85c-1.91-2.18-4.69-2.88-7.14-3.33a6.11,6.11,0,0,0-1.81-.06l-1.4.19a11.33,11.33,0,0,0-5.38,3.51,3.08,3.08,0,0,1-.77.63c-1.54.78-2.66,1.74-2.78,3.38-.11,1.49-.35,3.21.3,4.47,1,1.89,2.66,3.45,4,5.16a5.27,5.27,0,0,1,.93,1.22,1.8,1.8,0,0,0,2.3,1.26,1.71,1.71,0,0,0,1-2.31,1.85,1.85,0,0,0-2.51-.85c-.39.14-1,.3-1.25.12a27.24,27.24,0,0,1-2.16-2.14.09.09,0,0,1,0-.15.9.9,0,0,0,.61-.4,12.71,12.71,0,0,0,1.18-2.09c.47-1.29.7-2.68,1.13-4s.55-2.32-.81-3.07a.09.09,0,0,1,0-.12c.71-1.54,2-2.51,4.7-3.6l1.57-.4a8,8,0,0,1,6.67,2.75c.64,1.2,1.3,2.39,1.89,3.61s.4,2-1,2.29a.1.1,0,0,0-.08.07c-.74,2.44-1.47,4.88-2.21,7.32-.08.28-.16.57-.25.85v.07a1.89,1.89,0,0,0,2.32,1C1048.66,469.64,1051,463.67,1048.62,461.33Z" transform="translate(-852.59 -449.16)"/><path class="cls-3" d="M1048.58,461.37a3.8,3.8,0,0,1-.65-2.19,8.76,8.76,0,0,0-.55-2.2c-1.83-4.13-7.36-5.66-11.5-4.89a11.4,11.4,0,0,0-4.64,2.88,6,6,0,0,1-1.37,1.23,4.43,4.43,0,0,0-2.53,2.51,19,19,0,0,0-.25,2.2c-.44,3.19,2.31,5.34,4.1,7.63a8.15,8.15,0,0,1,1.07,1.39,1.68,1.68,0,0,0,2,1.28,1.54,1.54,0,0,0,0-3c-.9-.24-1.68.61-2.59.29a14.62,14.62,0,0,1-1.54-1.4l-.6-.61c-.1-.12-.24-.18-.26-.38,0-.47.54-.33.7-.66a11.15,11.15,0,0,0,1.74-4.39c.14-1.24,1.29-2.94.25-3.92-.28-.27-.85-.39-.72-.92a3.23,3.23,0,0,1,.2-.42c1.26-2.29,4-3.4,6.39-4a8.46,8.46,0,0,1,7.16,2.88.27.27,0,0,1,.09.12l1.84,3.53c.83,1.46.34,2.85-1.36,3.1a.4.4,0,0,0,.29-.25l0,.08-.15.47c0-.12-2.55,8-2.42,7.42v.07l0-.11a1.52,1.52,0,0,0,1.06.93,2.93,2.93,0,0,0,1.56-.18c2.92-1.26,5-5.85,2.76-8.53Zm.07-.07c2.39,2.72.29,7.55-2.66,9a2.41,2.41,0,0,1-3.4-.94,1.24,1.24,0,0,0,0-.18c.67-2.59,1.43-5.14,2.14-7.71.1-.28.15-.79.44-.93a1.62,1.62,0,0,1,.43-.12c.86-.21.86-.73.41-1.62l-1.85-3.5.1.13a7.91,7.91,0,0,0-6.18-2.63c-2.08.47-4.7,1.42-5.85,3.42l-.14.26v0a.39.39,0,0,0,0-.32.3.3,0,0,0-.13-.13,2.42,2.42,0,0,1,1.15,3c-.75,2.21-1,4.63-2.48,6.49a1.37,1.37,0,0,1-.94.73.18.18,0,0,0,.14-.2.22.22,0,0,0,0-.1l0,0c.48.51,1,1.08,1.47,1.56l.41.38c.18.16.18.19.35.19.72,0,1.51-.5,2.28-.29a1.88,1.88,0,1,1-1.19,3.56c-.8-.32-1-1.17-1.45-1.79-1.67-2.11-3.89-3.84-5-6.37a9.82,9.82,0,0,1-.21-3.54,4,4,0,0,1,1.48-3.3c.57-.52,1.31-.78,1.89-1.25a11.94,11.94,0,0,1,5.81-3.84c4.36-.8,10.13,1.27,11.9,5.58.68,1.37.27,3.26,1.1,4.39Z" transform="translate(-852.59 -449.16)"/><path class="cls-5" d="M1061.84,536c-3.39-5.24-10.39-6.49-16-4.06-2.09.91-2.41,2.5-2.18,3.1.65,1.64,1.79.47,2.84.08a21.42,21.42,0,0,1,5.6-1.62c3.3-.24,5.38,2.07,7.47,4.27.47.49,1.78,1.07,2.41.53S1062.21,536.57,1061.84,536Z" transform="translate(-852.59 -449.16)"/><path class="cls-3" d="M1061.8,536c-2.08-3.19-5.93-4.52-9.56-4.83-2.6-.15-5.87,0-7.82,2a1.65,1.65,0,0,0-.23,2.26c.64.55,1.5-.49,2.24-.69,5.5-2.55,9.12-2.66,13,2.43,1.42,2,3.77,1.48,2.37-1.13Zm.08,0c1.65,2.86-1.12,3.53-2.92,1.63-4.33-4.35-6.74-4.25-12.26-2.13-1.19.48-2.71,1.5-3.29-.42-.29-1.9,1.71-3.09,3.23-3.59,5.66-2.41,12-.82,15.24,4.51Z" transform="translate(-852.59 -449.16)"/><path class="cls-5" d="M1048.29,537.34a1.73,1.73,0,0,0-.52.73,1.09,1.09,0,0,0,.69,1.5,1.77,1.77,0,0,0,1.06,0c2.09-.85,3.92-.75,5.43,1,.67.75,1.22.86,1.74.61a1.38,1.38,0,0,0,.41-2.12C1054.72,536.23,1051,535.43,1048.29,537.34Z" transform="translate(-852.59 -449.16)"/><path class="cls-3" d="M1048.32,537.38c-.79.62-.73,1.94.44,1.94a1.2,1.2,0,0,0,.57-.07,4.52,4.52,0,0,1,3.88-.22,5.08,5.08,0,0,1,1.31.9c.62.59,1.39,1.68,2.24.9.68-.71.06-1.53-.54-2-2.07-1.81-5.38-3-7.9-1.43Zm-.06-.08a6.12,6.12,0,0,1,6-1c1.67.71,5,3.13,2.83,5-1.17.81-2-.42-2.78-1.09a3.44,3.44,0,0,0-2.66-.66,9.56,9.56,0,0,0-1.37.29,2.26,2.26,0,0,1-1.65.13,1.44,1.44,0,0,1-.37-2.63Z" transform="translate(-852.59 -449.16)"/><path class="cls-5" d="M1051.23,541.63a1.77,1.77,0,1,0,2,1.76A1.87,1.87,0,0,0,1051.23,541.63Z" transform="translate(-852.59 -449.16)"/><path class="cls-3" d="M1051.23,541.68c-.93,0-1.4,1-1.54,1.71a1.25,1.25,0,0,0,1.54,1.49,1.68,1.68,0,0,0,1.42-1.49,1.62,1.62,0,0,0-1.42-1.71Zm0-.1c1.08-.1,2.5.45,2.49,1.81-.06,2.11-2.55,2.6-3.94,1.4-1.89-1.41-.68-3.39,1.45-3.21Z" transform="translate(-852.59 -449.16)"/><path class="cls-3" d="M1039.92,545s0,.22-.12.65a9.86,9.86,0,0,1-.58,1.85,14.9,14.9,0,0,1-1.51,2.68,35.4,35.4,0,0,1-2.53,3.2l-.74.9-.86.87-1.83,1.83a46.44,46.44,0,0,1-4.5,3.55l-1.26.88c-.43.29-.9.53-1.36.8a32.35,32.35,0,0,1-2.85,1.55c-1,.46-2,1-3.08,1.38s-2.16.79-3.27,1.17l-3.35.89c-1.12.24-2.23.41-3.32.61s-2.18.23-3.23.34a29.57,29.57,0,0,1-3.1.11,48.75,48.75,0,0,1-5.72-.34,45.78,45.78,0,0,1-4.87-.95l-2.09-.54c-.65-.19-1.25-.42-1.82-.61a28,28,0,0,1-2.86-1.06c-1.54-.66-2.4-1-2.4-1s.87.3,2.47.76a23.35,23.35,0,0,0,3,.66c.59.1,1.2.23,1.86.33l2.09.21c1.46.21,3.09.16,4.8.25,1.72-.08,3.55,0,5.46-.3,1-.1,1.94-.16,2.93-.36s2-.27,3-.51l3.09-.69,3.14-.88,3.09-1.06c1-.36,2-.8,2.94-1.18s1.86-.88,2.77-1.29c.45-.23.91-.42,1.34-.66l1.26-.71c1.71-.89,3.19-2,4.65-2.88l2-1.51.94-.71.85-.75c1.09-1,2.13-1.85,2.91-2.72a13.55,13.55,0,0,0,1.8-2.39,7.88,7.88,0,0,0,.76-1.74A5,5,0,0,0,1039.92,545Z" transform="translate(-852.59 -449.16)"/></svg>