<svg id="Слой_1" data-name="Слой 1" xmlns="http://www.w3.org/2000/svg" viewBox="0 0 473.93 382.09"><defs><style>.cls-1{fill-rule:evenodd}.cls-2{fill:#fff}</style></defs><g id="_2117512325232" data-name="2117512325232"><path class="cls-1" d="M852.48 229.56c-10 0-19.67-11.68-24.49-18-3-3.94-5.6-7.85-8.42-12.28-3.57-5.61-7.2-8.93-14-8.93s-9.69 5.18-13.23 7.63c-1.88-3.29-7.62-7.63-14-7.63-9 0-14.65 12.69-20.93 21-5 6.7-14.31 18.21-24.84 18.21-10.9 0-7.45-10.14-22.27-23.5-9.28-8.36-30.51-20.24-43.27-25.36-6.11-2.46-2.16-1.59-8.79-14.1-5.79-10.94-12.18-17.52-20.07-26.23-3.62-4-7.8-7.32-11.81-11.12-9.69-9.16-29.15-21.69-32.06-25.11-1.75-2.07-3.38-4.17-5.11-6.35a246.7 246.7 0 01-19-26.78c-13.81-23-10.65-26.65-13.46-32.77-1.81 26.89-1.25 49.33 4.15 74.24 4.37 20.2 12.52 44.85 22 59.22 2.74 4.16 5.09 8.3 7.61 12.52 6.37 10.68 16.64 29.64 19.2 41.28s5.63 56.72 13.4 65.64l.29.31a3.18 3.18 0 001 .84c.09-3.89.48-24.32 3.58-28 .06 21.77 11.77 45.8 24.78 61.47 2.94 3.54 10.77 12.42 14.45 14.42-1.4-4.38-6.07-17.55-5.76-22.11 8.9 21.55 24.12 44.83 38.38 57.91-1-7.38-.47-9.65.19-17.2 3 2.11 12.76 13.82 15.6 17.44 2.49 3.17 4.45 5.78 7.05 9.3a71 71 0 008.14 8.74 54.12 54.12 0 009.07 7.27c4.5 2.81 6.35 3.75 12.88 4.07 8.53.41 22 1.72 26.69 6.46 4.78-3.12 4.5-7.38 13.11-7.43 7.93-.05 8.06 3.05 13 7.43 4.83-2.93 3.38-3.17 11.7-4.63a116.1 116.1 0 0115-1.86c9.61-.3 14.9-4.26 22.1-11.16 9.22-8.84 8.28-9.64 15.18-18 5.27-6.41 10-11.56 15.36-17.44 2.09 4.62 1 12.32.48 17.07 8-4.49 24.57-30.47 30.31-41.21l8-16.33c.21 7.12-4.39 15.67-5.61 21.72 2-1.07 5.9-4.9 7.69-6.72 2.23-2.25 4.42-4.81 6.64-7.51 15.79-19.25 22.51-37 24.82-61.82 3.11 4.48 3.58 21 3.58 28.17 10.61-7.4 10-55.41 17.48-75.76 3.84-10.5 13.74-27.77 19.43-37.22 11.63-19.32 16.38-28.73 22.88-51.77a244 244 0 009.09-65.79c0-5.89-.09-19.43-1.71-24-1.45 21.56-24.82 52.18-36.95 66.26-3.12 3.63-14 10.69-19.48 14.85-17.74 13.51-39.72 34.15-48.17 55.32-2 4.94-.19 4.42-5 6.48-16.27 7-46 22.18-53.69 37.85-2.56 5.22-4.92 11.1-12.32 11.1z" transform="translate(-555.85 -37.13)"/><path class="cls-1" d="M637.81 105.11a106.15 106.15 0 003.24 11.71c19.72 53.54 92 56.76 134.35 31.29 5.32-3.2 13.77-9 17.07-13.28 4.52 3 7 7.26 17 13 40.86 23.4 102.88 24 129.68-20.12 3.09-5.09 7.67-15.33 8.25-22.57l-7.15 7.33c-28.28 27.8-41.6 4-64.22-9.9-24.89-15.27-51.33-18.37-75.9.54-2.91 2.24-4.81 4.69-7.62 7.09-7.23-10-23.21-17.91-37.25-19.8-17.22-2.33-34.42 5-45.36 11.85-19.3 12-34.44 33.78-56.89 16.83-6-4.51-6.53-5.26-11.21-10-1.28-1.31-2-3-4-3.91z" transform="translate(-555.85 -37.13)"/></g><path class="cls-2" d="M752.61 224c-2.45 10.6-11.23 22.05-23.06 22.12a11.93 11.93 0 01-11.15-7c-.3-.74-.73-1.87-1-2.65l-.64-1.95a22.65 22.65 0 00-10.39-13.06 91.33 91.33 0 00-8.48-4.18c-6.75-3.5-13.74-6.62-20.37-10.3-3.89-2.19-9.18-5.6-13-8a15.3 15.3 0 01-3.76-2.91 6.71 6.71 0 01-1.5-3.44c-.31-3.68-.68-7-1.1-10.89l1.09-.57a31.59 31.59 0 016.83 8.11c.28.49.91 1.52.92 1 0-.1-.07-.18-.09-.27s-.11-.17-.08-.2l.06-.08a23 23 0 013.3.67 71.49 71.49 0 0127.07 13.5 54.78 54.78 0 0111.9 11.46c3.43 4.52 6.44 9 9.57 13.44a31.41 31.41 0 005.37 6.17c.27.15.64.42.91.55a3.62 3.62 0 002.32.07 30.5 30.5 0 005.48-1.34c4-1.51 8-4.27 11.88-6.8 2.16-1.41 4.36-2.93 6.91-4.28l1 .74z" transform="translate(-555.85 -37.13)"/><path class="cls-2" d="M1007.55 60.11c1 22.47-17.56 49.51-31.5 66.25-5.23 5.45-12.56 9.59-18.76 13.77-8.53 5.74-17.15 11.7-24.89 18.65-10.16 9.32-19.42 20.59-22.92 34.06-.27 1.47-1.91 2.8-3.27 3.41-14.68 7.43-29.61 16.78-41.22 28a32.07 32.07 0 00-6.08 7.95c-1 1.81-1.54 3.47-2.65 5.47-2.66 5.44-8.34 9.59-14.66 9.49h-1.38l-1.48-.7 2.86.67a21.11 21.11 0 01-3.47-.3c-10.22-1.88-17.87-10.12-23.84-17.85a133.38 133.38 0 01-8.11-12.13c-1.91-3-3.1-5.83-6.29-7-5.46-1.94-7.7 2.14-12.17 5.07l-5.15 3.38-1.67-4.92a12.2 12.2 0 00-9.73-5.93c-2.75-.05-5.43 2.13-7.52 4.14-3.93 3.84-7.1 8.43-11 12.41l-1-.74c1.76-3.25 3.32-6.6 5.11-10 3-5.49 6.71-11.51 13.57-12.89a19.28 19.28 0 0113.41 3.08 16.85 16.85 0 015.41 5.17l-6.81-1.54c2.12-1.93 4.35-4.88 7.45-6.6 5.82-3.46 13.84-2.84 19.3 1.08 4.65 3.31 7 8 10.19 12.26a112.13 112.13 0 0011 13.51c3.12 3.11 7.34 6.68 11.33 7l1.8.12 1.05.55-2.85-.67a3.21 3.21 0 002.63-.84c1-.74 2.61-3.78 3.71-5.93.35-.61 1.51-2.5 1.9-3.14.94-1.24 1.88-2.5 2.87-3.63 13.94-15.13 33.72-22.17 52.35-29.44 4.67-13 14.47-25.33 23.58-36.22 8.65-10.13 18.1-20.13 28.92-28.03 2.46-1.94 8.38-6.07 10.54-8.39a342 342 0 0024.46-31.21c5.64-8.6 11.24-17.36 13.76-27.47l1.22.08z" transform="translate(-555.85 -37.13)"/><path class="cls-2" d="M872.72 362.29c2.73 5 2.25 11.14 2.18 16.57l-3.4-2.25c3.67-3 6.72-7.91 9.51-12 2.92-4.48 5.7-9.11 8.41-13.76 5.57-9.24 9.92-19.08 14.46-28.83l9.48-20.23.78 22.46a27 27 0 01-.65 6.61c-1.06 5.2-3.39 10.19-4.65 15.08L900.9 340a73.06 73.06 0 0010-9.1 123.17 123.17 0 0015.5-19.56c8.34-13 11.56-28.33 12.65-43.61l2.84 4.47a19.8 19.8 0 012.35 7.11 165.49 165.49 0 011.88 20.47l-3.74-1.94a13.1 13.1 0 003.07-5.56c2.21-7.29 2.74-15 3.44-22.7.84-10.6 1.42-21.13 3.21-31.74 1.54-10.94 6.61-21.39 11.59-31.05 4.75-9.3 10.3-18.56 15.46-27.61 10.17-17.75 16.17-37.39 20.89-57.21a275.65 275.65 0 005.79-38.37c.49-7.72 1.52-15.69.58-23.35l1.16-.41c2 5 2.42 10.51 3.09 15.83a198.06 198.06 0 01.87 32c-1.5 24.22-6.53 48.7-17 70.7-5.91 11.89-13.5 22.76-20 34.29-5 8.82-9.8 17.31-11.81 27.28-2.22 9.88-3.78 20.32-5.89 30.73-1.93 8.51-4.47 25.82-11.78 31l-4 2.71c.43-9.13.85-18.65-1.27-27.58a10.1 10.1 0 00-1-2.56l3.36-.88c-1.81 21.85-7.31 41.86-20.45 59.75-4 5.53-8.5 11.08-13.93 15.41-1.46 1.19-10.33 5.78-12 6.8.88-4.19 2.43-13.69 3.92-17.4 1.36-4.13 3.58-9.19 3.62-13.41l10.26 2.23c-3.89 7.37-7.42 15-12.05 21.91a198.69 198.69 0 01-14.89 20.15c-4 4.42-7.41 8.67-12.91 11.74l-4.25 2.22c.92-5.39 2.46-10.85 2.57-16.25a13.72 13.72 0 00-.46-3.79l1.12-.51z" transform="translate(-555.85 -37.13)"/><path class="cls-2" d="M658.19 181.73c-6-9.71-14.19-17.61-22.31-25.46-2.4-2.15-5-4.12-7.47-6.22a126.89 126.89 0 00-11.41-8.91c-3.7-2.8-18.92-12.44-22-16A266.81 266.81 0 01574.62 99c-5.6-8.6-11.08-17.42-14.21-27.45-1-2.89-1.16-6.27-2.23-8.68L568.61 61c-1.26 20.61-1.29 41.12 1.83 61.53 3.3 20.13 8.2 40.76 17.54 59 5.26 9.14 10.58 18.16 15.4 27.55s9.81 19.15 11.89 29.69c2.49 15.52 3.88 31.21 7.82 46.4.94 3.85 3.06 10.25 5 12-.14-.11-.11-.08-.06-.06l.52.34-4.77 2.39a164.41 164.41 0 01.84-20.54 23 23 0 011.74-6.86c.22-.73 6.59-9.4 7.12-10.3l.56 11.39c1.12 19.58 10.6 38.31 22.81 53.37 4 4.52 8.12 9.52 13 13.06l-8.18 6.78-1.67-5.19a92.71 92.71 0 01-4.06-14.71 18 18 0 01-.16-3.18l.63-27.26c4.45 9.86 12.57 30.47 17.89 39.62 7.58 13.67 16.72 27 28.08 37.71l-11 5.75a51.51 51.51 0 01-.54-9.23c.36-5.61 1.29-14.72 1.7-20.28l9.37 7a27.8 27.8 0 013.08 2.73 199 199 0 0113.86 16.37c1.41 1.9 4.72 6.36 6.15 8.3a68.19 68.19 0 006.42 6.93 52.11 52.11 0 005.93 5.14 27.89 27.89 0 005.94 3.48 21.08 21.08 0 004.5.7 105.71 105.71 0 0115.45 2c4.67 1 9.88 2.62 13.46 6.21l-6.69-.72c1.93-1.26 2.74-2.77 5.11-4.63a13.5 13.5 0 015.3-2.42c5.14-.83 10.38-.77 14.74 2.53 2.51 2.08 3.36 3.66 5.39 5.54l-5.38-.48c1.31-.77 2.45-1.49 3.89-2.34a18 18 0 015.49-1.71 123 123 0 0118.25-1.89h1.3l1.28-.09c5.41-.46 9.57-3.11 13.88-6.75 4.41-3.8 8.61-7.5 12.11-12.15a171.25 171.25 0 0112-13.28c2.78-2.82 5.62-5.56 8.44-8.3l.91.83c-5 6.11-9.93 12.21-14.5 18.52-2.38 3.2-4.28 6.57-6.79 9.76a103 103 0 01-8.17 9 36.74 36.74 0 01-10.36 7.59 27.45 27.45 0 01-8.12 2.22 110 110 0 00-15.78 2.32 40 40 0 00-5 1.29c-1.43.74-2.72 1.91-4.19 2.8l-2.7 1.76-2.65-2.23a38.16 38.16 0 01-3-2.85c-1.58-1.53-1.79-2.15-3.57-2.51s-5-.32-6.48.92c-1.38 1.4-3.45 4.12-5.63 5.46l-3.29 2.2-3.4-2.92c-1.79-1.31-5.44-2.34-8.08-2.75-5.5-1.08-11.52-1-17.24-1.48a24.32 24.32 0 01-10.63-3.84 64 64 0 01-12.58-10 71.67 71.67 0 01-8.4-9.59c-3.4-4.52-7.15-9.17-10.89-13.42a96.29 96.29 0 00-7-7.41l10.36-4.81c-.52 5.38-1 9.61-.21 14.75l2.26 18.14-13.28-12.4c-8.53-8-15.4-17.15-21.61-26.88a183.88 183.88 0 01-15.61-30.23l11.55-1.89a3.87 3.87 0 000 .45c.5 4.39 2 8.75 3.24 13 1.12 3.59 4.95 15.7 6.12 19.45-1.12-.72-13.71-8-14.36-8.61a57.76 57.76 0 01-7.33-7c-17-18.53-29.2-42.81-29-68.38l6.81 2.47s0 .08-.08.15c-1.35 3.29-1.68 7-2.17 10.62-.72 6-1 12.74-1.34 18.88l-4.46-3.32-.29-.21-.27-.2c-8.82-7.48-10.39-49.23-13-62.54-1.86-10.14-6.89-19.41-11.67-28.47-5-9.17-10.77-18-16.56-26.7-10.93-18.51-17.81-39-22.44-59.94s-4.82-42.76-3.16-64l1.67-23.08c1.88 5.16 9.87 22.23 10.48 27.09 1.87 10.68 7.68 20 13.21 29.32 5.46 8.79 11.82 17.26 18.13 25.51a8.38 8.38 0 001.2 1.4c8.54 7.32 18.19 13.84 26.48 21.72 2.76 2.81 8 7.75 10.55 10.51 3.37 3.75 6.39 7.53 9.51 11.5a80.63 80.63 0 0110.35 17l-1.09.57z" transform="translate(-555.85 -37.13)"/><path class="cls-2" d="M706 93.13c-8.15 6.07-15 13.75-23.69 19.36-17.3 11.36-31.35 2.23-44.22-10.58-1.19-1.17-1.44-2-2.3-2.4l1.93.47 4.62-5.78a100.47 100.47 0 003.09 10.24 59.16 59.16 0 0026.4 30.35c32.05 17.93 83.5 13.5 110.07-12.68l1.19-1.45a39.23 39.23 0 016 4.83c9.25 8.89 21.45 14.1 33.61 17.74 27 7.9 59.88 5.08 81.32-13.92 9.87-8.74 17.74-21.39 19.41-34.45l10.16 4.61c-5 5.3-10 11-16.11 15.07-21.64 14.65-36.11.76-53.19-12.22-22-15.88-46.6-21.88-70-5.15-2.88 1.91-4.77 4.31-7.64 6.59l-4.16 3.36c-2.58-3.94-5.34-7.91-9.25-10.92-21.35-16.46-43.95-15-67.18-3.07l-.65-1a79.58 79.58 0 0119.08-10.33c17.83-7 38.32-3.54 54 7.25a39.53 39.53 0 018.84 8.22l-7-.84C795.83 78.87 819 71 841.9 77.13a91.64 91.64 0 0130.1 14.5c5.59 4 10.84 8.56 16.37 12.15 3.77 2.35 7 4 11.12 4.14 8.75 0 15.92-7.16 21.91-13.08 3.1-3 12.47-12.45 15.58-15.48L935.2 95.8c-2.46 16.57-12 30.93-24.69 41.35-18.72 14.86-43.8 18.56-66.86 15.33-18.78-2.82-37.4-9.18-52.82-20.46-3.08-2.35-5.71-5.25-8.48-7.06l2.65-.43a48.73 48.73 0 01-8.63 7.95 110.57 110.57 0 01-52.75 21.77c-34.1 4.78-70.62-7.61-85.28-40.85-3.38-7.3-4.64-15.49-6.41-23l6 .29h1.09l.84.42c2 .91 3.91 3.26 4.83 4.63a72.65 72.65 0 008.48 8.35c16.09 14.57 28.77 2.59 43.37-6.84a98.19 98.19 0 018.8-5.2l.65 1z" transform="translate(-555.85 -37.13)"/></svg>