<svg id="Слой_1" data-name="Слой 1" xmlns="http://www.w3.org/2000/svg" viewBox="0 0 1580.85 1386.47"><defs><style>.cls-1{fill:#fff;stroke:blue;stroke-miterlimit:10;stroke-width:0.95px;}</style></defs><path class="cls-1" d="M1511.55,827c-10.42,78,82.22,160.48,161,237.67-29.18-13.47-218.6-91.42-255.33-96.09s23.68,70.17,23.68,70.17-45.26-37.16-93.8-36.76-11.06,80.62-11.06,80.62-87.41-127.32-222.76-101c-36.37,7.06-82.4,70.34-92.84,119.33,0,0-33.53,114.13-47.32,145.53-2.66,6.07-84.51-296.42-128.22-314.25-77-31.42-99.14,140.81-99.14,140.81S699.54,934.46,629.4,915.19,410.24,974.47,300.76,1053.3c71.07-101.21,216.61-309.65,161.51-439.94-34.65-81.91-273.88-141.73-273.88-141.73s260.15-9.76,301-89c38.59-74.87-90.51-158-90.51-158s135.29,24.51,130.68-.57-34.78-39.66-56.33-55.1c36,9.31,95.21,18.5,80.51-26.9C532.92,77.73,365-28.45,261.48-91.06,673.25,65.06,719.9-25.26,774-94.89c-.51,20.63,24.31,155.29,83.2,179.28s127.72-57,192.54-108.1c0,0-83.73,126.91-26.62,176.68s276.46-46.36,276.46-46.36-91.42,92.59,24.81,147.19S1658,225.16,1658,225.16,1481.84,378,1498.23,518.09s237.26,247.78,237.26,247.78S1522,748.91,1511.55,827Z" transform="translate(-169.57 119.38)"/><path d="M1671.64,1070.64c-13.59-6.12-27.64-12-41.51-17.74s-27.86-11.47-41.8-17.09c-27.87-11.22-55.78-22.2-83.68-32.66-14-5.23-27.9-10.32-41.81-15.11-7-2.4-13.91-4.71-20.82-6.85s-13.84-4.16-20.33-5.49c-1.5-.21-3.24-.61-4.5-.67a11.21,11.21,0,0,0-3.39.17,2.44,2.44,0,0,0-2.24,2.64c-.11,1.8.64,4.91,1.88,8.07a86.21,86.21,0,0,0,4.68,9.92c7.39,13.44,17.08,26.94,26.91,39.44l31.53,40.1-38.42-31.82c-1.44-1.18-3.29-2.6-5-3.86s-3.53-2.57-5.33-3.79c-3.59-2.46-7.26-4.8-11-7a188.71,188.71,0,0,0-22.63-11.48c-15.26-6.45-30.81-10.21-45.53-10.41-7-.13-13.25,1.68-17.15,6.25s-5.45,11.59-5.33,19.28a101.28,101.28,0,0,0,3.89,24.37,185,185,0,0,0,8.73,24.9h0l13.07,27.51L1333.63,1084a225,225,0,0,0-15-18.26c-5.32-5.9-10.87-11.55-16.59-17a279.33,279.33,0,0,0-36.32-29c-25.32-17-52.57-28.37-79.1-33.24a180.73,180.73,0,0,0-39.06-3c-6.35.23-12.63.72-18.78,1.56-3.07.46-6.14.88-9.15,1.48l-4.5.87c-1.44.31-2.85.68-4.25,1.07-11.16,3.26-21,9.43-29.57,17.08a141.39,141.39,0,0,0-22.73,26.74c-13.28,19.89-23.53,42.63-32.22,66.35-.22.59-.44,1.32-.67,2.07a99.21,99.21,0,0,0-13.62-8.17c.33-1.06.65-2,1-2.81,9.39-23.94,20.37-47,34.69-67.35a148.27,148.27,0,0,1,24.7-27.6c9.43-8,20.31-14.51,33-17.89,1.58-.41,3.19-.78,4.83-1.09s3.18-.55,4.77-.82c3.16-.56,6.4-.93,9.63-1.33a197.39,197.39,0,0,1,19.76-1.21,192.7,192.7,0,0,1,41.17,4c28,5.67,56.58,18.19,82.84,36.4a292.84,292.84,0,0,1,37.45,30.84c5.87,5.71,11.56,11.65,17,17.85,1.09,1.24,2.11,2.52,3.17,3.77-1-2.76-2-5.5-2.8-8.29a113.06,113.06,0,0,1-5-26.72,50.7,50.7,0,0,1,1-13,27.83,27.83,0,0,1,5.1-11.26,22.55,22.55,0,0,1,9.61-7,34.57,34.57,0,0,1,12-2.16c15.88-.34,32.76,3.21,49.29,9.68a196,196,0,0,1,23.79,11.26c-3.92-5.84-7.72-11.79-11.16-18.12a105.14,105.14,0,0,1-5.69-12.1c-1.59-4.27-3.12-8.93-2.94-14.29a12.86,12.86,0,0,1,2.6-7.49,11,11,0,0,1,6.15-3.67,21.38,21.38,0,0,1,6.48-.4c2.15.15,3.92.57,5.89.87,7.45,1.52,14.55,3.63,21.67,5.82s14.18,4.55,21.23,7c14.11,4.86,28.15,10,42.19,15.25,28.06,10.52,56,21.53,84,32.79q21,8.46,41.93,17.15c5,2.09,10,4.17,14.95,6.27-29.29-28.19-58.68-56.79-85.5-88.91a388.44,388.44,0,0,1-23.92-31.74,244.53,244.53,0,0,1-19.68-34.82,145.13,145.13,0,0,1-11.43-37.29,107.94,107.94,0,0,1-1.28-18.38,75.48,75.48,0,0,1,2.17-17.5c3.13-11.35,10-19.67,17.71-26a97.91,97.91,0,0,1,25.91-14.64c18.53-7.3,38.46-11.28,58.76-13.83,36.37-4.37,73.89-4.58,112-2-9.54-4.9-19-10-28.45-15.43q-20.89-12.12-41.36-25.85c-27.21-18.35-53.76-39-78.38-62.77a384.85,384.85,0,0,1-34.73-38.45,262.15,262.15,0,0,1-28.15-44.09,182.23,182.23,0,0,1-16.47-48,166.64,166.64,0,0,1-1.87-46.43c2.84-29.45,11.62-55.69,22.63-79.84s24.56-46.36,39.34-67.24a594.41,594.41,0,0,1,47.93-59c12.18-13.19,24.77-25.89,37.94-38-11.94,4.67-24.06,9-36.34,13q-28.92,9.45-59,16.54a613.61,613.61,0,0,1-61.57,11.2c-21,2.61-42.47,4.26-64.69,3.54a281.7,281.7,0,0,1-33.81-2.88,225.11,225.11,0,0,1-34.81-7.78,178.5,178.5,0,0,1-35.08-15.12c-11.43-6.46-23-14.37-32.9-25.16a83.05,83.05,0,0,1-12.78-18,68.67,68.67,0,0,1-6.79-20c-2.25-13.3-.39-25.2,2.84-35.72a119,119,0,0,1,13.62-28.59c2.35-3.64,4.83-7.12,7.42-10.5q-17.59,8.06-35.6,15.4c-17.48,6.94-35.21,13.47-53.33,19.26s-36.55,11-55.55,15.21-38.5,7.31-59.18,7.86a141.34,141.34,0,0,1-32.41-2.66,76.81,76.81,0,0,1-17.64-6,57.55,57.55,0,0,1-9.12-5.57,48.57,48.57,0,0,1-4.33-3.66c-1.37-1.22-2.66-2.57-3.93-4a65.13,65.13,0,0,1-11.88-18.64,73.6,73.6,0,0,1-5.14-19.24c-1.65-12.39-.62-23.59,1.19-34.15,3.77-21.08,11.07-39.71,19.37-57.4q6.69-13.8,14.33-26.75c-16.84,15.86-33.49,32-51,47.42a370.64,370.64,0,0,1-38.12,29.86c-13.6,8.93-28.15,17-45.53,21a72.16,72.16,0,0,1-28.58.67,67.24,67.24,0,0,1-15.76-5.11A76,76,0,0,1,838.22,81a119.16,119.16,0,0,1-23.53-27,207.86,207.86,0,0,1-16-29.81,344.93,344.93,0,0,1-19.76-60.4c-2.35-10-4.21-20-5.74-29.93q-1.09-7.45-1.82-14.86c-.13-1.36-.2-2.72-.29-4.08-10.82,14.38-21.73,28.91-34.9,41.21a146.79,146.79,0,0,1-54,32.59C661.77-4.25,639.5-1.16,616.71-.42s-46.28-1-69.88-4.18c-47.24-6.34-95.07-18.08-142.77-32-31.6-9.26-63.19-19.7-94.74-30.79C329-54.82,348.68-42.08,368.21-29c34.73,23.37,69.23,47.53,102.61,74.25a573,573,0,0,1,48.45,43.07,248.9,248.9,0,0,1,21.88,25,133.17,133.17,0,0,1,9.34,14.12A74.61,74.61,0,0,1,557.32,143a40.69,40.69,0,0,1,1.93,16.09,20.38,20.38,0,0,1-6.08,12.8,27.94,27.94,0,0,1-11.45,6.35,60.76,60.76,0,0,1-13.07,2.3A160,160,0,0,1,498,179.16c.73.51,1.45,1,2.19,1.5,4.23,3,8.49,6.22,12.68,9.83a85.29,85.29,0,0,1,12,12.47,52.35,52.35,0,0,1,8.59,16c.41,1.42.83,2.84,1.09,4.25l.22,1.05c0,.14.07.41.11.7a8,8,0,0,1,.1.84,11,11,0,0,1-.19,3.17,9.53,9.53,0,0,1-2.26,4.46,12.93,12.93,0,0,1-3,2.44c-4.2,2.36-8.47,3.09-12.74,3.72a110.83,110.83,0,0,1-12.87.87c-17.22.18-34.6-1.61-52-3.76-12.46-1.59-24.94-3.56-37.46-5.7,5.79,4.14,11.48,8.45,17.08,13a302.18,302.18,0,0,1,29.2,27,201.6,201.6,0,0,1,25.11,32.28C493,315.1,498.62,328.1,501,341.12a75.32,75.32,0,0,1,1.14,19,68.61,68.61,0,0,1-3.48,17,66,66,0,0,1-16.82,26.53,96.57,96.57,0,0,1-11.46,9.7,131.8,131.8,0,0,1-12.47,8.12,212.39,212.39,0,0,1-26.76,13c-37,14.78-77,23.09-117.52,29.32q-30.5,4.5-61.6,7.2c-14.7,1.29-29.52,2.16-44.43,2.81,17.65,4.56,35.3,9.5,53,15.05,24.14,7.68,48.32,16.2,72.44,26.16,12.06,5,24.11,10.3,36.11,16.18s23.95,12.24,35.75,19.46a243.88,243.88,0,0,1,34.55,25.14,136,136,0,0,1,15.73,16.38,86.61,86.61,0,0,1,12.36,20.12A161.19,161.19,0,0,1,478,648.72a195.49,195.49,0,0,1,2.58,35.1c-.33,22.73-3.76,44.11-8.7,64.49a470.39,470.39,0,0,1-18.74,58.6c-7.29,18.81-15.48,37-24.26,54.63-17.53,35.35-37.16,69-57.85,101.59-13.39,20.88-27.23,41.35-41.31,61.57,24.23-16,49-31.25,74.43-45.52,37.27-20.76,75.75-39.85,116.86-54.43,20.6-7.16,41.87-13.29,64.72-16,11.44-1.26,23.34-1.67,36,.49A75.93,75.93,0,0,1,641,915.37a99.87,99.87,0,0,1,18.41,11.37c11.68,9,21.8,20.14,30.75,31.79A313,313,0,0,1,714,995.16c7.07,12.58,13.4,25.41,19.16,38.34,4,9.09,7.69,18.22,11.16,27.42a457.81,457.81,0,0,1,13.85-59.06,268.57,268.57,0,0,1,12.22-32.38c4.79-10.34,10.33-20.25,17.43-28.92A67.67,67.67,0,0,1,800,929a40.52,40.52,0,0,1,20.74-7.86,43.19,43.19,0,0,1,5,0A41.91,41.91,0,0,1,836,923a59,59,0,0,1,10.29,4.28,55,55,0,0,1,10,7,100.89,100.89,0,0,1,15.57,17.91,196.27,196.27,0,0,1,11.79,19.35,380.08,380.08,0,0,1,18.08,39.59c10.47,26.54,18.84,53.14,26.43,79.68.1.37.2.85.3,1.27a90.9,90.9,0,0,0-12.29,7.28,67.28,67.28,0,0,0-1.47-8.42c-7-26.13-14.73-52.29-24.4-78a355.94,355.94,0,0,0-16.52-37.82,176.55,176.55,0,0,0-10.36-17.67A83.77,83.77,0,0,0,851,942.49a39.36,39.36,0,0,0-7-5.15,46.85,46.85,0,0,0-7.92-3.47,32.35,32.35,0,0,0-7.89-1.6,33.27,33.27,0,0,0-3.86-.09,35.48,35.48,0,0,0-3.73.44c-9.91,1.74-18.11,8.17-24.91,15.89s-12.36,17.12-17.22,27a259.17,259.17,0,0,0-12.64,31.12,451.14,451.14,0,0,0-16.86,67.81h0L747.28,1086l-4.51-12.82c-4.47-12.73-9.79-25.63-15.51-38.26s-12.06-25.17-19-37.35A302.29,302.29,0,0,0,685,962.49c-8.59-11-18.14-21.3-28.74-29.32a88.24,88.24,0,0,0-16.43-10,65.73,65.73,0,0,0-17-5.21c-11.46-1.84-22.79-1.38-33.75,0-22,2.87-42.76,9.13-62.94,16.45-40.29,14.9-78.2,34.34-114.91,55.46a1205.08,1205.08,0,0,0-106.1,69.28h0l-34.27,25,24.58-35.77c21.69-31.56,43.39-63,63.76-95.62,20.52-32.45,40-65.78,57.34-100.72,17.17-35,32.74-71.35,42.72-110.76,4.91-19.69,8.44-40.17,8.92-61.55a178.11,178.11,0,0,0-2.08-32.56A143.73,143.73,0,0,0,457,614.45c-4.61-11-13.47-21.24-23.28-30.06a233.06,233.06,0,0,0-32-23.65c-22.49-14.07-46.09-25.37-69.73-35.74s-47.58-19.35-71.51-27.69-48-16-71.87-22.86h0l-19-4.4,18-1.31c41.4-3,82.31-7.89,122.27-14.83,20-3.49,39.71-7.53,59-12.53s38.17-10.76,56-18.28a203.07,203.07,0,0,0,25.74-12.7,127.26,127.26,0,0,0,11.76-7.78,90.26,90.26,0,0,0,10.57-9.08,59.1,59.1,0,0,0,17.8-37.89,67.92,67.92,0,0,0-.88-15.73A83.68,83.68,0,0,0,485,323.65,121.87,121.87,0,0,0,477,307.58a192.31,192.31,0,0,0-22.52-29.93,319.91,319.91,0,0,0-27.19-26.55c-9.52-8.26-19.5-16.25-29.51-23.3h0l-15.39-9.74,16.07,2.61c17.31,2.82,34.65,5.13,51.8,6.88s34.26,3,50.56,2.36a101.44,101.44,0,0,0,11.82-1.12c3.72-.62,7.42-1.54,9.89-3.09,1.23-.74,1.89-1.75,1.84-2a.39.39,0,0,0,0-.16l-.21-.94c-.19-1-.51-1.9-.79-2.85a35.85,35.85,0,0,0-6.1-10.81c-5.51-6.9-13.21-12.78-21.17-18.23s-16.48-10.54-25.1-16.57h0l-26.84-21.38,28.8,9.72a213.56,213.56,0,0,0,27,7.22,123.37,123.37,0,0,0,26.2,2.64,52.5,52.5,0,0,0,12-1.59,22.75,22.75,0,0,0,9.72-5,15,15,0,0,0,4.65-9.55,32.74,32.74,0,0,0-1.65-12.9c-2.72-9-8.32-18-14.56-26.36a237.92,237.92,0,0,0-21-23.81c-15-15.07-31.21-28.75-47.7-41.86S434.17,25.76,417.07,13.8,382.68-9.74,365.28-21c-34.81-22.51-70-43.85-105.49-64.49h0l-55.45-33.91L261.9-97.29C309.19-79.13,356.59-62.21,404-47.8S498.68-21.28,545.3-14.49c23.3,3.37,46.38,5.32,68.78,4.93s44.12-3.2,64-9.76a142.27,142.27,0,0,0,52.75-30.81C746-63.88,758.37-80.86,771.34-97.42h0l5-7.71L777-93.85a126.93,126.93,0,0,0,2,14C780-75,781-70.15,782.11-65.29c2.17,9.7,4.8,19.44,7.61,29.13C795.42-16.8,802.22,2.54,811,21a200.42,200.42,0,0,0,14.9,26.47c5.61,8.26,12,15.82,19,21.48a55.83,55.83,0,0,0,10.9,6.9,52.72,52.72,0,0,0,11.65,3.74,60,60,0,0,0,23.49-.52A102,102,0,0,0,913,71.57a183.61,183.61,0,0,0,20.6-11.24C947,52,959.6,42.5,972.1,32.71c25-19.57,49.09-40.78,75.5-59.07h0l14.58-13.09-10,18a455.74,455.74,0,0,0-25,51.71c-3.64,9-7,18.12-9.77,27.54a197.37,197.37,0,0,0-6.58,29,126,126,0,0,0-1.25,15.1,85.17,85.17,0,0,0,.92,15.28c1.49,10.16,5.47,20,12.29,27.18.86.9,1.73,1.79,2.67,2.61a26.73,26.73,0,0,0,2.7,2.26,36.93,36.93,0,0,0,6.08,3.61,60.86,60.86,0,0,0,14,4.55,130.62,130.62,0,0,0,29.34,2.24c19.52-.5,38.59-3.49,57.32-7.22s37.15-8.49,55.39-13.6c36.4-10.39,72.15-22.44,107.38-35.33h0l16.55-7.65L1302,109.37a146.47,146.47,0,0,0-17.29,23.86,115.53,115.53,0,0,0-12,27.85c-2.68,10-3.83,20.84-1.62,31.82a55.73,55.73,0,0,0,5.91,16A66.46,66.46,0,0,0,1287.68,223c8.42,8.54,18.67,15.2,29.18,20.55A155.38,155.38,0,0,0,1349,255.72c21.68,5.7,43.3,7.39,64.56,7.82,42.55.53,83.85-4.83,124.18-12.41A1215.24,1215.24,0,0,0,1656.34,222h0l18.08-7.46-14.08,13.38a733.16,733.16,0,0,0-51.38,54.4,668.36,668.36,0,0,0-45.89,59.88q-10.65,15.7-20.14,32.37A379.57,379.57,0,0,0,1525.45,409a292.41,292.41,0,0,0-13.59,36.91c-1.88,6.38-3.5,12.88-4.79,19.54a186.82,186.82,0,0,0-2.94,20.32,175,175,0,0,0-.61,21.06,154,154,0,0,0,2.35,21.6,164,164,0,0,0,14.77,43.49,253.57,253.57,0,0,0,25.84,41,373.61,373.61,0,0,0,32.72,36.89c11.65,11.64,23.94,22.58,36.57,33s25.61,20.26,38.83,29.61,26.64,18.29,40.24,26.73q10.2,6.35,20.5,12.34c6.86,4,13.8,7.94,20.66,11.54h0l14.43,6.74-14.28-.63c-21-.94-41.91-1-62.47-.14a530.83,530.83,0,0,0-60.62,5.47c-19.66,3.13-38.93,7.4-56.25,14.75a92.42,92.42,0,0,0-23.62,14c-6.83,5.77-12.32,13-14.58,21.92a66.87,66.87,0,0,0-1.61,14.76,96.26,96.26,0,0,0,1.26,16,128.89,128.89,0,0,0,10.36,32.77c10,21.79,24.85,42.41,40.88,61.84s33.77,37.89,51.76,55.94,36.41,35.83,54.65,54h0l23.16,22.66Z" transform="translate(-169.57 119.38)"/><polygon points="746.65 1218.74 802.77 1386.47 856.81 1218.08 842.97 1210.42 801.4 1355.06 758 1208.28 746.65 1218.74"/></svg>