<svg id="Слой_1" data-name="Слой 1" xmlns="http://www.w3.org/2000/svg" viewBox="0 0 563.24 390.51"><defs><style>.cls-1{fill:#f9e599;}.cls-2{fill:#b6d7e0;}.cls-3{fill:#1d1e1c;}.cls-4{fill:#4e5778;}.cls-5{fill:#fff;}</style></defs><path class="cls-1" d="M1150.47,707.37c5.84-.1,10.88-4.43,13.81-9.49s4.24-10.85,6.14-16.38,4.64-11.09,9.46-14.38a50.16,50.16,0,0,1,5.14-2.81" transform="translate(-678.61 -344.9)"/><path d="M1185,664.31s-.72.38-2,1.13a19.78,19.78,0,0,0-4.85,3.78,26,26,0,0,0-4.63,7.65c-1.32,3.12-2.32,6.74-3.52,10.61a44.89,44.89,0,0,1-4.57,10.68,21.4,21.4,0,0,1-6.73,6.83,16.56,16.56,0,0,1-3.31,1.57,14,14,0,0,1-2.65.65,15.67,15.67,0,0,1-1.71.14l-.59,0,.59,0a11.79,11.79,0,0,0,1.66-.31,12.07,12.07,0,0,0,2.47-1,15.2,15.2,0,0,0,2.87-1.95,22.22,22.22,0,0,0,5.37-7.06,70.12,70.12,0,0,0,3.83-10.4,59.37,59.37,0,0,1,4.18-10.75,24.15,24.15,0,0,1,6-7.47,18.87,18.87,0,0,1,3.06-2c1-.48,1.79-.84,2.47-1.14C1184.29,664.68,1185,664.31,1185,664.31Z" transform="translate(-678.61 -344.9)"/><path class="cls-1" d="M1175.21,661.9a26.4,26.4,0,0,0-11.73,8.38c-2.31,2.9-4,6.25-6,9.39a54.08,54.08,0,0,1-36.68,24.13" transform="translate(-678.61 -344.9)"/><path d="M1120.85,703.8s1-.2,2.72-.62c.86-.26,1.91-.56,3.11-1l1.9-.71c.68-.25,1.36-.58,2.09-.89s1.48-.69,2.26-1.07,1.57-.8,2.37-1.27,1.65-.93,2.48-1.46,1.68-1.08,2.54-1.67c1.72-1.17,3.43-2.52,5.16-4a64.47,64.47,0,0,0,5-4.82A60.26,60.26,0,0,0,1155,681c.64-.92,1.32-1.79,1.91-2.71s1.18-1.83,1.75-2.72a52.1,52.1,0,0,1,3.54-5,26.13,26.13,0,0,1,3.83-3.78,28,28,0,0,1,6.61-3.92c.84-.34,1.49-.58,1.94-.74l.68-.24-.67.27a19.22,19.22,0,0,0-1.85.9,25.13,25.13,0,0,0-6,4.56,26.75,26.75,0,0,0-3.18,4c-1,1.53-1.94,3.27-2.94,5.14-.5.94-1,1.9-1.58,2.89s-1.21,2-1.84,3a46.65,46.65,0,0,1-4.59,5.73,47.9,47.9,0,0,1-5.39,5,49.59,49.59,0,0,1-5.65,3.81c-.94.54-1.85,1.06-2.79,1.49s-1.81.89-2.7,1.25-1.74.72-2.59,1-1.63.59-2.42.8c-1.55.49-3,.82-4.23,1.11s-2.35.44-3.23.62C1121.83,703.62,1120.85,703.8,1120.85,703.8Z" transform="translate(-678.61 -344.9)"/><path class="cls-1" d="M1179.68,668.06a42.67,42.67,0,0,1,0,16.32l7.91-15.93c2.9-5.85,6-11.91,11.15-15.89-13.06,1.08-26.19.61-39.29.14a170.08,170.08,0,0,1,17.31,8.75" transform="translate(-678.61 -344.9)"/><path d="M1176.73,661.45s-1.53-.89-4.39-2.32c-1.43-.71-3.19-1.55-5.27-2.49l-3.34-1.45-1.26-.55c-.51-.22-1.18-.48-1.82-.74l-4.43-1.78c.23,0,.4-.09.71-.12h9.6l9.06,0c3.19,0,6.52-.07,10-.17l5.24-.2,2.67-.14,1.63-.09,2.75-.2,5.39-.4-2.43,2-1.27,1c-.44.34-.74.65-1.12,1l-1.07,1-.48.48-.24.26c-.29.31-.56.63-.84.95a38.27,38.27,0,0,0-2.94,4.05c-1.79,2.81-3.28,5.72-4.75,8.49-2.94,5.54-5.64,10.5-7.93,14.71l-2,3.7,1-4.06a41.32,41.32,0,0,0,1.08-11.85,32.62,32.62,0,0,0-.32-3.25c-.12-.73-.17-1.08-.18-1.12s.07.39.21,1.11.33,1.83.5,3.24a44.11,44.11,0,0,1-.18,12.08l-1.06-.36c1.95-4.36,4.27-9.52,6.91-15.21a97.52,97.52,0,0,1,4.48-8.89,38,38,0,0,1,3.07-4.44c.29-.36.58-.72.9-1.06l.21-.24h0l-1.08.06-2.72.11c-1.79.06-3.57.09-5.31.1-3.48,0-6.84-.07-10-.2s-6.24-.31-9.08-.49l-2.1-.14-.74-.07-.56,0-.29,0s0,0,.08.06a4.5,4.5,0,0,1,.49.24,1.57,1.57,0,0,1,.25.14l.15.06.4.21,3.23,1.73c2,1.09,3.7,2.07,5.08,2.88Z" transform="translate(-678.61 -344.9)"/><path class="cls-2" d="M793.53,553.18c0,6.47-.63,13.54-5,18.26-3.43,3.65-8.48,5.15-13.12,7a68.61,68.61,0,0,0-26.19,18.81" transform="translate(-678.61 -344.9)"/><path d="M749.17,597.28l1.68-2c1.08-1.31,2.7-3.16,4.87-5.32,1.09-1.08,2.32-2.22,3.71-3.38s2.92-2.33,4.59-3.5a60.32,60.32,0,0,1,5.46-3.32,58.59,58.59,0,0,1,6.24-2.88c2.18-.85,4.27-1.6,6.19-2.45a21.31,21.31,0,0,0,5.07-3,14.88,14.88,0,0,0,3.34-4.11,20.76,20.76,0,0,0,1.81-4.44,39.24,39.24,0,0,0,1.25-7c.15-1.69.15-2.63.15-2.63s0,1,0,2.64a43.6,43.6,0,0,1-.4,7.23,20.3,20.3,0,0,1-1.36,4.92,15.63,15.63,0,0,1-3.34,5,20.49,20.49,0,0,1-5.45,3.76c-2,1-4.17,1.83-6.29,2.66s-4.14,1.71-6.07,2.64-3.75,1.9-5.46,2.88-3.31,2-4.77,3-2.8,1.94-4,2.86-2.25,1.78-3.16,2.57-1.67,1.49-2.27,2.08-1.06,1.07-1.37,1.39Z" transform="translate(-678.61 -344.9)"/><path class="cls-2" d="M786.55,550.91c-.83,5.5-5.33,9.84-10.37,12.2s-10.64,3.1-16.1,4.16-11,2.53-15.36,6c-5.16,4.16-7.83,10.59-12,15.76" transform="translate(-678.61 -344.9)"/><path d="M732.74,589.05a24.57,24.57,0,0,0,1.56-2.26c1-1.49,2.16-3.74,3.74-6.5a43.1,43.1,0,0,1,2.88-4.4,22,22,0,0,1,4.35-4.38,24.65,24.65,0,0,1,6-3.28,44.56,44.56,0,0,1,7-2c4.8-1,9.31-1.5,13.25-2.54a30.59,30.59,0,0,0,5.43-1.89,21.38,21.38,0,0,0,4.26-2.61,17.05,17.05,0,0,0,2.94-3,12.64,12.64,0,0,0,1.63-2.72,9.37,9.37,0,0,0,.43-1.09,5.93,5.93,0,0,0,.23-.82l.15-.7-.12.7a6.94,6.94,0,0,1-.18.85,10.69,10.69,0,0,1-.32,1.13,14.61,14.61,0,0,1-1.36,3,18.55,18.55,0,0,1-2.68,3.44,22,22,0,0,1-4.2,3.29,29.05,29.05,0,0,1-5.57,2.53c-4.06,1.42-8.69,2.16-13.33,3.12s-8.91,2.25-12.26,4.39a22.61,22.61,0,0,0-4.34,3.65,43.41,43.41,0,0,0-3.25,3.92c-1.89,2.52-3.38,4.62-4.48,6Z" transform="translate(-678.61 -344.9)"/><path class="cls-2" d="M770.6,560.72a87.13,87.13,0,0,1-14.89-6.84c15.22-3.53,30.82-7.23,43.79-15.94q2.49,21.55,5.19,43.11l-14-14.69" transform="translate(-678.61 -344.9)"/><path d="M790.68,566.36s1.23,1.28,3.51,3.54l4.17,4.11,2.61,2.57L802.4,578l.74.73.19.19.09.09,0,0,.11.13a.75.75,0,0,0,.2.2l.09.08s0-.11,0-.15a3.12,3.12,0,0,1-.07-.31c0-.21-.06-.41-.1-.63-.23-1.55-.48-3.16-.73-4.83l-1.56-10.68c-.52-3.76-1.06-7.72-1.62-11.81q-.39-3.07-.81-6.26c-.13-1.06-.26-2.13-.4-3.2l-.09-.81-.05-.4,0-.1h0l-.78.49c-1,.55-1.9,1.12-2.86,1.63-1.91,1-3.84,2-5.76,2.79a98.11,98.11,0,0,1-11.34,4.09c-7.34,2.18-14.08,3.52-19.71,4.65l-.47.1-.14,0c-.09,0-.24,0-.37.06s.15.1.22.15l.13.09.08,0,0,0,.11.06c1.11.66,2.17,1.25,3.17,1.79,2,1.08,3.77,1.93,5.24,2.59,2.93,1.31,4.62,1.87,4.62,1.87l-1.22-.42c-.8-.28-2-.69-3.48-1.27s-3.33-1.32-5.41-2.27c-1-.48-2.15-1-3.31-1.59-.31-.18-.95-.49-1.38-.74l-.63-.4-.33-.2c-.08-.07-.31-.16-.09-.18.51-.13,1-.28,1.55-.42l1.42-.37c5.55-1.5,12.16-3.25,19.29-5.71A116.26,116.26,0,0,0,788,542.79c1.85-.85,3.7-1.79,5.53-2.8.92-.5,1.82-1.06,2.74-1.58l2-1.26,1.38-.89.69-.44c.1-.05.25-.21.32-.17l0,.4c.14,1.09.28,2.18.41,3.26.08.65.16,1.29.23,1.93.13,1.08.25,2.15.37,3.21q.36,3.18.7,6.26c.43,4.11.84,8.08,1.23,11.85l1,10.74c.15,1.69.3,3.31.44,4.88.12,1.21.23,2.4.34,3.56l0,.45,0,.23v.11c0,.05,0,0-.06,0l-.64-.63c-.41-.41-.83-.81-1.27-1.31L794.05,570C791.9,567.65,790.68,566.36,790.68,566.36Z" transform="translate(-678.61 -344.9)"/><path class="cls-3" d="M792.16,462.16a27.5,27.5,0,0,0,3.25,1.9,51.23,51.23,0,0,0,9.5,3.66,61.15,61.15,0,0,0,6.77,1.49c1.21.2,2.54.36,4,.7a12.71,12.71,0,0,1,4.66,2,8.79,8.79,0,0,1,3.49,5,7.35,7.35,0,0,1-.12,3.61,10.28,10.28,0,0,1-1.36,2.88A35.43,35.43,0,0,0,820,487a2.52,2.52,0,0,0,0,2.18,6.55,6.55,0,0,0,2.07,2.45,9,9,0,0,0,1.52,1c.27.14.53.25.8.36s.61.22.93.32c2.58.81,5.67,1.17,8.73,2.22a15.82,15.82,0,0,1,4.33,2.21,14.73,14.73,0,0,1,3.21,3.25,15.86,15.86,0,0,1,2.82,7.27,16.24,16.24,0,0,1,.05,3.33,16.49,16.49,0,0,1-.6,2.87,23.8,23.8,0,0,1-1.85,4.13c-.6,1.07-1.09,1.87-1.4,2.43l-.48.85s.15-.3.42-.88.64-1.45,1.05-2.59a19.06,19.06,0,0,0,1-4.21,14.16,14.16,0,0,0,0-2.61,13.56,13.56,0,0,0-3.93-8.17,11.12,11.12,0,0,0-2.71-1.95,12.12,12.12,0,0,0-3.32-1.12c-2.47-.54-5.45-.56-8.91-1.35-.43-.1-.85-.21-1.32-.36a11.83,11.83,0,0,1-1.4-.53,14.38,14.38,0,0,1-2.61-1.47,12.1,12.1,0,0,1-4.17-4.95,9.07,9.07,0,0,1-.73-3.69,8.54,8.54,0,0,1,.92-3.62,27.28,27.28,0,0,1,3-4.24c.77-1,.94-1.53.92-2.11a3.69,3.69,0,0,0-1.21-2.19,9,9,0,0,0-2.82-1.68c-1.13-.46-2.39-.83-3.64-1.27A53.58,53.58,0,0,1,804,470a62.59,62.59,0,0,1-8.84-5.55l-2.24-1.7Z" transform="translate(-678.61 -344.9)"/><path class="cls-3" d="M1126.83,536.83a23.67,23.67,0,0,0-.79-2.48c-.57-1.58-1.5-3.84-2.76-6.55-.63-1.36-1.34-2.84-2.1-4.41s-1.6-3.34-2.47-4.77a7.83,7.83,0,0,0-1.41-1.77,2.41,2.41,0,0,0-1.32-.63,19.57,19.57,0,0,0-2.61,0,10.34,10.34,0,0,1-4.54-.91A12,12,0,0,1,1103,509a17.29,17.29,0,0,1-1.21-7.11,49.37,49.37,0,0,1,.58-5.81l.75-4.88c.49-3,.89-5.39,1.11-7.06s.27-2.6.27-2.6,0,.93.18,2.6.48,4.11.87,7.1c.18,1.5.37,3.15.58,4.91s.35,3.63.65,5.42a16,16,0,0,0,1.54,4.92,7.43,7.43,0,0,0,3.15,3.16,4.44,4.44,0,0,0,.89.3,5.89,5.89,0,0,0,1.13.12,16.73,16.73,0,0,1,3.93.41,7.92,7.92,0,0,1,4,2.64,11.88,11.88,0,0,1,1.87,3.33,25.1,25.1,0,0,1,.89,3c.23.93.43,1.84.62,2.72.36,1.76.64,3.42.86,4.92.44,3,.68,5.47.87,7.15S1126.83,536.83,1126.83,536.83Z" transform="translate(-678.61 -344.9)"/><path class="cls-1" d="M1174.15,580.79l-2.2-.43a4.71,4.71,0,0,0,3.36-2.78,13.92,13.92,0,0,0,1-4.4q1.23-10.24,2.47-20.5a14,14,0,0,1,.87-4,7.16,7.16,0,0,1,7.67-4,1.78,1.78,0,0,1,.77.3,2,2,0,0,1,.46,1.72,58.6,58.6,0,0,1-13.7,34.12c-.2.23-.49.48-.76.35S1174,580.88,1174.15,580.79Z" transform="translate(-678.61 -344.9)"/><path d="M1174.15,580.79a.77.77,0,0,0-.09.17c-.08.14.12.27.34.15a2,2,0,0,0,.6-.71l.73-1.15c.54-.86,1.17-1.94,1.83-3.23s1.39-2.75,2.1-4.42,1.41-3.5,2.12-5.47,1.34-4.13,2-6.38,1.32-4.63,1.85-7.15c.28-1.26.48-2.56.71-3.88.1-.66.21-1.32.34-2l.09-.56h0s0,0,0,0-.1,0-.17,0a5.1,5.1,0,0,0-1.07-.16,5.58,5.58,0,0,0-5.2,3,9.24,9.24,0,0,0-.73,3.22c-.1,1.14-.14,2.29-.16,3.41,0,2.25,0,4.41-.09,6.46a45.2,45.2,0,0,1-.66,5.75c-.32,1.79-.65,3.45-1,5a20.67,20.67,0,0,1-1.25,4.25,6.64,6.64,0,0,1-2.28,2.76,4.31,4.31,0,0,1-2.22.75v-.4l1.7.49a2.42,2.42,0,0,1,.46.14l-.47,0-1.76-.19-1-.1,1-.29a3.56,3.56,0,0,0,1.66-1.08,5.45,5.45,0,0,0,1.23-2.6,24.39,24.39,0,0,0,.25-4c0-1.56.11-3.25.23-5.06a44,44,0,0,1,.72-5.75c.38-2,.94-4.1,1.44-6.29.25-1.1.47-2.21.67-3.36a16.2,16.2,0,0,1,.89-3.62,8.92,8.92,0,0,1,6.26-5.09,8.44,8.44,0,0,1,1.66-.18c.15,0,.22,0,.49,0l.65.06a3,3,0,0,1,1.08.48,3.12,3.12,0,0,1,.7.75,4.24,4.24,0,0,1,.4,1,6,6,0,0,1,.18,1.54c0,.73,0,1.46,0,2.18-.07,1.43-.2,2.84-.4,4.22a45.17,45.17,0,0,1-1.74,7.8,41.24,41.24,0,0,1-2.88,6.59,46.66,46.66,0,0,1-3.35,5.24c-1.11,1.53-2.21,2.83-3.19,3.94s-1.88,2-2.61,2.74l-1,1a2.24,2.24,0,0,1-.81.64.49.49,0,0,1-.4,0,.22.22,0,0,1-.06-.28C1174.07,580.81,1174.15,580.79,1174.15,580.79Z" transform="translate(-678.61 -344.9)"/><path class="cls-1" d="M1173.28,591.09c.06-.57.1-1.14.13-1.72.07-.11.14-.21.2-.32Z" transform="translate(-678.61 -344.9)"/><path d="M1173.28,591.09s-.06-.07-.31-.21l-.44-.27a6.08,6.08,0,0,1-.59-.35,3.89,3.89,0,0,1-.55-.4c-.16-.13-.26-.27-.24-.39a.75.75,0,0,1,.27-.35,1.92,1.92,0,0,1,.83-.29l2.57.87h-.54a.67.67,0,0,0-.27.08l.12-.38c-.06.13.06.25.36.39a2.83,2.83,0,0,1,.61.38c.11.12,0,.21-.13.3a3.42,3.42,0,0,1-.47.23l-.53.16c-.13.06-.29.09-.4.13s-.26.1-.29.1-.06-.05-.26-.16-.26-.11-.38-.18l-.5-.25a3.52,3.52,0,0,1-.43-.27c-.12-.1-.22-.2-.1-.29a3.4,3.4,0,0,1,.66-.27c.32-.1.46-.21.41-.33l.13-.38a.59.59,0,0,0-.09-.22,4.11,4.11,0,0,0-.29-.31l0,0-1.78-1.64,4.35,2.5a1.92,1.92,0,0,1,.7.54.69.69,0,0,1,.15.41c0,.13-.15.23-.35.31a5.52,5.52,0,0,1-.65.2c-.22.06-.45.11-.67.15l-.5.11C1173.37,591,1173.32,591.1,1173.28,591.09Z" transform="translate(-678.61 -344.9)"/><path class="cls-1" d="M1163.87,580.38a3.24,3.24,0,0,1,2-1.17c2.67-.52,5.36,1.4,6.54,3.86a13.32,13.32,0,0,1,1,6.3,3.76,3.76,0,0,1-2.35,1.57,5.4,5.4,0,0,1-4.8-1.9,12.78,12.78,0,0,1-2.44-4.75C1163.41,583,1163.09,581.48,1163.87,580.38Z" transform="translate(-678.61 -344.9)"/><path d="M1163.87,580.38s0,.11-.13.32a2.19,2.19,0,0,0-.16,1,3.07,3.07,0,0,0,.49,1.46,11.37,11.37,0,0,0,1.36,1.67c.49.53,1,1.12,1.58,1.75a14.85,14.85,0,0,0,1.54,1.41,4.5,4.5,0,0,0,1.65.91c.14,0,.28.07.43.09a1.75,1.75,0,0,0,.41.08,2.17,2.17,0,0,0,1.12-.21l.23-.13h0c0,.07,0-.14,0-.27a3.15,3.15,0,0,0,.09-.42,5.67,5.67,0,0,0,0-1.64,4.51,4.51,0,0,0-1.35-2.66c-.65-.63-1.27-1.08-1.76-1.57s-.92-1-1.4-1.45a3.77,3.77,0,0,0-1.6-1,2.66,2.66,0,0,0-1.51,0,3.08,3.08,0,0,0-1.11.72s0-.12.19-.31a4,4,0,0,1,.79-.68,7.51,7.51,0,0,1,1.58-.77,6.1,6.1,0,0,1,2.55-.38,5.1,5.1,0,0,1,2.94,1.22,5.44,5.44,0,0,1,1.71,3.13c.22,1.22.21,2.42.38,3.59.08.59.17,1.18.29,1.79l.1.46c0,.16,0,.24.11.62a1.27,1.27,0,0,1,.07.24l0,.21-.09.43a3.19,3.19,0,0,1-.25.6,5,5,0,0,1-1.7,1.89,4.53,4.53,0,0,1-1.26.54,5.06,5.06,0,0,1-1.27.18,7.12,7.12,0,0,1-4.3-1.45,6.91,6.91,0,0,1-2.25-3.06,7.62,7.62,0,0,1-.54-2.91c0-.89.07-1.67.13-2.37a10.34,10.34,0,0,1,.26-1.72,3.2,3.2,0,0,1,.39-1C1163.77,580.46,1163.86,580.37,1163.87,580.38Z" transform="translate(-678.61 -344.9)"/><path class="cls-1" d="M1173.61,589.05l.32-2A2.87,2.87,0,0,1,1173.61,589.05Z" transform="translate(-678.61 -344.9)"/><path d="M1173.61,589.05a2.64,2.64,0,0,0-.24-.3c-.12-.11-.22-.21-.38-.34l-.27-.19-.28-.18a4.77,4.77,0,0,0-.55-.28c-.17-.06-.28-.1-.26-.11s.11,0,.22,0a6.59,6.59,0,0,0,.78-.24l0,0,2.51-.08c-.36.08-.63.18-.62.31s.08.15.17.23l.4.25.32.23c.06.06.09.12.07.17a1,1,0,0,1-.44.24l-.28.08-.32.07-.5.11a1.84,1.84,0,0,0-.38.1,2.29,2.29,0,0,0-.33-.22c-.15-.07-.26-.15-.44-.25l-.28-.17-.24-.17a.85.85,0,0,1-.34-.35q0-.09.12-.15l.37-.12.46-.11c.11,0,.22-.1.23-.16s-.18-.3-.49-.49l-5.29-3.22,7.8,3.14,0,0a1.52,1.52,0,0,1,.9.58,1.47,1.47,0,0,1,.2.71.75.75,0,0,1-.37.56,2.48,2.48,0,0,1-.71.31,3.64,3.64,0,0,1-.72.09,3.1,3.1,0,0,1-.53,0Z" transform="translate(-678.61 -344.9)"/><path class="cls-4" d="M774.34,356a4.66,4.66,0,0,1,2-2.23c1.58-.74,3.46.09,4.81,1.2,2.33,1.92,3.88,4.59,5.38,7.21q6.36,11.06,12.71,22.13l-.68-.93.09,1.21a5.66,5.66,0,0,1,4.44,1.9c1.84,2.18,2,5.37,1.33,8.14l1.66-7.69c.47,2.46.93,5,.21,7.44s-3,4.52-5.5,4.13c-2.25-.35-3.72-2.5-4.75-4.52-1.29-2.53-2.26-5.83-.45-8a3.88,3.88,0,0,1,2.2-1.26,41.6,41.6,0,0,0-13.18-9.83c-2.34-1.1-4.82-2-6.86-3.59A12.69,12.69,0,0,1,774.34,356Z" transform="translate(-678.61 -344.9)"/><path class="cls-3" d="M774.34,356l-.3.72a11.35,11.35,0,0,0-.65,2.15,12.71,12.71,0,0,0-.14,3.59,12.51,12.51,0,0,0,1.43,4.57,11.19,11.19,0,0,0,4,4.19,45.69,45.69,0,0,0,6.37,2.82,38.74,38.74,0,0,1,7.17,4,39.78,39.78,0,0,1,3.49,2.76l.84.77.42.4.21.2.26.27,1.44,1.52c.46.51,1,1.1,1.36,1.52l-2.06.49a3.61,3.61,0,0,0-.86.29,2.13,2.13,0,0,0-.31.18l-.11.09a3,3,0,0,0-.67.87A4.43,4.43,0,0,0,796,390a11.89,11.89,0,0,0,.95,3,13.72,13.72,0,0,0,1.67,2.81,4.18,4.18,0,0,0,2.3,1.6,3.32,3.32,0,0,0,2.64-.67,5.58,5.58,0,0,0,1.9-2.54,9.55,9.55,0,0,0,.48-3.5,30.82,30.82,0,0,0-.39-3.62h1.14c-.66,2.64-1.27,5.17-1.83,7.66l-.79-.18a9.55,9.55,0,0,0-.43-6.48,5.11,5.11,0,0,0-2.05-2.21,5.23,5.23,0,0,0-1.38-.52,5.89,5.89,0,0,0-2.08-.06l-.09-.75-.06-.62,0-.4c0-.1,0,0,0-.05h0l0,0,0,0-.11,0h0l-.08-.12-.15-.24-.61-1-1.18-1.92q-1.17-1.92-2.25-3.76c-1.43-2.46-2.75-4.84-3.95-7.09s-2.3-4.4-3.31-6.38a40.87,40.87,0,0,0-3-5.3,11.66,11.66,0,0,0-3.46-3.42,3.85,3.85,0,0,0-3.46-.43,4,4,0,0,0-1.65,1.52c-.28.44-.4.68-.4.68a5.55,5.55,0,0,1,.37-.7,4,4,0,0,1,1.64-1.58,4.08,4.08,0,0,1,3.61.32,13.56,13.56,0,0,1,3.79,3.27,48.33,48.33,0,0,1,3.55,5.06c1.21,1.88,2.51,3.9,3.85,6.08s2.72,4.51,4.12,7c.71,1.24,1.41,2.51,2.12,3.83l1.06,2,.54,1,.33.63.28.5.13.25.07.12,0,.06v0s.11,0-.08,0l-.27.23-.13.12-.07.06s0,.05-.07,0l0,0,.23-.71.06-.17,0-.09s0,0,0,0l-.22,0-.11,0h0v.07l0,.4V384h0s0,0,0,0a9.28,9.28,0,0,1,1.18.24,6.42,6.42,0,0,1,1.62.74,5.7,5.7,0,0,1,1.35,1.2,7.69,7.69,0,0,1,.94,1.52,11.15,11.15,0,0,1,.45,7l-.79-.18c.51-2.5,1-5.06,1.48-7.73L806,384l.64,2.86a32.79,32.79,0,0,1,.69,3.74,10.92,10.92,0,0,1-.23,4.13,7.26,7.26,0,0,1-2.33,3.63,5.34,5.34,0,0,1-4.32,1.27,6.36,6.36,0,0,1-3.72-2.3,15.9,15.9,0,0,1-2.07-3.28,14.26,14.26,0,0,1-1.23-3.63,6.79,6.79,0,0,1,.42-4.09,5.26,5.26,0,0,1,1.33-1.76l.21-.17.06,0,0,0,.07,0c.06,0,0-.09-.11-.18l-.7-.71-.78-.75c-1-1-2.11-1.88-3.19-2.71a45,45,0,0,0-6.57-4.21,39.48,39.48,0,0,1-6.24-3.56,12.66,12.66,0,0,1-3.8-4.9,14.39,14.39,0,0,1-1.14-4.8,13.57,13.57,0,0,1,.27-3.63,11.46,11.46,0,0,1,.7-2.15C774.21,356.24,774.34,356,774.34,356Z" transform="translate(-678.61 -344.9)"/><path class="cls-1" d="M1156.49,345.07l3.19,7.72a14,14,0,0,0,10,8.32l8.16,1.74-6.35,5.42a14,14,0,0,0-4.82,12.07l.86,8.3-7.11-4.36a14,14,0,0,0-13-.86l-7.63,3.39,2-8.12a14,14,0,0,0-3.2-12.6l-5.58-6.21,8.33-.65a14,14,0,0,0,11-6.93Z" transform="translate(-678.61 -344.9)"/><path d="M1156.5,344.9c3.49,6.93,5.15,14,14.2,15.16l10.93,1.8-2.76,2.2-5.92,4.7a13.37,13.37,0,0,0-4.38,5.34,13.56,13.56,0,0,0-1,6.94l.52,7.54.07,1-.87-.49-6.58-3.72a13.06,13.06,0,0,0-13.41-.43l-6.79,3.31-3,1.44c.49-2.06,2-8.44,2.49-10.61a14.17,14.17,0,0,0,.5-3.38,12.3,12.3,0,0,0-2.57-7.72c-.76-1-5.35-5.91-6.24-6.93l-2.59-2.84,11.33-.29a13.13,13.13,0,0,0,10.75-5.09c1.78-2.58,3.74-5.5,5.34-7.94Zm0,.35c-2.57,4.63-3.79,9.66-8.29,12.7a15.85,15.85,0,0,1-7.56,2.71l-7.5,1,1.18-2.95s5,5.65,5,5.66a15.94,15.94,0,0,1,3.83,15.49l-1.81,7.33s-2.25-1.83-2.17-1.83l7-2.82a15.89,15.89,0,0,1,7.93-1.34,15.46,15.46,0,0,1,7.39,2.83l6.3,4.17s-.82.54-.81.5l-1-7.49a15.32,15.32,0,0,1,5.28-14.46l5.57-5.1s.71,2.78.69,2.76l-7.31-1.92a15.68,15.68,0,0,1-7.1-3.62c-4-3.57-4.66-8.72-6.61-13.61Z" transform="translate(-678.61 -344.9)"/><path class="cls-1" d="M886.5,399.9l1.65,4a7.2,7.2,0,0,0,5.15,4.29l4.21.9-3.27,2.79a7.18,7.18,0,0,0-2.49,6.23l.44,4.28-3.67-2.25a7.21,7.21,0,0,0-6.69-.44l-3.93,1.75,1-4.19a7.2,7.2,0,0,0-1.64-6.5l-2.88-3.2,4.29-.34a7.18,7.18,0,0,0,5.67-3.57Z" transform="translate(-678.61 -344.9)"/><path d="M886.51,399.81c1.64,3.41,2.9,7.4,7.32,7.82l5.64.93L898,409.69c-1.63,1.41-4.51,3.1-5.31,5.18-1,2-.34,5.33-.26,7.47,0,0,0,.52,0,.52l-.45-.25c-1.92-1-4.62-3.05-6.85-3-2.2-.18-5,1.7-7,2.55l-1.54.75c.25-1.07,1-4.35,1.29-5.47a6.45,6.45,0,0,0-1.66-6.41s-2.63-2.88-2.63-2.89l-1.34-1.47,5.85-.15a6.93,6.93,0,0,0,3.47-.84c2.2-1.18,3.43-4,4.83-5.88Zm0,.18c-1.88,3.92-3.24,7.5-8.17,7.95l-3.87.51s.6-1.56.61-1.51l2.59,2.91a8.27,8.27,0,0,1,2,8l-.94,3.78s-1.16-.95-1.12-.95c2.26-.83,5.21-2.51,7.7-2.14,2.51.13,5,2.36,7.07,3.61,0,0-.43.28-.42.26-.26-2.38-1.17-5.61-.2-7.94.74-2.39,3.55-4.35,5.26-6,0,0,.37,1.44.36,1.43l-3.77-1c-4.78-1-5.73-4.81-7.08-8.89Z" transform="translate(-678.61 -344.9)"/><path class="cls-5" d="M1241.85,465c-20.15,12.77-42.53,26.06-66.18,22.94-12.38-1.63-23.69-7.67-34.68-13.6l-25.69-13.88" transform="translate(-678.61 -344.9)"/><path class="cls-3" d="M1115.3,460.47s1.71.9,4.88,2.39,7.8,3.57,13.51,6.16l9.31,4.27c3.34,1.54,6.88,3.2,10.62,4.8a119,119,0,0,0,11.81,4.43,60,60,0,0,0,26.08,2.22,81.3,81.3,0,0,0,12.22-2.61c1-.26,1.92-.56,2.85-.87l2.77-.91c1.8-.69,3.58-1.26,5.25-2s3.32-1.32,4.87-2,3-1.33,4.45-2,2.75-1.28,4-1.91,2.46-1.2,3.56-1.77c2.22-1.12,4.11-2.13,5.64-3,3.08-1.68,4.72-2.7,4.72-2.7s-1.62,1.06-4.48,3.08l-5.23,3.67c-1,.72-2.13,1.47-3.3,2.26s-2.42,1.63-3.75,2.47c-.67.42-1.35.86-2,1.31l-2.17,1.31c-1.47.9-3.05,1.77-4.69,2.67s-3.38,1.74-5.16,2.65l-2.79,1.23c-.94.43-1.91.84-2.91,1.2a68.48,68.48,0,0,1-12.91,3.7,55,55,0,0,1-28.85-2.44,90,90,0,0,1-12.13-5.52c-3.71-2-7.09-4.05-10.23-6l-8.68-5.45c-5.3-3.35-9.57-6.08-12.56-7.91S1115.3,460.47,1115.3,460.47Z" transform="translate(-678.61 -344.9)"/><path class="cls-3" d="M1116.27,445.75l.17.29c.11.18.28.46.53.81a15.25,15.25,0,0,0,2.53,2.7,25.79,25.79,0,0,0,4.88,3.17,73.74,73.74,0,0,0,7.11,3.06l2,.82,2.19.69,4.62,1.45c3.27.72,6.68,1.7,10.39,2.2l2.79.48c.94.15,1.91.2,2.87.32l2.94.31,1.48.16,1.51.06c2,.05,4.07.23,6.15.23l6.34-.09,6.33-.45c2.07-.23,4.1-.54,6.11-.78,1-.1,2-.31,3-.5l2.91-.55c1.93-.3,3.76-.82,5.58-1.27l2.68-.67c.9-.2,1.73-.54,2.58-.79,1.69-.56,3.35-1,4.93-1.59l4.5-1.78c.72-.3,1.46-.54,2.13-.87l2-1,3.7-1.78c1.14-.6,2.18-1.25,3.17-1.82l2.76-1.62c.85-.5,1.54-1.07,2.21-1.53,2.63-1.89,4-3,4-3s-1.37,1.15-3.75,3.36c-.61.54-1.23,1.21-2,1.82l-2.52,2c-.91.72-1.86,1.54-2.92,2.32s-2.25,1.53-3.46,2.36l-1.88,1.27c-.64.44-1.34.78-2,1.19l-4.39,2.47c-1.56.77-3.21,1.5-4.9,2.28-.85.36-1.69.81-2.59,1.12l-2.74,1a53.66,53.66,0,0,1-5.75,1.85l-3,.79a28.68,28.68,0,0,1-3.11.71c-2.11.36-4.26.77-6.46,1.07l-6.72.58c-2.28,0-4.53,0-6.75,0s-4.4-.32-6.53-.49l-1.6-.15-1.57-.27-3.08-.54c-1-.2-2-.34-3-.58l-2.89-.77a90.2,90.2,0,0,1-10.57-3.54l-4.56-2.15-2.13-1-2-1.15a75.89,75.89,0,0,1-6.73-4.18,29.92,29.92,0,0,1-4.52-3.93,18.87,18.87,0,0,1-2.27-3c-.23-.36-.38-.65-.49-.84Z" transform="translate(-678.61 -344.9)"/><path class="cls-5" d="M715.58,735.41c-13.81-9.2-28.59-19.65-33.3-35.57-2.47-8.33-1.83-17.22-1.17-25.89l1.55-20.25" transform="translate(-678.61 -344.9)"/><path class="cls-3" d="M682.66,653.7s-.08,1.34-.13,3.78-.06,6-.1,10.32c0,2.18,0,4.57-.07,7.13s-.09,5.28-.05,8.11a80,80,0,0,0,.53,8.75,41.49,41.49,0,0,0,6,17.21,55,55,0,0,0,5.11,7c.87,1.1,1.84,2.07,2.72,3.08s1.82,1.91,2.74,2.77,1.78,1.74,2.66,2.52,1.7,1.56,2.53,2.27c1.62,1.43,3.14,2.68,4.48,3.77s2.52,2,3.49,2.75c1.93,1.47,3,2.23,3,2.23s-1.12-.73-3.22-2c-1.05-.63-2.33-1.39-3.81-2.29s-3.17-1.93-5-3.14c-.92-.59-1.88-1.24-2.86-1.93s-2-1.43-3-2.22-2.06-1.66-3.15-2.54-2.13-1.86-3.15-2.93a46.58,46.58,0,0,1-6-7.16,37.32,37.32,0,0,1-4.59-9.07,37.73,37.73,0,0,1-2-9.95,63.34,63.34,0,0,1,.07-9.27c.22-2.92.57-5.66.92-8.2s.7-4.9,1-7.06c.63-4.31,1.15-7.8,1.47-10.22S682.66,653.7,682.66,653.7Z" transform="translate(-678.61 -344.9)"/><path class="cls-3" d="M692.29,650.15a6.93,6.93,0,0,0-.49.76,10.78,10.78,0,0,0-1,2.37,18.34,18.34,0,0,0-.63,4,49.27,49.27,0,0,0,.06,5.38c0,.5,0,1,.06,1.52s.12,1.05.18,1.59c.13,1.07.25,2.19.39,3.34.46,2.29.81,4.73,1.54,7.23l.48,1.91c.17.64.41,1.27.61,1.92s.42,1.29.64,2l.31,1,.39,1c.54,1.3,1,2.66,1.59,4l1.86,4c.7,1.32,1.39,2.61,2.08,3.89s1.5,2.46,2.22,3.67,1.58,2.3,2.32,3.43,1.59,2.16,2.39,3.19,1.57,2,2.42,2.93,1.61,1.83,2.4,2.68c1.69,1.59,3.16,3.23,4.73,4.45l2.17,1.85c.71.55,1.42,1,2.06,1.5l1.81,1.29c.55.41,1.12.68,1.59,1,1.95,1.13,3.06,1.7,3.06,1.7s-1.12-.54-3.2-1.43c-.51-.24-1.12-.44-1.72-.77l-2-1c-.71-.37-1.5-.75-2.3-1.2l-2.48-1.53a63.51,63.51,0,0,1-5.48-3.88c-.93-.77-1.86-1.61-2.83-2.47a34,34,0,0,1-2.85-2.79,37.19,37.19,0,0,1-2.8-3.14c-.88-1.13-1.86-2.22-2.69-3.47s-1.69-2.49-2.51-3.8L694.4,694c-.68-1.44-1.3-2.88-1.93-4.29s-1-2.88-1.53-4.29l-.35-1.06c-.1-.36-.19-.71-.28-1.07-.18-.71-.35-1.41-.53-2.11s-.36-1.38-.48-2.07-.22-1.38-.33-2.06a64.16,64.16,0,0,1-.74-7.71c0-1.22,0-2.38.08-3.51,0-.56,0-1.11.05-1.64s.11-1.06.17-1.57a50.34,50.34,0,0,1,.76-5.46,21,21,0,0,1,1.21-4,13.51,13.51,0,0,1,1.26-2.29C692.09,650.39,692.29,650.15,692.29,650.15Z" transform="translate(-678.61 -344.9)"/></svg>