<svg xmlns="http://www.w3.org/2000/svg" viewBox="0 0 126.69 127.24"><defs><style>.cls-1{fill:#fff;}.cls-2{fill:#1d1d1b;}</style></defs><g id="Layer_2" data-name="Layer 2"><g id="Layer_1-2" data-name="Layer 1"><circle class="cls-1" cx="68.87" cy="69.42" r="57.82"/><path class="cls-2" d="M1.89,56.86c0,2.27.15,4.5.37,6.72s.57,4.41,1,6.59A75.38,75.38,0,0,0,6.89,82.81a61.78,61.78,0,0,0,13.84,21.62,48.71,48.71,0,0,0,10.21,7.94A41.16,41.16,0,0,0,43.28,117c8.73,1.78,17.91.88,26.48-1.36l1.61-.41,1.58-.5c1-.35,2.11-.66,3.14-1,2.06-.81,4.11-1.57,6.08-2.52a68.1,68.1,0,0,0,11.32-6.42A66,66,0,0,0,111,86.05a71.68,71.68,0,0,0,5.86-11.52c.43-1,.77-2,1.13-3s.67-2.06,1-3.1c.14-.53.32-1,.46-1.57l.39-1.58.38-1.59.3-1.6a60.4,60.4,0,0,0-.57-26.3l.56-.22a43.52,43.52,0,0,1,4.23,13.16c.19,1.15.37,2.31.46,3.47s.2,2.33.21,3.5l0,1.76,0,1.76-.06,1.76-.15,1.75L125,64.45l-.25,1.74c-.16,1.17-.34,2.33-.61,3.48s-.49,2.31-.82,3.44-.6,2.28-1,3.39a62.32,62.32,0,0,1-5.87,12.91,61.9,61.9,0,0,1-19.84,20.08,63.85,63.85,0,0,1-26.23,9.39,113.7,113.7,0,0,1-13.75,1,83.13,83.13,0,0,1-13.73-1,61.45,61.45,0,0,1-13.43-3.58,44.61,44.61,0,0,1-12.16-7.24A43.6,43.6,0,0,1,8.18,97.23,54.65,54.65,0,0,1,2.47,84.32a55.89,55.89,0,0,1-1.6-6.83C.64,76.34.51,75.18.35,74S.12,71.71.08,70.55A53.7,53.7,0,0,1,.16,63.6a44.52,44.52,0,0,1,1.13-6.82Z" transform="translate(0 0)"/><path class="cls-2" d="M120.22,35.64a58.56,58.56,0,0,0-11.47-15.85,48,48,0,0,0-16-10.18A59.21,59.21,0,0,0,74.13,5.86,75.93,75.93,0,0,0,55.07,7.37C53.52,7.71,52,8,50.42,8.44l-2.3.66L47,9.43l-1.13.4c-1.51.52-3,1-4.5,1.65l-2.21.9-2.17,1a69.83,69.83,0,0,0-16,10.39A58.41,58.41,0,0,0,8.71,38.54,66.41,66.41,0,0,0,1.59,56.82,54.29,54.29,0,0,1,6.08,37.2l1-2.34c.39-.76.83-1.49,1.25-2.24l1.28-2.23c.42-.75,1-1.42,1.44-2.13l1.49-2.11c.49-.72,1.1-1.32,1.65-2a43.29,43.29,0,0,1,3.49-3.8A67.16,67.16,0,0,1,34.44,8.3,74.86,74.86,0,0,1,53.91,1.48,78.39,78.39,0,0,1,74.49.21,58.26,58.26,0,0,1,94.54,5.32l2.33,1.16c.39.2.78.38,1.16.59l1.11.69a36,36,0,0,1,4.3,2.91A38.35,38.35,0,0,1,107.37,14a34.74,34.74,0,0,1,3.52,3.76A49.29,49.29,0,0,1,120.22,35.64Z" transform="translate(0 0)"/><path class="cls-2" d="M17.16,33c-.56,1-1.13,1.89-1.65,2.86s-1.09,1.9-1.6,2.87c-1,1.93-2.06,3.87-3,5.84s-1.86,4-2.73,6c-.44,1-.84,2-1.23,3s-.76,2.06-1.19,3.08a40.55,40.55,0,0,1,1.71-6.4A52,52,0,0,1,10,44.11a56.64,56.64,0,0,1,3.24-5.79A42.5,42.5,0,0,1,17.16,33Z" transform="translate(0 0)"/><path class="cls-2" d="M93,116c.94-.58,1.88-1.14,2.8-1.75s1.85-1.17,2.76-1.79c1.82-1.22,3.62-2.45,5.38-3.75s3.5-2.63,5.2-4c.87-.67,1.7-1.38,2.52-2.11s1.64-1.46,2.5-2.16a43.1,43.1,0,0,1-4.51,4.85,50.31,50.31,0,0,1-5.12,4.22,56.37,56.37,0,0,1-5.57,3.61A43.61,43.61,0,0,1,93,116Z" transform="translate(0 0)"/></g></g></svg>