<svg width="512" height="165" viewBox="0 0 512 165" fill="none" xmlns="http://www.w3.org/2000/svg">
<path d="M60.7669 41.9142C60.7669 41.9142 211.885 11.0609 280.029 6.98887C446.354 -2.92489 507.544 20.8494 508.515 28.5392C511.162 49.698 513.496 92.2504 496.471 126.064C490.88 137.152 477.787 144.858 462.83 146.204C421.703 149.775 327.781 157.168 233.075 159.219C148.378 161.067 105.872 157.998 84.9483 154.991C73.5154 153.424 64.5883 146.612 61.8788 137.763C59.0598 128.366 55.2383 116.275 52.7638 111.138C48.4099 102.055 13.1401 107.912 13.1401 107.912L56.2877 81.7102L60.7669 41.9142Z" fill="white"/>
<path d="M60.4223 41.6009C61.1784 41.3525 61.9468 41.1434 62.7245 40.9745L64.7606 40.489L68.9109 39.518L77.0862 37.6073L93.4055 33.9738C104.369 31.5932 115.332 29.1657 126.295 26.9417C148.221 22.4416 170.225 18.2652 192.308 14.4125C214.391 10.7164 236.537 7.16118 258.901 4.7493C281.266 2.33742 303.678 1.47603 326.121 0.927878C337.334 0.771263 348.564 0.661632 359.793 0.927878C371.022 1.19412 382.236 1.60133 393.434 2.27477C415.876 3.47124 438.224 6.02878 460.356 9.93328C471.477 11.8102 482.443 14.5061 493.167 17.999C495.845 18.923 498.507 19.9254 501.107 21.1313C502.428 21.7277 503.714 22.397 504.96 23.136C506.308 23.8806 507.542 24.814 508.625 25.9081C508.938 26.2441 509.217 26.6115 509.455 27.0044C509.583 27.2409 509.693 27.487 509.784 27.7405C509.859 28.0017 509.911 28.2689 509.94 28.5392L510.175 30.6222C510.348 32.0317 510.489 33.4256 510.614 34.8195C510.88 37.6229 511.068 40.4263 511.287 43.2298C511.663 48.8523 511.788 54.4748 511.788 60.0973C511.788 65.7198 511.507 71.3579 511.005 76.9648C510.107 88.2497 508.007 99.4065 504.741 110.246C503.1 115.698 501.059 121.022 498.633 126.173C496.084 131.586 492.198 136.259 487.341 139.752C482.555 143.237 477.165 145.807 471.444 147.332C468.601 148.072 465.706 148.596 462.783 148.898L454.436 149.76C432.196 152.067 409.915 154.087 387.592 155.821C342.957 159.298 298.243 161.845 253.451 163.464C208.675 164.904 163.82 165.39 118.887 162.618C107.658 161.835 96.4282 160.864 85.1676 159.204C78.9122 158.436 72.956 156.085 67.8615 152.375C65.2456 150.425 62.9881 148.035 61.1897 145.312C60.2785 143.925 59.5072 142.451 58.8875 140.911C58.6056 140.143 58.3236 139.345 58.1044 138.577L57.5249 136.573C55.9588 131.232 54.3926 125.891 52.6542 120.676C51.7771 118.076 50.8687 115.461 49.8664 113.096L49.6785 112.657L49.5845 112.47C49.5845 112.47 49.5845 112.313 49.4122 112.203C49.321 112.082 49.2159 111.971 49.099 111.874C48.948 111.745 48.7855 111.63 48.6135 111.53C47.6972 110.969 46.6982 110.557 45.6534 110.308C40.5139 109.182 35.2444 108.766 29.9919 109.071C24.4805 109.229 18.9811 109.673 13.5159 110.402L0 112.266L11.6835 105.516L33.6097 92.8769C40.8767 88.6483 48.2219 84.5293 55.5359 80.3477L54.7841 81.5223L57.6345 61.3658L60.4223 41.6009ZM61.1114 42.2274L57.8538 81.8825V82.6186L57.149 83.0571C50.0543 87.5833 43.0536 92.1721 35.865 96.6357L14.4556 110.089L12.6389 105.156C18.2526 104.17 23.9142 103.48 29.6003 103.088C35.4975 102.527 41.4442 102.796 47.2666 103.887C48.9487 104.257 50.5682 104.869 52.0747 105.704C52.5118 105.948 52.9259 106.231 53.312 106.549C54.2088 107.25 54.9682 108.11 55.5516 109.087L55.7865 109.478L55.9274 109.76L56.1624 110.277C57.4309 113.018 58.4176 115.664 59.4043 118.343C61.3463 123.683 63.1004 129.039 64.8075 134.396L65.434 136.4C65.6533 137.011 65.8255 137.481 66.0448 137.967C66.493 139.014 67.0494 140.011 67.7049 140.942C69.0554 142.856 70.7241 144.525 72.6383 145.876C74.6269 147.25 76.7853 148.361 79.0596 149.18C81.4162 150.008 83.8595 150.565 86.3422 150.84C97.3053 152.234 108.268 152.986 119.419 153.534C141.612 154.615 163.914 154.865 186.216 154.74C208.518 154.615 230.851 154.27 253.169 153.753C297.82 152.767 342.44 150.621 387.06 148.021C409.378 146.737 431.68 145.421 453.982 143.934L462.345 143.37C464.981 143.174 467.598 142.782 470.176 142.195C475.333 141.025 480.225 138.9 484.6 135.931C488.978 133.002 492.528 128.994 494.905 124.294C497.391 119.393 499.511 114.316 501.248 109.102C504.733 98.5971 506.988 87.7232 507.967 76.6985C509.032 65.6315 509.205 54.4968 508.484 43.402C508.312 40.6299 508.124 37.8578 507.81 35.1014C507.685 33.7075 507.529 32.3293 507.356 30.9511L507.121 28.9621C507.121 28.7271 507.121 28.7741 507.121 28.7271L507.012 28.5079C506.878 28.3108 506.731 28.1225 506.573 27.9441C505.662 27.0688 504.641 26.3159 503.535 25.7045C502.368 25.0336 501.166 24.4271 499.933 23.8877C497.427 22.7742 494.866 21.7914 492.258 20.9434C481.627 17.6621 470.756 15.2115 459.745 13.6137C415.626 7.34912 370.834 7.70933 326.324 9.05623C315.189 9.40078 304.054 9.83931 292.918 10.4344C287.358 10.7477 281.736 10.9356 276.239 11.3898L267.954 11.9849C265.197 12.1885 262.425 12.5174 259.669 12.7837C237.555 15.0703 215.409 18.0303 193.326 21.3192C171.243 24.6082 149.161 28.0224 127.078 31.5619L93.9694 36.9025L77.4151 39.6589L69.1458 41.0058L64.9955 41.6793L62.9282 42.0238C62.3169 42.1298 61.6997 42.1978 61.0801 42.2274H61.1114Z" fill="#1D1D1B"/>
<path d="M282.472 22.212C297.284 19.2449 312.263 17.1842 327.327 16.0413C334.828 15.3365 342.346 15.0077 349.879 14.6161C353.638 14.4125 357.397 14.3655 361.171 14.2872C364.946 14.2089 368.689 14.0836 372.463 14.0836C379.996 14.1619 387.53 14.2246 395.063 14.5221C398.837 14.6788 402.596 14.898 406.355 15.1329C410.114 15.3679 413.888 15.5871 417.647 15.963C432.712 17.1956 447.67 19.4985 462.408 22.8541V23.4022C447.487 21.9509 432.525 20.9068 417.522 20.2699C402.502 19.8001 387.451 19.5652 372.448 19.5652C357.444 19.5652 342.456 19.8314 327.452 20.3482C312.448 20.8651 297.476 21.6168 282.519 22.7131L282.472 22.212Z" fill="#1D1D1B"/>
<path d="M79.0282 135.711L100.719 138.233C104.306 138.562 107.846 139.141 111.432 139.454C115.019 139.768 118.558 140.3 122.129 140.676C125.7 141.052 129.255 141.522 132.841 141.882C134.627 142.085 136.412 142.352 138.198 142.524C139.983 142.696 141.784 142.9 143.585 143.15L146.279 143.495C147.172 143.589 148.08 143.667 148.973 143.793L154.392 144.544C158.009 145.092 161.643 145.515 165.355 146.361V146.831C161.706 146.831 158.056 147.003 154.392 147.019C150.727 147.034 147.093 147.019 143.429 146.831C136.13 146.627 128.848 146.079 121.502 145.265C114.157 144.45 107.141 143.291 99.9834 141.866C92.8183 140.447 85.7592 138.537 78.856 136.15L79.0282 135.711Z" fill="#1D1D1B"/>
</svg>
