<svg width="566" height="181" viewBox="0 0 566 181" fill="none" xmlns="http://www.w3.org/2000/svg">
<path d="M91.7454 2.64679C311.681 43.4452 561.201 2.64679 561.201 2.64679C561.201 2.64679 510.817 93.0297 530.003 172.998C530.003 172.998 398.054 179.388 265.197 172.998C176.193 168.706 131.761 161.22 109.991 155.551C104.166 154.029 98.8963 150.879 94.7991 146.468C90.7019 142.057 87.9475 136.57 86.859 130.649C84.4784 117.838 81.2365 101.424 78.9499 94.3139C74.9562 81.7847 17.3687 74.6273 17.3687 74.6273L84.5724 55.4419L91.7454 2.64679Z" fill="white"/>
<path d="M91.4322 2.20828L120.704 5.81044L128.19 6.75013C130.68 7.0477 133.249 7.48623 135.66 7.6585L150.351 9.02106L164.979 10.4149C169.85 10.8535 174.72 11.4799 179.607 11.6992L208.941 13.5629L216.27 14.0641C218.714 14.1894 221.157 14.2364 223.6 14.3303L238.291 14.8472C248.079 15.1447 257.852 15.7399 267.64 15.7085L297.021 16.0531L326.387 15.8338C365.541 15.1134 404.695 13.6308 443.849 11.386C453.637 10.7438 463.41 10.18 473.198 9.47524C482.987 8.77047 492.744 8.01872 502.501 7.07903L517.145 5.71647L531.773 4.15031C541.436 3.13231 551.193 2.02034 560.856 0.610801L565.038 0L563.002 3.6648C559.494 9.92943 556.283 16.6013 553.276 23.2574C550.269 29.9136 547.575 36.7577 545.038 43.6174C542.501 50.4772 540.152 57.4309 538.131 64.4786C536.111 71.5263 534.341 78.5741 532.822 85.7784C529.775 100.068 528.092 114.615 527.795 129.224C527.715 136.494 528.06 143.763 528.828 150.993C529.656 158.188 530.937 165.323 532.665 172.355L533.433 175.488L530.159 175.676C483.441 178.416 436.738 180.28 389.957 180.609C343.176 180.938 296.379 180.171 249.598 177.947C226.216 176.694 202.833 175.034 179.466 172.575C167.793 171.332 156.125 169.824 144.462 168.049C132.826 166.169 121.189 164.102 109.584 161.063L108.488 160.766L107.266 160.39C106.441 160.155 105.631 159.873 104.838 159.544C104.04 159.247 103.272 158.918 102.489 158.542C101.707 158.191 100.944 157.799 100.203 157.367C95.7397 154.866 91.8444 151.466 88.7631 147.382C85.6818 143.297 83.4815 138.618 82.3015 133.64C82.1292 132.841 81.9256 131.933 81.8003 131.213L81.4401 129.067L80.6727 124.776L79.1065 116.224C77.9946 110.539 76.8983 104.823 75.5514 99.3569L75.0345 97.3366L74.7683 96.3499C74.715 96.1175 74.6362 95.8916 74.5334 95.6765C74.5334 95.6765 74.5334 95.5825 74.4394 95.4572C74.3434 95.3407 74.2595 95.2148 74.1888 95.0813C74.0792 94.9404 73.8912 94.7838 73.7503 94.6271C73.5916 94.4412 73.413 94.2731 73.2178 94.126C71.2395 92.6103 69.07 91.3623 66.7652 90.4142C61.5908 88.2446 56.2615 86.4647 50.8218 85.0893C39.6506 82.1986 28.3385 79.8829 16.9301 78.1512L0 75.5514L16.3977 71.2131L50.117 62.2704C61.362 59.279 72.6227 56.3033 83.9146 53.4372L82.4268 55.16L86.9686 28.3474L91.4322 2.20828ZM92.0743 3.10099L86.6084 55.7238L86.4831 57.0081L85.1206 57.4309C74.0165 60.9705 62.8812 64.3847 51.7458 67.7989L18.3553 78.0416L17.8072 71.1035C23.7273 71.7613 29.5377 72.5757 35.3638 73.531C41.1899 74.4864 47.016 75.567 52.8108 76.9296C58.7359 78.2598 64.5524 80.0345 70.2108 82.2389C73.3416 83.4334 76.2887 85.0625 78.9656 87.0783C79.3627 87.3645 79.7347 87.6842 80.0776 88.0336C80.4378 88.3938 80.798 88.7227 81.1582 89.1299C81.5184 89.5371 81.863 90.054 82.2075 90.5238C82.5488 91.0743 82.8473 91.6503 83.1002 92.2466C83.2991 92.6992 83.4665 93.1649 83.6014 93.6405L83.946 94.7524L84.5724 96.9607C86.1386 102.787 87.4541 108.503 88.6758 114.188L92.1839 131.134C93.4063 135.904 95.9272 140.241 99.4666 143.663C101.224 145.341 103.2 146.774 105.34 147.923C105.872 148.221 106.42 148.472 106.906 148.722C107.453 148.975 108.012 149.2 108.582 149.396C109.145 149.616 109.72 149.805 110.304 149.959L111.181 150.21L112.199 150.461C123.163 153.17 134.642 155.159 146.06 156.804C157.477 158.448 169.02 159.811 180.515 160.938C203.616 163.303 226.826 165.01 250.068 166.373C296.552 169.223 343.16 170.507 389.785 170.946C413.105 171.197 436.425 171.228 459.761 171.181C483.096 171.134 506.432 170.93 529.721 170.226L527.199 173.593C525.622 166.275 524.524 158.861 523.911 151.4C523.347 143.97 523.221 136.512 523.535 129.067C524.149 114.24 526.078 99.4969 529.298 85.0109C532.58 70.5668 536.786 56.3482 541.89 42.4428C544.38 35.4891 547.121 28.6137 550.034 21.8166C552.947 15.0194 555.985 8.28496 559.431 1.64446L561.577 4.77678C522.705 11.245 483.676 16.1784 444.459 19.8902C405.243 23.602 365.87 25.3717 326.481 25.4814H296.928L267.39 24.5417C257.554 24.3537 247.719 23.6176 237.883 22.9755L223.099 21.9262C220.64 21.7539 218.181 21.6286 215.738 21.4094L208.377 20.6889L178.98 17.7132C174.078 17.306 169.223 16.4603 164.337 15.8182L149.725 13.7195L135.112 11.5896C132.638 11.2763 130.414 10.7752 128.018 10.321L120.954 8.91143L92.0743 3.10099Z" fill="#1D1D1B"/>
<path d="M342.988 34.894C358.791 35.3482 374.578 35.4734 390.364 34.894C406.151 34.3145 421.891 33.4688 437.615 32.0436C453.34 30.6184 468.938 28.5824 484.6 27.0475C500.262 25.5127 515.923 23.7743 531.773 22.3491V22.8189C524.099 24.8027 516.356 26.5046 508.547 27.9246C504.662 28.692 500.716 29.2871 496.832 29.9762L485.086 31.7303C469.424 33.9543 453.543 34.8626 437.741 35.8023C421.938 36.742 406.089 37.1806 390.255 37.2589C374.421 37.3372 358.587 36.5228 342.816 35.4421L342.988 34.894Z" fill="#1D1D1B"/>
<path d="M98.4799 111.479C99.195 116.761 100.585 121.93 102.615 126.859C104.484 131.611 107.62 135.76 111.683 138.855C113.774 140.294 116.057 141.433 118.464 142.238C120.892 143.147 123.444 143.804 125.997 144.525C131.134 145.84 136.381 146.89 141.659 147.939C136.245 148.15 130.824 147.804 125.48 146.905C120.156 145.95 114.705 144.697 109.819 141.393C107.507 139.713 105.508 137.641 103.914 135.269C102.36 132.936 101.132 130.402 100.265 127.736C98.5534 122.498 97.9454 116.963 98.4799 111.479Z" fill="#1D1D1B"/>
</svg>
