<svg id="Слой_1" data-name="Слой 1" xmlns="http://www.w3.org/2000/svg" viewBox="0 0 1057.85 1056.89"><defs><style>.cls-1{fill:#ee7950;}</style></defs><path class="cls-1" d="M533.91,245.4a.41.41,0,0,0,.13-.6.44.44,0,0,0-.61-.14.44.44,0,0,0-.11.61A.42.42,0,0,0,533.91,245.4Z" transform="translate(-456.95 1.08)"/><path class="cls-1" d="M579.1,217.89a2.19,2.19,0,1,0-3-.63A2.19,2.19,0,0,0,579.1,217.89Z" transform="translate(-456.95 1.08)"/><path class="cls-1" d="M624,189.9a3.38,3.38,0,1,0-4.69-1A3.38,3.38,0,0,0,624,189.9Z" transform="translate(-456.95 1.08)"/><path class="cls-1" d="M668.69,161.68a4.25,4.25,0,1,0-5.86-1.25A4.25,4.25,0,0,0,668.69,161.68Z" transform="translate(-456.95 1.08)"/><path class="cls-1" d="M713.09,132.94a4.55,4.55,0,1,0-6.28-1.32A4.55,4.55,0,0,0,713.09,132.94Z" transform="translate(-456.95 1.08)"/><path class="cls-1" d="M757.26,103.84a4.4,4.4,0,1,0-6.09-1.27A4.39,4.39,0,0,0,757.26,103.84Z" transform="translate(-456.95 1.08)"/><path class="cls-1" d="M801.16,74.36a3.81,3.81,0,1,0-5.26-1.1A3.8,3.8,0,0,0,801.16,74.36Z" transform="translate(-456.95 1.08)"/><path class="cls-1" d="M844.75,44.41a2.63,2.63,0,1,0-3.66-.75A2.64,2.64,0,0,0,844.75,44.41Z" transform="translate(-456.95 1.08)"/><path class="cls-1" d="M888.1,14.09A1,1,0,1,0,887,12.37a1,1,0,0,0,1.13,1.72Z" transform="translate(-456.95 1.08)"/><path class="cls-1" d="M519.7,320.2a2.34,2.34,0,1,0-3.25-.67A2.34,2.34,0,0,0,519.7,320.2Z" transform="translate(-456.95 1.08)"/><path class="cls-1" d="M565.13,293.05a4.54,4.54,0,1,0-6.27-1.3A4.53,4.53,0,0,0,565.13,293.05Z" transform="translate(-456.95 1.08)"/><path class="cls-1" d="M610.49,265.81a6.59,6.59,0,1,0-9.13-1.9A6.59,6.59,0,0,0,610.49,265.81Z" transform="translate(-456.95 1.08)"/><path class="cls-1" d="M655.46,237.92a7.91,7.91,0,1,0-11-2.26A7.92,7.92,0,0,0,655.46,237.92Z" transform="translate(-456.95 1.08)"/><path class="cls-1" d="M700.16,209.72A8.81,8.81,0,1,0,688,207.16,8.8,8.8,0,0,0,700.16,209.72Z" transform="translate(-456.95 1.08)"/><path class="cls-1" d="M744.63,181.09a9.23,9.23,0,1,0-12.79-2.66A9.24,9.24,0,0,0,744.63,181.09Z" transform="translate(-456.95 1.08)"/><path class="cls-1" d="M788.73,151.88a9,9,0,1,0-12.4-2.59A8.94,8.94,0,0,0,788.73,151.88Z" transform="translate(-456.95 1.08)"/><path class="cls-1" d="M832.63,122.4A8.35,8.35,0,1,0,821.06,120,8.36,8.36,0,0,0,832.63,122.4Z" transform="translate(-456.95 1.08)"/><path class="cls-1" d="M876.15,92.33a7,7,0,1,0-9.75-2A7,7,0,0,0,876.15,92.33Z" transform="translate(-456.95 1.08)"/><path class="cls-1" d="M919.4,61.88a5.27,5.27,0,1,0-7.29-1.53A5.29,5.29,0,0,0,919.4,61.88Z" transform="translate(-456.95 1.08)"/><path class="cls-1" d="M962.51,31.19a3.23,3.23,0,1,0-3.53-5.4,3.23,3.23,0,0,0,3.53,5.4Z" transform="translate(-456.95 1.08)"/><path class="cls-1" d="M1005.3,0a.55.55,0,0,0,.15-.8.57.57,0,0,0-.8-.2.61.61,0,0,0-.17.83A.6.6,0,0,0,1005.3,0Z" transform="translate(-456.95 1.08)"/><path class="cls-1" d="M459,420.55a.15.15,0,0,0,0-.21.13.13,0,0,0-.2,0,.14.14,0,0,0-.05.21A.15.15,0,0,0,459,420.55Z" transform="translate(-456.95 1.08)"/><path class="cls-1" d="M504.92,394.14a3.22,3.22,0,1,0-4.47-.92A3.23,3.23,0,0,0,504.92,394.14Z" transform="translate(-456.95 1.08)"/><path class="cls-1" d="M550.77,367.62a6.16,6.16,0,1,0-8.54-1.77A6.17,6.17,0,0,0,550.77,367.62Z" transform="translate(-456.95 1.08)"/><path class="cls-1" d="M596.37,340.74a8.66,8.66,0,1,0-12-2.51A8.66,8.66,0,0,0,596.37,340.74Z" transform="translate(-456.95 1.08)"/><path class="cls-1" d="M641.71,313.47a10.69,10.69,0,1,0-14.81-3.08A10.71,10.71,0,0,0,641.71,313.47Z" transform="translate(-456.95 1.08)"/><path class="cls-1" d="M686.85,285.84a12.31,12.31,0,1,0-17.07-3.54A12.32,12.32,0,0,0,686.85,285.84Z" transform="translate(-456.95 1.08)"/><path class="cls-1" d="M731.62,257.75a13.35,13.35,0,1,0-18.46-3.86A13.34,13.34,0,0,0,731.62,257.75Z" transform="translate(-456.95 1.08)"/><path class="cls-1" d="M776.1,229.13a13.78,13.78,0,1,0-19.08-4A13.8,13.8,0,0,0,776.1,229.13Z" transform="translate(-456.95 1.08)"/><path class="cls-1" d="M820.19,199.89A13.48,13.48,0,1,0,801.53,196,13.49,13.49,0,0,0,820.19,199.89Z" transform="translate(-456.95 1.08)"/><path class="cls-1" d="M864,170.32a12.76,12.76,0,1,0-17.67-3.68A12.76,12.76,0,0,0,864,170.32Z" transform="translate(-456.95 1.08)"/><path class="cls-1" d="M907.45,140.12a11.3,11.3,0,1,0-15.64-3.26A11.31,11.31,0,0,0,907.45,140.12Z" transform="translate(-456.95 1.08)"/><path class="cls-1" d="M950.63,109.54a9.37,9.37,0,1,0-13-2.71A9.37,9.37,0,0,0,950.63,109.54Z" transform="translate(-456.95 1.08)"/><path class="cls-1" d="M993.58,78.61a7,7,0,1,0-9.75-2A7,7,0,0,0,993.58,78.61Z" transform="translate(-456.95 1.08)"/><path class="cls-1" d="M1036.29,47.31a4.26,4.26,0,1,0-4.67-7.12,4.26,4.26,0,0,0,4.67,7.12Z" transform="translate(-456.95 1.08)"/><path class="cls-1" d="M1078.82,15.76a1.17,1.17,0,1,0-1.62-.34A1.19,1.19,0,0,0,1078.82,15.76Z" transform="translate(-456.95 1.08)"/><path class="cls-1" d="M489.67,467.36a3.23,3.23,0,1,0-4.48-.94A3.24,3.24,0,0,0,489.67,467.36Z" transform="translate(-456.95 1.08)"/><path class="cls-1" d="M535.82,441.32a6.74,6.74,0,1,0-9.33-1.95A6.74,6.74,0,0,0,535.82,441.32Z" transform="translate(-456.95 1.08)"/><path class="cls-1" d="M581.75,414.92a9.83,9.83,0,1,0-13.61-2.83A9.83,9.83,0,0,0,581.75,414.92Z" transform="translate(-456.95 1.08)"/><path class="cls-1" d="M627.51,388.28A12.61,12.61,0,1,0,610,384.64,12.59,12.59,0,0,0,627.51,388.28Z" transform="translate(-456.95 1.08)"/><path class="cls-1" d="M672.94,361.15a14.81,14.81,0,1,0-20.5-4.29A14.83,14.83,0,0,0,672.94,361.15Z" transform="translate(-456.95 1.08)"/><path class="cls-1" d="M718.16,333.63a16.57,16.57,0,1,0-23-4.77A16.55,16.55,0,0,0,718.16,333.63Z" transform="translate(-456.95 1.08)"/><path class="cls-1" d="M763.08,305.77a17.88,17.88,0,1,0-24.73-5.18A17.89,17.89,0,0,0,763.08,305.77Z" transform="translate(-456.95 1.08)"/><path class="cls-1" d="M807.56,277.17a18.33,18.33,0,1,0-25.36-5.3A18.34,18.34,0,0,0,807.56,277.17Z" transform="translate(-456.95 1.08)"/><path class="cls-1" d="M851.65,247.93a18,18,0,1,0-25-5.19A18,18,0,0,0,851.65,247.93Z" transform="translate(-456.95 1.08)"/><path class="cls-1" d="M895.41,218.24a17.16,17.16,0,1,0-23.77-5A17.17,17.17,0,0,0,895.41,218.24Z" transform="translate(-456.95 1.08)"/><path class="cls-1" d="M938.75,187.91a15.55,15.55,0,1,0-21.52-4.49A15.57,15.57,0,0,0,938.75,187.91Z" transform="translate(-456.95 1.08)"/><path class="cls-1" d="M981.77,157.09a13.33,13.33,0,1,0-18.46-3.86A13.34,13.34,0,0,0,981.77,157.09Z" transform="translate(-456.95 1.08)"/><path class="cls-1" d="M1024.56,125.9a10.69,10.69,0,1,0-14.83-3.07A10.7,10.7,0,0,0,1024.56,125.9Z" transform="translate(-456.95 1.08)"/><path class="cls-1" d="M1067.18,94.47a7.76,7.76,0,1,0-10.75-2.24A7.77,7.77,0,0,0,1067.18,94.47Z" transform="translate(-456.95 1.08)"/><path class="cls-1" d="M1109.57,62.69a4.4,4.4,0,1,0-6.1-1.27A4.41,4.41,0,0,0,1109.57,62.69Z" transform="translate(-456.95 1.08)"/><path class="cls-1" d="M1151.87,30.78a.89.89,0,0,0,.25-1.23.87.87,0,0,0-1.46,1A.9.9,0,0,0,1151.87,30.78Z" transform="translate(-456.95 1.08)"/><path class="cls-1" d="M473.93,539.81a2.34,2.34,0,1,0-3.24-.67A2.33,2.33,0,0,0,473.93,539.81Z" transform="translate(-456.95 1.08)"/><path class="cls-1" d="M520.25,514a6.16,6.16,0,1,0-8.53-1.77A6.15,6.15,0,0,0,520.25,514Z" transform="translate(-456.95 1.08)"/><path class="cls-1" d="M566.49,488.13a9.83,9.83,0,1,0-13.6-2.84A9.84,9.84,0,0,0,566.49,488.13Z" transform="translate(-456.95 1.08)"/><path class="cls-1" d="M612.58,462a13.2,13.2,0,1,0-18.29-3.82A13.24,13.24,0,0,0,612.58,462Z" transform="translate(-456.95 1.08)"/><path class="cls-1" d="M658.41,435.46a16.13,16.13,0,1,0-22.32-4.67A16.15,16.15,0,0,0,658.41,435.46Z" transform="translate(-456.95 1.08)"/><path class="cls-1" d="M704.08,408.69a18.76,18.76,0,1,0-26-5.42A18.79,18.79,0,0,0,704.08,408.69Z" transform="translate(-456.95 1.08)"/><path class="cls-1" d="M749.54,381.54a21,21,0,1,0-29.06-6A20.95,20.95,0,0,0,749.54,381.54Z" transform="translate(-456.95 1.08)"/><path class="cls-1" d="M794.55,353.81a22.44,22.44,0,1,0-31-6.49A22.44,22.44,0,0,0,794.55,353.81Z" transform="translate(-456.95 1.08)"/><path class="cls-1" d="M839,325.22a22.88,22.88,0,1,0-31.66-6.63A22.9,22.9,0,0,0,839,325.22Z" transform="translate(-456.95 1.08)"/><path class="cls-1" d="M883.21,296.1a22.73,22.73,0,1,0-31.48-6.56A22.73,22.73,0,0,0,883.21,296.1Z" transform="translate(-456.95 1.08)"/><path class="cls-1" d="M926.79,266.14a21.56,21.56,0,1,0-29.86-6.22A21.56,21.56,0,0,0,926.79,266.14Z" transform="translate(-456.95 1.08)"/><path class="cls-1" d="M970,235.57a19.65,19.65,0,1,0-27.2-5.67A19.67,19.67,0,0,0,970,235.57Z" transform="translate(-456.95 1.08)"/><path class="cls-1" d="M1012.84,204.52a17.16,17.16,0,1,0-23.76-5A17.16,17.16,0,0,0,1012.84,204.52Z" transform="translate(-456.95 1.08)"/><path class="cls-1" d="M1055.47,173.09a14.23,14.23,0,1,0-19.7-4.11A14.24,14.24,0,0,0,1055.47,173.09Z" transform="translate(-456.95 1.08)"/><path class="cls-1" d="M1097.84,141.28a10.84,10.84,0,1,0-15-3.13A10.84,10.84,0,0,0,1097.84,141.28Z" transform="translate(-456.95 1.08)"/><path class="cls-1" d="M1140.23,109.49a7.48,7.48,0,1,0-10.36-2.15A7.48,7.48,0,0,0,1140.23,109.49Z" transform="translate(-456.95 1.08)"/><path class="cls-1" d="M1182.36,77.32a3.65,3.65,0,1,0-5-1.06A3.62,3.62,0,0,0,1182.36,77.32Z" transform="translate(-456.95 1.08)"/><path class="cls-1" d="M457.62,611.43a.43.43,0,0,0,.13-.61.44.44,0,1,0-.73.48A.43.43,0,0,0,457.62,611.43Z" transform="translate(-456.95 1.08)"/><path class="cls-1" d="M504.12,585.9a4.55,4.55,0,1,0-6.31-1.32A4.54,4.54,0,0,0,504.12,585.9Z" transform="translate(-456.95 1.08)"/><path class="cls-1" d="M550.59,560.36a8.66,8.66,0,1,0-12-2.51A8.66,8.66,0,0,0,550.59,560.36Z" transform="translate(-456.95 1.08)"/><path class="cls-1" d="M597,534.69a12.61,12.61,0,1,0-17.46-3.64A12.59,12.59,0,0,0,597,534.69Z" transform="translate(-456.95 1.08)"/><path class="cls-1" d="M643.16,508.66A16.13,16.13,0,1,0,620.82,504,16.14,16.14,0,0,0,643.16,508.66Z" transform="translate(-456.95 1.08)"/><path class="cls-1" d="M689.31,482.63A19.65,19.65,0,1,0,662.1,477,19.64,19.64,0,0,0,689.31,482.63Z" transform="translate(-456.95 1.08)"/><path class="cls-1" d="M735.23,456.24a22.72,22.72,0,1,0-31.46-6.58A22.74,22.74,0,0,0,735.23,456.24Z" transform="translate(-456.95 1.08)"/><path class="cls-1" d="M780.85,429.33a25.23,25.23,0,1,0-34.92-7.28A25.21,25.21,0,0,0,780.85,429.33Z" transform="translate(-456.95 1.08)"/><path class="cls-1" d="M825.94,401.73A26.84,26.84,0,1,0,788.81,394,26.84,26.84,0,0,0,825.94,401.73Z" transform="translate(-456.95 1.08)"/><path class="cls-1" d="M870.57,373.35a27.56,27.56,0,1,0-38.16-8A27.56,27.56,0,0,0,870.57,373.35Z" transform="translate(-456.95 1.08)"/><path class="cls-1" d="M914.59,344A27.12,27.12,0,1,0,877,336.18,27.12,27.12,0,0,0,914.59,344Z" transform="translate(-456.95 1.08)"/><path class="cls-1" d="M958.09,313.93a25.8,25.8,0,1,0-35.74-7.45A25.78,25.78,0,0,0,958.09,313.93Z" transform="translate(-456.95 1.08)"/><path class="cls-1" d="M1001.11,283.11a23.6,23.6,0,1,0-32.68-6.81A23.61,23.61,0,0,0,1001.11,283.11Z" transform="translate(-456.95 1.08)"/><path class="cls-1" d="M1043.74,251.7a20.68,20.68,0,1,0-28.62-6A20.69,20.69,0,0,0,1043.74,251.7Z" transform="translate(-456.95 1.08)"/><path class="cls-1" d="M1086.13,219.9a17.3,17.3,0,1,0-24-5A17.29,17.29,0,0,0,1086.13,219.9Z" transform="translate(-456.95 1.08)"/><path class="cls-1" d="M1128.43,188a13.78,13.78,0,1,0-19.08-4A13.76,13.76,0,0,0,1128.43,188Z" transform="translate(-456.95 1.08)"/><path class="cls-1" d="M1170.57,155.82a10,10,0,1,0-13.81-2.89A10,10,0,0,0,1170.57,155.82Z" transform="translate(-456.95 1.08)"/><path class="cls-1" d="M1212.63,123.54a6,6,0,1,0-8.33-1.75A6,6,0,0,0,1212.63,123.54Z" transform="translate(-456.95 1.08)"/><path class="cls-1" d="M1254.54,91a1.77,1.77,0,0,0-1.94-3,1.77,1.77,0,1,0,1.94,3Z" transform="translate(-456.95 1.08)"/><path class="cls-1" d="M487.57,657.15a2.2,2.2,0,1,0-2.41-3.68,2.2,2.2,0,0,0,2.41,3.68Z" transform="translate(-456.95 1.08)"/><path class="cls-1" d="M534.21,631.84a6.6,6.6,0,1,0-9.13-1.91A6.57,6.57,0,0,0,534.21,631.84Z" transform="translate(-456.95 1.08)"/><path class="cls-1" d="M580.69,606.31a10.7,10.7,0,1,0-14.82-3.1A10.71,10.71,0,0,0,580.69,606.31Z" transform="translate(-456.95 1.08)"/><path class="cls-1" d="M627.17,580.77a14.81,14.81,0,1,0-20.49-4.29A14.83,14.83,0,0,0,627.17,580.77Z" transform="translate(-456.95 1.08)"/><path class="cls-1" d="M673.58,555.11a18.77,18.77,0,1,0-26-5.44A18.77,18.77,0,0,0,673.58,555.11Z" transform="translate(-456.95 1.08)"/><path class="cls-1" d="M720,529.44a22.72,22.72,0,1,0-31.46-6.57A22.74,22.74,0,0,0,720,529.44Z" transform="translate(-456.95 1.08)"/><path class="cls-1" d="M766.05,503.29a26.1,26.1,0,1,0-36.14-7.54A26.11,26.11,0,0,0,766.05,503.29Z" transform="translate(-456.95 1.08)"/><path class="cls-1" d="M812,476.87a29.18,29.18,0,1,0-40.42-8.41A29.17,29.17,0,0,0,812,476.87Z" transform="translate(-456.95 1.08)"/><path class="cls-1" d="M857.32,449.64a31.24,31.24,0,1,0-43.22-9A31.23,31.23,0,0,0,857.32,449.64Z" transform="translate(-456.95 1.08)"/><path class="cls-1" d="M902,421.4a32.12,32.12,0,1,0-44.44-9.29A32.14,32.14,0,0,0,902,421.4Z" transform="translate(-456.95 1.08)"/><path class="cls-1" d="M946.06,392.05a31.68,31.68,0,1,0-43.89-9.14A31.69,31.69,0,0,0,946.06,392.05Z" transform="translate(-456.95 1.08)"/><path class="cls-1" d="M989.32,361.6A29.91,29.91,0,1,0,947.89,353,29.91,29.91,0,0,0,989.32,361.6Z" transform="translate(-456.95 1.08)"/><path class="cls-1" d="M1032,330.3a27.13,27.13,0,1,0-37.58-7.83A27.14,27.14,0,0,0,1032,330.3Z" transform="translate(-456.95 1.08)"/><path class="cls-1" d="M1074.48,298.62a23.9,23.9,0,1,0-33.1-6.9A23.89,23.89,0,0,0,1074.48,298.62Z" transform="translate(-456.95 1.08)"/><path class="cls-1" d="M1116.63,266.46a20.09,20.09,0,1,0-27.82-5.81A20.08,20.08,0,0,0,1116.63,266.46Z" transform="translate(-456.95 1.08)"/><path class="cls-1" d="M1158.69,234.17a16.13,16.13,0,1,0-22.32-4.67A16.13,16.13,0,0,0,1158.69,234.17Z" transform="translate(-456.95 1.08)"/><path class="cls-1" d="M1200.74,201.87a12.16,12.16,0,1,0-16.84-3.51A12.16,12.16,0,0,0,1200.74,201.87Z" transform="translate(-456.95 1.08)"/><path class="cls-1" d="M1242.65,169.36a7.92,7.92,0,1,0-11-2.31A7.92,7.92,0,0,0,1242.65,169.36Z" transform="translate(-456.95 1.08)"/><path class="cls-1" d="M1284.56,136.82a3.66,3.66,0,1,0-5.07-1.07A3.66,3.66,0,0,0,1284.56,136.82Z" transform="translate(-456.95 1.08)"/><path class="cls-1" d="M517.18,702.36a3.37,3.37,0,1,0-4.68-1A3.4,3.4,0,0,0,517.18,702.36Z" transform="translate(-456.95 1.08)"/><path class="cls-1" d="M563.91,677.18a7.92,7.92,0,1,0-11-2.29A7.92,7.92,0,0,0,563.91,677.18Z" transform="translate(-456.95 1.08)"/><path class="cls-1" d="M610.54,651.88a12.31,12.31,0,1,0-17-3.56A12.31,12.31,0,0,0,610.54,651.88Z" transform="translate(-456.95 1.08)"/><path class="cls-1" d="M657.1,626.46a16.56,16.56,0,1,0-22.93-4.79A16.55,16.55,0,0,0,657.1,626.46Z" transform="translate(-456.95 1.08)"/><path class="cls-1" d="M703.75,601.17a21,21,0,1,0-29-6A21,21,0,0,0,703.75,601.17Z" transform="translate(-456.95 1.08)"/><path class="cls-1" d="M750.31,575.75a25.21,25.21,0,1,0-34.92-7.28A25.22,25.22,0,0,0,750.31,575.75Z" transform="translate(-456.95 1.08)"/><path class="cls-1" d="M796.72,550.1a29.19,29.19,0,1,0-40.42-8.43A29.18,29.18,0,0,0,796.72,550.1Z" transform="translate(-456.95 1.08)"/><path class="cls-1" d="M842.9,524.06a32.7,32.7,0,1,0-45.29-9.45A32.72,32.72,0,0,0,842.9,524.06Z" transform="translate(-456.95 1.08)"/><path class="cls-1" d="M887.1,495.1a32.7,32.7,0,1,0-45.27-9.46A32.71,32.71,0,0,0,887.1,495.1Z" transform="translate(-456.95 1.08)"/><path class="cls-1" d="M931.34,466.13a32.7,32.7,0,1,0-45.28-9.46A32.72,32.72,0,0,0,931.34,466.13Z" transform="translate(-456.95 1.08)"/><path class="cls-1" d="M975.59,437.14a32.7,32.7,0,1,0-45.3-9.45A32.7,32.7,0,0,0,975.59,437.14Z" transform="translate(-456.95 1.08)"/><path class="cls-1" d="M1019.82,408.17a32.7,32.7,0,1,0-45.29-9.45A32.71,32.71,0,0,0,1019.82,408.17Z" transform="translate(-456.95 1.08)"/><path class="cls-1" d="M1062.76,377.22a30.35,30.35,0,1,0-42-8.76A30.35,30.35,0,0,0,1062.76,377.22Z" transform="translate(-456.95 1.08)"/><path class="cls-1" d="M1104.9,345.06a26.54,26.54,0,1,0-36.75-7.67A26.56,26.56,0,0,0,1104.9,345.06Z" transform="translate(-456.95 1.08)"/><path class="cls-1" d="M1146.89,312.65a22.43,22.43,0,1,0-31.07-6.48A22.44,22.44,0,0,0,1146.89,312.65Z" transform="translate(-456.95 1.08)"/><path class="cls-1" d="M1188.7,280a18,18,0,1,0-25-5.21A18,18,0,0,0,1188.7,280Z" transform="translate(-456.95 1.08)"/><path class="cls-1" d="M1230.61,247.48a13.79,13.79,0,1,0-19.08-4A13.81,13.81,0,0,0,1230.61,247.48Z" transform="translate(-456.95 1.08)"/><path class="cls-1" d="M1272.42,214.81a9.38,9.38,0,1,0-13-2.72A9.37,9.37,0,0,0,1272.42,214.81Z" transform="translate(-456.95 1.08)"/><path class="cls-1" d="M1314.26,182.17a5,5,0,1,0-5.47-8.35,5,5,0,0,0,5.47,8.35Z" transform="translate(-456.95 1.08)"/><path class="cls-1" d="M1356,149.39a.47.47,0,0,0,.13-.64.45.45,0,0,0-.61-.09.4.4,0,0,0-.13.58A.44.44,0,0,0,1356,149.39Z" transform="translate(-456.95 1.08)"/><path class="cls-1" d="M546.63,747.32a4.24,4.24,0,1,0-5.88-1.24A4.24,4.24,0,0,0,546.63,747.32Z" transform="translate(-456.95 1.08)"/><path class="cls-1" d="M593.36,722.14a8.79,8.79,0,1,0-12.19-2.54A8.79,8.79,0,0,0,593.36,722.14Z" transform="translate(-456.95 1.08)"/><path class="cls-1" d="M640.09,697a13.35,13.35,0,1,0-18.49-3.87A13.35,13.35,0,0,0,640.09,697Z" transform="translate(-456.95 1.08)"/><path class="cls-1" d="M686.8,671.81A17.88,17.88,0,1,0,662,666.63,17.89,17.89,0,0,0,686.8,671.81Z" transform="translate(-456.95 1.08)"/><path class="cls-1" d="M733.53,646.63a22.42,22.42,0,1,0-31.07-6.48A22.41,22.41,0,0,0,733.53,646.63Z" transform="translate(-456.95 1.08)"/><path class="cls-1" d="M780.17,621.34A26.83,26.83,0,1,0,743,613.58,26.86,26.86,0,0,0,780.17,621.34Z" transform="translate(-456.95 1.08)"/><path class="cls-1" d="M826.82,596.05a31.23,31.23,0,1,0-43.23-9A31.26,31.26,0,0,0,826.82,596.05Z" transform="translate(-456.95 1.08)"/><path class="cls-1" d="M871.87,568.29a32.7,32.7,0,1,0-45.29-9.44A32.71,32.71,0,0,0,871.87,568.29Z" transform="translate(-456.95 1.08)"/><path class="cls-1" d="M916.07,539.33a32.7,32.7,0,1,0-45.26-9.46A32.71,32.71,0,0,0,916.07,539.33Z" transform="translate(-456.95 1.08)"/><path class="cls-1" d="M960.31,510.35A32.7,32.7,0,1,0,915,500.9,32.69,32.69,0,0,0,960.31,510.35Z" transform="translate(-456.95 1.08)"/><path class="cls-1" d="M1004.56,481.36a32.7,32.7,0,1,0-45.29-9.43A32.7,32.7,0,0,0,1004.56,481.36Z" transform="translate(-456.95 1.08)"/><path class="cls-1" d="M1048.79,452.39a32.7,32.7,0,1,0-45.28-9.44A32.7,32.7,0,0,0,1048.79,452.39Z" transform="translate(-456.95 1.08)"/><path class="cls-1" d="M1093,423.42a32.7,32.7,0,1,0-45.29-9.43A32.7,32.7,0,0,0,1093,423.42Z" transform="translate(-456.95 1.08)"/><path class="cls-1" d="M1134.84,390.77a28.3,28.3,0,1,0-39.19-8.17A28.28,28.28,0,0,0,1134.84,390.77Z" transform="translate(-456.95 1.08)"/><path class="cls-1" d="M1176.67,358.11a23.9,23.9,0,1,0-33.1-6.9A23.9,23.9,0,0,0,1176.67,358.11Z" transform="translate(-456.95 1.08)"/><path class="cls-1" d="M1218.41,325.33a19.36,19.36,0,1,0-26.81-5.59A19.35,19.35,0,0,0,1218.41,325.33Z" transform="translate(-456.95 1.08)"/><path class="cls-1" d="M1260.15,292.57a14.81,14.81,0,1,0-20.51-4.3A14.84,14.84,0,0,0,1260.15,292.57Z" transform="translate(-456.95 1.08)"/><path class="cls-1" d="M1302,259.91a10.41,10.41,0,1,0-14.43-3A10.43,10.43,0,0,0,1302,259.91Z" transform="translate(-456.95 1.08)"/><path class="cls-1" d="M1343.71,227.12a5.85,5.85,0,1,0-8.11-1.71A5.86,5.86,0,0,0,1343.71,227.12Z" transform="translate(-456.95 1.08)"/><path class="cls-1" d="M1385.38,194.24a1.18,1.18,0,0,0-1.3-2,1.18,1.18,0,0,0,1.3,2Z" transform="translate(-456.95 1.08)"/><path class="cls-1" d="M575.77,791.8a4.55,4.55,0,1,0-6.31-1.32A4.55,4.55,0,0,0,575.77,791.8Z" transform="translate(-456.95 1.08)"/><path class="cls-1" d="M622.59,766.75a9.24,9.24,0,1,0-12.81-2.68A9.24,9.24,0,0,0,622.59,766.75Z" transform="translate(-456.95 1.08)"/><path class="cls-1" d="M669.3,741.58a13.79,13.79,0,1,0-19.09-4A13.79,13.79,0,0,0,669.3,741.58Z" transform="translate(-456.95 1.08)"/><path class="cls-1" d="M716,716.4a18.32,18.32,0,1,0-25.38-5.29A18.33,18.33,0,0,0,716,716.4Z" transform="translate(-456.95 1.08)"/><path class="cls-1" d="M762.75,691.24a22.88,22.88,0,1,0-31.68-6.62A22.88,22.88,0,0,0,762.75,691.24Z" transform="translate(-456.95 1.08)"/><path class="cls-1" d="M809.54,666.18a27.57,27.57,0,1,0-38.16-8A27.54,27.54,0,0,0,809.54,666.18Z" transform="translate(-456.95 1.08)"/><path class="cls-1" d="M856.26,641a32.11,32.11,0,1,0-44.44-9.28A32.11,32.11,0,0,0,856.26,641Z" transform="translate(-456.95 1.08)"/><path class="cls-1" d="M900.84,612.52a32.7,32.7,0,1,0-45.29-9.44A32.7,32.7,0,0,0,900.84,612.52Z" transform="translate(-456.95 1.08)"/><path class="cls-1" d="M945.05,583.56a32.7,32.7,0,1,0-45.27-9.46A32.71,32.71,0,0,0,945.05,583.56Z" transform="translate(-456.95 1.08)"/><path class="cls-1" d="M989.28,554.58A32.69,32.69,0,1,0,944,545.13,32.69,32.69,0,0,0,989.28,554.58Z" transform="translate(-456.95 1.08)"/><path class="cls-1" d="M1033.54,525.6a32.7,32.7,0,1,0-45.3-9.44A32.71,32.71,0,0,0,1033.54,525.6Z" transform="translate(-456.95 1.08)"/><path class="cls-1" d="M1077.77,496.62a32.69,32.69,0,1,0-45.29-9.44A32.7,32.7,0,0,0,1077.77,496.62Z" transform="translate(-456.95 1.08)"/><path class="cls-1" d="M1122,467.65a32.7,32.7,0,1,0-45.3-9.43A32.7,32.7,0,0,0,1122,467.65Z" transform="translate(-456.95 1.08)"/><path class="cls-1" d="M1164.3,435.73a29.18,29.18,0,1,0-40.4-8.43A29.19,29.19,0,0,0,1164.3,435.73Z" transform="translate(-456.95 1.08)"/><path class="cls-1" d="M1206,402.84a24.49,24.49,0,1,0-33.91-7.09A24.5,24.5,0,0,0,1206,402.84Z" transform="translate(-456.95 1.08)"/><path class="cls-1" d="M1247.7,370.05a19.94,19.94,0,1,0-27.63-5.75A19.94,19.94,0,0,0,1247.7,370.05Z" transform="translate(-456.95 1.08)"/><path class="cls-1" d="M1289.35,337.15a15.24,15.24,0,1,0-21.1-4.41A15.24,15.24,0,0,0,1289.35,337.15Z" transform="translate(-456.95 1.08)"/><path class="cls-1" d="M1331.1,304.39a10.7,10.7,0,1,0-14.81-3.12A10.72,10.72,0,0,0,1331.1,304.39Z" transform="translate(-456.95 1.08)"/><path class="cls-1" d="M1372.84,271.6a6.15,6.15,0,1,0-8.54-1.78A6.16,6.16,0,0,0,1372.84,271.6Z" transform="translate(-456.95 1.08)"/><path class="cls-1" d="M1414.58,238.83a1.61,1.61,0,1,0-2.24-.48A1.61,1.61,0,0,0,1414.58,238.83Z" transform="translate(-456.95 1.08)"/><path class="cls-1" d="M604.66,835.9a4.39,4.39,0,1,0-6.09-1.26A4.41,4.41,0,0,0,604.66,835.9Z" transform="translate(-456.95 1.08)"/><path class="cls-1" d="M651.39,810.73a8.94,8.94,0,1,0-12.4-2.56A8.93,8.93,0,0,0,651.39,810.73Z" transform="translate(-456.95 1.08)"/><path class="cls-1" d="M698.12,785.57a13.5,13.5,0,1,0-18.68-3.9A13.5,13.5,0,0,0,698.12,785.57Z" transform="translate(-456.95 1.08)"/><path class="cls-1" d="M744.83,760.39a18,18,0,1,0-25-5.21A18,18,0,0,0,744.83,760.39Z" transform="translate(-456.95 1.08)"/><path class="cls-1" d="M791.64,735.34a22.72,22.72,0,1,0-31.46-6.56A22.74,22.74,0,0,0,791.64,735.34Z" transform="translate(-456.95 1.08)"/><path class="cls-1" d="M838.28,710.05a27.13,27.13,0,1,0-37.56-7.83A27.16,27.16,0,0,0,838.28,710.05Z" transform="translate(-456.95 1.08)"/><path class="cls-1" d="M885,684.87a31.67,31.67,0,1,0-43.83-9.13A31.69,31.69,0,0,0,885,684.87Z" transform="translate(-456.95 1.08)"/><path class="cls-1" d="M929.82,656.75a32.7,32.7,0,1,0-45.28-9.43A32.7,32.7,0,0,0,929.82,656.75Z" transform="translate(-456.95 1.08)"/><path class="cls-1" d="M974,627.79a32.7,32.7,0,1,0-45.25-9.44A32.71,32.71,0,0,0,974,627.79Z" transform="translate(-456.95 1.08)"/><path class="cls-1" d="M1018.26,598.82A32.7,32.7,0,1,0,973,589.38,32.7,32.7,0,0,0,1018.26,598.82Z" transform="translate(-456.95 1.08)"/><path class="cls-1" d="M1062.51,569.83a32.7,32.7,0,1,0-45.28-9.43A32.69,32.69,0,0,0,1062.51,569.83Z" transform="translate(-456.95 1.08)"/><path class="cls-1" d="M1106.74,540.86a32.7,32.7,0,1,0-45.28-9.43A32.7,32.7,0,0,0,1106.74,540.86Z" transform="translate(-456.95 1.08)"/><path class="cls-1" d="M1151,511.88a32.7,32.7,0,1,0-45.29-9.42A32.69,32.69,0,0,0,1151,511.88Z" transform="translate(-456.95 1.08)"/><path class="cls-1" d="M1193,479.61a28.75,28.75,0,1,0-39.78-8.31A28.72,28.72,0,0,0,1193,479.61Z" transform="translate(-456.95 1.08)"/><path class="cls-1" d="M1234.78,446.82a24.19,24.19,0,1,0-33.51-7A24.21,24.21,0,0,0,1234.78,446.82Z" transform="translate(-456.95 1.08)"/><path class="cls-1" d="M1276.51,414a19.64,19.64,0,1,0-27.2-5.66A19.64,19.64,0,0,0,1276.51,414Z" transform="translate(-456.95 1.08)"/><path class="cls-1" d="M1318.25,381.27a15.1,15.1,0,1,0-20.89-4.37A15.1,15.1,0,0,0,1318.25,381.27Z" transform="translate(-456.95 1.08)"/><path class="cls-1" d="M1360,348.5a10.56,10.56,0,1,0-14.59-3.07A10.58,10.58,0,0,0,1360,348.5Z" transform="translate(-456.95 1.08)"/><path class="cls-1" d="M1401.74,315.71a6,6,0,1,0-8.33-1.72A6,6,0,0,0,1401.74,315.71Z" transform="translate(-456.95 1.08)"/><path class="cls-1" d="M1443.41,282.83a1.33,1.33,0,0,0-1.46-2.22,1.33,1.33,0,0,0,1.46,2.22Z" transform="translate(-456.95 1.08)"/><path class="cls-1" d="M633.31,879.65a3.81,3.81,0,1,0-5.26-1.11A3.81,3.81,0,0,0,633.31,879.65Z" transform="translate(-456.95 1.08)"/><path class="cls-1" d="M680.05,854.48a8.36,8.36,0,1,0-11.58-2.42A8.36,8.36,0,0,0,680.05,854.48Z" transform="translate(-456.95 1.08)"/><path class="cls-1" d="M726.69,829.19A12.76,12.76,0,1,0,709,825.5,12.75,12.75,0,0,0,726.69,829.19Z" transform="translate(-456.95 1.08)"/><path class="cls-1" d="M773.32,803.89a17.15,17.15,0,1,0-23.74-5A17.16,17.16,0,0,0,773.32,803.89Z" transform="translate(-456.95 1.08)"/><path class="cls-1" d="M820,778.59a21.56,21.56,0,1,0-29.85-6.22A21.55,21.55,0,0,0,820,778.59Z" transform="translate(-456.95 1.08)"/><path class="cls-1" d="M866.53,753.18a25.8,25.8,0,1,0-35.72-7.46A25.81,25.81,0,0,0,866.53,753.18Z" transform="translate(-456.95 1.08)"/><path class="cls-1" d="M913,727.64a29.91,29.91,0,1,0-41.4-8.65A29.91,29.91,0,0,0,913,727.64Z" transform="translate(-456.95 1.08)"/><path class="cls-1" d="M958.79,701a32.7,32.7,0,1,0-45.28-9.43A32.7,32.7,0,0,0,958.79,701Z" transform="translate(-456.95 1.08)"/><path class="cls-1" d="M1003,672a32.7,32.7,0,1,0-45.26-9.44A32.7,32.7,0,0,0,1003,672Z" transform="translate(-456.95 1.08)"/><path class="cls-1" d="M1047.23,643.05a32.7,32.7,0,1,0-45.27-9.44A32.69,32.69,0,0,0,1047.23,643.05Z" transform="translate(-456.95 1.08)"/><path class="cls-1" d="M1091.49,614.06a32.7,32.7,0,1,0-45.29-9.43A32.7,32.7,0,0,0,1091.49,614.06Z" transform="translate(-456.95 1.08)"/><path class="cls-1" d="M1135.71,585.09a32.7,32.7,0,1,0-45.28-9.44A32.69,32.69,0,0,0,1135.71,585.09Z" transform="translate(-456.95 1.08)"/><path class="cls-1" d="M1179.14,554.89a31.23,31.23,0,1,0-43.25-9A31.24,31.24,0,0,0,1179.14,554.89Z" transform="translate(-456.95 1.08)"/><path class="cls-1" d="M1221.12,522.48a27.13,27.13,0,1,0-37.57-7.82A27.12,27.12,0,0,0,1221.12,522.48Z" transform="translate(-456.95 1.08)"/><path class="cls-1" d="M1263,490a22.88,22.88,0,1,0-31.68-6.6A22.87,22.87,0,0,0,1263,490Z" transform="translate(-456.95 1.08)"/><path class="cls-1" d="M1304.93,457.41a18.62,18.62,0,1,0-25.8-5.36A18.63,18.63,0,0,0,1304.93,457.41Z" transform="translate(-456.95 1.08)"/><path class="cls-1" d="M1346.74,424.76a14.21,14.21,0,1,0-19.69-4.1A14.23,14.23,0,0,0,1346.74,424.76Z" transform="translate(-456.95 1.08)"/><path class="cls-1" d="M1388.57,392.13a9.83,9.83,0,1,0-13.61-2.86A9.83,9.83,0,0,0,1388.57,392.13Z" transform="translate(-456.95 1.08)"/><path class="cls-1" d="M1430.32,359.34a5.29,5.29,0,1,0-7.32-1.54A5.28,5.28,0,0,0,1430.32,359.34Z" transform="translate(-456.95 1.08)"/><path class="cls-1" d="M1472.05,326.56a.74.74,0,0,0,.22-1,.75.75,0,0,0-1-.2.73.73,0,0,0-.21,1A.73.73,0,0,0,1472.05,326.56Z" transform="translate(-456.95 1.08)"/><path class="cls-1" d="M661.66,922.91a2.64,2.64,0,1,0-3.65-.77A2.64,2.64,0,0,0,661.66,922.91Z" transform="translate(-456.95 1.08)"/><path class="cls-1" d="M708.3,897.61a7,7,0,1,0-9.74-2A7,7,0,0,0,708.3,897.61Z" transform="translate(-456.95 1.08)"/><path class="cls-1" d="M754.85,872.19a11.29,11.29,0,1,0-15.63-3.25A11.29,11.29,0,0,0,754.85,872.19Z" transform="translate(-456.95 1.08)"/><path class="cls-1" d="M801.41,846.76a15.54,15.54,0,1,0-21.51-4.47A15.53,15.53,0,0,0,801.41,846.76Z" transform="translate(-456.95 1.08)"/><path class="cls-1" d="M847.91,821.24a19.65,19.65,0,1,0-27.21-5.67A19.67,19.67,0,0,0,847.91,821.24Z" transform="translate(-456.95 1.08)"/><path class="cls-1" d="M894.3,795.56a23.6,23.6,0,1,0-32.68-6.8A23.57,23.57,0,0,0,894.3,795.56Z" transform="translate(-456.95 1.08)"/><path class="cls-1" d="M940.46,769.54a27.13,27.13,0,1,0-37.54-7.83A27.15,27.15,0,0,0,940.46,769.54Z" transform="translate(-456.95 1.08)"/><path class="cls-1" d="M986.48,743.26a30.36,30.36,0,1,0-42-8.75A30.35,30.35,0,0,0,986.48,743.26Z" transform="translate(-456.95 1.08)"/><path class="cls-1" d="M1032,716.26a32.7,32.7,0,1,0-45.25-9.44A32.7,32.7,0,0,0,1032,716.26Z" transform="translate(-456.95 1.08)"/><path class="cls-1" d="M1076.21,687.28a32.7,32.7,0,1,0-45.26-9.43A32.69,32.69,0,0,0,1076.21,687.28Z" transform="translate(-456.95 1.08)"/><path class="cls-1" d="M1120.46,658.29a32.7,32.7,0,1,0-45.28-9.42A32.68,32.68,0,0,0,1120.46,658.29Z" transform="translate(-456.95 1.08)"/><path class="cls-1" d="M1163.89,628.1a31.24,31.24,0,1,0-43.25-9A31.22,31.22,0,0,0,1163.89,628.1Z" transform="translate(-456.95 1.08)"/><path class="cls-1" d="M1206.51,596.66a28.3,28.3,0,1,0-39.19-8.15A28.3,28.3,0,0,0,1206.51,596.66Z" transform="translate(-456.95 1.08)"/><path class="cls-1" d="M1248.82,564.76a24.78,24.78,0,1,0-34.31-7.16A24.77,24.77,0,0,0,1248.82,564.76Z" transform="translate(-456.95 1.08)"/><path class="cls-1" d="M1291,532.6a21,21,0,1,0-29-6.06A21,21,0,0,0,1291,532.6Z" transform="translate(-456.95 1.08)"/><path class="cls-1" d="M1332.94,500.18a16.86,16.86,0,1,0-23.34-4.86A16.86,16.86,0,0,0,1332.94,500.18Z" transform="translate(-456.95 1.08)"/><path class="cls-1" d="M1374.92,467.77a12.75,12.75,0,1,0-17.66-3.68A12.76,12.76,0,0,0,1374.92,467.77Z" transform="translate(-456.95 1.08)"/><path class="cls-1" d="M1416.81,435.23a8.49,8.49,0,1,0-11.76-2.44A8.47,8.47,0,0,0,1416.81,435.23Z" transform="translate(-456.95 1.08)"/><path class="cls-1" d="M1458.64,402.58a4.1,4.1,0,1,0-5.68-1.18A4.08,4.08,0,0,0,1458.64,402.58Z" transform="translate(-456.95 1.08)"/><path class="cls-1" d="M689.74,965.79a1,1,0,0,0,.29-1.42,1,1,0,0,0-1.41-.29,1,1,0,1,0,1.12,1.71Z" transform="translate(-456.95 1.08)"/><path class="cls-1" d="M736.32,940.37a5.29,5.29,0,1,0-7.31-1.53A5.27,5.27,0,0,0,736.32,940.37Z" transform="translate(-456.95 1.08)"/><path class="cls-1" d="M782.79,914.83a9.39,9.39,0,1,0-13-2.71A9.35,9.35,0,0,0,782.79,914.83Z" transform="translate(-456.95 1.08)"/><path class="cls-1" d="M829.18,889.17a13.34,13.34,0,1,0-18.46-3.86A13.35,13.35,0,0,0,829.18,889.17Z" transform="translate(-456.95 1.08)"/><path class="cls-1" d="M875.52,863.39a17.16,17.16,0,1,0-23.76-5A17.19,17.19,0,0,0,875.52,863.39Z" transform="translate(-456.95 1.08)"/><path class="cls-1" d="M921.67,837.36a20.68,20.68,0,1,0-28.62-6A20.71,20.71,0,0,0,921.67,837.36Z" transform="translate(-456.95 1.08)"/><path class="cls-1" d="M967.66,811.07a23.89,23.89,0,1,0-33.07-6.9A23.89,23.89,0,0,0,967.66,811.07Z" transform="translate(-456.95 1.08)"/><path class="cls-1" d="M1013.37,784.3a26.53,26.53,0,1,0-36.75-7.66A26.52,26.52,0,0,0,1013.37,784.3Z" transform="translate(-456.95 1.08)"/><path class="cls-1" d="M1058.53,756.8a28.29,28.29,0,1,0-39.16-8.16A28.32,28.32,0,0,0,1058.53,756.8Z" transform="translate(-456.95 1.08)"/><path class="cls-1" d="M1103.26,728.58a29.18,29.18,0,1,0-40.4-8.43A29.21,29.21,0,0,0,1103.26,728.58Z" transform="translate(-456.95 1.08)"/><path class="cls-1" d="M1147.27,699.22a28.74,28.74,0,1,0-39.82-8.28A28.74,28.74,0,0,0,1147.27,699.22Z" transform="translate(-456.95 1.08)"/><path class="cls-1" d="M1190.61,668.89a27.13,27.13,0,1,0-37.57-7.81A27.11,27.11,0,0,0,1190.61,668.89Z" transform="translate(-456.95 1.08)"/><path class="cls-1" d="M1233.56,638a24.78,24.78,0,1,0-34.3-7.16A24.76,24.76,0,0,0,1233.56,638Z" transform="translate(-456.95 1.08)"/><path class="cls-1" d="M1276.1,606.41a21.71,21.71,0,1,0-30-6.26A21.69,21.69,0,0,0,1276.1,606.41Z" transform="translate(-456.95 1.08)"/><path class="cls-1" d="M1318.48,574.61a18.33,18.33,0,1,0-25.37-5.28A18.33,18.33,0,0,0,1318.48,574.61Z" transform="translate(-456.95 1.08)"/><path class="cls-1" d="M1360.71,542.57a14.66,14.66,0,1,0-20.31-4.22A14.69,14.69,0,0,0,1360.71,542.57Z" transform="translate(-456.95 1.08)"/><path class="cls-1" d="M1402.77,510.29a10.7,10.7,0,1,0-14.8-3.1A10.71,10.71,0,0,0,1402.77,510.29Z" transform="translate(-456.95 1.08)"/><path class="cls-1" d="M1444.83,478a6.75,6.75,0,1,0-9.32-2A6.74,6.74,0,0,0,1444.83,478Z" transform="translate(-456.95 1.08)"/><path class="cls-1" d="M1486.74,445.47a2.49,2.49,0,1,0-3.46-.72A2.51,2.51,0,0,0,1486.74,445.47Z" transform="translate(-456.95 1.08)"/><path class="cls-1" d="M764.15,982.87a3.22,3.22,0,1,0-4.45-.9A3.21,3.21,0,0,0,764.15,982.87Z" transform="translate(-456.95 1.08)"/><path class="cls-1" d="M810.48,957.1a7,7,0,1,0-9.74-2A7,7,0,0,0,810.48,957.1Z" transform="translate(-456.95 1.08)"/><path class="cls-1" d="M856.71,931.19a10.7,10.7,0,1,0-14.8-3.08A10.69,10.69,0,0,0,856.71,931.19Z" transform="translate(-456.95 1.08)"/><path class="cls-1" d="M902.88,905.16a14.23,14.23,0,1,0-19.68-4.09A14.22,14.22,0,0,0,902.88,905.16Z" transform="translate(-456.95 1.08)"/><path class="cls-1" d="M948.79,878.76a17.3,17.3,0,1,0-23.93-5A17.29,17.29,0,0,0,948.79,878.76Z" transform="translate(-456.95 1.08)"/><path class="cls-1" d="M994.55,852.12a20.09,20.09,0,1,0-27.79-5.79A20.09,20.09,0,0,0,994.55,852.12Z" transform="translate(-456.95 1.08)"/><path class="cls-1" d="M1040.09,825.09a22.43,22.43,0,1,0-31-6.46A22.42,22.42,0,0,0,1040.09,825.09Z" transform="translate(-456.95 1.08)"/><path class="cls-1" d="M1085.1,797.36a23.9,23.9,0,1,0-33.06-6.89A23.9,23.9,0,0,0,1085.1,797.36Z" transform="translate(-456.95 1.08)"/><path class="cls-1" d="M1129.65,768.87a24.49,24.49,0,1,0-33.88-7A24.49,24.49,0,0,0,1129.65,768.87Z" transform="translate(-456.95 1.08)"/><path class="cls-1" d="M1173.75,739.64a24.2,24.2,0,1,0-33.5-7A24.17,24.17,0,0,0,1173.75,739.64Z" transform="translate(-456.95 1.08)"/><path class="cls-1" d="M1217.25,709.56a22.88,22.88,0,1,0-31.66-6.57A22.87,22.87,0,0,0,1217.25,709.56Z" transform="translate(-456.95 1.08)"/><path class="cls-1" d="M1260.45,679a21,21,0,1,0-29-6A21,21,0,0,0,1260.45,679Z" transform="translate(-456.95 1.08)"/><path class="cls-1" d="M1303.22,647.82a18.33,18.33,0,1,0-25.36-5.28A18.34,18.34,0,0,0,1303.22,647.82Z" transform="translate(-456.95 1.08)"/><path class="cls-1" d="M1345.77,616.27a15.24,15.24,0,1,0-21.09-4.4A15.24,15.24,0,0,0,1345.77,616.27Z" transform="translate(-456.95 1.08)"/><path class="cls-1" d="M1388.16,584.47a11.88,11.88,0,1,0-16.42-3.42A11.87,11.87,0,0,0,1388.16,584.47Z" transform="translate(-456.95 1.08)"/><path class="cls-1" d="M1430.46,552.57a8.37,8.37,0,1,0-11.56-2.41A8.35,8.35,0,0,0,1430.46,552.57Z" transform="translate(-456.95 1.08)"/><path class="cls-1" d="M1472.51,520.26a4.39,4.39,0,1,0-6.07-1.25A4.4,4.4,0,0,0,1472.51,520.26Z" transform="translate(-456.95 1.08)"/><path class="cls-1" d="M1514.59,488a.45.45,0,0,0,.14-.61.45.45,0,0,0-.63-.13.44.44,0,0,0-.12.62A.44.44,0,0,0,1514.59,488Z" transform="translate(-456.95 1.08)"/><path class="cls-1" d="M791.69,1024.91a.56.56,0,0,0,.16-.8.58.58,0,0,0-.8-.19.61.61,0,0,0-.18.84A.59.59,0,0,0,791.69,1024.91Z" transform="translate(-456.95 1.08)"/><path class="cls-1" d="M837.92,999a4.24,4.24,0,1,0-5.88-1.22A4.25,4.25,0,0,0,837.92,999Z" transform="translate(-456.95 1.08)"/><path class="cls-1" d="M884.08,973a7.78,7.78,0,1,0-10.76-2.23A7.79,7.79,0,0,0,884.08,973Z" transform="translate(-456.95 1.08)"/><path class="cls-1" d="M930,946.57a10.85,10.85,0,1,0-15-3.12A10.84,10.84,0,0,0,930,946.57Z" transform="translate(-456.95 1.08)"/><path class="cls-1" d="M975.85,920.06a13.8,13.8,0,1,0-19.08-4A13.79,13.79,0,0,0,975.85,920.06Z" transform="translate(-456.95 1.08)"/><path class="cls-1" d="M1021.35,893A16.13,16.13,0,1,0,999,888.39,16.13,16.13,0,0,0,1021.35,893Z" transform="translate(-456.95 1.08)"/><path class="cls-1" d="M1066.66,865.65a18,18,0,1,0-25-5.19A18,18,0,0,0,1066.66,865.65Z" transform="translate(-456.95 1.08)"/><path class="cls-1" d="M1111.59,837.8a19.36,19.36,0,1,0-26.79-5.59A19.39,19.39,0,0,0,1111.59,837.8Z" transform="translate(-456.95 1.08)"/><path class="cls-1" d="M1156.13,809.3a19.93,19.93,0,1,0-27.58-5.74A19.95,19.95,0,0,0,1156.13,809.3Z" transform="translate(-456.95 1.08)"/><path class="cls-1" d="M1200.24,780.08a19.65,19.65,0,1,0-27.2-5.67A19.65,19.65,0,0,0,1200.24,780.08Z" transform="translate(-456.95 1.08)"/><path class="cls-1" d="M1243.9,750.24a18.62,18.62,0,1,0-25.78-5.36A18.6,18.6,0,0,0,1243.9,750.24Z" transform="translate(-456.95 1.08)"/><path class="cls-1" d="M1287.18,719.81a16.87,16.87,0,1,0-23.35-4.87A16.9,16.9,0,0,0,1287.18,719.81Z" transform="translate(-456.95 1.08)"/><path class="cls-1" d="M1330.19,689a14.66,14.66,0,1,0-20.3-4.21A14.65,14.65,0,0,0,1330.19,689Z" transform="translate(-456.95 1.08)"/><path class="cls-1" d="M1372.9,657.67a11.88,11.88,0,1,0-16.45-3.4A11.84,11.84,0,0,0,1372.9,657.67Z" transform="translate(-456.95 1.08)"/><path class="cls-1" d="M1415.45,626.14a8.8,8.8,0,1,0-12.19-2.54A8.81,8.81,0,0,0,1415.45,626.14Z" transform="translate(-456.95 1.08)"/><path class="cls-1" d="M1457.83,594.34a5.42,5.42,0,1,0-7.51-1.56A5.44,5.44,0,0,0,1457.83,594.34Z" transform="translate(-456.95 1.08)"/><path class="cls-1" d="M1500,562.3a1.76,1.76,0,1,0-1.92-2.94,1.76,1.76,0,0,0,1.92,2.94Z" transform="translate(-456.95 1.08)"/><path class="cls-1" d="M865.21,1040.65a1.17,1.17,0,1,0-1.62-.33A1.16,1.16,0,0,0,865.21,1040.65Z" transform="translate(-456.95 1.08)"/><path class="cls-1" d="M911.21,1014.39a4.4,4.4,0,1,0-6.09-1.27A4.42,4.42,0,0,0,911.21,1014.39Z" transform="translate(-456.95 1.08)"/><path class="cls-1" d="M957.14,988a7.48,7.48,0,1,0-10.38-2.15A7.5,7.5,0,0,0,957.14,988Z" transform="translate(-456.95 1.08)"/><path class="cls-1" d="M1002.73,961.1a10,10,0,1,0-13.79-2.89A10,10,0,0,0,1002.73,961.1Z" transform="translate(-456.95 1.08)"/><path class="cls-1" d="M1048.16,934a12.17,12.17,0,1,0-16.84-3.52A12.19,12.19,0,0,0,1048.16,934Z" transform="translate(-456.95 1.08)"/><path class="cls-1" d="M1093.3,906.32a13.78,13.78,0,1,0-19.1-4A13.8,13.8,0,0,0,1093.3,906.32Z" transform="translate(-456.95 1.08)"/><path class="cls-1" d="M1138.07,878.22a14.81,14.81,0,1,0-20.49-4.27A14.8,14.8,0,0,0,1138.07,878.22Z" transform="translate(-456.95 1.08)"/><path class="cls-1" d="M1182.55,849.62a15.25,15.25,0,1,0-21.09-4.42A15.26,15.26,0,0,0,1182.55,849.62Z" transform="translate(-456.95 1.08)"/><path class="cls-1" d="M1226.72,820.5a15.1,15.1,0,1,0-20.94-4.33A15.11,15.11,0,0,0,1226.72,820.5Z" transform="translate(-456.95 1.08)"/><path class="cls-1" d="M1270.47,790.8a14.23,14.23,0,1,0-19.69-4.11A14.21,14.21,0,0,0,1270.47,790.8Z" transform="translate(-456.95 1.08)"/><path class="cls-1" d="M1313.9,760.6a12.76,12.76,0,1,0-17.68-3.68A12.74,12.74,0,0,0,1313.9,760.6Z" transform="translate(-456.95 1.08)"/><path class="cls-1" d="M1357,729.91a10.7,10.7,0,1,0-14.83-3.07A10.72,10.72,0,0,0,1357,729.91Z" transform="translate(-456.95 1.08)"/><path class="cls-1" d="M1399.94,699a8.35,8.35,0,1,0-11.56-2.4A8.35,8.35,0,0,0,1399.94,699Z" transform="translate(-456.95 1.08)"/><path class="cls-1" d="M1442.57,667.55a5.43,5.43,0,1,0-7.51-1.57A5.41,5.41,0,0,0,1442.57,667.55Z" transform="translate(-456.95 1.08)"/><path class="cls-1" d="M1485.11,636a2.34,2.34,0,1,0-3.23-.68A2.35,2.35,0,0,0,1485.11,636Z" transform="translate(-456.95 1.08)"/><path class="cls-1" d="M938.26,1055.68a.89.89,0,0,0-1-1.48.89.89,0,0,0-.24,1.21A.9.9,0,0,0,938.26,1055.68Z" transform="translate(-456.95 1.08)"/><path class="cls-1" d="M984,1029A3.67,3.67,0,1,0,979,1028,3.67,3.67,0,0,0,984,1029Z" transform="translate(-456.95 1.08)"/><path class="cls-1" d="M1029.53,1002a6,6,0,1,0-8.3-1.74A6,6,0,0,0,1029.53,1002Z" transform="translate(-456.95 1.08)"/><path class="cls-1" d="M1074.8,974.63a7.91,7.91,0,1,0-11-2.28A7.92,7.92,0,0,0,1074.8,974.63Z" transform="translate(-456.95 1.08)"/><path class="cls-1" d="M1119.86,946.87a9.37,9.37,0,1,0-13-2.69A9.38,9.38,0,0,0,1119.86,946.87Z" transform="translate(-456.95 1.08)"/><path class="cls-1" d="M1164.63,918.78a10.42,10.42,0,1,0-14.39-3A10.42,10.42,0,0,0,1164.63,918.78Z" transform="translate(-456.95 1.08)"/><path class="cls-1" d="M1209,890a10.69,10.69,0,1,0-14.81-3.08A10.7,10.7,0,0,0,1209,890Z" transform="translate(-456.95 1.08)"/><path class="cls-1" d="M1253.2,860.94a10.56,10.56,0,1,0-14.63-3A10.58,10.58,0,0,0,1253.2,860.94Z" transform="translate(-456.95 1.08)"/><path class="cls-1" d="M1297,831.35a9.83,9.83,0,1,0-13.6-2.83A9.81,9.81,0,0,0,1297,831.35Z" transform="translate(-456.95 1.08)"/><path class="cls-1" d="M1340.53,801.26a8.5,8.5,0,1,0-11.76-2.44A8.47,8.47,0,0,0,1340.53,801.26Z" transform="translate(-456.95 1.08)"/><path class="cls-1" d="M1383.8,770.82a6.74,6.74,0,1,0-9.32-2A6.75,6.75,0,0,0,1383.8,770.82Z" transform="translate(-456.95 1.08)"/><path class="cls-1" d="M1426.75,739.89a4.4,4.4,0,1,0-6.09-1.26A4.4,4.4,0,0,0,1426.75,739.89Z" transform="translate(-456.95 1.08)"/><path class="cls-1" d="M1469.55,708.72a1.78,1.78,0,0,0,.51-2.45,1.77,1.77,0,1,0-.51,2.45Z" transform="translate(-456.95 1.08)"/><path class="cls-1" d="M1056.19,1042.7a1.77,1.77,0,1,0-2.45-.51A1.79,1.79,0,0,0,1056.19,1042.7Z" transform="translate(-456.95 1.08)"/><path class="cls-1" d="M1101.45,1015.3a3.66,3.66,0,1,0-5.06-1A3.64,3.64,0,0,0,1101.45,1015.3Z" transform="translate(-456.95 1.08)"/><path class="cls-1" d="M1146.43,987.43a5,5,0,1,0-6.91-1.43A5,5,0,0,0,1146.43,987.43Z" transform="translate(-456.95 1.08)"/><path class="cls-1" d="M1191.12,959.22a5.87,5.87,0,1,0-8.1-1.72A5.86,5.86,0,0,0,1191.12,959.22Z" transform="translate(-456.95 1.08)"/><path class="cls-1" d="M1235.52,930.5a6.17,6.17,0,1,0-8.52-1.81A6.18,6.18,0,0,0,1235.52,930.5Z" transform="translate(-456.95 1.08)"/><path class="cls-1" d="M1279.69,901.37a6,6,0,1,0-8.34-1.73A6,6,0,0,0,1279.69,901.37Z" transform="translate(-456.95 1.08)"/><path class="cls-1" d="M1323.51,871.78a5.28,5.28,0,1,0-7.29-1.53A5.28,5.28,0,0,0,1323.51,871.78Z" transform="translate(-456.95 1.08)"/><path class="cls-1" d="M1367.1,841.82a4.1,4.1,0,1,0-5.68-1.18A4.1,4.1,0,0,0,1367.1,841.82Z" transform="translate(-456.95 1.08)"/><path class="cls-1" d="M1410.45,811.5a2.49,2.49,0,1,0-3.44-.73A2.48,2.48,0,0,0,1410.45,811.5Z" transform="translate(-456.95 1.08)"/><path class="cls-1" d="M1453.55,780.81a.47.47,0,0,0,.15-.62.47.47,0,0,0-.63-.12.46.46,0,0,0-.14.62A.46.46,0,0,0,1453.55,780.81Z" transform="translate(-456.95 1.08)"/><path class="cls-1" d="M1172.91,1027.85a.44.44,0,0,0-.48-.73.44.44,0,0,0-.14.62A.43.43,0,0,0,1172.91,1027.85Z" transform="translate(-456.95 1.08)"/><path class="cls-1" d="M1217.52,999.52a1.18,1.18,0,1,0-1.61-.35A1.16,1.16,0,0,0,1217.52,999.52Z" transform="translate(-456.95 1.08)"/><path class="cls-1" d="M1262,970.91a1.6,1.6,0,0,0,.46-2.23,1.6,1.6,0,1,0-2.67,1.75A1.6,1.6,0,0,0,1262,970.91Z" transform="translate(-456.95 1.08)"/><path class="cls-1" d="M1306.09,941.67a1.31,1.31,0,0,0-1.44-2.2,1.31,1.31,0,1,0,1.44,2.2Z" transform="translate(-456.95 1.08)"/><path class="cls-1" d="M1350,912.2a.73.73,0,0,0,.21-1,.72.72,0,0,0-1-.22.73.73,0,1,0,.8,1.22Z" transform="translate(-456.95 1.08)"/></svg>