<svg id="Слой_1" data-name="Слой 1" xmlns="http://www.w3.org/2000/svg" viewBox="0 0 398.8 258.18"><defs><style>.cls-1{fill:#fff}</style></defs><path d="M1957.81 225.9c-.7-7.24-5.08-11.7-11.43-14.21a146.62 146.62 0 00-18-6 221.77 221.77 0 00-38.48-5.77c-17.14-1.25-34.27-1.34-51.31 1.14-18.91 2.76-37.77 5.85-56.68 8.66-8.49 1.26-17.07 2-25.61.91-14-1.85-28-4.06-41.94-6.06-11.79-1.68-23.55-4-35.41-4.76-22.42-1.52-44.81-.74-67 3.72-9.31 1.87-18.6 3.77-27.34 7.64-5.64 2.5-10.54 5.81-12 12.39-.2.9-.42 1.78-.63 2.67v7.29c.21.95.44 1.9.63 2.85a17.36 17.36 0 005.65 10.11c4.61 3.85 6.42 8.74 7.53 14.49 3.24 16.87 8.94 32.87 18.58 47.27 7.84 11.7 17.93 20.45 31.8 24.28a107.78 107.78 0 0031.37 3.63 99.12 99.12 0 0033.69-6.23c13.82-5.34 23.83-15.13 32-27.12 9.33-13.63 14.72-28.9 18.82-44.72.87-3.34 1.8-6.59 4.46-9.09 5.56-5.23 16.09-3.57 19.1 3.39A111.5 111.5 0 011780 266c4.75 16.59 12 31.87 23.11 45.22 10.14 12.19 23 19.56 38.53 22.6a122.83 122.83 0 0044.26.64c18.57-3.1 31.9-13.37 41.59-29.07 8.82-14.28 14-29.9 17.16-46.25.87-4.51 2.25-8.31 5.9-11.36 4.51-3.76 6.79-8.89 7.49-14.7v-6.87c-.04-.08-.22-.21-.23-.31zm-221.22 35.61c-3.89 19.44-13.34 35.74-28.63 48.4a51.63 51.63 0 01-27.96 11.51c-10.68 1.13-21.4 1.21-32-.93-16.74-3.37-28.57-13-35.75-28.44a96.84 96.84 0 01-9-46.8c.89-16.43 8.81-25.76 25-28.72 9-1.64 18.28-1.73 26-2.4 10.54.67 19.55.87 28.47 1.91 14.23 1.65 28.21 4.51 40.61 12.31 6.07 3.82 10.93 8.75 13.17 15.77 1.82 5.77 1.24 11.64.09 17.39zm178.67 35.28c-7.78 14.35-20.48 21.66-36.17 24.18-5.26.84-10.64.95-16 1.4-11.72.13-22.9-1.79-33.32-7.39-8-4.32-14.44-10.44-19.94-17.58-8.59-11.14-14.49-23.57-16.73-37.5-2.37-14.65 1.19-25 16.79-33.53 8.91-4.89 18.65-7.32 28.57-9.17 16.06-3 32.25-2.93 48.44-2 6.17.33 12.46.77 18.4 2.29 13 3.3 20.15 11.7 21.25 25a95.41 95.41 0 01-11.29 54.3zM1780.6 131.22a24.23 24.23 0 006.88-1.32c6.88-2.35 13-6.19 18.92-10.32s11.76-8.6 17.87-12.56a14.61 14.61 0 017.19-2.14c5.06-.17 9.42 2.19 13.24 5.3a144.56 144.56 0 0110.86 9.68c16.32 16.27 30.85 34.1 45.38 51.94q7 8.55 14 17a6.47 6.47 0 003 2.19c6.51 1.56 13.07 2.91 19.62 4.32a16 16 0 002 .14c-.89-1.48-1.49-2.69-2.27-3.76-13.09-17.94-26-36-39.36-53.72a350.1 350.1 0 00-34.16-39.25c-5.28-5.16-11-9.62-18.39-11.24-2.91-.64-5.88-1-8.82-1.51h-3.86c-2.38.36-4.81.53-7.15 1.09-16.35 3.9-30.6 12-43.61 22.36-5.25 4.19-8 9.62-7.17 16.49.49 3.51 2.33 5.43 5.83 5.31zM1613.94 190.37a3.75 3.75 0 001.87-1.24c4-4.88 7.82-9.84 11.77-14.72 13.83-17.11 27.49-34.36 42.71-50.29 5.68-5.94 11.51-11.74 18.6-16.05 6.35-3.85 12.73-4.89 19.13 0 1.53 1.17 3.16 2.2 4.74 3.3 6.32 4.41 12.55 9 19 13.2 5.34 3.52 11.12 6.17 17.65 6.61 3.62.25 5.61-1.25 6.06-4.82a23.69 23.69 0 00-.11-6.18c-.74-5.26-4.21-8.78-8.14-11.88a127.21 127.21 0 00-23.41-14.57c-9.41-4.55-19.22-7.41-29.83-7.44a34.08 34.08 0 00-22.98 8.56 177.5 177.5 0 00-16.76 16.83c-21.39 24-40.52 49.86-58.62 76.44-1.63 2.38-3.2 4.82-4.83 7.28.39.14.53.24.64.22 7.57-1.73 15.03-3.46 22.51-5.25z" transform="translate(-1572.02 -85.98)"/><path d="M1714.28 237.27c-8.1-4.51-17-6.47-26-8-13.15-2.19-26.45-2.37-39.75-2.22-7.29.08-14.58.36-21.61 2.57-7.59 2.38-11.16 7.12-11.07 15.09.06 5.63.31 11.27.8 16.88a73.6 73.6 0 0011.62 33.41 19.61 19.61 0 007.46 7.33c-1.26-2.34-2.36-4.16-3.26-6.08a87.08 87.08 0 01-7.65-44c.63-8.27 4.5-12.68 12.56-14.73 1-.25 1.94-.47 2.93-.63 10.06-1.62 20.2-1.53 30.34-1.33 17.12.33 34 1.89 50.18 8.31a12.41 12.41 0 002 .44 24 24 0 00-8.55-7.04zM1908.55 232.31c-3.42-1.53-6.93-3.39-10.55-3.82a204.1 204.1 0 00-55.53.62c-9 1.4-17.77 3.45-25.92 7.69-7.51 3.91-12.76 9.21-11.59 18.53.17 1.41.32 2.84.61 4.23 2.45 11.76 7.86 22.12 15 31.62 1.49 2 3.15 3.81 4.73 5.71l.66-.44c-.81-1.55-1.55-3.14-2.44-4.64a75.7 75.7 0 01-9.06-23.45c-1.53-7.29-1.6-14.13 5.26-19.09 1.16-.84 2.25-1.76 3.44-2.55 6.18-4.12 13.32-5.71 20.33-7.6a86 86 0 0121.82-2.81c13.63-.07 27.27.07 40.9.23a47.58 47.58 0 016.6 1 8.13 8.13 0 00-4.26-5.23z" transform="translate(-1572.02 -85.98)"/><path class="cls-1" d="M1936.86 308.92a183.32 183.32 0 0014.14-46.86c.74-4.69 2.73-9.71 6.51-12.91.44-.4 1.25-1.08 1.67-1.51a17.13 17.13 0 002.54-3.19 23.16 23.16 0 003-8v.37q.16-3.44.41-6.87l.52 1.58c.34.38-.16-.16-.27-.37a3.16 3.16 0 01-.45-1.38c0-6-4-10.82-9.49-13.07-18-8.43-38.23-9.84-57.88-10.08-8.77-.16-17.5-.29-26.18.17a239.58 239.58 0 00-25.88 2.76c-13 1.95-26.37 3.6-39.46 5-13.25 1.29-26.88 3.4-40 .2l.11-.8c13.31.31 26-3.4 39-5.86 14-2.8 28.33-5.4 42.45-7.53 1.69-.24 5-.63 6.74-.81 34.58-3 69.61 2.72 102.24 14.23 6.81 2.14 12.51 7.6 13.58 14.93V229.22a2.37 2.37 0 00-.52-1.17s.06 0 .3.34l.45.57c.16 2.74.44 5.5.46 8.24-.31 6-2.89 12.42-7.58 16.52-3.12 2.44-4.55 5.41-5.44 9.69a126 126 0 01-9.6 28.81 89.11 89.11 0 01-10.64 17.14l-.69-.42z" transform="translate(-1572.02 -85.98)"/><path class="cls-1" d="M1742.67 306.29a173.29 173.29 0 0012.71-33.29c.77-2.87 1.55-5.73 2.25-8.63s1.38-6.42 2.68-9.24c3-7.47 12.19-10.81 19.5-7.91A13.78 13.78 0 011788 255c3 8.79 3.69 17.84 7 26.46 7.87 21.88 24.14 41.89 46.55 49.47a85.12 85.12 0 0016.85 3.6 145.28 145.28 0 0034.87.14c18.19-1.75 32.59-11.37 43.63-25.72l.69.42c-5.23 11.2-14 21.18-25.1 26.94-18.57 9.53-44.52 9.56-64.48 4.64a65.17 65.17 0 01-29.12-15.57c-16.34-16.5-25.08-38.66-32.69-60.1-1.94-4.61-2.91-10.45-8.46-11.75-6.49-1.6-10.84 1.93-12.25 8.26-4.49 16.11-10.93 32.35-22.12 45l-.66-.45z" transform="translate(-1572.02 -85.98)"/><path class="cls-1" d="M1765.94 214.74c-16.25-1-32.34-2.59-48.53-4.46a339.74 339.74 0 00-47.91-3.9c-21-.39-65.24.78-81.59 13.87a12.91 12.91 0 00-4.13 7.07l-.65 3v-.34c0 2.44.12 4.87.2 7.3v-.36l.89 3.49a15.09 15.09 0 005 8 21.68 21.68 0 015.36 6c2.74 4.4 3.59 9.65 4.86 14.41a147.76 147.76 0 006.69 20.15c7.74 18.55 20.51 37.7 40.8 43.14 23.12 6.34 53.83 6 74.81-6.55 8-4.89 14.85-11.72 20.89-19.25l.66.45c-10.44 18.44-25.62 29.86-46.53 34.35-19 4.11-41.27 4-59.52-3.37-27.41-11.86-40.92-47.08-44.92-74.71-.85-4.43-2.52-8.29-5.93-11.31a17.91 17.91 0 01-4.52-6.73c-1-2.13-1.31-5.12-1.8-7.37-.06-2.61.17-5.24.16-7.85v-.14l.77-3c1.78-7.74 9.45-11.79 16.17-14.28 3.84-1.48 7.77-2.69 11.71-3.8 19.76-5.31 40-9.33 60.56-9.32a220 220 0 0124.62 1.24c7.2.64 17 2.74 24.18 3.93 15.89 2.89 31.88 5.81 47.73 9.51l-.11.8z" transform="translate(-1572.02 -85.98)"/><path class="cls-1" d="M1612.55 248.93c-.66-12.69 4.72-24 16.92-29 10.82-4.47 23.07-4.41 34.39-5.6 13.67.6 27.69 1 41.14 4.32a87.32 87.32 0 0128.75 12.08c9 5.74 15.53 15.51 14.89 26.5-1.33 20.86-10 41.55-25.32 56a55.74 55.74 0 01-17.92 12c-16.89 6.93-46.68 6.88-62.93-2.07-25.26-13-33.46-48.28-29.92-74.28h.8a104.76 104.76 0 0011.56 45.63c6.09 12.15 16.73 21.39 30 24.58 12.46 3.06 25.81 3 38.56 1.31 27.46-4.18 50.39-36.72 52.57-63.37 1.48-29.36-40.38-33.43-62-34.57-5.84-.38-15.81-.76-19.78-1.23-8.6.59-16.77.49-25.15 1.67-15.66 1.94-23.51 10.51-25.73 26h-.8zM1819.44 229.72c17-11.16 41-14.5 61-14.81 12 .14 24-.16 35.84 3.11 13.6 3.94 21.33 14.13 21.72 28.23a122.24 122.24 0 01-1.4 23.72 109.09 109.09 0 01-9.48 30.17 47 47 0 01-22.5 23.17c-9.75 4.95-21.35 5.83-31.8 6.62-28.2 1-48.6-11.1-62.5-35.45a77.46 77.46 0 01-10.63-35.48c-.5-9.9 3.51-19.16 11.79-24.79a48.8 48.8 0 018-4.46l.38.7c-4.79 3.25-9.45 7.08-12.27 12.11-4.3 7.51-3.15 16.45-1 24.49 5 18.75 17.37 37.38 33.91 47.26 9.77 5.62 21 7.9 32.34 7.94 3.83-.34 10.67-.35 15.08-1 15-1.82 28.7-9.09 36.11-22.74a82.53 82.53 0 0010.59-51.94c-1.55-13.73-10.38-20.85-23.56-22.74-9.87-1.42-20.49-1.69-30.56-2a193 193 0 00-30.69 1.4c-10.23 1.32-20.36 3.16-29.94 7.28l-.38-.7zM1788.53 138c15.22-1.24 28.35-15.58 40-24.43 7.15-6.43 16.74-6 24.43-.9a107.23 107.23 0 0110.46 8.26c22.32 20.33 38 46.39 56.86 69.55l4 4.88a5.15 5.15 0 001.92 1.41l3 .65c3.07.65 9.41 1.93 12.5 2.51l3.12.61.78.16.38.07h1.74l-1.79 2.92c-.52-.82-1.4-2.26-1.91-3-.3-.41-3.23-4.11-3.65-4.63-9.35-11.62-21-25.76-30-37.53a425.59 425.59 0 00-37-43.41c-6-6-12.17-13-20.53-15.24-2.64-.72-5.8-1.15-9.06-1.78l.82.07-3.86-.11h.71c-2.59.32-4.53.33-6.8.74a114.22 114.22 0 00-12.82 3.29 112.83 112.83 0 00-27.77 13.42c-6.08 3.76-10.8 8.21-10.73 15.92-.1 3.57 1.1 6.76 5.19 6.56zm0 1c-7 .53-7.2-8.08-6-13 1.25-5.52 5.4-9.54 9.62-13A119 119 0 011819 95a85.44 85.44 0 0114.27-5.3c2.33-.56 4.93-.9 7-1.26h.49l3.86-.11h.3c3.3.49 6.58.79 10.4 1.63 10.7 2.35 18.54 10.28 25.76 17.81 13.47 14 25.31 29.63 36.24 45.65 8.54 12.17 18.51 27.62 26.8 40l2.69 4a20.85 20.85 0 011.36 2.24c.82 1.52 2 3.88 2.82 5.35l-3.5-.32c-.57-.05-1.72-.14-2.24-.25l-1.17-.29c-1.83-.46-7.38-1.79-9.32-2.28-1.36-.29-6.61-1.57-7.79-1.8-.66-.17-1-.19-1.66-.4a7.75 7.75 0 01-3.21-2.27l-4.15-4.94c-15-17.79-31.33-34.89-47.36-51.58-6.5-6.76-12.95-13.58-20-19.75-5.68-5.33-12.16-7.84-19.1-3.19l-2.73 1.59c-9.2 5.39-18 11.73-27.74 16.08-4 1.72-8.09 3.27-12.44 3.41zM1662.59 119.32c-14.89 20.6-31.2 43.34-45.41 64.23l-14.77 21.57-2.21-6.52.57.23c.06 0 .13.06 0 0a3.91 3.91 0 00-2-.2l-.25.05h.25c7.27-1.51 14.61-2.86 21.93-4.14.2 0 .54-.11.36-.05s0 0 .12 0h.09l.42-.46q19.74-21.74 38.27-44.53 6.8-8.28 13.76-16.42c5.82-6.73 11.9-13.9 19.34-19.32 8.48-6.48 17.65-8 26.55-1.1 1.5.92 9.32 6.2 11 7.25 7.82 4.92 16.54 12.52 26 13.31a13 13 0 001.74.08c.34 0 .34-.14.11 0s-.47.47-.44.4a15.78 15.78 0 00-.3-6.75c-1-3.11-3.17-5-6.39-7.6-15.66-12-34.48-23.41-54.92-21.9a34.06 34.06 0 00-17.77 8c-5.53 4.31-10.77 9.09-16 13.94l-.75-.66a150.41 150.41 0 0113.87-16.49 42.16 42.16 0 018.72-7.13c16.92-9.94 38.67-3.94 54.52 4.18a119.44 119.44 0 0118.81 11.72c4.85 3.41 10.31 9.31 10.91 16.28 2.35 18.95-11.54 19.18-25.08 12.69-5.91-2.82-12.92-8.63-18.3-12.37l-8.71-6.34c-.73-.58-2.6-1.89-3.3-2.43a12 12 0 00-4.27-2.3c-11.52-3.19-31.55 19.2-39.49 27.16-15.85 16.78-29.61 35.45-42.89 54.34a7 7 0 01-3.44 2.81l-2.86.85c-3.42 1-6.85 2-10.28 2.93-3.28.91-6.79 1.9-10 2.67a4.75 4.75 0 01-2.71-.4l-5.71-.84 3.51-5.67a467.29 467.29 0 0148.08-62.91c6-6.49 12.09-12.82 18.62-18.75l.75.66z" transform="translate(-1572.02 -85.98)"/></svg>