<svg xmlns="http://www.w3.org/2000/svg" viewBox="0 0 486.85 458.92"><defs><style>.cls-1{isolation:isolate;}.cls-2,.cls-5{stroke:#000;stroke-miterlimit:10;}.cls-2{stroke-width:8.63px;}.cls-3{opacity:0.5;mix-blend-mode:multiply;}.cls-4{fill:gray;}.cls-5{fill:#fff;stroke-width:6px;}</style></defs><g class="cls-1"><g id="Layer_2" data-name="Layer 2"><g id="Layer_2-2" data-name="Layer 2"><path class="cls-2" d="M106,337.31q12,11.63,25.54,22.91T159.3,382c9.51,7,18.64,13.23,27.29,18.89,1.63.77,2.52,1.48,2.65,2.13a2.12,2.12,0,0,1-.92,2,15.11,15.11,0,0,1-3.31,2q-2.19,1-4.66,2.31a39.39,39.39,0,0,1-10.39,3.2c-3.33.5-7-.26-10.8-2.37-4.1-1.83-8.73-4-13.85-6.54s-10.74-5.42-16.81-8.67q-2.64,4.84-5.16,9.44t-4.82,9.38c7.35,3.39,14.52,6.39,21.44,9.06s13.21,5.1,18.86,7.25c1.94.82,3,1.56,3.23,2.2s-.72,1.58-2.79,2.83-4.33,2.39-6.55,3.68a38.49,38.49,0,0,1-6.89,3.16,27.56,27.56,0,0,1-7.44,1.93,20.25,20.25,0,0,1-8.14-1.06c-8.08-2.52-17.52-5.25-28.18-8.06s-21.54-5.62-32.63-8.36S47.55,421,37.06,418.5,17.25,413.64,9,411.38c-3-1.23-4.23-2.74-3.93-4.5s2-4.23,5-7.32a135,135,0,0,1,10.48-10.72A89.94,89.94,0,0,1,32,379.71a36.62,36.62,0,0,1,5-3,12.41,12.41,0,0,1,3.72-1.18,6.22,6.22,0,0,1,3.14.42,25.58,25.58,0,0,1,3.34,1.65c5.13,3.33,11.37,7,18.83,11S81.65,396.65,90.59,401q2.91-5.37,6.09-10.47l6.19-9.9Q87.33,371,72.7,361.21c-9.75-6.55-18.23-12.83-25.58-18.83Q43,338.9,44,335.89c.66-2,2.5-4.54,5.55-7.51a76.36,76.36,0,0,1,9.67-8.07,86.57,86.57,0,0,1,11.17-6.69c3.77-1.63,6.58-2.26,8.41-2s3.81,1.58,6,3.89C90.9,322.28,97.93,329.57,106,337.31Z"/><path class="cls-2" d="M284.58,317.53c-3.32,4.2-6.32,8.21-9.06,12A12.66,12.66,0,0,1,273,333a6.28,6.28,0,0,1-2.63,1.45,7.79,7.79,0,0,1-2.6.19,20.49,20.49,0,0,1-2.57-.42c-2.07-.36-4.06-.8-6-1.32s-4.45-1.13-7.59-1.81a26.36,26.36,0,0,1-6.9-2.74,23.09,23.09,0,0,1-6.5-5.84c-3.48-3.95-7.52-8.73-12.1-14.39s-9.43-11.85-14.58-18.64-10.41-13.95-15.8-21.5S185,252.74,179.88,244.86s-10-15.64-14.64-23.29-8.74-14.88-12.43-21.63c-1.92-4-2.49-7.08-1.7-9.11s2.92-4,6.4-5.78A66.73,66.73,0,0,1,169.3,180,44.78,44.78,0,0,1,182,177.7c4,.13,6.92.82,8.75,2s3.52,3.73,5.08,7.59c3.66,8.85,7.86,18.28,12.6,28.22s9.67,19.93,14.83,29.92,10.36,19.71,15.68,29.14,10.47,18.25,15.46,26.52a85.15,85.15,0,0,1,7.42-8.45c2.47-2.43,5.27-5,8.4-7.62q2.78-2.38,5-2.44c1.49,0,3.46.79,5.83,2.52a53.08,53.08,0,0,1,6.46,5.23c2,1.9,3.77,3.78,5.39,5.65q3.18,3.34,3.63,4.82t-2,4.44C291.22,309.24,287.88,313.35,284.58,317.53Z"/><path class="cls-2" d="M336.84,288.57c-4,3.92-7.6,7.69-10.92,11.31a13.85,13.85,0,0,1-3.09,3.29,5.85,5.85,0,0,1-2.82,1.1,7,7,0,0,1-2.58-.22,17.69,17.69,0,0,1-2.44-.89c-2-.73-3.84-1.54-5.65-2.42s-4.18-2-7.14-3.26a26,26,0,0,1-6.33-4.16,25,25,0,0,1-5.47-7.43c-2.81-4.88-6.07-10.76-9.77-17.7s-7.61-14.54-11.78-22.87S260.39,228.22,256,219,247.26,200.3,243,190.71s-8.25-19-12-28.28-7.19-18-10.21-26.07c-1.52-4.77-1.76-8.16-.73-10.12s3.45-3.51,7.23-4.54A61.24,61.24,0,0,1,240,119.19a45.39,45.39,0,0,1,13.34.59c4.11,1.07,7,2.47,8.76,4.14s3.16,4.75,4.28,9.17q4,15.25,9.26,32.64t11,34.86q5.7,17.53,11.62,34.12t11.39,31.15a81.49,81.49,0,0,1,8.67-7.67c2.84-2.15,6-4.37,9.56-6.6,2.09-1.36,3.9-1.93,5.4-1.71s3.33,1.45,5.43,3.69a55.74,55.74,0,0,1,5.58,6.64c1.68,2.34,3.15,4.64,4.45,6.88,1.74,2.71,2.68,4.61,2.8,5.71s-.79,2.55-2.75,4.37Q342.81,282.71,336.84,288.57Z"/><path class="cls-2" d="M400.59,77.85a93.86,93.86,0,0,1,9.58,19.65,249.91,249.91,0,0,1,9.88,41.14,320.94,320.94,0,0,1,3.81,44.11A312.65,312.65,0,0,1,422,223.86a153.41,153.41,0,0,1-7.08,33.06c-2.32,5.61-5,9.63-8.06,12.18a20.78,20.78,0,0,1-11.48,4.43,60.21,60.21,0,0,1-9.72.1A28.05,28.05,0,0,1,375.56,271a49.4,49.4,0,0,1-8.77-5.54A47,47,0,0,1,358,256.5a173.94,173.94,0,0,1-13.14-20.7,249.31,249.31,0,0,1-12.38-26.12,273.81,273.81,0,0,1-10.31-30.15,239.69,239.69,0,0,1-6.72-32.66,198.83,198.83,0,0,1-1.66-33.4,138.09,138.09,0,0,1,4.82-32.12,44.1,44.1,0,0,1,10.28-16.88c4.74-4.86,10-7.76,15.69-8.63a69.87,69.87,0,0,1,22,.15,50.36,50.36,0,0,1,19.24,7.24A51.64,51.64,0,0,1,400.59,77.85Zm-41.8,28.24a89.25,89.25,0,0,0-3,19.88,220.19,220.19,0,0,0,.19,25.85c.54,9.21,1.47,17.82,2.7,25.91a229.48,229.48,0,0,0,4.89,23.91c2.08,8,4.28,15.26,6.61,21.81a103.33,103.33,0,0,0,7.15,16.26c2.46,4.32,4.75,6.67,6.95,7.09,2,.48,3.64-.77,4.89-3.83A50.66,50.66,0,0,0,392,229.84a168,168,0,0,0,.77-20.91c-.13-8.25-.67-17.18-1.65-26.86-.75-8-2-16.79-3.67-26.38s-3.74-18.57-6.1-26.82a121,121,0,0,0-7.92-21.22c-2.88-5.7-5.66-8.69-8.24-8.9C362.49,98.4,360.3,100.87,358.79,106.09Z"/><path class="cls-2" d="M438,233.88a22.38,22.38,0,0,1,2.7-8.22,11.75,11.75,0,0,1,5.49-5,11.44,11.44,0,0,1,8.14-.05,13.27,13.27,0,0,1,6.55,4.07,20.29,20.29,0,0,1,3.94,6.72A28.64,28.64,0,0,1,466.4,239,29.47,29.47,0,0,1,465,251.26a32.09,32.09,0,0,1-2.42,5.91,20.61,20.61,0,0,1-3.53,4.86,8.46,8.46,0,0,1-4.77,2.54c-3.84.79-7.23-.6-10.38-4.18s-5.18-9.12-6-16.78A39.48,39.48,0,0,1,438,233.88ZM481.17,33.7c1.36,3.41,1.69,7.72,1,12.91q-2.86,21.69-5.41,43.31t-4.66,42q-2.13,20.4-3.66,38.68c-1,12.21-1.9,23.38-2.63,33.6-.24,3.57-.82,5.83-1.78,6.81s-2.55,1.14-4.83.48a39.69,39.69,0,0,1-7.69-1.88,38.72,38.72,0,0,1-7.07-3.4,13.89,13.89,0,0,1-5.3-5.7c-1.07-2.25-1.74-5.81-2-10.74-.68-9.81-1.37-21.49-2.08-35.23s-1.39-28.12-2-43.21-1.17-30.26-1.7-45.51-.91-29.19-1.1-41.65c-.14-6,.72-10,2.61-11.69s5.27-2,10.16-.67a81.28,81.28,0,0,1,15,4.35,65.41,65.41,0,0,1,14.52,7.66C477,27,479.83,30.3,481.17,33.7Z"/><path class="cls-2" d="M95.24,272.17q3.54-7.34,8.13-14.86t10.09-15a125.17,125.17,0,0,1,11.91-13.89c4.18-4,9.33-4,15.36-.26a60.84,60.84,0,0,1,8.77,5.06c2.35,1.68,4.86,3.54,7.5,5.53,2.85,2.35,4.43,4.23,4.76,5.66s-.27,3.31-1.83,5.65q-5,7.09-10.34,14.58t-10.79,16.1q5.64,7.83,11.84,15.69,6.09,7.67,12.36,16c1.38-2.32,2.87-4.55,4.45-6.71s3.34-4.41,5.26-6.75a11.59,11.59,0,0,1,4.58-3.75q2.24-.82,5.85.59a42,42,0,0,1,6.73,3q3,1.73,5.95,3.62c2.34,1.29,3.64,2.47,3.94,3.51s-.09,2.72-1.12,5q-3.52,7.14-7.3,14.38t-6.8,14.18q3.5,4.26,6.56,8c2,2.45,4,4.88,5.88,7.31q2.53-5.32,5.11-9.91t6-9.73a9.79,9.79,0,0,1,3.75-3.76,6.67,6.67,0,0,1,4.71,0,36.11,36.11,0,0,1,5.51,2.11c1.57.79,3.2,1.52,4.87,2.23,1.64,1,2.61,1.93,2.9,2.75s0,2.23-1,4.27q-3.22,7.23-6.41,14.7t-6,14.07c-1.07,3.09-2.27,5.11-3.6,6a11.48,11.48,0,0,1-4.18,1.88c-1.62.39-3.24.71-4.85,1s-3.63.49-6.06.66a15,15,0,0,1-5.92-.63,18.23,18.23,0,0,1-6.36-3.72c-28-26.42-59.89-56.51-96.37-91.07Q91.71,279.46,95.24,272.17Z"/><g class="cls-3"><path class="cls-4" d="M106,352.31q12,11.63,25.54,22.91T159.3,397c9.51,7,18.64,13.23,27.29,18.89,1.63.77,2.52,1.48,2.65,2.13a2.12,2.12,0,0,1-.92,2,15.11,15.11,0,0,1-3.31,2q-2.19,1-4.66,2.31a39.39,39.39,0,0,1-10.39,3.2c-3.33.5-7-.26-10.8-2.37-4.1-1.83-8.73-4-13.85-6.54s-10.74-5.42-16.81-8.67q-2.64,4.84-5.16,9.44t-4.82,9.38c7.35,3.39,14.52,6.39,21.44,9.06s13.21,5.1,18.86,7.25c1.94.82,3,1.56,3.23,2.2s-.72,1.58-2.79,2.83-4.33,2.39-6.55,3.68a38.49,38.49,0,0,1-6.89,3.16,27.56,27.56,0,0,1-7.44,1.93,20.25,20.25,0,0,1-8.14-1.06c-8.08-2.52-17.52-5.25-28.18-8.06s-21.54-5.62-32.63-8.36S47.55,436,37.06,433.5,17.25,428.64,9,426.38c-3-1.23-4.23-2.74-3.93-4.5s2-4.23,5-7.32a135,135,0,0,1,10.48-10.72A89.94,89.94,0,0,1,32,394.71a36.62,36.62,0,0,1,5-3,12.41,12.41,0,0,1,3.72-1.18,6.22,6.22,0,0,1,3.14.42,25.58,25.58,0,0,1,3.34,1.65c5.13,3.33,11.37,7,18.83,11S81.65,411.65,90.59,416q2.91-5.37,6.09-10.47l6.19-9.9Q87.33,386,72.7,376.21c-9.75-6.55-18.23-12.83-25.58-18.83Q43,353.9,44,350.89c.66-2,2.5-4.54,5.55-7.51a76.36,76.36,0,0,1,9.67-8.07,86.57,86.57,0,0,1,11.17-6.69c3.77-1.63,6.58-2.26,8.41-2s3.81,1.58,6,3.89C90.9,337.28,97.93,344.57,106,352.31Z"/><path class="cls-4" d="M284.58,332.53c-3.32,4.2-6.32,8.21-9.06,12A12.66,12.66,0,0,1,273,348a6.28,6.28,0,0,1-2.63,1.45,7.79,7.79,0,0,1-2.6.19,20.49,20.49,0,0,1-2.57-.42c-2.07-.36-4.06-.8-6-1.32s-4.45-1.13-7.59-1.81a26.36,26.36,0,0,1-6.9-2.74,23.09,23.09,0,0,1-6.5-5.84c-3.48-3.95-7.52-8.73-12.1-14.39s-9.43-11.85-14.58-18.64-10.41-13.95-15.8-21.5S185,267.74,179.88,259.86s-10-15.64-14.64-23.29-8.74-14.88-12.43-21.63c-1.92-4-2.49-7.08-1.7-9.11s2.92-4,6.4-5.78A66.73,66.73,0,0,1,169.3,195,44.78,44.78,0,0,1,182,192.7c4,.13,6.92.82,8.75,2s3.52,3.73,5.08,7.59c3.66,8.85,7.86,18.28,12.6,28.22s9.67,19.93,14.83,29.92,10.36,19.71,15.68,29.14,10.47,18.25,15.46,26.52a85.15,85.15,0,0,1,7.42-8.45c2.47-2.43,5.27-5,8.4-7.62q2.78-2.38,5-2.44c1.49,0,3.46.79,5.83,2.52a53.08,53.08,0,0,1,6.46,5.23c2,1.9,3.77,3.78,5.39,5.65q3.18,3.34,3.63,4.82t-2,4.44C291.22,324.24,287.88,328.35,284.58,332.53Z"/><path class="cls-4" d="M336.84,303.57c-4,3.92-7.6,7.69-10.92,11.31a13.85,13.85,0,0,1-3.09,3.29,5.85,5.85,0,0,1-2.82,1.1,7,7,0,0,1-2.58-.22,17.69,17.69,0,0,1-2.44-.89c-2-.73-3.84-1.54-5.65-2.42s-4.18-2-7.14-3.26a26,26,0,0,1-6.33-4.16,25,25,0,0,1-5.47-7.43c-2.81-4.88-6.07-10.76-9.77-17.7s-7.61-14.54-11.78-22.87S260.39,243.22,256,234,247.26,215.3,243,205.71s-8.25-19-12-28.28-7.19-18-10.21-26.07c-1.52-4.77-1.76-8.16-.73-10.12s3.45-3.51,7.23-4.54A61.24,61.24,0,0,1,240,134.19a45.39,45.39,0,0,1,13.34.59c4.11,1.07,7,2.47,8.76,4.14s3.16,4.75,4.28,9.17q4,15.25,9.26,32.64t11,34.86q5.7,17.53,11.62,34.12t11.39,31.15a81.49,81.49,0,0,1,8.67-7.67c2.84-2.15,6-4.37,9.56-6.6,2.09-1.36,3.9-1.93,5.4-1.71s3.33,1.45,5.43,3.69a55.74,55.74,0,0,1,5.58,6.64c1.68,2.34,3.15,4.64,4.45,6.88,1.74,2.71,2.68,4.61,2.8,5.71s-.79,2.55-2.75,4.37Q342.81,297.71,336.84,303.57Z"/><path class="cls-4" d="M400.59,92.85a93.86,93.86,0,0,1,9.58,19.65,249.91,249.91,0,0,1,9.88,41.14,320.94,320.94,0,0,1,3.81,44.11A312.65,312.65,0,0,1,422,238.86a153.41,153.41,0,0,1-7.08,33.06c-2.32,5.61-5,9.63-8.06,12.18a20.78,20.78,0,0,1-11.48,4.43,60.21,60.21,0,0,1-9.72.1A28.05,28.05,0,0,1,375.56,286a49.4,49.4,0,0,1-8.77-5.54A47,47,0,0,1,358,271.5a173.94,173.94,0,0,1-13.14-20.7,249.31,249.31,0,0,1-12.38-26.12,273.81,273.81,0,0,1-10.31-30.15,239.69,239.69,0,0,1-6.72-32.66,198.83,198.83,0,0,1-1.66-33.4,138.09,138.09,0,0,1,4.82-32.12,44.1,44.1,0,0,1,10.28-16.88c4.74-4.86,10-7.76,15.69-8.63a69.87,69.87,0,0,1,22,.15,50.36,50.36,0,0,1,19.24,7.24A51.64,51.64,0,0,1,400.59,92.85Zm-41.8,28.24a89.25,89.25,0,0,0-3,19.88,220.19,220.19,0,0,0,.19,25.85c.54,9.21,1.47,17.82,2.7,25.91a229.48,229.48,0,0,0,4.89,23.91c2.08,8,4.28,15.26,6.61,21.81a103.33,103.33,0,0,0,7.15,16.26c2.46,4.32,4.75,6.67,6.95,7.09,2,.48,3.64-.77,4.89-3.83A50.66,50.66,0,0,0,392,244.84a168,168,0,0,0,.77-20.91c-.13-8.25-.67-17.18-1.65-26.86-.75-8-2-16.79-3.67-26.38s-3.74-18.57-6.1-26.82a121,121,0,0,0-7.92-21.22c-2.88-5.7-5.66-8.69-8.24-8.9C362.49,113.4,360.3,115.87,358.79,121.09Z"/><path class="cls-4" d="M438,248.88a22.38,22.38,0,0,1,2.7-8.22,11.75,11.75,0,0,1,5.49-5,11.44,11.44,0,0,1,8.14-.05,13.27,13.27,0,0,1,6.55,4.07,20.29,20.29,0,0,1,3.94,6.72A28.64,28.64,0,0,1,466.4,254,29.47,29.47,0,0,1,465,266.26a32.09,32.09,0,0,1-2.42,5.91,20.61,20.61,0,0,1-3.53,4.86,8.46,8.46,0,0,1-4.77,2.54c-3.84.79-7.23-.6-10.38-4.18s-5.18-9.12-6-16.78A39.48,39.48,0,0,1,438,248.88ZM481.17,48.7c1.36,3.41,1.69,7.72,1,12.91q-2.86,21.69-5.41,43.31t-4.66,42q-2.13,20.4-3.66,38.68c-1,12.21-1.9,23.38-2.63,33.6-.24,3.57-.82,5.83-1.78,6.81s-2.55,1.14-4.83.48a39.69,39.69,0,0,1-7.69-1.88,38.72,38.72,0,0,1-7.07-3.4,13.89,13.89,0,0,1-5.3-5.7c-1.07-2.25-1.74-5.81-2-10.74-.68-9.81-1.37-21.49-2.08-35.23s-1.39-28.12-2-43.21-1.17-30.26-1.7-45.51-.91-29.19-1.1-41.65c-.14-6,.72-9.95,2.61-11.69s5.27-2,10.16-.67a81.28,81.28,0,0,1,15,4.35,65.41,65.41,0,0,1,14.52,7.66C477,42,479.83,45.3,481.17,48.7Z"/><path class="cls-4" d="M95.24,287.17q3.54-7.34,8.13-14.86t10.09-15a125.17,125.17,0,0,1,11.91-13.89c4.18-4,9.33-4,15.36-.26a60.84,60.84,0,0,1,8.77,5.06c2.35,1.68,4.86,3.54,7.5,5.53,2.85,2.35,4.43,4.23,4.76,5.66s-.27,3.31-1.83,5.65q-5,7.1-10.34,14.58t-10.79,16.1q5.64,7.83,11.84,15.69,6.09,7.67,12.36,16c1.38-2.32,2.87-4.55,4.45-6.71s3.34-4.41,5.26-6.75a11.59,11.59,0,0,1,4.58-3.75q2.24-.82,5.85.59a42,42,0,0,1,6.73,3q3,1.73,5.95,3.62c2.34,1.29,3.64,2.47,3.94,3.51s-.09,2.72-1.12,5q-3.52,7.14-7.3,14.38t-6.8,14.18q3.5,4.26,6.56,8c2,2.45,4,4.88,5.88,7.31q2.53-5.32,5.11-9.91t6-9.73a9.79,9.79,0,0,1,3.75-3.76,6.67,6.67,0,0,1,4.71,0,36.11,36.11,0,0,1,5.51,2.11c1.57.79,3.2,1.52,4.87,2.23,1.64,1,2.61,1.93,2.9,2.75s0,2.23-1,4.27q-3.22,7.23-6.41,14.7t-6,14.07c-1.07,3.09-2.27,5.11-3.6,6a11.48,11.48,0,0,1-4.18,1.88c-1.62.39-3.24.71-4.85,1s-3.63.49-6.06.66a15,15,0,0,1-5.92-.63,18.23,18.23,0,0,1-6.36-3.72c-28-26.42-59.89-56.51-96.37-91.07Q91.71,294.46,95.24,287.17Z"/></g><path class="cls-5" d="M104,329.31q12,11.63,25.54,22.91T157.3,374c9.51,7,18.64,13.23,27.29,18.89,1.63.77,2.52,1.48,2.65,2.13a2.12,2.12,0,0,1-.92,2,15.11,15.11,0,0,1-3.31,2q-2.19,1-4.66,2.31a39.39,39.39,0,0,1-10.39,3.2c-3.33.5-7-.26-10.8-2.37-4.1-1.83-8.73-4-13.85-6.54s-10.74-5.42-16.81-8.67q-2.64,4.84-5.16,9.44t-4.82,9.38c7.35,3.39,14.52,6.39,21.44,9.06s13.21,5.1,18.86,7.25c1.94.82,3,1.56,3.23,2.2s-.72,1.58-2.79,2.83-4.33,2.39-6.55,3.68a38.49,38.49,0,0,1-6.89,3.16,27.56,27.56,0,0,1-7.44,1.93,20.25,20.25,0,0,1-8.14-1.06c-8.08-2.52-17.52-5.25-28.18-8.06s-21.54-5.62-32.63-8.36S45.55,413,35.06,410.5,15.25,405.64,7,403.38C4,402.15,2.74,400.64,3,398.88s2-4.23,5-7.32a135,135,0,0,1,10.48-10.72A89.94,89.94,0,0,1,30,371.71a36.62,36.62,0,0,1,5-3,12.41,12.41,0,0,1,3.72-1.18,6.22,6.22,0,0,1,3.14.42,25.58,25.58,0,0,1,3.34,1.65c5.13,3.33,11.37,7,18.83,11S79.65,388.65,88.59,393q2.91-5.37,6.09-10.47l6.19-9.9Q85.33,363,70.7,353.21c-9.75-6.55-18.23-12.83-25.58-18.83Q41,330.9,42,327.89c.66-2,2.5-4.54,5.55-7.51a76.36,76.36,0,0,1,9.67-8.07,86.57,86.57,0,0,1,11.17-6.69c3.77-1.63,6.58-2.26,8.41-2s3.81,1.58,6,3.89C88.9,314.28,95.93,321.57,104,329.31Z"/><path class="cls-5" d="M282.58,309.53c-3.32,4.2-6.32,8.21-9.06,12A12.66,12.66,0,0,1,271,325a6.28,6.28,0,0,1-2.63,1.45,7.79,7.79,0,0,1-2.6.19,20.49,20.49,0,0,1-2.57-.42c-2.07-.36-4.06-.8-6-1.32s-4.45-1.13-7.59-1.81a26.36,26.36,0,0,1-6.9-2.74,23.09,23.09,0,0,1-6.5-5.84c-3.48-3.95-7.52-8.73-12.1-14.39s-9.43-11.85-14.58-18.64-10.41-13.95-15.8-21.5S183,244.74,177.88,236.86s-10-15.64-14.64-23.29-8.74-14.88-12.43-21.63c-1.92-4-2.49-7.08-1.7-9.11s2.92-4,6.4-5.78A66.73,66.73,0,0,1,167.3,172,44.78,44.78,0,0,1,180,169.7c4,.13,6.92.82,8.75,2s3.52,3.73,5.08,7.59c3.66,8.85,7.86,18.28,12.6,28.22s9.67,19.93,14.83,29.92,10.36,19.71,15.68,29.14,10.47,18.25,15.46,26.52a85.15,85.15,0,0,1,7.42-8.45c2.47-2.43,5.27-5,8.4-7.62q2.78-2.38,5-2.44c1.49,0,3.46.79,5.83,2.52a53.08,53.08,0,0,1,6.46,5.23c2,1.9,3.77,3.78,5.39,5.65q3.18,3.34,3.63,4.82t-2,4.44C289.22,301.24,285.88,305.35,282.58,309.53Z"/><path class="cls-5" d="M334.84,280.57c-4,3.92-7.6,7.69-10.92,11.31a13.85,13.85,0,0,1-3.09,3.29,5.85,5.85,0,0,1-2.82,1.1,7,7,0,0,1-2.58-.22,17.69,17.69,0,0,1-2.44-.89c-2-.73-3.84-1.54-5.65-2.42s-4.18-2-7.14-3.26a26,26,0,0,1-6.33-4.16,25,25,0,0,1-5.47-7.43c-2.81-4.88-6.07-10.76-9.77-17.7s-7.61-14.54-11.78-22.87S258.39,220.22,254,211,245.26,192.3,241,182.71s-8.25-19-12-28.28-7.19-18-10.21-26.07c-1.52-4.77-1.76-8.16-.73-10.12s3.45-3.51,7.23-4.54A61.24,61.24,0,0,1,238,111.19a45.39,45.39,0,0,1,13.34.59c4.11,1.07,7,2.47,8.76,4.14s3.16,4.75,4.28,9.17q4,15.25,9.26,32.64t11,34.86q5.7,17.53,11.62,34.12t11.39,31.15a81.49,81.49,0,0,1,8.67-7.67c2.84-2.15,6-4.37,9.56-6.6,2.09-1.36,3.9-1.93,5.4-1.71s3.33,1.45,5.43,3.69a55.74,55.74,0,0,1,5.58,6.64c1.68,2.34,3.15,4.64,4.45,6.88,1.74,2.71,2.68,4.61,2.8,5.71s-.79,2.55-2.75,4.37Q340.81,274.71,334.84,280.57Z"/><path class="cls-5" d="M398.59,69.85a93.86,93.86,0,0,1,9.58,19.65,249.91,249.91,0,0,1,9.88,41.14,320.94,320.94,0,0,1,3.81,44.11A312.65,312.65,0,0,1,420,215.86a153.41,153.41,0,0,1-7.08,33.06c-2.32,5.61-5,9.63-8.06,12.18a20.78,20.78,0,0,1-11.48,4.43,60.21,60.21,0,0,1-9.72.1A28.05,28.05,0,0,1,373.56,263a49.4,49.4,0,0,1-8.77-5.54A47,47,0,0,1,356,248.5a173.94,173.94,0,0,1-13.14-20.7,249.31,249.31,0,0,1-12.38-26.12,273.81,273.81,0,0,1-10.31-30.15,239.69,239.69,0,0,1-6.72-32.66,198.83,198.83,0,0,1-1.66-33.4,138.09,138.09,0,0,1,4.82-32.12,44.1,44.1,0,0,1,10.28-16.88c4.74-4.86,10-7.76,15.69-8.63a69.87,69.87,0,0,1,22,.15,50.36,50.36,0,0,1,19.24,7.24A51.64,51.64,0,0,1,398.59,69.85Zm-41.8,28.24a89.25,89.25,0,0,0-3,19.88,220.19,220.19,0,0,0,.19,25.85c.54,9.21,1.47,17.82,2.7,25.91a229.48,229.48,0,0,0,4.89,23.91c2.08,8,4.28,15.26,6.61,21.81a103.33,103.33,0,0,0,7.15,16.26c2.46,4.32,4.75,6.67,6.95,7.09,2,.48,3.64-.77,4.89-3.83A50.66,50.66,0,0,0,390,221.84a168,168,0,0,0,.77-20.91c-.13-8.25-.67-17.18-1.65-26.86-.75-8-2-16.79-3.67-26.38s-3.74-18.57-6.1-26.82a121,121,0,0,0-7.92-21.22c-2.88-5.7-5.66-8.69-8.24-8.9C360.49,90.4,358.3,92.87,356.79,98.09Z"/><path class="cls-5" d="M436,225.88a22.38,22.38,0,0,1,2.7-8.22,11.75,11.75,0,0,1,5.49-5,11.44,11.44,0,0,1,8.14-.05,13.27,13.27,0,0,1,6.55,4.07,20.29,20.29,0,0,1,3.94,6.72A28.64,28.64,0,0,1,464.4,231,29.47,29.47,0,0,1,463,243.26a32.09,32.09,0,0,1-2.42,5.91,20.61,20.61,0,0,1-3.53,4.86,8.46,8.46,0,0,1-4.77,2.54c-3.84.79-7.23-.6-10.38-4.18s-5.18-9.12-6-16.78A39.48,39.48,0,0,1,436,225.88ZM479.17,25.7c1.36,3.41,1.69,7.72,1,12.91q-2.86,21.69-5.41,43.31t-4.66,42q-2.13,20.4-3.66,38.68c-1,12.21-1.9,23.38-2.63,33.6-.24,3.57-.82,5.83-1.78,6.81s-2.55,1.14-4.83.48a39.69,39.69,0,0,1-7.69-1.88,38.72,38.72,0,0,1-7.07-3.4,13.89,13.89,0,0,1-5.3-5.7c-1.07-2.25-1.74-5.81-2-10.74-.68-9.81-1.37-21.49-2.08-35.23s-1.39-28.12-2-43.21-1.17-30.26-1.7-45.51-.91-29.19-1.1-41.65c-.14-6,.72-10,2.61-11.69s5.27-2,10.16-.67a81.28,81.28,0,0,1,15,4.35,65.41,65.41,0,0,1,14.52,7.66C475,19,477.83,22.3,479.17,25.7Z"/><path class="cls-5" d="M93.24,264.17q3.54-7.34,8.13-14.86t10.09-15a125.17,125.17,0,0,1,11.91-13.89c4.18-4,9.33-4,15.36-.26a60.84,60.84,0,0,1,8.77,5.06c2.35,1.68,4.86,3.54,7.5,5.53,2.85,2.35,4.43,4.23,4.76,5.66s-.27,3.31-1.83,5.65q-5,7.09-10.34,14.58t-10.79,16.1q5.64,7.83,11.84,15.69,6.09,7.67,12.36,16c1.38-2.32,2.87-4.55,4.45-6.71s3.34-4.41,5.26-6.75a11.59,11.59,0,0,1,4.58-3.75q2.24-.82,5.85.59a42,42,0,0,1,6.73,3q3,1.73,5.95,3.62c2.34,1.29,3.64,2.47,3.94,3.51s-.09,2.72-1.12,5q-3.52,7.14-7.3,14.38t-6.8,14.18q3.5,4.26,6.56,8c2,2.45,4,4.88,5.88,7.31q2.53-5.32,5.11-9.91t6-9.73a9.79,9.79,0,0,1,3.75-3.76,6.67,6.67,0,0,1,4.71,0,36.11,36.11,0,0,1,5.51,2.11c1.57.79,3.2,1.52,4.87,2.23,1.64,1,2.61,1.93,2.9,2.75s0,2.23-1,4.27q-3.22,7.23-6.41,14.7t-6,14.07c-1.07,3.09-2.27,5.11-3.6,6a11.48,11.48,0,0,1-4.18,1.88c-1.62.39-3.24.71-4.85,1s-3.63.49-6.06.66a15,15,0,0,1-5.92-.63,18.23,18.23,0,0,1-6.36-3.72c-28-26.42-59.89-56.51-96.37-91.07Q89.71,271.46,93.24,264.17Z"/></g></g></g></svg>