<svg xmlns="http://www.w3.org/2000/svg" viewBox="0 0 113.55 87.42"><defs><style>.cls-1{fill:#fff;}.cls-2{fill:#1d1d1b;}</style></defs><g id="Layer_2" data-name="Layer 2"><g id="Layer_1-2" data-name="Layer 1"><path class="cls-1" d="M3.27,6.66C4.93,2.78,6.08-.23,19.1.79S90.59,2.83,96,2.58s12.77-1.79,14.3,7.15-2.3,20.17,0,35.74,3.57,19.66-1.53,22.47c-2.2,1.21-19.09,1.47-38.1,1.34-3.36,0-5.77,15.7-9.19,15.66S53.67,69.07,50.37,69c-18.37-.33-34.58-.86-37.14-1.07C7.1,67.43,1,63.6,2.25,56.71S1.64,10.49,3.27,6.66Z"/><path class="cls-2" d="M3,6.57A17.87,17.87,0,0,1,4.25,4,6.48,6.48,0,0,1,6.24,2,12.69,12.69,0,0,1,11.67.35c3.74-.42,7.49,0,11.16,0C30.22.43,37.64.21,45,.11c14.81-.27,29.62,0,44.4.54l5.5.17c1.75.06,3.6-.12,5.56-.07a14.07,14.07,0,0,1,6,1.21A8.09,8.09,0,0,1,109.14,4a9.39,9.39,0,0,1,1.55,2.79,18.65,18.65,0,0,1,.87,5.82,50.58,50.58,0,0,1-.18,5.66c-.33,3.73-.71,7.4-.95,11.07a77.65,77.65,0,0,0,.07,11c.32,3.64,1,7.26,1.65,10.92.32,1.83.65,3.65.93,5.51a30.1,30.1,0,0,1,.45,5.78,9,9,0,0,1-.69,3.19,7,7,0,0,1-2.16,2.68,6.17,6.17,0,0,1-.66.48l-.33.21a3,3,0,0,1-.41.24,7.92,7.92,0,0,1-1.72.52c-1,.2-1.94.33-2.89.45-3.76.43-7.47.65-11.2.83s-7.43.27-11.14.35-7.42.09-11.13.12h-.57a.34.34,0,0,0,.1,0,1,1,0,0,0,.47-.14,4,4,0,0,0-.3.38A13.82,13.82,0,0,0,69.85,74c-.67,1.58-1.27,3.32-1.92,5.07a33.63,33.63,0,0,1-2.41,5.51,8.27,8.27,0,0,1-1.2,1.59,4.7,4.7,0,0,1-1.15.85,3.65,3.65,0,0,1-2,.43,4,4,0,0,1-1.74-.57,5.78,5.78,0,0,1-1-.75,9.73,9.73,0,0,1-1.21-1.41,38.62,38.62,0,0,1-3-5.18c-.85-1.68-1.64-3.34-2.47-4.89-.42-.77-.85-1.52-1.28-2.16a6.42,6.42,0,0,0-.62-.79c-.15-.2-.37-.27,0-.11a1.25,1.25,0,0,0,.4.07H47.92l-2.78,0L34,71.33c-3.71-.07-7.41-.24-11.12-.39l-5.57-.25-2.8-.15a23,23,0,0,1-3-.31,18,18,0,0,1-6-2.24A11.46,11.46,0,0,1,.89,63a10.61,10.61,0,0,1-.6-6.73A49.37,49.37,0,0,0,.9,51c.5-7.33.75-14.76,1-22.17l.31-11.12c.07-1.85.09-3.7.18-5.56,0-.93.1-1.85.18-2.78A12.19,12.19,0,0,1,3,6.57Zm.46.19a11.93,11.93,0,0,0-.39,2.66C3,10.34,3,11.26,3,12.18c0,1.85-.07,3.7,0,5.55.07,3.7.18,7.4.38,11.1.34,7.41.89,14.79,1.06,22.27,0,.94,0,1.88,0,2.84a24.68,24.68,0,0,1-.17,3,6.34,6.34,0,0,0,.61,4.11c1.27,2.34,4.3,3.87,7.43,4.27,1.47.21,3.43.21,5.24.28l5.54.14c3.69.09,7.39.13,11.09.25l11.09.27,2.77.07,1.39,0,.69,0h.42a4.06,4.06,0,0,1,1.07.21,5.36,5.36,0,0,1,2.17,1.54,11.89,11.89,0,0,1,1.07,1.4,29.63,29.63,0,0,1,1.53,2.64c.9,1.73,1.68,3.42,2.47,5.06a35.94,35.94,0,0,0,2.47,4.5,5,5,0,0,0,.58.71c.14.18.25.08-.33,0a1.3,1.3,0,0,0-.66.12c-.1.06-.09.07,0,0a3.22,3.22,0,0,0,.47-.63,31.91,31.91,0,0,0,2.07-4.65c.65-1.71,1.28-3.47,2.08-5.28A17.65,17.65,0,0,1,67,69.2a6.22,6.22,0,0,1,1.58-1.63,3.79,3.79,0,0,1,1.75-.64h.93l11.08.16c7.38.07,14.81.23,22.07-.07.9,0,1.8-.12,2.63-.23a6.63,6.63,0,0,0,.95-.19s.13-.06.21-.09l.26-.15c.16-.1.33-.19.48-.3a4,4,0,0,0,1.4-1.51,5.92,5.92,0,0,0,.6-2.18,29.67,29.67,0,0,0-.13-5.3c-.18-1.82-.4-3.65-.63-5.49s-.46-3.67-.71-5.51-.43-3.72-.54-5.59a89,89,0,0,1,0-11.2c.16-3.73.59-7.42.71-11.09a47.07,47.07,0,0,0-.06-5.45,17,17,0,0,0-1.09-5.06,5.74,5.74,0,0,0-3.09-3.21,11.1,11.1,0,0,0-4.82-.56C98.81,4,97,4.3,95,4.38s-3.75.14-5.61.18Q67.14,5.07,45,3.49C37.55,3,30.15,2.35,22.75,1.7a71.85,71.85,0,0,0-11-.64A11,11,0,0,0,6.56,2.44C5,3.36,4.21,5.07,3.5,6.76Z"/><path class="cls-2" d="M105.55,17.84c-.39,3.12-.77,6.22-1.08,9.33s-.6,6.22-.72,9.33a53.33,53.33,0,0,0,.23,9.29c.19,1.55.41,3.1.64,4.64.1.78.22,1.55.35,2.32.07.39.14.77.22,1.15a2.81,2.81,0,0,0,.36,1.09,6.55,6.55,0,0,1-.84-2.18c-.2-.76-.39-1.52-.57-2.29-.33-1.53-.63-3.07-.92-4.61a42.24,42.24,0,0,1-.47-9.46,86.9,86.9,0,0,1,1-9.38c.24-1.55.51-3.09.8-4.64S105.14,19.36,105.55,17.84Z"/><path class="cls-2" d="M5.79,14.07a8.16,8.16,0,0,1-.6-2.38,10.57,10.57,0,0,1,0-2.45,8.28,8.28,0,0,1,.68-2.39A5.13,5.13,0,0,1,7.42,4.91a14.38,14.38,0,0,0-.8,2.21A21.23,21.23,0,0,0,6.2,9.37C6,10.89,5.94,12.44,5.79,14.07Z"/></g></g></svg>