<svg xmlns="http://www.w3.org/2000/svg" viewBox="0 0 111.59 89.57"><defs><style>.cls-1{fill:#fff;}.cls-2{fill:#1d1d1b;}</style></defs><g id="Layer_2" data-name="Layer 2"><g id="Layer_1-2" data-name="Layer 1"><path class="cls-1" d="M.42,9.66c1.65-3.89,3-6.9,16-8.1C30.21.28,99.68-1.08,101.21,7.85s3.6,20.55,5.9,36.13,3.57,19.66-1.53,22.47c-1.73,1-12.67,1.92-26.64,2.77-4.48.28-9.75,18-14.64,18.28-7.07.35-13.88-16.83-20.78-16.56-17.52.68-32.53,1-35,.83C2.43,71.26-1.21,13.48.42,9.66Z"/><path class="cls-2" d="M.42,9.66A10.69,10.69,0,0,1,3.3,5.2,13.29,13.29,0,0,1,8.11,2.9,54.89,54.89,0,0,1,18.7,1.28C25.83.77,33,.48,40.12.3S54.42,0,61.58,0,75.91.2,83.09.77A96,96,0,0,1,93.9,2.17a26.23,26.23,0,0,1,5.48,1.64,7.34,7.34,0,0,1,2.82,2,3.87,3.87,0,0,1,.6,1,4.19,4.19,0,0,1,.19.63l.07.36.25,1.31c1.37,7,2.73,14,3.94,21.1L109,40.85l1.66,10.59c.27,1.78.53,3.57.72,5.44a19.51,19.51,0,0,1-.15,6.15,8,8,0,0,1-1.7,3.42,10,10,0,0,1-2.81,2.19,6.09,6.09,0,0,1-1.11.43,7.92,7.92,0,0,1-.81.2c-.51.12-1,.2-1.45.28-.94.15-1.85.27-2.76.38-3.63.43-7.2.71-10.79,1s-7.16.47-10.73.63c.25-.1-.28.09-.72.61A14.68,14.68,0,0,0,77,73.94c-.92,1.37-1.79,2.9-2.67,4.44s-1.75,3.12-2.72,4.7A23.8,23.8,0,0,1,68,87.8a7.64,7.64,0,0,1-1.46,1.11,4.81,4.81,0,0,1-2.24.66,7.41,7.41,0,0,1-3.56-.86,17.65,17.65,0,0,1-4.67-3.83c-2.53-2.77-4.59-5.71-6.86-8.29a17.88,17.88,0,0,0-3.56-3.26,4.39,4.39,0,0,0-1.77-.69,2.76,2.76,0,0,0-.45,0h-2l-10.73.11c-7.16,0-14.28.12-21.49-.12l-.71,0a2,2,0,0,1-1-.39,4.33,4.33,0,0,1-1.07-1.25,13.37,13.37,0,0,1-1.11-2.61A45.12,45.12,0,0,1,4,63.06c-.7-3.53-1.17-7.09-1.6-10.64C1.54,45.32,1,38.18.57,31.05c-.22-3.57-.4-7.14-.5-10.71C0,18.56,0,16.77,0,15c0-.89,0-1.78.07-2.68A10.69,10.69,0,0,1,.42,9.66Zm0,0A10.68,10.68,0,0,0,.1,12.31c0,.89,0,1.78,0,2.67,0,1.79.05,3.57.12,5.36C.3,23.91.51,27.47.77,31c.56,7.12,1.34,14.22,2.39,21.28.55,3.52,1.18,7,2,10.48a44.1,44.1,0,0,0,1.49,5.06,12.21,12.21,0,0,0,1.08,2.27,2.58,2.58,0,0,0,.67.76.39.39,0,0,0,.24.08h.63c7.07-.11,14.24-.56,21.36-.94l10.69-.64,1.34-.08.66,0a5.27,5.27,0,0,1,.89,0,7.64,7.64,0,0,1,3.23,1.09,20.44,20.44,0,0,1,4.46,3.8c2.53,2.71,4.67,5.59,7,8a13.65,13.65,0,0,0,3.63,2.87,3.33,3.33,0,0,0,1.59.37,2.41,2.41,0,0,0,.94-.67,20.44,20.44,0,0,0,2.77-3.9c.87-1.49,1.7-3,2.55-4.63s1.73-3.18,2.78-4.79A17.64,17.64,0,0,1,75.06,69a8.08,8.08,0,0,1,1.38-1.22,5.42,5.42,0,0,1,1-.55,4.74,4.74,0,0,1,1.36-.32c7.1-.58,14.25-1,21.2-1.87.86-.11,1.72-.23,2.54-.38.42-.07.82-.15,1.18-.23.19,0,.36-.09.49-.13s.26-.1.15,0a5.17,5.17,0,0,0,1.4-1.07,2.87,2.87,0,0,0,.66-1.33,15.15,15.15,0,0,0,.08-4.52c-.15-1.69-.39-3.43-.64-5.19l-3-21.19L99.67,9.79l-.2-1.33,0-.3h0A.33.33,0,0,0,99.36,8a4.39,4.39,0,0,0-1.48-1.08,24.49,24.49,0,0,0-4.7-1.63A92.45,92.45,0,0,0,82.81,3.44,372.27,372.27,0,0,0,40.13,1.05c-7.14,0-14.28.05-21.41.43A56.21,56.21,0,0,0,8.14,3,13.35,13.35,0,0,0,3.33,5.24,10.59,10.59,0,0,0,.42,9.66Z"/><path class="cls-2" d="M95.54,23.42a86.18,86.18,0,0,1,2.83,8.91c.8,3,1.45,6.07,2,9.15a74.6,74.6,0,0,1,1,9.31,63.42,63.42,0,0,1-.15,9.35c-.07-3.11-.28-6.21-.57-9.3s-.71-6.15-1.25-9.2-1.12-6.09-1.76-9.13c-.31-1.52-.65-3-1-4.54S95.89,24.94,95.54,23.42Z"/><path class="cls-2" d="M3.74,15.09a8.29,8.29,0,0,1-.35-2.42,10.54,10.54,0,0,1,.26-2.44,8.39,8.39,0,0,1,.92-2.31A5.06,5.06,0,0,1,6.29,6.14a15.77,15.77,0,0,0-1,2.12,21.13,21.13,0,0,0-.65,2.19C4.27,12,4.05,13.48,3.74,15.09Z"/></g></g></svg>