<svg id="Слой_1" data-name="Слой 1" xmlns="http://www.w3.org/2000/svg" viewBox="0 0 1181.13 882.56"><defs><style>.cls-1{fill:#f7edc4;}</style></defs><path class="cls-1" d="M439,505.49Q467,517.2,495.59,528q28.8,10.8,58.51,20.21c11.94,3.76,24.11,7.14,36.24,10.58q24.88,7.05,50.69,12.14c11.09,2.19,22.27,4.25,33.55,5.88,11.91,1.73,23.94,3.13,36,4.21,10,.89,20.15,1.23,30.25,1.58,7.72.27,15.48.41,23.21.18,16-.49,31.91-1.4,47.69-3.76,8.38-1.26,16.81-2.34,25.11-3.89A553.12,553.12,0,0,0,898.57,560c18.24-5.64,36.31-11.63,54.45-17.46,0-.21,0-.43,0-.64-1.17.22-2.35.42-3.51.68C930,547,910.4,551.38,890.58,555.1Q868,559.33,845.17,562c-9.53,1.11-19.15,1.74-28.74,2.45-3.59.26-7.21.17-10.81.2-7.64.07-15.3.33-22.92.11q-14.34-.42-28.62-1.49A420.06,420.06,0,0,1,703,556a543.36,543.36,0,0,1-67.71-18.23c-18.33-6.18-36.16-13.05-53.58-20.47q-30.08-12.83-58.41-27.62c-10.42-5.42-20.79-10.89-31-16.54q-15.54-8.61-30.67-17.64c-12.58-7.55-24.95-15.29-37.36-23-5.13-3.19-10.21-6.42-15.19-9.74-9.95-6.63-19.81-13.35-29.73-20a6.54,6.54,0,0,0-1.42-.41c-.49,4.08-1,8-1.42,11.84-.52,4.45-1,8.91-1.5,13.36-.56,4.78-1.15,9.56-1.71,14.34q-.8,6.68-1.54,13.36c-.57,5.19-1.08,10.37-1.65,15.55a11.51,11.51,0,0,1-.53,1.86l.1,1.95C392.53,485.19,415.53,495.64,439,505.49Z" transform="translate(-369.58 -98.83)"/><path class="cls-1" d="M1457,372.51q-9,.15-18,.41c-9.07.27-18.16.46-27.23.92-13.77.7-27.54,1.56-41.3,2.41-8.63.54-17.25,1.18-25.87,1.82q-10.3.75-20.6,1.62-5.22.44-10.43,1-13,1.54-26,3.16c-6.7.83-13.43,1.58-20.08,2.6-9.45,1.45-18.89,3-28.26,4.72-11.92,2.21-23.85,4.48-35.64,7.08a538.36,538.36,0,0,0-64.15,18.39,438.21,438.21,0,0,0-46.91,19.55,359,359,0,0,0-65.88,41.91c-8.31,6.66-16.23,13.6-24.21,20.48-3.63,3.12-7.06,6.37-10.44,9.65-7.64,7.39-15.19,14.83-22.76,22.26-1.22,1.19-2.31,2.45-3.46,3.68l.64.45a29.87,29.87,0,0,0,2.63-1.63c4.24-3.27,8.4-6.6,12.67-9.84,7.47-5.66,14.85-11.39,22.54-16.88,12.41-8.86,25.15-17.46,38.61-25.45a418.26,418.26,0,0,1,61-29.89,460.27,460.27,0,0,1,57.41-17.76,539,539,0,0,1,59-11.25c10.15-1.34,20.29-2.71,30.47-3.84,8.24-.92,16.51-1.7,24.8-2.22,23.5-1.47,47-2.61,70.56-3.1h.66c8.73,0,17.45,0,26.18,0,4.48,0,9-.08,13.44-.09,2.94,0,5.89,0,8.83.1q9.46.19,18.94.43c4.79.11,9.59.22,14.37.38s9.34.41,14,.6c6.09.24,12.19.4,18.27.7,8.68.44,17.35.95,26,1.47,9.64.58,19.28,1.2,28.92,1.8,2.43.15,4.87.24,7.2.36-2.12-7.74-4.37-15.13-6.13-22.59-1.2-5.08-1.8-10.25-2.53-15.4-.31-2.17-.24-4.39-.42-6.58-.13-1.64-.38-1.8-2.53-1.81-9.49,0-19-.05-28.48,0C1474.26,372.24,1465.63,372.37,1457,372.51Z" transform="translate(-369.58 -98.83)"/><path class="cls-1" d="M953.72,543l.67.45.66.45.68.42a.84.84,0,0,1,.32.41.84.84,0,0,0-.32-.41h0l-.68-.42h0l-.66-.45-.67-.45a.68.68,0,0,0-.13.4c-1.19.41-2.45.74-3.56,1.25-7.38,3.36-14.65,6.84-22.09,10.12-18.21,8-36.52,15.93-55.61,22.73C856.86,583,841.1,587.9,824.91,592a446,446,0,0,1-57.82,10.6c-8.88,1-17.84,1.73-26.78,2.32-6.43.43-12.9.38-19.34.67-10.5.48-21,.53-31.43.08-10-.44-20-.85-30-1.44-17-1-33.9-2.87-50.65-5.14-11.53-1.56-23-3.4-34.45-5.19-21.69-3.38-43.07-7.61-64.25-12.3-18.17-4-36.21-8.35-54.21-12.76-12.65-3.09-25.18-6.45-37.66-9.88-13.91-3.83-27.7-7.88-41.55-11.82-.77-.22-1.6-.32-2.68-.53a23.07,23.07,0,0,0,.21,3.58c1,4.62,2.16,9.22,3.07,13.85,1.09,5.51,2.08,11,2.93,16.58,1.12,7.32,2.07,14.65,3.07,22a12.4,12.4,0,0,1,.14,2.19c-.05,1.27.7,1.86,2.4,2.12,5,.74,9.95,1.65,14.94,2.42,15.29,2.37,30.56,4.83,45.91,7,15.88,2.25,31.82,4.29,47.77,6.25,11.67,1.43,23.4,2.64,35.13,3.81,11.3,1.12,22.63,2.1,34,3,7.23.59,14.49,1,21.76,1.45s14.55.72,21.83,1c7.83.29,15.66.5,23.5.7,3.16.08,6.32.07,9.49.07,8.94,0,17.9.24,26.84,0,12.7-.41,25.39-1.17,38.08-1.87,4.69-.27,9.38-.69,14-1.24,7.57-.9,15.11-2,22.66-3,5.71-.78,11.45-1.49,17.11-2.5,11.74-2.08,23.39-4.47,34.86-7.39a431.36,431.36,0,0,0,56.06-18.33,570.55,570.55,0,0,0,70.85-35c9.66-5.56,19.14-11.27,28.75-16.87a24.82,24.82,0,0,1,3.66-1.41h0c-3.08,2.47-6.08,5-9.23,7.4q-11.49,8.79-23.1,17.5-17.39,13-36.29,24.78A416.66,416.66,0,0,1,821.69,627a451.51,451.51,0,0,1-63.23,20.16,509.66,509.66,0,0,1-50.6,10c-8.29,1.17-16.55,2.52-24.87,3.54-9.08,1.11-18.21,2-27.34,2.85-7.4.67-14.82,1.26-22.25,1.63q-21.31,1-42.65,1.75c-10.38.34-20.76.45-31.14.59-6.66.08-13.32.06-20,0q-13.42-.06-26.83-.2c-2.62,0-5.23-.11-7.84-.19q-8.16-.24-16.31-.52-6.86-.23-13.7-.49c-4.35-.18-8.69-.4-13-.6-5.76-.26-11.52-.49-17.27-.81-6.61-.36-13.21-.79-19.82-1.21-8.12-.52-16.24-1.06-24.36-1.56-1.33-.08-2.69,0-4.26,0,1.27,4,2.59,7.54,3.55,11.17,1.61,6.09,3.24,12.19,4.38,18.34.89,4.81,1.06,9.7,1.53,14.55.2,2.11.32,2.21,3,2.2,6.44,0,12.87,0,19.31,0,8-.05,15.94-.1,23.92-.23,10.71-.17,21.42-.33,32.13-.66,13.12-.41,26.25-1,39.37-1.5,3.49-.15,7-.6,10.45-.83,12.12-.81,24.25-1.5,36.37-2.38,8.82-.65,17.64-1.45,26.44-2.3s17.58-1.81,26.36-2.8c7.47-.84,15-1.64,22.38-2.72,10.22-1.48,20.44-3,30.55-4.88,14.06-2.59,28.11-5.29,42-8.35a522.16,522.16,0,0,0,60.47-17.3,413.77,413.77,0,0,0,59.62-25.86A367.6,367.6,0,0,0,896,599.76c9.06-7.36,17.68-15,26.09-22.83,9.58-8.88,18.68-18,28-27.06,1.61-1.55,3.36-3,5-4.54v0h0l.42-.17-.42.17c0,.33,0,.65.05,1-6.44,8.45-12.79,16.95-19.35,25.36-8.56,11-17.61,21.74-27.43,32.14a320.33,320.33,0,0,1-28.3,26.88c-6.22,5.16-12.79,10.09-19.33,15a265.91,265.91,0,0,1-26.2,17.18,446.47,446.47,0,0,1-70.8,33.1,681.17,681.17,0,0,1-77.32,23.13c-18.73,4.51-37.64,8.55-56.8,11.82-15.07,2.56-30.15,5.12-45.27,7.49-9.55,1.5-19.17,2.7-28.78,3.92s-19.46,2.36-29.21,3.43c-9.43,1-18.88,2-28.33,2.89-8.37.8-16.75,1.52-25.13,2.23q-9.46.8-19,1.45c-12.45.83-24.9,1.61-37.35,2.41l-.21.56c2,5.17,4.22,10.32,6.09,15.53a184.48,184.48,0,0,1,7.54,26A11.61,11.61,0,0,0,431,799c2.22-.12,4.09-.1,5.92-.32,5.29-.66,10.56-1.45,15.85-2.13,6.91-.9,13.84-1.67,20.74-2.65,9.36-1.32,18.7-2.79,28-4.21,9.88-1.5,19.79-2.91,29.62-4.58,14-2.38,28-4.74,41.92-7.53q29.25-5.9,58.3-12.44c27.71-6.31,54.86-13.88,81.51-22.5,16.83-5.45,33.34-11.41,49.42-18a467.63,467.63,0,0,0,64.9-32.27,324,324,0,0,0,33.35-22.74c7.66-6.08,14.83-12.51,22-18.94a237.66,237.66,0,0,0,23.07-24.51A329.84,329.84,0,0,0,934.09,586c5.26-8.62,10.15-17.35,15.08-26.07,2.44-4.32,4.6-8.72,6.88-13.08l1.15-.6h0a14.6,14.6,0,0,1-.37,2.64c-4.92,15.37-10.4,30.64-16.92,45.71a285.07,285.07,0,0,1-14.64,29.32,255.16,255.16,0,0,1-27.18,38.46,279.86,279.86,0,0,1-30.18,30.15c-5.07,4.37-10.45,8.57-15.88,12.7s-11,8.2-16.73,12.07c-12.19,8.21-25,15.86-38.28,23q-18.46,10-37.95,18.76c-25.72,11.58-52.32,21.86-79.61,31.14-26,8.82-52.34,16.78-79.06,24.07-26,7.08-52.17,13.65-78.66,19.48-17.6,3.88-35.26,7.6-52.9,11.4-3.1.67-6.18,1.39-9.66,2.17,1.17,1.19,2,2.11,2.93,3,4.22,4.06,8.52,8.07,12.68,12.16,9.05,8.89,18,17.81,27,26.71,1.95,1.94,2,2,5.13,1,14.1-4.29,28.22-8.55,42.28-12.92,28.55-8.86,56.78-18.28,84.45-28.63,18.48-6.92,36.88-14,55.08-21.31,17.23-7,34.06-14.47,50.62-22.33q23.7-11.25,46.3-23.71c12.45-6.91,24.68-14.05,36.19-21.83,9.76-6.61,19.48-13.28,28.74-20.28a312.29,312.29,0,0,0,28.06-23.87c7.22-6.92,14.09-14,20.39-21.39a235.93,235.93,0,0,0,28.65-41.75,228.81,228.81,0,0,0,15.08-34.87c5.78-17.07,9.64-34.37,12.71-51.75L959,546.21l-1.12,0,1.12,0,.82-1,.17,3.3c0,4.3,0,8.61,0,12.92s.1,8.61,0,12.92c-.21,7.31-.43,14.62-.9,21.93-.37,5.75-.86,11.52-1.77,17.25-1.39,8.65-2.76,17.32-4.9,25.89a201.38,201.38,0,0,1-21.94,53,252.3,252.3,0,0,1-19.33,28.15A337.45,337.45,0,0,1,867.42,766c-8.27,7.23-17.13,14.1-25.86,21-10.56,8.38-21.85,16.2-33.3,23.9-16.15,10.86-32.91,21.16-50.12,31.07q-40.7,23.43-84,44.06-28,13.3-56.44,26.17c-13.65,6.16-27.61,11.93-41.43,17.88-1,.43-2,.9-3.34,1.54,4.93,1.74,9.39,3.34,13.88,4.89q13.68,4.73,27.38,9.41c13.17,4.49,26.38,8.92,39.53,13.44a5.11,5.11,0,0,0,4.76-.52c11.64-6.89,23.5-13.57,35-20.58q22.78-13.87,45.14-28.17c11.19-7.16,22.16-14.51,33-21.95,9.78-6.72,19.37-13.61,28.83-20.58,9.93-7.33,19.77-14.73,29.35-22.31,13.7-10.84,26.87-22,39.28-33.7,4.75-4.47,9.62-8.88,14.16-13.45,9.3-9.36,18.28-18.87,26.61-28.73A318.5,318.5,0,0,0,935,735.74a239.58,239.58,0,0,0,19-35.22,196.62,196.62,0,0,0,10.71-31.89,171,171,0,0,0,4.56-28.84c.32-5.6,1-11.21.9-16.8-.1-8.14-.71-16.26-1.12-24.39-.08-1.71-.13-3.42-.37-5.11-.9-6.61-1.87-13.2-2.83-19.8-.38-2.65-.7-5.32-1.19-8-1.06-5.76-2.23-11.51-3.35-17.27,0-.82-.08-1.65-.13-2.7,1,.12,1.77-1.72,2.59.15l1.2.49c.71,1,1.39,2,2.16,3,4.63,5.8,9.38,11.54,13.9,17.39a438.23,438.23,0,0,1,25.72,36.49,249.36,249.36,0,0,1,21.69,43.39,184.24,184.24,0,0,1,11,46.66c1,9.78.79,19.65,1.08,29.49a146.49,146.49,0,0,1-1.49,22.88c-.81,6.31-1.33,12.65-2.61,18.93-2.27,11.19-4.74,22.38-7.64,33.51a443.16,443.16,0,0,1-13.7,42.46,709.2,709.2,0,0,1-28.92,67.23c-6.17,12.48-12.38,25-18.84,37.35-4.76,9.12-10,18.11-14.93,27.17-.67,1.22-1.59,2.43-1.67,3.93l6.72-.91c6.57-.92,13.14-1.87,19.71-2.75,4.86-.66,9.72-1.25,14.59-1.83,6.71-.8,13.41-1.65,20.13-2.33,5.87-.58,11.76-1,17.65-1.41,1.63-.11,2.31-.66,2.66-1.77.74-2.39,1.6-4.76,2.36-7.15,4-12.57,8.16-25.12,11.89-37.73s7.17-25.09,10.39-37.67c2.83-11.06,5.49-22.15,7.64-33.28,2.58-13.38,4.72-26.8,6.71-40.22,1.35-9.13,2.26-18.29,3.06-27.45.59-6.65.83-13.32,1-20q.19-8.78-.2-17.55c-.26-5.6-.85-11.18-1.36-16.77-.28-3.07-.59-6.15-1.11-9.19-1.15-6.82-2.3-13.64-3.72-20.41-1.24-5.9-2.58-11.8-4.38-17.61A207.54,207.54,0,0,0,1049.76,645a258.46,258.46,0,0,0-32.87-47.5c-15.52-18.08-33.08-35-51.15-51.68,0-.42,0-.83,0-1.24,3.75,2.65,7.53,5.27,11.23,8,7.71,5.59,15.48,11.14,23,16.86,7,5.31,13.95,10.69,20.58,16.27a341.57,341.57,0,0,1,31.19,29.44,250.73,250.73,0,0,1,25.45,32.42,182,182,0,0,1,16.32,30.19c3.48,8.38,6.86,16.79,9.82,25.29,2.42,6.93,4.26,14,6.16,21,1.1,4.11,1.92,8.27,2.69,12.43.82,4.4,1.49,8.83,2.13,13.25,1,6.84,2.09,13.67,2.81,20.53.61,5.82.85,11.69,1.07,17.54.36,10.07.69,20.15.82,30.23.09,6.82-.17,13.65-.28,20.48-.07,3.65-.13,7.31-.24,11-.07,2.11-.21,4.22-.38,6.33-.36,4.54-.77,9.08-1.12,13.62-.32,4-.51,8-.89,11.93-.5,5.11-1.13,10.21-1.7,15.31-.65,5.75-1.21,11.51-2,17.26-.83,6.31-1.83,12.61-2.8,18.91-1.09,7.11-2.23,14.22-3.33,21.33a11.27,11.27,0,0,0,.08,1.91,381.49,381.49,0,0,1,62.23-8.75c.22-2.08.49-3.93.58-5.78.24-4.88.44-9.75.57-14.62.17-6.42.27-12.84.37-19.26,0-3.74.09-7.48.06-11.21,0-6.18,0-12.37-.29-18.53-.77-14.54-1.64-29.07-2.7-43.59-.59-8.18-1.55-16.34-2.54-24.49-.86-7-1.94-14-3-21-.89-5.7-1.76-11.41-3-17.07-1.68-7.72-3.47-15.44-5.64-23.09-2.77-9.77-5.63-19.55-9-29.2A261.1,261.1,0,0,0,1122.14,673a251.43,251.43,0,0,0-33.52-44.75,305.88,305.88,0,0,0-47.71-40.37c-6.05-4.22-12.37-8.23-18.73-12.19-6.94-4.32-13.94-8.6-21.13-12.67-11.48-6.51-23.14-12.84-34.73-19.24l-.06-.46-.71-.87.71.87h0l0,0h0v0a22.76,22.76,0,0,1,3,.71c21.14,8.24,42,16.81,62.15,26.35a414.92,414.92,0,0,1,42.57,23,307.37,307.37,0,0,1,25.72,17.91A273.2,273.2,0,0,1,1121.44,630a279.9,279.9,0,0,1,36.94,43.79A309.81,309.81,0,0,1,1180,711a330.77,330.77,0,0,1,15.6,36.35c4,11.28,7.59,22.67,11.07,34.06,2.36,7.69,4.39,15.45,6.27,23.23,1.73,7.15,3.11,14.35,4.57,21.53s2.93,14.37,4.22,21.57c1.11,6.25,2,12.53,2.94,18.8.74,5.07,1.45,10.14,2.06,15.23.87,7.26,1.74,14.53,2.4,21.81.83,9.07,1.45,18.16,2.14,27.24.14,1.78.19,3.57.31,5.36.05.63.19,1.25.32,2.08,1.45-.31,2.71-.52,3.93-.85a457,457,0,0,1,54-10.87c2.14-.3,2.53-.71,2.19-2.35-.5-2.4-1-4.78-1.52-7.18-1.47-7.35-2.86-14.7-4.4-22q-2.45-11.6-5.14-23.17c-1.91-8.19-3.85-16.37-6-24.51s-4.43-15.95-7-23.86c-4.11-12.78-8.16-25.57-12.81-38.22a473.8,473.8,0,0,0-30.79-67.67,360.36,360.36,0,0,0-33-49.67,311.44,311.44,0,0,0-31.11-33.68,275,275,0,0,0-27.25-22.47,306,306,0,0,0-27.88-17.92q-14.68-8.31-30.45-15.43a457.33,457.33,0,0,0-52.2-19.81c-16.83-5.3-33.94-10.13-50.95-15.14-1.69-.49-3.51-.77-5.27-1.14h0l-.78-.42,1.31-.52c0-.19,0-.39,0-.58-.58-.11-1.18-.2-1.74-.35-.15,0-.19-.27-.28-.42l18.36-.48c5.9-.14,11.81-.35,17.71-.4,11-.11,22-.2,33.07-.16,7.08,0,14.19.11,21.23.53,9.75.58,19.47,1.37,29.16,2.29a402.58,402.58,0,0,1,81.1,16.17,389.15,389.15,0,0,1,48.82,18.89,398.92,398.92,0,0,1,44.43,24c11,6.95,21.64,14.24,32,21.71,9,6.51,17.65,13.37,26.2,20.26,15.79,12.72,30.4,26.19,44.44,40a857.62,857.62,0,0,1,62.16,68c10.94,13.37,21.61,26.86,32.22,40.39,5.88,7.49,11.39,15.15,17.07,22.73.49.66,1,1.29,1.91,2.38l40.79-62.71c-.68-.73-1.18-1.34-1.76-1.91q-6-5.82-12-11.62c-19.18-18.45-38.9-36.58-59.81-54q-20.67-17.19-42-33.95c-9.11-7.15-18.59-14.06-28.29-20.76-11.13-7.69-22.65-15.08-34.1-22.53-11.19-7.28-23-14-35-20.55-12.44-6.79-25.13-13.3-38.48-19.06-10.64-4.59-21.49-8.93-32.4-13.15A386.29,386.29,0,0,0,1194,544.19a403.57,403.57,0,0,0-39.93-8.62c-11.87-2-23.84-3.49-36-4.27-8.55-.55-17.14-1-25.73-1.2-8.38-.21-16.79-.35-25.19-.07-16.07.53-32.14,1.38-48.12,3.23-4.66.54-9.35.85-14,1.3q-4.72.47-9.43,1.05-8.76,1.08-17.49,2.23c-3.56.46-7.11,1-10.67,1.44,0-.3-.07-.6-.11-.89,8.94-2,17.86-4.12,26.84-6,11.83-2.52,23.66-5.09,35.59-7.29,13.2-2.44,26.47-4.74,40-6.06,10-1,20-2.08,30-2.84,6.42-.48,12.89-.51,19.34-.6s12.67-.16,19,0c8.7.27,17.41.58,26,1.27a451.53,451.53,0,0,1,45.43,6.19,543.26,543.26,0,0,1,77.31,20.45q25.82,8.81,50.38,19.33c21.72,9.28,42.89,19.21,63.18,30.1q25.94,13.93,51.38,28.36c10.37,5.88,20.38,12.11,30.37,18.34q16.73,10.43,33.1,21.17c7.93,5.19,15.61,10.59,23.43,15.87.81.54,1.45,1.4,2.94,1.27.52-4.05,1.06-8,1.51-12,.53-4.62,1-9.24,1.48-13.86.55-4.78,1.19-9.55,1.74-14.33.52-4.54.94-9.08,1.47-13.62.56-4.86,1.14-9.72,1.82-14.57a12.48,12.48,0,0,1,1.11-2.75l0-1a30.43,30.43,0,0,1-3.18-1.08c-12.23-5.58-24.34-11.29-36.65-16.77q-42.51-18.91-86.76-35.56c-17.76-6.64-35.72-13-54-18.78q-21.64-6.81-43.77-12.84c-13-3.52-26.22-6.68-39.52-9.58-11.62-2.55-23.43-4.7-35.29-6.67-9.61-1.6-19.37-2.8-29.12-3.93q-18.35-2.13-37-2.66c-8.27-.22-16.55-.74-24.82-.5-17.92.53-35.86,1.23-53.59,4-9.55,1.49-19.16,2.77-28.61,4.59a529.32,529.32,0,0,0-55.12,13.63c-19.18,5.87-38.14,12.18-57.2,18.29h0l-.69-.46,1.39-.95h0c1.39-.5,2.83-.92,4.14-1.51,8-3.65,16-7.4,24.09-11,16.94-7.52,34.12-14.71,51.87-21.09a496.92,496.92,0,0,1,48.35-14.81,390.05,390.05,0,0,1,46.84-9c9.84-1.2,19.68-2.54,29.57-3.26,10.68-.78,21.42-.89,32.13-1.33,9.18-.39,18.34-.29,27.48.1s18.51.52,27.68,1.26c14.47,1.16,28.92,2.49,43.27,4.19,22.53,2.68,44.79,6.29,66.86,10.41,20.41,3.82,40.62,8.12,60.69,12.75q35.38,8.18,70.11,17.68c13.72,3.75,27.3,7.75,41,11.62,1.48.42,3,.75,5,1.25-.19-1.2-.29-2.06-.47-2.91-.71-3.18-1.5-6.36-2.15-9.55-1-5-2-10.07-2.89-15.11-.86-4.64-1.78-9.28-2.49-13.93-.61-4-.91-8.08-1.43-12.11-.28-2.15-.74-4.29-1.13-6.54-8.58-1.4-17-2.84-25.53-4.14-14.45-2.21-28.89-4.45-43.4-6.44-16.64-2.29-33.31-4.48-50-6.4-14.69-1.7-29.46-3-44.22-4.41-8.3-.77-16.63-1.37-25-2q-10-.75-20.14-1.31c-5.85-.31-11.73-.51-17.6-.71-4.67-.17-9.36-.27-14-.39-5.87-.15-11.75-.36-17.63-.41-6.54-.07-13.09-.15-19.64.06-9.93.31-19.87.78-29.79,1.34-8.63.49-17.25,1.18-25.86,1.85-3.92.3-7.85.64-11.73,1.17-8.08,1.1-16.17,2.19-24.18,3.57-10.26,1.77-20.52,3.57-30.63,5.79a409.26,409.26,0,0,0-53.44,15.83,489.07,489.07,0,0,0-51.78,22.7c-19.18,9.7-37.44,20.34-55.58,31.09-2.94,1.74-5.73,3.63-8.59,5.45l.17.12-.16-.12-1.81.75c0-.29,0-.59,0-.89.37-.37,1.22-.75,0-1.07l-.75-.53h0c6.61-8.67,13.11-17.39,19.84-26,14.32-18.34,29.87-36.09,48.15-52.45a327.79,327.79,0,0,1,42.08-32.07A395.66,395.66,0,0,1,1123,397.79a510.88,510.88,0,0,1,56.31-21.6c20.1-6.42,40.54-12.13,61.45-16.77,14.84-3.3,29.8-6.3,44.78-9.21,11.26-2.19,22.59-4.13,34-6,9.43-1.51,18.94-2.73,28.43-4s18.75-2.57,28.15-3.74c7.89-1,15.81-1.84,23.72-2.66q15.32-1.59,30.64-3c9.9-.89,19.81-1.74,29.73-2.45,12.55-.91,25.12-1.65,37.68-2.46,1-.07,2-.08,3-.17.71-.07,1.42-.24,2.61-.44A226.86,226.86,0,0,1,1488.75,281c-5.12.59-10,1.09-14.79,1.72-7,.91-14,1.92-21,2.87-6.25.84-12.52,1.61-18.76,2.53-7.31,1.07-14.6,2.26-21.89,3.39-9.66,1.51-19.36,2.89-29,4.56-13,2.26-26,4.7-39,7.16q-35.13,6.69-69.62,15.18c-22.17,5.5-44,11.6-65.55,18.5-24.8,8-49,16.83-71.92,27.57-9.84,4.61-19.58,9.39-29,14.44a343.61,343.61,0,0,0-43.1,27.22,304.1,304.1,0,0,0-32,27.17,291.29,291.29,0,0,0-27.9,31.91,394.66,394.66,0,0,0-23.32,34.95c-3.63,6-7,12.08-10.36,18.17-2.9,5.24-5.63,10.53-8.44,15.8h0c-.75.44-1.2.38-1.24-.39,2.62-7.69,5.1-15.41,7.9-23.07a375.27,375.27,0,0,1,18.09-42.43,262.9,262.9,0,0,1,26.52-41.68,258.61,258.61,0,0,1,32.35-34.45,330.39,330.39,0,0,1,35.6-27.8c12.94-8.7,26.41-16.89,40.55-24.5,13.49-7.26,27.33-14.13,41.67-20.38,12.62-5.49,25.46-10.71,38.35-15.82,21.59-8.57,43.85-16.07,66.41-23q22.49-6.92,45.28-13.24,21.06-5.86,42.38-11.13,25.71-6.33,51.63-12.11c14.63-3.29,29.37-6.28,44-9.41,2.48-.52,5-1.06,7.69-1.66l-44.77-43.83c-1.22.36-2.25.64-3.27,1-21.3,6.59-42.69,13.05-63.89,19.83-24.15,7.74-48,15.95-71.46,24.91-17.61,6.74-35.21,13.52-52.51,20.7-14.41,6-28.45,12.47-42.53,18.9-15.49,7.09-30.56,14.68-45,22.88q-18.78,10.65-36.92,21.94A360.69,360.69,0,0,0,1061.34,347c-7.66,6.3-14.84,12.93-22.07,19.51a242.28,242.28,0,0,0-49.06,64.51,237.76,237.76,0,0,0-15.79,39.05,305.94,305.94,0,0,0-8.86,36.6q-2.35,13.56-4.67,27.13h0l-.84.64-.34-.67h0c-.05-10.24-.17-20.48-.13-30.72,0-5,.19-9.92.57-14.87.58-7.46,1.13-14.93,2.2-22.37,1.13-7.84,2.49-15.69,4.38-23.46A193.47,193.47,0,0,1,983,399.14,240.42,240.42,0,0,1,1007,361.49a324.83,324.83,0,0,1,24.4-27.72q12.28-12.51,26-24.14c8.06-6.82,16.5-13.41,25.11-19.85,8.76-6.56,17.82-12.9,26.93-19.18,16.22-11.18,33.3-21.59,50.75-31.66,27.74-16,56.32-31.09,85.9-45.08,21.23-10,42.7-19.81,64.19-29.55,10.8-4.89,21.88-9.42,32.81-14.13,1-.42,2.22-.66,2.83-1.87L1263.42,120l-13.58,7.9c-24.75,14.38-49.14,29.1-72.59,44.65-16,10.6-31.86,21.31-47.44,32.23-11,7.7-21.69,15.65-32,23.85-12.59,10-24.84,20.29-36.86,30.69-8.32,7.19-16.1,14.73-23.93,22.22a382.39,382.39,0,0,0-28.19,30.31c-14.65,17.38-27.18,35.52-37,54.63a213.9,213.9,0,0,0-13.4,32.16,198.37,198.37,0,0,0-9.09,54.95c-.18,5.2-.12,10.41.16,15.6.35,6.66,1,13.3,1.61,19.94.27,3,.65,6,1.13,8.95,1.12,6.82,2.32,13.64,3.51,20.45.9,5.13,1.86,10.25,2.79,15.37,0,.36-.06.71-.12,1.66l-1-1.1h0l-1.68-4.65c-3.27-9.1-6.66-18.18-9.77-27.32-2.35-6.95-4.55-13.94-6.43-21-1.77-6.64-3.14-13.35-4.49-20.06a131.15,131.15,0,0,1-2.55-15.4c-1.06-13.53-2.09-27.08-.25-40.69.71-5.18,1.14-10.38,2.12-15.54A218.35,218.35,0,0,1,943.5,357a280.86,280.86,0,0,1,22-46.41c6.1-10.5,12.92-20.77,20.16-30.88q13.59-19,29.2-37.13c13.08-15.22,26.8-30.12,41.48-44.54,8.84-8.68,17.69-17.35,26.75-25.91,7.56-7.13,15.33-14.14,23.17-21.1q12.21-10.82,24.77-21.42c9.71-8.18,19.63-16.22,29.45-24.33.78-.64,1.5-1.31,2.69-2.35l-97-4.1c-.34.36-.61.62-.85.89-7.85,9.18-15.83,18.31-23.53,27.57-18.31,22-35.83,44.39-51.76,67.39-6.9,9.95-13.79,19.92-20.2,30-9.33,14.75-18.4,29.59-25.88,44.9-5,10.26-10.07,20.52-14.39,30.93-4.2,10.09-7.73,20.34-11.09,30.59a175.85,175.85,0,0,0-6.84,29.4c-.92,6.39-1.8,12.78-2.38,19.19a169.76,169.76,0,0,0-.86,18,181.75,181.75,0,0,0,1.42,18.48c.71,6,1.62,11.91,2.88,17.81,1.45,6.77,3.07,13.54,5.18,20.2A256.94,256.94,0,0,0,935.33,496c6.8,12.94,14.15,25.72,21.26,38.57l-.61,1h-.61a16,16,0,0,0-1.45-2.62c-4.07-5.11-8.31-10.14-12.29-15.3-10.48-13.58-20.72-27.26-29.5-41.54a243.33,243.33,0,0,1-19.87-39.27,164.42,164.42,0,0,1-8.56-28.28c-1.19-6.23-2.87-12.44-3.32-18.73-.84-11.59-1-23.22-1.3-34.85a101.43,101.43,0,0,1,.67-12.66c.83-8.1,1.47-16.23,3-24.28,2-10.89,4.49-21.75,7.2-32.57a433.73,433.73,0,0,1,13.5-42.73q10.14-27.88,22.85-55.22c4.82-10.31,9.71-20.6,14.85-30.82,5-10,10.34-19.92,15.65-29.84,3.68-6.87,7.57-13.69,11.34-20.53a14.7,14.7,0,0,0,.79-2.06,9.9,9.9,0,0,0-1.27,0c-7.43,1-14.85,2.12-22.29,3.12-9.71,1.29-19.4,2.65-29.14,3.75-8.46,1-17,1.58-25.45,2.32-2.9.25-2.91.2-3.66,2.4-1,2.85-2,5.7-2.89,8.57-5.85,19.29-11.81,38.56-17.42,57.89-2.83,9.73-5.14,19.54-7.42,29.35-2.17,9.31-4.1,18.66-5.94,28-1.48,7.49-2.75,15-3.94,22.51-.83,5.25-1.4,10.52-2,15.79-.59,4.93-1.23,9.87-1.66,14.81-.4,4.55-.59,9.1-.77,13.64-.28,7.47-.87,15-.63,22.41.34,10.16,1.29,20.28,2.07,30.42a79,79,0,0,0,1.21,9.18c1.23,6.15,2.77,12.25,4,18.4a159.88,159.88,0,0,0,6.82,23.38,209.86,209.86,0,0,0,25.22,48.27A300,300,0,0,0,916,497.61c10.93,11.13,22.34,22,33.52,33,1.35,1.32,2.57,2.72,3.85,4.09l0,0h0l.7.93h0c-.24-.31-.47-.62-.7-.94a13.73,13.73,0,0,1-2.68-1.06c-2.93-2-5.79-4.08-8.62-6.16-9.2-6.76-18.53-13.42-27.49-20.34-8-6.18-15.75-12.52-23.23-19a299.24,299.24,0,0,1-29.67-29.71,221.22,221.22,0,0,1-27.4-39,242,242,0,0,1-23.43-60.49c-2.19-9.38-4.09-18.8-5.87-28.23-1-5.21-1.54-10.46-2.12-15.71-.6-5.42-1.21-10.84-1.46-16.28-.48-10.55-.74-21.12-1-31.69-.07-2.76.08-5.53.14-8.29.13-6.42.23-12.84.41-19.26.15-5.44.38-10.88.61-16.32.08-1.95.26-3.9.42-5.85q.57-6.93,1.16-13.87c.31-3.48.6-7,1-10.46.52-4.78,1.11-9.55,1.67-14.33.51-4.38.94-8.76,1.52-13.13.7-5.18,1.51-10.35,2.3-15.52q1.41-9.33,2.85-18.67c.34-2.24.67-4.47,1-7a376.45,376.45,0,0,1-62.74,8.92c-.08,3-.12,5.62-.23,8.29-.27,6.33-.66,12.67-.85,19-.2,6.58-.28,13.16-.3,19.75,0,5.93-.09,11.88.23,17.8.94,17.54,2,35.08,3.17,52.61.51,7.37,1.48,14.71,2.41,22,.88,6.85,1.94,13.68,3,20.51.88,5.54,1.75,11.09,3,16.58,1.7,7.72,3.49,15.44,5.67,23.08,2.75,9.62,5.64,19.23,9,28.72a251.83,251.83,0,0,0,18.87,41.11,255.67,255.67,0,0,0,29.67,42.23c15.53,17.7,34,33.51,54.67,47.9q18.9,13.15,39.63,24.71c11.55,6.44,23.17,12.81,34.75,19.22,0,.15,0,.3.07.46l0,0v0h0l0,.51v0l0-.51a15.12,15.12,0,0,1-2.41-.48c-2.13-.78-4.18-1.67-6.28-2.49-20.16-7.92-40-16.19-59.15-25.4a382,382,0,0,1-49.82-28.26c-3.65-2.5-7.33-5-10.74-7.65-6.69-5.22-13.4-10.42-19.72-15.88a231.68,231.68,0,0,1-23.19-23.42,288.09,288.09,0,0,1-24-31.4,318.74,318.74,0,0,1-21.86-39.47A401.88,401.88,0,0,1,713,299.58q-4.68-16.93-8.77-34c-1.71-7.07-3-14.19-4.38-21.31s-2.6-14.42-3.72-21.65c-1.15-7.4-2.16-14.81-3.11-22.22-.85-6.61-1.63-13.23-2.29-19.86s-1.22-13.28-1.72-19.93c-.37-4.79-.53-9.59-.89-14.38a32.32,32.32,0,0,0-.89-4.19,504.43,504.43,0,0,1-59.93,12.16c.5,3.07.9,5.87,1.42,8.66.72,3.76,1.56,7.5,2.3,11.26,1,5,1.86,10.08,3,15.1,1.2,5.58,2.59,11.13,3.91,16.69,1.74,7.31,3.31,14.65,5.27,21.92,2.65,9.8,5.41,19.59,8.49,29.31,4.1,12.94,8.27,25.87,13,38.69a468.94,468.94,0,0,0,30,66.09,375.38,375.38,0,0,0,20.19,32.63,338.79,338.79,0,0,0,23.9,30.61,305.41,305.41,0,0,0,21.95,22.32,264,264,0,0,0,25.83,21.16,315.13,315.13,0,0,0,28.14,18.06q14.32,8.07,29.65,15a504.62,504.62,0,0,0,56.62,21.33c12.63,4,25.49,7.64,38.28,11.38,4.73,1.38,9.56,2.57,14.35,3.85,0,.26,0,.53,0,.79-20.19-3.13-40.28-6.53-60.1-10.69-16.09-3.38-31.89-7.31-47.32-12a378,378,0,0,1-50.42-19.21,309.68,309.68,0,0,1-38-20.82c-6.15-4-12.22-8.12-18-12.44-6.9-5.17-13.68-10.45-20.1-15.95a357.77,357.77,0,0,1-48-50.37q-14.19-18-26.34-36.81Q630.52,338,618.31,314.32c-5-9.76-9.94-19.57-14.46-29.49q-8.65-19-16.53-38.16c-4.82-11.78-9.23-23.67-13.59-35.56-3.34-9.09-6.3-18.26-9.44-27.39-.76-2.21-1.56-4.41-2.41-6.84-1.5.82-2.59,1.37-3.62,2-5.14,3-10.23,6.08-15.42,9Q523.46,199,504,210.06c-2.42,1.38-2.49,1.41-1.43,3.43,8.4,16,16.59,32.16,25.32,48.1,9.39,17.13,19.37,34.08,30.28,50.68,7.88,12,15.83,23.94,24.17,35.74a454.83,454.83,0,0,0,28,36.12c8.88,10.24,17.83,20.47,27.24,30.44a393.24,393.24,0,0,0,39.79,36.63,389.36,389.36,0,0,0,33.53,24.3c9.23,5.93,18.77,11.53,28.75,16.74A349.3,349.3,0,0,0,791.07,514a426.89,426.89,0,0,0,62.2,15.34q24.42,4.2,49.36,6.45,15.52,1.43,31.07,2.68c6.16.49,12.35.79,18.52,1.18h0c0,.3,0,.6,0,.9-2.84,0-5.67,0-8.51.07-12.24.27-24.48.67-36.72.83-9,.11-17.89,0-26.83-.13-6.53-.09-13.1-.14-19.58-.62-11.89-.87-23.8-1.77-35.57-3.16a388.6,388.6,0,0,1-61.74-12.4,391.54,391.54,0,0,1-57.32-21.31,441.52,441.52,0,0,1-64.18-36.76c-10-6.86-19.81-13.81-28.94-21.29-10-8.19-20.18-16.26-29.58-24.8-12.21-11.1-23.85-22.55-35.49-34-6.57-6.46-12.84-13.09-18.89-19.82-9.76-10.87-19.44-21.79-28.77-32.87q-15-17.85-29.29-36.06c-8.17-10.41-15.85-21-23.75-31.55-.56-.75-1.17-1.47-1.89-2.37a9.93,9.93,0,0,0-1,1c-3.35,5-6.7,10-10,15s-6.47,9.93-9.68,14.9c-6.37,9.87-12.68,19.76-19.14,29.6-1.05,1.59-.76,2.66.59,3.94,8,7.63,15.83,15.41,24,23q18.72,17.18,37.9,34.07c8.19,7.22,16.63,14.3,25.18,21.28q12.3,10,25.08,19.73c10,7.61,20.07,15.21,30.5,22.51,14.29,10,28.86,19.78,44.3,28.81,7.46,4.36,14.79,8.84,22.5,12.94,10.33,5.5,20.86,10.82,31.5,16a430,430,0,0,0,50,20.35,426.46,426.46,0,0,0,72,17.87,370,370,0,0,0,37.68,4.08c7.27.37,14.54.74,21.84.85,9.26.14,18.55.28,27.81-.06,10.82-.4,21.63-1.28,32.44-2,5.45-.37,10.89-.87,16.33-1.36,3-.28,6.08-.61,9.11-1,6.06-.73,12.1-1.51,18.16-2.25L953.6,541h0l-.56.84c0,.21,0,.43,0,.64Zm12.49-.63-.1.09h0ZM954,535.62l0,.51h0Z" transform="translate(-369.58 -98.83)"/><path class="cls-1" d="M963.73,545.92h0Z" transform="translate(-369.58 -98.83)"/><path class="cls-1" d="M1041.21,555.27A458.75,458.75,0,0,1,1101,573.36a344.26,344.26,0,0,1,57.3,28.27,317.56,317.56,0,0,1,36.22,26.06,344.12,344.12,0,0,1,27.11,25.09,393.5,393.5,0,0,1,30.77,35.63c8.16,10.68,15.74,21.6,22.88,32.7q13.08,20.34,24.06,41.38c5.3,10.21,10.43,20.47,15.29,30.8s9.59,20.87,13.94,31.42q7.8,18.93,14.83,38c4.5,12.19,8.54,24.48,12.79,36.72.42,1.21.93,2.39,1.52,3.89l60.16-34.53c-.78-1.69-1.45-3.3-2.28-4.87-6.49-12.36-13-24.74-19.54-37.07-9.3-17.43-19.49-34.55-30-51.55q-14.36-23.1-30.53-45.49c-9.74-13.53-20.22-26.74-31.27-39.69a507.42,507.42,0,0,0-43.09-44.76,377.28,377.28,0,0,0-35.41-29,363.15,363.15,0,0,0-59.13-34.94,374,374,0,0,0-59.63-21.62,452.63,452.63,0,0,0-45.27-9.65q-21.78-3.54-44-5.6-15.51-1.44-31.06-2.69c-6.59-.52-13.22-.81-19.83-1.21,0,.19,0,.39,0,.58,1.37.23,2.74.49,4.12.7C994.66,545.67,1018.16,549.88,1041.21,555.27Z" transform="translate(-369.58 -98.83)"/><path class="cls-1" d="M962.82,548.22c3.55,10,7.34,19.88,10.71,29.89q4.11,12.18,7.41,24.52c1.58,5.85,2.68,11.78,3.72,17.71,1.12,6.41,2.21,12.84,2.79,19.3a151.7,151.7,0,0,1,.29,28.75c-.51,5-.67,10.08-1.46,15.08a210.91,210.91,0,0,1-7.35,31.07,266.89,266.89,0,0,1-23.49,52.72,408.69,408.69,0,0,1-28.32,42.47c-9.93,13.16-20.39,26.08-31.78,38.58q-13.9,15.26-28.46,30.18c-7.8,8-15.91,15.87-24.06,23.7-5.71,5.48-11.64,10.84-17.59,16.18-9.41,8.45-18.73,17-28.44,25.24-12.44,10.59-25.22,20.94-37.85,31.4-.79.65-1.55,1.33-2.67,2.3,1.68.12,2.83.24,4,.29,4.34.19,8.69.35,13,.53,6.19.27,12.37.56,18.57.82,4.56.18,9.13.32,13.7.5s8.9.4,13.35.59c6.3.28,12.6.58,18.9.84,4.45.18,8.91.32,13.37.5a4.17,4.17,0,0,0,3.73-1.55c13.88-16,27.48-32.15,40.45-48.58q17.5-22.17,33.66-44.89c9.56-13.49,18.68-27.13,27.05-41q9.36-15.54,17.71-31.39c4.89-9.24,9.38-18.61,13.61-28a248,248,0,0,0,12.46-33.12c2.59-9,5.09-18.07,7-27.17a160.28,160.28,0,0,0,3.54-26.7c.24-6.9.62-13.8.68-20.7a69.68,69.68,0,0,0-.89-9.21c-.7-5.73-1.23-11.48-2.27-17.16a203,203,0,0,0-4.47-19.81,267.88,267.88,0,0,0-17-43.1c-6.58-13.39-13.81-26.56-21.42-39.63a21.23,21.23,0,0,1-1.33-3.42C961.48,546.29,962.54,547.44,962.82,548.22Z" transform="translate(-369.58 -98.83)"/><path class="cls-1" d="M963.73,545.92v0Z" transform="translate(-369.58 -98.83)"/></svg>