<?xml version="1.0" standalone="no"?>
<!DOCTYPE svg PUBLIC "-//W3C//DTD SVG 20010904//EN"
 "http://www.w3.org/TR/2001/REC-SVG-20010904/DTD/svg10.dtd">
<svg version="1.0" xmlns="http://www.w3.org/2000/svg"
 width="1008.000000pt" height="1008.000000pt" viewBox="0 0 1008.000000 1008.000000"
 preserveAspectRatio="xMidYMid meet">
<metadata>
Created by potrace 1.14, written by Peter Selinger 2001-2017
</metadata>
<g transform="translate(0.000000,1008.000000) scale(0.100000,-0.100000)"
fill="#000000" stroke="none">
<path d="M2515 9190 l0 -890 125 0 c196 0 2851 0 2893 0 l37 0 0 890 0 890
-1528 0 -1527 0 0 -890z"/>
<path d="M5951 8174 l1 -1905 66 5 c37 4 76 8 87 10 11 2 40 7 65 11 66 11 71
12 120 25 25 7 53 14 62 16 10 2 26 6 36 8 9 2 52 18 94 34 42 16 79 28 81 26
2 -3 10 2 17 11 7 8 19 15 26 15 16 0 220 105 234 121 3 3 21 15 40 27 20 11
47 30 59 42 13 11 27 20 30 20 3 0 29 20 56 45 28 25 65 55 82 68 18 12 33 25
33 28 0 4 24 31 53 60 104 105 218 258 283 379 16 30 33 58 37 61 5 3 9 10 10
15 0 8 17 48 64 153 8 18 16 39 18 45 1 6 5 18 8 26 9 25 30 95 29 97 -1 2 5
21 13 43 8 22 12 40 10 40 -3 0 0 12 5 26 6 14 13 49 16 77 4 29 8 55 10 59 8
13 18 176 17 278 0 119 -11 243 -28 320 -3 14 -8 39 -11 55 -9 56 -51 201 -71
255 -4 8 -7 17 -7 20 -1 3 -7 15 -14 28 -7 12 -10 22 -8 22 11 0 -116 239
-168 318 -88 132 -135 189 -261 316 -73 73 -270 227 -317 249 -16 6 -28 15
-28 19 0 5 -6 8 -12 8 -7 0 -24 9 -38 20 -14 11 -33 20 -42 20 -10 0 -18 4
-18 9 0 4 -21 16 -46 26 -25 9 -43 19 -40 22 12 12 257 -113 379 -193 96 -63
110 -73 146 -104 9 -8 33 -27 53 -42 60 -46 221 -208 290 -293 82 -102 161
-215 151 -215 -4 0 -3 -4 3 -8 21 -15 161 -274 157 -292 0 -3 8 -23 20 -45 11
-22 19 -41 19 -42 -2 -4 8 -34 19 -58 7 -18 38 -122 43 -149 2 -6 8 -29 14
-51 6 -22 13 -56 16 -76 3 -20 8 -42 11 -50 12 -33 28 -240 28 -364 0 -145
-16 -316 -37 -390 -1 -5 -6 -31 -11 -58 -4 -26 -11 -50 -16 -53 -5 -3 -7 -9
-4 -14 6 -10 -65 -228 -97 -300 -76 -169 -182 -348 -281 -477 -67 -86 -255
-275 -342 -345 -103 -81 -230 -165 -325 -214 -41 -22 -78 -43 -81 -47 -3 -5
-10 -9 -15 -9 -5 0 -25 -7 -44 -15 -64 -28 -238 -92 -262 -97 -13 -3 -48 -12
-78 -20 -30 -9 -82 -21 -115 -27 -33 -6 -67 -12 -75 -14 -30 -6 -146 -18 -180
-20 l-35 -1 0 -1169 0 -1169 50 3 c110 8 220 19 251 26 12 3 39 7 60 11 80 12
235 46 321 70 48 14 93 26 98 28 21 5 94 29 175 58 75 27 109 41 195 78 424
184 839 484 1143 827 28 32 58 65 65 73 8 8 49 60 91 115 42 55 80 105 84 110
5 6 30 44 56 85 27 41 59 91 71 110 98 149 243 463 315 680 36 111 93 322 105
395 3 17 10 56 16 88 16 90 21 132 37 292 9 93 9 436 0 555 -8 102 -14 144
-29 230 -10 55 -11 62 -24 135 -3 22 -11 58 -17 80 -5 22 -11 47 -13 55 -2 8
-10 42 -19 75 -9 33 -18 67 -20 75 -36 148 -226 591 -297 692 -11 14 -19 28
-19 31 0 14 -172 276 -202 308 -10 11 -18 22 -18 25 0 6 -123 156 -180 218
-39 44 -219 224 -272 272 -27 25 -100 84 -224 183 -31 25 -208 144 -269 181
-91 56 -326 181 -345 185 -3 0 -27 11 -55 24 -27 12 -68 30 -90 38 -22 8 -53
21 -70 28 -83 36 -360 120 -382 116 -7 -1 -13 3 -13 9 0 6 -3 9 -8 6 -4 -2
-33 2 -65 9 -31 7 -57 11 -57 8 0 -3 -7 0 -15 7 -8 7 -15 10 -15 7 0 -3 -17
-1 -37 4 -41 10 -97 19 -153 24 -19 2 -46 6 -60 9 -14 3 -57 8 -97 10 l-72 5
0 -1905z m634 1686 c3 -5 1 -10 -4 -10 -6 0 -11 5 -11 10 0 6 2 10 4 10 3 0 8
-4 11 -10z"/>
<path d="M1317 9764 c-1 -1 -23 -5 -49 -8 -25 -4 -64 -14 -85 -23 -21 -9 -41
-17 -46 -17 -4 -1 -29 -23 -56 -49 -64 -62 -91 -137 -91 -248 0 -87 35 -225
76 -298 13 -24 23 -46 20 -48 -2 -2 -21 -5 -42 -6 l-39 -2 0 -207 0 -208 30
-1 c128 -3 887 1 893 4 5 4 8 341 3 404 -1 10 -61 12 -253 12 -254 0 -272 1
-318 19 -62 25 -93 101 -69 171 12 34 77 72 128 76 20 1 37 4 39 5 1 1 8 3 15
4 6 1 11 10 10 21 -4 35 -14 119 -19 155 -2 19 -6 55 -9 80 -3 25 -7 68 -10
95 -4 28 -7 55 -7 61 -1 8 -23 11 -60 10 -33 0 -60 -2 -61 -2z"/>
<path d="M1005 8266 c0 -113 3 -207 6 -210 2 -3 122 -6 266 -6 255 -2 261 -2
300 -25 61 -37 94 -92 100 -167 7 -87 -9 -141 -52 -174 -44 -33 -61 -35 -350
-36 -132 0 -247 -2 -255 -4 -23 -6 -23 -413 0 -415 56 -4 610 0 630 4 82 18
151 53 183 94 10 13 24 29 32 36 44 45 77 159 80 282 4 152 -20 266 -77 360
-25 42 -23 45 22 45 22 0 40 3 41 8 0 4 1 98 2 210 l2 202 -465 0 -465 0 0
-204z"/>
<path d="M3878 8014 c-2 -1 -28 -5 -58 -8 -30 -3 -77 -10 -105 -16 -27 -6 -63
-13 -80 -16 -30 -6 -182 -56 -220 -73 -289 -127 -527 -322 -690 -567 -30 -46
-55 -86 -55 -90 0 -4 -6 -15 -13 -23 -7 -9 -24 -41 -37 -71 -14 -30 -27 -57
-30 -60 -7 -6 -65 -180 -81 -240 -13 -54 -15 -61 -24 -125 -4 -27 -9 -61 -12
-75 -3 -14 -6 -589 -8 -1278 -2 -690 -5 -1255 -7 -1257 -2 -2 -1 -76 2 -165 3
-89 3 -163 0 -165 -3 -2 -3 -38 0 -80 3 -42 4 -78 2 -80 -6 -6 -4 -286 2 -292
3 -3 1 -14 -4 -24 -7 -12 -7 -20 0 -24 6 -4 7 -11 4 -17 -9 -14 -8 -143 1
-157 3 -6 3 -11 -2 -11 -7 0 -10 -1176 -3 -1190 2 -3 4 -104 5 -225 2 -203 7
-290 20 -355 3 -14 10 -51 15 -82 6 -32 17 -76 25 -98 8 -22 15 -42 15 -45 5
-33 72 -192 113 -267 120 -220 287 -403 497 -545 83 -56 258 -147 305 -159 17
-4 32 -10 35 -14 10 -13 212 -62 320 -77 72 -10 317 -10 400 1 36 4 71 8 78 9
6 0 12 3 12 7 0 3 8 6 18 6 27 1 72 11 142 32 64 19 84 27 167 63 24 11 45 19
47 19 18 0 184 105 276 173 60 45 250 228 250 241 0 5 20 31 45 60 26 28 155
240 154 251 0 3 9 26 21 50 12 25 23 51 24 57 2 7 8 24 13 38 32 76 78 272 77
328 0 12 3 22 7 22 3 0 7 397 7 882 1 595 5 884 12 886 7 3 10 775 10 2422 l0
2418 -37 4 c-40 5 -1650 7 -1655 2z"/>
<path d="M1448 7085 c-2 -2 -19 -6 -39 -9 -58 -9 -148 -46 -177 -73 -7 -7 -17
-13 -20 -13 -7 0 -56 -47 -95 -90 -35 -39 -84 -158 -102 -246 -17 -86 -23
-284 -11 -374 4 -30 8 -62 8 -70 0 -8 5 -21 11 -27 5 -7 7 -13 4 -13 -8 0 24
-88 57 -162 35 -78 108 -151 193 -191 65 -31 73 -32 193 -32 121 0 127 2 192
33 81 39 158 114 192 186 48 104 56 125 75 205 15 66 18 112 16 234 -2 84 -6
163 -8 177 -3 14 -8 39 -11 55 -5 30 -8 45 -21 100 -15 62 -80 178 -123 221
-42 43 -74 64 -125 83 l-23 9 0 -213 1 -214 25 -28 c72 -79 85 -209 34 -318
-30 -62 -87 -113 -126 -111 l-23 1 -2 440 -1 440 -46 1 c-25 1 -47 0 -48 -1z
m-108 -645 l0 -241 -27 15 c-43 23 -68 56 -90 116 -36 100 -16 240 43 306 19
21 53 43 67 44 4 0 7 -108 7 -240z"/>
<path d="M1350 5632 c-51 -5 -135 -25 -147 -34 -7 -6 -13 -7 -13 -4 0 4 -6 1
-14 -6 -8 -7 -30 -24 -50 -38 -42 -30 -88 -105 -112 -180 -25 -80 -27 -279 -4
-364 22 -84 60 -176 81 -199 31 -33 18 -51 -37 -52 l-49 0 0 -210 0 -210 463
-3 462 -2 0 213 0 214 -232 0 c-128 0 -251 3 -272 7 -129 25 -201 164 -161
311 16 57 51 95 109 119 32 13 83 16 297 16 143 0 260 3 260 8 4 26 3 412 -1
413 -11 3 -557 4 -580 1z"/>
<path d="M1395 4156 c-93 -23 -188 -76 -244 -136 -107 -113 -151 -261 -153
-515 -2 -183 28 -316 100 -444 33 -60 127 -150 162 -156 3 -1 23 -9 45 -19 61
-28 237 -31 313 -5 72 25 127 60 175 113 41 45 113 183 121 231 2 17 5 30 6
30 2 0 6 22 16 85 11 70 12 280 2 346 -30 195 -68 297 -146 385 -39 44 -139
106 -151 93 -3 -3 -6 -98 -6 -210 0 -202 0 -205 24 -232 35 -40 62 -107 66
-164 4 -53 -19 -161 -35 -166 -6 -2 -10 -9 -10 -15 -1 -19 -43 -64 -75 -79
-63 -30 -60 -52 -61 383 -1 218 -5 402 -8 408 -4 6 -3 11 3 11 5 0 8 8 6 18
-2 9 -4 25 -4 35 -1 14 -10 17 -48 16 -27 0 -70 -6 -98 -13z m-55 -626 c1
-259 0 -261 -51 -217 -81 71 -110 235 -59 349 19 43 79 108 100 108 5 0 9
-105 10 -240z"/>
<path d="M1274 2744 c-124 -21 -205 -77 -253 -176 -54 -113 -37 -296 40 -450
16 -32 29 -59 29 -62 0 -3 -12 -4 -27 -4 -63 1 -59 16 -58 -209 l0 -208 462
-1 c320 0 463 3 465 10 3 10 2 337 -1 391 -1 19 -8 20 -243 19 -301 -2 -358 9
-393 76 -26 50 -7 141 33 160 47 21 107 37 130 33 21 -3 29 11 22 42 -2 12 -8
62 -14 125 -3 25 -7 65 -10 90 -3 25 -8 72 -12 105 -3 33 -8 62 -11 65 -8 9
-90 6 -159 -6z"/>
<path d="M1360 1478 c-52 -13 -120 -42 -120 -50 0 -5 -6 -8 -13 -8 -13 0 -98
-79 -122 -112 -32 -44 -72 -126 -79 -159 -3 -13 -12 -58 -21 -99 -17 -77 -19
-267 -3 -276 5 -3 6 -9 3 -13 -7 -13 24 -109 56 -173 16 -32 26 -58 22 -59 -5
-1 -24 -2 -43 -2 l-35 -2 0 -203 c0 -172 2 -205 15 -211 11 -5 1139 -7 1207
-2 9 1 12 17 11 54 -1 28 0 57 4 62 3 6 2 19 -2 30 -4 11 -4 30 1 42 5 13 5
23 1 23 -8 0 -8 57 1 66 3 3 2 16 -2 28 -5 11 -5 30 -1 41 4 11 4 31 0 45 l-6
25 -172 1 c-95 1 -175 3 -177 6 -3 2 9 30 26 62 17 31 32 64 34 74 2 9 4 18 5
20 6 6 29 123 33 167 4 45 -15 218 -31 278 -10 38 -57 140 -76 166 -46 62
-173 162 -189 149 -2 -2 -10 2 -18 8 -37 31 -224 44 -309 22z m206 -482 c105
-55 155 -191 117 -319 -15 -50 -20 -58 -61 -102 -93 -100 -244 -69 -311 63
-27 54 -34 157 -14 215 15 44 53 107 65 107 4 0 15 9 25 19 19 21 104 40 138
32 11 -2 29 -9 41 -15z"/>
</g>
</svg>
