<svg id="Слой_1" data-name="Слой 1" xmlns="http://www.w3.org/2000/svg" viewBox="0 0 352.54 284.12"><defs><style>.cls-1{fill:#fff;}.cls-2{fill:#1d1d1b;}</style></defs><path class="cls-1" d="M868.21,519.57c34.52-3.85,64.5-1.07,93.63-5.63,149.94-23.48,180.28,27.83,171.45,79.38-6.29,36.67-47.41,85.56-143.1,85.56S793,634.19,786.75,593.32C778.16,537.2,811.34,525.92,868.21,519.57Z" transform="translate(-783.52 -398.08)"/><path class="cls-2" d="M868.21,519.57l-.55.09-1.65.21-6.48.83c-5.68.79-14.09,1.9-24.7,4.35a113.56,113.56,0,0,0-17.24,5.4c-6.06,2.51-12.51,5.93-18,11.25a38.53,38.53,0,0,0-7,9.29,41.77,41.77,0,0,0-4.17,11.64c-1.67,8.39-1.42,17.59.06,27,.2,1.18.37,2.39.58,3.55.13.55.23,1.11.37,1.66l.48,1.66a35,35,0,0,0,2.9,6.42,51.69,51.69,0,0,0,4.12,6,72.12,72.12,0,0,0,5.05,5.65c7.25,7.29,16.16,13.6,25.85,19.3a247.87,247.87,0,0,0,31.45,15.28,350.28,350.28,0,0,0,35.2,12.07A370.9,370.9,0,0,0,973.2,675a304.24,304.24,0,0,0,42.24-.29c7.11-.68,14.27-1.52,21.39-2.88a184.84,184.84,0,0,0,21.22-5.3,131.47,131.47,0,0,0,38.64-19.5,104.6,104.6,0,0,0,15.67-14.39,90.75,90.75,0,0,0,11.94-17.15,74.8,74.8,0,0,0,7.15-19.17,89.21,89.21,0,0,0,1.76-20,65.55,65.55,0,0,0-3.36-19.18,53.21,53.21,0,0,0-9.09-16.46,58.88,58.88,0,0,0-13.69-12.14,42.68,42.68,0,0,0-3.88-2.36l-2-1.12c-.65-.37-1.35-.66-2-1-1.36-.64-2.69-1.33-4.06-1.92l-4.14-1.66c-1.36-.6-2.8-1-4.19-1.48s-2.78-1-4.21-1.34c-2.85-.73-5.62-1.62-8.49-2.15l-4.23-.91c-1.41-.3-2.84-.48-4.25-.73l-4.22-.7-4.22-.51a277.44,277.44,0,0,0-32.72-1.83c-2.64,0-5.25.08-7.84.12l-3.86.06-3.82.18-7.51.33-7.35.51c-4.84.29-9.55.79-14.16,1.22s-9.07,1-13.42,1.5l-6.45.76c-2.13.26-4.23.5-6.3.66s-4.11.35-6.12.47-4,.23-5.92.32c-7.76.34-15,.41-21.6.49s-12.7.12-18.14.24c-10.9.22-19.35.71-25.07,1.18-2.86.2-5,.45-6.5.57l-1.66.15c-.37,0-.56,0-.56,0l.56-.07,1.65-.19c1.46-.15,3.63-.43,6.5-.65,5.71-.53,14.16-1.09,25.06-1.5l18.13-.66c6.63-.27,13.83-.6,21.52-1.27,1.92-.17,3.88-.33,5.86-.57s4-.45,6-.74,4.1-.6,6.19-.95l6.39-1.09c4.35-.71,8.8-1.56,13.41-2.17s9.33-1.39,14.2-1.9l7.39-.83,7.58-.64,3.86-.31,3.91-.2c2.63-.12,5.27-.29,8-.36a237.82,237.82,0,0,1,33.48,1.36l4.35.52,4.37.73c1.46.26,2.93.46,4.4.78l4.4,1c3,.59,5.87,1.54,8.83,2.36,1.49.4,2.93,1,4.4,1.49s2.95,1,4.38,1.65l4.34,1.86c1.43.67,2.83,1.44,4.25,2.16.7.38,1.43.71,2.12,1.13l2,1.26a44.23,44.23,0,0,1,4.06,2.66A61.92,61.92,0,0,1,1124.1,538a57.49,57.49,0,0,1,9.08,18,70.53,70.53,0,0,1,2.88,20.21,97.23,97.23,0,0,1-2.23,20.59,80.8,80.8,0,0,1-7.5,19.72,96.28,96.28,0,0,1-12.14,17.67,112.88,112.88,0,0,1-15.78,15,142.14,142.14,0,0,1-39,21.33,189.17,189.17,0,0,1-21.55,6.32c-7.26,1.67-14.57,2.81-21.85,3.74a272.87,272.87,0,0,1-43.21,1.26,359.93,359.93,0,0,1-80.45-13.22,317,317,0,0,1-35.93-12.57,235.54,235.54,0,0,1-32.1-16.35c-9.89-6.17-19.05-13-26.54-21.09a76.2,76.2,0,0,1-5.22-6.33,54,54,0,0,1-4.28-6.92,38,38,0,0,1-3-7.5c-.16-.65-.31-1.3-.47-1.95s-.23-1.32-.34-2c-.17-1.28-.28-2.5-.42-3.74-1-9.84-.8-19.49,1.43-28.26a45.05,45.05,0,0,1,5-12.12,41.3,41.3,0,0,1,7.86-9.43c5.9-5.29,12.59-8.49,18.8-10.86a121.83,121.83,0,0,1,17.48-5c10.68-2.26,19.1-3.29,24.79-4,2.85-.35,5-.59,6.49-.74l1.65-.17Z" transform="translate(-783.52 -398.08)"/><ellipse class="cls-1" cx="924.86" cy="434.83" rx="22.28" ry="13.14" transform="translate(-804.19 -351.09) rotate(-2.88)"/><path class="cls-2" d="M902.49,436c-.15-5,3.77-9,7.78-11.39,8.36-5,19.15-4.76,27.94-1.09,12,4.78,12.88,15.75,1.4,21.95-8.59,4.52-19.38,5.22-28.25,1.12-4.23-2-8.54-5.61-8.87-10.59Zm.24,0c.36,4.87,5,7.84,9.21,9.18,8.63,2.59,18.48,2.25,26.65-1.64,15.07-7.82,6.13-19.94-7.44-20.81-8.75-.78-28.23,1.86-28.42,13.27Z" transform="translate(-783.52 -398.08)"/><ellipse class="cls-1" cx="898.1" cy="407.07" rx="14.22" ry="8.39" transform="translate(-802.83 -352.47) rotate(-2.88)"/><path class="cls-2" d="M883.83,407.79c-.1-3.18,2.39-5.73,5-7.27,5.34-3.22,12.22-3,17.83-.69,7.64,3,8.22,10.08.9,14a20.76,20.76,0,0,1-18,.71c-2.71-1.29-5.46-3.57-5.66-6.76Zm.14,0c1.23,8.38,17.19,8,22.9,4.81,6.74-3.22,6.65-9.64-.43-12.33-5.86-2.45-22.32-.71-22.47,7.52Z" transform="translate(-783.52 -398.08)"/><ellipse class="cls-1" cx="168.74" cy="85.54" rx="33.73" ry="19.46"/><path class="cls-2" d="M986.13,483.63c-.11,7.49-6.59,13-12.81,16.13-13,6.5-29,5.54-42-.37-17.84-8-18.17-24-.35-32.29,13.26-5.88,29.25-6.05,42.32.35,6.2,3.18,12.71,8.67,12.79,16.18Zm-.28,0c-1-17-31.09-19.84-43.9-17.09-6.66,1.2-13.45,3.67-18.39,8.38-5.41,5-5.72,12.49-.45,17.84,4.85,5.07,11.89,7.59,18.72,8.6,13,2.1,43-.72,44-17.73Z" transform="translate(-783.52 -398.08)"/></svg>