<svg width="1856" height="1070" viewBox="0 0 1856 1070" fill="none" xmlns="http://www.w3.org/2000/svg">
<path d="M0.5 231L958.5 517L171 151L315.5 134.5L958.5 517L449 120L524 111.5L958.5 517L643.5 98L732.5 90L958.5 517L827 79L905.5 71.5L958.5 517L1033.5 57.5L1114 48.5L958.5 517L1368.5 21L1546.5 0L958.5 517L1855.5 139.5V231L958.5 517L1855.5 367.5L1841.5 496L958.5 517L1855.5 646.5L1841.5 788.5L958.5 517L1855.5 955.5V1069.5H1822L958.5 517L1582.5 1069.5H1488L958.5 517L1304 1069.5H1201L958.5 517L1047.5 1069.5H975L958.5 517L866.5 1069.5H783L958.5 517L501.5 1069.5H301L958.5 517L0.5 972V869L958.5 517L0.5 646.5V551.5L958.5 517L0.5 345.5V231Z" fill="#B132FF" fill-opacity="0.76"/>
</svg>
