<svg width="1920" height="982" viewBox="0 0 1920 982" fill="none" xmlns="http://www.w3.org/2000/svg">
<path d="M1432.9 261.733L2109.82 25.9688L2113.57 90.0674L1432.9 261.733Z" fill="url(#paint0_radial_104_41)"/>
<path d="M1579.68 335.336L2123.15 253.773L2125.76 298.503L1579.68 335.336Z" fill="url(#paint1_radial_104_41)"/>
<path d="M1579.11 421.722L2131.75 400.877L2133.99 439.152L1579.11 421.722Z" fill="url(#paint2_radial_104_41)"/>
<path d="M1496.79 516.194L2143 593.173L2146.75 657.272L1496.79 516.194Z" fill="url(#paint3_radial_104_41)"/>
<path d="M1617.37 648.424L2155.19 801.609L2158.54 858.79L2061.42 864.468L1617.37 648.424Z" fill="url(#paint4_radial_104_41)"/>
<path d="M1534.84 737.926L1776.87 881.102L1728.59 883.924L1534.84 737.926Z" fill="url(#paint5_radial_104_41)"/>
<path d="M1350.15 717.72L1535.49 895.212L1491.76 897.769L1350.15 717.72Z" fill="url(#paint6_radial_104_41)"/>
<path d="M1202.1 914.701L1156.39 766.527L1154.39 917.49L1202.1 914.701L1361.13 905.405L1380.44 904.276L1293.99 770.976L1361.13 905.405L1202.1 914.701Z" fill="url(#paint7_radial_104_41)"/>
<path d="M1353.35 230.693L1456.22 -3.89225L1354.84 3.78102L1353.35 230.693Z" fill="url(#paint8_radial_104_41)"/>
<path d="M1499.75 137.981L1753.34 11.1784L1621.55 11.9565L1499.75 137.981Z" fill="url(#paint9_radial_104_41)"/>
<path d="M1277.64 258.765L1228.23 -2.54614L1168.25 -5.05485L1277.64 258.765Z" fill="url(#paint10_radial_104_41)"/>
<path d="M1226.22 303.815L1052.98 -7.57105L1000.46 -9.12796L1226.22 303.815Z" fill="url(#paint11_radial_104_41)"/>
<path d="M946.991 557.064L40.5488 805.844L36.7996 741.745L946.991 557.064Z" fill="url(#paint12_radial_104_41)"/>
<path d="M970.557 470.895L27.2243 578.04L24.6079 533.309L970.557 470.895Z" fill="url(#paint13_radial_104_41)"/>
<path d="M365.641 410.65L18.62 430.936L16.3813 392.661L365.641 410.65Z" fill="url(#paint14_radial_104_41)"/>
<path d="M1021.83 425.013L7.37237 238.64L3.62316 174.541L1021.83 425.013Z" fill="url(#paint15_radial_104_41)"/>
<path d="M1050.39 386.556L-4.8193 30.2038L-9.00007 -41.2732L85.1711 -38.912L1050.39 386.556Z" fill="url(#paint16_radial_104_41)"/>
<path d="M1081.22 357.203L387.698 -30.6847L438.516 -29.0281L1081.22 357.203Z" fill="url(#paint17_radial_104_41)"/>
<path d="M1121.95 338.039L618.014 -19.6242L663.666 -18.5912L1121.95 338.039Z" fill="url(#paint18_radial_104_41)"/>
<path d="M1166.22 304.169L851.982 -14.3299L877.08 -13.9462L1166.22 304.169Z" fill="url(#paint19_radial_104_41)"/>
<path d="M1048.65 651.782L571.29 945.099L649.1 940.55L1048.65 651.782Z" fill="url(#paint20_radial_104_41)"/>
<path d="M969.708 600.1L241.117 970.878L319.118 959.84L969.708 600.1Z" fill="url(#paint21_radial_104_41)"/>
<path d="M1119.81 663.335L899.001 925.941L956.364 922.588L1119.81 663.335Z" fill="url(#paint22_radial_104_41)"/>
<defs>
<radialGradient id="paint0_radial_104_41" cx="0" cy="0" r="1" gradientUnits="userSpaceOnUse" gradientTransform="translate(1074.77 408.759) rotate(86.6525) scale(512.511 1055.64)">
<stop stop-color="#EFDB91" stop-opacity="0"/>
<stop offset="1" stop-color="#EFDB91"/>
</radialGradient>
<radialGradient id="paint1_radial_104_41" cx="0" cy="0" r="1" gradientUnits="userSpaceOnUse" gradientTransform="translate(1074.77 408.759) rotate(86.6525) scale(512.511 1055.64)">
<stop stop-color="#EFDB91" stop-opacity="0"/>
<stop offset="1" stop-color="#EFDB91"/>
</radialGradient>
<radialGradient id="paint2_radial_104_41" cx="0" cy="0" r="1" gradientUnits="userSpaceOnUse" gradientTransform="translate(1074.77 408.759) rotate(86.6525) scale(512.511 1055.64)">
<stop stop-color="#EFDB91" stop-opacity="0"/>
<stop offset="1" stop-color="#EFDB91"/>
</radialGradient>
<radialGradient id="paint3_radial_104_41" cx="0" cy="0" r="1" gradientUnits="userSpaceOnUse" gradientTransform="translate(1074.77 408.759) rotate(86.6525) scale(512.511 1055.64)">
<stop stop-color="#EFDB91" stop-opacity="0"/>
<stop offset="1" stop-color="#EFDB91"/>
</radialGradient>
<radialGradient id="paint4_radial_104_41" cx="0" cy="0" r="1" gradientUnits="userSpaceOnUse" gradientTransform="translate(1074.77 408.759) rotate(86.6525) scale(512.511 1055.64)">
<stop stop-color="#EFDB91" stop-opacity="0"/>
<stop offset="1" stop-color="#EFDB91"/>
</radialGradient>
<radialGradient id="paint5_radial_104_41" cx="0" cy="0" r="1" gradientUnits="userSpaceOnUse" gradientTransform="translate(1074.77 408.759) rotate(86.6525) scale(512.511 1055.64)">
<stop stop-color="#EFDB91" stop-opacity="0"/>
<stop offset="1" stop-color="#EFDB91"/>
</radialGradient>
<radialGradient id="paint6_radial_104_41" cx="0" cy="0" r="1" gradientUnits="userSpaceOnUse" gradientTransform="translate(1074.77 408.759) rotate(86.6525) scale(512.511 1055.64)">
<stop stop-color="#EFDB91" stop-opacity="0"/>
<stop offset="1" stop-color="#EFDB91"/>
</radialGradient>
<radialGradient id="paint7_radial_104_41" cx="0" cy="0" r="1" gradientUnits="userSpaceOnUse" gradientTransform="translate(1074.77 408.759) rotate(86.6525) scale(512.511 1055.64)">
<stop stop-color="#EFDB91" stop-opacity="0"/>
<stop offset="1" stop-color="#EFDB91"/>
</radialGradient>
<radialGradient id="paint8_radial_104_41" cx="0" cy="0" r="1" gradientUnits="userSpaceOnUse" gradientTransform="translate(1074.77 408.759) rotate(86.6525) scale(512.511 1055.64)">
<stop stop-color="#EFDB91" stop-opacity="0"/>
<stop offset="1" stop-color="#EFDB91"/>
</radialGradient>
<radialGradient id="paint9_radial_104_41" cx="0" cy="0" r="1" gradientUnits="userSpaceOnUse" gradientTransform="translate(1074.77 408.759) rotate(86.6525) scale(512.511 1055.64)">
<stop stop-color="#EFDB91" stop-opacity="0"/>
<stop offset="1" stop-color="#EFDB91"/>
</radialGradient>
<radialGradient id="paint10_radial_104_41" cx="0" cy="0" r="1" gradientUnits="userSpaceOnUse" gradientTransform="translate(1074.77 408.759) rotate(86.6525) scale(512.511 1055.64)">
<stop stop-color="#EFDB91" stop-opacity="0"/>
<stop offset="1" stop-color="#EFDB91"/>
</radialGradient>
<radialGradient id="paint11_radial_104_41" cx="0" cy="0" r="1" gradientUnits="userSpaceOnUse" gradientTransform="translate(1074.77 408.759) rotate(86.6525) scale(512.511 1055.64)">
<stop stop-color="#EFDB91" stop-opacity="0"/>
<stop offset="1" stop-color="#EFDB91"/>
</radialGradient>
<radialGradient id="paint12_radial_104_41" cx="0" cy="0" r="1" gradientUnits="userSpaceOnUse" gradientTransform="translate(1074.77 408.759) rotate(86.6525) scale(512.511 1055.64)">
<stop stop-color="#EFDB91" stop-opacity="0"/>
<stop offset="1" stop-color="#EFDB91"/>
</radialGradient>
<radialGradient id="paint13_radial_104_41" cx="0" cy="0" r="1" gradientUnits="userSpaceOnUse" gradientTransform="translate(1074.77 408.759) rotate(86.6525) scale(512.511 1055.64)">
<stop stop-color="#EFDB91" stop-opacity="0"/>
<stop offset="1" stop-color="#EFDB91"/>
</radialGradient>
<radialGradient id="paint14_radial_104_41" cx="0" cy="0" r="1" gradientUnits="userSpaceOnUse" gradientTransform="translate(1074.77 408.759) rotate(86.6525) scale(512.511 1055.64)">
<stop stop-color="#EFDB91" stop-opacity="0"/>
<stop offset="1" stop-color="#EFDB91"/>
</radialGradient>
<radialGradient id="paint15_radial_104_41" cx="0" cy="0" r="1" gradientUnits="userSpaceOnUse" gradientTransform="translate(1074.77 408.759) rotate(86.6525) scale(512.511 1055.64)">
<stop stop-color="#EFDB91" stop-opacity="0"/>
<stop offset="1" stop-color="#EFDB91"/>
</radialGradient>
<radialGradient id="paint16_radial_104_41" cx="0" cy="0" r="1" gradientUnits="userSpaceOnUse" gradientTransform="translate(1074.77 408.759) rotate(86.6525) scale(512.511 1055.64)">
<stop stop-color="#EFDB91" stop-opacity="0"/>
<stop offset="1" stop-color="#EFDB91"/>
</radialGradient>
<radialGradient id="paint17_radial_104_41" cx="0" cy="0" r="1" gradientUnits="userSpaceOnUse" gradientTransform="translate(1074.77 408.759) rotate(86.6525) scale(512.511 1055.64)">
<stop stop-color="#EFDB91" stop-opacity="0"/>
<stop offset="1" stop-color="#EFDB91"/>
</radialGradient>
<radialGradient id="paint18_radial_104_41" cx="0" cy="0" r="1" gradientUnits="userSpaceOnUse" gradientTransform="translate(1074.77 408.759) rotate(86.6525) scale(512.511 1055.64)">
<stop stop-color="#EFDB91" stop-opacity="0"/>
<stop offset="1" stop-color="#EFDB91"/>
</radialGradient>
<radialGradient id="paint19_radial_104_41" cx="0" cy="0" r="1" gradientUnits="userSpaceOnUse" gradientTransform="translate(1074.77 408.759) rotate(86.6525) scale(512.511 1055.64)">
<stop stop-color="#EFDB91" stop-opacity="0"/>
<stop offset="1" stop-color="#EFDB91"/>
</radialGradient>
<radialGradient id="paint20_radial_104_41" cx="0" cy="0" r="1" gradientUnits="userSpaceOnUse" gradientTransform="translate(1074.77 408.759) rotate(86.6525) scale(512.511 1055.64)">
<stop stop-color="#EFDB91" stop-opacity="0"/>
<stop offset="1" stop-color="#EFDB91"/>
</radialGradient>
<radialGradient id="paint21_radial_104_41" cx="0" cy="0" r="1" gradientUnits="userSpaceOnUse" gradientTransform="translate(1074.77 408.759) rotate(86.6525) scale(512.511 1055.64)">
<stop stop-color="#EFDB91" stop-opacity="0"/>
<stop offset="1" stop-color="#EFDB91"/>
</radialGradient>
<radialGradient id="paint22_radial_104_41" cx="0" cy="0" r="1" gradientUnits="userSpaceOnUse" gradientTransform="translate(1074.77 408.759) rotate(86.6525) scale(512.511 1055.64)">
<stop stop-color="#EFDB91" stop-opacity="0"/>
<stop offset="1" stop-color="#EFDB91"/>
</radialGradient>
</defs>
</svg>
