<svg id="Слой_1" data-name="Слой 1" xmlns="http://www.w3.org/2000/svg" viewBox="0 0 301.17 249.33"><defs><style>.cls-1{fill:#fff;}.cls-2{fill:#1d1d1b;}</style></defs><path class="cls-1" d="M881.61,554.41c29.49,3.29,55.09.91,80,4.81,128.1,20.06,154-23.78,146.46-67.81-5.37-31.33-40.49-73.1-122.24-73.1S817.35,456.5,812,491.41C804.68,539.35,833,549,881.61,554.41Z" transform="translate(-809.26 -415.48)"/><path class="cls-2" d="M881.61,554.41s-.64,0-1.89-.19-3.11-.33-5.55-.63c-4.86-.62-12-1.5-21.17-3.43a104.65,104.65,0,0,1-14.94-4.28A50.43,50.43,0,0,1,822,536.6a35.14,35.14,0,0,1-6.71-8.05A38.58,38.58,0,0,1,811,518.2c-1.9-7.49-2.1-15.74-1.22-24.15.12-1.06.22-2.1.36-3.19.1-.56.18-1.13.29-1.69l.4-1.67a32.57,32.57,0,0,1,2.54-6.4,51.82,51.82,0,0,1,8.12-11.32c6.4-6.93,14.22-12.75,22.67-18,17-10.46,36.74-18.56,58.12-24.7A307.17,307.17,0,0,1,971,415.76a232.6,232.6,0,0,1,36.92,1.08,189,189,0,0,1,18.66,3.2,160.29,160.29,0,0,1,18.41,5.39,121.53,121.53,0,0,1,33.29,18.22,88.93,88.93,0,0,1,23.85,27.93,69.27,69.27,0,0,1,6.41,16.84,83.49,83.49,0,0,1,1.91,17.6,60.08,60.08,0,0,1-2.47,17.26,49,49,0,0,1-7.75,15.36A53.1,53.1,0,0,1,1088,550.28a41.17,41.17,0,0,1-3.46,2.27l-1.76,1.08c-.58.36-1.21.64-1.81,1-1.21.62-2.41,1.27-3.63,1.84l-3.71,1.6c-1.22.56-2.49,1-3.74,1.4s-2.49.93-3.75,1.28c-2.53.69-5,1.51-7.55,2l-3.76.84c-1.25.27-2.51.44-3.76.67l-3.73.62-3.71.45a202.55,202.55,0,0,1-28.61,1.15c-2.29-.06-4.55-.2-6.79-.3l-3.35-.17-3.29-.27-6.48-.54-6.31-.71c-4.16-.44-8.2-1.06-12.13-1.62S969,561.59,965.24,561l-5.46-.93c-1.79-.3-3.55-.59-5.29-.81s-3.46-.45-5.15-.63-3.37-.35-5-.5c-13.16-1.09-24.57-1.23-33.87-1.64s-16.53-.83-21.42-1.28-7.43-.78-7.43-.78.64,0,1.89.15,3.11.32,5.56.49c4.88.41,12.1.82,21.41,1s20.7.09,33.95.62c1.66.08,3.35.15,5.06.28s3.46.22,5.22.4,3.57.34,5.39.56l5.51.65c3.72.43,7.53.95,11.47,1.28s8,.8,12.09,1c16.52,1.16,34.73,1.75,53.9-.53l3.61-.44,3.6-.6c1.21-.21,2.43-.37,3.63-.62l3.62-.78c2.45-.45,4.82-1.22,7.25-1.84,1.22-.31,2.39-.77,3.6-1.14s2.42-.75,3.58-1.26l3.54-1.42c1.17-.51,2.3-1.1,3.46-1.64.57-.29,1.17-.54,1.73-.86l1.67-1a35.16,35.16,0,0,0,3.31-2,50.06,50.06,0,0,0,11.69-10.37,45.41,45.41,0,0,0,7.77-14.06A55.94,55.94,0,0,0,1108,506a76.69,76.69,0,0,0-1.5-17.09,64.24,64.24,0,0,0-6.11-16.38,82.26,82.26,0,0,0-23.59-26.94,112.22,112.22,0,0,0-33-16.66,157.34,157.34,0,0,0-18.12-4.53c-6.09-1.16-12.2-1.88-18.28-2.46a260.65,260.65,0,0,0-36.09-.24,316.31,316.31,0,0,0-67.24,11.66c-20.92,6-40.31,13.67-56.94,23.36-8.27,4.87-15.89,10.26-22.08,16.48a48.94,48.94,0,0,0-7.83,10,29.15,29.15,0,0,0-2.48,5.48l-.41,1.41c-.12.47-.21.95-.32,1.42-.18,1-.33,2-.49,3-1.27,8.08-1.48,15.94-.06,23.1a35.49,35.49,0,0,0,3.57,10,32.73,32.73,0,0,0,6,7.93,47.45,47.45,0,0,0,15.33,9.62,97.71,97.71,0,0,0,14.73,4.61c9.07,2.09,16.25,3,21.1,3.71l5.53.71C881,554.31,881.61,554.41,881.61,554.41Z" transform="translate(-809.26 -415.48)"/><ellipse class="cls-1" cx="889.62" cy="626.8" rx="11.22" ry="19.03" transform="translate(-590.33 1068.35) rotate(-87.12)"/><path class="cls-2" d="M870.71,625.85c.22,9.77,16.77,12,24.29,11.34,11.57-.73,19.23-11.11,6.35-17.78-7.46-4.24-29.2-4.67-30.64,6.44Zm-.19,0c.27-4.26,4-7.31,7.57-9a27.8,27.8,0,0,1,24.14,1c9.77,5.26,9,14.7-1.21,18.75-7.5,3.14-16.72,3.38-23.86-.92-3.44-2.07-6.77-5.48-6.64-9.74Z" transform="translate(-809.26 -415.48)"/><ellipse class="cls-1" cx="909.16" cy="657.13" rx="7.17" ry="12.15" transform="translate(-602.05 1116.66) rotate(-87.12)"/><path class="cls-2" d="M897.09,656.52c.17,7.05,14.14,8.5,19.19,6.42,6-2.3,6.14-7.77.37-10.53-4.91-2.68-18.47-3.07-19.56,4.11Zm-.13,0c.18-2.72,2.53-4.67,4.84-5.77a17.74,17.74,0,0,1,15.41.61c6.23,3.3,5.75,9.44-.77,12-4.79,2-10.67,2.15-15.24-.59-2.19-1.32-4.32-3.5-4.24-6.22Z" transform="translate(-809.26 -415.48)"/><ellipse class="cls-1" cx="57.01" cy="169.64" rx="28.81" ry="16.63"/><path class="cls-2" d="M895,585.12c-1-14.58-26.46-16.9-37.61-15.15-17.52,2.17-28.69,18-8.33,27.26,10.86,4.43,23.61,4.28,34.61.3,5.36-2,11.17-6.11,11.33-12.41Zm.23,0c-.12,6.41-5.62,11.07-10.94,13.8-11.13,5.48-24.82,5.33-36.13.3-9.41-4.07-15.85-13.89-7.32-22.46,3.87-3.79,9-6,14.07-7.5,9.62-2.63,20.34-2.5,29.37,2.08,5.33,2.71,10.8,7.37,11,13.78Z" transform="translate(-809.26 -415.48)"/></svg>