<svg xmlns="http://www.w3.org/2000/svg" viewBox="0 0 1733.51 1415.05"><defs><style>.cls-1{fill:#0948a9;}</style></defs><g id="Layer_2" data-name="Layer 2"><g id="Layer_2-2" data-name="Layer 2"><polygon class="cls-1" points="281.55 1080.8 642.54 826.84 228.93 1061.37 281.55 1080.8"/><polygon class="cls-1" points="1336.01 1259.59 1068.08 908.85 1392.04 1256.88 1336.01 1259.59"/><polygon class="cls-1" points="56.81 962.05 473.75 817.25 11.57 928.89 56.81 962.05"/><polygon class="cls-1" points="266.89 1162.25 601.67 874.62 236 1158.32 266.89 1162.25"/><polygon class="cls-1" points="323.71 1226.38 587.65 922.62 273.69 1236.08 323.71 1226.38"/><polygon class="cls-1" points="1014.18 1347.02 904.91 954.71 952.83 1415.05 1014.18 1347.02"/><polygon class="cls-1" points="1663.42 975.51 1274.76 853.95 1687.18 1063.98 1663.42 975.51"/><polygon class="cls-1" points="181.38 1013.99 489.83 866.97 159.67 1005.67 181.38 1013.99"/><polygon class="cls-1" points="183.14 805.61 528.11 737.91 164.51 792.57 183.14 805.61"/><polygon class="cls-1" points="72.67 868.59 415.25 789.63 53.63 856.17 72.67 868.59"/><polygon class="cls-1" points="46.28 747.83 395.43 706.8 28.71 733.4 46.28 747.83"/><polygon class="cls-1" points="164.06 639.93 520 658.88 149.93 623 164.06 639.93"/><polygon class="cls-1" points="15.36 560.6 451.3 620.61 0 538.4 15.36 560.6"/><polygon class="cls-1" points="67.8 390.14 515.32 544.64 57.31 363.77 67.8 390.14"/><polygon class="cls-1" points="111.2 473.51 570.71 587.53 98.4 448.19 111.2 473.51"/><polygon class="cls-1" points="205.33 322.03 608.3 539 202.22 296.87 205.33 322.03"/><polygon class="cls-1" points="442.09 34.78 716.88 450.02 454.57 5.97 442.09 34.78"/><polygon class="cls-1" points="1282.1 176.17 1036.49 490.91 1310.83 175.11 1282.1 176.17"/><polygon class="cls-1" points="1386.77 269.41 1131.49 481.06 1409.92 272.77 1386.77 269.41"/><polygon class="cls-1" points="1701.77 320.93 1400.75 460.03 1723.29 330.12 1701.77 320.93"/><polygon class="cls-1" points="1696.74 265.39 1103.93 574.89 1733.51 281.75 1696.74 265.39"/><polygon class="cls-1" points="1561.35 562.34 1215.53 625.56 1579.81 575.62 1561.35 562.34"/><polygon class="cls-1" points="1629.84 607.12 1280.9 649.95 1650.8 646.55 1629.84 607.12"/><polygon class="cls-1" points="1643.36 707.65 1287.42 688.7 1657.49 724.58 1643.36 707.65"/><polygon class="cls-1" points="1548.15 741.95 1138.9 707.44 1563.82 761.95 1548.15 741.95"/><polygon class="cls-1" points="1706.02 821.08 1351.91 780.39 1719.09 838.85 1706.02 821.08"/><polygon class="cls-1" points="1552.25 878.27 1205.88 795.71 1562.05 897.23 1552.25 878.27"/><polygon class="cls-1" points="1557.7 1061.48 1113.29 824.02 1563.05 1091.24 1557.7 1061.48"/><polygon class="cls-1" points="1574.78 1178.2 1157.32 896.05 1577.03 1208.35 1574.78 1178.2"/><polygon class="cls-1" points="1433.14 1230.62 1162.11 970.67 1429.68 1253.05 1433.14 1230.62"/><polygon class="cls-1" points="1570.78 1284.13 1286.91 1038.25 1568.47 1306.7 1570.78 1284.13"/><polygon class="cls-1" points="1174.82 1212.89 1008.66 927.62 1165.46 1231.48 1174.82 1212.89"/><polygon class="cls-1" points="1106.89 1303.08 987.76 1001.65 1094.55 1320.19 1106.89 1303.08"/><polygon class="cls-1" points="1295.95 1249.07 1098.68 991.92 1288.78 1268.91 1295.95 1249.07"/><polygon class="cls-1" points="876.37 1306.41 873.98 991.34 858.19 1318.89 876.37 1306.41"/><polygon class="cls-1" points="543.87 1231.46 698.34 956.37 521.32 1234.34 543.87 1231.46"/><polygon class="cls-1" points="669.65 1277.05 764.66 976.21 648.17 1284.48 669.65 1277.05"/><polygon class="cls-1" points="723.9 1250.92 792.84 943.05 703.13 1260.16 723.9 1250.92"/><polygon class="cls-1" points="563.47 1262.66 751.8 880.67 533.28 1268.18 563.47 1262.66"/><polygon class="cls-1" points="800.28 1260.91 840.21 891.2 777.18 1274.49 800.28 1260.91"/><polygon class="cls-1" points="454.17 1255.36 707.86 904.97 423 1257.35 454.17 1255.36"/><polygon class="cls-1" points="356.01 109.32 637.33 449.41 300.12 114.19 356.01 109.32"/><polygon class="cls-1" points="1467.48 270.9 1109.44 529 1520.33 289.72 1467.48 270.9"/><polygon class="cls-1" points="160.57 169.36 512.17 436.16 107.28 186.88 160.57 169.36"/><polygon class="cls-1" points="73.88 659.09 514.84 678.11 40.05 703.84 73.88 659.09"/><polygon class="cls-1" points="408.96 50.09 664.47 409.98 378.03 46.44 408.96 50.09"/><polygon class="cls-1" points="1177.89 82.67 983.58 440.56 1133.33 2.63 1177.89 82.67"/><polygon class="cls-1" points="295.08 158.07 542.91 393.31 271.86 159.27 295.08 158.07"/><polygon class="cls-1" points="1620.06 523.78 1126.65 625.93 1633.6 496.75 1620.06 523.78"/><polygon class="cls-1" points="1670.79 416.52 1191.33 571.46 1681.32 388.18 1670.79 416.52"/><polygon class="cls-1" points="1298.15 265.21 1060.51 494.37 1294.22 244.78 1298.15 265.21"/><polygon class="cls-1" points="1257.41 157.35 1066.15 419.01 1249.78 137.68 1257.41 157.35"/><polygon class="cls-1" points="1040.16 87.87 952.66 390.56 1026.03 70.94 1040.16 87.87"/><polygon class="cls-1" points="706.09 48.39 772.33 356.84 685.4 38.97 706.09 48.39"/><polygon class="cls-1" points="835.17 54.98 842.85 370.38 816.59 41.88 835.17 54.98"/><polygon class="cls-1" points="876.83 95.58 862.37 410.74 859.22 81.2 876.83 95.58"/><polygon class="cls-1" points="725.54 37.15 805.66 455.43 697.9 23.81 725.54 37.15"/><polygon class="cls-1" points="953.62 108.83 890.87 475.35 935.11 89.45 953.62 108.83"/><polygon class="cls-1" points="606.67 10.45 754.72 416.92 577.23 0 606.67 10.45"/></g></g></svg>