<svg xmlns="http://www.w3.org/2000/svg" viewBox="0 0 1598.93 1598.93"><defs><style>.cls-1{fill:#1a9ae2;}</style></defs><g id="Layer_2" data-name="Layer 2"><g id="Layer_2-2" data-name="Layer 2"><polygon class="cls-1" points="996.14 24.5 799.46 799.47 845.45 1.25 996.14 24.5"/><polygon class="cls-1" points="789.09 0 799.69 799.47 637.52 16.55 789.09 0"/><polygon class="cls-1" points="582.3 29.98 799.46 799.47 440.18 85.2 582.3 29.98"/><polygon class="cls-1" points="390.55 112.41 799.46 799.47 267.56 202.53 390.55 112.41"/><polygon class="cls-1" points="226.66 241.66 799.46 799.47 131.19 360.53 226.66 241.66"/><polygon class="cls-1" points="101.81 408.92 799.46 799.47 40.35 548.45 101.81 408.92"/><polygon class="cls-1" points="24.5 602.79 799.46 799.47 1.25 753.48 24.5 602.79"/><polygon class="cls-1" points="0 809.93 799.46 799.33 16.55 961.5 0 809.93"/><polygon class="cls-1" points="29.98 1016.63 799.46 799.47 85.2 1158.74 29.98 1016.63"/><polygon class="cls-1" points="112.41 1208.38 799.46 799.47 202.53 1331.37 112.41 1208.38"/><polygon class="cls-1" points="241.66 1372.27 799.46 799.47 360.53 1467.74 241.66 1372.27"/><polygon class="cls-1" points="408.92 1497.12 799.46 799.47 548.45 1558.57 408.92 1497.12"/><polygon class="cls-1" points="602.79 1574.43 799.46 799.47 753.48 1597.68 602.79 1574.43"/><polygon class="cls-1" points="810.09 1598.93 799.48 799.47 961.65 1582.38 810.09 1598.93"/><polygon class="cls-1" points="1016.62 1568.94 799.46 799.47 1158.74 1513.73 1016.62 1568.94"/><polygon class="cls-1" points="1208.38 1486.52 799.46 799.47 1331.37 1396.4 1208.38 1486.52"/><polygon class="cls-1" points="1372.27 1357.27 799.46 799.47 1467.74 1238.39 1372.27 1357.27"/><polygon class="cls-1" points="1497.12 1190.01 799.46 799.47 1558.57 1050.48 1497.12 1190.01"/><polygon class="cls-1" points="1574.43 996.14 799.46 799.47 1597.67 845.45 1574.43 996.14"/><polygon class="cls-1" points="1598.93 788.93 799.46 799.53 1582.38 637.36 1598.93 788.93"/><polygon class="cls-1" points="1568.94 582.3 799.46 799.47 1513.73 440.18 1568.94 582.3"/><polygon class="cls-1" points="1486.52 390.55 799.46 799.47 1396.4 267.56 1486.52 390.55"/><polygon class="cls-1" points="1357.27 226.66 799.46 799.47 1238.39 131.19 1357.27 226.66"/><polygon class="cls-1" points="1190.01 101.81 799.46 799.47 1050.47 40.35 1190.01 101.81"/></g></g></svg>