<svg xmlns="http://www.w3.org/2000/svg" viewBox="0 0 132.69 119.24"><defs><style>.cls-2{fill:#1d1d1b}</style></defs><g id="Layer_2" data-name="Layer 2"><g id="Layer_1-2" data-name="Layer 1"><circle cx="57.82" cy="61.42" r="57.82" fill="#fff"/><path class="cls-2" d="M7.88 55.39A60.79 60.79 0 0010 78.66a57.52 57.52 0 0010.75 20.63 45.46 45.46 0 0018.63 13.38 55.13 55.13 0 0022.62 3.2 81.1 81.1 0 0022.49-4.38 65.11 65.11 0 0019.65-11.07A63.22 63.22 0 00126 62.17a54.33 54.33 0 00-.6-22.15 42.28 42.28 0 00-1.64-5.27 55.73 55.73 0 00-2.25-5.13 48.1 48.1 0 00-6.08-9.33A45 45 0 0097.48 7.2a60.31 60.31 0 00-22.33-4.34 76 76 0 00-22.89 3.22 74.64 74.64 0 00-10.85 4.25 64.25 64.25 0 00-10 6 57.49 57.49 0 00-15.9 17 57 57 0 00-7.63 22.06zm0 0a57.16 57.16 0 017.41-22.19 61 61 0 016.94-9.52 63.33 63.33 0 018.69-8A76 76 0 0151.74 4.52 82.06 82.06 0 0175.11.05a63.82 63.82 0 0123.82 3.38A49.28 49.28 0 01119.23 17a53.65 53.65 0 017 10.15 61.35 61.35 0 012.64 5.56 45.69 45.69 0 012 5.91 60.23 60.23 0 01.94 24.56 67.72 67.72 0 01-8.34 23 64.37 64.37 0 01-16.09 18.37 66.31 66.31 0 01-21.58 11.11 81.8 81.8 0 01-23.76 3.44 57.63 57.63 0 01-23.45-4.61 47.42 47.42 0 01-18.54-14.64A59.18 59.18 0 019.78 78.72a61.08 61.08 0 01-1.9-23.33zM21 18.52c-.66.88-1.33 1.75-2 2.65s-1.29 1.77-1.92 2.67c-1.24 1.8-2.48 3.61-3.64 5.46s-2.3 3.71-3.39 5.61c-.56.94-1.08 1.91-1.58 2.88s-1 2-1.54 2.93a43 43 0 012.47-6.17 52.07 52.07 0 013.23-5.79 58.62 58.62 0 013.87-5.38 43.18 43.18 0 014.5-4.86z"/></g></g></svg>