<svg xmlns="http://www.w3.org/2000/svg" viewBox="0 0 106.81 110.87"><defs><style>.cls-1{fill:#0f75bd;}.cls-2{fill:#201f1d;}.cls-3{fill:#ed2257;}.cls-4{fill:#f5f1d6;}</style></defs><g id="Layer_2" data-name="Layer 2"><g id="Layer_2-2" data-name="Layer 2"><path class="cls-1" d="M103.91,76.23a23.64,23.64,0,0,0-1.17-8A28.39,28.39,0,0,0,99,60.86,41.72,41.72,0,0,0,86.61,49.68,62,62,0,0,0,71,43a75.45,75.45,0,0,0-33.95-1.43A61.68,61.68,0,0,0,20.83,47a47.44,47.44,0,0,0-7.26,4.54,36.6,36.6,0,0,0-6.16,5.9c-.22.28-.46.55-.67.83l-.63.86c-.43.57-.78,1.19-1.17,1.78-.2.3-.36.62-.53.93l-.51.93-.45,1c-.14.32-.31.64-.42,1a24.53,24.53,0,0,0-1.8,8.27,24.8,24.8,0,0,0,1.26,8.37c.1.34.24.66.37,1l.38,1,.45,1c.15.32.29.65.47,1,.35.62.66,1.26,1.06,1.85l.57.9c.19.3.41.58.61.88a36.94,36.94,0,0,0,5.77,6.28,47.46,47.46,0,0,0,7,5A60.94,60.94,0,0,0,35,106.55a75.55,75.55,0,0,0,34,.75A66.11,66.11,0,0,0,77.17,105,60.35,60.35,0,0,0,85,101.63,41.54,41.54,0,0,0,98,91.25a27.86,27.86,0,0,0,2.38-3.38,23.8,23.8,0,0,0,1.83-3.68A23.25,23.25,0,0,0,103.91,76.23Z"/><path class="cls-2" d="M105.38,75.7c-.46,14.29-13.92,26.14-32.74,30.84l2.58-6.19L99.89,74.4l5.5,0C105.4,74.86,105.39,75.27,105.38,75.7Z"/><path class="cls-2" d="M106.81,76.33a26.27,26.27,0,0,1-1.93,8.93,27.69,27.69,0,0,1-2,4.07,31.58,31.58,0,0,1-2.62,3.7,33.33,33.33,0,0,1-3.08,3.31,39,39,0,0,1-3.41,2.9c-.59.47-1.21.88-1.81,1.32s-1.23.84-1.87,1.22c-1.26.8-2.57,1.5-3.88,2.19A58.33,58.33,0,0,1,78,107.35a68.8,68.8,0,0,1-8.55,2.21,77,77,0,0,1-17.53,1.24,77.46,77.46,0,0,1-17.32-2.71,64.68,64.68,0,0,1-16.09-6.89A43.21,43.21,0,0,1,5.54,89.46c-.21-.3-.43-.6-.63-.9l-.59-.94c-.4-.61-.73-1.28-1.09-1.92-.18-.32-.32-.66-.48-1l-.46-1-.4-1c-.12-.35-.27-.68-.37-1a24.89,24.89,0,0,1,.56-17.34c.12-.35.29-.68.43-1l.47-1,.52-1a10,10,0,0,1,.55-1c.39-.62.76-1.27,1.21-1.85l.64-.9c.22-.29.46-.57.69-.86A43.11,43.11,0,0,1,20.26,45.85,63.63,63.63,0,0,1,36.76,40a76.84,76.84,0,0,1,17.45-1.6,77.73,77.73,0,0,1,17.41,2.37A63.44,63.44,0,0,1,88,47.42a50.4,50.4,0,0,1,7.24,5.2,39.31,39.31,0,0,1,6.08,6.6,30.87,30.87,0,0,1,4.16,8.07A26.35,26.35,0,0,1,106.81,76.33Zm-2.9-.1a23.64,23.64,0,0,0-1.17-8A28.39,28.39,0,0,0,99,60.86,41.72,41.72,0,0,0,86.61,49.68,62,62,0,0,0,71,43a75.45,75.45,0,0,0-33.95-1.43A61.68,61.68,0,0,0,20.83,47a47.44,47.44,0,0,0-7.26,4.54,36.6,36.6,0,0,0-6.16,5.9c-.22.28-.46.55-.67.83l-.63.86c-.43.57-.78,1.19-1.17,1.78-.2.3-.36.62-.53.93l-.51.93-.45,1c-.14.32-.31.64-.42,1a24.53,24.53,0,0,0-1.8,8.27,24.8,24.8,0,0,0,1.26,8.37c.1.34.24.66.37,1l.38,1,.45,1c.15.32.29.65.47,1,.35.62.66,1.26,1.06,1.85l.57.9c.19.3.41.58.61.88a36.94,36.94,0,0,0,5.77,6.28,47.46,47.46,0,0,0,7,5A60.94,60.94,0,0,0,35,106.55a75.55,75.55,0,0,0,34,.75A66.11,66.11,0,0,0,77.17,105,60.35,60.35,0,0,0,85,101.63,41.54,41.54,0,0,0,98,91.25a27.86,27.86,0,0,0,2.38-3.38,23.8,23.8,0,0,0,1.83-3.68A23.25,23.25,0,0,0,103.91,76.23Z"/><path class="cls-1" d="M105.55,70.33c-.61,19.13-24.53,33.89-53.42,33S.32,86.11.93,67s24.53-33.9,53.42-33c15.68.5,29.61,5.52,39,13.07C99.41,52,103.57,58,105,64.49h0A22.75,22.75,0,0,1,105.55,70.33Z"/><path class="cls-2" d="M106.48,70.36a25.28,25.28,0,0,1-1.8,8.54,28.76,28.76,0,0,1-4.45,7.49,42.93,42.93,0,0,1-13.46,10.7,63.41,63.41,0,0,1-16.15,5.76,77.46,77.46,0,0,1-17,1.63c-1.43,0-2.85-.1-4.28-.17l-2.13-.18c-.71,0-1.42-.16-2.13-.24a75.3,75.3,0,0,1-8.44-1.5,67.53,67.53,0,0,1-16-6,52.19,52.19,0,0,1-7.23-4.68,41,41,0,0,1-6.26-6,32.23,32.23,0,0,1-4.7-7.31A28.48,28.48,0,0,1,.86,74.31C.77,74,.69,73.6.61,73.24s-.18-.71-.23-1.07L.21,71.08c0-.18-.06-.36-.07-.54L.09,70A24.49,24.49,0,0,1,.88,61.3a27.68,27.68,0,0,1,3.68-7.88A34.27,34.27,0,0,1,10.28,47a44.91,44.91,0,0,1,7-5,59.48,59.48,0,0,1,15.81-6.41,76.9,76.9,0,0,1,8.38-1.6,78,78,0,0,1,8.5-.64c.71,0,1.42,0,2.13,0l2.13,0,2.13.1,1.06.06,1.06.09a72.85,72.85,0,0,1,8.44,1.16c.7.14,1.4.26,2.09.43l2.07.49c.69.17,1.37.38,2.06.56s1.37.4,2,.61a62.41,62.41,0,0,1,8,3.09,58.17,58.17,0,0,1,7.46,4.2l.89.6c.29.2.59.4.87.63.57.43,1.15.85,1.7,1.3,1.12.9,2.18,1.87,3.21,2.87a34.86,34.86,0,0,1,5.37,6.77c.18.31.38.61.54.94l.52,1c.31.65.63,1.3.9,2a27.58,27.58,0,0,1,1.33,4.16l0,.11v.12h0l0-.23A24.29,24.29,0,0,1,106.48,70.36Zm-1.86-.06a22.51,22.51,0,0,0-.5-5.61l0-.12v-.11h0l0,.22a25.22,25.22,0,0,0-1.2-3.88c-.25-.64-.54-1.25-.83-1.87l-.47-.91c-.16-.3-.34-.59-.51-.89a32.85,32.85,0,0,0-5-6.48c-1-1-2-1.91-3.06-2.79-.53-.44-1.09-.85-1.63-1.27-.27-.22-.56-.42-.84-.62l-.85-.59a56,56,0,0,0-7.22-4.14,61.06,61.06,0,0,0-7.76-3.07,65.73,65.73,0,0,0-8.09-2.08,74.43,74.43,0,0,0-8.29-1.15l-1-.09-1-.05c-.7,0-1.4-.08-2.09-.1l-2.1,0c-.69,0-1.39,0-2.09,0a77.66,77.66,0,0,0-8.34.66A75.49,75.49,0,0,0,33.43,37a58,58,0,0,0-15.37,6.31,43.5,43.5,0,0,0-6.66,4.91A32.44,32.44,0,0,0,6,54.39a25.76,25.76,0,0,0-3.38,7.39,22.7,22.7,0,0,0-.66,8l.05.5c0,.17,0,.34.07.5l.17,1a8.33,8.33,0,0,0,.22,1c.08.33.15.66.24,1a26.42,26.42,0,0,0,1.43,3.8,30.18,30.18,0,0,0,4.46,6.81,45.07,45.07,0,0,0,13,10.06,65,65,0,0,0,15.54,5.73,75.82,75.82,0,0,0,8.19,1.43c.69.07,1.38.17,2.07.22l2.08.16c1.38.07,2.77.15,4.15.15a74.53,74.53,0,0,0,16.53-1.56,61.72,61.72,0,0,0,15.62-5.43,41,41,0,0,0,12.9-10.06,26.54,26.54,0,0,0,4.22-6.94A23.18,23.18,0,0,0,104.62,70.3Z"/><path class="cls-2" d="M105,64.49h0L88.38,79.84l4.93-32.77C99.41,52,103.57,58,105,64.49Z"/><path class="cls-3" d="M12.6,25.53l-1.13,35c-.55,17.2,17.8,31.75,41,32.49s42.43-12.6,43-29.8l1.12-35Z"/><path class="cls-2" d="M52.42,94.32C40.93,94,30.21,90.27,22.26,84S9.89,69.22,10.17,60.48l1.12-35a1.31,1.31,0,0,1,1.35-1.26l84,2.69a1.31,1.31,0,0,1,1.26,1.35l-1.12,35C96.47,72,91.65,80,83.18,85.91S63.91,94.69,52.42,94.32ZM13.86,26.88,12.78,60.56C12.25,77,30.07,91,52.5,91.71S93.61,79.63,94.14,63.17l1.08-33.68Z"/><path class="cls-3" d="M96.56,28.23C96.1,42.74,76.92,53.9,53.74,53.16S11.77,40,12.23,25.52,32.24-.14,55.42.6,97,13.72,96.56,28.23Z"/><path class="cls-2" d="M97.87,28.27a18.52,18.52,0,0,1-.48,3.63,19.08,19.08,0,0,1-1.18,3.46,21.73,21.73,0,0,1-1.76,3.17,26.69,26.69,0,0,1-2.23,2.83A30.45,30.45,0,0,1,86.85,46a40.67,40.67,0,0,1-6.13,3.46,54.44,54.44,0,0,1-13.33,4.05,66.84,66.84,0,0,1-13.84.9,67.61,67.61,0,0,1-13.72-1.93,54.94,54.94,0,0,1-13-5,35.91,35.91,0,0,1-10.91-8.77,25.89,25.89,0,0,1-2-2.93,21.06,21.06,0,0,1-1.57-3.24,18.87,18.87,0,0,1-1-3.48,18.32,18.32,0,0,1-.24-3.62,18.08,18.08,0,0,1,.52-3.59,19.3,19.3,0,0,1,1.22-3.39,21.65,21.65,0,0,1,1.8-3.09,24.66,24.66,0,0,1,2.24-2.75,30.32,30.32,0,0,1,5.37-4.5,41.5,41.5,0,0,1,6.1-3.33A55.25,55.25,0,0,1,41.6.93,62.63,62.63,0,0,1,48.43.14C50.72,0,53,0,55.3,0s4.57.27,6.84.57a64.62,64.62,0,0,1,6.75,1.25,66.56,66.56,0,0,1,6.6,2c1.08.39,2.15.81,3.2,1.27S80.8,6,81.83,6.55a41.37,41.37,0,0,1,5.9,3.66A31.51,31.51,0,0,1,92.87,15,23.87,23.87,0,0,1,95,17.9a22,22,0,0,1,1.62,3.22,19,19,0,0,1,1,3.5A19.4,19.4,0,0,1,97.87,28.27Zm-2.61-.08a16.5,16.5,0,0,0-.18-3.14,18.13,18.13,0,0,0-.8-3.06,21.25,21.25,0,0,0-3.11-5.62A33.56,33.56,0,0,0,81.11,7.86,48.24,48.24,0,0,0,68.63,2.94,59.57,59.57,0,0,0,62,1.69q-1.68-.22-3.36-.36c-1.12-.08-2.25-.14-3.38-.17A62.85,62.85,0,0,0,41.84,2.24,52.42,52.42,0,0,0,29.07,6.32,34.74,34.74,0,0,0,18.35,14a22.6,22.6,0,0,0-2,2.57,19.46,19.46,0,0,0-1.57,2.82,17.18,17.18,0,0,0-1,3,15.72,15.72,0,0,0-.16,6.31,16.51,16.51,0,0,0,.87,3.07,19.62,19.62,0,0,0,1.42,2.87,22.29,22.29,0,0,0,1.88,2.65,28.89,28.89,0,0,0,4.71,4.53A39.18,39.18,0,0,0,28,45.43a52.6,52.6,0,0,0,12.42,4.69,64.18,64.18,0,0,0,13.23,1.77,65.11,65.11,0,0,0,13.3-1A52.9,52.9,0,0,0,79.59,47a33.89,33.89,0,0,0,10.63-7.47,24,24,0,0,0,2-2.51,19.85,19.85,0,0,0,1.56-2.77,16.34,16.34,0,0,0,1-3A15.53,15.53,0,0,0,95.26,28.19Z"/><path class="cls-2" d="M90.42,41.68l-1,11.51-.26-10.43a41.75,41.75,0,0,1-3.85,2.64L83.49,65.46,83,46.73c-1.71,1-2.93,1.54-2.93,1.54L76.88,87.86s-9,3.5.41,0S91.9,75,91.9,75s2.5-35.66,3.17-37.84C94.69,37,91.71,40.51,90.42,41.68Z"/><rect class="cls-2" x="55.63" y="68.16" width="40.48" height="2.32" transform="translate(-0.93 137.6) rotate(-84.06)"/><polygon class="cls-2" points="69.19 90.47 71.89 55.72 72.37 90.57 69.19 90.47"/><path class="cls-3" d="M31.18,54.41a9.53,9.53,0,0,1,2.31-3.29,16.3,16.3,0,0,1,3.22-2.33,18.38,18.38,0,0,1,3.63-1.53,12.86,12.86,0,0,1,3.93-.59,27.37,27.37,0,0,1-3.19,2.26c-1.08.67-2.16,1.28-3.25,1.88S35.66,52,34.56,52.59,32.39,53.78,31.18,54.41Z"/><path class="cls-2" d="M31.15,52.43a9.84,9.84,0,0,1,2.36-3.24,16.43,16.43,0,0,1,3.21-2.31,18.58,18.58,0,0,1,3.62-1.54,13.13,13.13,0,0,1,3.91-.65A31.72,31.72,0,0,1,41,46.89c-1.08.66-2.17,1.27-3.26,1.87S35.6,50,34.51,50.56Z"/><rect class="cls-3" x="65.26" y="48.45" width="4.06" height="7.92" transform="translate(-14.37 27.77) rotate(-21.13)"/><polygon class="cls-2" points="106.41 68.72 95.28 76.08 104.56 66.5 106.41 68.72"/><polygon class="cls-2" points="106.17 74.2 94.21 79.16 104.77 71.66 106.17 74.2"/><path class="cls-1" d="M31.65,103.75A19.93,19.93,0,0,1,34.79,102a33.1,33.1,0,0,1,3.34-1.32,29,29,0,0,1,3.47-.92,17.3,17.3,0,0,1,3.6-.35c-1.09.56-2.18,1-3.29,1.45s-2.21.83-3.33,1.2-2.25.71-3.4,1A27.57,27.57,0,0,1,31.65,103.75Z"/><path class="cls-2" d="M30.83,103.29a16.67,16.67,0,0,1,3-2.11,23.94,23.94,0,0,1,3.28-1.54,20,20,0,0,1,3.5-1,12.14,12.14,0,0,1,3.66-.15l-3.36,1.24L37.59,101c-1.1.42-2.2.83-3.32,1.23S32,103,30.83,103.29Z"/><path class="cls-1" d="M14.88,95.46a6.54,6.54,0,0,1,1.52-1.19,9.35,9.35,0,0,1,1.67-.77A10,10,0,0,1,19.86,93a6.47,6.47,0,0,1,1.92,0,7.08,7.08,0,0,1-1.55,1.12,11.85,11.85,0,0,1-1.67.75,12.8,12.8,0,0,1-1.77.48A7,7,0,0,1,14.88,95.46Z"/><path class="cls-2" d="M14.06,95a6.5,6.5,0,0,1,1.72-1.44,11.46,11.46,0,0,1,2-.94,12.56,12.56,0,0,1,2.08-.57A9.39,9.39,0,0,1,22,91.87a8.43,8.43,0,0,1-1.84,1.25,14.63,14.63,0,0,1-1.95.86,18.25,18.25,0,0,1-2,.62A15.62,15.62,0,0,1,14.06,95Z"/><path class="cls-2" d="M67.12,102.77a2.22,2.22,0,0,1-.37,0l-3.4,6.3s5.61-.27,6.43-1.54l2.82-5.73A40.85,40.85,0,0,1,67.12,102.77Z"/><rect class="cls-2" x="57.65" y="105.28" width="7.52" height="2.03" transform="translate(-60.95 116.11) rotate(-64.57)"/><path class="cls-4" d="M45.5,5.67a70.94,70.94,0,0,1,8.12-.08,79,79,0,0,1,8.1.77,65.35,65.35,0,0,1,8,1.69A43.11,43.11,0,0,1,77.47,11a27.34,27.34,0,0,1,6.94,4.75,19.06,19.06,0,0,1,4.77,7.13A18.48,18.48,0,0,1,89.77,25,12.25,12.25,0,0,1,90,27.18a15.26,15.26,0,0,1-.55,4.27,12,12,0,0,1-1.83,3.87A7.75,7.75,0,0,1,84.4,38a10.92,10.92,0,0,0,3.23-6.87,17,17,0,0,0,.05-3.77,10,10,0,0,0-.31-1.78l-.27-.89-.32-.88a17.36,17.36,0,0,0-4.12-6.21,22.38,22.38,0,0,0-3-2.43,29.39,29.39,0,0,0-3.31-2,59.43,59.43,0,0,0-15-5.15A114.34,114.34,0,0,0,45.5,5.67Z"/><path class="cls-4" d="M24.35,50.11l-.9,28.13A35.7,35.7,0,0,0,32.28,84l.95-29.53A38.43,38.43,0,0,1,24.35,50.11Z"/><path class="cls-4" d="M37.47,55.84a21.08,21.08,0,0,0,3.89,1l-1,30.2a13.64,13.64,0,0,1-3.8-1.23Z"/></g></g></svg>