<svg xmlns="http://www.w3.org/2000/svg" viewBox="0 0 67.86 90.44"><defs><style>.cls-1{fill:#f5f1d6;stroke:#000;stroke-miterlimit:10;stroke-width:2px;}</style></defs><g id="Layer_2" data-name="Layer 2"><g id="Layer_2-2" data-name="Layer 2"><path class="cls-1" d="M38.41,67.48a6.42,6.42,0,0,1,2.33,1.41,19.59,19.59,0,0,1,2.84,2.77,25.75,25.75,0,0,1,2.15,2.87,10.49,10.49,0,0,1,.71,1.5A11,11,0,0,1,47,77.76a10.58,10.58,0,0,1,.24,1.78,7.24,7.24,0,0,1-.08,1.7,9.22,9.22,0,0,1-.88,3c-.42.85-.83,1.61-1.2,2.27a6.15,6.15,0,0,1-1.77,1.64,7,7,0,0,1-2.74,1,21.16,21.16,0,0,1-5.75.2,48.09,48.09,0,0,1-7.09-1.16,56.38,56.38,0,0,1-7.63-2.42,49.89,49.89,0,0,1-7.34-3.58,37.91,37.91,0,0,1-6.23-4.6,21.66,21.66,0,0,1-4.36-5.42A7.87,7.87,0,0,1,1,67.79a9.29,9.29,0,0,1,1-3.63A18.79,18.79,0,0,1,3.6,61.83a22.91,22.91,0,0,1,2-2.19,27.56,27.56,0,0,1,2.11-1.86,22.72,22.72,0,0,1,2.06-1.46,13.27,13.27,0,0,1,2.07-.79,8.74,8.74,0,0,1,1.82-.3,7.67,7.67,0,0,1,1.73.12,17.71,17.71,0,0,1,1.77.45c.71.23,1.43.49,2.17.81s1.47.64,2.18,1,1.38.7,2,1.08,1.19.74,1.68,1.09c.22.17.42.32.61.48a1.22,1.22,0,0,1,.38.51,1.14,1.14,0,0,1,0,.69,4,4,0,0,1-.45,1,9.65,9.65,0,0,1-1.51,1.92,5.63,5.63,0,0,1-1.69,1.13A6.06,6.06,0,0,1,20.6,66a10,10,0,0,1-2.32-.14,16.45,16.45,0,0,1-2-.47,20.19,20.19,0,0,0-2.9-.76,2.18,2.18,0,0,0-2,.49c-.41.5-.27,1.27.44,2.31a19.73,19.73,0,0,0,3.08,3.39,40.85,40.85,0,0,0,4.69,3.63,45.81,45.81,0,0,0,5.09,3,55,55,0,0,0,5.12,2.14A40.19,40.19,0,0,0,34.56,81a15.76,15.76,0,0,0,3.69.42c1,0,1.64-.29,1.9-.77.55-.9-.57-2.77-3.06-5.7a5,5,0,0,1-.48-6.44Q37.41,67.19,38.41,67.48Z"/><path class="cls-1" d="M49.11,56C49,57.72,49,59.4,49,61a8,8,0,0,1,0,1.48,3,3,0,0,1-.26.93,1.89,1.89,0,0,1-.43.57,3.92,3.92,0,0,1-.5.39,9.71,9.71,0,0,1-1.24.77l-1.6.89a3.93,3.93,0,0,1-1.64.47,4.11,4.11,0,0,1-2-.5c-1.18-.5-2.57-1.12-4.16-1.88s-3.29-1.6-5.09-2.53-3.65-1.91-5.54-3-3.73-2.11-5.55-3.2-3.51-2.18-5.13-3.24-3.05-2.07-4.34-3c-.7-.59-1-1.13-.93-1.6a3.76,3.76,0,0,1,1.22-1.8,28,28,0,0,1,2.52-2.26,18.41,18.41,0,0,1,2.82-1.88,5.45,5.45,0,0,1,2.1-.67,2.31,2.31,0,0,1,1.54.79q1.92,1.81,4.43,3.84c1.67,1.36,3.43,2.73,5.29,4.13s3.74,2.75,5.68,4.08S40,56.4,41.81,57.58a28.28,28.28,0,0,1,.53-3.4c.22-1,.5-2.14.86-3.33a3.54,3.54,0,0,1,.73-1.49,2.12,2.12,0,0,1,1.32-.53,7.76,7.76,0,0,1,1.66-.06,8.47,8.47,0,0,1,1.5.21,1.88,1.88,0,0,1,1.1.37c.15.17.17.66.07,1.47C49.38,52.49,49.22,54.2,49.11,56Z"/><path class="cls-1" d="M33.75,22.35a2.07,2.07,0,0,1,1.23.78q1,1.28,2.37,2.88t3.07,3.33c1.11,1.15,2.28,2.32,3.52,3.49s2.48,2.33,3.71,3.46,2.43,2.17,3.58,3.15,2.2,1.85,3.13,2.6a1.6,1.6,0,0,1,.55.87,2,2,0,0,1-.51,1.2c-.39.53-.78,1-1.15,1.5A8.7,8.7,0,0,1,52,46.87a2.11,2.11,0,0,1-1.33.64A3,3,0,0,1,49.13,47q-1.27-.71-3.21-1.92c-1.3-.82-2.69-1.73-4.19-2.74s-3-2.1-4.64-3.27S34,36.71,32.48,35.58s-2.83-2.23-4.08-3.29-2.32-2-3.21-2.83A1.54,1.54,0,0,1,24.65,28a4,4,0,0,1,1.42-1.6,25.83,25.83,0,0,1,2.74-1.91,27.45,27.45,0,0,1,2.93-1.55A4.77,4.77,0,0,1,33.75,22.35Z"/><path class="cls-1" d="M58.87,18.68c.94-.11,1.85-.23,2.72-.36s1.68-.27,2.42-.41,1.36-.29,1.87-.43.82-.16.93,0a1.86,1.86,0,0,1-.12,1.15,8.57,8.57,0,0,1-.4,1.17c-.17.43-.37.85-.57,1.24a7,7,0,0,1-1,1.77,3.72,3.72,0,0,1-1.93,1.21l-1.46.42c-.63.17-1.33.35-2.12.53s-1.65.37-2.55.56-1.8.33-2.67.44c1,1.07,2,2,2.93,2.91s1.76,1.66,2.52,2.37a.86.86,0,0,1,.46.6,1.27,1.27,0,0,1-.2.77,5.12,5.12,0,0,1-.71,1c-.32.36-.66.75-1,1.19a5.75,5.75,0,0,1-2,1.7,2.16,2.16,0,0,1-2-.36c-.73-.44-1.66-1.06-2.79-1.85s-2.35-1.69-3.66-2.68-2.67-2.05-4.06-3.16-2.72-2.23-4-3.33S36.91,23,35.83,22s-2-1.9-2.73-2.68a1.3,1.3,0,0,1-.28-1.41,4.25,4.25,0,0,1,1.51-1.42,28.55,28.55,0,0,1,2.89-1.78,27.46,27.46,0,0,1,3-1.4c.5-.2.91-.34,1.24-.45a2.81,2.81,0,0,1,.83-.13.85.85,0,0,1,.55.21,2.26,2.26,0,0,1,.43.54,31.42,31.42,0,0,0,2.16,3c.87,1.08,1.85,2.25,3,3.53-.09-1.45-.12-3-.06-4.61s.18-3.19.35-4.7.38-2.9.61-4.18.46-2.34.62-3.16a1.85,1.85,0,0,1,.7-1.24,5,5,0,0,1,1.77-.74A10.37,10.37,0,0,1,54.56,1c.66,0,1.33,0,2,0a1.66,1.66,0,0,1,1,.52A2.17,2.17,0,0,1,57.85,3a27.45,27.45,0,0,1-.35,3c-.19,1.23-.4,2.55-.59,4s-.38,2.92-.53,4.47-.23,3-.26,4.44C57,18.87,57.92,18.79,58.87,18.68Z"/></g></g></svg>