<svg width="544" height="174" viewBox="0 0 544 174" fill="none" xmlns="http://www.w3.org/2000/svg">
<g clip-path="url(#clip0_18_31)">
<path d="M464.342 2.41525C282.873 33.2032 85.3723 10.6181 26.396 2.52504C21.4417 1.8492 16.4195 3.13351 12.3947 6.10555C8.36992 9.07759 5.65924 13.5035 4.8377 18.4445C-0.281825 49.3109 -4.25846 113.585 35.226 170.581C35.226 170.581 99.9794 132.547 259.107 129.802C333.473 128.61 427.723 138.993 464.373 143.479C468.563 143.992 472.791 142.883 476.192 140.379C479.594 137.875 481.913 134.165 482.675 130.006C485.071 116.957 488.531 99.2335 490.91 91.7522C494.918 79.2049 536.532 51.3341 536.532 51.3341L485.321 52.9025L480.029 13.9431C479.782 12.142 479.176 10.4089 478.248 8.84696C477.319 7.285 476.086 5.92598 474.623 4.85065C473.16 3.77531 471.495 3.0056 469.729 2.58723C467.963 2.16886 466.131 2.11038 464.342 2.41525Z" fill="white"/>
<path d="M464.436 2.94858L445.038 5.95993L435.331 7.52835L430.541 8.21845L425.672 8.84582L406.149 11.3867L396.411 12.6728L386.704 13.7393C373.694 15.1195 360.668 16.6722 347.564 17.676L327.962 19.3699L308.33 20.5776C282.153 22.2244 255.913 22.7263 229.674 22.6165L210.01 22.2401C203.45 22.2401 196.89 21.895 190.346 21.5657L170.651 20.6717L151.018 19.3385C124.857 17.4721 98.7739 14.7587 72.7379 11.4964L53.2305 8.90855C46.7489 7.9675 40.2516 7.12056 33.7857 6.10109L28.9167 5.36394L26.6152 4.98752C25.7855 4.86204 25.1592 4.81499 24.4234 4.73657C21.5054 4.56758 18.5933 5.15646 15.9691 6.44614C14.6727 7.10551 13.4588 7.91627 12.3526 8.8615C11.2713 9.83662 10.3096 10.937 9.48755 12.1395C8.65501 13.3449 7.99129 14.6589 7.51489 16.0448L7.1548 17.0957L6.91996 18.1622C6.73209 18.8523 6.6225 19.7306 6.48159 20.4991C4.29605 33.3259 3.24823 46.3213 3.35039 59.3331C3.43302 72.3484 4.72236 85.3279 7.20177 98.1043C8.44788 104.454 10.0155 110.735 11.8986 116.925L14.8732 126.242L18.4585 135.276C23.6132 147.146 29.9605 158.461 37.4022 169.044L33.8953 168.26C36.6194 166.691 39.2183 165.405 41.9268 164.119C44.6353 162.833 47.3125 161.625 50.0523 160.527L54.1385 158.802L58.2717 157.234C61.0272 156.167 63.7827 155.116 66.5694 154.175C77.6852 150.176 89.0202 147.008 100.402 143.918C123.21 138.109 146.366 133.767 169.727 130.916L178.463 129.755L187.23 128.877C193.086 128.312 198.925 127.685 204.781 127.198L222.316 125.975C225.243 125.803 228.171 125.552 231.099 125.41L239.897 125.081C263.381 123.858 286.944 123.968 310.349 124.705C333.755 125.442 357.271 127.042 380.614 129.033C403.957 131.025 427.237 133.503 450.471 136.405L459.176 137.534C461.768 137.964 464.381 138.257 467.004 138.413C469.045 138.312 471.025 137.68 472.749 136.58C474.473 135.48 475.881 133.95 476.836 132.139C477.308 131.214 477.665 130.234 477.9 129.222L478.793 124.971L480.64 116.423C481.877 110.667 483.176 104.927 484.695 99.1709C485.462 96.285 486.26 93.4618 487.278 90.4191C488.634 87.2569 490.578 84.3825 493.008 81.9497C497.175 77.59 501.665 73.5528 506.441 69.8729C515.741 62.517 525.385 55.8512 535.295 49.4835L536.61 53.577L510.981 53.7025C502.449 53.7025 493.901 53.7966 485.368 53.9378H484.35L484.241 52.9497C482.988 42.8647 481.846 32.7642 480.515 22.6949L479.528 15.1352C479.407 13.9106 479.161 12.7018 478.793 11.5278C478.419 10.3899 477.892 9.30821 477.227 8.31256C475.814 6.30396 473.865 4.7352 471.602 3.7864C469.34 2.8376 466.856 2.54721 464.436 2.94858ZM464.248 1.86637C466.873 1.41945 469.57 1.71899 472.033 2.73097C474.496 3.74294 476.626 5.42675 478.182 7.59108C478.953 8.67893 479.575 9.86592 480.029 11.12C480.424 12.3715 480.697 13.6584 480.844 14.9626L481.924 22.5067C483.333 32.5759 484.93 42.6138 486.417 52.6673L485.337 51.7577C493.869 51.4126 502.402 50.9421 510.919 50.5029L536.501 49.1384L544.047 48.7306L537.785 53.232C528.391 60.0389 519.169 67.1909 510.527 74.8134C506.237 78.5186 502.223 82.534 498.519 86.8274C496.919 88.6131 495.638 90.6609 494.73 92.8815C494.01 95.4067 493.384 98.2769 492.805 101.069C491.677 106.715 490.629 112.44 489.674 118.164L488.218 126.791L487.482 131.151C487.134 133.014 486.555 134.827 485.76 136.546C484.099 140.005 481.548 142.957 478.37 145.099C475.191 147.241 471.5 148.496 467.677 148.733C465.92 148.81 464.159 148.732 462.416 148.498L458.08 148.027L449.375 147.117C426.204 144.702 403.017 142.412 379.784 140.671C356.55 138.93 333.207 137.236 309.989 136.327C286.771 135.417 263.585 134.852 240.351 135.746L231.647 135.95C228.735 136.06 225.854 136.248 222.942 136.405L205.548 137.346C199.771 137.754 193.994 138.303 188.201 138.773L179.528 139.495L170.886 140.467C147.809 142.875 124.881 146.54 102.203 151.446C90.9302 154.065 79.6422 156.779 68.636 160.308C65.8493 161.123 63.1251 162.049 60.3853 163.005L56.2834 164.401L52.2442 165.97C46.8944 167.953 41.6666 170.252 36.5881 172.855L34.365 174.016L33.0812 172.071C18.4745 149.885 8.50966 124.963 3.78876 98.8101C-0.855979 72.7593 -1.24198 46.1252 2.64587 19.9502C2.78677 19.1189 2.83374 18.3818 3.05292 17.4407L3.31908 16.1233L3.72613 14.8215C4.26473 13.0695 5.04461 11.4014 6.04322 9.86529C7.02747 8.33797 8.20054 6.94146 9.53452 5.70899C10.8753 4.47552 12.3698 3.42114 13.9808 2.57216C17.2201 0.837745 20.8448 -0.0471315 24.5173 -4.5515e-05C25.4097 -4.5515e-05 26.4117 0.109744 27.2102 0.203848L29.6369 0.470479L34.4433 1.01942C40.9249 1.77226 47.4378 2.36826 53.9194 3.05836L73.4894 4.84636C99.5097 7.05782 125.577 8.5635 151.629 9.97508C177.68 11.3867 203.763 12.2179 229.909 13.1119C255.976 13.5824 282.075 14.2255 308.189 13.9118C360.292 13.5824 412.662 10.6181 464.248 1.86637Z" fill="#1D1D1B"/>
<path d="M142.861 31.4937C132.883 30.7304 122.926 29.758 112.99 28.5764C103.048 27.4315 93.1377 26.1297 83.2431 24.7809C73.3485 23.432 63.4382 21.9577 53.5593 20.2952C43.6803 18.6327 33.8327 16.9388 24.0164 14.9469C34.0049 15.7311 43.9674 16.7088 53.9037 17.8798C63.8296 19.0091 73.7556 20.3266 83.6502 21.6754C93.5448 23.0242 103.455 24.5299 113.318 26.1611C123.182 27.7922 133.076 29.5175 142.861 31.4937Z" fill="#1D1D1B"/>
<path d="M45.2459 150.348C59.3891 142.991 74.1525 136.897 89.3646 132.139C96.9421 129.661 104.645 127.575 112.395 125.646C116.277 124.684 120.181 123.826 124.105 123.073L129.945 121.897L135.863 120.893L141.797 119.999L147.762 119.294C151.728 118.771 155.715 118.389 159.723 118.149C163.746 117.851 167.676 117.694 171.637 117.506C175.598 117.317 179.465 117.192 183.504 117.082C199.333 116.627 215.161 116.345 231.083 117.223V117.631C215.317 118.431 199.52 119.623 183.755 120.768C175.927 121.364 167.958 121.803 160.099 122.556L154.196 123.105C152.239 123.293 150.282 123.591 148.325 123.826L142.47 124.595L136.614 125.536C121.01 128.051 105.559 131.444 90.3353 135.699C75.098 139.916 60.0986 144.953 45.4025 150.787L45.2459 150.348Z" fill="#1D1D1B"/>
</g>
<defs>
<clipPath id="clip0_18_31">
<rect width="544" height="174" fill="white"/>
</clipPath>
</defs>
</svg>
