<svg id="Слой_1" data-name="Слой 1" xmlns="http://www.w3.org/2000/svg" viewBox="0 0 961.41 961.13"><defs><style>.cls-1{fill:#b7d8e1;}</style></defs><path class="cls-1" d="M864.23,97.82a.39.39,0,0,0,.48-.3.4.4,0,1,0-.78-.17A.39.39,0,0,0,864.23,97.82Z" transform="translate(-494.32 -97.02)"/><path class="cls-1" d="M911.19,109.58a2,2,0,1,0,.85-3.93,2,2,0,0,0-.85,3.93Z" transform="translate(-494.32 -97.02)"/><path class="cls-1" d="M958.31,120.84a3.09,3.09,0,1,0-2.38-3.67A3.09,3.09,0,0,0,958.31,120.84Z" transform="translate(-494.32 -97.02)"/><path class="cls-1" d="M1005.41,131.81a3.9,3.9,0,1,0,1.64-7.62,3.9,3.9,0,0,0-1.64,7.62Z" transform="translate(-494.32 -97.02)"/><path class="cls-1" d="M1052.68,142.26a4.16,4.16,0,1,0-3.18-4.94A4.17,4.17,0,0,0,1052.68,142.26Z" transform="translate(-494.32 -97.02)"/><path class="cls-1" d="M1100,152.33a4,4,0,1,0-3.09-4.79A4,4,0,0,0,1100,152.33Z" transform="translate(-494.32 -97.02)"/><path class="cls-1" d="M1147.46,162a3.48,3.48,0,1,0-2.67-4.13A3.49,3.49,0,0,0,1147.46,162Z" transform="translate(-494.32 -97.02)"/><path class="cls-1" d="M1195,171.12a2.39,2.39,0,0,0,2.86-1.84,2.42,2.42,0,1,0-2.86,1.84Z" transform="translate(-494.32 -97.02)"/><path class="cls-1" d="M1242.61,179.87a1,1,0,0,0,1.11-.71A.94.94,0,0,0,1243,178a.94.94,0,0,0-.4,1.83Z" transform="translate(-494.32 -97.02)"/><path class="cls-1" d="M806.35,136.63a2.11,2.11,0,0,0,2.54-1.63,2.14,2.14,0,1,0-2.54,1.63Z" transform="translate(-494.32 -97.02)"/><path class="cls-1" d="M853.25,148.78a4.15,4.15,0,1,0-3.18-4.91A4.14,4.14,0,0,0,853.25,148.78Z" transform="translate(-494.32 -97.02)"/><path class="cls-1" d="M900.15,160.83a6,6,0,1,0-4.62-7.17A6,6,0,0,0,900.15,160.83Z" transform="translate(-494.32 -97.02)"/><path class="cls-1" d="M947.24,172.2a7.24,7.24,0,1,0-5.58-8.6A7.23,7.23,0,0,0,947.24,172.2Z" transform="translate(-494.32 -97.02)"/><path class="cls-1" d="M994.34,183.19a8.06,8.06,0,1,0-6.16-9.57A8,8,0,0,0,994.34,183.19Z" transform="translate(-494.32 -97.02)"/><path class="cls-1" d="M1041.58,193.75a8.45,8.45,0,1,0-6.49-10A8.45,8.45,0,0,0,1041.58,193.75Z" transform="translate(-494.32 -97.02)"/><path class="cls-1" d="M1089,203.72a8.2,8.2,0,1,0-6.29-9.75A8.18,8.18,0,0,0,1089,203.72Z" transform="translate(-494.32 -97.02)"/><path class="cls-1" d="M1136.39,213.37a7.65,7.65,0,1,0-5.86-9.09A7.66,7.66,0,0,0,1136.39,213.37Z" transform="translate(-494.32 -97.02)"/><path class="cls-1" d="M1184,222.38a6.45,6.45,0,1,0-4.94-7.65A6.44,6.44,0,0,0,1184,222.38Z" transform="translate(-494.32 -97.02)"/><path class="cls-1" d="M1231.6,231a4.82,4.82,0,1,0-3.7-5.73A4.84,4.84,0,0,0,1231.6,231Z" transform="translate(-494.32 -97.02)"/><path class="cls-1" d="M1279.31,239.35a3,3,0,1,0-2.28-3.51A3,3,0,0,0,1279.31,239.35Z" transform="translate(-494.32 -97.02)"/><path class="cls-1" d="M1327.12,247.17a.51.51,0,0,0,.62-.4.54.54,0,0,0-.39-.66.57.57,0,0,0-.65.43A.54.54,0,0,0,1327.12,247.17Z" transform="translate(-494.32 -97.02)"/><path class="cls-1" d="M702,161.61a.12.12,0,0,0,.15-.11.13.13,0,0,0-.09-.17.15.15,0,0,0-.17.11A.13.13,0,0,0,702,161.61Z" transform="translate(-494.32 -97.02)"/><path class="cls-1" d="M748.68,174.54a3,3,0,0,0,3.52-2.25,3,3,0,1,0-3.52,2.25Z" transform="translate(-494.32 -97.02)"/><path class="cls-1" d="M795.43,187.36a5.64,5.64,0,1,0-4.32-6.69A5.64,5.64,0,0,0,795.43,187.36Z" transform="translate(-494.32 -97.02)"/><path class="cls-1" d="M842.26,199.79a7.92,7.92,0,1,0-6.06-9.41A7.93,7.93,0,0,0,842.26,199.79Z" transform="translate(-494.32 -97.02)"/><path class="cls-1" d="M889.17,211.81a9.8,9.8,0,1,0-7.51-11.63A9.81,9.81,0,0,0,889.17,211.81Z" transform="translate(-494.32 -97.02)"/><path class="cls-1" d="M936.2,223.46a11.27,11.27,0,1,0-8.68-13.41A11.29,11.29,0,0,0,936.2,223.46Z" transform="translate(-494.32 -97.02)"/><path class="cls-1" d="M983.28,234.57a12.22,12.22,0,1,0-9.36-14.52A12.22,12.22,0,0,0,983.28,234.57Z" transform="translate(-494.32 -97.02)"/><path class="cls-1" d="M1030.51,245.14a12.61,12.61,0,1,0-9.69-15A12.63,12.63,0,0,0,1030.51,245.14Z" transform="translate(-494.32 -97.02)"/><path class="cls-1" d="M1077.9,255.07a12.34,12.34,0,1,0-9.47-14.66A12.35,12.35,0,0,0,1077.9,255.07Z" transform="translate(-494.32 -97.02)"/><path class="cls-1" d="M1125.35,264.62a11.68,11.68,0,1,0-9-13.88A11.68,11.68,0,0,0,1125.35,264.62Z" transform="translate(-494.32 -97.02)"/><path class="cls-1" d="M1172.94,273.5a10.34,10.34,0,1,0-7.94-12.29A10.34,10.34,0,0,0,1172.94,273.5Z" transform="translate(-494.32 -97.02)"/><path class="cls-1" d="M1220.62,282a8.59,8.59,0,1,0-6.58-10.2A8.58,8.58,0,0,0,1220.62,282Z" transform="translate(-494.32 -97.02)"/><path class="cls-1" d="M1268.38,290.08a6.45,6.45,0,1,0-5-7.66A6.44,6.44,0,0,0,1268.38,290.08Z" transform="translate(-494.32 -97.02)"/><path class="cls-1" d="M1316.22,297.77a3.89,3.89,0,1,0-3-4.62A3.87,3.87,0,0,0,1316.22,297.77Z" transform="translate(-494.32 -97.02)"/><path class="cls-1" d="M1364.13,305.2a1.06,1.06,0,0,0,1.27-.82,1.07,1.07,0,0,0-2.09-.45A1.06,1.06,0,0,0,1364.13,305.2Z" transform="translate(-494.32 -97.02)"/><path class="cls-1" d="M691.19,211.67a3,3,0,1,0-2.28-3.52A3,3,0,0,0,691.19,211.67Z" transform="translate(-494.32 -97.02)"/><path class="cls-1" d="M737.81,225a6.16,6.16,0,1,0-4.73-7.33A6.18,6.18,0,0,0,737.81,225Z" transform="translate(-494.32 -97.02)"/><path class="cls-1" d="M784.53,238a9,9,0,1,0-6.89-10.68A9,9,0,0,0,784.53,238Z" transform="translate(-494.32 -97.02)"/><path class="cls-1" d="M831.31,250.64a11.54,11.54,0,1,0-8.85-13.72A11.54,11.54,0,0,0,831.31,250.64Z" transform="translate(-494.32 -97.02)"/><path class="cls-1" d="M878.19,262.81a13.55,13.55,0,1,0-10.39-16.12A13.58,13.58,0,0,0,878.19,262.81Z" transform="translate(-494.32 -97.02)"/><path class="cls-1" d="M925.19,274.57a15.17,15.17,0,1,0-11.67-18A15.16,15.16,0,0,0,925.19,274.57Z" transform="translate(-494.32 -97.02)"/><path class="cls-1" d="M972.21,285.94a16.38,16.38,0,1,0-12.53-19.46A16.4,16.4,0,0,0,972.21,285.94Z" transform="translate(-494.32 -97.02)"/><path class="cls-1" d="M1019.44,296.53a16.78,16.78,0,1,0-12.84-19.94A16.81,16.81,0,0,0,1019.44,296.53Z" transform="translate(-494.32 -97.02)"/><path class="cls-1" d="M1066.83,306.45a16.51,16.51,0,1,0-12.68-19.62A16.51,16.51,0,0,0,1066.83,306.45Z" transform="translate(-494.32 -97.02)"/><path class="cls-1" d="M1114.31,315.87a15.7,15.7,0,1,0-12-18.67A15.71,15.71,0,0,0,1114.31,315.87Z" transform="translate(-494.32 -97.02)"/><path class="cls-1" d="M1161.93,324.61A14.23,14.23,0,1,0,1151,307.7,14.23,14.23,0,0,0,1161.93,324.61Z" transform="translate(-494.32 -97.02)"/><path class="cls-1" d="M1209.66,332.83a12.2,12.2,0,1,0-9.36-14.51A12.2,12.2,0,0,0,1209.66,332.83Z" transform="translate(-494.32 -97.02)"/><path class="cls-1" d="M1257.49,340.66A9.79,9.79,0,1,0,1250,329,9.79,9.79,0,0,0,1257.49,340.66Z" transform="translate(-494.32 -97.02)"/><path class="cls-1" d="M1305.35,348.22a7.11,7.11,0,1,0-5.44-8.45A7.12,7.12,0,0,0,1305.35,348.22Z" transform="translate(-494.32 -97.02)"/><path class="cls-1" d="M1353.32,355.41a4,4,0,1,0-3.1-4.8A4,4,0,0,0,1353.32,355.41Z" transform="translate(-494.32 -97.02)"/><path class="cls-1" d="M1401.3,362.45a.82.82,0,0,0,1-.63.8.8,0,0,0-1.56-.33A.81.81,0,0,0,1401.3,362.45Z" transform="translate(-494.32 -97.02)"/><path class="cls-1" d="M633.84,248a2.14,2.14,0,1,0-1.63-2.54A2.14,2.14,0,0,0,633.84,248Z" transform="translate(-494.32 -97.02)"/><path class="cls-1" d="M680.43,261.59a5.63,5.63,0,1,0-4.33-6.68A5.61,5.61,0,0,0,680.43,261.59Z" transform="translate(-494.32 -97.02)"/><path class="cls-1" d="M727,275.08a9,9,0,1,0-6.9-10.69A9,9,0,0,0,727,275.08Z" transform="translate(-494.32 -97.02)"/><path class="cls-1" d="M773.68,288.3a12.09,12.09,0,1,0-9.26-14.37A12.12,12.12,0,0,0,773.68,288.3Z" transform="translate(-494.32 -97.02)"/><path class="cls-1" d="M820.44,301.1a14.76,14.76,0,1,0-11.32-17.54A14.78,14.78,0,0,0,820.44,301.1Z" transform="translate(-494.32 -97.02)"/><path class="cls-1" d="M867.24,313.64a17.16,17.16,0,1,0-13.17-20.4A17.19,17.19,0,0,0,867.24,313.64Z" transform="translate(-494.32 -97.02)"/><path class="cls-1" d="M914.15,325.82A19.19,19.19,0,1,0,899.4,303,19.18,19.18,0,0,0,914.15,325.82Z" transform="translate(-494.32 -97.02)"/><path class="cls-1" d="M961.14,337.31a20.54,20.54,0,1,0-15.72-24.39A20.52,20.52,0,0,0,961.14,337.31Z" transform="translate(-494.32 -97.02)"/><path class="cls-1" d="M1008.37,347.91a20.94,20.94,0,1,0-16-24.88A20.93,20.93,0,0,0,1008.37,347.91Z" transform="translate(-494.32 -97.02)"/><path class="cls-1" d="M1055.73,358a20.81,20.81,0,1,0-16-24.72A20.81,20.81,0,0,0,1055.73,358Z" transform="translate(-494.32 -97.02)"/><path class="cls-1" d="M1103.27,367.1a19.73,19.73,0,1,0-15.14-23.44A19.73,19.73,0,0,0,1103.27,367.1Z" transform="translate(-494.32 -97.02)"/><path class="cls-1" d="M1151,375.6a18,18,0,1,0-13.79-21.37A18,18,0,0,0,1151,375.6Z" transform="translate(-494.32 -97.02)"/><path class="cls-1" d="M1198.74,383.56a15.71,15.71,0,1,0-12-18.66A15.71,15.71,0,0,0,1198.74,383.56Z" transform="translate(-494.32 -97.02)"/><path class="cls-1" d="M1246.61,391.13a13,13,0,1,0-10-15.48A13,13,0,0,0,1246.61,391.13Z" transform="translate(-494.32 -97.02)"/><path class="cls-1" d="M1294.57,398.29A9.93,9.93,0,1,0,1287,386.5,9.94,9.94,0,0,0,1294.57,398.29Z" transform="translate(-494.32 -97.02)"/><path class="cls-1" d="M1342.53,405.46a6.84,6.84,0,1,0-5.25-8.12A6.83,6.83,0,0,0,1342.53,405.46Z" transform="translate(-494.32 -97.02)"/><path class="cls-1" d="M1390.57,412.23a3.34,3.34,0,1,0-2.55-4A3.32,3.32,0,0,0,1390.57,412.23Z" transform="translate(-494.32 -97.02)"/><path class="cls-1" d="M576.72,283.4a.39.39,0,0,0,.47-.31.4.4,0,0,0-.3-.47.41.41,0,0,0-.48.31A.4.4,0,0,0,576.72,283.4Z" transform="translate(-494.32 -97.02)"/><path class="cls-1" d="M623.23,297.28a4.16,4.16,0,1,0-3.19-4.95A4.14,4.14,0,0,0,623.23,297.28Z" transform="translate(-494.32 -97.02)"/><path class="cls-1" d="M669.76,311.14a7.92,7.92,0,1,0-6.06-9.41A7.93,7.93,0,0,0,669.76,311.14Z" transform="translate(-494.32 -97.02)"/><path class="cls-1" d="M716.3,324.87a11.54,11.54,0,1,0-8.85-13.72A11.53,11.53,0,0,0,716.3,324.87Z" transform="translate(-494.32 -97.02)"/><path class="cls-1" d="M762.93,338.22a14.76,14.76,0,1,0-11.31-17.55A14.77,14.77,0,0,0,762.93,338.22Z" transform="translate(-494.32 -97.02)"/><path class="cls-1" d="M809.57,351.55a18,18,0,1,0-13.79-21.37A18,18,0,0,0,809.57,351.55Z" transform="translate(-494.32 -97.02)"/><path class="cls-1" d="M856.28,364.5a20.79,20.79,0,1,0-15.93-24.72A20.8,20.8,0,0,0,856.28,364.5Z" transform="translate(-494.32 -97.02)"/><path class="cls-1" d="M903.14,376.93a23.08,23.08,0,1,0-17.71-27.44A23.06,23.06,0,0,0,903.14,376.93Z" transform="translate(-494.32 -97.02)"/><path class="cls-1" d="M950.1,388.57a24.56,24.56,0,1,0-18.82-29.2A24.57,24.57,0,0,0,950.1,388.57Z" transform="translate(-494.32 -97.02)"/><path class="cls-1" d="M997.28,399.4a25.22,25.22,0,1,0-19.35-30A25.22,25.22,0,0,0,997.28,399.4Z" transform="translate(-494.32 -97.02)"/><path class="cls-1" d="M1044.7,409.21a24.82,24.82,0,1,0-19.06-29.51A24.83,24.83,0,0,0,1044.7,409.21Z" transform="translate(-494.32 -97.02)"/><path class="cls-1" d="M1092.26,418.23a23.62,23.62,0,1,0-18.13-28.09A23.61,23.61,0,0,0,1092.26,418.23Z" transform="translate(-494.32 -97.02)"/><path class="cls-1" d="M1140,426.43a21.6,21.6,0,1,0-16.58-25.67A21.6,21.6,0,0,0,1140,426.43Z" transform="translate(-494.32 -97.02)"/><path class="cls-1" d="M1187.86,434a18.94,18.94,0,1,0-14.51-22.51A18.95,18.95,0,0,0,1187.86,434Z" transform="translate(-494.32 -97.02)"/><path class="cls-1" d="M1235.83,441.19a15.84,15.84,0,1,0-12.16-18.83A15.83,15.83,0,0,0,1235.83,441.19Z" transform="translate(-494.32 -97.02)"/><path class="cls-1" d="M1283.81,448.22a12.61,12.61,0,1,0-9.67-15A12.62,12.62,0,0,0,1283.81,448.22Z" transform="translate(-494.32 -97.02)"/><path class="cls-1" d="M1331.86,455a9.12,9.12,0,1,0-7-10.85A9.12,9.12,0,0,0,1331.86,455Z" transform="translate(-494.32 -97.02)"/><path class="cls-1" d="M1379.92,461.66a5.5,5.5,0,1,0-4.22-6.55A5.52,5.52,0,0,0,1379.92,461.66Z" transform="translate(-494.32 -97.02)"/><path class="cls-1" d="M1428.06,468.05a1.62,1.62,0,0,0,.68-3.16,1.62,1.62,0,1,0-.68,3.16Z" transform="translate(-494.32 -97.02)"/><path class="cls-1" d="M566.19,332.31a2,2,0,1,0-1.56-2.41A2,2,0,0,0,566.19,332.31Z" transform="translate(-494.32 -97.02)"/><path class="cls-1" d="M612.64,346.43a6,6,0,1,0-4.62-7.18A6,6,0,0,0,612.64,346.43Z" transform="translate(-494.32 -97.02)"/><path class="cls-1" d="M659.17,360.3a9.8,9.8,0,1,0-7.51-11.65A9.8,9.8,0,0,0,659.17,360.3Z" transform="translate(-494.32 -97.02)"/><path class="cls-1" d="M705.68,374.15a13.55,13.55,0,1,0-10.38-16.1A13.55,13.55,0,0,0,705.68,374.15Z" transform="translate(-494.32 -97.02)"/><path class="cls-1" d="M752.23,387.9a17.18,17.18,0,1,0-13.16-20.42A17.19,17.19,0,0,0,752.23,387.9Z" transform="translate(-494.32 -97.02)"/><path class="cls-1" d="M798.78,401.63a20.8,20.8,0,1,0-15.94-24.72A20.82,20.82,0,0,0,798.78,401.63Z" transform="translate(-494.32 -97.02)"/><path class="cls-1" d="M845.43,414.85a23.9,23.9,0,1,0-18.31-28.4A23.91,23.91,0,0,0,845.43,414.85Z" transform="translate(-494.32 -97.02)"/><path class="cls-1" d="M892.19,427.77A26.7,26.7,0,1,0,871.68,396,26.68,26.68,0,0,0,892.19,427.77Z" transform="translate(-494.32 -97.02)"/><path class="cls-1" d="M939.06,439.81a28.59,28.59,0,1,0-21.9-34A28.59,28.59,0,0,0,939.06,439.81Z" transform="translate(-494.32 -97.02)"/><path class="cls-1" d="M986.21,450.78a29.39,29.39,0,1,0-22.52-34.91A29.41,29.41,0,0,0,986.21,450.78Z" transform="translate(-494.32 -97.02)"/><path class="cls-1" d="M1033.63,460.59a29,29,0,1,0-22.26-34.45A29,29,0,0,0,1033.63,460.59Z" transform="translate(-494.32 -97.02)"/><path class="cls-1" d="M1081.27,469.21a27.38,27.38,0,1,0-21-32.54A27.36,27.36,0,0,0,1081.27,469.21Z" transform="translate(-494.32 -97.02)"/><path class="cls-1" d="M1129.12,476.92a24.83,24.83,0,1,0-19-29.52A24.85,24.85,0,0,0,1129.12,476.92Z" transform="translate(-494.32 -97.02)"/><path class="cls-1" d="M1177.05,484.21a21.87,21.87,0,1,0-16.78-26A21.87,21.87,0,0,0,1177.05,484.21Z" transform="translate(-494.32 -97.02)"/><path class="cls-1" d="M1225.1,491A18.39,18.39,0,1,0,1211,469.14,18.39,18.39,0,0,0,1225.1,491Z" transform="translate(-494.32 -97.02)"/><path class="cls-1" d="M1273.16,497.64a14.76,14.76,0,1,0-11.3-17.54A14.76,14.76,0,0,0,1273.16,497.64Z" transform="translate(-494.32 -97.02)"/><path class="cls-1" d="M1321.25,504.28a11.13,11.13,0,1,0-8.54-13.23A11.14,11.14,0,0,0,1321.25,504.28Z" transform="translate(-494.32 -97.02)"/><path class="cls-1" d="M1369.36,510.67a7.24,7.24,0,1,0-5.53-8.61A7.24,7.24,0,0,0,1369.36,510.67Z" transform="translate(-494.32 -97.02)"/><path class="cls-1" d="M1417.5,517.06a3.35,3.35,0,1,0-2.56-4A3.35,3.35,0,0,0,1417.5,517.06Z" transform="translate(-494.32 -97.02)"/><path class="cls-1" d="M555.77,380.67a3.09,3.09,0,1,0-2.38-3.69A3.09,3.09,0,0,0,555.77,380.67Z" transform="translate(-494.32 -97.02)"/><path class="cls-1" d="M602.19,394.91a7.24,7.24,0,1,0-5.55-8.61A7.25,7.25,0,0,0,602.19,394.91Z" transform="translate(-494.32 -97.02)"/><path class="cls-1" d="M648.67,409A11.27,11.27,0,1,0,640,395.65,11.26,11.26,0,0,0,648.67,409Z" transform="translate(-494.32 -97.02)"/><path class="cls-1" d="M695.15,423a15.16,15.16,0,1,0-11.62-18A15.14,15.14,0,0,0,695.15,423Z" transform="translate(-494.32 -97.02)"/><path class="cls-1" d="M741.61,437.17a19.2,19.2,0,1,0-14.72-22.81A19.19,19.19,0,0,0,741.61,437.17Z" transform="translate(-494.32 -97.02)"/><path class="cls-1" d="M788.11,451.15a23.08,23.08,0,1,0-17.72-27.42A23.06,23.06,0,0,0,788.11,451.15Z" transform="translate(-494.32 -97.02)"/><path class="cls-1" d="M834.65,464.9a26.71,26.71,0,1,0-20.48-31.74A26.73,26.73,0,0,0,834.65,464.9Z" transform="translate(-494.32 -97.02)"/><path class="cls-1" d="M881.31,478.26a29.94,29.94,0,1,0-23-35.58A29.94,29.94,0,0,0,881.31,478.26Z" transform="translate(-494.32 -97.02)"/><path class="cls-1" d="M928.59,488.44a29.93,29.93,0,1,0-22.93-35.57A30,30,0,0,0,928.59,488.44Z" transform="translate(-494.32 -97.02)"/><path class="cls-1" d="M975.9,498.64A29.94,29.94,0,1,0,953,463.06,30,30,0,0,0,975.9,498.64Z" transform="translate(-494.32 -97.02)"/><path class="cls-1" d="M1023.24,508.83a29.93,29.93,0,1,0-23-35.58A29.94,29.94,0,0,0,1023.24,508.83Z" transform="translate(-494.32 -97.02)"/><path class="cls-1" d="M1070.54,519a29.93,29.93,0,1,0-23-35.58A29.95,29.95,0,0,0,1070.54,519Z" transform="translate(-494.32 -97.02)"/><path class="cls-1" d="M1118.31,527.1a27.78,27.78,0,1,0-21.33-33A27.79,27.79,0,0,0,1118.31,527.1Z" transform="translate(-494.32 -97.02)"/><path class="cls-1" d="M1166.35,533.88A24.28,24.28,0,1,0,1147.72,505,24.31,24.31,0,0,0,1166.35,533.88Z" transform="translate(-494.32 -97.02)"/><path class="cls-1" d="M1214.46,540.39a20.52,20.52,0,1,0-15.77-24.4A20.52,20.52,0,0,0,1214.46,540.39Z" transform="translate(-494.32 -97.02)"/><path class="cls-1" d="M1262.61,546.65A16.5,16.5,0,1,0,1249.94,527,16.52,16.52,0,0,0,1262.61,546.65Z" transform="translate(-494.32 -97.02)"/><path class="cls-1" d="M1310.74,553.05a12.62,12.62,0,1,0-9.68-15A12.63,12.63,0,0,0,1310.74,553.05Z" transform="translate(-494.32 -97.02)"/><path class="cls-1" d="M1358.89,559.3a8.59,8.59,0,1,0-6.57-10.21A8.58,8.58,0,0,0,1358.89,559.3Z" transform="translate(-494.32 -97.02)"/><path class="cls-1" d="M1407.05,565.57a4.57,4.57,0,1,0,1.92-8.93,4.57,4.57,0,0,0-1.92,8.93Z" transform="translate(-494.32 -97.02)"/><path class="cls-1" d="M1455.24,571.67a.41.41,0,0,0,.48-.31.38.38,0,0,0-.32-.45.36.36,0,0,0-.45.29A.38.38,0,0,0,1455.24,571.67Z" transform="translate(-494.32 -97.02)"/><path class="cls-1" d="M545.41,428.75a3.88,3.88,0,1,0-3-4.62A3.88,3.88,0,0,0,545.41,428.75Z" transform="translate(-494.32 -97.02)"/><path class="cls-1" d="M591.83,443a8,8,0,1,0-6.18-9.57A8,8,0,0,0,591.83,443Z" transform="translate(-494.32 -97.02)"/><path class="cls-1" d="M638.28,457.29a12.22,12.22,0,1,0-9.37-14.53A12.22,12.22,0,0,0,638.28,457.29Z" transform="translate(-494.32 -97.02)"/><path class="cls-1" d="M684.7,471.54a16.38,16.38,0,1,0-12.55-19.47A16.38,16.38,0,0,0,684.7,471.54Z" transform="translate(-494.32 -97.02)"/><path class="cls-1" d="M731.14,485.78a20.52,20.52,0,1,0-15.75-24.39A20.51,20.51,0,0,0,731.14,485.78Z" transform="translate(-494.32 -97.02)"/><path class="cls-1" d="M777.61,499.92a24.55,24.55,0,1,0-18.84-29.19A24.57,24.57,0,0,0,777.61,499.92Z" transform="translate(-494.32 -97.02)"/><path class="cls-1" d="M824.06,514.05a28.59,28.59,0,1,0-21.9-34A28.59,28.59,0,0,0,824.06,514.05Z" transform="translate(-494.32 -97.02)"/><path class="cls-1" d="M871.12,525.56a29.93,29.93,0,1,0-23-35.57A29.93,29.93,0,0,0,871.12,525.56Z" transform="translate(-494.32 -97.02)"/><path class="cls-1" d="M918.4,535.74a29.93,29.93,0,1,0-22.93-35.56A29.93,29.93,0,0,0,918.4,535.74Z" transform="translate(-494.32 -97.02)"/><path class="cls-1" d="M965.71,545.94a29.93,29.93,0,1,0-22.94-35.57A29.93,29.93,0,0,0,965.71,545.94Z" transform="translate(-494.32 -97.02)"/><path class="cls-1" d="M1013.05,556.13a29.93,29.93,0,1,0-23-35.57A29.92,29.92,0,0,0,1013.05,556.13Z" transform="translate(-494.32 -97.02)"/><path class="cls-1" d="M1060.36,566.32a29.92,29.92,0,1,0-23-35.57A29.93,29.93,0,0,0,1060.36,566.32Z" transform="translate(-494.32 -97.02)"/><path class="cls-1" d="M1107.66,576.52a29.93,29.93,0,1,0-23-35.58A29.94,29.94,0,0,0,1107.66,576.52Z" transform="translate(-494.32 -97.02)"/><path class="cls-1" d="M1155.82,582.78a25.91,25.91,0,1,0-19.88-30.8A25.89,25.89,0,0,0,1155.82,582.78Z" transform="translate(-494.32 -97.02)"/><path class="cls-1" d="M1204,589a21.87,21.87,0,1,0-16.78-26A21.87,21.87,0,0,0,1204,589Z" transform="translate(-494.32 -97.02)"/><path class="cls-1" d="M1252.16,595.15a17.72,17.72,0,1,0-13.57-21.06A17.73,17.73,0,0,0,1252.16,595.15Z" transform="translate(-494.32 -97.02)"/><path class="cls-1" d="M1300.35,601.28A13.56,13.56,0,1,0,1290,585.16,13.57,13.57,0,0,0,1300.35,601.28Z" transform="translate(-494.32 -97.02)"/><path class="cls-1" d="M1348.5,607.53a9.53,9.53,0,1,0-7.32-11.34A9.54,9.54,0,0,0,1348.5,607.53Z" transform="translate(-494.32 -97.02)"/><path class="cls-1" d="M1396.69,613.65a5.37,5.37,0,1,0-4.08-6.38A5.37,5.37,0,0,0,1396.69,613.65Z" transform="translate(-494.32 -97.02)"/><path class="cls-1" d="M1444.9,619.66a1.08,1.08,0,1,0-.81-1.3A1.09,1.09,0,0,0,1444.9,619.66Z" transform="translate(-494.32 -97.02)"/><path class="cls-1" d="M535.16,476.33a4.16,4.16,0,1,0-3.2-5A4.16,4.16,0,0,0,535.16,476.33Z" transform="translate(-494.32 -97.02)"/><path class="cls-1" d="M581.55,490.73a8.46,8.46,0,1,0-6.47-10.07A8.46,8.46,0,0,0,581.55,490.73Z" transform="translate(-494.32 -97.02)"/><path class="cls-1" d="M628,505a12.62,12.62,0,1,0-9.68-15A12.62,12.62,0,0,0,628,505Z" transform="translate(-494.32 -97.02)"/><path class="cls-1" d="M674.43,519.23a16.77,16.77,0,1,0-12.87-19.94A16.79,16.79,0,0,0,674.43,519.23Z" transform="translate(-494.32 -97.02)"/><path class="cls-1" d="M720.86,533.51a20.94,20.94,0,1,0-16.05-24.9A21,21,0,0,0,720.86,533.51Z" transform="translate(-494.32 -97.02)"/><path class="cls-1" d="M767.27,547.88a25.23,25.23,0,1,0-19.35-30A25.22,25.22,0,0,0,767.27,547.88Z" transform="translate(-494.32 -97.02)"/><path class="cls-1" d="M813.71,562.13a29.38,29.38,0,1,0-22.52-34.91A29.38,29.38,0,0,0,813.71,562.13Z" transform="translate(-494.32 -97.02)"/><path class="cls-1" d="M860.93,572.88a29.93,29.93,0,1,0-23-35.59A29.95,29.95,0,0,0,860.93,572.88Z" transform="translate(-494.32 -97.02)"/><path class="cls-1" d="M908.2,583.06a29.93,29.93,0,1,0-22.93-35.57A29.95,29.95,0,0,0,908.2,583.06Z" transform="translate(-494.32 -97.02)"/><path class="cls-1" d="M955.52,593.25a29.93,29.93,0,1,0-22.94-35.57A29.94,29.94,0,0,0,955.52,593.25Z" transform="translate(-494.32 -97.02)"/><path class="cls-1" d="M1002.85,603.45a29.93,29.93,0,1,0-23-35.58A29.94,29.94,0,0,0,1002.85,603.45Z" transform="translate(-494.32 -97.02)"/><path class="cls-1" d="M1050.16,613.64a29.93,29.93,0,1,0-23-35.58A29.94,29.94,0,0,0,1050.16,613.64Z" transform="translate(-494.32 -97.02)"/><path class="cls-1" d="M1097.47,623.83a29.93,29.93,0,1,0-23-35.58A29.94,29.94,0,0,0,1097.47,623.83Z" transform="translate(-494.32 -97.02)"/><path class="cls-1" d="M1145.46,630.87A26.71,26.71,0,1,0,1125,599.13,26.7,26.7,0,0,0,1145.46,630.87Z" transform="translate(-494.32 -97.02)"/><path class="cls-1" d="M1193.67,636.87a22.42,22.42,0,1,0-17.17-26.65A22.42,22.42,0,0,0,1193.67,636.87Z" transform="translate(-494.32 -97.02)"/><path class="cls-1" d="M1241.85,643a18.25,18.25,0,1,0-14-21.7A18.27,18.27,0,0,0,1241.85,643Z" transform="translate(-494.32 -97.02)"/><path class="cls-1" d="M1290.08,649a14,14,0,1,0-10.71-16.59A14,14,0,0,0,1290.08,649Z" transform="translate(-494.32 -97.02)"/><path class="cls-1" d="M1338.25,655.1a9.8,9.8,0,1,0-7.49-11.65A9.81,9.81,0,0,0,1338.25,655.1Z" transform="translate(-494.32 -97.02)"/><path class="cls-1" d="M1386.44,661.22a5.63,5.63,0,1,0-4.33-6.71A5.63,5.63,0,0,0,1386.44,661.22Z" transform="translate(-494.32 -97.02)"/><path class="cls-1" d="M1434.63,667.34a1.47,1.47,0,1,0-1.13-1.76A1.47,1.47,0,0,0,1434.63,667.34Z" transform="translate(-494.32 -97.02)"/><path class="cls-1" d="M525,523.5a4,4,0,1,0-3.1-4.78A4,4,0,0,0,525,523.5Z" transform="translate(-494.32 -97.02)"/><path class="cls-1" d="M571.42,537.76a8.18,8.18,0,1,0-6.28-9.72A8.17,8.17,0,0,0,571.42,537.76Z" transform="translate(-494.32 -97.02)"/><path class="cls-1" d="M617.87,552a12.35,12.35,0,1,0-9.47-14.67A12.35,12.35,0,0,0,617.87,552Z" transform="translate(-494.32 -97.02)"/><path class="cls-1" d="M664.29,566.29a16.51,16.51,0,1,0-12.65-19.62A16.52,16.52,0,0,0,664.29,566.29Z" transform="translate(-494.32 -97.02)"/><path class="cls-1" d="M710.7,580.67a20.79,20.79,0,1,0-16-24.71A20.8,20.8,0,0,0,710.7,580.67Z" transform="translate(-494.32 -97.02)"/><path class="cls-1" d="M757.16,594.81a24.83,24.83,0,1,0-19-29.51A24.83,24.83,0,0,0,757.16,594.81Z" transform="translate(-494.32 -97.02)"/><path class="cls-1" d="M803.6,609.05a29,29,0,1,0-22.22-34.43A29,29,0,0,0,803.6,609.05Z" transform="translate(-494.32 -97.02)"/><path class="cls-1" d="M850.74,620.19a29.93,29.93,0,1,0-23-35.57A29.93,29.93,0,0,0,850.74,620.19Z" transform="translate(-494.32 -97.02)"/><path class="cls-1" d="M898,630.37a29.93,29.93,0,1,0-22.93-35.56A30,30,0,0,0,898,630.37Z" transform="translate(-494.32 -97.02)"/><path class="cls-1" d="M945.33,640.56a29.93,29.93,0,1,0-23-35.56A29.93,29.93,0,0,0,945.33,640.56Z" transform="translate(-494.32 -97.02)"/><path class="cls-1" d="M992.66,650.76a29.93,29.93,0,1,0-23-35.57A29.93,29.93,0,0,0,992.66,650.76Z" transform="translate(-494.32 -97.02)"/><path class="cls-1" d="M1040,661a29.93,29.93,0,1,0-23-35.57A29.93,29.93,0,0,0,1040,661Z" transform="translate(-494.32 -97.02)"/><path class="cls-1" d="M1087.28,671.14a29.93,29.93,0,1,0-23-35.57A29.93,29.93,0,0,0,1087.28,671.14Z" transform="translate(-494.32 -97.02)"/><path class="cls-1" d="M1135.35,677.79a26.31,26.31,0,1,0-20.16-31.26A26.31,26.31,0,0,0,1135.35,677.79Z" transform="translate(-494.32 -97.02)"/><path class="cls-1" d="M1183.54,683.91a22.14,22.14,0,1,0-17-26.32A22.16,22.16,0,0,0,1183.54,683.91Z" transform="translate(-494.32 -97.02)"/><path class="cls-1" d="M1231.72,690a18,18,0,1,0-13.79-21.35A18,18,0,0,0,1231.72,690Z" transform="translate(-494.32 -97.02)"/><path class="cls-1" d="M1279.91,696.16a13.82,13.82,0,1,0-10.6-16.43A13.83,13.83,0,0,0,1279.91,696.16Z" transform="translate(-494.32 -97.02)"/><path class="cls-1" d="M1328.09,702.28a9.66,9.66,0,1,0-7.4-11.48A9.68,9.68,0,0,0,1328.09,702.28Z" transform="translate(-494.32 -97.02)"/><path class="cls-1" d="M1376.28,708.41a5.5,5.5,0,1,0-4.22-6.54A5.5,5.5,0,0,0,1376.28,708.41Z" transform="translate(-494.32 -97.02)"/><path class="cls-1" d="M1424.49,714.41a1.21,1.21,0,1,0-.91-1.45A1.2,1.2,0,0,0,1424.49,714.41Z" transform="translate(-494.32 -97.02)"/><path class="cls-1" d="M514.92,570.29a3.49,3.49,0,1,0-2.67-4.13A3.48,3.48,0,0,0,514.92,570.29Z" transform="translate(-494.32 -97.02)"/><path class="cls-1" d="M561.34,584.55a7.65,7.65,0,1,0-5.85-9.08A7.66,7.66,0,0,0,561.34,584.55Z" transform="translate(-494.32 -97.02)"/><path class="cls-1" d="M607.82,598.7a11.69,11.69,0,1,0-9-13.89A11.67,11.67,0,0,0,607.82,598.7Z" transform="translate(-494.32 -97.02)"/><path class="cls-1" d="M654.27,612.81a15.7,15.7,0,1,0-12-18.65A15.7,15.7,0,0,0,654.27,612.81Z" transform="translate(-494.32 -97.02)"/><path class="cls-1" d="M700.73,626.94A19.73,19.73,0,1,0,685.6,603.5,19.72,19.72,0,0,0,700.73,626.94Z" transform="translate(-494.32 -97.02)"/><path class="cls-1" d="M747.23,640.93a23.62,23.62,0,1,0-18.11-28A23.62,23.62,0,0,0,747.23,640.93Z" transform="translate(-494.32 -97.02)"/><path class="cls-1" d="M793.74,654.8a27.38,27.38,0,1,0-21-32.52A27.36,27.36,0,0,0,793.74,654.8Z" transform="translate(-494.32 -97.02)"/><path class="cls-1" d="M840.55,667.49a29.93,29.93,0,1,0-23-35.56A29.92,29.92,0,0,0,840.55,667.49Z" transform="translate(-494.32 -97.02)"/><path class="cls-1" d="M887.82,677.67a29.93,29.93,0,1,0-22.93-35.55A29.94,29.94,0,0,0,887.82,677.67Z" transform="translate(-494.32 -97.02)"/><path class="cls-1" d="M935.14,687.86a29.93,29.93,0,1,0-22.95-35.55A29.93,29.93,0,0,0,935.14,687.86Z" transform="translate(-494.32 -97.02)"/><path class="cls-1" d="M982.47,698.06a29.93,29.93,0,1,0-23-35.56A29.91,29.91,0,0,0,982.47,698.06Z" transform="translate(-494.32 -97.02)"/><path class="cls-1" d="M1029.78,708.25a29.93,29.93,0,1,0-23-35.55A29.92,29.92,0,0,0,1029.78,708.25Z" transform="translate(-494.32 -97.02)"/><path class="cls-1" d="M1077.37,717.13a28.58,28.58,0,1,0-21.94-34A28.57,28.57,0,0,0,1077.37,717.13Z" transform="translate(-494.32 -97.02)"/><path class="cls-1" d="M1125.47,723.65a24.83,24.83,0,1,0-19-29.5A24.81,24.81,0,0,0,1125.47,723.65Z" transform="translate(-494.32 -97.02)"/><path class="cls-1" d="M1173.61,730a20.93,20.93,0,1,0-16.08-24.87A20.9,20.9,0,0,0,1173.61,730Z" transform="translate(-494.32 -97.02)"/><path class="cls-1" d="M1221.72,736.43a17,17,0,1,0-13.07-20.25A17.06,17.06,0,0,0,1221.72,736.43Z" transform="translate(-494.32 -97.02)"/><path class="cls-1" d="M1269.89,742.67a13,13,0,1,0-10-15.46A13,13,0,0,0,1269.89,742.67Z" transform="translate(-494.32 -97.02)"/><path class="cls-1" d="M1318,749a9,9,0,1,0-6.89-10.69A9,9,0,0,0,1318,749Z" transform="translate(-494.32 -97.02)"/><path class="cls-1" d="M1366.23,755.07a4.84,4.84,0,1,0-3.7-5.74A4.81,4.81,0,0,0,1366.23,755.07Z" transform="translate(-494.32 -97.02)"/><path class="cls-1" d="M1414.41,761.19a.7.7,0,0,0,.82-.51.68.68,0,0,0-1.32-.29A.69.69,0,0,0,1414.41,761.19Z" transform="translate(-494.32 -97.02)"/><path class="cls-1" d="M505,616.58a2.42,2.42,0,1,0-1.85-2.89A2.43,2.43,0,0,0,505,616.58Z" transform="translate(-494.32 -97.02)"/><path class="cls-1" d="M551.4,630.69a6.44,6.44,0,1,0-4.93-7.66A6.45,6.45,0,0,0,551.4,630.69Z" transform="translate(-494.32 -97.02)"/><path class="cls-1" d="M597.91,644.68A10.33,10.33,0,1,0,590,632.4,10.33,10.33,0,0,0,597.91,644.68Z" transform="translate(-494.32 -97.02)"/><path class="cls-1" d="M644.39,658.67a14.22,14.22,0,1,0-10.91-16.89A14.22,14.22,0,0,0,644.39,658.67Z" transform="translate(-494.32 -97.02)"/><path class="cls-1" d="M690.91,672.54a18,18,0,1,0-13.8-21.36A18,18,0,0,0,690.91,672.54Z" transform="translate(-494.32 -97.02)"/><path class="cls-1" d="M737.46,686.27a21.6,21.6,0,1,0-16.57-25.66A21.58,21.58,0,0,0,737.46,686.27Z" transform="translate(-494.32 -97.02)"/><path class="cls-1" d="M784.09,699.61a24.83,24.83,0,1,0-19-29.49A24.83,24.83,0,0,0,784.09,699.61Z" transform="translate(-494.32 -97.02)"/><path class="cls-1" d="M830.81,712.71a27.78,27.78,0,1,0-21.34-33A27.78,27.78,0,0,0,830.81,712.71Z" transform="translate(-494.32 -97.02)"/><path class="cls-1" d="M877.63,725a29.93,29.93,0,1,0-22.93-35.56A29.94,29.94,0,0,0,877.63,725Z" transform="translate(-494.32 -97.02)"/><path class="cls-1" d="M925,735.18a29.93,29.93,0,1,0-23-35.56A29.92,29.92,0,0,0,925,735.18Z" transform="translate(-494.32 -97.02)"/><path class="cls-1" d="M972.28,745.38a29.93,29.93,0,1,0-23-35.57A29.93,29.93,0,0,0,972.28,745.38Z" transform="translate(-494.32 -97.02)"/><path class="cls-1" d="M1019.87,754.26a28.59,28.59,0,1,0-21.94-34A28.57,28.57,0,0,0,1019.87,754.26Z" transform="translate(-494.32 -97.02)"/><path class="cls-1" d="M1067.75,761.81a25.9,25.9,0,1,0-19.88-30.76A25.88,25.88,0,0,0,1067.75,761.81Z" transform="translate(-494.32 -97.02)"/><path class="cls-1" d="M1115.73,768.87a22.68,22.68,0,1,0-17.39-27A22.67,22.67,0,0,0,1115.73,768.87Z" transform="translate(-494.32 -97.02)"/><path class="cls-1" d="M1163.78,775.66a19.19,19.19,0,1,0-14.72-22.82A19.2,19.2,0,0,0,1163.78,775.66Z" transform="translate(-494.32 -97.02)"/><path class="cls-1" d="M1211.87,782.16A15.43,15.43,0,1,0,1200,763.82,15.42,15.42,0,0,0,1211.87,782.16Z" transform="translate(-494.32 -97.02)"/><path class="cls-1" d="M1260,788.68a11.67,11.67,0,1,0-9-13.87A11.68,11.68,0,0,0,1260,788.68Z" transform="translate(-494.32 -97.02)"/><path class="cls-1" d="M1308.1,795.05a7.77,7.77,0,1,0-6-9.23A7.77,7.77,0,0,0,1308.1,795.05Z" transform="translate(-494.32 -97.02)"/><path class="cls-1" d="M1356.27,801.32a3.75,3.75,0,1,0-2.88-4.46A3.77,3.77,0,0,0,1356.27,801.32Z" transform="translate(-494.32 -97.02)"/><path class="cls-1" d="M495.07,662.43a.94.94,0,0,0,.4-1.83.94.94,0,1,0-.4,1.83Z" transform="translate(-494.32 -97.02)"/><path class="cls-1" d="M541.55,676.43a4.84,4.84,0,1,0-3.69-5.75A4.82,4.82,0,0,0,541.55,676.43Z" transform="translate(-494.32 -97.02)"/><path class="cls-1" d="M588.08,690.3a8.59,8.59,0,1,0-6.58-10.22A8.58,8.58,0,0,0,588.08,690.3Z" transform="translate(-494.32 -97.02)"/><path class="cls-1" d="M634.62,704a12.21,12.21,0,1,0-9.35-14.52A12.24,12.24,0,0,0,634.62,704Z" transform="translate(-494.32 -97.02)"/><path class="cls-1" d="M681.19,717.63a15.7,15.7,0,1,0-12-18.66A15.71,15.71,0,0,0,681.19,717.63Z" transform="translate(-494.32 -97.02)"/><path class="cls-1" d="M727.83,731a18.93,18.93,0,1,0-14.5-22.49A18.94,18.94,0,0,0,727.83,731Z" transform="translate(-494.32 -97.02)"/><path class="cls-1" d="M774.52,744a21.87,21.87,0,1,0-16.75-26A21.87,21.87,0,0,0,774.52,744Z" transform="translate(-494.32 -97.02)"/><path class="cls-1" d="M821.35,756.6a24.28,24.28,0,1,0-18.63-28.86A24.27,24.27,0,0,0,821.35,756.6Z" transform="translate(-494.32 -97.02)"/><path class="cls-1" d="M868.29,768.36a25.91,25.91,0,1,0-19.85-30.77A25.92,25.92,0,0,0,868.29,768.36Z" transform="translate(-494.32 -97.02)"/><path class="cls-1" d="M915.43,779.35A26.7,26.7,0,1,0,895,747.61,26.74,26.74,0,0,0,915.43,779.35Z" transform="translate(-494.32 -97.02)"/><path class="cls-1" d="M962.85,789.14a26.3,26.3,0,1,0-20.2-31.26A26.29,26.29,0,0,0,962.85,789.14Z" transform="translate(-494.32 -97.02)"/><path class="cls-1" d="M1010.47,797.88a24.83,24.83,0,1,0-19.07-29.5A24.8,24.8,0,0,0,1010.47,797.88Z" transform="translate(-494.32 -97.02)"/><path class="cls-1" d="M1058.23,806a22.68,22.68,0,1,0-17.39-27A22.67,22.67,0,0,0,1058.23,806Z" transform="translate(-494.32 -97.02)"/><path class="cls-1" d="M1106.13,813.42a19.87,19.87,0,1,0-15.25-23.61A19.85,19.85,0,0,0,1106.13,813.42Z" transform="translate(-494.32 -97.02)"/><path class="cls-1" d="M1154.1,820.6a16.78,16.78,0,1,0-12.88-19.94A16.79,16.79,0,0,0,1154.1,820.6Z" transform="translate(-494.32 -97.02)"/><path class="cls-1" d="M1202.11,827.5a13.42,13.42,0,1,0-10.3-15.94A13.43,13.43,0,0,0,1202.11,827.5Z" transform="translate(-494.32 -97.02)"/><path class="cls-1" d="M1250.18,834.15a9.79,9.79,0,1,0-7.5-11.64A9.79,9.79,0,0,0,1250.18,834.15Z" transform="translate(-494.32 -97.02)"/><path class="cls-1" d="M1298.25,840.8a6.17,6.17,0,1,0-4.72-7.33A6.15,6.15,0,0,0,1298.25,840.8Z" transform="translate(-494.32 -97.02)"/><path class="cls-1" d="M1346.38,847.19a2.28,2.28,0,1,0-1.74-2.71A2.27,2.27,0,0,0,1346.38,847.19Z" transform="translate(-494.32 -97.02)"/><path class="cls-1" d="M531.76,721.88a2.94,2.94,0,1,0-2.27-3.47A2.95,2.95,0,0,0,531.76,721.88Z" transform="translate(-494.32 -97.02)"/><path class="cls-1" d="M578.35,735.5a6.44,6.44,0,1,0-5-7.63A6.43,6.43,0,0,0,578.35,735.5Z" transform="translate(-494.32 -97.02)"/><path class="cls-1" d="M624.94,749a9.8,9.8,0,1,0-7.51-11.62A9.8,9.8,0,0,0,624.94,749Z" transform="translate(-494.32 -97.02)"/><path class="cls-1" d="M671.57,762.32a13,13,0,1,0-10-15.45A13,13,0,0,0,671.57,762.32Z" transform="translate(-494.32 -97.02)"/><path class="cls-1" d="M718.29,775.25a15.84,15.84,0,1,0-12.14-18.79A15.82,15.82,0,0,0,718.29,775.25Z" transform="translate(-494.32 -97.02)"/><path class="cls-1" d="M765.06,787.93A18.38,18.38,0,1,0,751,766.12,18.37,18.37,0,0,0,765.06,787.93Z" transform="translate(-494.32 -97.02)"/><path class="cls-1" d="M812,800.24a20.53,20.53,0,1,0-15.77-24.38A20.52,20.52,0,0,0,812,800.24Z" transform="translate(-494.32 -97.02)"/><path class="cls-1" d="M858.94,811.73a21.88,21.88,0,1,0-16.76-26A21.87,21.87,0,0,0,858.94,811.73Z" transform="translate(-494.32 -97.02)"/><path class="cls-1" d="M906.15,822.45A22.41,22.41,0,1,0,889,795.85,22.41,22.41,0,0,0,906.15,822.45Z" transform="translate(-494.32 -97.02)"/><path class="cls-1" d="M953.54,832.38a22.14,22.14,0,1,0-17-26.29A22.11,22.11,0,0,0,953.54,832.38Z" transform="translate(-494.32 -97.02)"/><path class="cls-1" d="M1001.1,841.4A20.93,20.93,0,1,0,985,816.54,20.92,20.92,0,0,0,1001.1,841.4Z" transform="translate(-494.32 -97.02)"/><path class="cls-1" d="M1048.77,849.89a19.2,19.2,0,1,0-14.72-22.79A19.22,19.22,0,0,0,1048.77,849.89Z" transform="translate(-494.32 -97.02)"/><path class="cls-1" d="M1096.59,857.72a16.77,16.77,0,1,0-12.87-19.92A16.78,16.78,0,0,0,1096.59,857.72Z" transform="translate(-494.32 -97.02)"/><path class="cls-1" d="M1144.5,865.15a14,14,0,1,0-10.71-16.56A14,14,0,0,0,1144.5,865.15Z" transform="translate(-494.32 -97.02)"/><path class="cls-1" d="M1192.45,872.32a10.87,10.87,0,1,0-8.32-12.89A10.85,10.85,0,0,0,1192.45,872.32Z" transform="translate(-494.32 -97.02)"/><path class="cls-1" d="M1240.44,879.38a7.66,7.66,0,1,0-5.88-9.08A7.65,7.65,0,0,0,1240.44,879.38Z" transform="translate(-494.32 -97.02)"/><path class="cls-1" d="M1288.51,886a4,4,0,1,0-3.09-4.75A4,4,0,0,0,1288.51,886Z" transform="translate(-494.32 -97.02)"/><path class="cls-1" d="M1336.59,892.66a.4.4,0,0,0,.49-.28.42.42,0,0,0-.32-.5.41.41,0,0,0-.49.32A.39.39,0,0,0,1336.59,892.66Z" transform="translate(-494.32 -97.02)"/><path class="cls-1" d="M522.07,766.85a.54.54,0,1,0-.42-.63A.55.55,0,0,0,522.07,766.85Z" transform="translate(-494.32 -97.02)"/><path class="cls-1" d="M568.69,780.31a3.88,3.88,0,1,0-3-4.6A3.89,3.89,0,0,0,568.69,780.31Z" transform="translate(-494.32 -97.02)"/><path class="cls-1" d="M615.31,793.65a7.11,7.11,0,1,0-5.46-8.43A7.09,7.09,0,0,0,615.31,793.65Z" transform="translate(-494.32 -97.02)"/><path class="cls-1" d="M662,806.61a9.93,9.93,0,1,0-7.62-11.79A10,10,0,0,0,662,806.61Z" transform="translate(-494.32 -97.02)"/><path class="cls-1" d="M708.78,819.43a12.62,12.62,0,1,0-9.68-15A12.61,12.61,0,0,0,708.78,819.43Z" transform="translate(-494.32 -97.02)"/><path class="cls-1" d="M755.63,831.71a14.77,14.77,0,1,0-11.31-17.52A14.77,14.77,0,0,0,755.63,831.71Z" transform="translate(-494.32 -97.02)"/><path class="cls-1" d="M802.6,843.63A16.51,16.51,0,1,0,789.91,824,16.51,16.51,0,0,0,802.6,843.63Z" transform="translate(-494.32 -97.02)"/><path class="cls-1" d="M849.63,855A17.71,17.71,0,1,0,836,834,17.73,17.73,0,0,0,849.63,855Z" transform="translate(-494.32 -97.02)"/><path class="cls-1" d="M896.83,865.69a18.25,18.25,0,1,0-14-21.66A18.24,18.24,0,0,0,896.83,865.69Z" transform="translate(-494.32 -97.02)"/><path class="cls-1" d="M944.22,875.63a18,18,0,1,0-13.8-21.35A18,18,0,0,0,944.22,875.63Z" transform="translate(-494.32 -97.02)"/><path class="cls-1" d="M991.73,884.9a17,17,0,1,0-13.09-20.23A17,17,0,0,0,991.73,884.9Z" transform="translate(-494.32 -97.02)"/><path class="cls-1" d="M1039.37,893.53a15.44,15.44,0,1,0-11.84-18.33A15.45,15.45,0,0,0,1039.37,893.53Z" transform="translate(-494.32 -97.02)"/><path class="cls-1" d="M1087.11,901.74a13.42,13.42,0,1,0-10.31-15.93A13.4,13.4,0,0,0,1087.11,901.74Z" transform="translate(-494.32 -97.02)"/><path class="cls-1" d="M1135,909.44a10.87,10.87,0,1,0-8.36-12.9A10.84,10.84,0,0,0,1135,909.44Z" transform="translate(-494.32 -97.02)"/><path class="cls-1" d="M1182.85,916.88a8.06,8.06,0,1,0-6.18-9.55A8.06,8.06,0,0,0,1182.85,916.88Z" transform="translate(-494.32 -97.02)"/><path class="cls-1" d="M1230.82,924.06a5,5,0,1,0-3.82-5.89A5,5,0,0,0,1230.82,924.06Z" transform="translate(-494.32 -97.02)"/><path class="cls-1" d="M1278.82,931a1.62,1.62,0,0,0,1.92-1.23,1.6,1.6,0,1,0-3.12-.68A1.61,1.61,0,0,0,1278.82,931Z" transform="translate(-494.32 -97.02)"/><path class="cls-1" d="M559.09,824.88a1.07,1.07,0,1,0-.83-1.27A1.07,1.07,0,0,0,559.09,824.88Z" transform="translate(-494.32 -97.02)"/><path class="cls-1" d="M605.77,838a4,4,0,1,0-3.08-4.78A4,4,0,0,0,605.77,838Z" transform="translate(-494.32 -97.02)"/><path class="cls-1" d="M652.49,850.9a6.84,6.84,0,1,0-5.26-8.13A6.85,6.85,0,0,0,652.49,850.9Z" transform="translate(-494.32 -97.02)"/><path class="cls-1" d="M699.32,863.33a9.13,9.13,0,1,0-7-10.84A9.11,9.11,0,0,0,699.32,863.33Z" transform="translate(-494.32 -97.02)"/><path class="cls-1" d="M746.2,875.48a11.13,11.13,0,1,0-8.53-13.23A11.15,11.15,0,0,0,746.2,875.48Z" transform="translate(-494.32 -97.02)"/><path class="cls-1" d="M793.23,887.12a12.61,12.61,0,1,0-9.7-15A12.62,12.62,0,0,0,793.23,887.12Z" transform="translate(-494.32 -97.02)"/><path class="cls-1" d="M840.31,898.22a13.55,13.55,0,1,0-10.38-16.09A13.55,13.55,0,0,0,840.31,898.22Z" transform="translate(-494.32 -97.02)"/><path class="cls-1" d="M887.54,908.82a14,14,0,1,0-10.68-16.58A14,14,0,0,0,887.54,908.82Z" transform="translate(-494.32 -97.02)"/><path class="cls-1" d="M934.9,918.87a13.82,13.82,0,1,0-10.63-16.42A13.82,13.82,0,0,0,934.9,918.87Z" transform="translate(-494.32 -97.02)"/><path class="cls-1" d="M982.38,928.29a13,13,0,1,0-10-15.47A13,13,0,0,0,982.38,928.29Z" transform="translate(-494.32 -97.02)"/><path class="cls-1" d="M1030,937.17a11.68,11.68,0,1,0-9-13.88A11.66,11.66,0,0,0,1030,937.17Z" transform="translate(-494.32 -97.02)"/><path class="cls-1" d="M1077.68,945.52a9.79,9.79,0,1,0-7.54-11.64A9.8,9.8,0,0,0,1077.68,945.52Z" transform="translate(-494.32 -97.02)"/><path class="cls-1" d="M1125.44,953.6a7.64,7.64,0,1,0-5.87-9.08A7.65,7.65,0,0,0,1125.44,953.6Z" transform="translate(-494.32 -97.02)"/><path class="cls-1" d="M1173.31,961.19a5,5,0,1,0-3.8-5.91A5,5,0,0,0,1173.31,961.19Z" transform="translate(-494.32 -97.02)"/><path class="cls-1" d="M1221.22,968.61a2.14,2.14,0,1,0,.9-4.19,2.14,2.14,0,0,0-.9,4.19Z" transform="translate(-494.32 -97.02)"/><path class="cls-1" d="M596.26,882.12a.8.8,0,1,0-.62-1A.8.8,0,0,0,596.26,882.12Z" transform="translate(-494.32 -97.02)"/><path class="cls-1" d="M643,894.79a3.35,3.35,0,1,0-2.56-4A3.35,3.35,0,0,0,643,894.79Z" transform="translate(-494.32 -97.02)"/><path class="cls-1" d="M689.89,907.09a5.5,5.5,0,1,0-4.2-6.53A5.49,5.49,0,0,0,689.89,907.09Z" transform="translate(-494.32 -97.02)"/><path class="cls-1" d="M736.83,919a7.25,7.25,0,1,0-5.54-8.61A7.26,7.26,0,0,0,736.83,919Z" transform="translate(-494.32 -97.02)"/><path class="cls-1" d="M783.89,930.5a8.58,8.58,0,1,0-6.61-10.21A8.61,8.61,0,0,0,783.89,930.5Z" transform="translate(-494.32 -97.02)"/><path class="cls-1" d="M831,941.59a9.53,9.53,0,1,0-7.3-11.31A9.52,9.52,0,0,0,831,941.59Z" transform="translate(-494.32 -97.02)"/><path class="cls-1" d="M878.23,952.05a9.78,9.78,0,1,0-7.52-11.64A9.79,9.79,0,0,0,878.23,952.05Z" transform="translate(-494.32 -97.02)"/><path class="cls-1" d="M925.59,962.12a9.67,9.67,0,1,0-7.43-11.48A9.67,9.67,0,0,0,925.59,962.12Z" transform="translate(-494.32 -97.02)"/><path class="cls-1" d="M973,971.65A9,9,0,1,0,966.13,961,9,9,0,0,0,973,971.65Z" transform="translate(-494.32 -97.02)"/><path class="cls-1" d="M1020.6,980.66a7.78,7.78,0,1,0-6-9.24A7.76,7.76,0,0,0,1020.6,980.66Z" transform="translate(-494.32 -97.02)"/><path class="cls-1" d="M1068.25,989.28a6.17,6.17,0,1,0-4.73-7.33A6.18,6.18,0,0,0,1068.25,989.28Z" transform="translate(-494.32 -97.02)"/><path class="cls-1" d="M1116,997.38a4,4,0,1,0-3.1-4.79A4,4,0,0,0,1116,997.38Z" transform="translate(-494.32 -97.02)"/><path class="cls-1" d="M1163.82,1005.21a1.63,1.63,0,0,0,1.93-1.24,1.62,1.62,0,1,0-1.93,1.24Z" transform="translate(-494.32 -97.02)"/><path class="cls-1" d="M680.52,950.6a1.62,1.62,0,1,0,.68-3.16,1.62,1.62,0,0,0-.68,3.16Z" transform="translate(-494.32 -97.02)"/><path class="cls-1" d="M727.46,962.49a3.36,3.36,0,1,0-2.56-4A3.36,3.36,0,0,0,727.46,962.49Z" transform="translate(-494.32 -97.02)"/><path class="cls-1" d="M774.55,973.87a4.55,4.55,0,1,0-3.52-5.43A4.56,4.56,0,0,0,774.55,973.87Z" transform="translate(-494.32 -97.02)"/><path class="cls-1" d="M821.65,984.86a5.38,5.38,0,1,0-4.09-6.39A5.38,5.38,0,0,0,821.65,984.86Z" transform="translate(-494.32 -97.02)"/><path class="cls-1" d="M868.91,995.32a5.65,5.65,0,1,0-4.31-6.72A5.67,5.67,0,0,0,868.91,995.32Z" transform="translate(-494.32 -97.02)"/><path class="cls-1" d="M916.27,1005.38a5.51,5.51,0,1,0-4.23-6.56A5.49,5.49,0,0,0,916.27,1005.38Z" transform="translate(-494.32 -97.02)"/><path class="cls-1" d="M963.72,1014.9a4.83,4.83,0,1,0-3.69-5.74A4.83,4.83,0,0,0,963.72,1014.9Z" transform="translate(-494.32 -97.02)"/><path class="cls-1" d="M1011.26,1024a3.75,3.75,0,1,0-2.89-4.47A3.75,3.75,0,0,0,1011.26,1024Z" transform="translate(-494.32 -97.02)"/><path class="cls-1" d="M1058.88,1032.79a2.28,2.28,0,1,0-1.74-2.71A2.27,2.27,0,0,0,1058.88,1032.79Z" transform="translate(-494.32 -97.02)"/><path class="cls-1" d="M1106.59,1041.15a.41.41,0,1,0-.32-.49A.42.42,0,0,0,1106.59,1041.15Z" transform="translate(-494.32 -97.02)"/><path class="cls-1" d="M765.23,1017.12a.39.39,0,0,0,.46-.32.41.41,0,0,0-.29-.48.42.42,0,0,0-.49.31A.4.4,0,0,0,765.23,1017.12Z" transform="translate(-494.32 -97.02)"/><path class="cls-1" d="M812.37,1028a1.07,1.07,0,1,0-.81-1.28A1.06,1.06,0,0,0,812.37,1028Z" transform="translate(-494.32 -97.02)"/><path class="cls-1" d="M859.6,1038.55a1.47,1.47,0,0,0,1.75-1.14,1.47,1.47,0,1,0-1.75,1.14Z" transform="translate(-494.32 -97.02)"/><path class="cls-1" d="M907,1048.47a1.2,1.2,0,0,0,1.42-.93,1.21,1.21,0,0,0-.92-1.42,1.2,1.2,0,1,0-.5,2.35Z" transform="translate(-494.32 -97.02)"/><path class="cls-1" d="M954.41,1058.13a.67.67,0,1,0-.53-.79A.67.67,0,0,0,954.41,1058.13Z" transform="translate(-494.32 -97.02)"/></svg>