<svg id="Слой_1" data-name="Слой 1" xmlns="http://www.w3.org/2000/svg" viewBox="0 0 439.14 308.75"><defs><style>.cls-1{fill:#fff;}.cls-2{fill:#1d1e1c;}.cls-3{fill:#4e5778;}.cls-4{fill:#b6d7e0;}.cls-5{fill:#f9e599;}</style></defs><path class="cls-1" d="M839.14,688.33c-23.78-1.89-49.65-4.69-66.69-21.39-8.93-8.74-14.34-20.35-19.57-31.7l-12.22-26.52" transform="translate(-740.66 -385.12)"/><path class="cls-2" d="M740.66,608.72s.83,1.75,2.48,4.84,4.09,7.54,7.1,13l4.88,9c1.74,3.24,3.58,6.69,5.61,10.22a116.78,116.78,0,0,0,6.79,10.63,59.71,59.71,0,0,0,19.53,17.43,78.74,78.74,0,0,0,11.33,5.25c.93.38,1.87.71,2.8,1l2.77.93c1.84.53,3.61,1.14,5.38,1.58s3.45.94,5.1,1.31,3.23.76,4.76,1.07,3,.63,4.36.89,2.68.51,3.91.71c2.44.44,4.56.76,6.29,1,3.47.5,5.39.67,5.39.67s-1.93-.13-5.43-.23l-6.39-.21c-1.24,0-2.58-.09-4-.17s-2.91-.15-4.48-.28l-2.42-.18-2.52-.25c-1.72-.16-3.5-.41-5.35-.67s-3.75-.65-5.72-1l-3-.68c-1-.23-2-.48-3-.79a67.74,67.74,0,0,1-12.54-4.8,53.34,53.34,0,0,1-12.1-8.19,54.08,54.08,0,0,1-9.51-11.08,88.79,88.79,0,0,1-6.39-11.69c-1.77-3.82-3.24-7.5-4.58-10.94L748,627.61c-2.22-5.86-4-10.6-5.29-13.86S740.66,608.72,740.66,608.72Z" transform="translate(-740.66 -385.12)"/><path class="cls-2" d="M750.28,597.53l0,.33a9.32,9.32,0,0,0-.06,1,15.44,15.44,0,0,0,.4,3.68,25.75,25.75,0,0,0,2,5.46,75.74,75.74,0,0,0,3.84,6.72l1.14,1.87,1.34,1.87,2.82,3.93c2.18,2.54,4.32,5.37,7,8l1.94,2.06c.66.68,1.41,1.31,2.11,2l2.16,2,1.09,1,1.17,1c1.58,1.26,3.11,2.63,4.78,3.88l5.13,3.74,5.33,3.43c1.79,1.06,3.6,2,5.35,3.05.87.53,1.78.95,2.67,1.38l2.65,1.3c1.73.92,3.51,1.61,5.23,2.33l2.55,1.08c.83.38,1.7.61,2.54.92,1.68.57,3.3,1.17,4.89,1.69l4.67,1.27c.76.2,1.49.45,2.22.59l2.16.42,4,.8c1.27.2,2.49.3,3.63.45l3.18.35c1,.12,1.87.08,2.68.11,3.24.07,5,0,5,0s-1.78.1-5,.44c-.81.06-1.71.23-2.7.24l-3.23.1c-1.16,0-2.41.11-3.73.1l-4.18-.2-2.26-.1c-.77,0-1.55-.18-2.35-.27l-5-.66c-1.7-.32-3.46-.73-5.28-1.12-.9-.22-1.84-.37-2.75-.66l-2.78-.86a53,53,0,0,1-5.71-2L798,659a29,29,0,0,1-2.91-1.3c-1.91-1-3.87-1.94-5.81-3l-5.72-3.58c-1.85-1.33-3.64-2.7-5.41-4s-3.32-2.9-4.93-4.32l-1.19-1.07L771,640.54l-2.14-2.28c-.69-.77-1.42-1.48-2.05-2.27s-1.24-1.58-1.85-2.35a90.77,90.77,0,0,1-6.33-9.17L756.24,620c-.37-.71-.74-1.41-1.09-2.1l-.88-2.09a76.94,76.94,0,0,1-2.87-7.39,29.57,29.57,0,0,1-1.26-5.85,18.63,18.63,0,0,1,0-3.75c0-.43.08-.75.11-1Z" transform="translate(-740.66 -385.12)"/><path class="cls-2" d="M1126.23,669.9a26.75,26.75,0,0,0,1.5-3.46,50.32,50.32,0,0,0,2.51-9.86,60.49,60.49,0,0,0,.67-6.9c.06-1.23.06-2.57.22-4.07a12.72,12.72,0,0,1,1.43-4.86,8.77,8.77,0,0,1,4.6-4.06,7.4,7.4,0,0,1,3.61-.32,10.5,10.5,0,0,1,3,1,34,34,0,0,0,3.82,1.93,2.51,2.51,0,0,0,2.16-.26,6.53,6.53,0,0,0,2.2-2.35,9.22,9.22,0,0,0,.76-1.62,6.75,6.75,0,0,0,.26-.84c.08-.28.15-.63.21-1,.5-2.67.49-5.78,1.17-8.94a15.84,15.84,0,0,1,1.68-4.56,14.33,14.33,0,0,1,2.84-3.57,15.76,15.76,0,0,1,6.89-3.67,15.14,15.14,0,0,1,3.3-.44,15.66,15.66,0,0,1,2.92.25,23.16,23.16,0,0,1,4.32,1.35c1.13.46,2,.85,2.58,1.1l.9.38-.92-.32c-.61-.19-1.52-.46-2.7-.74a19.67,19.67,0,0,0-4.3-.52,15.1,15.1,0,0,0-2.6.29,14.41,14.41,0,0,0-2.72.94,13.45,13.45,0,0,0-4.92,3.94,11.12,11.12,0,0,0-1.62,2.92,12.42,12.42,0,0,0-.71,3.43c-.24,2.52.09,5.48-.28,9-.06.45-.11.87-.2,1.36s-.22,1-.36,1.45a14.52,14.52,0,0,1-1.16,2.77,12.1,12.1,0,0,1-4.42,4.73,9,9,0,0,1-3.57,1.16,8.65,8.65,0,0,1-3.7-.48,27.31,27.31,0,0,1-4.58-2.52,3.18,3.18,0,0,0-2.2-.66,3.73,3.73,0,0,0-2,1.47,8.67,8.67,0,0,0-1.33,3c-.32,1.17-.54,2.46-.83,3.76a51.71,51.71,0,0,1-2.05,7,61.78,61.78,0,0,1-4.46,9.44l-1.42,2.43Z" transform="translate(-740.66 -385.12)"/><path class="cls-3" d="M1136.6,459.46a4.63,4.63,0,0,1,2.9.71c1.4,1,1.56,3.09,1.22,4.8-.59,3-2.22,5.59-3.82,8.15l-13.51,21.65c.17-.35.34-.69.5-1l-1,.65a5.65,5.65,0,0,1,.43,4.81c-1.06,2.65-3.79,4.3-6.55,5l7.56-2.17c-2,1.58-4,3.2-6.46,3.7s-5.41-.54-6.24-2.9c-.75-2.15.45-4.46,1.75-6.32,1.62-2.33,4.07-4.75,6.85-4.18a3.86,3.86,0,0,1,2.15,1.33,41.42,41.42,0,0,0,2.44-16.25c-.13-2.59-.5-5.2-.06-7.75A12.7,12.7,0,0,1,1136.6,459.46Z" transform="translate(-740.66 -385.12)"/><path class="cls-2" d="M1136.6,459.46l-.78.07a12.13,12.13,0,0,0-2.2.45,12.43,12.43,0,0,0-3.23,1.57A12.74,12.74,0,0,0,1127,465a11.29,11.29,0,0,0-1.82,5.46,45.83,45.83,0,0,0,.53,7,39.21,39.21,0,0,1-.15,8.21,38.69,38.69,0,0,1-.79,4.37c-.09.37-.18.74-.28,1.11l-.15.56-.08.28-.11.35c-.22.66-.44,1.32-.67,2s-.47,1.43-.69,1.92l-1.41-1.58a3.81,3.81,0,0,0-.66-.63,1.86,1.86,0,0,0-.31-.19l-.13-.06a3.06,3.06,0,0,0-1.08-.17,4.47,4.47,0,0,0-2.39,1,12,12,0,0,0-2.18,2.25,13.82,13.82,0,0,0-1.69,2.8,4.17,4.17,0,0,0-.32,2.78,3.27,3.27,0,0,0,1.83,2,5.58,5.58,0,0,0,3.14.48,9.54,9.54,0,0,0,3.31-1.23,28.81,28.81,0,0,0,3-2.05l.53,1c-2.63.65-5.16,1.31-7.61,2l-.21-.78a9.52,9.52,0,0,0,5.5-3.44,5,5,0,0,0,1-2.85,5.14,5.14,0,0,0-.19-1.46,5.79,5.79,0,0,0-.93-1.86l.61-.43.53-.36.33-.22,0,0v0l0,.06h0l0-.1h0v0h0l.08-.13.14-.25.57-1c.38-.65.76-1.31,1.14-1.95q1.13-1.94,2.25-3.75c1.5-2.43,3-4.71,4.39-6.84s2.79-4.1,4.06-5.92a42.24,42.24,0,0,0,3.26-5.14,11.64,11.64,0,0,0,1.38-4.66,3.87,3.87,0,0,0-1.25-3.26,4,4,0,0,0-2.12-.73c-.52,0-.79,0-.79,0a5.25,5.25,0,0,1,.79,0,4,4,0,0,1,2.17.7,4.06,4.06,0,0,1,1.41,3.33,13.26,13.26,0,0,1-1.09,4.89,49.24,49.24,0,0,1-2.78,5.52c-1.08,2-2.25,4-3.54,6.25s-2.69,4.54-4.21,6.94c-.77,1.21-1.56,2.43-2.38,3.68l-1.26,1.87-.65,1-.39.59-.31.48-.16.23-.07.12,0,.06,0,0s0,.12,0-.06l-.34-.13-.17-.06-.08,0s0,0,0-.06h0l.73-.12.18,0,.09,0h0l-.13-.17-.07-.09h0l0,0-.34.2s-.16.09-.14.09h0s0,0,0,0a8.44,8.44,0,0,1,.34,1.16,6.62,6.62,0,0,1,.12,1.78,6,6,0,0,1-.42,1.75,7.73,7.73,0,0,1-.9,1.55,11.08,11.08,0,0,1-6,3.71l-.21-.78c2.44-.72,4.93-1.5,7.51-2.34l2.75-.89-2.22,1.91a34.32,34.32,0,0,1-3,2.38,11,11,0,0,1-3.75,1.74,7.24,7.24,0,0,1-4.29-.34,5.35,5.35,0,0,1-3.17-3.21,6.33,6.33,0,0,1,.27-4.36,15.73,15.73,0,0,1,1.92-3.37,13.59,13.59,0,0,1,2.62-2.8,6.75,6.75,0,0,1,3.8-1.57,5.34,5.34,0,0,1,2.18.35l.25.1.06,0,0,0,.06.06c0,.05.06-.08.11-.18l.29-1c.1-.34.19-.69.29-1,.36-1.39.66-2.76.89-4.1a45.07,45.07,0,0,0,.6-7.78,39.56,39.56,0,0,1,.2-7.18,12.67,12.67,0,0,1,2.53-5.66,14.45,14.45,0,0,1,3.69-3.28,13.88,13.88,0,0,1,3.33-1.47,11.18,11.18,0,0,1,2.22-.4C1136.33,459.46,1136.6,459.46,1136.6,459.46Z" transform="translate(-740.66 -385.12)"/><path class="cls-4" d="M1100.06,408.28c-6.4-.95-13.47-1.47-18.82,2.17-4.13,2.82-6.4,7.58-9,11.88a68.84,68.84,0,0,1-22.63,23" transform="translate(-740.66 -385.12)"/><path d="M1049.64,445.3l.57-.38c.36-.26.91-.61,1.58-1.14s1.49-1.15,2.41-1.92,1.93-1.69,3-2.73,2.25-2.21,3.44-3.5,2.42-2.73,3.66-4.26,2.47-3.2,3.69-4.95,2.39-3.63,3.55-5.59,2.29-4,3.6-5.81a20.83,20.83,0,0,1,4.55-4.8,15.86,15.86,0,0,1,5.47-2.53,20.9,20.9,0,0,1,5.08-.58,43.77,43.77,0,0,1,7.2.72l2.6.45s-.93-.14-2.62-.25a38.31,38.31,0,0,0-7.11.15,20.7,20.7,0,0,0-4.67,1.1,15.24,15.24,0,0,0-4.58,2.66,21.09,21.09,0,0,0-3.77,4.54c-1.15,1.77-2.2,3.72-3.38,5.74a58.57,58.57,0,0,1-3.81,5.72,60.31,60.31,0,0,1-4.13,4.89c-1.41,1.46-2.8,2.81-4.17,4s-2.67,2.23-3.9,3.14c-2.47,1.81-4.56,3.12-6,4Z" transform="translate(-740.66 -385.12)"/><path class="cls-4" d="M1101.22,415.52c-5.55,0-10.54,3.75-13.65,8.36s-4.71,10-6.59,15.27-4.21,10.52-8.33,14.25c-4.9,4.45-11.67,6.1-17.42,9.4" transform="translate(-740.66 -385.12)"/><path d="M1055.23,462.8l2.39-1.37c1.54-.87,3.85-2,6.64-3.49a44.83,44.83,0,0,0,4.37-2.61,22.09,22.09,0,0,0,4.27-3.72c2.64-3,4.58-7,6.24-11.44s3.1-8.89,5.13-12.69a29.57,29.57,0,0,1,3.37-5.11,22.17,22.17,0,0,1,3.89-3.64,18.49,18.49,0,0,1,3.81-2.12,14.47,14.47,0,0,1,3.14-.88,9.87,9.87,0,0,1,1.17-.15,7,7,0,0,1,.86,0l.71,0-.7,0a6.74,6.74,0,0,0-.86.11,9.63,9.63,0,0,0-1.14.25,13.21,13.21,0,0,0-2.94,1.19,17.73,17.73,0,0,0-3.37,2.45,21.79,21.79,0,0,0-3.25,3.81,31.79,31.79,0,0,0-2.7,5.07c-1.64,3.73-2.84,8.11-4.56,12.7a43.6,43.6,0,0,1-3,6.56,24.65,24.65,0,0,1-4.16,5.43,21.79,21.79,0,0,1-5,3.62,43,43,0,0,1-4.79,2.17c-3,1.13-5.38,2-7,2.69A26.13,26.13,0,0,0,1055.23,462.8Z" transform="translate(-740.66 -385.12)"/><path class="cls-4" d="M1089.07,429.77a87.21,87.21,0,0,0,4.46,15.77c5.84-14.49,11.9-29.33,22.51-40.8Q1095.11,399,1074.25,393l12.35,16.11" transform="translate(-740.66 -385.12)"/><path d="M1086.6,409.06s-1.09-1.4-3.11-3.9-5.17-6.31-8.94-10.93c-.42-.51-.76-1-1.09-1.46l-.52-.72s-.08-.09,0-.07l.1,0,.22.05.44.11,3.47.89,4.75,1.18,10.45,2.67,11.52,3,6.08,1.66,3.11.86,1.87.53,3.16.91.39.11c0,.07-.15.2-.22.29l-.54.62-1.09,1.22c-.51.59-1,1.17-1.55,1.75-.66.83-1.35,1.63-2,2.46q-1.92,2.49-3.62,5a117.1,117.1,0,0,0-6,10.14c-3.53,6.67-6.28,12.93-8.63,18.18l-.58,1.35c-.23.55-.44,1-.66,1.46,0,.22-.1,0-.15-.12l-.16-.35-.3-.69c-.17-.46-.38-1.14-.51-1.48-.4-1.23-.75-2.41-1.06-3.51-.62-2.21-1.07-4.13-1.41-5.7s-.56-2.8-.71-3.63l-.23-1.27s.3,1.75,1.14,4.86c.42,1.54,1,3.43,1.74,5.57.38,1.08.8,2.22,1.28,3.41l0,.11v0l0,.08.07.15c0,.08.09.25.12.24a2,2,0,0,1,.12-.35l.06-.14.16-.45c2-5.39,4.36-11.84,7.65-18.76a98.38,98.38,0,0,1,5.79-10.56c1.11-1.78,2.34-3.53,3.65-5.27.65-.87,1.36-1.71,2-2.57l.61-.69h0v0h0l-.1,0-.39-.11-.78-.22-3.1-.89-6.06-1.76L1091.74,399l-10.31-3.19-4.66-1.47-.61-.19-.29-.11s-.13-.06-.15-.05l.06.1a.79.79,0,0,0,.17.23l.12.13,0,0,.08.11.15.21c.2.29.41.57.6.85l1.17,1.62,2.12,3c1.34,1.85,2.48,3.45,3.42,4.75C1085.53,407.65,1086.6,409.06,1086.6,409.06Z" transform="translate(-740.66 -385.12)"/><path class="cls-5" d="M1011.6,421.35l-2.15-.65a4.74,4.74,0,0,0,3.62-2.43,14,14,0,0,0,1.46-4.27q2.25-10.08,4.51-20.16a13.85,13.85,0,0,1,1.26-3.84,7.14,7.14,0,0,1,8-3.23,1.81,1.81,0,0,1,.73.37,2,2,0,0,1,.29,1.76,58.7,58.7,0,0,1-17,32.57c-.22.21-.54.43-.8.27S1011.47,421.42,1011.6,421.35Z" transform="translate(-740.66 -385.12)"/><path d="M1011.6,421.35a.51.51,0,0,0-.11.16c-.09.13.09.28.32.19a2.16,2.16,0,0,0,.67-.66l.84-1.06c.63-.81,1.36-1.82,2.15-3s1.66-2.6,2.52-4.19,1.76-3.34,2.67-5.23,1.74-4,2.64-6.14,1.77-4.49,2.56-6.94c.4-1.22.73-2.49,1.1-3.78.16-.65.34-1.3.53-2l.15-.55s0,0,0,0h0s0,0,0,0-.09,0-.15-.06a5.76,5.76,0,0,0-1-.26,5.57,5.57,0,0,0-5.48,2.5,9.27,9.27,0,0,0-1.06,3.13c-.21,1.13-.36,2.27-.49,3.38-.26,2.23-.43,4.39-.74,6.41a45.59,45.59,0,0,1-1.24,5.66c-.49,1.75-1,3.37-1.48,4.85a19.87,19.87,0,0,1-1.67,4.1,6.49,6.49,0,0,1-2.54,2.52,4.3,4.3,0,0,1-2.28.52l0-.39,1.65.65a3.28,3.28,0,0,1,.44.19,3.32,3.32,0,0,1-.47-.09l-1.73-.37-.95-.2,1-.19a3.59,3.59,0,0,0,1.76-.91,5.34,5.34,0,0,0,1.48-2.47,24.48,24.48,0,0,0,.66-3.95c.19-1.54.43-3.22.73-5a43.6,43.6,0,0,1,1.29-5.65c.59-2,1.35-4,2.07-6.11.36-1.07.69-2.15,1-3.28a16.11,16.11,0,0,1,1.25-3.51,8.93,8.93,0,0,1,6.74-4.44,7.68,7.68,0,0,1,1.66,0l.49.08.64.13a3,3,0,0,1,1,.58,3.34,3.34,0,0,1,.62.82,3.85,3.85,0,0,1,.3,1,5.46,5.46,0,0,1,0,1.55c-.08.72-.15,1.44-.23,2.16-.21,1.42-.49,2.81-.82,4.16a45.65,45.65,0,0,1-2.52,7.59,41.37,41.37,0,0,1-3.52,6.27,48.74,48.74,0,0,1-3.86,4.87c-1.26,1.41-2.48,2.6-3.57,3.6s-2.07,1.82-2.87,2.47l-1.07.86a2.25,2.25,0,0,1-.88.56.46.46,0,0,1-.39-.09.2.2,0,0,1,0-.28C1011.52,421.36,1011.6,421.35,1011.6,421.35Z" transform="translate(-740.66 -385.12)"/><path class="cls-5" d="M1009.7,431.51c.11-.56.21-1.13.29-1.7a3.15,3.15,0,0,0,.24-.3Z" transform="translate(-740.66 -385.12)"/><path d="M1009.7,431.51s-.06-.07-.29-.24L1009,431l-.56-.41a4.41,4.41,0,0,1-.5-.45c-.15-.15-.23-.3-.2-.42s.17-.22.3-.32a1.91,1.91,0,0,1,.86-.2l2.47,1.12h0l-.49,0a.67.67,0,0,0-.28,0l.16-.36c-.07.11,0,.25.32.42a2.69,2.69,0,0,1,.57.44c.1.12,0,.21-.16.28a3.54,3.54,0,0,1-.49.18l-.54.12-.41.08c-.23,0-.27.08-.3.07s-.05-.06-.25-.18a3.06,3.06,0,0,1-.36-.23l-.47-.29a3.3,3.3,0,0,1-.4-.32c-.11-.11-.2-.21-.07-.29a3.61,3.61,0,0,1,.69-.21c.32-.06.47-.16.44-.28l.16-.37a.45.45,0,0,0-.06-.22c-.08-.12-.17-.23-.26-.35l0,0-1.6-1.8,4.07,2.92a2.15,2.15,0,0,1,.65.6.83.83,0,0,1,.1.43c0,.12-.17.21-.38.27a5.88,5.88,0,0,1-.66.14c-.23,0-.47.06-.68.08l-.51.06C1009.79,431.47,1009.73,431.52,1009.7,431.51Z" transform="translate(-740.66 -385.12)"/><path class="cls-5" d="M1001.41,419.91a3.13,3.13,0,0,1,2.11-1c2.71-.25,5.19,1.93,6.11,4.49a13.06,13.06,0,0,1,.36,6.37,3.74,3.74,0,0,1-2.49,1.33,5.41,5.41,0,0,1-4.58-2.37,12.55,12.55,0,0,1-1.95-5C1000.69,422.47,1000.52,420.93,1001.41,419.91Z" transform="translate(-740.66 -385.12)"/><path d="M1001.41,419.91s-.06.11-.16.31a2.12,2.12,0,0,0-.26.94,3,3,0,0,0,.34,1.49,10.89,10.89,0,0,0,1.19,1.8l1.39,1.9a15.88,15.88,0,0,0,1.39,1.56,4.6,4.6,0,0,0,1.55,1.07l.42.14a2.34,2.34,0,0,0,.4.12,2.31,2.31,0,0,0,1.14-.1l.24-.11h0c0,.06,0-.14.08-.27a2.8,2.8,0,0,0,.13-.41,5.35,5.35,0,0,0,.21-1.62,4.53,4.53,0,0,0-1.07-2.78c-.59-.7-1.16-1.21-1.59-1.75s-.82-1.07-1.25-1.58a3.84,3.84,0,0,0-1.49-1.17,2.53,2.53,0,0,0-1.5-.15,3,3,0,0,0-1.18.6s.05-.12.22-.29a3.75,3.75,0,0,1,.86-.59,7.3,7.3,0,0,1,1.64-.61,6.29,6.29,0,0,1,2.58-.13,5.07,5.07,0,0,1,2.8,1.52,5.39,5.39,0,0,1,1.39,3.28c.1,1.24,0,2.43,0,3.61,0,.59,0,1.19.1,1.81l.06.46c0,.17,0,.25,0,.63a.79.79,0,0,1,0,.25l-.07.21-.13.41a3.08,3.08,0,0,1-.32.58,4.85,4.85,0,0,1-1.88,1.7,4.21,4.21,0,0,1-1.3.42,5.51,5.51,0,0,1-1.28.05,7.12,7.12,0,0,1-4.14-1.88,7,7,0,0,1-1.93-3.26,8,8,0,0,1-.25-3c.14-.88.24-1.65.37-2.35a10.91,10.91,0,0,1,.43-1.68,3.35,3.35,0,0,1,.49-.93C1001.3,420,1001.4,419.9,1001.41,419.91Z" transform="translate(-740.66 -385.12)"/><path class="cls-5" d="M1010.23,429.51l.52-1.95A2.89,2.89,0,0,1,1010.23,429.51Z" transform="translate(-740.66 -385.12)"/><path d="M1010.23,429.51a3.57,3.57,0,0,0-.21-.32c-.11-.12-.19-.23-.34-.37a3,3,0,0,0-.26-.22,2.76,2.76,0,0,0-.25-.21,5.48,5.48,0,0,0-.52-.33c-.17-.08-.27-.13-.25-.14l.22,0a5.91,5.91,0,0,0,.81-.16l0,0,2.51.18c-.36.05-.65.11-.65.25s.07.15.15.24l.37.29.3.26c.05.07.08.14,0,.18a.86.86,0,0,1-.45.19l-.29.06-.32,0-.51.06a3.34,3.34,0,0,0-.39.06s-.06-.07-.31-.25-.24-.18-.41-.3l-.26-.19-.23-.19a.91.91,0,0,1-.3-.39c0-.05,0-.1.13-.13l.39-.08.47-.07c.11,0,.23-.07.24-.14s-.15-.31-.44-.53l-4.94-3.73,7.45,3.9.05,0a1.49,1.49,0,0,1,.83.66,1.39,1.39,0,0,1,.13.73.74.74,0,0,1-.43.52,2.08,2.08,0,0,1-.73.23,3.63,3.63,0,0,1-.73,0c-.21,0-.36,0-.52-.05S1010.26,429.52,1010.23,429.51Z" transform="translate(-740.66 -385.12)"/><path class="cls-5" d="M839.2,499.53c-.2-5.84-4.63-10.8-9.74-13.63s-10.93-4-16.49-5.84-11.18-4.42-14.56-9.19a50.93,50.93,0,0,1-2.91-5.08" transform="translate(-740.66 -385.12)"/><path d="M795.5,465.79s.4.71,1.18,2a19.27,19.27,0,0,0,3.87,4.77,26.08,26.08,0,0,0,7.73,4.49c3.14,1.26,6.78,2.19,10.67,3.32a45,45,0,0,1,10.76,4.37,21.36,21.36,0,0,1,7,6.6,17,17,0,0,1,1.64,3.28,14.22,14.22,0,0,1,.69,2.64,12.69,12.69,0,0,1,.17,1.71l0,.59s0-.22-.06-.59a10.12,10.12,0,0,0-.34-1.66,12.35,12.35,0,0,0-1-2.45,16,16,0,0,0-2-2.84,22.49,22.49,0,0,0-7.17-5.23,69.22,69.22,0,0,0-10.46-3.63,59.66,59.66,0,0,1-10.84-4,24.1,24.1,0,0,1-7.57-5.83,17.37,17.37,0,0,1-2.05-3c-.51-.94-.88-1.77-1.19-2.44C795.89,466.51,795.5,465.79,795.5,465.79Z" transform="translate(-740.66 -385.12)"/><path class="cls-5" d="M793.28,475.64a26.41,26.41,0,0,0,8.6,11.57c2.94,2.25,6.32,3.85,9.49,5.78a54,54,0,0,1,24.81,36.22" transform="translate(-740.66 -385.12)"/><path d="M836.18,529.21s-.21-1-.66-2.71c-.28-.85-.6-1.9-1-3.09q-.35-.88-.75-1.89c-.26-.67-.6-1.35-.93-2.07s-.71-1.47-1.11-2.23-.83-1.56-1.31-2.36-1-1.62-1.51-2.45-1.11-1.66-1.71-2.51c-1.2-1.69-2.59-3.37-4.06-5.08a67,67,0,0,0-4.91-4.92,59.37,59.37,0,0,0-5.41-4.36c-.94-.62-1.82-1.28-2.75-1.86l-2.75-1.7a51,51,0,0,1-5.07-3.44,25.21,25.21,0,0,1-3.86-3.77,28,28,0,0,1-4-6.53c-.36-.83-.61-1.48-.78-1.92l-.25-.68.28.66a20.48,20.48,0,0,0,.94,1.84,25.09,25.09,0,0,0,4.67,5.86,26.94,26.94,0,0,0,4.05,3.11c1.56,1,3.31,1.88,5.2,2.84,1,.48,1.92,1,2.92,1.52s2,1.18,3,1.79A49,49,0,0,1,825.2,503a51.42,51.42,0,0,1,3.91,5.57c.56.93,1.1,1.84,1.55,2.76s.92,1.8,1.29,2.69.76,1.72,1.06,2.56.62,1.63.85,2.41c.52,1.54.87,3,1.18,4.21s.49,2.34.68,3.21C836,528.24,836.18,529.21,836.18,529.21Z" transform="translate(-740.66 -385.12)"/><path class="cls-5" d="M799.35,471.06a42.53,42.53,0,0,1,16.33-.28l-16.08-7.61c-5.91-2.79-12-5.75-16.09-10.85,1.32,13,1.09,26.17.86,39.28a171.13,171.13,0,0,1,8.43-17.47" transform="translate(-740.66 -385.12)"/><path d="M792.8,474.13s-.86,1.54-2.23,4.43c-.69,1.44-1.5,3.22-2.39,5.31-.44,1.05-.9,2.18-1.4,3.37l-.52,1.27c-.21.51-.46,1.19-.7,1.84l-1.7,4.46a4.81,4.81,0,0,1-.13-.71l0-1.38c0-1,0-1.93-.05-2.93,0-1.7-.06-3.46-.1-5.28-.06-2.85-.13-5.88-.2-9.07s-.2-6.51-.36-9.95c-.1-1.71-.2-3.46-.3-5.23l-.18-2.67-.13-1.63c-.08-.91-.17-1.83-.25-2.75-.17-1.84-.34-3.68-.5-5.38l2,2.4,1.05,1.25c.35.43.66.72,1,1.09l1,1.06c.17.16.32.32.5.47l.27.24c.3.28.63.55,1,.81A37.44,37.44,0,0,0,792.5,458c2.83,1.73,5.77,3.16,8.57,4.58,5.59,2.84,10.61,5.44,14.85,7.66l3.74,2-4.08-.89a41.37,41.37,0,0,0-11.87-.86c-1.41.11-2.5.26-3.24.38l-1.12.21,1.12-.24c.73-.14,1.81-.36,3.22-.56a44.5,44.5,0,0,1,12.09,0l-.34,1.07c-4.41-1.88-9.61-4.1-15.34-6.63a93.24,93.24,0,0,1-9-4.32,36.47,36.47,0,0,1-4.5-3c-.37-.28-.73-.57-1.08-.88l-.24-.21h0a0,0,0,0,0,0,0h0l.09,1.09c.05.91.11,1.81.16,2.71.09,1.79.16,3.57.19,5.31.08,3.48.06,6.84,0,10s-.19,6.24-.33,9.09c0,.71-.07,1.42-.1,2.1l-.05.74,0,.57,0,.28s0-.05.06-.08c.09-.23.14-.31.23-.5s.08-.17.13-.25a.91.91,0,0,0,.07-.14l.2-.41,1.66-3.26c1.06-2,2-3.74,2.79-5.13Z" transform="translate(-740.66 -385.12)"/><path class="cls-2" d="M851.54,473.12a24,24,0,0,0,1.46,2.16c1,1.35,2.53,3.25,4.52,5.49,1,1.13,2.08,2.34,3.26,3.63s2.48,2.75,3.72,3.87a7.43,7.43,0,0,0,1.85,1.29,2.44,2.44,0,0,0,1.45.24,21.58,21.58,0,0,0,2.5-.74,10.3,10.3,0,0,1,4.62-.42,12.05,12.05,0,0,1,7.41,4.37,17.25,17.25,0,0,1,3.17,6.47,47.14,47.14,0,0,1,1.1,5.73c.24,1.76.46,3.4.67,4.9.38,3,.68,5.42.94,7.09s.48,2.56.48,2.56a25.72,25.72,0,0,0-.91-2.44c-.63-1.56-1.63-3.8-2.85-6.56-.59-1.39-1.25-2.91-1.95-4.54s-1.37-3.38-2.16-5a15.74,15.74,0,0,0-2.88-4.28,7.42,7.42,0,0,0-3.92-2.14,4.18,4.18,0,0,0-.93,0A6.38,6.38,0,0,0,872,495a16.82,16.82,0,0,1-3.89.72,7.89,7.89,0,0,1-4.57-1.4,11.75,11.75,0,0,1-2.73-2.66,24.31,24.31,0,0,1-1.72-2.62c-.48-.83-.93-1.64-1.36-2.44-.85-1.58-1.58-3.09-2.23-4.47-1.27-2.77-2.2-5.05-2.86-6.6S851.54,473.12,851.54,473.12Z" transform="translate(-740.66 -385.12)"/><path class="cls-5" d="M869.31,395.27l3.2,7.71a14,14,0,0,0,10,8.32l8.17,1.74-6.35,5.42a14,14,0,0,0-4.82,12.07l.86,8.31-7.12-4.37a14,14,0,0,0-13-.85L852.63,437l2-8.11a14,14,0,0,0-3.19-12.6l-5.58-6.21,8.32-.66a13.93,13.93,0,0,0,11-6.93Z" transform="translate(-740.66 -385.12)"/><path d="M869.32,395.09c3.5,6.93,5.16,14,14.21,15.17l10.92,1.8-2.76,2.19-5.91,4.7a13,13,0,0,0-5.42,12.28l.52,7.54.07,1-.88-.49-6.57-3.72a13.62,13.62,0,0,0-6.71-2.07,13.43,13.43,0,0,0-6.7,1.64l-6.8,3.31-3,1.45c.49-2.07,2-8.45,2.49-10.62a13.66,13.66,0,0,0,.49-3.37,12.27,12.27,0,0,0-2.56-7.73c-.76-1-5.35-5.91-6.24-6.92l-2.59-2.85,11.32-.29A13.14,13.14,0,0,0,864,403c1.78-2.57,3.74-5.5,5.33-7.94Zm0,.35c-2.57,4.63-3.8,9.66-8.29,12.7a15.85,15.85,0,0,1-7.56,2.71l-7.5,1,1.18-2.94s5,5.65,5,5.66A15.93,15.93,0,0,1,856,430.05l-1.81,7.33s-2.25-1.84-2.18-1.84l7-2.82a15.74,15.74,0,0,1,7.92-1.33,15.49,15.49,0,0,1,7.4,2.82l6.3,4.18s-.82.54-.81.49l-1.05-7.48a15.34,15.34,0,0,1,5.29-14.46l5.57-5.11s.71,2.78.69,2.77L883,412.68a15.69,15.69,0,0,1-7.1-3.63c-4.06-3.56-4.66-8.72-6.61-13.61Z" transform="translate(-740.66 -385.12)"/><path class="cls-5" d="M1029.46,479.65l4.57,1a7.84,7.84,0,0,0,7-2l3.38-3.22.49,4.64a7.82,7.82,0,0,0,4,6l4.11,2.22-4.26,1.91a7.82,7.82,0,0,0-4.49,5.72l-.84,4.59-3.13-3.47a7.81,7.81,0,0,0-6.82-2.5l-4.63.62,2.33-4.05a7.8,7.8,0,0,0,.27-7.26Z" transform="translate(-740.66 -385.12)"/><path d="M1029.46,479.65c4.11.67,8.31,1.92,11.5-1.74l3.93-4,.18,1.39.54,4.19a7.17,7.17,0,0,0,4.15,6l5.45,2.87-5.62,2.54a7.22,7.22,0,0,0-3,2.21,7.1,7.1,0,0,0-1.44,3.42c-.24,1.26-.91,4.84-1.14,6.06-.81-.91-3.24-3.65-4.08-4.61a7.16,7.16,0,0,0-6.79-2.61l-4.2.46-1.39.16c.46-.74,2.43-4,2.93-4.76,2.79-4,.58-7.76-1-11.58Zm0,0c2.24,4.07,4.7,7.54,2,12.12l-2,3.73-.68-1,4.18-.65a8.76,8.76,0,0,1,8.33,2.93l2.87,3.1-1.64.46c.54-2.62.69-6.28,2.53-8.44,1.66-2.29,5.19-3.31,7.6-4.47l-.06,1.71-3.7-2.05a8.77,8.77,0,0,1-4.82-7.4l-.36-4.21,1.14.42-3.14,2.82c-3.79,3.7-7.8,2.14-12.26.94Z" transform="translate(-740.66 -385.12)"/><path class="cls-1" d="M1109.67,688.14c-16.2,3.61-34,7-48.73-.56-7.72-4-13.7-10.6-19.5-17.08l-13.55-15.13" transform="translate(-740.66 -385.12)"/><path class="cls-2" d="M1027.89,655.37s.91,1,2.64,2.71,4.26,4.17,7.39,7.21c1.55,1.53,3.26,3.2,5.09,5s3.75,3.72,5.82,5.65a82.06,82.06,0,0,0,6.69,5.67,41.58,41.58,0,0,0,16.55,7.6,56.05,56.05,0,0,0,8.61,1.17c1.39.12,2.77.1,4.1.16s2.64,0,3.9,0,2.49-.09,3.66-.18,2.31-.15,3.38-.26c2.16-.18,4.12-.41,5.83-.63s3.19-.43,4.39-.61c2.41-.38,3.73-.66,3.73-.66s-1.31.31-3.66,1l-4.29,1.17c-1.68.45-3.59,1-5.73,1.44-1.07.25-2.19.49-3.37.72s-2.42.45-3.7.65-2.62.34-4,.51-2.82.25-4.3.25a47,47,0,0,1-9.33-.62,38.26,38.26,0,0,1-18.31-8.39,62.89,62.89,0,0,1-6.64-6.46c-2-2.18-3.69-4.33-5.28-6.34s-3.06-3.89-4.4-5.61c-2.68-3.44-4.84-6.23-6.36-8.13S1027.89,655.37,1027.89,655.37Z" transform="translate(-740.66 -385.12)"/><path class="cls-2" d="M1032,646a5.22,5.22,0,0,0,.2.88,10.4,10.4,0,0,0,1,2.37,17.72,17.72,0,0,0,2.44,3.22,48.8,48.8,0,0,0,3.94,3.68l1.13,1,1.27,1,2.69,2c2,1.24,4,2.69,6.28,3.89l1.71,1c.58.32,1.2.58,1.81.88l1.85.9.93.45,1,.4c1.32.51,2.61,1.11,4,1.6l4.17,1.43,4.25,1.19c1.41.34,2.81.61,4.18.93s2.75.45,4.09.7,2.66.35,3.95.48,2.56.28,3.79.28,2.44.11,3.6.12c2.31-.11,4.51,0,6.48-.33l2.84-.29c.89-.13,1.72-.31,2.5-.45l2.19-.41c.68-.12,1.26-.34,1.81-.48,2.16-.62,3.35-1,3.35-1s-1.17.43-3.25,1.32c-.53.2-1.09.5-1.75.71l-2.13.73c-.76.25-1.58.56-2.46.82l-2.82.73a63.27,63.27,0,0,1-6.59,1.28c-1.2.14-2.45.23-3.74.34a62.31,62.31,0,0,1-8.19,0c-1.42-.15-2.9-.19-4.36-.46s-3-.5-4.49-.82l-4.53-1.21c-1.51-.5-3-1-4.43-1.57s-2.8-1.25-4.16-1.87l-1-.47-1-.55-1.89-1.08c-.62-.36-1.24-.69-1.83-1.08l-1.71-1.19a61.37,61.37,0,0,1-6.08-4.8l-2.48-2.48-1.15-1.17-1-1.21A50.49,50.49,0,0,1,1035,653a20.17,20.17,0,0,1-2-3.63,13.12,13.12,0,0,1-.79-2.49C1032,646.27,1032,646,1032,646Z" transform="translate(-740.66 -385.12)"/></svg>