<svg xmlns="http://www.w3.org/2000/svg" xmlns:xlink="http://www.w3.org/1999/xlink" viewBox="0 0 529.96 469.78"><defs><style>.cls-1{isolation:isolate;}.cls-2{fill:url(#Super_Soft_Black_Vignette_2);}.cls-3{fill:#fff800;}.cls-4{opacity:0.5;mix-blend-mode:multiply;}.cls-5{fill:#f1f2f2;}.cls-6{fill:url(#Super_Soft_Black_Vignette_2-2);}.cls-7{fill:url(#Super_Soft_Black_Vignette_2-3);}.cls-8{fill:url(#Super_Soft_Black_Vignette_2-4);}.cls-9{fill:url(#Super_Soft_Black_Vignette_2-5);}</style><radialGradient id="Super_Soft_Black_Vignette_2" cx="-394.8" cy="1842.92" r="224.64" gradientTransform="matrix(0.85, -0.52, 0.52, 0.85, -343.19, -1578.59)" gradientUnits="userSpaceOnUse"><stop offset="0.57" stop-color="#130c0e"/><stop offset="0.8" stop-color="#130c0e"/><stop offset="1" stop-color="#130c0e"/></radialGradient><radialGradient id="Super_Soft_Black_Vignette_2-2" cx="-388.93" cy="2030.19" r="92.92" xlink:href="#Super_Soft_Black_Vignette_2"/><radialGradient id="Super_Soft_Black_Vignette_2-3" cx="-1547.34" cy="2015.65" r="73.5" gradientTransform="matrix(0.61, -0.79, 0.79, 0.61, -611.86, -2269.86)" xlink:href="#Super_Soft_Black_Vignette_2"/><radialGradient id="Super_Soft_Black_Vignette_2-4" cx="-1544.41" cy="1992.04" r="40.74" gradientTransform="matrix(0.61, -0.79, 0.79, 0.61, -611.86, -2269.86)" xlink:href="#Super_Soft_Black_Vignette_2"/><radialGradient id="Super_Soft_Black_Vignette_2-5" cx="-4045.72" cy="2251.05" r="40.73" gradientTransform="matrix(-0.94, 0.31, 0.1, 0.69, -3699.88, -294.21)" xlink:href="#Super_Soft_Black_Vignette_2"/></defs><g class="cls-1"><g id="Layer_2" data-name="Layer 2"><g id="Layer_2-2" data-name="Layer 2"><path class="cls-2" d="M393.14,0q-5.5-.11-11.17.07A308.77,308.77,0,0,0,314.17,10C275.07,20,235,37.09,196.77,60.45,135.8,97.76,86.7,146.72,58.53,198.29c-29.56,54.1-32.89,105-9.38,143.46s70.39,58.65,132,57c58.75-1.6,124.67-23,185.65-60.36S476.91,252.1,505.09,200.51C534.64,146.4,538,95.47,514.46,57,492.33,20.87,449.48.85,393.14,0Z"/><path class="cls-3" d="M505.67,54.17c-42.83-70-176.21-66.31-297.93,8.17C121.88,114.87,64.77,188.59,53.58,252c-6.2,28.64-3.33,55.42,10.17,77.49,42.82,70,176.2,66.31,297.93-8.17,85.85-52.53,143-126.24,154.16-189.68C522,103,519.17,76.25,505.67,54.17Z"/><g class="cls-4"><path class="cls-5" d="M92.08,208.3C72.77,190.21,137,123,171.75,96.8,209.26,68.55,247,49.56,252.17,48.72c5.5-.89-49.32,29.46-98.81,98.52C143,161.75,113.26,228.13,92.08,208.3Z"/></g><path class="cls-6" d="M442.06,254.23c0,4.67.14,8.7.11,10.32a180.61,180.61,0,0,1-11.43,59.58C422.11,347,409.06,368.26,393.3,387,404,361.23,408.9,333.39,405,305.58c-3.7-26.34-26.47-37-19.55-6.14,15.22,68.17-28.71,119.3-66.76,170.34,64.09-46.86,141-128.5,134.61-222.77A32.42,32.42,0,0,1,442.06,254.23Z"/><path class="cls-7" d="M106.61,107.14c-13.39,11.09-42.82,30.74-65.77,71.17-26,45.84-34.93,91.94-37.35,95.48-9.8,14.3,1.31-47.22,29.81-97.57C68.12,114.69,126.51,90.63,106.61,107.14Z"/><path class="cls-8" d="M62.2,125.43c-11.57,11.25-23.54,23.39-34.88,41.87C9.22,196.79,8.56,215.77,5.06,217.92,3.31,219,1.9,198.84,22.64,164.39S75.61,112.37,62.2,125.43Z"/><path class="cls-9" d="M272.3,40.13c14.72-6.54,25.47-13.44,50.22-19.69,37.64-9.5,48.92-6.54,52.37-8.75,1.7-1.1-14-3-51.86,6.14S255.22,47.73,272.3,40.13Z"/><path class="cls-3" d="M394.44,282.23c17.53,51.38,1.78,93.72-31,137,50.14-42.44,84.44-102.18,84.32-167.87C440.82,253.28,408.82,278.69,394.44,282.23Z"/></g></g></g></svg>