<svg xmlns="http://www.w3.org/2000/svg" viewBox="0 0 101.53 126.24"><defs><style>.cls-1{fill:#662d91;}.cls-2{fill:#fff;}</style></defs><g id="Layer_2" data-name="Layer 2"><g id="Layer_2-2" data-name="Layer 2"><path d="M.18,124.9v-5.26H1.32a8,8,0,0,1-1-2.12A8.66,8.66,0,0,1,0,115.06a10.94,10.94,0,0,1,.37-2.91,7,7,0,0,1,1.13-2.38,5.36,5.36,0,0,1,1.92-1.61,6,6,0,0,1,2.78-.59,6,6,0,0,1,2.78.59,5.55,5.55,0,0,1,1.95,1.61,7,7,0,0,1,1.14,2.38,11.37,11.37,0,0,1,.37,2.91,8.32,8.32,0,0,1-.36,2.46,9.09,9.09,0,0,1-1,2.12h4.56v5.26Zm6.08-5.1a2.14,2.14,0,0,0,1-.25,2.79,2.79,0,0,0,.84-.65,3.19,3.19,0,0,0,.56-1,3.82,3.82,0,0,0,0-2.44,3.19,3.19,0,0,0-.56-1,2.7,2.7,0,0,0-.84-.67,2.14,2.14,0,0,0-1-.25,2.1,2.1,0,0,0-1,.25,2.49,2.49,0,0,0-.84.67,3,3,0,0,0-.56,1,3.82,3.82,0,0,0,0,2.44,3,3,0,0,0,.56,1,2.57,2.57,0,0,0,.84.65A2.1,2.1,0,0,0,6.26,119.8Z"/><path d="M6.2,97.12a3.92,3.92,0,0,0-1.85.37,1.29,1.29,0,0,0-.7,1.24,1.5,1.5,0,0,0,.64,1.39,3.36,3.36,0,0,0,1.77.4h5.75v5.26H.18v-5.26H1.36a6.6,6.6,0,0,1-.69-1.24,8.14,8.14,0,0,1-.42-1.23A7,7,0,0,1,0,96.93c0-.35,0-.64,0-.88a4.27,4.27,0,0,1,.58-2.41A3.9,3.9,0,0,1,2,92.35a5.25,5.25,0,0,1,1.82-.54,16.53,16.53,0,0,1,1.76-.1Z"/><path d="M6.93,85.13a1.7,1.7,0,0,0,1-.3,2.47,2.47,0,0,0,.7-.77,3.93,3.93,0,0,0,.43-1A4.09,4.09,0,0,0,9.21,82a3.73,3.73,0,0,0-.33-1.67,3.09,3.09,0,0,0-.81-1V74a4.29,4.29,0,0,1,1.75,1A5.62,5.62,0,0,1,11,76.72a9.25,9.25,0,0,1,.71,2.35A16.16,16.16,0,0,1,12,82q0,4.14-1.55,6.27a5,5,0,0,1-4.36,2.14,5.1,5.1,0,0,1-4.55-2.13A11,11,0,0,1,.09,82.05Q.09,78,1.9,76a6.54,6.54,0,0,1,5-2ZM2.68,82.05a4.33,4.33,0,0,0,.38,1.89,2.63,2.63,0,0,0,1.32,1.19V79a2.25,2.25,0,0,0-1.26,1.09A4,4,0,0,0,2.68,82.05Z"/><path d="M6,61a2.84,2.84,0,0,0-2,.63,2.73,2.73,0,0,0-.69,2.1,3.22,3.22,0,0,0,.28,1.39,2.91,2.91,0,0,0,.69.9,2.46,2.46,0,0,0,.87.5,3.13,3.13,0,0,0,.85.14h5.77V72H.18V66.66H1.61A10.21,10.21,0,0,1,.38,64.11,9.24,9.24,0,0,1,0,61.4a8.28,8.28,0,0,1,.36-2.6,4.91,4.91,0,0,1,1-1.79,4,4,0,0,1,1.55-1,5.69,5.69,0,0,1,2-.34h6.91V61Z"/><path d="M6.93,48.61a1.7,1.7,0,0,0,1-.3,2.47,2.47,0,0,0,.7-.77,3.93,3.93,0,0,0,.43-1,4.09,4.09,0,0,0,.14-1.07,3.71,3.71,0,0,0-.33-1.67,3,3,0,0,0-.81-1V37.47a4.43,4.43,0,0,1,1.75,1A5.62,5.62,0,0,1,11,40.2a9.25,9.25,0,0,1,.71,2.35A16.16,16.16,0,0,1,12,45.44a10.64,10.64,0,0,1-1.55,6.27,5.06,5.06,0,0,1-4.36,2.14,5.1,5.1,0,0,1-4.55-2.13A11,11,0,0,1,.09,45.53c0-2.72.6-4.74,1.81-6.08a6.57,6.57,0,0,1,5-2ZM2.68,45.53a4.25,4.25,0,0,0,.38,1.88,2.6,2.6,0,0,0,1.32,1.2v-6.1A2.25,2.25,0,0,0,3.12,43.6,4,4,0,0,0,2.68,45.53Z"/><path d="M6.08,30.47a5.26,5.26,0,0,0,1.11-.1A1.61,1.61,0,0,0,8,30a1.67,1.67,0,0,0,.49-.7,3.45,3.45,0,0,0,.16-1.16,3,3,0,0,0-.25-1.31A2.67,2.67,0,0,0,7.74,26a2.32,2.32,0,0,0-.83-.45,2.85,2.85,0,0,0-.83-.13H.18V20.16H11.81v5.26H10.67a9.68,9.68,0,0,1,.66,1.18,7.54,7.54,0,0,1,.4,1.12,7.2,7.2,0,0,1,.2,1.16c0,.41.06.84.06,1.3a8.11,8.11,0,0,1-.34,2.51,4.52,4.52,0,0,1-1,1.72,3.81,3.81,0,0,1-1.47,1,5.6,5.6,0,0,1-1.92.32H.18V30.47Z"/><path d="M6.2,9.27a3.92,3.92,0,0,0-1.85.37,1.29,1.29,0,0,0-.7,1.24,1.5,1.5,0,0,0,.64,1.39,3.36,3.36,0,0,0,1.77.4h5.75v5.26H.18V12.67H1.36a6.93,6.93,0,0,1-.69-1.24A9,9,0,0,1,.25,10.2,7.26,7.26,0,0,1,0,9.08c0-.35,0-.64,0-.88A4.27,4.27,0,0,1,.58,5.79,3.9,3.9,0,0,1,2,4.5,5,5,0,0,1,3.83,4a16.53,16.53,0,0,1,1.76-.1Z"/><path d="M101.51,42.88a41.7,41.7,0,0,1-39.4,40.47V54.08A26.56,26.56,0,0,0,87.2,28.31,26.83,26.83,0,0,0,64.07,1.22h-.15l-.38-.05-.27,0c-.28,0-.74-.07-1.16-.1V0C84.36,1.57,102.14,20.26,101.51,42.88Z"/><path class="cls-1" d="M84.2,25A23.4,23.4,0,0,1,62.11,47.73V1c.42,0,.88.06,1.16.1l.27,0,.38.05h.19A23.62,23.62,0,0,1,84.2,25Z"/><path class="cls-1" d="M57.33,25.94c-.74-.06-1.47-.12-2.22-.12H37.76a19.29,19.29,0,0,0-19.3,19.25l-.1,57.38.12,0V107a19.3,19.3,0,0,0,38.59,0V86.55a2.3,2.3,0,0,0,.26,0Z"/><rect x="19.1" width="38.23" height="22.3"/><path class="cls-2" d="M64.11,1.23h0Z"/></g></g></svg>