<svg id="Слой_1" data-name="Слой 1" xmlns="http://www.w3.org/2000/svg" viewBox="0 0 734.39 419.76"><defs><style>.cls-1{fill:#f9e599;}.cls-2{fill:#b6d7e0;}.cls-3{fill:#1d1e1c;}.cls-4{fill:#4e5778;}.cls-5{fill:#fff;}</style></defs><path class="cls-1" d="M1007.43,712.57c1.65,5.61,7.17,9.32,12.82,10.8s11.59,1.2,17.42,1.56,11.93,1.52,16.38,5.31a50.6,50.6,0,0,1,4.08,4.2" transform="translate(-593.03 -330.27)"/><path d="M1058.13,734.44s-.56-.59-1.63-1.62a19.58,19.58,0,0,0-4.93-3.67,26.11,26.11,0,0,0-8.6-2.43c-3.36-.44-7.11-.45-11.17-.57a45.25,45.25,0,0,1-11.5-1.57,21.37,21.37,0,0,1-8.38-4.68,15.84,15.84,0,0,1-2.4-2.77,15,15,0,0,1-1.33-2.38,14.84,14.84,0,0,1-.58-1.61l-.18-.57.21.56a9.55,9.55,0,0,0,.74,1.52,12.65,12.65,0,0,0,1.6,2.12,15.74,15.74,0,0,0,2.65,2.25,22.27,22.27,0,0,0,8.23,3.29,68.43,68.43,0,0,0,11,.93,59.59,59.59,0,0,1,11.48,1.17,24.18,24.18,0,0,1,8.78,3.77,17.75,17.75,0,0,1,2.74,2.42c.73.79,1.29,1.5,1.76,2.08C1057.58,733.84,1058.13,734.44,1058.13,734.44Z" transform="translate(-593.03 -330.27)"/><path class="cls-1" d="M1057.84,724.34a26.46,26.46,0,0,0-11.19-9.08c-3.42-1.45-7.09-2.17-10.64-3.25a54.09,54.09,0,0,1-33-28.94" transform="translate(-593.03 -330.27)"/><path d="M1003,683.07s.45.89,1.32,2.46c.48.75,1,1.69,1.77,2.74l1.19,1.64c.42.58.93,1.16,1.42,1.78s1,1.24,1.63,1.89,1.19,1.3,1.85,1.95,1.34,1.34,2.07,2,1.49,1.34,2.28,2c1.59,1.34,3.34,2.63,5.19,3.92a66.4,66.4,0,0,0,6,3.55,63.06,63.06,0,0,0,6.32,2.89c1.06.36,2.08.78,3.12,1.11l3.09,1a51.27,51.27,0,0,1,5.77,2.08,25.47,25.47,0,0,1,4.67,2.69,28.16,28.16,0,0,1,5.53,5.33c.55.71,1,1.28,1.23,1.67s.39.55.41.59l-.43-.57c-.3-.37-.75-.9-1.37-1.55a25,25,0,0,0-6-4.52,25.94,25.94,0,0,0-4.69-2c-1.75-.57-3.68-1-5.74-1.47-1-.23-2.11-.47-3.2-.75s-2.21-.66-3.34-1a45.65,45.65,0,0,1-6.74-2.9,47,47,0,0,1-6.22-3.88,49.68,49.68,0,0,1-5.17-4.43c-.77-.76-1.52-1.51-2.18-2.29s-1.34-1.51-1.92-2.28-1.16-1.48-1.66-2.22-1-1.42-1.42-2.12c-.88-1.37-1.58-2.66-2.19-3.79s-1.05-2.14-1.45-3C1003.43,684,1003,683.07,1003,683.07Z" transform="translate(-593.03 -330.27)"/><path class="cls-1" d="M1053.09,730.29a42.74,42.74,0,0,1-15.75,4.31l17.47,3.39c6.41,1.24,13.07,2.59,18.28,6.53-4.52-12.31-7.55-25.09-10.57-37.84a170.44,170.44,0,0,1-3.84,19" transform="translate(-593.03 -330.27)"/><path d="M1058.68,725.68s.45-1.7,1.06-4.84c.31-1.57.66-3.49,1-5.74l.51-3.6c.06-.45.13-.91.19-1.37s.15-1.26.23-2q.27-2.31.54-4.74a5.92,5.92,0,0,1,.3.65c.12.44.25.88.37,1.33.25.92.51,1.87.78,2.83.45,1.64.92,3.33,1.4,5.09.77,2.74,1.59,5.66,2.44,8.73s1.81,6.26,2.82,9.55c.52,1.64,1,3.31,1.58,5l.84,2.54.53,1.55c.3.86.61,1.73.92,2.6l1.81,5.09-2.54-1.83-1.32-1c-.45-.33-.82-.54-1.24-.81l-1.21-.78a5.76,5.76,0,0,0-.6-.33l-.31-.17c-.37-.2-.75-.37-1.13-.55a37.08,37.08,0,0,0-4.7-1.77c-3.17-1-6.37-1.63-9.43-2.32-6.13-1.36-11.63-2.64-16.29-3.73l-4.11-1,4.17-.15a41.41,41.41,0,0,0,11.71-2.1c1.35-.46,2.36-.88,3-1.18l1-.47-1,.5c-.67.32-1.67.8-3,1.34a44,44,0,0,1-11.7,3l.06-1.11c4.73.72,10.32,1.59,16.51,2.62a96.15,96.15,0,0,1,9.75,2,36.77,36.77,0,0,1,5.1,1.77c.43.19.85.38,1.27.59l.28.14h0s0,0,0,0h0l-.35-1c-.28-.87-.55-1.73-.83-2.58q-.8-2.58-1.5-5.1c-.94-3.35-1.75-6.61-2.48-9.73s-1.36-6.09-1.94-8.89c-.14-.7-.28-1.39-.42-2.06l-.14-.73c0-.19-.06-.37-.1-.55l0-.28s0,.05,0,.09a3.58,3.58,0,0,1-.1.53,2.8,2.8,0,0,1-.06.28.9.9,0,0,0,0,.16l-.09.44-.81,3.57c-.53,2.22-1,4.12-1.43,5.67C1059.14,724,1058.7,725.59,1058.68,725.68Z" transform="translate(-593.03 -330.27)"/><path class="cls-2" d="M630.29,613.19c4-5.06,8.86-10.25,15.26-11.22,4.94-.76,9.84,1.18,14.65,2.57A68.61,68.61,0,0,0,692.42,606" transform="translate(-593.03 -330.27)"/><path d="M692.42,606l-2.58.55c-1.66.36-4.08.82-7.12,1.18-1.52.17-3.19.3-5,.36s-3.73,0-5.77-.09a59.49,59.49,0,0,1-6.35-.76,58.63,58.63,0,0,1-6.68-1.59c-2.24-.68-4.35-1.39-6.38-1.9a20.77,20.77,0,0,0-5.86-.75,15,15,0,0,0-5.17,1.16,21.23,21.23,0,0,0-4.16,2.37,38.86,38.86,0,0,0-5.32,4.74c-1.16,1.23-1.74,2-1.74,2s.57-.76,1.59-2.1a44.67,44.67,0,0,1,4.79-5.43,20.88,20.88,0,0,1,4.11-3,15.86,15.86,0,0,1,5.73-1.87,20.82,20.82,0,0,1,6.6.41c2.22.46,4.41,1.15,6.6,1.81s4.31,1.22,6.4,1.67,4.12.82,6.07,1.12,3.82.49,5.58.62,3.4.2,4.91.22,2.87,0,4.07-.06,2.23-.14,3.07-.23,1.5-.19,1.94-.25Z" transform="translate(-593.03 -330.27)"/><path class="cls-2" d="M634.37,619.28c4.06-3.8,10.28-4.43,15.69-3.17s10.29,4.14,15.23,6.68,10.24,4.84,15.8,4.77c6.62-.09,12.7-3.49,19.15-5" transform="translate(-593.03 -330.27)"/><path d="M700.24,622.57a27.28,27.28,0,0,0-2.62.81c-1.67.59-4,1.61-7,2.8a41.53,41.53,0,0,1-5,1.68,22,22,0,0,1-6.13.76,24.89,24.89,0,0,1-6.75-1.15,44.29,44.29,0,0,1-6.69-2.72c-4.38-2.2-8.25-4.58-12-6.2a31.57,31.57,0,0,0-5.43-1.87,21.84,21.84,0,0,0-5-.58,17.49,17.49,0,0,0-4.13.5,13.81,13.81,0,0,0-3,1.13,9.64,9.64,0,0,0-1,.6,7.46,7.46,0,0,0-.69.5l-.55.45.53-.47c.17-.16.39-.34.66-.55a9.68,9.68,0,0,1,1-.69,14.35,14.35,0,0,1,2.9-1.49,18.42,18.42,0,0,1,4.23-1.05,22.12,22.12,0,0,1,5.33,0,28.81,28.81,0,0,1,5.94,1.44c4.08,1.4,8.17,3.68,12.41,5.8s8.4,3.74,12.36,4.12a22.11,22.11,0,0,0,5.66-.18,47,47,0,0,0,5-1.07c3-.82,5.51-1.55,7.24-2Z" transform="translate(-593.03 -330.27)"/><path class="cls-2" d="M653,621.44A86.83,86.83,0,0,1,660.45,636c-14.15-6.63-28.69-13.37-44.27-14.54q11.37-18.5,22.57-37.09l1.93,20.2" transform="translate(-593.03 -330.27)"/><path d="M640.68,604.59s-.18-1.76-.58-5c-.2-1.6-.44-3.55-.73-5.81-.15-1.14-.3-2.35-.47-3.63-.08-.64-.17-1.3-.26-2,0-.34-.08-.68-.13-1l0-.26,0-.14v-.22a.75.75,0,0,0,0-.28l0-.12a.88.88,0,0,0-.07.14c-.05.11-.1.21-.14.28l-.31.55-2.41,4.25c-1.68,2.93-3.48,6.07-5.38,9.36s-3.93,6.72-6,10.29c-1.06,1.77-2.13,3.58-3.23,5.41-.55.92-1.11,1.84-1.66,2.77l-.42.69-.22.35,0,.09h0l.91.1c1.09.16,2.18.29,3.25.48,2.14.39,4.23.83,6.26,1.37a101.57,101.57,0,0,1,11.44,3.79c7.12,2.83,13.24,5.94,18.37,8.54l.42.21.14.06a1.79,1.79,0,0,1,.32.18s-.05-.18-.07-.26l0-.16,0-.08,0,0,0-.11c-.46-1.2-.92-2.33-1.38-3.37-.91-2.09-1.78-3.85-2.52-5.27-1.5-2.85-2.48-4.33-2.48-4.33l.7,1.08c.46.71,1.12,1.77,2,3.15s1.8,3.09,2.85,5.13q.79,1.53,1.62,3.3c.14.33.44,1,.63,1.43l.25.71.13.36c0,.1.15.31,0,.19-.48-.21-.93-.37-1.47-.62l-1.35-.6c-5.29-2.24-11.57-5-18.69-7.43-3.56-1.23-7.34-2.4-11.3-3.34-2-.47-4-.87-6.08-1.22-1-.17-2.08-.29-3.13-.44l-2.33-.23-1.62-.15-.82-.08c-.12,0-.33,0-.36-.07l.21-.35,1.69-2.81,1-1.66,1.69-2.75c1.13-1.81,2.23-3.6,3.32-5.36,2.21-3.49,4.34-6.86,6.36-10.08s4-6.23,5.84-9.07q1.4-2.12,2.67-4.1l1.94-3,.24-.38.13-.19.06-.09s0,0,0,.07c0,.3.08.59.11.88.08.58.16,1.15.2,1.82.38,6,.69,10.76.9,14.09S640.68,604.59,640.68,604.59Z" transform="translate(-593.03 -330.27)"/><path class="cls-3" d="M872.83,750a28.64,28.64,0,0,0,1.5-3.46,51,51,0,0,0,2.51-9.86,60.72,60.72,0,0,0,.67-6.9c0-1.23,0-2.57.22-4.07a12.67,12.67,0,0,1,1.43-4.86,8.73,8.73,0,0,1,4.6-4.06,7.24,7.24,0,0,1,3.6-.32,10.4,10.4,0,0,1,3,1,34.4,34.4,0,0,0,3.83,1.94,2.51,2.51,0,0,0,2.16-.26,6.68,6.68,0,0,0,2.19-2.35,9.23,9.23,0,0,0,.77-1.62c.1-.28.19-.56.26-.84s.14-.63.21-1c.5-2.66.48-5.77,1.16-8.93a15.87,15.87,0,0,1,1.69-4.56,14.57,14.57,0,0,1,2.84-3.58,15.94,15.94,0,0,1,6.88-3.67,16.66,16.66,0,0,1,3.31-.44,16.31,16.31,0,0,1,2.91.26,23,23,0,0,1,4.32,1.34c1.14.47,2,.86,2.58,1.11l.91.37s-.32-.12-.93-.31-1.51-.47-2.69-.74a19.77,19.77,0,0,0-4.31-.52,14.07,14.07,0,0,0-2.59.29,13.55,13.55,0,0,0-7.65,4.88,11.39,11.39,0,0,0-1.61,2.92,12.06,12.06,0,0,0-.72,3.43c-.24,2.52.1,5.48-.27,9-.06.45-.11.87-.21,1.36a14.57,14.57,0,0,1-.35,1.45,14.17,14.17,0,0,1-1.16,2.76,12,12,0,0,1-4.42,4.73,9,9,0,0,1-3.58,1.17,8.65,8.65,0,0,1-3.7-.48,27.55,27.55,0,0,1-4.57-2.52,3.18,3.18,0,0,0-2.2-.66,3.72,3.72,0,0,0-2,1.46,8.57,8.57,0,0,0-1.33,3c-.33,1.18-.55,2.47-.83,3.77a52.53,52.53,0,0,1-2.06,7,62.39,62.39,0,0,1-4.45,9.44l-1.42,2.42Z" transform="translate(-593.03 -330.27)"/><path class="cls-3" d="M1119.42,551.55a22.6,22.6,0,0,0,2-1.67c1.24-1.14,3-2.86,5-5.06,1-1.1,2.11-2.31,3.27-3.62s2.48-2.74,3.47-4.09a7.46,7.46,0,0,0,1.09-2,2.46,2.46,0,0,0,.09-1.47,22.07,22.07,0,0,0-1-2.41,10.48,10.48,0,0,1-.89-4.54,12.06,12.06,0,0,1,3.59-7.82,17.36,17.36,0,0,1,6.11-3.83,48.36,48.36,0,0,1,5.59-1.67l4.8-1.17c3-.69,5.33-1.24,7-1.67s2.5-.74,2.5-.74-.86.36-2.34,1.16-3.61,2-6.23,3.51l-4.31,2.4c-1.56.86-3.22,1.71-4.76,2.67a15.7,15.7,0,0,0-4,3.3,7.38,7.38,0,0,0-1.73,4.11,4.13,4.13,0,0,0,.06.94,7,7,0,0,0,.32,1.09,16.33,16.33,0,0,1,1.12,3.79,8,8,0,0,1-.92,4.7,11.94,11.94,0,0,1-2.37,3,24.48,24.48,0,0,1-2.43,2c-.78.56-1.54,1.1-2.28,1.6-1.49,1-2.91,1.9-4.23,2.68-2.62,1.55-4.79,2.7-6.27,3.52S1119.42,551.55,1119.42,551.55Z" transform="translate(-593.03 -330.27)"/><path class="cls-1" d="M869.78,370.13l-2.24.13a4.67,4.67,0,0,0,2.55-3.53,14,14,0,0,0-.11-4.51l-2.76-20.47a13.71,13.71,0,0,1-.14-4,7.14,7.14,0,0,1,6.41-5.82,1.74,1.74,0,0,1,.82.09,2,2,0,0,1,.88,1.55,58.64,58.64,0,0,1-4.7,36.47c-.13.27-.36.59-.65.53S869.69,370.24,869.78,370.13Z" transform="translate(-593.03 -330.27)"/><path d="M869.78,370.13a.71.71,0,0,0,0,.19c0,.15.19.23.37.06a2.05,2.05,0,0,0,.4-.84c.12-.38.27-.81.43-1.29.3-1,.64-2.18,1-3.59s.65-3,.91-4.8.49-3.75.69-5.83.26-4.33.35-6.68.11-4.82,0-7.39c-.05-1.29-.18-2.6-.28-3.93-.07-.67-.13-1.34-.18-2l0-.57h0s0,0,0,0-.09,0-.17,0a5.89,5.89,0,0,0-1.07.11,5.57,5.57,0,0,0-4.27,4.25,9,9,0,0,0,.09,3.3c.2,1.13.45,2.25.71,3.34.53,2.18,1.12,4.27,1.53,6.27a44.84,44.84,0,0,1,.8,5.74c.14,1.81.23,3.5.3,5.06a19.59,19.59,0,0,1-.15,4.43,6.62,6.62,0,0,1-1.51,3.24,4.37,4.37,0,0,1-2,1.28l-.09-.38,1.77,0a2.21,2.21,0,0,1,.48,0l-.47.08-1.75.25-1,.14.87-.52a3.56,3.56,0,0,0,1.33-1.46,5.34,5.34,0,0,0,.53-2.83,24.45,24.45,0,0,0-.75-3.94c-.35-1.51-.71-3.17-1.05-5a44.36,44.36,0,0,1-.75-5.74c-.13-2.05-.12-4.21-.18-6.46,0-1.12-.1-2.25-.2-3.42a16.51,16.51,0,0,1,0-3.73,8.93,8.93,0,0,1,4.78-6.49,8.19,8.19,0,0,1,1.56-.59l.48-.1.65-.1a3.32,3.32,0,0,1,1.16.19,3.49,3.49,0,0,1,.87.56,3.71,3.71,0,0,1,.63.83,5.86,5.86,0,0,1,.56,1.44l.54,2.11c.29,1.41.51,2.81.67,4.19a45.17,45.17,0,0,1,.27,8,41.84,41.84,0,0,1-1.13,7.1,49.71,49.71,0,0,1-4,10.52c-.67,1.33-1.31,2.43-1.83,3.31l-.7,1.18a2.39,2.39,0,0,1-.63.83.45.45,0,0,1-.4.05.21.21,0,0,1-.12-.26A.27.27,0,0,1,869.78,370.13Z" transform="translate(-593.03 -330.27)"/><path class="cls-1" d="M871.53,380.32c-.09-.57-.2-1.13-.32-1.7a2.53,2.53,0,0,0,.12-.36Z" transform="translate(-593.03 -330.27)"/><path d="M871.53,380.32s-.08-.05-.36-.13l-.5-.14c-.21-.06-.44-.12-.66-.2a5.16,5.16,0,0,1-.63-.24c-.19-.1-.32-.2-.33-.32a.75.75,0,0,1,.17-.41,2.09,2.09,0,0,1,.74-.49l2.7.19,0,0-.47.12a.63.63,0,0,0-.25.15l0-.4c0,.14.12.23.45.29a3.18,3.18,0,0,1,.69.21c.13.09,0,.21-.06.32a2.66,2.66,0,0,1-.4.34l-.46.3-.36.22a1.22,1.22,0,0,0-.25.17s-.08,0-.3-.09a3.83,3.83,0,0,1-.42-.08l-.54-.11c-.16-.05-.35-.1-.49-.16s-.26-.14-.16-.26a3.61,3.61,0,0,1,.57-.43c.28-.17.39-.31.31-.42l0-.39a.5.5,0,0,0-.14-.19L870,378l0,0-2.13-1.13,4.84,1.33a1.78,1.78,0,0,1,.81.34.7.7,0,0,1,.25.37c0,.12-.09.25-.27.37a4.32,4.32,0,0,1-.57.37c-.2.11-.41.22-.61.31l-.46.23A3,3,0,0,0,871.53,380.32Z" transform="translate(-593.03 -330.27)"/><path class="cls-1" d="M859.73,372.31a3.15,3.15,0,0,1,1.64-1.63c2.46-1.17,5.54,0,7.29,2.1a13,13,0,0,1,2.55,5.84,3.72,3.72,0,0,1-1.88,2.11,5.4,5.4,0,0,1-5.11-.63,12.63,12.63,0,0,1-3.56-4C859.93,375,859.25,373.57,859.73,372.31Z" transform="translate(-593.03 -330.27)"/><path d="M859.73,372.31s0,.12-.05.35a2.33,2.33,0,0,0,.08,1,3.07,3.07,0,0,0,.84,1.28,11.56,11.56,0,0,0,1.74,1.28l2,1.3a16,16,0,0,0,1.84,1,4.62,4.62,0,0,0,1.83.46h.44a2.08,2.08,0,0,0,.42,0,2.22,2.22,0,0,0,1-.49,2.5,2.5,0,0,0,.2-.18h0c0,.07,0-.15,0-.28a3.1,3.1,0,0,0,0-.43,5.65,5.65,0,0,0-.36-1.6,4.57,4.57,0,0,0-2-2.23c-.79-.46-1.5-.73-2.1-1.09s-1.14-.72-1.71-1a3.85,3.85,0,0,0-1.81-.58,2.65,2.65,0,0,0-1.46.38,2.8,2.8,0,0,0-.89,1,.82.82,0,0,1,.11-.34,3.38,3.38,0,0,1,.59-.86,7.42,7.42,0,0,1,1.33-1.14,6.26,6.26,0,0,1,2.37-1,5,5,0,0,1,3.15.45,5.4,5.4,0,0,1,2.45,2.6c.52,1.12.81,2.28,1.27,3.37.22.55.46,1.1.73,1.66l.2.42a4.29,4.29,0,0,1,.27.58,1.2,1.2,0,0,1,.13.21v.22l0,.43a2.75,2.75,0,0,1-.09.65,5,5,0,0,1-1.17,2.26,5.14,5.14,0,0,1-1.08.84,5.85,5.85,0,0,1-1.19.49,7.17,7.17,0,0,1-4.53-.33,7,7,0,0,1-2.94-2.39,7.66,7.66,0,0,1-1.26-2.69c-.18-.87-.35-1.63-.46-2.33a10.4,10.4,0,0,1-.19-1.73,3.47,3.47,0,0,1,.14-1A.84.84,0,0,1,859.73,372.31Z" transform="translate(-593.03 -330.27)"/><path class="cls-1" d="M871.33,378.26l-.19-2A2.91,2.91,0,0,1,871.33,378.26Z" transform="translate(-593.03 -330.27)"/><path d="M871.33,378.26A2,2,0,0,0,871,378c-.14-.07-.26-.15-.45-.23l-.32-.12-.31-.1a3.61,3.61,0,0,0-.6-.13c-.18,0-.29,0-.28-.05l.2-.1a5.5,5.5,0,0,0,.7-.43l0,0,2.41-.71c-.33.17-.57.33-.52.46s.11.12.22.17l.45.15a3,3,0,0,1,.36.14c.08.05.13.1.11.15a.85.85,0,0,1-.36.34l-.25.15-.29.15c-.18.09-.3.16-.46.23a1.79,1.79,0,0,0-.34.19,3.33,3.33,0,0,0-.38-.13c-.16,0-.29-.08-.49-.13l-.31-.09-.28-.1a1,1,0,0,1-.41-.26c0-.05,0-.11.07-.18l.34-.21.41-.22c.09-.07.19-.15.18-.21s-.24-.25-.6-.35l-5.92-1.79,8.34,1.08h.05a1.5,1.5,0,0,1,1,.33,1.38,1.38,0,0,1,.38.64.74.74,0,0,1-.22.64,2.32,2.32,0,0,1-.61.47,3.13,3.13,0,0,1-.67.27c-.21.06-.35.11-.51.14A2.71,2.71,0,0,0,871.33,378.26Z" transform="translate(-593.03 -330.27)"/><path class="cls-4" d="M658.62,701.28a4.68,4.68,0,0,1-1.32-2.68c-.1-1.75,1.38-3.18,2.92-4,2.64-1.44,5.7-1.87,8.69-2.29l25.28-3.48-1.12.27,1.16.38a5.66,5.66,0,0,1,3.42-3.41c2.72-.89,5.73.15,8.05,1.82l-6.5-4.42c2.45.49,5,1,7,2.59s3.06,4.5,1.77,6.65c-1.17,1.95-3.71,2.51-6,2.71-2.83.25-6.26-.09-7.6-2.59a3.84,3.84,0,0,1-.35-2.51,41.56,41.56,0,0,0-14,8.54c-1.9,1.76-3.67,3.72-5.91,5A12.68,12.68,0,0,1,658.62,701.28Z" transform="translate(-593.03 -330.27)"/><path class="cls-3" d="M658.62,701.28l.55.55a11.15,11.15,0,0,0,1.75,1.4A12.47,12.47,0,0,0,669,705.1a11.26,11.26,0,0,0,5.37-2.11,45.65,45.65,0,0,0,5-4.85,39,39,0,0,1,6.4-5.15,40.85,40.85,0,0,1,3.86-2.2l1-.49.52-.24.27-.12.34-.14,2-.76c.65-.23,1.41-.55,1.92-.7l-.31,2.1a3.66,3.66,0,0,0-.06.91,2.94,2.94,0,0,0,.05.35l0,.14a3.08,3.08,0,0,0,.56.94,4.43,4.43,0,0,0,2.3,1.19,11.78,11.78,0,0,0,3.13.24,14.15,14.15,0,0,0,3.23-.49,4.25,4.25,0,0,0,2.34-1.54,3.26,3.26,0,0,0,.37-2.7,5.59,5.59,0,0,0-1.64-2.71,9.43,9.43,0,0,0-3.07-1.75,28.23,28.23,0,0,0-3.5-1l.44-1.06c2.19,1.61,4.32,3.12,6.41,4.57l-.46.67a9.49,9.49,0,0,0-6.17-2,5.07,5.07,0,0,0-2.81,1.07,4.7,4.7,0,0,0-1,1.09,5.76,5.76,0,0,0-.84,1.9l-.72-.19-.61-.18-.38-.11c-.1,0,0,0-.05,0h0l.07,0,0,0h-.05s0,.08.06-.08l-.07.09,0,0-.14,0-.28.05-1.13.2-2.23.38c-1.47.25-2.92.47-4.33.67-2.82.41-5.51.74-8,1s-4.94.49-7.16.68a42,42,0,0,0-6,.78,11.81,11.81,0,0,0-4.46,1.93,3.83,3.83,0,0,0-1.7,3,3.91,3.91,0,0,0,.79,2.1c.3.42.48.63.48.63a5.07,5.07,0,0,1-.51-.61,4,4,0,0,1-.85-2.11,4,4,0,0,1,1.65-3.22,13.31,13.31,0,0,1,4.45-2.3,48.32,48.32,0,0,1,6-1.39c2.19-.42,4.55-.87,7.08-1.29s5.2-.84,8-1.21c1.42-.19,2.87-.36,4.35-.53l2.25-.23,1.14-.12.29,0h.14l.27,0,1.08-.07.06-.08h0v.09l0,.09,0,.19,0,.2,0,.09s0,0,0,.07l0,0-.57-.48-.14-.13-.07-.06h0l-.05.22,0,.11s0,0,0,0h0l0,0,.38.14.15,0h0s0,0,0,0a7.82,7.82,0,0,1,.67-1,6.27,6.27,0,0,1,1.29-1.23,5.7,5.7,0,0,1,1.62-.8,7.45,7.45,0,0,1,1.76-.3,11.11,11.11,0,0,1,6.69,2.22l-.46.66c-2.12-1.41-4.31-2.83-6.61-4.27l-2.45-1.53,2.89.47a35.66,35.66,0,0,1,3.72.76,11,11,0,0,1,3.74,1.76,7.23,7.23,0,0,1,2.5,3.52,5.37,5.37,0,0,1-.44,4.49,6.41,6.41,0,0,1-3.52,2.58,16,16,0,0,1-3.82.69,13.78,13.78,0,0,1-3.83-.22,6.86,6.86,0,0,1-3.64-1.92,5.47,5.47,0,0,1-1.13-1.89l-.07-.26,0-.06v0a.25.25,0,0,1,0-.08c0-.06-.1,0-.21,0l-.92.39-1,.45c-1.3.6-2.54,1.25-3.72,1.94a45.19,45.19,0,0,0-6.36,4.51A40.39,40.39,0,0,1,675,704a12.58,12.58,0,0,1-6,1.67,14.29,14.29,0,0,1-4.88-.73,13.72,13.72,0,0,1-3.26-1.61,11.67,11.67,0,0,1-1.73-1.45C658.79,701.48,658.62,701.28,658.62,701.28Z" transform="translate(-593.03 -330.27)"/><path class="cls-1" d="M1159.18,405.21l3.19,7.71a14,14,0,0,0,10,8.32l8.16,1.74-6.35,5.42a14,14,0,0,0-4.82,12.07l.86,8.31-7.11-4.37a14,14,0,0,0-13-.86l-7.63,3.39,2-8.11a14,14,0,0,0-3.19-12.6l-5.59-6.21,8.33-.66a14,14,0,0,0,11-6.93Z" transform="translate(-593.03 -330.27)"/><path d="M1159.19,405c3.49,6.93,5.15,14,14.2,15.16l10.93,1.81-2.76,2.19-5.92,4.7a13.09,13.09,0,0,0-5.42,12.28l.52,7.54s.07,1,.07,1l-.87-.49-6.58-3.72a13.06,13.06,0,0,0-13.41-.43l-6.79,3.31-3,1.45c.49-2.07,2-8.45,2.49-10.62a14.17,14.17,0,0,0,.5-3.38,12.34,12.34,0,0,0-2.57-7.72c-.76-1-5.35-5.91-6.24-6.92l-2.59-2.85,11.33-.29a13.13,13.13,0,0,0,10.75-5.09c1.78-2.58,3.74-5.5,5.34-7.94Zm0,.35c-2.57,4.63-3.79,9.66-8.29,12.7a15.81,15.81,0,0,1-7.56,2.71l-7.5,1,1.18-2.95s5,5.66,5,5.67a15.93,15.93,0,0,1,3.83,15.49l-1.81,7.33s-2.25-1.84-2.17-1.84l7-2.82a15.77,15.77,0,0,1,7.93-1.33,15.35,15.35,0,0,1,7.39,2.82l6.3,4.18s-.82.54-.81.49l-1-7.48a15.33,15.33,0,0,1,5.28-14.46l5.57-5.11s.71,2.78.69,2.77l-7.31-1.93a15.58,15.58,0,0,1-7.1-3.62c-4-3.56-4.66-8.72-6.61-13.61Z" transform="translate(-593.03 -330.27)"/><path class="cls-1" d="M1257.46,538.91l4.56,1a7.83,7.83,0,0,0,7-2l3.38-3.22.5,4.64a7.78,7.78,0,0,0,4,6l4.1,2.22-4.25,1.91a7.79,7.79,0,0,0-4.49,5.72l-.84,4.59-3.13-3.46a7.81,7.81,0,0,0-6.83-2.5l-4.62.61,2.32-4a7.81,7.81,0,0,0,.27-7.26Z" transform="translate(-593.03 -330.27)"/><path d="M1257.46,538.91c4.1.68,8.31,1.92,11.5-1.73l3.92-4,.18,1.39.55,4.19a7.15,7.15,0,0,0,4.15,6l5.45,2.87-5.62,2.54a7,7,0,0,0-4.42,5.63c-.24,1.26-.91,4.84-1.14,6.06l-4.08-4.61a7.16,7.16,0,0,0-6.78-2.61l-4.2.47-1.4.15c.46-.74,2.43-4,2.93-4.76,2.8-4,.59-7.76-1-11.58Zm0,0c2.24,4.07,4.7,7.54,2,12.13l-2,3.72-.68-1,4.17-.65a8.77,8.77,0,0,1,8.34,2.93l2.86,3.1-1.64.46c.55-2.62.7-6.28,2.54-8.43,1.65-2.3,5.19-3.32,7.6-4.47l-.07,1.7-3.69-2a8.77,8.77,0,0,1-4.82-7.4l-.36-4.21,1.14.42-3.15,2.82c-3.78,3.71-7.8,2.14-12.25.94Z" transform="translate(-593.03 -330.27)"/><path class="cls-5" d="M593,525.43c1.47-23.81,3.8-49.73,20.19-67.07,8.57-9.09,20.09-14.71,31.34-20.14l26.3-12.69" transform="translate(-593.03 -330.27)"/><path class="cls-3" d="M670.86,425.53s-1.74.86-4.8,2.56-7.46,4.23-12.9,7.33l-8.92,5.05c-3.2,1.8-6.62,3.7-10.11,5.79a118.77,118.77,0,0,0-10.51,7,59.93,59.93,0,0,0-17.08,19.84,81.85,81.85,0,0,0-5,11.42c-.36.94-.68,1.89-1,2.83s-.59,1.86-.89,2.77c-.49,1.86-1.07,3.64-1.47,5.41s-.88,3.47-1.22,5.13-.7,3.24-1,4.77-.57,3-.8,4.38-.47,2.69-.65,3.92c-.39,2.45-.67,4.58-.9,6.31-.44,3.48-.58,5.41-.58,5.41s.1-1.93.14-5.44c0-1.75.05-3.9.09-6.39,0-1.25,0-2.58.1-4s.1-2.91.2-4.48c0-.79.09-1.6.13-2.42s.14-1.67.21-2.53c.13-1.72.34-3.51.58-5.36s.57-3.76.88-5.74c.21-1,.42-2,.63-3s.44-2,.74-3.06a67.88,67.88,0,0,1,4.56-12.63,53.44,53.44,0,0,1,8-12.24,54.19,54.19,0,0,1,10.91-9.71,88.48,88.48,0,0,1,11.57-6.6c3.79-1.83,7.44-3.37,10.85-4.77l9.5-3.85c5.82-2.33,10.54-4.2,13.77-5.54S670.86,425.53,670.86,425.53Z" transform="translate(-593.03 -330.27)"/><path class="cls-3" d="M682.22,434.94l-.33,0a7.93,7.93,0,0,0-1,0,15,15,0,0,0-3.67.46,25.76,25.76,0,0,0-5.43,2.1,70.57,70.57,0,0,0-6.65,4l-1.85,1.16-1.84,1.38-3.88,2.89c-2.5,2.23-5.29,4.42-7.87,7.13l-2,2c-.68.67-1.29,1.43-2,2.14l-2,2.2-1,1.11-.93,1.19c-1.23,1.6-2.58,3.16-3.8,4.84s-2.41,3.44-3.63,5.2L631.09,478c-1,1.81-2,3.64-3,5.41a29.28,29.28,0,0,0-1.34,2.69l-1.25,2.67c-.89,1.75-1.54,3.54-2.24,5.27l-1,2.57c-.37.84-.58,1.72-.87,2.56-.54,1.68-1.11,3.32-1.6,4.92l-1.19,4.7c-.19.75-.42,1.49-.55,2.22s-.26,1.46-.38,2.16c-.26,1.42-.5,2.76-.73,4s-.26,2.5-.38,3.64-.21,2.2-.3,3.18,0,1.88-.06,2.69c0,3.23.08,5,.08,5s-.13-1.78-.53-5c-.07-.81-.26-1.71-.29-2.7s-.1-2.07-.15-3.22-.16-2.41-.17-3.73.08-2.72.12-4.19c0-.73,0-1.49.07-2.26s.15-1.55.22-2.35c.18-1.61.37-3.27.57-5s.67-3.48,1-5.3c.21-.91.34-1.85.62-2.76s.53-1.86.8-2.8a51.9,51.9,0,0,1,1.88-5.74l1.13-2.92a27.71,27.71,0,0,1,1.25-2.93c.94-1.93,1.87-3.91,2.91-5.87l3.48-5.78c1.29-1.87,2.63-3.69,3.94-5.48s2.84-3.37,4.23-5l1.05-1.2,1.14-1.11c.75-.74,1.5-1.47,2.24-2.18s1.46-1.45,2.23-2.1l2.32-1.89a89.61,89.61,0,0,1,9.06-6.49l4.41-2.44,2.08-1.12,2.07-.92a76.28,76.28,0,0,1,7.34-3,29.7,29.7,0,0,1,5.83-1.37,19.83,19.83,0,0,1,3.75-.09c.43,0,.75.08,1,.1Z" transform="translate(-593.03 -330.27)"/><path class="cls-5" d="M1327.43,684.2c-7.3,14.91-15.72,30.93-30.87,37.7-7.94,3.54-16.84,4.08-25.52,4.56l-20.27,1.14" transform="translate(-593.03 -330.27)"/><path class="cls-3" d="M1250.77,727.6s1.34-.09,3.76-.37,5.92-.72,10.25-1.26l7.07-.87c2.54-.3,5.24-.6,8-1a82.18,82.18,0,0,0,8.62-1.67,40.6,40.6,0,0,0,8.59-3.2,40,40,0,0,0,7.67-5,54.5,54.5,0,0,0,6.29-6c1-1,1.81-2.1,2.69-3.1s1.66-2.06,2.4-3.08,1.48-2,2.14-3,1.32-1.9,1.91-2.81c1.21-1.8,2.25-3.46,3.15-4.94s1.66-2.76,2.26-3.81c1.21-2.12,1.82-3.32,1.82-3.32s-.58,1.21-1.54,3.46c-.48,1.12-1.08,2.49-1.76,4.08s-1.5,3.39-2.46,5.37c-.47,1-1,2-1.54,3.08s-1.16,2.16-1.8,3.29-1.38,2.27-2.1,3.45-1.57,2.36-2.49,3.52a47.92,47.92,0,0,1-6.31,6.89,38.17,38.17,0,0,1-18,9.06,62,62,0,0,1-9.2,1.15c-2.92.17-5.67.18-8.24.17l-7.13-.06c-4.36-.06-7.89-.12-10.32-.12S1250.77,727.6,1250.77,727.6Z" transform="translate(-593.03 -330.27)"/><path class="cls-3" d="M1246,718.52a7.59,7.59,0,0,0,.81.39,10.6,10.6,0,0,0,2.49.68,18.52,18.52,0,0,0,4,.11,52.88,52.88,0,0,0,5.33-.78l1.5-.25,1.55-.39,3.27-.83c2.2-.76,4.58-1.42,7-2.48l1.83-.73c.61-.25,1.2-.57,1.82-.86l1.85-.88.94-.44.91-.52c1.22-.7,2.5-1.34,3.74-2.1l3.72-2.36,3.58-2.58c1.15-.89,2.24-1.81,3.34-2.68s2.07-1.87,3.1-2.76,1.93-1.86,2.84-2.79,1.82-1.82,2.59-2.78,1.6-1.84,2.34-2.74c1.36-1.88,2.78-3.55,3.79-5.27l1.55-2.39c.45-.78.83-1.54,1.21-2.24l1-2c.33-.6.53-1.19.76-1.71.87-2.07,1.29-3.25,1.29-3.25s-.39,1.18-1,3.36c-.16.54-.29,1.17-.53,1.81s-.49,1.36-.76,2.11-.55,1.59-.89,2.44-.78,1.73-1.19,2.66c-.78,1.91-2,3.81-3.12,6-.64,1-1.36,2-2.08,3.13a34.4,34.4,0,0,1-2.39,3.19,38.31,38.31,0,0,1-2.74,3.19c-1,1-2,2.14-3.09,3.12s-2.24,2-3.44,3l-3.77,2.79c-1.34.85-2.68,1.66-4,2.47s-2.72,1.41-4.05,2.08l-1,.49-1,.42-2,.8c-.67.25-1.32.54-2,.75l-2,.59a63,63,0,0,1-7.55,1.76l-3.48.38-1.64.17-1.57,0a52.46,52.46,0,0,1-5.52,0,20.47,20.47,0,0,1-4.11-.67,13.94,13.94,0,0,1-2.44-.95C1246.24,718.68,1246,718.52,1246,718.52Z" transform="translate(-593.03 -330.27)"/></svg>