<svg id="Слой_1" data-name="Слой 1" xmlns="http://www.w3.org/2000/svg" viewBox="0 0 649.92 385.26"><defs><style>.cls-1{fill:#3b445e;}.cls-2{fill:#505878;}.cls-3{fill:#739a9d;opacity:0.75;}.cls-4{fill:#1d1d1b;}.cls-5{fill:#f6ecc3;}.cls-6{fill:#ed7950;}</style></defs><path class="cls-1" d="M1311.33,904.31c7.48-3.25,14.28-8.2,20.83-13,18.94-13.86,36.69-29.34,54.77-44.28,16-13.22,32.17-27.51,50.43-37.56,4-2.2,10.31-5.92,15.13-4.4,3.54,1.12,5.15,4.08,5,7.54l-1.49,6c.38-1.23,1.48-6.11,1.49-6l0-.19c.39-1.6.79-3.21,1.16-4.82a38.12,38.12,0,0,0,1.44-10.34c-.21-4.5-2.5-7.38-7.21-6.92-6.63.64-13.17,5.12-18.6,8.61-8.81,5.67-17.13,12.09-25.33,18.58-19.66,15.57-38.55,32.07-58.16,47.69-8,6.38-16.13,12.71-24.72,18.29-10.63,6.89-22.29,10.74-34.69,13.38-19.36,4.12-39.45,4.73-59.13,4.55a108.55,108.55,0,0,0,23,14C1274,914.46,1294,911.83,1311.33,904.31Z" transform="translate(-912.11 -587.61)"/><path class="cls-1" d="M1216.74,901.23c-19.26-.4-39.41-.88-58.52,1.13a178,178,0,0,0-32.26,6.32c-.71.21-1.69,6.43-1.9,7.26s-1.07,7.09-1.75,7.29c34.78-10.36,71.84-7.41,107.71-7.13A59.39,59.39,0,0,1,1216.74,901.23Z" transform="translate(-912.11 -587.61)"/><path class="cls-1" d="M1554,859.3c-8.72-10.08-22-14-34.41-17.51-13.24-3.71-26.77-6.45-39.81-10.83-7.57-2.54-20.75-6.66-22.18-16.07-.11-.76,0-1.52-.08-2.27v0c-.74,3-1.5,6-2.3,9,0,0-1,3.38-1.16,4.28a11,11,0,0,0,3,9.59c7.2,7.84,20.14,10.65,30,13.34,13,3.57,26.23,6.33,39,10.64,13.34,4.5,26.17,11.62,30.78,26a39.48,39.48,0,0,1,1.79,13c0,.65-.19,3.15-.25,3.69-.34,3.26-.57,4.88-.57,4.88C1562.53,891,1565.66,872.8,1554,859.3Z" transform="translate(-912.11 -587.61)"/><path class="cls-2" d="M1536.49,926.67c-17,12.2-37.67,19.59-57.93,24.06-45.45,10-92.52,4.33-137.19-6.84a576.68,576.68,0,0,1-67.06-20.7c-6.14-2.36-12.41-4.87-18.53-7.73a108.94,108.94,0,0,1-23-14,69.36,69.36,0,0,1-8-7.63,44.63,44.63,0,0,1-11-22.58c.3,1.82-1.44,5.45-1.89,7.26-.5,2-2.09,5.23-1.76,7.29a42.39,42.39,0,0,0,5.8,15.38A59.16,59.16,0,0,0,1229.13,916a98.21,98.21,0,0,0,14.82,9.84c20,11,42.5,18.05,64.33,24.54,45.9,13.65,94,23.89,142,18.9,22.36-2.32,44.5-7.91,64.8-17.67,17.41-8.38,34.94-20.92,41.17-40.09.49-1.5,1-3.26,1.51-4.81l.44-3.6C1558.07,903.46,1544.48,920.93,1536.49,926.67Z" transform="translate(-912.11 -587.61)"/><path class="cls-2" d="M1087.09,746.18c3.16,54.26,55.51,95.74,108.61,91.74,54.71-2.14,98.59-51.64,92.75-106.48-4.22-53.41-54-95.88-107.22-91.14-53.14,2.82-98.85,52-94.14,105.88Zm-.6,0c-6-73.7,63.91-131.11,135-107.17,88,30.34,94.15,149,13.52,192.26-66.48,35.36-143.51-11.49-148.47-85.09Z" transform="translate(-912.11 -587.61)"/><path class="cls-2" d="M1116.19,796c30,39.29,90.51,43.94,128.5,13.94,40.14-29.43,48-89.05,15.77-127.41-30.33-38.11-89.41-44.82-127.14-14.19-38.62,29.14-48.08,89.42-17.13,127.66Zm-.42.34c-42-52.5-18.49-131.3,47.22-149.38,81.75-21.87,146.7,64.44,107.93,138-32.13,60.45-114,64.3-155.15,11.35Z" transform="translate(-912.11 -587.61)"/><path class="cls-2" d="M1163.48,818.81C1206,833.18,1254,805.92,1267.4,764c15.3-42.59-9.05-91.54-52.88-104-42.23-13.3-90.17,11.67-103,53.94-14.29,41.6,9.22,91.84,52,104.92Zm-.16.47c-58.32-18.23-80.68-89.56-40.34-136.59,50.5-58,143.32-26,151.51,49.17,6.52,61.89-53.23,106.4-111.17,87.42Z" transform="translate(-912.11 -587.61)"/><path class="cls-2" d="M1210.69,811.94c39.38-10.8,61.69-55.75,50.46-94.15-10.13-39.87-53.36-64.38-92.75-51.53-38.59,11.45-62,54.64-50.23,93,10.38,38.61,53.63,64.52,92.52,52.64Zm.13.43c-53.23,15.92-106.34-26.48-99.85-82.43,8.56-69.41,94.79-92.46,139.18-40,36.38,43.32,14,107.25-39.33,122.39Z" transform="translate(-912.11 -587.61)"/><path class="cls-2" d="M1242.78,782.76c24.19-28.16,18.15-73.37-9.83-96.6-27.9-24.91-73-21.41-96.1,8.3-23.26,28.25-19,72.72,9.44,95.66,27.45,23.83,73.22,21.36,96.49-7.36Zm.32.27c-32,39.05-93.61,34.09-117.16-11.38-28.84-56.66,24.44-117.87,84.58-100.87,49.44,14.16,65.06,73.73,32.58,112.25Z" transform="translate(-912.11 -587.61)"/><path class="cls-2" d="M1252.14,744.46c3.91-33.52-23.62-64.53-56.53-67.81-33.68-4.59-65.85,21-68.2,55.11-3.17,33.11,22.67,64.44,55.74,67.29,32.8,4,66-21.12,69-54.59Zm.37,0c-4.29,45.71-53.22,73.28-94.08,51-50.54-28-41.51-101.26,12.46-119,44.47-14.46,86.51,22.49,81.62,68Z" transform="translate(-912.11 -587.61)"/><path class="cls-2" d="M1239.71,710.83c-14.09-27.25-50.6-36.62-77.07-22.37-27.72,13.67-39,49.27-23.38,76.21,14.44,26.57,49.84,37,76.21,22.38,26.76-13.66,39-49.5,24.24-76.22Zm.3-.16c20,36.63-2.85,82.29-45,86.26-52.34,4.55-82.75-55.22-51.11-96,26.16-33.5,76.64-27,96.1,9.79Z" transform="translate(-912.11 -587.61)"/><path class="cls-2" d="M1213.26,691.81c-24.48-13.38-56.76-1.88-69.46,22.31-14,24.4-4.34,57,21.11,69.33,24.39,12.68,56.4,2.58,68.82-21.88,13.23-23.89,4.27-57.15-20.47-69.76Zm.14-.28c33.7,17.44,39.68,63.47,9.94,87.88-37.13,30-90.44.45-87.34-46.4,2.68-38.55,44-59.33,77.4-41.48Z" transform="translate(-912.11 -587.61)"/><path class="cls-2" d="M1183.64,690.92c-25.24,2.36-43.73,27.44-41,52.13,1.89,25.47,25.68,45.12,51.15,41.51,24.84-2.84,43.82-26.73,40.75-51.48-2.18-24.72-25.84-45.24-50.9-42.16Zm0-.28c34.27-4,62.17,27.66,52.17,61.17-12.72,41.53-67.94,46.32-89.42,9.43-17.57-30.41,3-67.09,37.25-70.6Z" transform="translate(-912.11 -587.61)"/><path class="cls-2" d="M1160.87,705.3c-17.82,14.61-19,42.91-4.4,60.13,14.38,18.24,42.3,21,59.66,5.28,17.27-14.76,19.44-42.41,4.54-59.5-14.21-17.53-42.47-21-59.8-5.91Zm-.16-.2c23.79-20.42,60.92-10.75,70.41,19.59,11.53,37.76-27.65,69.45-62.59,52.56-28.71-14-31.84-52.09-7.82-72.15Z" transform="translate(-912.11 -587.61)"/><path class="cls-2" d="M1151,727.71c-6,20.08,7.49,42,27.25,47.56,20.11,6.44,42.53-5.71,47.65-26.34,5.52-19.91-6.91-41.85-26.83-47.16-19.62-6-42.66,5.79-48.07,25.94Zm-.22-.06c7.55-27.49,40.44-39.07,63-21,27.88,22.6,14.46,66.39-20.46,71.43-28.75,4.05-50.47-23.08-42.57-50.4Z" transform="translate(-912.11 -587.61)"/><path class="cls-2" d="M1155,749.61c5.67,18.19,27,27.86,44.71,22,18.43-5.37,29.15-25.93,22.52-44.08-6-17.81-26.49-28-44.2-21.91-17.83,5.47-29.21,26.06-23,44Zm-.2.07c-8.29-24.56,10.61-50,36.8-47.89,32.51,2.86,44.66,42.69,20.9,64.24-19.61,17.66-49.77,8.26-57.7-16.35Z" transform="translate(-912.11 -587.61)"/><path class="cls-2" d="M1169.12,764.1c13.53,10.82,34.51,7.27,44.88-6.16,11.16-13.41,8.79-34.35-5.44-44.66-13.54-10.39-34.2-7.66-44.44,6-10.66,13.19-8.77,34.49,5,44.87Zm-.12.15c-18.72-14.29-17.42-43.08,3.4-54.8,25.95-14.37,55.35,9.47,48.41,37.79-5.8,23.28-33.32,31.53-51.81,17Z" transform="translate(-912.11 -587.61)"/><path class="cls-2" d="M1187.13,767.84c15.7,1.28,29.7-12.06,30.7-27.46,1.59-15.78-10.84-30.36-26.81-30.9-15.49-.94-29.67,11.62-30.46,27.09-1.34,15.35,10.92,30.45,26.57,31.27Zm0,.17c-21.38-1.25-35-23.62-25.3-43,12.25-24,46.53-21,55.69,3.87,7.47,20.5-9.08,40.7-30.39,39.16Z" transform="translate(-912.11 -587.61)"/><polygon class="cls-3" points="100.07 322.67 37.33 208.35 48.77 169.07 294.44 34.25 333.72 45.69 396.46 160.01 100.07 322.67"/><path class="cls-4" d="M1206.58,622.05c-54.53,31.09-113.35,63.73-168.29,94.09-22,12-54.56,29.79-76.8,41.63l.59-.74-11.8,39.18-.07-.66c8.65,16.73,22.15,40.41,31.11,57.3,5.18,9.32,18.62,33.75,23.64,42.8l7.95,14.24-1.12-.33c94.89-53.16,200.46-111.76,295.93-163.5l-.71,2.42c-18.28-33-44.12-82.06-61.83-114.82l.45.36-39.05-12Zm0-.38,39.51,10.91.28.08.16.28c18.5,32.11,45.22,81.11,63.65,113.82l.86,1.55-1.57.87c-95.11,52.88-201.59,110.58-297.58,162.22-8.75-16.3-22.59-41.55-31.54-58-9.11-17.08-22.63-40.58-31.8-57.32l.1-.36,11.09-39.38.13-.49.46-.25c22.15-12.43,54.57-30.47,76.74-42.64,55-30,114.1-62.06,169.51-91.29Z" transform="translate(-912.11 -587.61)"/><path class="cls-5" d="M1255.87,652.43,959.1,815.3l44.25,80.62,296.77-162.87ZM1078,839.21a32.38,32.38,0,1,1,12.81-44A32.39,32.39,0,0,1,1078,839.21Zm23.13-39.79-18.49-33.69,59.81-32.82,18.49,33.69Zm103.32-30a32.39,32.39,0,1,1,15.7-43A32.38,32.38,0,0,1,1204.42,769.46Z" transform="translate(-912.11 -587.61)"/><path class="cls-4" d="M1255.81,652.61c-72.49,41-148.76,83.88-222.15,123.12-21.74,11.75-52.91,28.26-74.28,40.08l.23-.79c3.65,6.73,7.4,13.42,11.09,20.13,6.56,11.88,15.77,28.56,22.33,40.21l11.23,20.06-1.42-.41c41.12-23.13,106.13-59.22,147.92-82.28,41.48-22.9,106.54-58.18,148.7-80.87l-.54,1.85c-10.86-20.14-32.37-60.89-43.11-81.1Zm.11-.37c11.63,20.6,34.51,60.69,46.06,81.34-25.51,14.23-87.44,48.76-112.17,62.34-56.42,30.93-129.36,70.64-186,100.92l-.93.49-.49-.9c-10.1-18.89-22.55-41.88-32.82-60.68-3.77-6.89-7.49-13.81-11.31-20.68q18.83-10.35,37.58-20.85c84.8-48.05,174-96.29,260-142Z" transform="translate(-912.11 -587.61)"/><path class="cls-4" d="M1078.06,839.38c-23.88,13.13-51.94-3.52-48.71-31.45,3.28-26.45,32.83-40.64,54.54-23.92,19.42,15.56,15.48,43.85-5.83,55.37Zm-.18-.34c23.52-13.38,18.56-49.8-6.94-57.59-21.11-6.55-43.22,10.16-39.69,32.78,3,20.69,27.61,35.47,46.63,24.81Z" transform="translate(-912.11 -587.61)"/><path class="cls-4" d="M1101.05,799.61c-7.09-11.22-14.28-22.88-20.7-34.5,9.08-5.39,22.2-11.74,31.78-16.5,10.18-5.09,20-10.76,29.79-16.61l.86-.51.56.92c6.27,10.14,14.27,24.45,20.24,34.92-3.08,1.77-6.21,3.54-9.34,5.23-17,9.34-35.74,18.6-53.19,27.05Zm.11-.37c14-8.61,30-18.29,44.18-26.34,4.84-2.75,9.7-5.42,14.63-8l-.78,2.66-9-17c-3-5.67-5.82-11.42-8.69-17.15l1.41.41c-10.17,5.09-20.25,10.36-30,16.22-8.57,5.22-20.71,12.59-29.49,17.16l.66-2.27c6,11,11.65,22.92,17.08,34.31Z" transform="translate(-912.11 -587.61)"/><path class="cls-4" d="M1204.5,769.63c-23.21,10.87-49.35-4.92-47-31.38,2.91-27.91,34.72-42.57,56.49-23.47,18.34,16.81,12.53,44.78-9.5,54.85Zm-.16-.34c24.37-11.79,21.83-48.47-3.09-57.93-20.63-7.94-43.8,7.26-41.78,30.07,1.63,20.84,25.19,37.22,44.87,27.86Z" transform="translate(-912.11 -587.61)"/><path class="cls-2" d="M1225.77,722.38h0a39.94,39.94,0,0,0-54.23-15.79l-130.22,71.46a39.94,39.94,0,0,0-15.79,54.23h0a39.94,39.94,0,0,0,54.23,15.8L1210,776.61A39.94,39.94,0,0,0,1225.77,722.38Zm-148,116.79a32.38,32.38,0,1,1,12.81-44A32.38,32.38,0,0,1,1077.8,839.17Zm23.14-39.78-18.49-33.69,59.81-32.83,18.49,33.69Zm103.31-30a32.38,32.38,0,1,1,15.71-43A32.39,32.39,0,0,1,1204.25,769.42Z" transform="translate(-912.11 -587.61)"/><path class="cls-4" d="M1225.59,722.43c-7.85-14.47-25-22.65-41.22-19.41-6.33,1-11.84,4.14-17.32,7.39-28.51,16.59-60.76,33.91-90.13,49.31-10.9,5.89-27,14-37.65,20.29-17.22,10.52-23,34.48-12.83,51.77l-.45-.43.45.43a38.59,38.59,0,0,0,11,12.25,38.29,38.29,0,0,0,39,3.68c22.54-12.1,44.83-25,67.37-37.14,20.06-10.92,40.12-21.8,60.42-32.28,5.68-2.87,11.27-5.81,15.54-10.6,11.39-11.85,13.77-30.87,5.74-45.26Zm.36-.09c8.18,14.47,6.16,34-4.86,46.46-4.15,5.07-10,8.55-15.58,11.69-19.73,11.5-39.69,22.58-59.67,33.64-22.61,12.33-45,24.82-67.86,36.75a41.09,41.09,0,0,1-53.37-18.1c-8.07-14.82-5.63-34.36,5.78-46.75,4.26-4.95,10-8.27,15.7-11.3l14.93-8.38c36.54-20.78,75.09-43.14,112.6-61.9,18.93-8.61,42.56-.43,52.33,17.89Z" transform="translate(-912.11 -587.61)"/><path class="cls-4" d="M1077.89,839.34c-23.88,13.13-51.94-3.52-48.71-31.44,3.28-26.45,32.83-40.65,54.55-23.92,19.41,15.55,15.47,43.84-5.84,55.36Zm-.18-.33c23.53-13.39,18.56-49.81-6.93-57.6-21.12-6.55-43.23,10.16-39.7,32.79,3,20.68,27.61,35.46,46.63,24.81Z" transform="translate(-912.11 -587.61)"/><path class="cls-4" d="M1100.88,799.57c-7.09-11.21-14.28-22.88-20.7-34.5,9.08-5.39,22.21-11.74,31.78-16.5,10.18-5.09,20-10.76,29.79-16.61l.87-.51.55.92c6.27,10.14,14.27,24.46,20.24,34.92-3.08,1.77-6.21,3.54-9.33,5.24-17,9.34-35.74,18.59-53.2,27Zm.11-.37c14-8.61,30-18.29,44.19-26.34,4.84-2.75,9.7-5.42,14.62-8l-.77,2.66-9-17c-3-5.66-5.83-11.41-8.7-17.15l1.42.42c-10.18,5.08-20.26,10.35-30,16.21-8.56,5.22-20.7,12.6-29.49,17.16l.66-2.27c6,11,11.65,22.93,17.08,34.31Z" transform="translate(-912.11 -587.61)"/><path class="cls-4" d="M1204.33,769.59c-23.21,10.87-49.35-4.92-47-31.38,2.91-27.91,34.72-42.57,56.5-23.47,18.34,16.81,12.52,44.78-9.51,54.85Zm-.16-.34c24.37-11.79,21.84-48.46-3.08-57.93-20.64-7.94-43.81,7.27-41.79,30.07,1.64,20.84,25.19,37.22,44.87,27.86Z" transform="translate(-912.11 -587.61)"/><path class="cls-6" d="M1350.86,774.41l-96-174.89a18.78,18.78,0,0,0-25.5-7.43L923.15,760.16a18.78,18.78,0,0,0-7.43,25.5l96,174.89A18.8,18.8,0,0,0,1037.2,968l306.23-168.07A18.78,18.78,0,0,0,1350.86,774.41ZM1012.18,910.28,949.45,796l11.44-39.28,245.67-134.83,39.28,11.44,62.74,114.32Z" transform="translate(-912.11 -587.61)"/><path class="cls-4" d="M1350.64,774.53c-31.89-58.33-65.14-115.92-97.56-173.95a17.16,17.16,0,0,0-5.75-6,16.59,16.59,0,0,0-16-.89l-33.21,18.19c-22,12.18-77.31,41.71-100.31,54.09-56,29.89-115.49,62.46-170.81,93.42l-2.07,1.16c-.7.38-1.39.77-2,1.17a17.56,17.56,0,0,0-8.18,14.88,18,18,0,0,0,2.21,8.44c30.77,54.79,62,110.87,92.37,166l4.6,8.31a16.71,16.71,0,0,0,5.57,5.91,16.18,16.18,0,0,0,15.63.87l66.47-36.49c63.75-34.95,136.17-73.65,200.78-107.91,11.19-5.93,22.3-12,33.46-18,4.07-2.37,8.6-4.09,11.94-7.47a18.67,18.67,0,0,0,2.89-21.67Zm.44-.25a19.25,19.25,0,0,1-2.87,22.36c-3.36,3.47-8,5.24-12,7.68-22,12.13-76.59,43.17-99.29,56-62.63,35.54-127.84,71.43-191,106l-4.17,2.27-2.08,1.14a21.43,21.43,0,0,1-30.19-7.95c-31.63-58.07-63.77-117.16-94.94-175.39a20.21,20.21,0,0,1,1.6-21.58c2.38-3.41,6.17-5.53,9.78-7.38C1003,716,1086.19,669.3,1162.69,626.29c21-11.72,43.31-24,64.46-35.53a20.92,20.92,0,0,1,29.59,7.81c31.54,58.52,62.27,117.49,94.34,175.71Z" transform="translate(-912.11 -587.61)"/><path class="cls-4" d="M1012.11,910.53c-21-36.86-44.28-77.28-64.85-114.31,2.94-10.24,8.51-29.94,11.5-40.16l.25-.87.81-.45q30.63-17,61.47-33.61c59.79-31.74,126.46-67.36,185.12-100.46l.45.13,39.4,11,.6.16.31.57c14.29,25.29,33.68,59.95,47.77,85.34l15.81,28.52,1.2,2.16c-19.64,10.9-56.93,31.5-76.64,42.28-71.34,39-151,81.33-223.2,119.66Zm.15-.49c71.32-40.5,150.06-85,221.38-124.34,18.28-10.1,55.38-30.28,73.74-40.26l-1,3.37-15.56-28.64c-13.86-25.53-32.68-60.5-46.34-86.13l.91.73-39.16-11.85.84-.09c-81,42.95-164.52,92-245.13,135.8l1.06-1.32c-2.79,9.77-8.75,29.47-11.62,39.23l-.17-1.55c19.88,36.84,41.5,77.91,61,115Z" transform="translate(-912.11 -587.61)"/><path class="cls-4" d="M1090.94,795.15c13.14,23.88-3.51,51.94-31.44,48.71-26.45-3.28-40.65-32.83-23.92-54.55,15.56-19.41,43.85-15.47,55.36,5.84Zm-.33.18c-13.38-23.53-49.81-18.56-57.6,6.93-6.54,21.12,10.17,43.23,32.79,39.7,20.68-3,35.46-27.61,24.81-46.63Z" transform="translate(-912.11 -587.61)"/><path class="cls-4" d="M1034.78,794.54c.12-.21,1.42.35,3.45,1.43l1.64.9a12,12,0,0,1,1.88,1.19,4,4,0,0,1,1,1.07,3.46,3.46,0,0,1,.46,1.48,9.06,9.06,0,0,1-.33,2.79,2.66,2.66,0,0,1-1,1.57,2.44,2.44,0,0,1-1.84.3,7.07,7.07,0,0,1-1.3-.43l-1-.41c-1.35-.48-2.67-.82-3.76-1.21-2.22-.74-3.38-1.75-3.24-1.94s1.38.35,3.57.75c1.09.23,2.42.44,3.93.88.37.11.77.24,1.14.38a6,6,0,0,0,1,.3.72.72,0,0,0,.56-.06c.09,0,.2-.22.29-.58a8.06,8.06,0,0,0,.32-2.2,2,2,0,0,0-.75-1.47,16.79,16.79,0,0,0-1.63-1.21l-1.51-1.06C1035.74,795.68,1034.66,794.75,1034.78,794.54Z" transform="translate(-912.11 -587.61)"/><path class="cls-4" d="M1055.56,781c.26,0,.64,1.36,1.66,3.37.26.5.56,1,.91,1.59a5.93,5.93,0,0,1,.58,1.06,2.07,2.07,0,0,1-.08,1.73,3.25,3.25,0,0,1-1.11,1.11l-1,.67a23.29,23.29,0,0,1-2.32,1.39,4.38,4.38,0,0,1-1.59.42,2.61,2.61,0,0,1-1.77-.58,4.12,4.12,0,0,1-.94-1.23c-.18-.36-.37-.71-.55-1.06-.7-1.37-1.31-2.62-1.81-3.68-1-2.12-1.49-3.49-1.27-3.61s1.09,1.05,2.35,3c.63,1,1.36,2.17,2.14,3.5a8.14,8.14,0,0,0,1.15,1.74,1,1,0,0,0,.62.17,2.77,2.77,0,0,0,.94-.27c.68-.31,1.43-.84,2.15-1.25a7.66,7.66,0,0,0,1.66-1.12c.07-.11.09-.21,0-.46a5.25,5.25,0,0,0-.38-.83,14.45,14.45,0,0,1-.79-1.83C1055.29,782.54,1055.35,781,1055.56,781Z" transform="translate(-912.11 -587.61)"/><path class="cls-4" d="M1081.89,785.92c.15,0,.26.64.07,1.73a9.1,9.1,0,0,1-.57,1.93,9.83,9.83,0,0,1-.56,1.13,3.14,3.14,0,0,1-.52.65,1.63,1.63,0,0,1-1.06.46,2.38,2.38,0,0,1-1-.23l-.63-.25c-.43-.16-.89-.3-1.37-.43a16.1,16.1,0,0,0-3.13-.53c-.4,0-.8,0-1.19,0h-.88a1.24,1.24,0,0,1-.94-.37,1.19,1.19,0,0,1-.31-1c0-.28,0-.56.07-.84s.07-.76.11-1.13a6.36,6.36,0,0,1,.55-2.25c.3-.65.6-1.14.81-1.62.86-1.93,1-3.33,1.23-3.32s.58,1.44-.07,3.74c-.17.58-.43,1.18-.63,1.74a5.36,5.36,0,0,0-.29,1.83l0,1.13,0,.29c0,.07,0,0,0,0h.39c.44,0,.88,0,1.33,0a15,15,0,0,1,3.48.66,14.63,14.63,0,0,1,1.5.57c.44.19,1,.5,1,.46s0,0,.16-.05a1.67,1.67,0,0,0,.31-.33,9.75,9.75,0,0,0,.61-.92,13.28,13.28,0,0,0,.83-1.63C1081.54,786.47,1081.73,785.89,1081.89,785.92Z" transform="translate(-912.11 -587.61)"/><path class="cls-4" d="M1094.68,806.27c0,.24-1.33.44-3.46.57-1.06.06-2.33.11-3.74.14-.38,0-.66,0-1.16,0a2,2,0,0,1-.86-.25,1.92,1.92,0,0,1-.7-.65,4.77,4.77,0,0,1-.55-1.29c-.11-.38-.22-.78-.33-1.17l-.65-2.31c-.1-.4-.19-.7-.29-1.15a1.55,1.55,0,0,1,.79-1.75,12.73,12.73,0,0,1,3.7-1.35c2.21-.41,3.58-.1,3.57.12s-1.31.4-3.25,1.07a15.43,15.43,0,0,0-3.17,1.53,0,0,0,0,0,0,.06c.1.34.21.68.31,1q.33,1.1.66,2.25l.33,1.15a3.58,3.58,0,0,0,.31.87c.13.16.06.14.31.19s.68,0,1,0c1.41.06,2.67.14,3.74.24C1093.37,805.79,1094.68,806,1094.68,806.27Z" transform="translate(-912.11 -587.61)"/><path class="cls-4" d="M1090.72,824.74c-.19.18-1.08-.68-2.79-1.22-.43-.13-.93-.23-1.51-.39a5.17,5.17,0,0,1-1.91-.89,3.23,3.23,0,0,1-.85-1,2.59,2.59,0,0,1-.34-1.44,5.77,5.77,0,0,1,.91-2.36l1.07-1.89a1.62,1.62,0,0,1,.71-.71,1.68,1.68,0,0,1,.92-.13c.36,0,.7.06,1,.11a12.63,12.63,0,0,1,3.44,1c1.85.86,2.73,1.8,2.6,2s-1.23-.33-3-.83a16.59,16.59,0,0,0-3.2-.57c-.3,0-.61,0-.93-.05-.11,0,0,0-.07,0-.33.62-.68,1.25-1,1.9a4.92,4.92,0,0,0-.73,1.62,1.28,1.28,0,0,0,.52,1.07,12.57,12.57,0,0,0,2.85,1.37,5.92,5.92,0,0,1,1.95,1.51C1090.7,824.35,1090.81,824.66,1090.72,824.74Z" transform="translate(-912.11 -587.61)"/><path class="cls-4" d="M1072.4,841.33c-.22.07-.88-1.24-1.61-3.48a41.42,41.42,0,0,1-1.08-4,3.07,3.07,0,0,1,.1-1.59A2.67,2.67,0,0,1,1071,831c.78-.46,1.5-.85,2.29-1.29l1.17-.63a4.85,4.85,0,0,1,1.45-.52,2.57,2.57,0,0,1,1.74.31,5.6,5.6,0,0,1,1.07.89,8.88,8.88,0,0,1,2.19,3.79c.66,2.44.08,4-.11,3.91s-.19-1.49-1-3.5a8.91,8.91,0,0,0-2.15-3,4.07,4.07,0,0,0-.77-.59.84.84,0,0,0-.63-.08,9,9,0,0,0-2.07,1l-2.25,1.22a1.16,1.16,0,0,0-.51.44,1.48,1.48,0,0,0,0,.74c.22,1.44.49,2.84.69,4C1072.4,839.83,1072.64,841.26,1072.4,841.33Z" transform="translate(-912.11 -587.61)"/><path class="cls-4" d="M1047.21,839c-.2-.16.58-1.26,1.33-3.19a15,15,0,0,0,.53-1.6,5.88,5.88,0,0,1,.93-2.11,2.43,2.43,0,0,1,1.37-.86,3.91,3.91,0,0,1,1.44,0l2.37.39a5,5,0,0,1,1.4.42,2.15,2.15,0,0,1,1.22,1.44,1.84,1.84,0,0,1,0,.52l0,.33-.09.59c-.07.37-.14.73-.2,1.09-.28,1.41-.56,2.66-.8,3.71-.52,2.1-.83,3.37-1.06,3.37s-.36-1.41-.16-3.56c.09-1.09.25-2.37.44-3.78,0-.35.09-.7.13-1.07l.06-.53,0-.25s0,0,0-.05-.06-.13-.31-.26a3.85,3.85,0,0,0-.93-.26l-2.37-.42c-.84-.16-.94-.15-1.29.18a4.77,4.77,0,0,0-.79,1.53,13,13,0,0,1-.79,1.67C1048.52,838.34,1047.37,839.18,1047.21,839Z" transform="translate(-912.11 -587.61)"/><path class="cls-4" d="M1030.83,819.24c-.07-.24,1.37-.78,3.56-1.81.55-.26,1.15-.55,1.78-.88l2-1.1a3.13,3.13,0,0,1,1.6-.37,2.47,2.47,0,0,1,1.7.89,7.14,7.14,0,0,1,.82,1.28c.22.41.44.82.67,1.23l1,1.93c.16.32.32.58.49,1a2.81,2.81,0,0,1,.18.72,1.77,1.77,0,0,1-.17.9,2.23,2.23,0,0,1-1.17,1l-.88.41-1.66.74c-1,.45-2,.84-2.77,1.15-1.56.61-2.52.88-2.61.71s.72-.77,2.16-1.64c.72-.43,1.59-.94,2.6-1.49l1.59-.86a7.87,7.87,0,0,0,1.25-.72v0a1.28,1.28,0,0,0-.08-.24c-.08-.2-.28-.53-.44-.83l-1-1.9-.66-1.22a6.25,6.25,0,0,0-.6-1,.81.81,0,0,0-.53-.34,1.84,1.84,0,0,0-.82.18c-.64.29-1.42.69-2.09,1s-1.33.52-1.93.72C1032.44,819.35,1030.88,819.46,1030.83,819.24Z" transform="translate(-912.11 -587.61)"/><path class="cls-4" d="M1204.34,769.29c19.84-9,22.49-37.59,7.61-52.27-16.14-16.23-42.71-8.31-49.93,12.58-8.81,25.16,17.6,50.73,42.32,39.69Zm.16.34c-21.89,10.35-47-3.21-48.07-28.07-.63-27.41,28.31-42.81,51.56-29.8,24.43,13.93,21.23,46.4-3.49,57.87Z" transform="translate(-912.11 -587.61)"/><path class="cls-4" d="M1158.88,736.87c0-.24,1.44-.35,3.7-.34l1.85,0a15.28,15.28,0,0,0,2,0,2,2,0,0,0,1.48-.75,8.32,8.32,0,0,0,1-2,1,1,0,0,0,.11-.64c0-.1-.15-.24-.42-.38a5.69,5.69,0,0,0-1-.35c-.38-.1-.79-.23-1.15-.36-1.47-.54-2.67-1.16-3.69-1.62-2-1-3.33-1.26-3.32-1.51s1.53-.36,3.76.36c1.11.33,2.38.83,3.75,1.24.35.11.69.19,1.07.28a7.28,7.28,0,0,1,1.3.43,2.46,2.46,0,0,1,1.3,1.32,2.6,2.6,0,0,1-.12,1.86,8.71,8.71,0,0,1-1.38,2.45,3.39,3.39,0,0,1-1.25.92,3.87,3.87,0,0,1-1.39.3,12.48,12.48,0,0,1-2.23-.15l-1.85-.25C1160.23,737.43,1158.85,737.11,1158.88,736.87Z" transform="translate(-912.11 -587.61)"/><path class="cls-4" d="M1167.6,760.09c-.15-.15.7-1.41,2.71-2.79a14.86,14.86,0,0,1,1.71-1,5.07,5.07,0,0,0,.8-.45c.2-.16.24-.26.25-.38a6.9,6.9,0,0,0-.67-1.88c-.34-.77-.64-1.64-1-2.29a3,3,0,0,0-.6-.77.89.89,0,0,0-.6-.23,7.49,7.49,0,0,0-2,.72c-1.42.61-2.7,1.14-3.8,1.56-2.18.84-3.58,1.25-3.68,1s1.12-1,3.17-2.15c1-.56,2.25-1.21,3.63-1.9l1.08-.53a4,4,0,0,1,1.48-.43,2.57,2.57,0,0,1,1.77.58,4.37,4.37,0,0,1,1,1.28,22.89,22.89,0,0,1,1,2.49l.44,1.17a3.06,3.06,0,0,1,.24,1.55,2.08,2.08,0,0,1-1,1.44,5.68,5.68,0,0,1-1.09.51q-.91.36-1.68.75C1168.92,759.38,1167.78,760.29,1167.6,760.09Z" transform="translate(-912.11 -587.61)"/><path class="cls-4" d="M1191.74,771.71c-.15-.08,0-.65.27-1.65a15.11,15.11,0,0,0,.29-1.8,7.88,7.88,0,0,0,0-1.1,1.81,1.81,0,0,0,0-.45c0-.13-.06-.11-.1-.13s-.6-.1-1.06-.21a14.52,14.52,0,0,1-1.55-.43,15.74,15.74,0,0,1-3.19-1.53c-.38-.25-.75-.5-1.09-.76l-.28-.22s0,0,0,0h0l0,0-.16.25c-.22.32-.43.63-.63.94a5.37,5.37,0,0,0-.85,1.64c-.17.57-.31,1.21-.52,1.77-.84,2.24-2,3.21-2.16,3.07s.53-1.34,1-3.41c.11-.51.16-1.08.3-1.78a6.5,6.5,0,0,1,.89-2.15l.58-1,.44-.72a1.19,1.19,0,0,1,.82-.59,1.25,1.25,0,0,1,1,.25l.71.53c.31.24.64.46,1,.68a16.28,16.28,0,0,0,2.83,1.42c.47.18.93.34,1.37.46l.65.18a2.25,2.25,0,0,1,.93.39,1.71,1.71,0,0,1,.58,1,3,3,0,0,1,0,.83,10.42,10.42,0,0,1-.22,1.25,8.71,8.71,0,0,1-.68,1.89C1192.32,771.35,1191.87,771.79,1191.74,771.71Z" transform="translate(-912.11 -587.61)"/><path class="cls-4" d="M1214.09,762.88c-.14.2-1.34-.39-3.16-1.5-.92-.56-2-1.25-3.16-2-.27-.18-.63-.44-.84-.56s-.16-.07-.36,0a3.54,3.54,0,0,0-.77.51l-.94.74-1.86,1.42-.86.64a.06.06,0,0,0,0,.06,16.07,16.07,0,0,0,1.66,3.11c1.16,1.68,2.14,2.58,2,2.79s-1.41-.38-2.94-2a12.53,12.53,0,0,1-2.19-3.29,1.54,1.54,0,0,1,.4-1.87c.34-.3.6-.49.92-.75l1.88-1.48,1-.75a4.36,4.36,0,0,1,1.2-.71,2.08,2.08,0,0,1,1-.12,2.22,2.22,0,0,1,.85.31c.41.27.63.46.93.69,1.12.85,2.11,1.64,2.93,2.32C1213.28,761.74,1214.23,762.68,1214.09,762.88Z" transform="translate(-912.11 -587.61)"/><path class="cls-4" d="M1221.83,745.65c0,.11-.24.3-.81.45a5.64,5.64,0,0,1-2.46.07,13.06,13.06,0,0,0-3.11-.59,1.33,1.33,0,0,0-1,.56,4.94,4.94,0,0,0-.37,1.74c-.1.73-.19,1.45-.29,2.14,0,0,0,0,0,.06l.78.51a16.56,16.56,0,0,0,2.92,1.43c1.75.67,2.94.87,2.93,1.13s-1.27.46-3.27.05a12.68,12.68,0,0,1-3.37-1.21c-.3-.16-.61-.34-.91-.52a1.81,1.81,0,0,1-.66-.66,1.5,1.5,0,0,1-.15-1c.08-.7.17-1.43.25-2.17a5.74,5.74,0,0,1,.66-2.44,2.73,2.73,0,0,1,1.13-1,3.51,3.51,0,0,1,1.26-.28,5.17,5.17,0,0,1,2.07.42c.56.22,1,.43,1.44.58C1220.56,745.56,1221.79,745.39,1221.83,745.65Z" transform="translate(-912.11 -587.61)"/><path class="cls-4" d="M1216.9,721.44c.14.19-.9,1.21-2.58,2.79-.82.79-1.87,1.76-2.89,2.79a1.39,1.39,0,0,0-.4.62,1.14,1.14,0,0,0,.14.66l1.1,2.32a9.73,9.73,0,0,0,1.07,2,.88.88,0,0,0,.56.31,4.6,4.6,0,0,0,1,0,9,9,0,0,0,3.54-1.19c1.89-1.11,2.69-2.35,2.92-2.2s-.25,1.65-2.23,3.22a8.84,8.84,0,0,1-4,1.76,5.48,5.48,0,0,1-1.39.08,2.59,2.59,0,0,1-1.59-.78,4.59,4.59,0,0,1-.85-1.28q-.29-.59-.57-1.2c-.38-.82-.73-1.56-1.09-2.39a2.66,2.66,0,0,1-.18-1.74,2.94,2.94,0,0,1,.87-1.33,41.22,41.22,0,0,1,3.25-2.61C1215.45,721.91,1216.76,721.25,1216.9,721.44Z" transform="translate(-912.11 -587.61)"/><path class="cls-4" d="M1195.23,708.37c.22,0,.65,1.33.39,3.59a11.23,11.23,0,0,1-.36,1.82,5,5,0,0,0-.26,1.7c.08.47.16.54.93.9l2.16,1.06a3.5,3.5,0,0,0,.91.35c.27.05.38,0,.4,0s0,0,0,0l.13-.2.27-.47c.17-.32.35-.63.52-.94.69-1.25,1.32-2.37,1.88-3.3,1.12-1.86,2-2.92,2.24-2.77s-.31,1.34-1.14,3.33c-.42,1-.94,2.17-1.55,3.47l-.49,1c-.09.17-.18.35-.28.52l-.16.29a2.51,2.51,0,0,1-.33.4,2.16,2.16,0,0,1-1.84.44,5,5,0,0,1-1.38-.49l-2.14-1.09a3.92,3.92,0,0,1-1.19-.82,2.38,2.38,0,0,1-.58-1.5,5.92,5.92,0,0,1,.49-2.26c.22-.57.39-1.1.53-1.6C1195,709.73,1195,708.39,1195.23,708.37Z" transform="translate(-912.11 -587.61)"/><path class="cls-4" d="M1170.31,714.62c.18-.14,1.37.88,2.85,2.92.37.51.75,1.08,1.13,1.72s.78,1.39,1.13,2a1.72,1.72,0,0,0,.55.62.8.8,0,0,0,.63,0,6.62,6.62,0,0,0,1.08-.46c.42-.19.83-.39,1.25-.6l2-.92c.31-.14.66-.29.85-.4a1.1,1.1,0,0,0,.2-.15l0,0a6.62,6.62,0,0,0-.58-1.31l-.77-1.65c-.48-1-.89-2-1.21-2.74-.65-1.55-.94-2.5-.77-2.59s.78.7,1.68,2.12c.45.71,1,1.57,1.55,2.56.28.5.58,1,.9,1.58l.47.85a2.24,2.24,0,0,1,.36,1.49,1.71,1.71,0,0,1-.4.82,2.42,2.42,0,0,1-.57.48,9.68,9.68,0,0,1-1,.52l-2,1-1.27.59a6.58,6.58,0,0,1-1.42.55,2.45,2.45,0,0,1-1.9-.28,3.37,3.37,0,0,1-1.07-1.25l-1-2.11c-.32-.63-.63-1.22-.91-1.76C1171,716.06,1170.12,714.78,1170.31,714.62Z" transform="translate(-912.11 -587.61)"/><path class="cls-4" d="M1105,808.84c-.48.11-1.32-1.78-2.31-4.07s-1.8-4.21-1.39-4.48,1.93,1.33,3,3.79S1105.48,808.74,1105,808.84Z" transform="translate(-912.11 -587.61)"/><path class="cls-4" d="M1136.94,792.58c-.48.43-2.49-1-4.17-3.49s-2.34-4.86-1.77-5.15,2.1,1.5,3.7,3.82S1137.42,792.14,1136.94,792.58Z" transform="translate(-912.11 -587.61)"/><path class="cls-4" d="M1167.74,775.78c-.56.34-2.26-1.46-4.06-3.84s-3-4.5-2.57-5,2.58,1,4.44,3.55S1168.28,775.45,1167.74,775.78Z" transform="translate(-912.11 -587.61)"/><path class="cls-4" d="M1110.29,802.64a1.28,1.28,0,0,0-.21-.2,7.71,7.71,0,0,0-.66-.47,5.83,5.83,0,0,1-1.79-1.76,6,6,0,0,1-.77-2.39,6.07,6.07,0,0,0-.12-.8,1.25,1.25,0,0,0-.08-.27.81.81,0,0,0,.2.19,7,7,0,0,0,.65.46,6,6,0,0,1,1.8,1.77,6.08,6.08,0,0,1,.78,2.41,6.21,6.21,0,0,0,.11.79A1.1,1.1,0,0,0,1110.29,802.64Z" transform="translate(-912.11 -587.61)"/><path class="cls-4" d="M1116.26,798.63a1.1,1.1,0,0,0-.21-.17,6.41,6.41,0,0,0-.66-.39,4.69,4.69,0,0,1-2.67-3.76c-.06-.33-.1-.59-.15-.76a.9.9,0,0,0-.09-.25.81.81,0,0,0,.2.17,6.82,6.82,0,0,0,.66.39,5.54,5.54,0,0,1,1.84,1.53,5.45,5.45,0,0,1,.84,2.24,6.07,6.07,0,0,0,.15.75A.9.9,0,0,0,1116.26,798.63Z" transform="translate(-912.11 -587.61)"/><path class="cls-4" d="M1121.93,794.81a.84.84,0,0,0-.15-.13,3,3,0,0,0-.52-.3,3.56,3.56,0,0,1-1.38-1.1,3.65,3.65,0,0,1-.5-1.68,4.11,4.11,0,0,0-.09-.6.62.62,0,0,0-.07-.19.55.55,0,0,0,.18.1,5.22,5.22,0,0,0,.58.2,3,3,0,0,1,1.54,1.06,2.88,2.88,0,0,1,.41,1.83c0,.27,0,.48,0,.61A.92.92,0,0,0,1121.93,794.81Z" transform="translate(-912.11 -587.61)"/><path class="cls-4" d="M1129.31,793.43a1.23,1.23,0,0,0-.24-.19c-.16-.11-.43-.25-.74-.43a6,6,0,0,1-2.07-1.78,6.19,6.19,0,0,1-1-2.55,8.23,8.23,0,0,0-.15-.85,1.55,1.55,0,0,0-.08-.28,1.1,1.1,0,0,0,.2.21,7,7,0,0,0,.68.51,6.54,6.54,0,0,1,3,4.27,7.88,7.88,0,0,0,.25.82A1.53,1.53,0,0,0,1129.31,793.43Z" transform="translate(-912.11 -587.61)"/><path class="cls-4" d="M1140.81,785.89a1.28,1.28,0,0,0-.21-.2,7.71,7.71,0,0,0-.66-.47,6,6,0,0,1-1.79-1.76,5.8,5.8,0,0,1-.76-2.39,7.38,7.38,0,0,0-.13-.8,1.25,1.25,0,0,0-.08-.27,1.14,1.14,0,0,0,.2.19,7,7,0,0,0,.65.46,6.15,6.15,0,0,1,1.81,1.77,6.21,6.21,0,0,1,.77,2.41,5.87,5.87,0,0,0,.12.79A.91.91,0,0,0,1140.81,785.89Z" transform="translate(-912.11 -587.61)"/><path class="cls-4" d="M1146.78,781.88a1.21,1.21,0,0,0-.2-.17c-.14-.1-.38-.23-.67-.39a4.68,4.68,0,0,1-2.67-3.77,6.5,6.5,0,0,0-.15-.75.9.9,0,0,0-.09-.25,1.1,1.1,0,0,0,.21.17,5,5,0,0,0,.66.39,5.61,5.61,0,0,1,1.83,1.53,5.45,5.45,0,0,1,.84,2.24,6.07,6.07,0,0,0,.15.75A.9.9,0,0,0,1146.78,781.88Z" transform="translate(-912.11 -587.61)"/><path class="cls-4" d="M1152.45,778.06a.52.52,0,0,0-.15-.13,3,3,0,0,0-.52-.3,2.94,2.94,0,0,1-1.88-2.78,2.46,2.46,0,0,0-.09-.6.62.62,0,0,0-.07-.19.55.55,0,0,0,.18.1,5.22,5.22,0,0,0,.58.2,3,3,0,0,1,1.54,1.06,2.88,2.88,0,0,1,.41,1.83,4.71,4.71,0,0,0,0,.61A.71.71,0,0,0,1152.45,778.06Z" transform="translate(-912.11 -587.61)"/><path class="cls-4" d="M1159.83,776.67a1.6,1.6,0,0,0-.24-.18c-.16-.11-.42-.25-.74-.43a6.06,6.06,0,0,1-2.07-1.78,6.19,6.19,0,0,1-1-2.55c-.06-.37-.09-.66-.14-.85a1.09,1.09,0,0,0-.09-.28,1.56,1.56,0,0,0,.21.21,5.61,5.61,0,0,0,.67.51,6.54,6.54,0,0,1,3,4.27,6.88,6.88,0,0,0,.25.81A1.16,1.16,0,0,0,1159.83,776.67Z" transform="translate(-912.11 -587.61)"/><path class="cls-4" d="M1108.28,822.69c-.44.21-2.22-2.64-4.56-6l-.89-1.27,1.28-1.11a2.4,2.4,0,0,1,.66,1.7,4.61,4.61,0,0,1-.18,1.31c-.21.71-.41,1.33-.61,1.84-.38,1-.7,1.59-.91,1.54s-.24-.72-.16-1.79c0-.53.13-1.16.23-1.86s0-1.38-.21-1.52l1.27-1.12c.29.38.63.82,1,1.29C1107.59,819.19,1108.71,822.5,1108.28,822.69Z" transform="translate(-912.11 -587.61)"/><path class="cls-4" d="M1106.9,816.8c-.1,0-.37-.25-.47-.92a4.6,4.6,0,0,1,0-1.17,7.53,7.53,0,0,1,.33-1.52,2.23,2.23,0,0,1,.67-.93,2.65,2.65,0,0,1,1.12-.5,3.5,3.5,0,0,1,2.41.48,6.56,6.56,0,0,1,3.14,4,4.8,4.8,0,0,1-.12,2.83,2.19,2.19,0,0,1-1.15,1.29,2.67,2.67,0,0,1-1.52.19,3.94,3.94,0,0,1-2.13-1.16,6.84,6.84,0,0,1-1.1-1.57c-1-2-1.06-3.41-.85-3.46s.75,1.16,1.9,2.82a3.75,3.75,0,0,0,2.4,1.78,1.13,1.13,0,0,0,.58-.09c.13-.08.17-.13.27-.38a3.42,3.42,0,0,0,0-1.83,5.34,5.34,0,0,0-2.26-3.06c-1-.67-2-.52-2.28.09a10.71,10.71,0,0,0-.49,1.22,7.64,7.64,0,0,0-.28,1C1107,816.43,1107,816.75,1106.9,816.8Z" transform="translate(-912.11 -587.61)"/><path class="cls-4" d="M1111.71,813.13s-.12.13-.32,0a.76.76,0,0,1-.26-.86,5.47,5.47,0,0,1,.43-1,5.13,5.13,0,0,1,.88-1.22,3.59,3.59,0,0,1,1.71-1,4.13,4.13,0,0,1,2.28.08,4.88,4.88,0,0,1,2.1,1.33,6.47,6.47,0,0,1,1.33,2.21,9,9,0,0,1,.34,1.28l.06.31c0,.13,0,.26,0,.39a1.59,1.59,0,0,1-.18,1,1.41,1.41,0,0,1-.67.58,3.07,3.07,0,0,1-.76.19,4.43,4.43,0,0,1-1.09,0,5.24,5.24,0,0,1-1.88-.57,5.75,5.75,0,0,1-2.27-2.13c-.87-1.48-.88-2.51-.71-2.56s.62.81,1.59,1.91a5.53,5.53,0,0,0,2,1.44,4.26,4.26,0,0,0,1.38.3,3.44,3.44,0,0,0,.72,0c.17,0,.12,0,.13,0h0l-.08-.42a7.74,7.74,0,0,0-.28-1,4.14,4.14,0,0,0-2.31-2.61,2.65,2.65,0,0,0-2.65.31,8.36,8.36,0,0,0-1.5,1.59C1111.52,812.83,1111.71,813,1111.71,813.13Z" transform="translate(-912.11 -587.61)"/><path class="cls-4" d="M1136.19,802.45c.11-.07.37.21.91.5a3.58,3.58,0,0,0,2.42.35,4.87,4.87,0,0,0,1.59-.64,5.9,5.9,0,0,0,1.51-1.26,1.34,1.34,0,0,0,.23-1.51,3.13,3.13,0,0,0-1.35-1.48,1.48,1.48,0,0,0-1.25-.06,3.26,3.26,0,0,0-.69.36l-.35.23-.17.13-.09.07,0,0,0,0h0s-.15-.17-.22-.24l-.72.45-.08.05s.05,0,0,0l-.13.07-.5.26-.88-1.08a4.45,4.45,0,0,1-.54-.85,1.8,1.8,0,0,1-.1-1.26,1.92,1.92,0,0,1,.64-.92,6.6,6.6,0,0,1,1.29-.73l1-.48c1.28-.58,2.06-.83,2.15-.68s-.53.7-1.67,1.51l-1,.65a6.79,6.79,0,0,0-1,.72.52.52,0,0,0-.18.3.51.51,0,0,0,.08.26,2.64,2.64,0,0,0,.39.49l.23.24s0,0,0,0l0,0a6.66,6.66,0,0,1,1.81-1.17,3.17,3.17,0,0,1,2.64.11,4.62,4.62,0,0,1,2.17,2.43,3,3,0,0,1,.16,1.72,3.2,3.2,0,0,1-.75,1.43,6.93,6.93,0,0,1-2,1.51,5.83,5.83,0,0,1-2.14.59,3.87,3.87,0,0,1-3-1C1136.15,802.94,1136.1,802.5,1136.19,802.45Z" transform="translate(-912.11 -587.61)"/><path class="cls-4" d="M1141.72,792.92c0-.11.19-.35.68-.67a6.85,6.85,0,0,1,2.39-1,4.42,4.42,0,0,1,1.93.08,5.67,5.67,0,0,1,1.94,1,10.69,10.69,0,0,1,1.67,1.58,4.39,4.39,0,0,1,1.06,2.55,3.22,3.22,0,0,1-.3,1.54,2.69,2.69,0,0,1-.48.69,1.73,1.73,0,0,1-.93.5,2.49,2.49,0,0,1-.77,0,6.17,6.17,0,0,1-.62-.09,5.25,5.25,0,0,1-1.14-.37,6.28,6.28,0,0,1-2.86-2.73,10.05,10.05,0,0,1-.93-2.33c-.14-.57-.15-.91,0-1s.85,1.05,2,2.6a5.6,5.6,0,0,0,2.44,1.93,5.31,5.31,0,0,0,.83.22l.45,0a1.42,1.42,0,0,0,.31,0l0,0a1.12,1.12,0,0,0,.15-.24,1.56,1.56,0,0,0,.12-.71c0-1.06-1.08-2.14-2-3a3.89,3.89,0,0,0-2.75-1.1,12,12,0,0,0-2.25.36C1142.11,793,1141.77,793,1141.72,792.92Z" transform="translate(-912.11 -587.61)"/><path class="cls-4" d="M1169.2,777.41c-.08-.06,0-.45.5-.93a3.61,3.61,0,0,1,2.77-.9,3.71,3.71,0,0,1,2,.81,6.79,6.79,0,0,1,1.49,1.75c.41.65.78,1.29,1.18,2a5.91,5.91,0,0,1,1,2.65,2.23,2.23,0,0,1-.79,1.77,2.8,2.8,0,0,1-1.57.63,4.56,4.56,0,0,1-2.67-.65,7.42,7.42,0,0,1-2.8-3.13,15.38,15.38,0,0,1-1-2.48c-.18-.6-.22-1-.11-1s.36.2.72.71.82,1.28,1.43,2.14a7,7,0,0,0,2.51,2.36,3.14,3.14,0,0,0,1.71.36,1.23,1.23,0,0,0,.64-.24.52.52,0,0,0,.17-.43,5.2,5.2,0,0,0-.79-1.85l-1.07-2a3.69,3.69,0,0,0-2.28-2.16,3.45,3.45,0,0,0-2.2.24C1169.58,777.27,1169.31,777.49,1169.2,777.41Z" transform="translate(-912.11 -587.61)"/><path class="cls-5" d="M1290.09,839.53,1097,945.5a7.32,7.32,0,0,1-10.72-5.09L1078,895.63a7.33,7.33,0,0,1,3.67-7.74l168-92.2a7.31,7.31,0,0,1,8.5,1.06l33.34,31A7.32,7.32,0,0,1,1290.09,839.53Z" transform="translate(-912.11 -587.61)"/><path class="cls-4" d="M1290.17,839.69c-49.57,27.59-99.41,57.26-150,83.24-7.56,4-22.77,12.1-30.28,16.15l-7.53,4.1-3.77,2.05c-.64.34-1.21.7-1.93,1a7.86,7.86,0,0,1-10.89-5.35c-.27-1.34-1-4.92-1.23-6.34-2.08-11.25-4.38-22.45-6.56-33.68a64.41,64.41,0,0,1-1.16-6.51,8.63,8.63,0,0,1,4.9-7.86l1.87-1.06c54.56-30.61,110-61.82,165.44-90.74a8.76,8.76,0,0,1,10.88,2.34c1,1,3.56,3.47,4.62,4.47,7.21,7,17.53,17,24.74,23.78.8.82,2.32,2.1,3.1,3a7.59,7.59,0,0,1-2.22,11.38Zm-.17-.32a7.26,7.26,0,0,0,.51-12.24l-1.58-1.44c-7.28-6.66-18-16.28-25.5-23-1.11-1-3.74-3.35-4.8-4.29-2.15-2.4-5.64-3.42-8.45-1.67C1196,828,1139.9,858,1084.78,887.6l-1.89,1a9.36,9.36,0,0,0-1.63,1,6.24,6.24,0,0,0-2,3,7.18,7.18,0,0,0,0,3.74c2.19,12.66,4.28,25.39,6.59,38,.31,1.25.83,5.06,1.16,6.3a6.65,6.65,0,0,0,3.53,4.49c2.55,1.3,5.23.71,7.6-.84l3.76-2.07c10.77-5.91,26.66-14.91,37.38-21,49.09-28.72,100.85-54.8,150.77-81.82Z" transform="translate(-912.11 -587.61)"/><path class="cls-4" d="M1174.08,844.78c9,1.3,12,12.23,4.42,17.56-4.26,3.17-10.88,2.49-14.1-1.89a9.83,9.83,0,0,1,9.68-15.67Zm0,.1c-8-1.21-13.63,8.59-8.86,15,4.86,6.79,15.68,4.46,16.62-4.06.67-4.89-2.65-10.2-7.76-10.91Z" transform="translate(-912.11 -587.61)"/><path class="cls-4" d="M1174.48,852c.17.31-1.14,1.35-2.93,2.3s-3.37,1.48-3.54,1.16,1.14-1.35,2.93-2.31S1174.31,851.7,1174.48,852Z" transform="translate(-912.11 -587.61)"/><path class="cls-4" d="M1173.8,857.39c-.33.14-1.3-1.33-2.6-3.08s-2.29-3.31-2-3.54,1.69.93,3,2.77S1174.14,857.27,1173.8,857.39Z" transform="translate(-912.11 -587.61)"/><path class="cls-4" d="M945.12,772.88c4.44,8-2.45,17-11.28,14.17-8.51-2.52-10.15-14.15-2.21-18.53,4.78-2.76,11.09-.36,13.49,4.36Zm-.09,0c-3.89-7.09-15.1-5.63-17.27,2-1.54,4.72,1.24,10.46,6.18,11.75,7.6,2.25,15-6.82,11.09-13.79Z" transform="translate(-912.11 -587.61)"/><path class="cls-4" d="M939.61,777.59c-.15.33-1.76-.08-3.61-.92s-3.22-1.79-3.07-2.12,1.77.09,3.61.93S939.76,777.27,939.61,777.59Z" transform="translate(-912.11 -587.61)"/><path class="cls-4" d="M934.92,780.32c-.31-.19.28-1.85.87-4s1.25-3.82,1.61-3.74.28,1.92-.36,4.12S935.23,780.51,934.92,780.32Z" transform="translate(-912.11 -587.61)"/><path class="cls-4" d="M1031.53,938.28c9,1.3,12,12.23,4.42,17.57-4.26,3.16-10.88,2.49-14.1-1.9a9.83,9.83,0,0,1,9.68-15.67Zm0,.11c-8-1.22-13.63,8.58-8.86,15,4.86,6.79,15.68,4.46,16.62-4.06.67-4.88-2.65-10.2-7.76-10.9Z" transform="translate(-912.11 -587.61)"/><path class="cls-4" d="M1031.93,945.52c.17.32-1.14,1.35-2.92,2.3s-3.38,1.48-3.55,1.16,1.14-1.35,2.93-2.31S1031.76,945.2,1031.93,945.52Z" transform="translate(-912.11 -587.61)"/><path class="cls-4" d="M1031.25,950.9c-.33.13-1.3-1.34-2.6-3.09s-2.29-3.3-2-3.54,1.69.94,3,2.78S1031.59,950.77,1031.25,950.9Z" transform="translate(-912.11 -587.61)"/><path class="cls-4" d="M1228.52,617.35c2.42,4.55,8.55,5.83,12.91,3.52,7.67-3.82,6.13-14.77-1.92-17-7.64-2.28-14.89,6.4-11,13.48Zm-.1,0a9.84,9.84,0,0,1,11.38-14.49c5.22,1.52,8.14,7.5,6.64,12.59-2.4,8.94-13.7,9.91-18,1.9Z" transform="translate(-912.11 -587.61)"/><path class="cls-4" d="M1235.36,615.29c-.36,0-.42-1.72-.14-3.73s.8-3.59,1.16-3.54.41,1.71.13,3.72S1235.71,615.34,1235.36,615.29Z" transform="translate(-912.11 -587.61)"/><path class="cls-4" d="M1240.17,612.79c0,.36-1.94.53-4.15-.13s-3.78-1.58-3.66-1.9,1.92,0,4,.65S1240.18,612.43,1240.17,612.79Z" transform="translate(-912.11 -587.61)"/><path class="cls-4" d="M1321.64,779.16c-3.35,7.28,4.84,15.69,12.22,12.8,4.81-1.71,7.09-7.66,5.16-12.24-2.82-7.45-14.11-8-17.38-.56Zm-.1,0c2-4.91,8.07-7.83,13.07-5.49,8.28,3.69,7.64,15.41-.63,18.65-8.56,3.52-16.18-4.87-12.44-13.16Z" transform="translate(-912.11 -587.61)"/><path class="cls-4" d="M1327.43,783.35c-.18-.32,1.11-1.38,2.88-2.37s3.34-1.55,3.52-1.23-1.12,1.37-2.88,2.37S1327.61,783.66,1327.43,783.35Z" transform="translate(-912.11 -587.61)"/><path class="cls-4" d="M1332.33,785.66c-.29.22-1.6-1.22-2.41-3.38s-1-4-.71-4.06,1.14,1.55,1.92,3.59S1332.63,785.45,1332.33,785.66Z" transform="translate(-912.11 -587.61)"/><circle class="cls-2" cx="190.29" cy="329.62" r="4.7"/><path class="cls-4" d="M1106.52,915a5,5,0,0,1-8.79,4.82c-3-6,5.48-10.48,8.79-4.82Zm0,0a4.38,4.38,0,0,0-7.68,4.21,4.38,4.38,0,0,0,7.68-4.21Z" transform="translate(-912.11 -587.61)"/><circle class="cls-2" cx="209.48" cy="309.31" r="3.4"/><path class="cls-4" d="M1122.75,900.12a3.63,3.63,0,0,1-2.47-6.83,3.63,3.63,0,0,1,2.47,6.83Zm0,0a3.17,3.17,0,0,0-2.16-6,3.17,3.17,0,0,0,2.16,6Z" transform="translate(-912.11 -587.61)"/><circle class="cls-2" cx="350.44" cy="241.72" r="4.7"/><path class="cls-4" d="M1258.44,831.59a4.38,4.38,0,0,0,7.68-4.21c-2.86-4.94-10.32-1-7.68,4.21Zm0,0c-3-5.83,5.32-10.6,8.79-4.82a5,5,0,0,1-8.79,4.82Z" transform="translate(-912.11 -587.61)"/><circle class="cls-2" cx="323.01" cy="247" r="3.4"/><path class="cls-4" d="M1237.2,837.31a3.17,3.17,0,0,0-3.87-5,3.17,3.17,0,0,0,3.87,5Zm0,0a3.63,3.63,0,0,1-4.43-5.76,3.63,3.63,0,0,1,4.43,5.76Z" transform="translate(-912.11 -587.61)"/></svg>