<svg data-name="Слой 1" xmlns="http://www.w3.org/2000/svg" viewBox="0 0 384.71 379.61"><path d="M196.51 15.99a181.82 181.82 0 010 363.63c-1.86 0-3.71 0-5.56-.1V16.09c1.85-.06 3.7-.1 5.56-.1z" fill-rule="evenodd" fill="#2b2a29"/><path d="M175.57 363.25a178.75 178.75 0 010-357.33v357.33z" fill="#fefefe" fill-rule="evenodd"/><path d="M207.53 290.76c-4.46-66.64-5.79-134.61-5.24-201.38.33-23.63 1.43-47.27 2.33-70.9 46.13-.3 91.66 17 125.5 48.26 52.17 46.68 68.83 123.05 41.8 187.64-26.75 65.86-97 108.29-167.65 101.37.87-21.19 1.85-43.89 3.26-65h1.36c1 14.85 1.8 31.16 2.47 46.09l.64 15.36-3.68-3.79a167.32 167.32 0 0062.46-12.77c59.07-24.11 100.74-84.46 101.24-148.41.95-53.53-25.5-107.57-70.84-137.12a148.83 148.83 0 00-92.86-24.12l3.62-3.74c1.4 33.56 2.65 67.11 2.34 100.69-.11 32.06-.85 68.51-1.93 100.69-.85 22.38-1.82 44.75-3.46 67.13z" fill="#fff"/><path d="M172.29 352.63c-69.26 3.83-136-42-161-106.14C-31.32 135.67 52.1 4.96 171.64.28l6.22-.28.09 6.4c2 111.29 1.16 223.87-4.79 335-.17 2.53-.47 7.85-.64 10.46v.26c-.09.24.2-.43-.21.56zm-.93-1c-.41.94-.12.21-.21.4v-.09c-.18-2.86-.46-7.69-.65-10.63-5.95-111.02-6.86-223.65-4.8-334.95l6.32 6.17c-66.17.8-128.93 40-153.24 102.58-26 66.12-2.74 145.56 49.82 191.86a180.55 180.55 0 0086.86 42.14c4.64.75 11.11 1.82 15.91 2.56z" fill="#1d1d1b"/></svg>