<svg id="Слой_1" data-name="Слой 1" xmlns="http://www.w3.org/2000/svg" viewBox="0 0 175.11 120.58"><defs><style>.cls-1{fill:#bf5c42;}.cls-2{fill:#fff;}.cls-3{fill:#4f5878;}.cls-4{fill:#fae79a;}.cls-5{fill:#1e1e1c;}</style></defs><ellipse class="cls-1" cx="293.86" cy="509.48" rx="46.73" ry="5.48" transform="translate(-464.74 -198.28) rotate(-30)"/><polygon class="cls-1" points="18.53 82.52 56.12 26.54 173.7 23.53 153.8 107.83 98.16 92.98 18.53 82.52"/><polygon class="cls-2" points="19.93 79.75 57.52 23.76 175.11 20.75 155.21 105.05 99.56 90.2 19.93 79.75"/><polygon class="cls-3" points="7.05 107.37 102.4 50.69 106.64 54.17 108.58 57.65 15.16 115.83 15.48 110 7.05 107.37"/><polygon class="cls-4" points="2.58 114.5 10.87 108.24 15.86 110.29 15.86 114.5 10.87 116.47 6.2 119.34 6.12 115.31 2.58 114.5"/><g id="ручка_листок" data-name="ручка листок"><path class="cls-5" d="M351.66,464.05a2.18,2.18,0,0,1,2.63.46c.26.39.33,1,.59,1.28a2.19,2.19,0,0,0,1.06.71,3.49,3.49,0,0,1,2,1.81,3.16,3.16,0,0,1-.18,2.78l-.24.06a4.72,4.72,0,0,1-2.55-3.78,1.36,1.36,0,0,0-.59-1,4.07,4.07,0,0,0-1.26-.23c-.83-.31-1.17-1-1.52-1.87l.08-.22Z" transform="translate(-249.37 -413.47)"/><path class="cls-5" d="M256.3,520.87c22.25-13.64,49.61-30.95,72.25-43.7,8.29-4.72,16.49-9.4,24.57-14.25l9-3.13c3.67-1.26,7.35-2.62,11-3.92-.87.89-12.43,13.92-13.67,15.13-31.19,20.16-62.68,39.86-94.64,58.78l-1.75,1.05c1-2.16,4-6.34.49-7.64a39.74,39.74,0,0,0-6.95-2.17l-.11,0-.08,0a.28.28,0,0,1-.13-.1Zm.23,0a.06.06,0,0,0,0-.08h0l.11,0,.24,0,.47.08a34,34,0,0,1,6.48,1.65,4.11,4.11,0,0,1,1.74,1.13c1.18,1.86.21,4.13-.57,5.91l-.8-.75q34.92-22.94,70.54-44.79c7.61-4.67,16.65-10.29,23.6-14.37l12.48-12.9.58.9c-3,1-6,1.93-9,2.95l-9,3c-7.7,4.56-16.06,9.7-23.82,14.54-15.58,10-56.45,33.08-73.05,42.67Z" transform="translate(-249.37 -413.47)"/><path class="cls-5" d="M259.67,522.24a13.28,13.28,0,0,1-3.91,3.92c-1.55.92-3.51,1.28-4.83,2.61l-.24-.77c1.58-.13,2.85-.6,4.52,0,2.25,1,1.45,4.22.87,6.06a10,10,0,0,1-2.39-.18c-1.42-.24-3.68-1.34-3.12-3.11h.24c.4.82,1.09.87,1.88.93a14.31,14.31,0,0,0,2.37-.14l-1.13,1a17.5,17.5,0,0,0,.24-2.45c0-.08,0-.09,0-.06a14.09,14.09,0,0,0-4.84-1.32,10.88,10.88,0,0,0,3.23-2.26,11.39,11.39,0,0,1,4.26-3.43,10.82,10.82,0,0,1,2.67-.94l.14.2Z" transform="translate(-249.37 -413.47)"/><path class="cls-5" d="M256,532.71a2.61,2.61,0,0,1,1.56-2.16,8.77,8.77,0,0,0,1.39-.21,1.93,1.93,0,0,0,.88-.94A4.07,4.07,0,0,1,264.3,527l.14.2a3.86,3.86,0,0,1-2.52,3c-.72.41-1.9.17-2.5.82a8.93,8.93,0,0,0-.68,1.22,2,2,0,0,1-1.07.67,3,3,0,0,1-1.5,0l-.14-.2Z" transform="translate(-249.37 -413.47)"/><path class="cls-5" d="M313.85,499.13c11.77,1.21,27.3,2.77,37.5,4.33,9.93-3.14,23.95-7.41,33.77-10.39S409,486,419,483.16l-.48.63c1.09-22.06,2.07-47.29,2.54-69.32l.86.51c-8.72,5.47-26.21,16.38-34.94,21.81-13.39.7-47.16,1-60.21,1.41l-19.9.29,1-.56c-12.22,18-25.66,37.68-38.12,55.63l-.43-.95c7.78,1.2,19.37,2.93,27.29,4.19l0,.24c-8.36-1-20.12-2.25-28.4-3.33l.55-.84,9.2-14.12c9.17-13.85,19-29,28.23-42.75,22.5-.52,57.49-.82,80.26-1.09l-.52.15c8.8-5.25,26.59-15.84,35.41-21.05l.91-.54,0,1c-1,22-1.88,47.26-2.3,69.33v.48l-.48.15c-10,3.12-23.8,7.67-33.69,10.65s-24.05,7.19-34.06,10.23c-9.14-1.31-19.35-2.88-28.47-4.38-3.13-.52-6.27-1-9.4-1.6l0-.24Z" transform="translate(-249.37 -413.47)"/></g></svg>