<svg id="Слой_1" data-name="Слой 1" xmlns="http://www.w3.org/2000/svg" viewBox="0 0 372.38 442.23"><defs><style>.cls-2{fill:#fff}</style></defs><path d="M1116.84 429.14l2.81.3v4.62a4.74 4.74 0 004.73 4.72h25a4.74 4.74 0 004.73-4.72v-5.38l3.1-.53c4.77-32.35 2.8-82.64 5.66-118.52 3.18-39.66 8.92-76.87 12.87-115.69l11.47 129.25c2.77 49.17-3.49 44.86 95.2 47l.59-316.11c-13.16-4.29-27.24-12.13-29.11-28.34 27.57 2.27 43.62 2.69 71.35-.06-2.6 18-15.65 20.71-28.87 30l-.3 313.49c14.81 2.35 51.56.69 67-1.23 31.77-3.94 26.94-14.08 28.71-44.91 2.53-44.11 3.67-93.43 8.59-136.73a1152.21 1152.21 0 0115 114.52c3.2 40.74 2.13 86.37 6.15 125.57a37.53 37.53 0 004 1.8v5.87a4.74 4.74 0 004.72 4.73h25a4.75 4.75 0 004.73-4.73v-4.76l2.19-.27q1-8.58 1.86-17.42h-26.37v-9.34H1465c7.18-82.77 4.74-179.11-7.84-257.53-6.69-41.72-16.32-86.92-52.56-97.41-12.61-3.66-53-10.46-61.19-15.06C1319.81 19 1355.4 11 1289.67 11c-62.44 0-32.29 5.13-52.44 20.13-6.15 4.58-48.63 12.5-60.56 15.65-38.14 10.07-47.11 53.33-54.32 95.39-13 75.83-15.76 178.26-8.39 260.13h27.91v9.34h-27c.61 6 1.27 11.83 2 17.54zm201.28-200.06l63.7 78.4-7.22 5.87-63.7-78.35zM1270 235l-63.7 78.4-7.22-5.87 63.7-78.4z" transform="translate(-1109.95 -10.96)" fill-rule="evenodd"/><path class="cls-2" d="M1303.12 376.94c11 .69 22.12-.18 33.13-.89 11-.89 22.06-1.84 32.88-3.47 7.26-1.4 15.33-2.25 20.33-7.38a12.14 12.14 0 002.55-5.39c1-4.45 1-10 1.07-15.48s.22-11.37.44-16.8c1.53-38.16 2.57-78.84 7.39-116.66 1.42-11.32 4.86-34.15 6.45-45.59 10.31 69.24 18 139.33 21.31 209.2 1.18 19.85 2.63 40 5.07 59.79l-2.79-4.11a60.77 60.77 0 006.85 2.61c.06 2.36.18 7.26.23 9.64a.8.8 0 00-.63-.8c6.28-.14 18.56-.31 24.85-.4.08 0 0 0 0 0h-.22a1.28 1.28 0 00-1 .8 1.4 1.4 0 00-.1.41v-1.58c0-1.85-.07-6.61-.11-8.53 1.45-.22 6.3-.82 7.69-1l-5.41 5.42 1.62-17.33 6.38 7c-5 .09-28.55.3-33 .37-.07-6.7-.16-16.14-.23-22.83l20.47-.21 13.61-.06-7 6.39a1479.86 1479.86 0 003.24-192.54q-1.6-32.14-4.75-64.29l1.29-.2c1.09 5.27 2.27 10.55 3.28 15.85q4.51 23.86 7.45 48a952.33 952.33 0 013.43 194.37l-.57 6.42c-4 0-15.81-.07-20-.09l-13.61-.14 6.8-6.8-.1 9.34-6.7-6.7 33.58.37-.84 6.94c-.43 3.35-2.29 19.34-2.68 22.44-1.58.15-5.52.59-7 .74l5.41-6.1v3.15c.4 5.56-2.68 10.67-8.26 12a11.4 11.4 0 01-3 .3l-12.63-.19c-2.13 0-7.41-.14-9.46-.16h-2.37a10.35 10.35 0 01-7.55-3.25 10.64 10.64 0 01-2.75-8.22c0-.89.09-3.77.11-4.73l3.45 5a59.64 59.64 0 01-7.15-3.58c-.12-1.6-.58-8.53-.71-10.3-1-17.52-1-35.54-1-53 .47-40.23-1.23-80.33-7.41-120.08-2.95-19.86-6.87-39.55-11.12-59.16l8.26-.27c-3 44.22-3.88 88.7-7.11 133-.67 8.14-.87 16.9-1.54 25.05-1.28 21.31-14.25 25.4-32.79 27a354.51 354.51 0 01-54.63-.19 103.82 103.82 0 01-12.51-1.8l.2-1.29z" transform="translate(-1109.95 -10.96)"/><path class="cls-2" d="M1304 64.1c3.61 19.42 4.7 39.09 5.1 58.78.86 19.67-3 39.2-3.76 58.78-1.11 26.16 3.6 52.22 4 78.37 1.79 39.28.52 78.62-5.63 117.55h-1.31c-8-51.89-7.59-104.59-2.78-156.74a302.21 302.21 0 001.51-39.19c-.37-13.06-2.48-26.13-3.31-39.19s-.29-26.13.4-39.18a307.52 307.52 0 014.47-39.18z" transform="translate(-1109.95 -10.96)"/><path class="cls-2" d="M1194.79 331.57c.75 4.91 1.64 11.11 2.27 16s1.42 10.4 3.41 14.91 5.24 6.47 9.78 7.65a74 74 0 0015 1.87c18.58.69 37.51.21 56.15.57l8.07.17-6 5.86c.1-9.88.32-19.76.81-29.63.72-16.41 1.87-33 2.58-49.4 1.84-38-.06-80.32-1.87-118.55-1.41-39.33-2-79.22-2-118.56l4.84 6.68a73.25 73.25 0 01-10.92-4.49c-11.59-5.62-21.34-16.4-22.35-29.77l-.75-7.92c8.22 1 17.07 1.81 25.24 2.56a343.31 343.31 0 0035.07 1.48c7.43-.08 15.12-.43 22.6-.7-2.69 16.48-8.82 22.55-23.4 29.4-3.26 1.61-6.49 3.17-9.63 5l-.75-1.07c2.81-2.37 5.81-4.51 8.79-6.58 9.08-6.1 16-11.8 16.83-23.4l4 4.17a295.9 295.9 0 01-36 3.55c-12.08.43-24.17-.11-36.19-.78l6.86-7.09c1.22 8.92 8 15.08 15.9 18.83a112.17 112.17 0 0013.86 5.15c.17 28.05-.61 56.1-1.18 84.13-.34 22.49-2.09 56.29-3.18 79-2.29 42.82-.38 85.66 2 128.44.55 11.82.68 23.77.73 35.61-12.73-.23-25.56-.53-38.29-1-14.84-1-46.69-.29-57.44-10.61-6.91-6.59-6.55-16.5-6.62-25.14.07-5 .35-11.35.58-16.2l1.31-.08z" transform="translate(-1109.95 -10.96)"/><path class="cls-2" d="M1129.91 150.66c-6 64.46-7.31 130-7.36 194.78-.07 21.64-.18 43.34 1 65l-2.72-2.49c9.87.35 20.14.58 30 .68-.06 4.43-.12 8.95-.12 13.39-9.66-.07-19.34 0-29 .07l2.06-2.28c.57 4.33 1.7 13.12 2.29 17.45l-.76-1.45-1.35-.62c1.23.12 3.72.33 4.93.44 0 1.35.11 4 .14 5.35v1.52a2.1 2.1 0 002 1.94q6.51-.17 13-.42l12.21-.45a1 1 0 00.77-.94l-.21-5.52-.12-3.28 6.57-1.4L1160 436c2.64-29 1.51-58.39 2-87.58.17-49.19 8.5-98 14.63-146.63l12 .08c.76 10.79 1.38 21.59 2 32.39 1.88 32.42 3.45 64.85 4.07 97.33l-1.3.12c-2.58-16.05-4.87-32.12-7-48.23q-5.42-40.2-9.82-80.54l12 .08c-3.06 39.07-8.65 77.85-12.27 116.73-2.49 28.89-2.21 58.68-4.49 87.86a292.76 292.76 0 01-4.21 32.75l-6 .81 3.41-4c-.06 1.27-.15 4.2-.2 5.51a8.55 8.55 0 01-9.06 8.18l-11.68-.42q-6.23-.24-12.46-.4a7.5 7.5 0 01-7.32-5.05 10.1 10.1 0 01-.34-3.95l.08-3.12 2.17 2.42c-.57 0-3.1-.41-3.63-.46-.28-.28-.92-.86-1.21-1.15l-.07-.81-.84-8.82c-.21-1.82-.9-9.5-1.08-11.12 5.26 0 10.55.12 15.8.12h13.5l-2 2c0-3.11 0-6.23-.08-9.34l2.07 2.08c-10 .13-20.34.36-30.31.75-2.76-22.52-5.31-45.11-6.54-67.81-2.25-43.63-.16-87.46 5-130.82 2.76-21.67 6.31-43.27 11.66-64.44l1.29.22z" transform="translate(-1109.95 -10.96)"/><path class="cls-2" d="M1463.45 153.25c-9-29.09-16.45-72.34-44.77-88.29a56 56 0 00-12.7-5c-14.36-4-29.32-8.1-43.77-12.55-4.35-1.41-8.89-2.66-13-4.85-5.67-3.34-10.06-7.46-11-14.32-.45-2.37-1.3-3.15-3.48-3.95a29.57 29.57 0 00-6.92-1.39 123 123 0 00-14.91-.48c-14.87.33-30.36 1.36-44.93 3-3.12.49-6.49.85-9 2.09-.33.19-.31.28-.15.11 0 .06 0 .14-.06.2-.1.29-.52 2-.62 2.35-1.52 6.22-6.23 11.46-11.19 14.94-4.19 2.49-8.38 3.59-12.71 5-14.66 4.32-29.75 7.55-44.48 10.75a64.73 64.73 0 00-13 4c-19.59 8.73-29.45 30.11-36.12 49.67-4.11 11.89-7.21 24-10.77 36.2l-1.29-.22c.92-15.25 2.57-30.67 6.31-45.57 5.37-22.41 17.4-45 40-54a69.22 69.22 0 018-2.68c11.13-2.82 22.41-5 33.43-7.39 7.16-1.54 14.46-3.08 21.32-5.24a10.92 10.92 0 003.37-1.5c2.8-2.06 4.91-4.11 5.9-7.26l.58-1.83a18.82 18.82 0 01.94-2.37c2-4.12 6.15-6.08 10.44-6.83 5.58-1 10.64-.92 16.1-.94 18 .58 35.58 1.33 53.5 3.69 4.89.86 12 1.88 13.43 7.84.6 2.69.88 5.12 2.61 7.21a22.32 22.32 0 006.84 5.22 59.64 59.64 0 0012.18 3.41c8.68 1.71 21 3.38 29.89 4.64 9 1.41 18.44 2.44 27 6 27 11.76 37.27 42.94 41.48 69.74a252.24 252.24 0 012.82 30.48l-1.29.2zM1325.1 236.85a228.53 228.53 0 0134.54 34.77c5.52 7.05 10.11 15.26 14.9 22.63A136.91 136.91 0 001392.3 316c-2.92 2.73-5.76 5.69-8.52 8.58l-2.14 2.22c-4-3.81-8.18-7.67-12.08-11.55-8.78-9.1-17.26-18.51-25.35-28.21a308.81 308.81 0 01-28.4-42l-1.43-2.59a93.46 93.46 0 0110.72-5.57zm-.13 1.3c-2.13 2.48-3.6 4.81-5.52 7.24l.38-3.65a307 307 0 0150.46 56.62c5.08 6.76 9.62 13.92 14 21.16l-5-.52c2.65-1.66 5.32-3.3 7.88-5.06l-.36 3.56a121.47 121.47 0 00-15.7-19.14c-5.83-5.69-11.85-10.55-16.94-16.57-11.07-13.61-20.22-28.25-29.17-43.64zM1277.56 243.31a227.92 227.92 0 01-27 40.91c-5.77 6.85-12.86 13-19.1 19.23a136.71 136.71 0 00-17.63 21.83c-4.09-2.87-8.5-5.58-12.74-8.23 5.1-8.35 10.21-16.76 16.09-24.56 9.74-13.78 20.15-27 32-39.07a278.58 278.58 0 0120.68-19.48 92.62 92.62 0 017.64 9.37zm-1.3.13c-2.86-1.58-5.44-2.55-8.2-3.92l3.64-.38a308.81 308.81 0 01-28.4 42c-8.09 9.7-16.57 19.11-25.35 28.21-3 3-6.1 5.89-9.18 8.81l-.52-5c2.16 2.25 4.31 4.53 6.55 6.68l-3.55.37a121.53 121.53 0 0015.52-19.28c4.38-6.87 7.9-13.76 12.75-20 11.06-13.62 23.51-25.57 36.74-37.48z" transform="translate(-1109.95 -10.96)"/></svg>