<svg xmlns="http://www.w3.org/2000/svg" viewBox="0 0 129.07 73.53"><defs><style>.cls-1{fill:#fff;}.cls-2{fill:#1d1d1b;}</style></defs><g id="Layer_2" data-name="Layer 2"><g id="Layer_1-2" data-name="Layer 1"><path class="cls-1" d="M.25,44.49S14.55,38.61,16.59,35s-.35-23,1.28-26.81S20.68,1.34,33.7,2.36s71.49,2,76.85,1.78,12.76-1.78,14.3,7.15-2.3,20.17,0,35.75,3.57,19.66-1.54,22.47S34,70,27.82,69.51s-12.25-4.34-11-11.24S.25,44.49.25,44.49Z"/><path class="cls-2" d="M0,44.49c.07-.27.29-.29.23-.27l.08,0,.16-.08L.78,44l.62-.32L2.63,43l2.45-1.3C6.7,40.82,8.31,39.91,9.87,39a33.16,33.16,0,0,0,4.4-3.09,4.67,4.67,0,0,0,1.35-1.66,10.79,10.79,0,0,0,.35-2.4c.09-1.76,0-3.59,0-5.42l-.25-5.52c-.09-1.85-.19-3.71-.25-5.59a41.35,41.35,0,0,1,.15-5.84A9,9,0,0,1,16,7.68a4,4,0,0,1,.15-.41L16.27,7l.28-.68a10.67,10.67,0,0,1,1.77-2.9,8.5,8.5,0,0,1,3-2.1A12.78,12.78,0,0,1,24.43.36,32.63,32.63,0,0,1,30.37,0C32.31,0,34.21.2,36,.29l22.14,1c14.79.7,29.59,1.8,44.4,2.11l5.55.06c.93,0,1.83,0,2.74,0s1.84-.13,2.78-.18a18.79,18.79,0,0,1,5.76.33,7.89,7.89,0,0,1,4.89,3.53A14,14,0,0,1,126,12.69a41.85,41.85,0,0,1,.27,5.69c-.06,3.77-.39,7.47-.52,11.14a88.22,88.22,0,0,0,.19,10.92c.29,3.61,1,7.14,1.6,10.83.32,1.82.65,3.65.93,5.51a49.6,49.6,0,0,1,.62,5.79,13.87,13.87,0,0,1-.23,3.27,7.79,7.79,0,0,1-1.64,3.48,8.42,8.42,0,0,1-1.37,1.31,8.72,8.72,0,0,1-.73.51,6.51,6.51,0,0,1-.78.45,7,7,0,0,1-2,.6c-.53.1-1,.18-1.51.24-3.88.46-7.57.6-11.31.76s-7.45.22-11.17.28-7.43.07-11.14,0-7.43,0-11.14-.1c-14.84-.33-29.66-.81-44.5-1.75l-2.8-.2a20.33,20.33,0,0,1-3-.4,16.77,16.77,0,0,1-5.72-2.35,10.75,10.75,0,0,1-4.12-4.91,9.58,9.58,0,0,1-.63-3.2A10.45,10.45,0,0,1,15.4,59c.06-.52.21-1.1.22-1.32.17-1.25-.73-2.76-1.86-4a24.86,24.86,0,0,0-4-3.49,52.6,52.6,0,0,0-4.65-2.91c-.81-.44-1.61-.89-2.43-1.32l-1.23-.62L.78,45l-.31-.15-.15-.07-.08,0S0,44.67,0,44.49Zm.5,0c0-.16-.18-.25-.08-.2l.09,0,.16,0,.33.12.66.23L3,45.2c.87.34,1.74.69,2.59,1.07a51.59,51.59,0,0,1,5,2.55,25.88,25.88,0,0,1,4.69,3.36,11.2,11.2,0,0,1,2,2.37,6.13,6.13,0,0,1,.94,3.29c0,.7-.12,1-.13,1.44a6.63,6.63,0,0,0,0,1.18,6.47,6.47,0,0,0,.6,2.19,7.71,7.71,0,0,0,3.16,3.27,13.3,13.3,0,0,0,4.62,1.56,20.16,20.16,0,0,0,2.53.19l2.75.06,44.41.36,22.18.17c3.7,0,7.39,0,11.07,0s7.38-.13,10.88-.47c.43,0,.85-.1,1.24-.16s.84-.19.69-.13a5.26,5.26,0,0,0,1.5-1.1,3.2,3.2,0,0,0,.72-1.49,9.64,9.64,0,0,0,.22-2.25,47,47,0,0,0-.4-5.28l-.69-5.48c-.23-1.85-.49-3.66-.68-5.56s-.32-3.79-.36-5.68A94,94,0,0,1,123,29.34c.34-3.73.85-7.4,1.11-11a37.59,37.59,0,0,0,0-5.41,12.13,12.13,0,0,0-1.32-5A5.92,5.92,0,0,0,119,5.05a17.38,17.38,0,0,0-5.28-.34l-2.77.17c-.94,0-1.9.07-2.82.07l-5.57,0C87.7,5,72.86,5.5,58,5.41c-3.71,0-7.42-.06-11.13-.2S39.47,5,35.73,4.71c-1.91-.13-3.7-.31-5.47-.37a28,28,0,0,0-5.15.21,6.47,6.47,0,0,0-3.79,1.57,6.82,6.82,0,0,0-1.15,1.8l-.27.59-.14.31a1,1,0,0,0-.1.25,5.05,5.05,0,0,0-.24.93,45.81,45.81,0,0,0-.33,5.26c0,1.83,0,3.67-.05,5.53a97.9,97.9,0,0,1-.42,11.28,12.93,12.93,0,0,1-.7,3,6.47,6.47,0,0,1-2.25,2.5,33.23,33.23,0,0,1-5,2.88C9,41.32,7.3,42.05,5.58,42.76c-.86.36-1.73.69-2.61,1l-1.31.48L1,44.49l-.33.11-.17.06-.08,0C.32,44.72.48,44.72.5,44.48Z"/><path class="cls-2" d="M120.14,19.41c-.38,3.11-.76,6.22-1.08,9.33s-.59,6.21-.72,9.32a54.3,54.3,0,0,0,.23,9.29c.2,1.56.41,3.1.65,4.65.1.78.22,1.55.34,2.32.07.38.14.77.22,1.15a2.81,2.81,0,0,0,.36,1.09,6.93,6.93,0,0,1-.83-2.18c-.21-.76-.4-1.53-.57-2.29-.34-1.54-.64-3.08-.93-4.62a42.75,42.75,0,0,1-.47-9.45,91.69,91.69,0,0,1,1-9.38c.24-1.55.51-3.1.8-4.64S119.74,20.93,120.14,19.41Z"/><path class="cls-2" d="M18.15,49.83a8.1,8.1,0,0,1,1.67,1.79A11,11,0,0,1,21,53.78a8.44,8.44,0,0,1,.56,2.42,5.06,5.06,0,0,1-.41,2.44,14.23,14.23,0,0,0-.36-2.32,20.42,20.42,0,0,0-.72-2.17C19.5,52.71,18.81,51.33,18.15,49.83Z"/></g></g></svg>