<svg xmlns="http://www.w3.org/2000/svg" viewBox="0 0 129.07 76.95"><defs><style>.cls-1{fill:#fff;}.cls-2{fill:#1d1d1b;}</style></defs><g id="Layer_2" data-name="Layer 2"><g id="Layer_1-2" data-name="Layer 1"><path class="cls-1" d="M.25,32.47s14.3,5.87,16.34,9.44-.35,23,1.28,26.81,2.81,6.9,15.83,5.88,65.59-1.67,71-1.41S117.42,75,119,66s3.6-20.55,5.9-36.13,3.57-19.65-1.54-22.46-90.89-5.84-97-5.33-8.15,8.68-9.45,16.56C15.7,25.6.25,32.47.25,32.47Z" transform="translate(0 0)"/><path class="cls-2" d="M.5,32.46c0-.23-.18-.23-.07-.19l.08,0,.16.06.33.12.66.23,1.3.48c.87.32,1.74.65,2.6,1,1.72.71,3.43,1.44,5.11,2.26a35.2,35.2,0,0,1,4.94,2.85,6.77,6.77,0,0,1,2.26,2.45,11.57,11.57,0,0,1,.73,3A92.94,92.94,0,0,1,19,56c0,1.84,0,3.68.05,5.5a46.09,46.09,0,0,0,.31,5.26,5.66,5.66,0,0,0,.69,2.08,7.36,7.36,0,0,0,1.14,1.86,4.15,4.15,0,0,0,1.53,1.06,9.32,9.32,0,0,0,2.16.58,26.51,26.51,0,0,0,5.1.25c1.77,0,3.52-.22,5.43-.35,3.73-.27,7.42-.4,11.12-.49s7.4-.13,11.09-.16c14.79,0,29.55.62,44.34.73,3.73-.1,7.49.81,10.85,0a6.14,6.14,0,0,0,4-2.71,8.85,8.85,0,0,0,1-2.32,24.15,24.15,0,0,0,.49-2.63q1.66-11,3.09-21.92l2.72-22c.22-1.81.44-3.62.52-5.34a9.38,9.38,0,0,0-.5-4.3A3.33,3.33,0,0,0,123,10l-.42-.28-.24-.13c-.08-.05-.18-.1-.14-.07a7.65,7.65,0,0,0-.83-.2c-1.61-.32-3.45-.52-5.24-.7-7.25-.69-14.62-1.07-22-1.43L72.09,6.05,50,5,39,4.45C35.29,4.28,31.59,4.1,28,4h-1.3a6.12,6.12,0,0,0-1,.11A4.8,4.8,0,0,0,23.89,5a9.82,9.82,0,0,0-2.77,3.72,29.54,29.54,0,0,0-1.76,5c-.48,1.73-.87,3.49-1.25,5.3a10.54,10.54,0,0,1-3.25,5.23,29.92,29.92,0,0,1-4.53,3.49,55,55,0,0,1-4.88,2.77c-.83.42-1.67.81-2.52,1.19l-1.28.55L1,32.44l-.32.13-.16.06-.09,0C.33,32.71.51,32.66.5,32.46Zm-.5,0a.39.39,0,0,1,.22-.27l.08,0,.15-.08.3-.16.61-.34,1.19-.69c.79-.47,1.57-.95,2.35-1.43,1.55-1,3.06-2,4.48-3.13a28.36,28.36,0,0,0,3.92-3.64,8.73,8.73,0,0,0,2.26-4.19A46.05,46.05,0,0,1,18.07,7.36,13.12,13.12,0,0,1,21.6,2.11,8.26,8.26,0,0,1,24.73.46,8.93,8.93,0,0,1,26.46.17c.52,0,1-.06,1.47-.07C35.41-.09,42.76,0,50.16.14S64.94.52,72.32.76c14.78.6,29.5,1.41,44.34,3.07,1.87.24,3.7.46,5.7.89a9.61,9.61,0,0,1,1.83.58,3.27,3.27,0,0,1,.46.25l.36.21c.25.17.49.32.73.5A7.92,7.92,0,0,1,128.2,9.2a9.64,9.64,0,0,1,.84,3.49,22.32,22.32,0,0,1,0,3.08c-.16,2-.45,3.82-.75,5.66l-1.91,10.92-2,10.9L120,65a26.21,26.21,0,0,1-.61,2.8,10.28,10.28,0,0,1-1.25,2.72A7.64,7.64,0,0,1,116,72.7a8.28,8.28,0,0,1-2.79,1.16,21.05,21.05,0,0,1-5.74.27L104.72,74c-.91,0-1.81,0-2.74,0-3.68,0-7.37.13-11,.22l-11.06.49L57.76,75.77l-22,.91c-1.78.09-3.7.25-5.62.27a31.07,31.07,0,0,1-5.94-.4,13.39,13.39,0,0,1-3.13-1,8.56,8.56,0,0,1-2.9-2.2,11.41,11.41,0,0,1-1.67-2.89l-.28-.67-.13-.32-.17-.5a9.53,9.53,0,0,1-.33-1.7,43.68,43.68,0,0,1-.13-5.79c.07-1.87.16-3.72.26-5.56l.25-5.5c.07-1.82.12-3.65,0-5.4a9.52,9.52,0,0,0-.36-2.35A4.82,4.82,0,0,0,14.22,41,33.9,33.9,0,0,0,9.83,38C8.27,37,6.68,36.12,5.06,35.25L2.62,34l-1.23-.63L.77,33l-.31-.16-.15-.07-.08,0A.4.4,0,0,1,0,32.47Z" transform="translate(0 0)"/><path class="cls-2" d="M113.27,64.24c.36-1.52.73-3,1-4.55s.69-3,1-4.55c.64-3,1.24-6.07,1.76-9.12s.93-6.12,1.25-9.21.5-6.18.57-9.29a63.42,63.42,0,0,1,.15,9.35,76.54,76.54,0,0,1-1,9.31c-.51,3.08-1.17,6.13-2,9.15A84.61,84.61,0,0,1,113.27,64.24Z" transform="translate(0 0)"/><path class="cls-2" d="M18.15,27.12c.66-1.5,1.35-2.88,1.91-4.31a21.38,21.38,0,0,0,.72-2.18,13.9,13.9,0,0,0,.36-2.32,5.08,5.08,0,0,1,.41,2.44A8.29,8.29,0,0,1,21,23.17a10.72,10.72,0,0,1-1.17,2.16A7.88,7.88,0,0,1,18.15,27.12Z" transform="translate(0 0)"/></g></g></svg>