<svg xmlns="http://www.w3.org/2000/svg" viewBox="0 0 129.03 74.57"><defs><style>.cls-1{fill:#fff;}.cls-2{fill:#1d1d1b;}</style></defs><g id="Layer_2" data-name="Layer 2"><g id="Layer_1-2" data-name="Layer 1"><path class="cls-1" d="M0,42.87S14.3,37,16.34,33.42s-.07-18.5,1.56-22.32,3-6.89,16-8.1C47.7,1.72,117.17.36,118.7,9.29s3.6,20.55,5.9,36.13,3.57,19.66-1.54,22.47-90.89,5.84-97,5.32S17.9,64.53,16.6,56.65C15.45,49.74,0,42.87,0,42.87Z" transform="translate(0 0)"/><path class="cls-2" d="M0,42.87c3.29-1.52,6.53-3.15,9.64-5a37.09,37.09,0,0,0,4.46-3,7.16,7.16,0,0,0,1.7-1.8,6.94,6.94,0,0,0,.56-2.39A94.24,94.24,0,0,0,16.28,20c-.07-1.81-.13-3.63-.06-5.5a16.65,16.65,0,0,1,.31-2.9,5.43,5.43,0,0,1,.23-.8c.09-.29.17-.45.26-.68.18-.43.35-.87.58-1.31a9.92,9.92,0,0,1,1.74-2.56A11,11,0,0,1,21.83,4.4,21.77,21.77,0,0,1,27.3,2.48,77,77,0,0,1,38.29,1C45.56.52,52.81.29,60.08.12S74.61,0,81.88.15s14.56.53,21.89,1.38a63,63,0,0,1,11.09,2.19,17.56,17.56,0,0,1,2.9,1.21,8.66,8.66,0,0,1,1.55,1A5.36,5.36,0,0,1,120.8,7.9a5,5,0,0,1,.34,1.21l.12.67.23,1.33.47,2.68c1.25,7.13,2.48,14.28,3.61,21.45L127.18,46c.51,3.58,1.1,7.13,1.55,10.83a30.57,30.57,0,0,1,.24,5.91,9.86,9.86,0,0,1-.9,3.47,8,8,0,0,1-2.48,2.91,7.65,7.65,0,0,1-.72.49c-.26.16-.42.26-.77.44a7.69,7.69,0,0,1-1.87.6c-1,.22-1.93.36-2.86.49-1.86.25-3.68.42-5.5.58-7.29.63-14.52,1-21.77,1.38s-14.49.62-21.74.84-14.49.42-21.73.51l-10.88.11c-3.63,0-7.23,0-10.92-.09a8.67,8.67,0,0,1-3-.61,7.85,7.85,0,0,1-2.59-1.77,14,14,0,0,1-3-5,52.84,52.84,0,0,1-2.38-10.72,10.16,10.16,0,0,0-2.6-4.32,30.79,30.79,0,0,0-4-3.53A62.36,62.36,0,0,0,0,42.87Zm0,0a62.81,62.81,0,0,1,9.65,5A30.63,30.63,0,0,1,14,51.31,11.12,11.12,0,0,1,17.16,56c.14.51.21.93.3,1.38l.28,1.32c.19.87.39,1.75.61,2.61a33.12,33.12,0,0,0,1.64,5,12.34,12.34,0,0,0,2.71,4.16,5.52,5.52,0,0,0,1.92,1.18,5.86,5.86,0,0,0,2.27.33c7.15-.1,14.42-.49,21.63-.84L70.2,70.07c14.42-.89,28.91-1.61,43.21-3,1.78-.19,3.56-.4,5.29-.65.86-.12,1.73-.26,2.49-.43a6.56,6.56,0,0,0,.72-.19l.4-.23c.14-.1.29-.19.4-.28a3.15,3.15,0,0,0,1-1.17,5.25,5.25,0,0,0,.41-1.77,26.55,26.55,0,0,0-.26-4.92c-.44-3.49-1-7.08-1.58-10.67L120.64,36q-1.68-10.71-3.5-21.4l-.46-2.68-.23-1.34c0-.39-.21-1.14-.11-.77a3.45,3.45,0,0,0-.89-.64,14.27,14.27,0,0,0-2.1-.88,61.15,61.15,0,0,0-10.18-2.06c-7-.94-14.25-1.39-21.44-1.7s-14.41-.44-21.62-.49-14.45,0-21.64.28a76.61,76.61,0,0,0-10.58,1,19.47,19.47,0,0,0-4.82,1.47,8.25,8.25,0,0,0-1.9,1.29,7.56,7.56,0,0,0-1.38,1.87,13.06,13.06,0,0,0-1,2.21,15.35,15.35,0,0,0-.38,2.48c-.15,1.75-.18,3.55-.2,5.35a84.31,84.31,0,0,1-.49,11,8.19,8.19,0,0,1-.87,2.82,8.41,8.41,0,0,1-2.11,2A36,36,0,0,1,10,38.55C6.73,40.17,3.38,41.57,0,42.87Z" transform="translate(0 0)"/><path class="cls-2" d="M113,24.86a84.61,84.61,0,0,1,2.84,8.91c.79,3,1.45,6.07,2,9.15a76.54,76.54,0,0,1,1,9.31,63.42,63.42,0,0,1-.15,9.35c-.07-3.11-.28-6.21-.57-9.3s-.71-6.15-1.25-9.2S115.72,37,115.08,34c-.32-1.51-.65-3-1-4.54S113.38,26.38,113,24.86Z" transform="translate(0 0)"/><path class="cls-2" d="M17.9,50.54a7.88,7.88,0,0,1,1.67,1.79,10.72,10.72,0,0,1,1.17,2.16,8.29,8.29,0,0,1,.56,2.42,5.08,5.08,0,0,1-.41,2.44A13.9,13.9,0,0,0,20.53,57a21.38,21.38,0,0,0-.72-2.18C19.25,53.42,18.56,52,17.9,50.54Z" transform="translate(0 0)"/></g></g></svg>