<svg xmlns="http://www.w3.org/2000/svg" viewBox="0 0 113.36 93.71"><defs><style>.cls-1{fill:#fff;}.cls-2{fill:#1d1d1b;}</style></defs><g id="Layer_2" data-name="Layer 2"><g id="Layer_1-2" data-name="Layer 1"><path class="cls-1" d="M3.21,69.23C4.87,73.12,6,76.12,19,75.1c5.17-.4,16.57-.75,28.77-1,4.75-.1,9.45,17.51,14.13,17.44,4.27-.06,8.55-17.81,12.25-17.84,8-.08,14.16-.08,15.81,0,5.36.26,12.76,1.79,14.3-7.15s3.59-20.55,5.89-36.12S113.76,10.76,108.66,8s-90.89-5.84-97-5.33S3.5,11.31,2.19,19.19C1,26.1,1.58,65.41,3.21,69.23Z"/><path class="cls-2" d="M3.44,69.13c.71,1.69,1.51,3.4,3.06,4.32a10.86,10.86,0,0,0,5.16,1.38,40.28,40.28,0,0,0,5.49-.1c1.82-.14,3.68-.4,5.53-.54,7.4-.64,14.79-1.25,22.19-1.72l2.78-.18a3.68,3.68,0,0,1,.56,0,4.35,4.35,0,0,1,.63.1,5,5,0,0,1,1.07.42A6.91,6.91,0,0,1,51.42,74,24,24,0,0,1,55,78.85c1,1.64,1.85,3.28,2.75,4.86a38.46,38.46,0,0,0,2.81,4.38,4.85,4.85,0,0,0,1.33,1.26c.12.06.12,0-.06,0s0,0,.19-.17a8.28,8.28,0,0,0,1.3-1.69c.43-.7.84-1.47,1.24-2.26.8-1.58,1.53-3.26,2.33-4.94s1.59-3.4,2.64-5.16a10.76,10.76,0,0,1,2.23-2.75,4.59,4.59,0,0,1,1.18-.69,3.69,3.69,0,0,1,.87-.22l.25,0h1.74c1.85,0,3.7,0,5.56.05s3.71,0,5.57.11l2.83.12c1,.07,1.91.17,2.82.26a21.91,21.91,0,0,0,5.1.07,5.58,5.58,0,0,0,3.77-2,7.41,7.41,0,0,0,1.11-2,17.46,17.46,0,0,0,.65-2.5l1.13-5.44c.76-3.62,1.42-7.26,2.11-10.9s1.26-7.29,1.81-10.94,1.09-7.32,1.56-11,1-7.36,1.23-10.95a11,11,0,0,0-.59-4.89,4.24,4.24,0,0,0-1.38-1.6,7.73,7.73,0,0,0-1-.61,4.89,4.89,0,0,0-1-.26c-1.69-.3-3.54-.46-5.35-.61S98.07,8.07,96.23,8c-3.67-.19-7.36-.38-11-.52L74.11,7Q63,6.53,52,6.21L29.78,5.55,18.71,5.22c-1.83,0-3.68-.1-5.47-.1L12,5.14a4.54,4.54,0,0,0-.87.13A4.1,4.1,0,0,0,9.59,6,9.44,9.44,0,0,0,7.06,9.57a34.26,34.26,0,0,0-1.69,4.86c-.47,1.7-.87,3.5-1.21,5.25s-.48,3.49-.64,5.3c-.59,7.31-1,14.73-1.1,22.12-.08,3.69-.06,7.39,0,11.09,0,1.85.14,3.69.27,5.53q.09,1.38.24,2.76A14,14,0,0,0,3.44,69.13Zm-.46.2a14.11,14.11,0,0,1-.57-2.79c-.12-.92-.22-1.84-.3-2.77-.18-1.85-.28-3.7-.43-5.54-.28-3.7-.47-7.4-.72-11.1C.53,39.72.08,32.32,0,24.84a56.91,56.91,0,0,1,.17-5.77c.24-1.91.52-3.75.9-5.66A30.39,30.39,0,0,1,2.72,7.7,14.08,14.08,0,0,1,6.43,2.19,8.86,8.86,0,0,1,9.79.4,10.46,10.46,0,0,1,11.66.08c.57,0,1,0,1.52,0,1.91,0,3.76,0,5.62,0,3.72,0,7.43.07,11.14.2L41.05.59l11.1.55q11.12.6,22.2,1.32c7.4.51,14.8,1.1,22.19,2,1.85.22,3.7.45,5.55.72s3.69.54,5.63,1a7,7,0,0,1,1.66.61,11.11,11.11,0,0,1,1.32.91,6.87,6.87,0,0,1,2,2.7,9.09,9.09,0,0,1,.61,3.12,21.68,21.68,0,0,1-.12,2.93c-.19,1.9-.5,3.74-.82,5.57l-.92,5.48c-.62,3.64-1.15,7.32-1.75,11l-1.7,11c-.52,3.67-1.11,7.32-1.6,11l-.75,5.5a13,13,0,0,1-1.89,5.83,8.26,8.26,0,0,1-2.44,2.34,10,10,0,0,1-3.06,1.22,23.26,23.26,0,0,1-6,.37c-.93,0-1.86-.08-2.71-.08l-2.72,0-5.53.12c-1.85,0-3.7.1-5.55.11l-1.38,0h-.1a.64.64,0,0,0,.2,0c.08,0,0,0,0,0a7,7,0,0,0-1.2,1.59c-.85,1.42-1.62,3.08-2.39,4.73s-1.56,3.37-2.45,5.08C68,88.15,67.57,89,67,89.87a12.07,12.07,0,0,1-2.16,2.64,4.81,4.81,0,0,1-2.22,1.13,4.19,4.19,0,0,1-2.74-.44,8.68,8.68,0,0,1-2.73-2.47,34.36,34.36,0,0,1-3.05-5c-.88-1.66-1.7-3.31-2.57-4.89a20.91,20.91,0,0,0-2.77-4.18,3.48,3.48,0,0,0-.66-.58,1.47,1.47,0,0,0-.21-.11l0,0s0,0-.14,0L45,75.85c-7.4-.13-14.81-.38-22.2-.29-3.67,0-7.41.41-11.15,0a12.64,12.64,0,0,1-5.42-1.6,6.45,6.45,0,0,1-2-2.07A19,19,0,0,1,3,69.33Z"/><path class="cls-2" d="M98.62,64.74c.35-1.52.72-3,1-4.54s.69-3,1-4.55c.64-3,1.25-6.08,1.77-9.13s.92-6.12,1.24-9.2.5-6.18.57-9.3a64.87,64.87,0,0,1,.16,9.35,76.56,76.56,0,0,1-1,9.31c-.5,3.09-1.16,6.14-2,9.15A83.1,83.1,0,0,1,98.62,64.74Z"/><path class="cls-2" d="M6.86,62.91c.34,1.6.57,3.12.94,4.62a21.25,21.25,0,0,0,.67,2.19,14.69,14.69,0,0,0,1,2.1,5.14,5.14,0,0,1-1.75-1.75,8.51,8.51,0,0,1-.94-2.3,10.64,10.64,0,0,1-.29-2.44A8.21,8.21,0,0,1,6.86,62.91Z"/></g></g></svg>