<svg xmlns="http://www.w3.org/2000/svg" viewBox="0 0 1057.85 1056.89"><defs><style>.cls-1{fill:#fff;}</style></defs><g id="Layer_2" data-name="Layer 2"><g id="Layer_2-2" data-name="Layer 2"><path class="cls-1" d="M77,246.48a.43.43,0,0,0,.14-.61.44.44,0,1,0-.73.48A.43.43,0,0,0,77,246.48Z"/><path class="cls-1" d="M122.15,219a2.19,2.19,0,1,0-3-.63A2.18,2.18,0,0,0,122.15,219Z"/><path class="cls-1" d="M167.06,191a3.38,3.38,0,1,0-4.68-1A3.38,3.38,0,0,0,167.06,191Z"/><path class="cls-1" d="M211.75,162.76a4.26,4.26,0,1,0-5.86-1.25A4.25,4.25,0,0,0,211.75,162.76Z"/><path class="cls-1" d="M256.14,134a4.55,4.55,0,1,0-6.27-1.32A4.56,4.56,0,0,0,256.14,134Z"/><path class="cls-1" d="M300.32,104.91a4.4,4.4,0,1,0-6.1-1.26A4.38,4.38,0,0,0,300.32,104.91Z"/><path class="cls-1" d="M344.22,75.44a3.81,3.81,0,1,0-5.26-1.1A3.82,3.82,0,0,0,344.22,75.44Z"/><path class="cls-1" d="M387.81,45.49a2.64,2.64,0,1,0-3.67-.75A2.65,2.65,0,0,0,387.81,45.49Z"/><path class="cls-1" d="M431.15,15.16a1,1,0,1,0-1.41-.29A1,1,0,0,0,431.15,15.16Z"/><path class="cls-1" d="M62.76,321.27a2.34,2.34,0,1,0-3.26-.67A2.36,2.36,0,0,0,62.76,321.27Z"/><path class="cls-1" d="M108.18,294.13a4.54,4.54,0,1,0-6.27-1.3A4.52,4.52,0,0,0,108.18,294.13Z"/><path class="cls-1" d="M153.54,266.89a6.59,6.59,0,1,0-9.13-1.9A6.58,6.58,0,0,0,153.54,266.89Z"/><path class="cls-1" d="M198.52,239a7.92,7.92,0,1,0-11-2.26A7.92,7.92,0,0,0,198.52,239Z"/><path class="cls-1" d="M243.22,210.8a8.81,8.81,0,1,0-12.17-2.56A8.8,8.8,0,0,0,243.22,210.8Z"/><path class="cls-1" d="M287.68,182.17a9.23,9.23,0,1,0-12.78-2.66A9.23,9.23,0,0,0,287.68,182.17Z"/><path class="cls-1" d="M331.79,153a9,9,0,1,0-12.4-2.58A8.92,8.92,0,0,0,331.79,153Z"/><path class="cls-1" d="M375.69,123.48a8.36,8.36,0,1,0-11.58-2.41A8.37,8.37,0,0,0,375.69,123.48Z"/><path class="cls-1" d="M419.2,93.41a7,7,0,1,0-9.74-2A7,7,0,0,0,419.2,93.41Z"/><path class="cls-1" d="M462.46,63a5.27,5.27,0,1,0-7.3-1.53A5.29,5.29,0,0,0,462.46,63Z"/><path class="cls-1" d="M505.57,32.26a3.23,3.23,0,1,0-3.54-5.4,3.23,3.23,0,1,0,3.54,5.4Z"/><path class="cls-1" d="M548.35,1.08a.56.56,0,0,0,.16-.8.59.59,0,0,0-.81-.19.61.61,0,0,0-.17.83A.59.59,0,0,0,548.35,1.08Z"/><path class="cls-1" d="M2.06,421.63a.15.15,0,0,0,0-.21.14.14,0,0,0-.21,0,.13.13,0,0,0,0,.2A.14.14,0,0,0,2.06,421.63Z"/><path class="cls-1" d="M48,395.22a3.23,3.23,0,1,0-3.53-5.4,3.23,3.23,0,1,0,3.53,5.4Z"/><path class="cls-1" d="M93.82,368.7a6.16,6.16,0,1,0-8.53-1.77A6.16,6.16,0,0,0,93.82,368.7Z"/><path class="cls-1" d="M139.42,341.82a8.66,8.66,0,1,0-12-2.51A8.64,8.64,0,0,0,139.42,341.82Z"/><path class="cls-1" d="M184.76,314.55A10.69,10.69,0,1,0,170,311.47,10.7,10.7,0,0,0,184.76,314.55Z"/><path class="cls-1" d="M229.9,286.92a12.31,12.31,0,1,0-17.07-3.54A12.33,12.33,0,0,0,229.9,286.92Z"/><path class="cls-1" d="M274.68,258.83A13.35,13.35,0,1,0,256.21,255,13.35,13.35,0,0,0,274.68,258.83Z"/><path class="cls-1" d="M319.15,230.21a13.78,13.78,0,1,0-19.08-4A13.78,13.78,0,0,0,319.15,230.21Z"/><path class="cls-1" d="M363.24,201a13.48,13.48,0,1,0-18.66-3.89A13.49,13.49,0,0,0,363.24,201Z"/><path class="cls-1" d="M407.07,171.4a12.76,12.76,0,1,0-17.67-3.68A12.77,12.77,0,0,0,407.07,171.4Z"/><path class="cls-1" d="M450.5,141.19a11.29,11.29,0,1,0-15.63-3.25A11.29,11.29,0,0,0,450.5,141.19Z"/><path class="cls-1" d="M493.68,110.62a9.38,9.38,0,1,0-13-2.71A9.37,9.37,0,0,0,493.68,110.62Z"/><path class="cls-1" d="M536.63,79.69a7,7,0,1,0-9.74-2A7,7,0,0,0,536.63,79.69Z"/><path class="cls-1" d="M579.34,48.39a4.25,4.25,0,1,0-4.66-7.12,4.25,4.25,0,1,0,4.66,7.12Z"/><path class="cls-1" d="M621.88,16.83a1.17,1.17,0,1,0-1.62-.33A1.17,1.17,0,0,0,621.88,16.83Z"/><path class="cls-1" d="M32.73,468.44a3.24,3.24,0,1,0-4.48-.94A3.25,3.25,0,0,0,32.73,468.44Z"/><path class="cls-1" d="M78.88,442.4a6.74,6.74,0,1,0-9.34-1.95A6.75,6.75,0,0,0,78.88,442.4Z"/><path class="cls-1" d="M124.81,416a9.83,9.83,0,1,0-13.62-2.83A9.82,9.82,0,0,0,124.81,416Z"/><path class="cls-1" d="M170.56,389.36a12.61,12.61,0,1,0-17.46-3.64A12.59,12.59,0,0,0,170.56,389.36Z"/><path class="cls-1" d="M216,362.23a14.8,14.8,0,1,0-20.49-4.29A14.83,14.83,0,0,0,216,362.23Z"/><path class="cls-1" d="M261.21,334.71a16.57,16.57,0,1,0-23-4.77A16.55,16.55,0,0,0,261.21,334.71Z"/><path class="cls-1" d="M306.14,306.85a17.88,17.88,0,1,0-24.74-5.18A17.91,17.91,0,0,0,306.14,306.85Z"/><path class="cls-1" d="M350.62,278.25a18.33,18.33,0,1,0-25.36-5.31A18.36,18.36,0,0,0,350.62,278.25Z"/><path class="cls-1" d="M394.71,249a18,18,0,1,0-25-5.19A18,18,0,0,0,394.71,249Z"/><path class="cls-1" d="M438.46,219.32a17.16,17.16,0,1,0-23.76-5A17.17,17.17,0,0,0,438.46,219.32Z"/><path class="cls-1" d="M481.81,189a15.55,15.55,0,1,0-21.53-4.49A15.57,15.57,0,0,0,481.81,189Z"/><path class="cls-1" d="M524.83,158.17a13.34,13.34,0,1,0-18.47-3.86A13.34,13.34,0,0,0,524.83,158.17Z"/><path class="cls-1" d="M567.61,127a10.69,10.69,0,1,0-14.83-3.08A10.7,10.7,0,0,0,567.61,127Z"/><path class="cls-1" d="M610.23,95.55a7.77,7.77,0,1,0-10.74-2.24A7.76,7.76,0,0,0,610.23,95.55Z"/><path class="cls-1" d="M652.62,63.77a4.4,4.4,0,1,0-6.09-1.28A4.4,4.4,0,0,0,652.62,63.77Z"/><path class="cls-1" d="M694.92,31.85a.87.87,0,1,0-1-1.46.85.85,0,0,0-.24,1.19A.87.87,0,0,0,694.92,31.85Z"/><path class="cls-1" d="M17,540.89a2.34,2.34,0,1,0-3.24-.67A2.34,2.34,0,0,0,17,540.89Z"/><path class="cls-1" d="M63.3,515.11a6.16,6.16,0,1,0-8.53-1.77A6.14,6.14,0,0,0,63.3,515.11Z"/><path class="cls-1" d="M109.54,489.21a9.83,9.83,0,1,0-13.6-2.84A9.85,9.85,0,0,0,109.54,489.21Z"/><path class="cls-1" d="M155.64,463.07a13.21,13.21,0,1,0-18.29-3.82A13.23,13.23,0,0,0,155.64,463.07Z"/><path class="cls-1" d="M201.46,436.54a16.13,16.13,0,1,0-22.32-4.67A16.16,16.16,0,0,0,201.46,436.54Z"/><path class="cls-1" d="M247.13,409.77a18.76,18.76,0,1,0-26-5.42A18.79,18.79,0,0,0,247.13,409.77Z"/><path class="cls-1" d="M292.6,382.62a21,21,0,1,0-29.06-6A20.95,20.95,0,0,0,292.6,382.62Z"/><path class="cls-1" d="M337.6,354.89a22.44,22.44,0,1,0-31-6.49A22.43,22.43,0,0,0,337.6,354.89Z"/><path class="cls-1" d="M382.09,326.3a22.88,22.88,0,1,0-31.66-6.63A22.91,22.91,0,0,0,382.09,326.3Z"/><path class="cls-1" d="M426.26,297.18a22.73,22.73,0,1,0-31.48-6.56A22.74,22.74,0,0,0,426.26,297.18Z"/><path class="cls-1" d="M469.84,267.22A21.56,21.56,0,1,0,440,261,21.57,21.57,0,0,0,469.84,267.22Z"/><path class="cls-1" d="M513,236.65A19.65,19.65,0,1,0,485.82,231,19.66,19.66,0,0,0,513,236.65Z"/><path class="cls-1" d="M555.89,205.6a17.16,17.16,0,1,0-23.76-5A17.16,17.16,0,0,0,555.89,205.6Z"/><path class="cls-1" d="M598.52,174.17a14.22,14.22,0,1,0-19.7-4.11A14.23,14.23,0,0,0,598.52,174.17Z"/><path class="cls-1" d="M640.9,142.36a10.84,10.84,0,1,0-15-3.13A10.85,10.85,0,0,0,640.9,142.36Z"/><path class="cls-1" d="M683.28,110.57a7.48,7.48,0,1,0-10.35-2.15A7.49,7.49,0,0,0,683.28,110.57Z"/><path class="cls-1" d="M725.41,78.4a3.65,3.65,0,1,0-5-1.06A3.63,3.63,0,0,0,725.41,78.4Z"/><path class="cls-1" d="M.67,612.51a.43.43,0,0,0,.13-.61.44.44,0,0,0-.61-.13.45.45,0,0,0-.12.61A.44.44,0,0,0,.67,612.51Z"/><path class="cls-1" d="M47.17,587a4.55,4.55,0,1,0-6.31-1.32A4.54,4.54,0,0,0,47.17,587Z"/><path class="cls-1" d="M93.65,561.44a8.66,8.66,0,1,0-12-2.51A8.68,8.68,0,0,0,93.65,561.44Z"/><path class="cls-1" d="M140,535.77a12.61,12.61,0,1,0-17.46-3.64A12.59,12.59,0,0,0,140,535.77Z"/><path class="cls-1" d="M186.21,509.74a16.13,16.13,0,1,0-22.34-4.66A16.13,16.13,0,0,0,186.21,509.74Z"/><path class="cls-1" d="M232.37,483.71A19.65,19.65,0,1,0,205.16,478,19.65,19.65,0,0,0,232.37,483.71Z"/><path class="cls-1" d="M278.28,457.32a22.72,22.72,0,1,0-31.45-6.58A22.74,22.74,0,0,0,278.28,457.32Z"/><path class="cls-1" d="M323.9,430.41A25.23,25.23,0,1,0,289,423.13,25.2,25.2,0,0,0,323.9,430.41Z"/><path class="cls-1" d="M369,402.81A26.84,26.84,0,1,0,331.86,395,26.84,26.84,0,0,0,369,402.81Z"/><path class="cls-1" d="M413.62,374.43a27.56,27.56,0,1,0-38.16-7.95A27.56,27.56,0,0,0,413.62,374.43Z"/><path class="cls-1" d="M457.64,345.08a27.12,27.12,0,1,0-37.57-7.82A27.12,27.12,0,0,0,457.64,345.08Z"/><path class="cls-1" d="M501.14,315a25.8,25.8,0,1,0-35.73-7.45A25.79,25.79,0,0,0,501.14,315Z"/><path class="cls-1" d="M544.17,284.19a23.6,23.6,0,1,0-32.68-6.81A23.62,23.62,0,0,0,544.17,284.19Z"/><path class="cls-1" d="M586.8,252.78a20.68,20.68,0,1,0-28.62-6A20.7,20.7,0,0,0,586.8,252.78Z"/><path class="cls-1" d="M629.19,221a17.31,17.31,0,1,0-24-5A17.29,17.29,0,0,0,629.19,221Z"/><path class="cls-1" d="M671.48,189.05a13.78,13.78,0,1,0-19.08-4A13.79,13.79,0,0,0,671.48,189.05Z"/><path class="cls-1" d="M713.62,156.89a10,10,0,1,0-13.8-2.88A10,10,0,0,0,713.62,156.89Z"/><path class="cls-1" d="M755.69,124.62a6,6,0,1,0-8.33-1.75A6,6,0,0,0,755.69,124.62Z"/><path class="cls-1" d="M797.59,92.08a1.77,1.77,0,1,0-1.94-3,1.77,1.77,0,1,0,1.94,3Z"/><path class="cls-1" d="M30.62,658.23a2.2,2.2,0,1,0-2.41-3.68,2.2,2.2,0,0,0,2.41,3.68Z"/><path class="cls-1" d="M77.26,632.92A6.6,6.6,0,1,0,68.13,631,6.58,6.58,0,0,0,77.26,632.92Z"/><path class="cls-1" d="M123.74,607.39a10.7,10.7,0,1,0-14.82-3.1A10.72,10.72,0,0,0,123.74,607.39Z"/><path class="cls-1" d="M170.22,581.85a14.81,14.81,0,1,0-20.49-4.3A14.81,14.81,0,0,0,170.22,581.85Z"/><path class="cls-1" d="M216.64,556.19a18.77,18.77,0,1,0-26-5.44A18.79,18.79,0,0,0,216.64,556.19Z"/><path class="cls-1" d="M263,530.52a22.72,22.72,0,1,0-31.46-6.58A22.74,22.74,0,0,0,263,530.52Z"/><path class="cls-1" d="M309.11,504.37A26.1,26.1,0,1,0,273,496.83,26.11,26.11,0,0,0,309.11,504.37Z"/><path class="cls-1" d="M355,478a29.18,29.18,0,1,0-40.42-8.41A29.18,29.18,0,0,0,355,478Z"/><path class="cls-1" d="M400.38,450.72a31.24,31.24,0,1,0-43.23-9A31.25,31.25,0,0,0,400.38,450.72Z"/><path class="cls-1" d="M445.09,422.47a32.11,32.11,0,1,0-44.44-9.28A32.12,32.12,0,0,0,445.09,422.47Z"/><path class="cls-1" d="M489.11,393.12A31.67,31.67,0,1,0,445.23,384,31.67,31.67,0,0,0,489.11,393.12Z"/><path class="cls-1" d="M532.37,362.68A29.91,29.91,0,1,0,490.94,354,29.91,29.91,0,0,0,532.37,362.68Z"/><path class="cls-1" d="M575.08,331.38a27.13,27.13,0,1,0-37.58-7.84A27.14,27.14,0,0,0,575.08,331.38Z"/><path class="cls-1" d="M617.54,299.7a23.9,23.9,0,1,0-33.1-6.9A23.89,23.89,0,0,0,617.54,299.7Z"/><path class="cls-1" d="M659.69,267.54a20.1,20.1,0,1,0-27.83-5.81A20.1,20.1,0,0,0,659.69,267.54Z"/><path class="cls-1" d="M701.74,235.25a16.13,16.13,0,1,0-22.32-4.67A16.12,16.12,0,0,0,701.74,235.25Z"/><path class="cls-1" d="M743.79,203A12.16,12.16,0,1,0,727,199.44,12.16,12.16,0,0,0,743.79,203Z"/><path class="cls-1" d="M785.7,170.44a7.92,7.92,0,1,0-10.94-2.31A7.94,7.94,0,0,0,785.7,170.44Z"/><path class="cls-1" d="M827.61,137.9a3.66,3.66,0,1,0-5.07-1.07A3.67,3.67,0,0,0,827.61,137.9Z"/><path class="cls-1" d="M60.24,703.44a3.37,3.37,0,1,0-4.69-1A3.38,3.38,0,0,0,60.24,703.44Z"/><path class="cls-1" d="M107,678.26A7.92,7.92,0,1,0,96,676,7.92,7.92,0,0,0,107,678.26Z"/><path class="cls-1" d="M153.6,653a12.32,12.32,0,1,0-17.06-3.56A12.32,12.32,0,0,0,153.6,653Z"/><path class="cls-1" d="M200.15,627.54a16.56,16.56,0,1,0-22.93-4.79A16.55,16.55,0,0,0,200.15,627.54Z"/><path class="cls-1" d="M246.8,602.24a21,21,0,1,0-29-6A21,21,0,0,0,246.8,602.24Z"/><path class="cls-1" d="M293.37,576.83a25.22,25.22,0,1,0-34.93-7.28A25.23,25.23,0,0,0,293.37,576.83Z"/><path class="cls-1" d="M339.77,551.18a29.19,29.19,0,1,0-40.41-8.43A29.18,29.18,0,0,0,339.77,551.18Z"/><path class="cls-1" d="M386,525.14a32.7,32.7,0,1,0-45.29-9.45A32.72,32.72,0,0,0,386,525.14Z"/><path class="cls-1" d="M430.16,496.18a32.7,32.7,0,1,0-45.27-9.46A32.72,32.72,0,0,0,430.16,496.18Z"/><path class="cls-1" d="M474.39,467.21a32.7,32.7,0,1,0-45.27-9.46A32.72,32.72,0,0,0,474.39,467.21Z"/><path class="cls-1" d="M518.65,438.22a32.7,32.7,0,1,0-45.3-9.45A32.71,32.71,0,0,0,518.65,438.22Z"/><path class="cls-1" d="M562.88,409.25a32.7,32.7,0,1,0-45.3-9.45A32.73,32.73,0,0,0,562.88,409.25Z"/><path class="cls-1" d="M605.82,378.3a30.35,30.35,0,1,0-42.05-8.76A30.35,30.35,0,0,0,605.82,378.3Z"/><path class="cls-1" d="M648,346.14a26.54,26.54,0,1,0-36.74-7.67A26.56,26.56,0,0,0,648,346.14Z"/><path class="cls-1" d="M689.94,313.73a22.43,22.43,0,1,0-31.07-6.48A22.44,22.44,0,0,0,689.94,313.73Z"/><path class="cls-1" d="M731.76,281.07a18,18,0,1,0-25-5.21A18,18,0,0,0,731.76,281.07Z"/><path class="cls-1" d="M773.67,248.56a13.8,13.8,0,1,0-19.09-4A13.82,13.82,0,0,0,773.67,248.56Z"/><path class="cls-1" d="M815.48,215.89a9.39,9.39,0,1,0-13-2.72A9.38,9.38,0,0,0,815.48,215.89Z"/><path class="cls-1" d="M857.31,183.25a5,5,0,1,0-5.46-8.35,5,5,0,0,0,5.46,8.35Z"/><path class="cls-1" d="M899.05,150.47a.47.47,0,0,0,.13-.64.44.44,0,0,0-.61-.09.41.41,0,0,0-.13.57A.44.44,0,0,0,899.05,150.47Z"/><path class="cls-1" d="M89.69,748.4a4.25,4.25,0,1,0-5.88-1.24A4.26,4.26,0,0,0,89.69,748.4Z"/><path class="cls-1" d="M136.42,723.22a8.79,8.79,0,1,0-12.19-2.54A8.79,8.79,0,0,0,136.42,723.22Z"/><path class="cls-1" d="M183.14,698.07a13.35,13.35,0,1,0-18.49-3.87A13.36,13.36,0,0,0,183.14,698.07Z"/><path class="cls-1" d="M229.86,672.89a17.88,17.88,0,1,0-24.77-5.18A17.88,17.88,0,0,0,229.86,672.89Z"/><path class="cls-1" d="M276.58,647.7a22.42,22.42,0,1,0-31.07-6.47A22.4,22.4,0,0,0,276.58,647.7Z"/><path class="cls-1" d="M323.22,622.42a26.82,26.82,0,1,0-37.14-7.76A26.85,26.85,0,0,0,323.22,622.42Z"/><path class="cls-1" d="M369.87,597.13a31.23,31.23,0,1,0-43.23-9A31.25,31.25,0,0,0,369.87,597.13Z"/><path class="cls-1" d="M414.92,569.37a32.7,32.7,0,1,0-45.28-9.45A32.7,32.7,0,0,0,414.92,569.37Z"/><path class="cls-1" d="M459.13,540.41A32.7,32.7,0,1,0,413.86,531,32.71,32.71,0,0,0,459.13,540.41Z"/><path class="cls-1" d="M503.36,511.43A32.7,32.7,0,1,0,458.09,502,32.7,32.7,0,0,0,503.36,511.43Z"/><path class="cls-1" d="M547.62,482.44a32.7,32.7,0,1,0-45.3-9.43A32.7,32.7,0,0,0,547.62,482.44Z"/><path class="cls-1" d="M591.85,453.47A32.7,32.7,0,1,0,546.56,444,32.7,32.7,0,0,0,591.85,453.47Z"/><path class="cls-1" d="M636.08,424.5a32.7,32.7,0,1,0-45.3-9.44A32.71,32.71,0,0,0,636.08,424.5Z"/><path class="cls-1" d="M677.9,391.85a28.3,28.3,0,1,0-39.2-8.18A28.29,28.29,0,0,0,677.9,391.85Z"/><path class="cls-1" d="M719.72,359.19a23.9,23.9,0,1,0-33.1-6.91A23.9,23.9,0,0,0,719.72,359.19Z"/><path class="cls-1" d="M761.46,326.41a19.36,19.36,0,1,0-26.8-5.59A19.35,19.35,0,0,0,761.46,326.41Z"/><path class="cls-1" d="M803.2,293.65a14.82,14.82,0,1,0-20.5-4.3A14.84,14.84,0,0,0,803.2,293.65Z"/><path class="cls-1" d="M845,261a10.41,10.41,0,1,0-14.43-3A10.43,10.43,0,0,0,845,261Z"/><path class="cls-1" d="M886.76,228.2a5.85,5.85,0,1,0-8.1-1.71A5.86,5.86,0,0,0,886.76,228.2Z"/><path class="cls-1" d="M928.43,195.32a1.18,1.18,0,0,0-1.3-2,1.18,1.18,0,0,0,1.3,2Z"/><path class="cls-1" d="M118.82,792.87a4.54,4.54,0,1,0-6.3-1.31A4.54,4.54,0,0,0,118.82,792.87Z"/><path class="cls-1" d="M165.64,767.83a9.24,9.24,0,1,0-12.8-2.68A9.24,9.24,0,0,0,165.64,767.83Z"/><path class="cls-1" d="M212.35,742.66a13.79,13.79,0,1,0-19.09-4A13.79,13.79,0,0,0,212.35,742.66Z"/><path class="cls-1" d="M259.07,717.48a18.32,18.32,0,1,0-25.38-5.3A18.33,18.33,0,0,0,259.07,717.48Z"/><path class="cls-1" d="M305.81,692.32a22.88,22.88,0,1,0-31.69-6.62A22.89,22.89,0,0,0,305.81,692.32Z"/><path class="cls-1" d="M352.6,667.26a27.57,27.57,0,1,0-38.17-8A27.56,27.56,0,0,0,352.6,667.26Z"/><path class="cls-1" d="M399.32,642.09a32.11,32.11,0,1,0-44.45-9.29A32.12,32.12,0,0,0,399.32,642.09Z"/><path class="cls-1" d="M443.9,613.6a32.7,32.7,0,1,0-45.29-9.45A32.72,32.72,0,0,0,443.9,613.6Z"/><path class="cls-1" d="M488.1,584.64a32.7,32.7,0,1,0-45.26-9.46A32.71,32.71,0,0,0,488.1,584.64Z"/><path class="cls-1" d="M532.34,555.66a32.69,32.69,0,1,0-45.28-9.45A32.7,32.7,0,0,0,532.34,555.66Z"/><path class="cls-1" d="M576.59,526.67a32.69,32.69,0,1,0-45.29-9.43A32.7,32.7,0,0,0,576.59,526.67Z"/><path class="cls-1" d="M620.82,497.7a32.7,32.7,0,1,0-45.29-9.44A32.69,32.69,0,0,0,620.82,497.7Z"/><path class="cls-1" d="M665.05,468.73a32.7,32.7,0,1,0-45.3-9.44A32.71,32.71,0,0,0,665.05,468.73Z"/><path class="cls-1" d="M707.35,436.81a29.18,29.18,0,1,0-40.4-8.43A29.18,29.18,0,0,0,707.35,436.81Z"/><path class="cls-1" d="M749,403.92a24.49,24.49,0,1,0-33.9-7.1A24.49,24.49,0,0,0,749,403.92Z"/><path class="cls-1" d="M790.75,371.13a19.93,19.93,0,1,0-27.62-5.75A19.94,19.94,0,0,0,790.75,371.13Z"/><path class="cls-1" d="M832.41,338.23a15.24,15.24,0,1,0-21.11-4.41A15.24,15.24,0,0,0,832.41,338.23Z"/><path class="cls-1" d="M874.15,305.47a10.7,10.7,0,1,0-14.81-3.12A10.72,10.72,0,0,0,874.15,305.47Z"/><path class="cls-1" d="M915.9,272.68a6.16,6.16,0,1,0-8.55-1.78A6.16,6.16,0,0,0,915.9,272.68Z"/><path class="cls-1" d="M957.64,239.91a1.61,1.61,0,1,0-2.24-.48A1.61,1.61,0,0,0,957.64,239.91Z"/><path class="cls-1" d="M147.71,837a4.39,4.39,0,1,0-6.08-1.26A4.4,4.4,0,0,0,147.71,837Z"/><path class="cls-1" d="M194.45,811.81A8.94,8.94,0,1,0,182,809.25,8.95,8.95,0,0,0,194.45,811.81Z"/><path class="cls-1" d="M241.17,786.65a13.5,13.5,0,1,0-18.68-3.9A13.5,13.5,0,0,0,241.17,786.65Z"/><path class="cls-1" d="M287.89,761.47a18,18,0,1,0-25-5.21A18,18,0,0,0,287.89,761.47Z"/><path class="cls-1" d="M334.7,736.42a22.72,22.72,0,1,0-31.46-6.56A22.74,22.74,0,0,0,334.7,736.42Z"/><path class="cls-1" d="M381.34,711.13a27.13,27.13,0,1,0-37.56-7.83A27.16,27.16,0,0,0,381.34,711.13Z"/><path class="cls-1" d="M428.05,686a31.67,31.67,0,1,0-43.84-9.13A31.69,31.69,0,0,0,428.05,686Z"/><path class="cls-1" d="M472.87,657.83a32.7,32.7,0,1,0-45.28-9.43A32.7,32.7,0,0,0,472.87,657.83Z"/><path class="cls-1" d="M517.08,628.87a32.7,32.7,0,1,0-45.26-9.44A32.7,32.7,0,0,0,517.08,628.87Z"/><path class="cls-1" d="M561.31,599.9a32.7,32.7,0,1,0-45.26-9.44A32.7,32.7,0,0,0,561.31,599.9Z"/><path class="cls-1" d="M605.57,570.91a32.7,32.7,0,1,0-45.29-9.43A32.7,32.7,0,0,0,605.57,570.91Z"/><path class="cls-1" d="M649.8,541.94a32.7,32.7,0,1,0-45.29-9.43A32.71,32.71,0,0,0,649.8,541.94Z"/><path class="cls-1" d="M694,513a32.7,32.7,0,1,0-45.3-9.42A32.69,32.69,0,0,0,694,513Z"/><path class="cls-1" d="M736.09,480.69a28.75,28.75,0,1,0-39.78-8.31A28.71,28.71,0,0,0,736.09,480.69Z"/><path class="cls-1" d="M777.83,447.9a24.19,24.19,0,1,0-33.5-7A24.19,24.19,0,0,0,777.83,447.9Z"/><path class="cls-1" d="M819.56,415.11a19.64,19.64,0,1,0-27.19-5.66A19.63,19.63,0,0,0,819.56,415.11Z"/><path class="cls-1" d="M861.31,382.35a15.1,15.1,0,1,0-20.9-4.37A15.11,15.11,0,0,0,861.31,382.35Z"/><path class="cls-1" d="M903.05,349.58a10.56,10.56,0,1,0-14.6-3.07A10.59,10.59,0,0,0,903.05,349.58Z"/><path class="cls-1" d="M944.79,316.79a6,6,0,1,0-8.33-1.73A6,6,0,0,0,944.79,316.79Z"/><path class="cls-1" d="M986.46,283.91a1.33,1.33,0,0,0-1.45-2.22,1.33,1.33,0,0,0,1.45,2.22Z"/><path class="cls-1" d="M176.37,880.72a3.81,3.81,0,1,0-5.27-1.1A3.8,3.8,0,0,0,176.37,880.72Z"/><path class="cls-1" d="M223.1,855.55a8.36,8.36,0,1,0-11.58-2.41A8.35,8.35,0,0,0,223.1,855.55Z"/><path class="cls-1" d="M269.74,830.27a12.76,12.76,0,1,0-17.67-3.69A12.76,12.76,0,0,0,269.74,830.27Z"/><path class="cls-1" d="M316.38,805a17.15,17.15,0,1,0-23.75-5A17.16,17.16,0,0,0,316.38,805Z"/><path class="cls-1" d="M363,779.67a21.55,21.55,0,1,0-29.85-6.22A21.54,21.54,0,0,0,363,779.67Z"/><path class="cls-1" d="M409.59,754.26a25.8,25.8,0,1,0-35.73-7.46A25.83,25.83,0,0,0,409.59,754.26Z"/><path class="cls-1" d="M456.06,728.72a29.91,29.91,0,1,0-41.39-8.65A29.9,29.9,0,0,0,456.06,728.72Z"/><path class="cls-1" d="M501.84,702.06a32.7,32.7,0,1,0-45.28-9.43A32.69,32.69,0,0,0,501.84,702.06Z"/><path class="cls-1" d="M546.05,673.1a32.7,32.7,0,1,0-45.26-9.44A32.69,32.69,0,0,0,546.05,673.1Z"/><path class="cls-1" d="M590.29,644.13A32.7,32.7,0,1,0,545,634.68,32.69,32.69,0,0,0,590.29,644.13Z"/><path class="cls-1" d="M634.54,615.14a32.7,32.7,0,1,0-45.29-9.43A32.69,32.69,0,0,0,634.54,615.14Z"/><path class="cls-1" d="M678.77,586.17a32.7,32.7,0,1,0-45.28-9.44A32.7,32.7,0,0,0,678.77,586.17Z"/><path class="cls-1" d="M722.2,556a31.23,31.23,0,1,0-43.26-9A31.23,31.23,0,0,0,722.2,556Z"/><path class="cls-1" d="M764.18,523.56a27.13,27.13,0,1,0-37.57-7.83A27.13,27.13,0,0,0,764.18,523.56Z"/><path class="cls-1" d="M806.08,491a22.88,22.88,0,1,0-31.67-6.61A22.87,22.87,0,0,0,806.08,491Z"/><path class="cls-1" d="M848,458.49a18.62,18.62,0,1,0-25.79-5.37A18.63,18.63,0,0,0,848,458.49Z"/><path class="cls-1" d="M889.79,425.84a14.21,14.21,0,1,0-19.68-4.11A14.23,14.23,0,0,0,889.79,425.84Z"/><path class="cls-1" d="M931.63,393.2A9.83,9.83,0,1,0,918,390.35,9.82,9.82,0,0,0,931.63,393.2Z"/><path class="cls-1" d="M973.37,360.41a5.29,5.29,0,1,0-7.31-1.53A5.26,5.26,0,0,0,973.37,360.41Z"/><path class="cls-1" d="M1015.11,327.64a.75.75,0,0,0,.22-1,.74.74,0,0,0-1-.2.74.74,0,0,0,.81,1.23Z"/><path class="cls-1" d="M204.71,924a2.65,2.65,0,1,0-3.65-.77A2.64,2.64,0,0,0,204.71,924Z"/><path class="cls-1" d="M251.35,898.68a7,7,0,1,0-9.74-2A7,7,0,0,0,251.35,898.68Z"/><path class="cls-1" d="M297.91,873.26A11.29,11.29,0,1,0,282.27,870,11.29,11.29,0,0,0,297.91,873.26Z"/><path class="cls-1" d="M344.46,847.84A15.54,15.54,0,1,0,323,843.37,15.54,15.54,0,0,0,344.46,847.84Z"/><path class="cls-1" d="M391,822.31a19.65,19.65,0,1,0-27.2-5.67A19.65,19.65,0,0,0,391,822.31Z"/><path class="cls-1" d="M437.35,796.64a23.6,23.6,0,1,0-32.68-6.8A23.57,23.57,0,0,0,437.35,796.64Z"/><path class="cls-1" d="M483.51,770.62A27.13,27.13,0,1,0,446,762.79,27.14,27.14,0,0,0,483.51,770.62Z"/><path class="cls-1" d="M529.54,744.34a30.36,30.36,0,1,0-42-8.75A30.37,30.37,0,0,0,529.54,744.34Z"/><path class="cls-1" d="M575,717.34a32.7,32.7,0,1,0-45.25-9.44A32.7,32.7,0,0,0,575,717.34Z"/><path class="cls-1" d="M619.26,688.36A32.7,32.7,0,1,0,574,678.93,32.69,32.69,0,0,0,619.26,688.36Z"/><path class="cls-1" d="M663.51,659.37A32.7,32.7,0,1,0,618.23,650,32.69,32.69,0,0,0,663.51,659.37Z"/><path class="cls-1" d="M706.94,629.18a31.24,31.24,0,1,0-43.25-9A31.21,31.21,0,0,0,706.94,629.18Z"/><path class="cls-1" d="M749.56,597.74a28.3,28.3,0,1,0-39.18-8.15A28.31,28.31,0,0,0,749.56,597.74Z"/><path class="cls-1" d="M791.87,565.84a24.78,24.78,0,1,0-34.3-7.16A24.77,24.77,0,0,0,791.87,565.84Z"/><path class="cls-1" d="M834,533.68a21,21,0,1,0-29-6.06A21,21,0,0,0,834,533.68Z"/><path class="cls-1" d="M876,501.26a16.86,16.86,0,1,0-23.34-4.87A16.86,16.86,0,0,0,876,501.26Z"/><path class="cls-1" d="M918,468.85a12.75,12.75,0,1,0-17.66-3.68A12.74,12.74,0,0,0,918,468.85Z"/><path class="cls-1" d="M959.86,436.31a8.49,8.49,0,1,0-11.75-2.44A8.49,8.49,0,0,0,959.86,436.31Z"/><path class="cls-1" d="M1001.7,403.66a4.1,4.1,0,1,0-5.68-1.18A4.1,4.1,0,0,0,1001.7,403.66Z"/><path class="cls-1" d="M232.8,966.87a1,1,0,1,0-1.43-.3A1,1,0,0,0,232.8,966.87Z"/><path class="cls-1" d="M279.37,941.45a5.29,5.29,0,1,0-7.3-1.54A5.27,5.27,0,0,0,279.37,941.45Z"/><path class="cls-1" d="M325.84,915.91a9.38,9.38,0,1,0-13-2.71A9.37,9.37,0,0,0,325.84,915.91Z"/><path class="cls-1" d="M372.24,890.25a13.34,13.34,0,1,0-18.46-3.86A13.37,13.37,0,0,0,372.24,890.25Z"/><path class="cls-1" d="M418.57,864.47a17.16,17.16,0,1,0-23.76-5A17.18,17.18,0,0,0,418.57,864.47Z"/><path class="cls-1" d="M464.73,838.43a20.68,20.68,0,1,0-28.63-6A20.7,20.7,0,0,0,464.73,838.43Z"/><path class="cls-1" d="M510.71,812.15a23.89,23.89,0,1,0-33.06-6.9A23.89,23.89,0,0,0,510.71,812.15Z"/><path class="cls-1" d="M556.42,785.38a26.53,26.53,0,1,0-36.75-7.66A26.52,26.52,0,0,0,556.42,785.38Z"/><path class="cls-1" d="M601.58,757.88a28.29,28.29,0,1,0-39.16-8.16A28.31,28.31,0,0,0,601.58,757.88Z"/><path class="cls-1" d="M646.31,729.66a29.18,29.18,0,1,0-40.4-8.43A29.21,29.21,0,0,0,646.31,729.66Z"/><path class="cls-1" d="M690.32,700.3A28.74,28.74,0,1,0,650.51,692,28.75,28.75,0,0,0,690.32,700.3Z"/><path class="cls-1" d="M733.66,670a27.12,27.12,0,1,0-37.57-7.8A27.11,27.11,0,0,0,733.66,670Z"/><path class="cls-1" d="M776.61,639a24.78,24.78,0,1,0-34.3-7.16A24.77,24.77,0,0,0,776.61,639Z"/><path class="cls-1" d="M819.15,607.49a21.71,21.71,0,1,0-30-6.26A21.7,21.7,0,0,0,819.15,607.49Z"/><path class="cls-1" d="M861.54,575.69a18.33,18.33,0,1,0-25.38-5.28A18.34,18.34,0,0,0,861.54,575.69Z"/><path class="cls-1" d="M903.76,543.65a14.66,14.66,0,1,0-20.3-4.23A14.68,14.68,0,0,0,903.76,543.65Z"/><path class="cls-1" d="M945.82,511.37a10.7,10.7,0,1,0-14.8-3.1A10.71,10.71,0,0,0,945.82,511.37Z"/><path class="cls-1" d="M987.88,479.09a6.75,6.75,0,1,0-9.32-2A6.73,6.73,0,0,0,987.88,479.09Z"/><path class="cls-1" d="M1029.79,446.55a2.49,2.49,0,1,0-3.45-.72A2.5,2.5,0,0,0,1029.79,446.55Z"/><path class="cls-1" d="M307.21,984a3.22,3.22,0,1,0-4.46-.9A3.23,3.23,0,0,0,307.21,984Z"/><path class="cls-1" d="M353.53,958.18a7,7,0,1,0-9.74-2A7,7,0,0,0,353.53,958.18Z"/><path class="cls-1" d="M399.77,932.27a10.7,10.7,0,1,0-14.8-3.08A10.69,10.69,0,0,0,399.77,932.27Z"/><path class="cls-1" d="M445.94,906.24a14.23,14.23,0,1,0-19.69-4.09A14.23,14.23,0,0,0,445.94,906.24Z"/><path class="cls-1" d="M491.85,879.84a17.31,17.31,0,1,0-23.94-5A17.31,17.31,0,0,0,491.85,879.84Z"/><path class="cls-1" d="M537.6,853.2a20.09,20.09,0,1,0-27.78-5.79A20.09,20.09,0,0,0,537.6,853.2Z"/><path class="cls-1" d="M583.14,826.17a22.43,22.43,0,1,0-31-6.46A22.44,22.44,0,0,0,583.14,826.17Z"/><path class="cls-1" d="M628.15,798.44a23.9,23.9,0,1,0-33.06-6.89A23.89,23.89,0,0,0,628.15,798.44Z"/><path class="cls-1" d="M672.71,770a24.49,24.49,0,1,0-33.89-7.05A24.49,24.49,0,0,0,672.71,770Z"/><path class="cls-1" d="M716.8,740.72a24.19,24.19,0,1,0-33.49-7A24.16,24.16,0,0,0,716.8,740.72Z"/><path class="cls-1" d="M760.31,710.64a22.88,22.88,0,1,0-31.67-6.58A22.86,22.86,0,0,0,760.31,710.64Z"/><path class="cls-1" d="M803.5,680.08a21,21,0,1,0-29-6A21,21,0,0,0,803.5,680.08Z"/><path class="cls-1" d="M846.28,648.9a18.33,18.33,0,1,0-25.37-5.28A18.33,18.33,0,0,0,846.28,648.9Z"/><path class="cls-1" d="M888.83,617.34a15.24,15.24,0,1,0-21.1-4.39A15.25,15.25,0,0,0,888.83,617.34Z"/><path class="cls-1" d="M931.21,585.55a11.88,11.88,0,1,0-16.42-3.42A11.86,11.86,0,0,0,931.21,585.55Z"/><path class="cls-1" d="M973.52,553.65A8.37,8.37,0,1,0,962,551.24,8.37,8.37,0,0,0,973.52,553.65Z"/><path class="cls-1" d="M1015.56,521.34a4.39,4.39,0,1,0-6.07-1.25A4.39,4.39,0,0,0,1015.56,521.34Z"/><path class="cls-1" d="M1057.64,489.06a.44.44,0,1,0-.48-.73.44.44,0,1,0,.48.73Z"/><path class="cls-1" d="M334.75,1026a.57.57,0,0,0,.16-.8.59.59,0,0,0-.81-.19.6.6,0,0,0-.18.83A.59.59,0,0,0,334.75,1026Z"/><path class="cls-1" d="M381,1000.07a4.25,4.25,0,1,0-5.88-1.21A4.24,4.24,0,0,0,381,1000.07Z"/><path class="cls-1" d="M427.13,974.05a7.78,7.78,0,1,0-10.75-2.23A7.78,7.78,0,0,0,427.13,974.05Z"/><path class="cls-1" d="M473.06,947.65a10.85,10.85,0,1,0-15-3.13A10.85,10.85,0,0,0,473.06,947.65Z"/><path class="cls-1" d="M518.9,921.13a13.79,13.79,0,1,0-19.08-4A13.76,13.76,0,0,0,518.9,921.13Z"/><path class="cls-1" d="M564.41,894.11a16.13,16.13,0,1,0-22.32-4.64A16.12,16.12,0,0,0,564.41,894.11Z"/><path class="cls-1" d="M609.71,866.73a18,18,0,1,0-25-5.19A18,18,0,0,0,609.71,866.73Z"/><path class="cls-1" d="M654.64,838.88a19.36,19.36,0,1,0-26.78-5.59A19.38,19.38,0,0,0,654.64,838.88Z"/><path class="cls-1" d="M699.19,810.37a19.93,19.93,0,1,0-27.59-5.74A19.94,19.94,0,0,0,699.19,810.37Z"/><path class="cls-1" d="M743.29,781.16a19.65,19.65,0,1,0-27.2-5.67A19.65,19.65,0,0,0,743.29,781.16Z"/><path class="cls-1" d="M787,751.32A18.62,18.62,0,1,0,761.18,746,18.6,18.6,0,0,0,787,751.32Z"/><path class="cls-1" d="M830.23,720.89A16.87,16.87,0,1,0,806.88,716,16.89,16.89,0,0,0,830.23,720.89Z"/><path class="cls-1" d="M873.24,690.06a14.66,14.66,0,1,0-20.3-4.21A14.63,14.63,0,0,0,873.24,690.06Z"/><path class="cls-1" d="M916,658.75a11.88,11.88,0,1,0-16.44-3.4A11.85,11.85,0,0,0,916,658.75Z"/><path class="cls-1" d="M958.5,627.21a8.8,8.8,0,1,0-12.18-2.53A8.8,8.8,0,0,0,958.5,627.21Z"/><path class="cls-1" d="M1000.88,595.42a5.42,5.42,0,1,0-7.5-1.56A5.43,5.43,0,0,0,1000.88,595.42Z"/><path class="cls-1" d="M1043.1,563.38a1.76,1.76,0,1,0-2.41-.52A1.75,1.75,0,0,0,1043.1,563.38Z"/><path class="cls-1" d="M408.26,1041.73a1.17,1.17,0,0,0-1.28-2,1.17,1.17,0,1,0,1.28,2Z"/><path class="cls-1" d="M454.27,1015.47a4.4,4.4,0,1,0-6.1-1.27A4.41,4.41,0,0,0,454.27,1015.47Z"/><path class="cls-1" d="M500.19,989.06a7.48,7.48,0,1,0-10.37-2.14A7.48,7.48,0,0,0,500.19,989.06Z"/><path class="cls-1" d="M545.79,962.18a10,10,0,1,0-13.8-2.89A10,10,0,0,0,545.79,962.18Z"/><path class="cls-1" d="M591.22,935a12.17,12.17,0,1,0-16.84-3.52A12.18,12.18,0,0,0,591.22,935Z"/><path class="cls-1" d="M636.35,907.4a13.78,13.78,0,1,0-19.09-4A13.8,13.8,0,0,0,636.35,907.4Z"/><path class="cls-1" d="M681.12,879.3A14.81,14.81,0,1,0,660.63,875,14.8,14.8,0,0,0,681.12,879.3Z"/><path class="cls-1" d="M725.6,850.7a15.25,15.25,0,1,0-21.09-4.42A15.25,15.25,0,0,0,725.6,850.7Z"/><path class="cls-1" d="M769.77,821.58a15.1,15.1,0,1,0-20.93-4.34A15.11,15.11,0,0,0,769.77,821.58Z"/><path class="cls-1" d="M813.52,791.88a14.23,14.23,0,1,0-19.69-4.11A14.2,14.2,0,0,0,813.52,791.88Z"/><path class="cls-1" d="M857,761.68A12.76,12.76,0,1,0,839.28,758,12.74,12.74,0,0,0,857,761.68Z"/><path class="cls-1" d="M900.05,731a10.69,10.69,0,1,0-14.84-3.07A10.7,10.7,0,0,0,900.05,731Z"/><path class="cls-1" d="M943,700a8.35,8.35,0,1,0-11.56-2.4A8.36,8.36,0,0,0,943,700Z"/><path class="cls-1" d="M985.63,668.62a5.42,5.42,0,1,0-7.52-1.56A5.43,5.43,0,0,0,985.63,668.62Z"/><path class="cls-1" d="M1028.16,637.07a2.34,2.34,0,1,0-3.23-.68A2.35,2.35,0,0,0,1028.16,637.07Z"/><path class="cls-1" d="M481.31,1056.76a.87.87,0,0,0,.24-1.22.86.86,0,1,0-.24,1.22Z"/><path class="cls-1" d="M527.07,1030.1A3.66,3.66,0,1,0,522,1029,3.65,3.65,0,0,0,527.07,1030.1Z"/><path class="cls-1" d="M572.59,1003.09a6,6,0,1,0-8.31-1.74A6,6,0,0,0,572.59,1003.09Z"/><path class="cls-1" d="M617.86,975.71a7.92,7.92,0,1,0-11-2.28A7.94,7.94,0,0,0,617.86,975.71Z"/><path class="cls-1" d="M662.92,948a9.37,9.37,0,1,0-13-2.69A9.4,9.4,0,0,0,662.92,948Z"/><path class="cls-1" d="M707.69,919.86a10.42,10.42,0,1,0-14.4-3A10.4,10.4,0,0,0,707.69,919.86Z"/><path class="cls-1" d="M752.08,891.12A10.69,10.69,0,1,0,737.27,888,10.71,10.71,0,0,0,752.08,891.12Z"/><path class="cls-1" d="M796.26,862a10.56,10.56,0,1,0-14.63-3A10.58,10.58,0,0,0,796.26,862Z"/><path class="cls-1" d="M840.09,832.43a9.83,9.83,0,1,0-13.6-2.84A9.82,9.82,0,0,0,840.09,832.43Z"/><path class="cls-1" d="M883.59,802.34a8.5,8.5,0,1,0-11.77-2.44A8.49,8.49,0,0,0,883.59,802.34Z"/><path class="cls-1" d="M926.85,771.9a6.74,6.74,0,1,0-9.31-1.95A6.75,6.75,0,0,0,926.85,771.9Z"/><path class="cls-1" d="M969.8,741a4.4,4.4,0,1,0-6.09-1.26A4.4,4.4,0,0,0,969.8,741Z"/><path class="cls-1" d="M1012.6,709.8a1.79,1.79,0,0,0,.51-2.45,1.77,1.77,0,1,0-.51,2.45Z"/><path class="cls-1" d="M599.24,1043.78a1.77,1.77,0,1,0-2.45-.52A1.78,1.78,0,0,0,599.24,1043.78Z"/><path class="cls-1" d="M644.5,1016.38a3.66,3.66,0,0,0,1.08-5.07,3.67,3.67,0,1,0-6.14,4A3.65,3.65,0,0,0,644.5,1016.38Z"/><path class="cls-1" d="M689.49,988.51a5,5,0,1,0-6.92-1.43A5,5,0,0,0,689.49,988.51Z"/><path class="cls-1" d="M734.18,960.3a5.87,5.87,0,1,0-8.1-1.72A5.86,5.86,0,0,0,734.18,960.3Z"/><path class="cls-1" d="M778.58,931.57a6.17,6.17,0,1,0-8.53-1.8A6.18,6.18,0,0,0,778.58,931.57Z"/><path class="cls-1" d="M822.74,902.45a6,6,0,1,0-8.33-1.73A6,6,0,0,0,822.74,902.45Z"/><path class="cls-1" d="M866.56,872.85a5.27,5.27,0,1,0-7.28-1.53A5.26,5.26,0,0,0,866.56,872.85Z"/><path class="cls-1" d="M910.15,842.9a4.1,4.1,0,1,0-5.67-1.18A4.11,4.11,0,0,0,910.15,842.9Z"/><path class="cls-1" d="M953.5,812.58a2.49,2.49,0,1,0-3.44-.73A2.49,2.49,0,0,0,953.5,812.58Z"/><path class="cls-1" d="M996.61,781.89a.44.44,0,1,0-.49-.74.44.44,0,1,0,.49.74Z"/><path class="cls-1" d="M716,1028.93a.42.42,0,0,0,.12-.59.44.44,0,0,0-.6-.15.45.45,0,0,0-.13.63A.43.43,0,0,0,716,1028.93Z"/><path class="cls-1" d="M760.58,1000.6a1.18,1.18,0,1,0-1.29-2,1.18,1.18,0,0,0,1.29,2Z"/><path class="cls-1" d="M805.05,972a1.61,1.61,0,1,0-2.21-.48A1.61,1.61,0,0,0,805.05,972Z"/><path class="cls-1" d="M849.14,942.75a1.31,1.31,0,0,0-1.44-2.2,1.31,1.31,0,1,0,1.44,2.2Z"/><path class="cls-1" d="M893,913.28a.73.73,0,1,0-1-.19A.74.74,0,0,0,893,913.28Z"/></g></g></svg>